<svg width="40" height="40" viewBox="0 0 40 40" fill="none" xmlns="http://www.w3.org/2000/svg">
    <g clip-path="url(#clip0_1_319)">
        <path fill-rule="evenodd" clip-rule="evenodd" d="M40 10V30C39.9999 32.6521 38.9463 35.1956 37.0709 37.0709C35.1956 38.9463 32.6521 39.9999 30 40H10C7.34787 39.9999 4.8044 38.9463 2.92906 37.0709C1.05372 35.1956 0.000116023 32.6521 0 30L0 10C0 7.34784 1.05357 4.80429 2.92893 2.92893C4.8043 1.05357 7.34784 0 10 0H30C32.6522 0 35.1957 1.05357 37.0711 2.92893C38.9464 4.80429 40 7.34784 40 10Z" fill="#32DC82"/>
        <path fill-rule="evenodd" clip-rule="evenodd" d="M11.25 21.25V10C11.2499 8.55795 10.696 7.17101 9.70276 6.1256C8.70948 5.08018 7.35266 4.45614 5.9125 4.38235C4.47235 4.30855 3.05885 4.79063 1.96391 5.72904C0.868981 6.66745 0.176239 7.99052 0.02875 9.425C0.018125 9.61625 0 9.80563 0 10L0 30C0.000116023 32.6521 1.05372 35.1956 2.92906 37.0709C4.8044 38.9463 7.34787 39.9999 10 40H30C25.0272 39.9999 20.2582 38.0244 16.7419 34.5081C13.2256 30.9918 11.2501 26.2228 11.25 21.25Z" fill="#4BF59B"/>
        <path fill-rule="evenodd" clip-rule="evenodd" d="M20 9.99999C20 11.9778 20.5865 13.9112 21.6853 15.5557C22.7841 17.2002 24.3459 18.4819 26.1732 19.2388C28.0004 19.9957 30.0111 20.1937 31.9509 19.8078C33.8907 19.422 35.6725 18.4696 37.0711 17.0711C38.4696 15.6725 39.422 13.8907 39.8079 11.9509C40.1937 10.0111 39.9957 8.00042 39.2388 6.17316C38.4819 4.3459 37.2002 2.78411 35.5557 1.6853C33.9112 0.586485 31.9778 -3.8147e-06 30 -3.8147e-06H10C12.6522 -3.8147e-06 15.1957 1.05356 17.0711 2.92893C18.9464 4.80429 20 7.34783 20 9.99999Z" fill="#19C369"/>
        <path fill-rule="evenodd" clip-rule="evenodd" d="M20 11.25V28.75H28.75C28.9142 28.75 29.0767 28.7178 29.2284 28.6549C29.3801 28.5921 29.5179 28.5001 29.634 28.384C29.7501 28.2679 29.8421 28.1301 29.9049 27.9784C29.9678 27.8267 30 27.6642 30 27.5V12.5C30 12.3358 29.9678 12.1733 29.9049 12.0216C29.8421 11.8699 29.7501 11.7321 29.634 11.616C29.5179 11.4999 29.3801 11.4079 29.2284 11.3451C29.0767 11.2822 28.9142 11.25 28.75 11.25H20Z" fill="white"/>
        <path fill-rule="evenodd" clip-rule="evenodd" d="M21.875 30C21.3777 30 20.9008 30.1975 20.5492 30.5492C20.1975 30.9008 20 31.3777 20 31.875C20 32.3723 20.1975 32.8492 20.5492 33.2008C20.9008 33.5525 21.3777 33.75 21.875 33.75H28.125C28.6223 33.75 29.0992 33.5525 29.4508 33.2008C29.8025 32.8492 30 32.3723 30 31.875C30 31.3777 29.8025 30.9008 29.4508 30.5492C29.0992 30.1975 28.6223 30 28.125 30H21.875Z" fill="white"/>
        <path fill-rule="evenodd" clip-rule="evenodd" d="M21.875 6.25C21.3777 6.25 20.9008 6.44755 20.5492 6.79918C20.1975 7.15081 20 7.62772 20 8.125C20 8.62228 20.1975 9.09919 20.5492 9.45082C20.9008 9.80245 21.3777 10 21.875 10H28.125C28.6223 10 29.0992 9.80245 29.4508 9.45082C29.8025 9.09919 30 8.62228 30 8.125C30 7.62772 29.8025 7.15081 29.4508 6.79918C29.0992 6.44755 28.6223 6.25 28.125 6.25H21.875Z" fill="white"/>
        <path fill-rule="evenodd" clip-rule="evenodd" d="M18.7503 28.75V11.25C17.4295 11.2508 16.1259 11.5503 14.9371 12.126C13.7483 12.7017 12.705 13.5387 11.8853 14.5744L8.43782 12.5837C8.29434 12.5022 8.12443 12.4807 7.96515 12.5239C7.80588 12.5671 7.67017 12.6716 7.58765 12.8146C7.50512 12.9575 7.48248 13.1273 7.52467 13.2868C7.56685 13.4464 7.67044 13.5828 7.81282 13.6662L11.1809 15.6106C10.4078 16.9443 10.0005 18.4585 10.0003 20.0001C10.0001 21.5417 10.4069 23.0561 11.1797 24.39L7.81282 26.3337C7.67044 26.4172 7.56685 26.5536 7.52467 26.7132C7.48248 26.8727 7.50512 27.0425 7.58765 27.1854C7.67017 27.3284 7.80588 27.4328 7.96515 27.4761C8.12443 27.5193 8.29434 27.4978 8.43782 27.4162L11.8853 25.4256C12.7036 26.4629 13.7466 27.301 14.9357 27.8768C16.1248 28.4527 17.4291 28.7512 18.7503 28.75ZM14.3753 15.9375C14.3753 15.7521 14.4303 15.5708 14.5333 15.4166C14.6363 15.2625 14.7827 15.1423 14.9541 15.0714C15.1254 15.0004 15.3139 14.9818 15.4957 15.018C15.6776 15.0542 15.8446 15.1435 15.9757 15.2746C16.1068 15.4057 16.1961 15.5727 16.2323 15.7546C16.2685 15.9365 16.2499 16.125 16.179 16.2963C16.108 16.4676 15.9878 16.614 15.8337 16.717C15.6795 16.82 15.4982 16.875 15.3128 16.875C15.0642 16.8749 14.8258 16.7761 14.65 16.6003C14.4742 16.4245 14.3754 16.1861 14.3753 15.9375ZM14.3753 24.0625C14.3753 23.8771 14.4303 23.6958 14.5333 23.5416C14.6363 23.3875 14.7827 23.2673 14.9541 23.1964C15.1254 23.1254 15.3139 23.1068 15.4957 23.143C15.6776 23.1792 15.8446 23.2685 15.9757 23.3996C16.1068 23.5307 16.1961 23.6977 16.2323 23.8796C16.2685 24.0615 16.2499 24.25 16.179 24.4213C16.108 24.5926 15.9878 24.739 15.8337 24.842C15.6795 24.945 15.4982 25 15.3128 25C15.0642 24.9999 14.8258 24.9011 14.65 24.7253C14.4742 24.5495 14.3754 24.3111 14.3753 24.0625Z" fill="white"/>
    </g>
    <defs>
        <clipPath id="clip0_1_319">
            <rect width="40" height="40" fill="white" transform="translate(0 40) rotate(-90)"/>
        </clipPath>
    </defs>
</svg>
