<svg width="120" height="31" viewBox="0 0 120 31" fill="none" xmlns="http://www.w3.org/2000/svg">
    <path d="M18.4652 14.4508C18.4786 13.4093 18.7553 12.388 19.2694 11.4821C19.7836 10.5762 20.5185 9.81512 21.4059 9.26958C20.8422 8.4645 20.0985 7.80195 19.2339 7.33456C18.3694 6.86717 17.4077 6.6078 16.4254 6.57707C14.3299 6.35711 12.2985 7.83097 11.2306 7.83097C10.1421 7.83097 8.49806 6.59891 6.72765 6.63533C5.58251 6.67232 4.46648 7.00533 3.4883 7.60188C2.51012 8.19844 1.70314 9.03821 1.14601 10.0394C-1.26732 14.2178 0.532809 20.3586 2.84462 23.7362C4.00128 25.39 5.35307 27.2375 7.12188 27.1719C8.85276 27.1002 9.49921 26.0682 11.5885 26.0682C13.6584 26.0682 14.2649 27.1719 16.0696 27.1303C17.927 27.1002 19.0971 25.4691 20.2132 23.7995C21.0443 22.6211 21.6838 21.3187 22.108 19.9405C21.029 19.4841 20.1082 18.7202 19.4604 17.7439C18.8126 16.7677 18.4664 15.6224 18.4652 14.4508Z" fill="black" fill-opacity="0.7"/>
    <path d="M15.0562 4.35587C16.0689 3.14018 16.5678 1.57761 16.447 0C14.8998 0.162498 13.4707 0.901937 12.4443 2.07098C11.9425 2.64209 11.5581 3.30651 11.3132 4.02625C11.0684 4.74598 10.9677 5.50693 11.0171 6.26558C11.7909 6.27355 12.5565 6.10582 13.2562 5.77502C13.9558 5.44423 14.5712 4.959 15.0562 4.35587V4.35587Z" fill="black" fill-opacity="0.7"/>
    <path d="M39.2312 23.1511H33.5512L32.1871 27.1788H29.7812L35.1613 12.2772H37.6609L43.041 27.1788H40.5941L39.2312 23.1511ZM34.1395 21.2925H38.6418L36.4223 14.7558H36.3601L34.1395 21.2925Z" fill="black" fill-opacity="0.7"/>
    <path d="M54.6598 21.7476C54.6598 25.1238 52.8528 27.2929 50.1258 27.2929C49.435 27.329 48.748 27.1699 48.1435 26.8337C47.5389 26.4976 47.0413 25.998 46.7075 25.3921H46.6559V30.7734H44.4258V16.3148H46.5844V18.1218H46.6254C46.9745 17.5188 47.4806 17.0218 48.0898 16.6836C48.6989 16.3454 49.3884 16.1786 50.0848 16.2011C52.8422 16.2011 54.6598 18.3808 54.6598 21.7476ZM52.3676 21.7476C52.3676 19.548 51.2309 18.1019 49.4965 18.1019C47.7926 18.1019 46.6465 19.5784 46.6465 21.7476C46.6465 23.9367 47.7926 25.4027 49.4965 25.4027C51.2309 25.4027 52.3676 23.9671 52.3676 21.7476H52.3676Z" fill="black" fill-opacity="0.7"/>
    <path d="M66.6184 21.7476C66.6184 25.1238 64.8108 27.2929 62.0838 27.2929C61.393 27.329 60.706 27.1699 60.1015 26.8337C59.4969 26.4976 58.9993 25.998 58.6655 25.3921H58.6139V30.7734H56.3838V16.3148H58.5424V18.1218H58.5834C58.9325 17.5188 59.4386 17.0218 60.0478 16.6836C60.6569 16.3454 61.3464 16.1786 62.0428 16.2011C64.8002 16.2011 66.6184 18.3808 66.6184 21.7476ZM64.3256 21.7476C64.3256 19.548 63.1889 18.1019 61.4545 18.1019C59.7506 18.1019 58.6045 19.5784 58.6045 21.7476C58.6045 23.9367 59.7506 25.4027 61.4545 25.4027C63.1889 25.4027 64.3256 23.9671 64.3256 21.7476V21.7476Z" fill="black" fill-opacity="0.7"/>
    <path d="M74.5202 23.0273C74.6854 24.505 76.121 25.4753 78.0827 25.4753C79.9624 25.4753 81.3147 24.505 81.3147 23.1725C81.3147 22.0159 80.4991 21.3233 78.5678 20.8487L76.6366 20.3835C73.9003 19.7225 72.6299 18.4429 72.6299 16.3663C72.6299 13.7952 74.8706 12.0292 78.051 12.0292C81.201 12.0292 83.3596 13.7952 83.4323 16.3663H81.1811C81.0463 14.8792 79.817 13.9815 78.0206 13.9815C76.2241 13.9815 74.9948 14.8897 74.9948 16.2116C74.9948 17.2651 75.7799 17.885 77.7006 18.3596L79.3424 18.7627C82.3998 19.4858 83.669 20.7139 83.669 22.8936C83.669 25.6815 81.4495 27.4276 77.9174 27.4276C74.6127 27.4276 72.3814 25.7225 72.2373 23.0272L74.5202 23.0273Z" fill="black" fill-opacity="0.7"/>
    <path d="M88.4843 13.744V16.3151H90.5504V18.0811H88.4843V24.0706C88.4843 25.001 88.898 25.4346 89.8062 25.4346C90.0515 25.4304 90.2964 25.4131 90.5398 25.383V27.1385C90.1315 27.2148 89.7165 27.2494 89.3011 27.2416C87.1016 27.2416 86.2437 26.4155 86.2437 24.3084V18.0811H84.6641V16.3151H86.2437V13.744H88.4843Z" fill="black" fill-opacity="0.7"/>
    <path d="M91.7461 21.7479C91.7461 18.3296 93.7594 16.1815 96.8988 16.1815C100.049 16.1815 102.053 18.3295 102.053 21.7479C102.053 25.1757 100.059 27.3143 96.8988 27.3143C93.7394 27.3143 91.7461 25.1756 91.7461 21.7479ZM99.7804 21.7479C99.7804 19.403 98.7058 18.019 96.8988 18.019C95.0918 18.019 94.0172 19.4135 94.0172 21.7479C94.0172 24.1022 95.0918 25.4757 96.8988 25.4757C98.7058 25.4757 99.7804 24.1022 99.7804 21.7479H99.7804Z" fill="black" fill-opacity="0.7"/>
    <path d="M103.892 16.3147H106.019V18.1639H106.07C106.214 17.5863 106.552 17.0759 107.028 16.7185C107.504 16.361 108.089 16.1783 108.683 16.201C108.94 16.2001 109.197 16.228 109.448 16.2842V18.3701C109.123 18.271 108.785 18.2255 108.446 18.2354C108.122 18.2222 107.799 18.2793 107.499 18.4028C107.199 18.5263 106.929 18.7132 106.709 18.9506C106.488 19.1881 106.321 19.4705 106.22 19.7785C106.118 20.0865 106.085 20.4128 106.122 20.735V27.1791H103.892L103.892 16.3147Z" fill="black" fill-opacity="0.7"/>
    <path d="M119.729 23.9886C119.429 25.9608 117.508 27.3143 115.051 27.3143C111.89 27.3143 109.929 25.1967 109.929 21.7995C109.929 18.3917 111.901 16.1815 114.957 16.1815C117.963 16.1815 119.853 18.2464 119.853 21.5405V22.3046H112.18V22.4393C112.144 22.8392 112.195 23.242 112.327 23.621C112.459 24 112.67 24.3465 112.947 24.6376C113.223 24.9286 113.558 25.1576 113.93 25.3091C114.302 25.4607 114.701 25.5314 115.103 25.5167C115.63 25.566 116.158 25.444 116.61 25.1687C117.062 24.8933 117.414 24.4794 117.612 23.9885L119.729 23.9886ZM112.19 20.746H117.622C117.642 20.3865 117.588 20.0267 117.462 19.6892C117.336 19.3518 117.142 19.0439 116.892 18.785C116.642 18.5261 116.341 18.3217 116.008 18.1846C115.675 18.0476 115.317 17.9808 114.957 17.9885C114.594 17.9864 114.234 18.0562 113.898 18.1938C113.562 18.3315 113.257 18.5344 112.999 18.7908C112.742 19.0471 112.538 19.3519 112.399 19.6875C112.26 20.0231 112.189 20.3828 112.19 20.746V20.746Z" fill="black" fill-opacity="0.7"/>
    <path d="M32.5553 4.08786H33.5127C33.6775 4.10838 33.8448 4.09454 34.004 4.04721C34.1632 3.99988 34.3109 3.92008 34.4377 3.81284C34.5645 3.70561 34.6678 3.57327 34.7409 3.42415C34.8141 3.27504 34.8555 3.11239 34.8627 2.94645C34.8627 2.2861 34.3658 1.85954 33.5232 1.85954C33.3544 1.83595 33.1825 1.84642 33.0178 1.89035C32.853 1.93428 32.6988 2.01078 32.5641 2.11532C32.4294 2.21985 32.317 2.35032 32.2336 2.49901C32.1501 2.6477 32.0973 2.8116 32.0783 2.98103H31.0271C31.0452 2.67347 31.1264 2.37292 31.2657 2.09811C31.405 1.8233 31.5993 1.5801 31.8367 1.38365C32.074 1.18721 32.3492 1.04172 32.6452 0.956258C32.9412 0.870793 33.2517 0.847178 33.5572 0.886881C34.9669 0.886881 35.9596 1.67613 35.9596 2.81227C35.9629 3.19288 35.8356 3.56312 35.5988 3.86117C35.3621 4.15922 35.0303 4.36705 34.6588 4.44997V4.53434C35.0992 4.55387 35.5139 4.74698 35.8124 5.07143C36.1108 5.39588 36.2686 5.82529 36.2514 6.26579C36.2188 6.58246 36.1233 6.88943 35.9705 7.16873C35.8178 7.44802 35.6108 7.694 35.3617 7.89226C35.1126 8.09052 34.8265 8.23707 34.5201 8.32331C34.2136 8.40956 33.8931 8.43376 33.5771 8.3945C33.2606 8.43766 32.9385 8.41664 32.6303 8.33269C32.322 8.24874 32.0338 8.10357 31.7828 7.90586C31.5318 7.70814 31.3232 7.46191 31.1694 7.18185C31.0157 6.90179 30.9198 6.59364 30.8877 6.27576H31.9553C32.0197 6.96072 32.649 7.40256 33.5771 7.40256C34.5053 7.40256 35.1111 6.90627 35.1111 6.20666C35.1111 5.49709 34.5404 5.05998 33.5432 5.05998H32.5553V4.08786Z" fill="black" fill-opacity="0.7"/>
    <path d="M37.4639 6.69257C37.4639 5.71991 38.1893 5.15918 39.4736 5.07948L40.9373 4.99511V4.52871C40.9373 3.958 40.5611 3.63574 39.8311 3.63574C39.2358 3.63574 38.8244 3.8543 38.7049 4.23633H37.6725C37.7814 3.3082 38.6557 2.71289 39.8814 2.71289C41.2361 2.71289 42.0002 3.38729 42.0002 4.52871V8.2207H40.9725V7.46133H40.8881C40.7168 7.73372 40.4763 7.95578 40.1912 8.10483C39.9061 8.25388 39.5865 8.32459 39.265 8.30973C39.0382 8.33332 38.8089 8.30912 38.592 8.23868C38.3751 8.16825 38.1754 8.05313 38.0057 7.90077C37.836 7.74841 37.7001 7.56217 37.6068 7.35408C37.5134 7.14598 37.4648 6.92063 37.4639 6.69257V6.69257ZM40.9373 6.23085V5.7791L39.6177 5.86347C38.8736 5.91327 38.5361 6.1664 38.5361 6.64276C38.5361 7.12908 38.9579 7.41209 39.5381 7.41209C39.7081 7.4293 39.8798 7.41215 40.043 7.36164C40.2062 7.31114 40.3576 7.22832 40.4881 7.11811C40.6187 7.0079 40.7257 6.87255 40.8029 6.72012C40.88 6.5677 40.9258 6.4013 40.9373 6.23085V6.23085Z" fill="black" fill-opacity="0.7"/>
    <path d="M44.8311 3.71504V8.2209H43.7646V2.81738H47.3225V3.71498L44.8311 3.71504Z" fill="black" fill-opacity="0.7"/>
    <path d="M53.7854 5.51714C53.7854 7.23393 52.917 8.3103 51.5529 8.3103C51.2181 8.33317 50.8837 8.2599 50.5891 8.0991C50.2945 7.9383 50.0519 7.69668 49.89 7.40268H49.8057V10.0177H48.7393V2.81772H49.7658V3.71073H49.8455C50.0103 3.40646 50.256 3.15366 50.5555 2.98026C50.8549 2.80685 51.1965 2.71959 51.5424 2.72811C52.917 2.72807 53.7854 3.79974 53.7854 5.51714ZM52.6885 5.51714C52.6885 4.37573 52.1482 3.68608 51.2447 3.68608C50.3471 3.68608 49.7858 4.39037 49.7858 5.52183C49.7858 6.648 50.3471 7.35288 51.24 7.35288C52.1482 7.35287 52.6885 6.66322 52.6885 5.51714Z" fill="black" fill-opacity="0.7"/>
    <path d="M55.2051 10.1563V9.23809C55.3205 9.25275 55.4368 9.25941 55.5531 9.25801C55.7803 9.27484 56.0057 9.20717 56.1861 9.068C56.3665 8.92883 56.4891 8.72795 56.5305 8.5039L56.6102 8.24082L54.6543 2.81738H55.8156L57.1704 7.10937H57.2547L58.6047 2.81738H59.7356L57.7212 8.44414C57.2594 9.75898 56.7485 10.1809 55.6469 10.1809C55.5579 10.1809 55.3047 10.1709 55.2051 10.1563Z" fill="black" fill-opacity="0.7"/>
    <path d="M60.5664 6.68743H61.6281C61.7324 7.16383 62.1789 7.41223 62.8035 7.41223C63.5137 7.41223 63.9496 7.09934 63.9496 6.61303C63.9496 6.09213 63.5582 5.8437 62.8035 5.8437H61.9949V5.01518H62.7895C63.434 5.01518 63.7621 4.76733 63.7621 4.31558C63.7621 3.9189 63.4445 3.61598 62.7895 3.61598C62.193 3.61598 61.757 3.86911 61.6879 4.29567H60.6602C60.737 3.80552 61.0031 3.3651 61.4013 3.06914C61.7995 2.77318 62.298 2.64531 62.7895 2.71305C64.0738 2.71305 64.8086 3.29372 64.8086 4.20661C64.8146 4.46082 64.7331 4.70939 64.5779 4.91075C64.4226 5.11211 64.2029 5.25406 63.9555 5.31286V5.39724C64.25 5.43523 64.5204 5.58002 64.7152 5.80414C64.91 6.02825 65.0158 6.3161 65.0125 6.61305C65.0125 7.64025 64.1383 8.31989 62.8035 8.31989C61.6234 8.31985 60.6649 7.77903 60.5664 6.68743Z" fill="black" fill-opacity="0.7"/>
    <path d="M66.5488 8.2209V2.81738H67.6059V6.534H67.6902L70.1805 2.81739H71.2375V8.22091H70.1805V4.4844H70.1008L67.6059 8.22092L66.5488 8.2209Z" fill="black" fill-opacity="0.7"/>
    <path d="M77.0606 3.71596H75.359V8.22182H74.2914V3.71596H72.5898V2.81836H77.0606V3.71596Z" fill="black" fill-opacity="0.7"/>
    <path d="M82.8051 6.76182C82.6598 7.25564 82.3456 7.68272 81.9174 7.96846C81.4892 8.25419 80.9743 8.38042 80.4625 8.3251C80.1065 8.33449 79.7527 8.26631 79.4257 8.12527C79.0987 7.98424 78.8063 7.77373 78.5688 7.50837C78.3313 7.243 78.1544 6.92913 78.0504 6.58854C77.9464 6.24795 77.9177 5.88881 77.9664 5.53603C77.919 5.18217 77.9482 4.82225 78.052 4.48064C78.1557 4.13903 78.3317 3.82371 78.568 3.55603C78.8042 3.28834 79.0952 3.07453 79.4212 2.92908C79.7473 2.78363 80.1008 2.70994 80.4578 2.71298C81.9613 2.71298 82.8695 3.74018 82.8695 5.43698V5.8091H79.0539V5.86886C79.037 6.0672 79.0618 6.26688 79.1267 6.45506C79.1916 6.64325 79.2951 6.81578 79.4306 6.96157C79.5661 7.10736 79.7307 7.22319 79.9136 7.3016C80.0966 7.38001 80.2939 7.41927 80.493 7.41686C80.7479 7.44734 81.0061 7.40134 81.2348 7.28469C81.4635 7.16805 81.6524 6.98603 81.7774 6.76178L82.8051 6.76182ZM79.0539 5.02041H81.782C81.7955 4.83915 81.7709 4.65708 81.7098 4.48588C81.6488 4.31468 81.5526 4.15815 81.4274 4.02633C81.3023 3.89451 81.151 3.79032 80.9832 3.72045C80.8154 3.65058 80.6348 3.61657 80.4531 3.62061C80.2686 3.6181 80.0855 3.6526 79.9146 3.72207C79.7436 3.79153 79.5884 3.89456 79.4579 4.02505C79.3275 4.15555 79.2245 4.31086 79.1551 4.48183C79.0857 4.65279 79.0513 4.83592 79.0539 5.02041H79.0539Z" fill="black" fill-opacity="0.7"/>
    <path d="M87.3262 2.81738H89.7625C90.8195 2.81738 91.4394 3.35293 91.4394 4.19138C91.4411 4.45743 91.3513 4.71597 91.1851 4.92375C91.0189 5.13152 90.7865 5.27592 90.5265 5.33279V5.41716C90.8421 5.4371 91.138 5.57748 91.353 5.8093C91.568 6.04113 91.6858 6.34669 91.682 6.66287C91.682 7.60563 90.973 8.22087 89.7871 8.22087H87.3262V2.81738ZM88.3832 3.63594V5.03514H89.4402C90.0848 5.03514 90.393 4.78729 90.393 4.33026C90.393 3.90897 90.1246 3.63593 89.5586 3.63593L88.3832 3.63594ZM88.3832 5.81915V7.40235H89.6477C90.2782 7.40235 90.6157 7.12404 90.6157 6.6131C90.6157 6.07229 90.2336 5.81916 89.5141 5.81916L88.3832 5.81915Z" fill="black" fill-opacity="0.7"/>
</svg>
