<svg width="34" height="34" viewBox="0 0 34 34" fill="none" xmlns="http://www.w3.org/2000/svg">
    <path d="M8.66671 6.83329V1.83329C8.66671 1.39127 8.8423 0.967342 9.15486 0.654781C9.46742 0.342221 9.89135 0.166626 10.3334 0.166626H23.6667C24.1087 0.166626 24.5327 0.342221 24.8452 0.654781C25.1578 0.967342 25.3334 1.39127 25.3334 1.83329V6.83329H32C32.4421 6.83329 32.866 7.00889 33.1786 7.32145C33.4911 7.63401 33.6667 8.05793 33.6667 8.49996V31.8333C33.6667 32.2753 33.4911 32.6992 33.1786 33.0118C32.866 33.3244 32.4421 33.5 32 33.5H2.00004C1.55801 33.5 1.13409 33.3244 0.821529 33.0118C0.508969 32.6992 0.333374 32.2753 0.333374 31.8333V8.49996C0.333374 8.05793 0.508969 7.63401 0.821529 7.32145C1.13409 7.00889 1.55801 6.83329 2.00004 6.83329H8.66671ZM3.66671 25.1666V30.1666H30.3334V25.1666H3.66671ZM3.66671 21.8333H30.3334V10.1666H3.66671V21.8333ZM12 3.49996V6.83329H22V3.49996H12ZM15.3334 16.8333H18.6667V20.1666H15.3334V16.8333Z" fill="white"/>
</svg>

