<svg width="50" height="50" viewBox="0 0 50 50" fill="none" xmlns="http://www.w3.org/2000/svg">
    <g clip-path="url(#clip0_74_5197)">
        <path d="M14.5827 10.4154V4.16536C14.5827 3.61283 14.8022 3.08293 15.1929 2.69223C15.5836 2.30152 16.1135 2.08203 16.666 2.08203H33.3327C33.8852 2.08203 34.4151 2.30152 34.8058 2.69223C35.1965 3.08293 35.416 3.61283 35.416 4.16536V10.4154H43.7493C44.3019 10.4154 44.8318 10.6349 45.2225 11.0256C45.6132 11.4163 45.8327 11.9462 45.8327 12.4987V41.6654C45.8327 42.2179 45.6132 42.7478 45.2225 43.1385C44.8318 43.5292 44.3019 43.7487 43.7493 43.7487H6.24935C5.69681 43.7487 5.16691 43.5292 4.77621 43.1385C4.38551 42.7478 4.16602 42.2179 4.16602 41.6654V12.4987C4.16602 11.9462 4.38551 11.4163 4.77621 11.0256C5.16691 10.6349 5.69681 10.4154 6.24935 10.4154H14.5827ZM8.33268 33.332V39.582H41.666V33.332H8.33268ZM8.33268 29.1654H41.666V14.582H8.33268V29.1654ZM18.7493 6.2487V10.4154H31.2493V6.2487H18.7493ZM22.916 22.9154H27.0827V27.082H22.916V22.9154Z" fill="white"/>
    </g>
    <defs>
        <clipPath id="clip0_74_5197">
            <rect width="50" height="50" fill="white"/>
        </clipPath>
    </defs>
</svg>
