<svg width="239" height="53" viewBox="0 0 239 53" fill="none" xmlns="http://www.w3.org/2000/svg">
    <path d="M2.57784 53C2.02854 53 1.44888 52.9716 0.838839 52.9148C0.596977 52.8863 0.373899 52.7431 0.217553 52.5159C0.0612082 52.2888 -0.0159217 51.9957 0.002743 51.6998C0.0214077 51.4039 0.134377 51.1287 0.317367 50.9335C0.500358 50.7382 0.738761 50.6384 0.981332 50.6556C8.27272 51.34 10.1688 47.8364 12.7569 39.6666C15.1143 32.2273 10.7959 14.1067 10.7523 13.9244C10.6909 13.6694 10.7048 13.3962 10.7916 13.1525C10.8785 12.9088 11.0327 12.7101 11.2273 12.5912L31.6474 0.119718C31.7876 0.0339507 31.9434 -0.00691472 32.1 0.000955161C32.2567 0.00882504 32.4091 0.0651723 32.5431 0.164712L59.2872 19.989L82.6329 20.5811L134.738 21.0476L211.064 21.0049H211.084L219.11 21.2133C219.351 21.2254 219.579 21.3516 219.745 21.5652C219.911 21.7787 220.002 22.0628 220 22.3574C219.997 22.6519 219.901 22.9336 219.731 23.1429C219.562 23.3521 219.332 23.4725 219.091 23.4784H219.071L211.054 23.2712L134.731 23.3138L82.6125 22.8414H82.6009L59.0003 22.2494C58.8374 22.2455 58.6782 22.1891 58.5389 22.086L32.0197 2.42622L12.7424 14.1991C13.6245 18.1147 16.7739 33.2621 14.4872 40.4847C12.1142 47.969 9.93514 53 2.57784 53Z" fill="#355389"/>
    <path d="M211.502 25.0584L205.93 24.0454V20.3735L211.502 19.2344V25.0584Z" fill="#9BC1F9"/>
    <path d="M237.5 12H229.5C228.672 12 228 12.6716 228 13.5C228 14.3284 228.672 15 229.5 15H237.5C238.328 15 239 14.3284 239 13.5C239 12.6716 238.328 12 237.5 12Z" fill="#466EB6"/>
    <path d="M237.5 29H228.5C227.672 29 227 29.6716 227 30.5C227 31.3284 227.672 32 228.5 32H237.5C238.328 32 239 31.3284 239 30.5C239 29.6716 238.328 29 237.5 29Z" fill="#466EB6"/>
    <path d="M228.998 8.47266H216.711C214.998 8.47266 213.356 9.15291 212.145 10.3638C210.934 11.5746 210.254 13.2169 210.254 14.9293V29.3646C210.254 31.077 210.934 32.7193 212.145 33.9302C213.356 35.141 214.998 35.8213 216.711 35.8213H228.998V8.47266Z" fill="#86B1F2"/>
    <path d="M228.675 6.69922H226.692C226.051 6.69922 225.531 7.21872 225.531 7.85956V35.9267C225.531 36.5676 226.051 37.0871 226.692 37.0871H228.675C229.316 37.0871 229.836 36.5676 229.836 35.9267V7.85956C229.836 7.21872 229.316 6.69922 228.675 6.69922Z" fill="#9BC1F9"/>
</svg>
