<svg width="243" height="74" viewBox="0 0 243 74" fill="none" xmlns="http://www.w3.org/2000/svg">
    <path d="M241.226 73.9974H241.191C241.008 73.9867 236.686 73.6778 234.548 69.7947C233.47 67.8383 233.144 65.3695 233.579 62.4569C234.101 58.9655 235.785 55.7333 237.412 52.6076C240.577 46.5326 243.566 40.7937 239.149 32.8582C235.558 26.4056 229.695 23.2006 225.409 21.6478C220.724 19.9507 216.873 19.8087 216.835 19.8075H216.822L181.516 17.8807L142.464 17.2641H10.7777C10.5692 17.2546 10.3714 17.1311 10.2263 16.9199C10.0812 16.7086 10 16.4261 10 16.132C10 15.838 10.0812 15.5555 10.2263 15.3442C10.3714 15.1329 10.5692 15.0095 10.7777 15H142.471L181.555 15.6178H181.566L216.878 17.5446C217.123 17.554 221.001 17.715 225.809 19.456C228.675 20.4951 231.273 21.8822 233.53 23.5817C236.381 25.7263 238.697 28.3785 240.417 31.4616C245.585 40.7487 241.929 47.7611 238.711 53.9485C237.115 57.015 235.603 59.9123 235.155 62.9244C234.819 65.1553 235.045 67.0016 235.82 68.4088C237.507 71.4717 241.227 71.7345 241.264 71.7368C241.477 71.7433 241.679 71.8687 241.826 72.0854C241.974 72.3021 242.054 72.5925 242.049 72.8926C242.045 73.1926 241.956 73.4779 241.802 73.6855C241.648 73.8931 241.442 74.0062 241.229 73.9997L241.226 73.9974Z" fill="#355389"/>
    <path d="M17.6211 19.3123L23.1919 18.2993V14.6274L17.6211 13.4883V19.3123Z" fill="#9BC1F9"/>
    <path d="M13.8472 2.47266H0.046875V29.8213H13.8472C14.6952 29.8214 15.5349 29.6545 16.3184 29.3301C17.1019 29.0057 17.8138 28.5301 18.4135 27.9306C19.0132 27.331 19.4889 26.6192 19.8135 25.8357C20.138 25.0523 20.3051 24.2126 20.3051 23.3646V8.92931C20.3051 8.08131 20.138 7.24162 19.8135 6.45818C19.4889 5.67475 19.0132 4.96292 18.4135 4.36335C17.8138 3.76378 17.1019 3.28821 16.3184 2.9638C15.5349 2.63939 14.6952 2.4725 13.8472 2.47266Z" fill="#86B1F2"/>
    <path d="M3.19097 0.699219H1.20719C0.566358 0.699219 0.046875 1.21872 0.046875 1.85956V29.9267C0.046875 30.5676 0.566358 31.0871 1.20719 31.0871H3.19097C3.8318 31.0871 4.35129 30.5676 4.35129 29.9267V1.85956C4.35129 1.21872 3.8318 0.699219 3.19097 0.699219Z" fill="#9BC1F9"/>
</svg>
