<svg width="264" height="220" viewBox="0 0 264 220" fill="none" xmlns="http://www.w3.org/2000/svg">
    <path fill-rule="evenodd" clip-rule="evenodd" d="M230.389 220C251.29 196.647 264 165.808 264 132C264 59.0984 204.902 0 132 0C59.0984 0 0 59.0984 0 132C0 165.808 12.7096 196.647 33.6113 220H230.389Z" fill="#FBDDD5"/>
    <g opacity="0.8">
        <path d="M93.3796 69.268C93.3796 69.268 95.9921 80.2769 88.729 89.8649L87.3717 88.9136C87.3717 88.9136 93.1633 77.5437 92.2837 70.4439C91.4041 63.344 93.3796 69.268 93.3796 69.268Z" fill="#AEC3FF"/>
    </g>
    <path d="M161.131 152.818C161.131 152.818 151.337 146.347 139.397 150.009L139.841 151.671C139.841 151.671 152.992 150.08 159.594 153.467C166.195 156.854 161.131 152.818 161.131 152.818Z" fill="#BBD0FF"/>
    <path d="M184.585 103.787C184.585 103.787 173.491 112.037 172.756 126.728L174.775 126.903C174.775 126.903 178.285 111.706 184.687 105.749C191.089 99.7923 184.585 103.787 184.585 103.787Z" fill="#D2E0FF"/>
    <path d="M224.251 48.0183L100.564 3L39.0008 172.145L162.688 217.163L224.251 48.0183Z" fill="#739AF0"/>
    <path d="M217.321 50.6648L104.174 9.48267L45.968 169.402L159.115 210.584L217.321 50.6648Z" fill="#F3FAFF"/>
    <path d="M138.951 16.9724L136.854 22.7343C136.578 23.4908 136.454 24.2942 136.489 25.0987C136.524 25.9031 136.717 26.6928 137.057 27.4226C137.398 28.1524 137.878 28.808 138.472 29.352C139.066 29.8959 139.761 30.3175 140.517 30.5927L171.437 41.8467C172.194 42.1216 172.997 42.2448 173.801 42.2093C174.605 42.1738 175.394 41.9803 176.123 41.6398C176.853 41.2993 177.508 40.8186 178.051 40.2249C178.595 39.6313 179.016 38.9364 179.291 38.18L181.388 32.4181L138.951 16.9724Z" fill="#2B478B"/>
    <path d="M81.3412 156.641L67.3418 151.546L66.8261 152.963L80.8255 158.058L81.3412 156.641Z" fill="#AEC3FF"/>
    <path d="M98.5805 162.919L84.5811 157.823L84.0654 159.24L98.0648 164.335L98.5805 162.919Z" fill="#AEC3FF"/>
    <path d="M85.6116 161.756L66.1973 154.69L65.6816 156.107L85.0959 163.173L85.6116 161.756Z" fill="#AEC3FF"/>
    <path d="M179.436 58.1096L125.176 38.3606C123.375 37.705 121.384 38.6337 120.728 40.4347C120.073 42.2358 121.001 44.2273 122.802 44.8829L177.062 64.632C178.864 65.2875 180.855 64.3589 181.511 62.5578C182.166 60.7567 181.237 58.7652 179.436 58.1096Z" fill="#8C9DF4"/>
    <path d="M184.374 105.971L163.91 98.523L171.358 78.0596L191.822 85.5077L184.374 105.971ZM165.224 97.9091L183.76 104.656L190.507 86.1197L171.971 79.3732L165.224 97.9091Z" fill="#AFCDFB"/>
    <path d="M176.146 98.3201C175.934 98.2421 175.742 98.1184 175.583 97.958C175.424 97.7975 175.302 97.6041 175.226 97.3914L171.683 87.4503C171.559 87.0689 171.588 86.6539 171.765 86.2938C171.942 85.9337 172.253 85.657 172.631 85.5226C173.009 85.3882 173.424 85.4068 173.789 85.5745C174.153 85.7421 174.438 86.0455 174.582 86.42L177.386 94.3003L191.979 82.3922C192.296 82.1459 192.697 82.0334 193.096 82.0787C193.495 82.124 193.861 82.3235 194.115 82.6346C194.369 82.9457 194.491 83.3438 194.455 83.7438C194.42 84.1438 194.229 84.5141 193.925 84.7756L177.639 98.0638C177.448 98.2198 177.223 98.3277 176.981 98.3783C176.74 98.4288 176.49 98.4206 176.253 98.3543C176.22 98.3455 176.183 98.3337 176.146 98.3201Z" fill="#E95530"/>
    <path d="M154.465 75.3332L109.005 58.7869L108.278 60.7838L153.739 77.3301L154.465 75.3332Z" fill="#AEC3FF"/>
    <path d="M147.658 82.9514L105.761 67.7021L105.034 69.6991L146.931 84.9483L147.658 82.9514Z" fill="#AEC3FF"/>
    <path d="M152.844 79.7917L140.451 75.2812L139.724 77.2782L152.117 81.7887L152.844 79.7917Z" fill="#AEC3FF"/>
    <path d="M137.017 74.0306L107.382 63.2444L106.655 65.2413L136.29 76.0276L137.017 74.0306Z" fill="#AEC3FF"/>
    <path d="M98.1782 56.8669L95.9382 56.6912L96.1093 54.9258L99.4979 55.059L100.886 55.5641L96.7438 66.9434L94.7719 66.2257L98.1782 56.8669Z" fill="#AEC3FF"/>
    <path d="M98.2999 66.7039C98.3516 66.5618 98.4444 66.4381 98.5664 66.3487C98.6884 66.2592 98.8342 66.2079 98.9854 66.2013C99.1365 66.1947 99.2862 66.2331 99.4156 66.3116C99.5449 66.3901 99.6481 66.5052 99.712 66.6423C99.776 66.7794 99.7978 66.9324 99.7748 67.082C99.7518 67.2315 99.6849 67.3708 99.5827 67.4824C99.4805 67.5939 99.3475 67.6727 99.2006 67.7086C99.0536 67.7446 98.8993 67.7362 98.7571 67.6844C98.5664 67.615 98.4112 67.4728 98.3254 67.2889C98.2397 67.105 98.2305 66.8946 98.2999 66.7039Z" fill="#AEC3FF"/>
    <path d="M173.406 136.597L152.943 129.149L160.391 108.686L180.854 116.134L173.406 136.597ZM154.256 128.537L172.793 135.284L179.54 116.748L161.003 110.001L154.256 128.537Z" fill="#AFCDFB"/>
    <path d="M165.178 128.946C164.965 128.868 164.773 128.745 164.614 128.584C164.455 128.424 164.334 128.23 164.258 128.018L160.722 118.087C160.653 117.896 160.622 117.694 160.631 117.491C160.64 117.288 160.689 117.089 160.776 116.905C160.862 116.721 160.984 116.557 161.135 116.42C161.285 116.284 161.461 116.179 161.652 116.111C161.843 116.043 162.046 116.013 162.249 116.024C162.452 116.034 162.65 116.085 162.834 116.173C163.017 116.261 163.18 116.384 163.316 116.535C163.451 116.687 163.555 116.863 163.622 117.055L166.425 124.937L181.019 113.027C181.175 112.897 181.355 112.799 181.55 112.739C181.744 112.679 181.948 112.659 182.151 112.678C182.353 112.698 182.55 112.757 182.729 112.853C182.909 112.949 183.067 113.079 183.196 113.237C183.324 113.395 183.421 113.576 183.478 113.771C183.536 113.966 183.555 114.171 183.534 114.373C183.512 114.575 183.45 114.771 183.353 114.95C183.255 115.128 183.123 115.285 182.964 115.412L166.678 128.7C166.487 128.856 166.262 128.964 166.021 129.014C165.779 129.065 165.529 129.056 165.292 128.99C165.252 128.972 165.218 128.961 165.178 128.946Z" fill="#E95530"/>
    <path d="M81.6705 94.318L86.7327 92.4391C88.7445 91.7003 89.5687 91.1847 89.9364 90.1744C90.3405 89.0642 89.7868 88.1414 88.7599 87.7676C87.733 87.3938 86.8274 87.6928 85.5508 88.5059L84.5531 86.9075C86.1753 85.7928 87.5447 85.3247 89.5472 86.0535C91.744 86.8531 92.7597 88.7472 92.0188 90.783C91.3773 92.5454 90.0878 93.1479 87.5236 94.0659L84.5053 95.1565L89.8425 97.0991L89.2126 98.8296L81.1028 95.8778L81.6705 94.318Z" fill="#AEC3FF"/>
    <path d="M90.8068 98.5974C90.858 98.4558 90.9501 98.3327 91.0713 98.2435C91.1926 98.1543 91.3376 98.1031 91.488 98.0964C91.6384 98.0896 91.7874 98.1277 91.9162 98.2058C92.0449 98.2838 92.1476 98.3983 92.2112 98.5347C92.2749 98.6712 92.2966 98.8234 92.2736 98.9722C92.2506 99.121 92.184 99.2596 92.0822 99.3705C91.9804 99.4814 91.8479 99.5596 91.7016 99.5952C91.5554 99.6307 91.4018 99.6221 91.2604 99.5703C91.0713 99.5015 90.9172 99.3603 90.8321 99.1778C90.747 98.9954 90.7379 98.7866 90.8068 98.5974Z" fill="#AEC3FF"/>
    <path d="M146.027 106.878L98.2559 89.491L97.529 91.4879L145.3 108.875L146.027 106.878Z" fill="#AEC3FF"/>
    <path d="M139.034 114.436L95.0088 98.4119L94.282 100.409L138.308 116.433L139.034 114.436Z" fill="#AEC3FF"/>
    <path d="M144.403 111.338L131.381 106.598L130.654 108.595L143.676 113.335L144.403 111.338Z" fill="#AEC3FF"/>
    <path d="M127.772 105.286L96.6318 93.9514L95.905 95.9484L127.046 107.283L127.772 105.286Z" fill="#AEC3FF"/>
    <path d="M162.197 167.394L141.734 159.946L149.182 139.482L169.645 146.931L162.197 167.394ZM143.047 159.333L161.584 166.08L168.331 147.544L149.794 140.797L143.047 159.333Z" fill="#AFCDFB"/>
    <path d="M153.969 159.741C153.757 159.663 153.564 159.539 153.405 159.379C153.247 159.218 153.125 159.025 153.049 158.812L149.513 148.881C149.38 148.498 149.404 148.077 149.579 147.711C149.755 147.344 150.068 147.063 150.451 146.926C150.834 146.79 151.254 146.811 151.622 146.984C151.989 147.157 152.274 147.468 152.413 147.85L155.216 155.731L169.81 143.822C169.966 143.692 170.147 143.594 170.341 143.534C170.535 143.474 170.74 143.453 170.942 143.472C171.145 143.492 171.341 143.551 171.521 143.647C171.7 143.743 171.858 143.874 171.987 144.032C172.116 144.189 172.212 144.371 172.27 144.566C172.328 144.761 172.346 144.965 172.325 145.168C172.303 145.37 172.242 145.566 172.144 145.744C172.046 145.922 171.914 146.08 171.755 146.207L155.467 159.489C155.276 159.643 155.05 159.75 154.809 159.799C154.569 159.848 154.32 159.838 154.083 159.771C154.043 159.766 154.009 159.755 153.969 159.741Z" fill="#E95530"/>
    <path d="M134.817 137.675L87.0459 120.287L86.3191 122.284L134.09 139.672L134.817 137.675Z" fill="#AEC3FF"/>
    <path d="M127.827 145.23L83.8018 129.206L83.0749 131.203L127.101 147.227L127.827 145.23Z" fill="#AEC3FF"/>
    <path d="M133.194 142.132L120.172 137.392L119.445 139.389L132.467 144.129L133.194 142.132Z" fill="#AEC3FF"/>
    <path d="M116.565 136.079L85.4248 124.745L84.698 126.742L115.839 138.076L116.565 136.079Z" fill="#AEC3FF"/>
    <path d="M70.4941 124.579L72.2976 123.821C72.7461 125.033 73.4376 125.871 74.6588 126.315C75.7412 126.709 76.7971 126.347 77.1739 125.312C77.5679 124.229 76.802 123.259 75.2644 122.699L74.3707 122.374L74.497 121.051L78.6083 118.979L73.8553 117.249L74.4665 115.569L81.7285 118.213L81.2032 119.656L77.0082 121.682C78.6588 122.566 79.8235 124.003 79.1042 125.98C78.3678 128.003 76.272 128.878 73.9975 128.05C72.0832 127.342 71.0086 126.046 70.4941 124.579Z" fill="#AEC3FF"/>
    <path d="M78.6459 128.943C78.6958 128.805 78.7854 128.686 78.9031 128.6C79.0209 128.513 79.1616 128.464 79.3075 128.457C79.4534 128.451 79.598 128.488 79.7228 128.564C79.8477 128.64 79.9472 128.751 80.009 128.883C80.0707 129.015 80.0918 129.163 80.0696 129.308C80.0473 129.452 79.9828 129.586 79.8842 129.694C79.7855 129.802 79.6571 129.878 79.5153 129.912C79.3734 129.947 79.2244 129.939 79.0872 129.889C78.9032 129.822 78.7533 129.685 78.6705 129.507C78.5878 129.33 78.5789 129.127 78.6459 128.943Z" fill="#AEC3FF"/>
    <path d="M117.462 174.914C115.466 174.182 113.783 172.787 112.694 170.962C111.605 169.136 111.177 166.992 111.482 164.889C111.506 164.723 111.596 164.573 111.731 164.473C111.865 164.373 112.034 164.331 112.2 164.356C112.366 164.38 112.515 164.47 112.615 164.604C112.715 164.739 112.758 164.908 112.733 165.074C112.469 166.882 112.834 168.727 113.768 170.298C114.701 171.87 116.146 173.073 117.86 173.706C119.575 174.34 121.455 174.365 123.186 173.778C124.917 173.191 126.393 172.027 127.369 170.481C127.462 170.347 127.602 170.254 127.762 170.221C127.922 170.188 128.088 170.218 128.226 170.305C128.364 170.392 128.464 170.528 128.504 170.687C128.544 170.845 128.521 171.012 128.441 171.154C127.31 172.935 125.607 174.278 123.612 174.961C121.616 175.645 119.447 175.628 117.462 174.914Z" fill="#AEC3FF"/>
    <path d="M113.03 162.393C112.992 162.38 112.955 162.362 112.92 162.342C112.776 162.256 112.673 162.117 112.633 161.954C112.592 161.792 112.617 161.621 112.702 161.477C113.784 159.677 115.448 158.3 117.419 157.572C119.389 156.844 121.549 156.81 123.541 157.474C125.534 158.139 127.241 159.463 128.38 161.227C129.52 162.992 130.024 165.092 129.809 167.182C129.801 167.265 129.776 167.345 129.736 167.418C129.697 167.491 129.643 167.555 129.579 167.608C129.514 167.66 129.44 167.699 129.36 167.723C129.281 167.746 129.197 167.754 129.115 167.746C129.032 167.737 128.952 167.712 128.879 167.673C128.806 167.633 128.741 167.58 128.689 167.515C128.637 167.45 128.598 167.376 128.574 167.297C128.55 167.217 128.542 167.134 128.551 167.051C128.735 165.248 128.299 163.436 127.315 161.914C126.332 160.393 124.859 159.251 123.14 158.678C121.421 158.104 119.558 158.134 117.857 158.761C116.157 159.388 114.721 160.576 113.786 162.128C113.71 162.253 113.593 162.347 113.455 162.396C113.318 162.444 113.167 162.443 113.03 162.393Z" fill="#AEC3FF"/>
    <path d="M116.13 178.573C113.69 177.684 111.568 176.093 110.032 173.998C108.497 171.904 107.617 169.402 107.503 166.807C107.39 164.213 108.049 161.643 109.396 159.423C110.743 157.203 112.718 155.432 115.072 154.334C117.426 153.237 120.052 152.862 122.618 153.257C125.185 153.652 127.577 154.799 129.492 156.554C131.406 158.308 132.758 160.591 133.375 163.113C133.992 165.636 133.847 168.285 132.959 170.725C131.765 173.995 129.323 176.658 126.168 178.129C123.013 179.601 119.403 179.76 116.13 178.573ZM124.497 155.586C122.391 154.82 120.105 154.695 117.928 155.228C115.751 155.76 113.781 156.927 112.267 158.579C110.752 160.231 109.762 162.296 109.421 164.511C109.081 166.726 109.404 168.992 110.351 171.023C111.298 173.054 112.827 174.759 114.743 175.922C116.659 177.084 118.876 177.653 121.115 177.555C123.354 177.457 125.514 176.698 127.321 175.372C129.129 174.047 130.502 172.216 131.269 170.11C132.293 167.286 132.155 164.171 130.886 161.448C129.616 158.725 127.318 156.617 124.497 155.586Z" fill="#AEC3FF"/>
    <path d="M123.624 165.577L118.738 163.799L118.453 164.582L123.34 166.36L123.624 165.577Z" fill="#AEC3FF"/>
    <path d="M122.46 168.777L117.574 166.999L117.289 167.781L122.176 169.56L122.46 168.777Z" fill="#AEC3FF"/>
    <path d="M124.216 167.544L117.023 164.927L116.739 165.709L123.931 168.327L124.216 167.544Z" fill="#AEC3FF"/>
</svg>
