<svg width="50" height="50" viewBox="0 0 50 50" fill="none" xmlns="http://www.w3.org/2000/svg">
    <g clip-path="url(#clip0_74_5210)">
        <path d="M35.4174 27.0847V29.168C35.4174 34.9388 34.0341 40.5117 31.4279 45.5138L30.9549 46.3888L27.3154 44.3597C29.732 40.0263 31.0862 35.1722 31.2362 30.118L31.2508 29.168V27.0847H35.4174ZM22.9174 20.8347H27.0841V29.168L27.0737 29.9576C26.9162 35.6611 24.9533 41.1676 21.4674 45.6847L20.9862 46.2888L17.757 43.6555C20.937 39.7719 22.7465 34.9474 22.9049 29.9305L22.9174 29.168V20.8347ZM25.0008 12.5013C27.7635 12.5013 30.413 13.5988 32.3665 15.5523C34.32 17.5058 35.4174 20.1553 35.4174 22.918H31.2508C31.2508 21.2604 30.5923 19.6707 29.4202 18.4986C28.2481 17.3265 26.6584 16.668 25.0008 16.668C23.3432 16.668 21.7535 17.3265 20.5814 18.4986C19.4093 19.6707 18.7508 21.2604 18.7508 22.918V29.168C18.7508 33.8242 17.0424 38.218 14.0195 41.6201L13.5779 42.0992L10.5612 39.2242C12.9986 36.6741 14.4242 33.3238 14.5716 29.7992L14.5841 29.168V22.918C14.5841 20.1553 15.6816 17.5058 17.6351 15.5523C19.5886 13.5988 22.2381 12.5013 25.0008 12.5013ZM25.0008 4.16799C29.9736 4.16799 34.7427 6.14343 38.259 9.65974C41.7753 13.176 43.7508 17.9452 43.7508 22.918V29.168C43.7508 32.7055 43.3299 36.1888 42.507 39.5638L42.2174 40.6867L38.1966 39.5909C39.0133 36.5972 39.4737 33.5034 39.5675 30.3513L39.5841 29.168V22.918C39.5841 20.2115 38.8309 17.5583 37.4088 15.2555C35.9868 12.9527 33.9519 11.091 31.532 9.8789C29.112 8.66678 26.4025 8.152 23.7067 8.39217C21.0108 8.63234 18.435 9.618 16.2674 11.2388L13.2987 8.26799C16.6184 5.60816 20.7469 4.16168 25.0008 4.16799ZM10.3508 11.2159L13.3216 14.1847C11.5348 16.5664 10.5238 19.4401 10.4258 22.4159L10.4174 22.918L10.4258 27.0847C10.4258 29.418 9.87578 31.6742 8.83828 33.7034L8.51328 34.3076L4.89453 32.2409C5.6862 30.8555 6.1487 29.3097 6.24036 27.693L6.25911 27.0847V22.918C6.24676 18.6645 7.69067 14.5349 10.3508 11.2159Z" fill="white"/>
    </g>
    <defs>
        <clipPath id="clip0_74_5210">
            <rect width="50" height="50" fill="white"/>
        </clipPath>
    </defs>
</svg>
