<svg width="139" height="34" viewBox="0 0 139 34" fill="none" xmlns="http://www.w3.org/2000/svg">
    <path d="M115.68 28.4659H117.908V13.5391H115.68V28.4659ZM135.748 18.9161L133.194 25.3876H133.117L130.466 18.9161H128.066L132.041 27.9612L129.775 32.9925H132.1L138.225 18.9161H135.748ZM123.112 26.7705C122.382 26.7705 121.364 26.4057 121.364 25.5028C121.364 24.3507 122.632 23.909 123.726 23.909C124.706 23.909 125.166 24.1202 125.762 24.4086C125.589 25.791 124.398 26.7705 123.112 26.7705V26.7705ZM123.381 18.5895C121.768 18.5895 120.098 19.3003 119.406 20.875L121.384 21.7005C121.806 20.875 122.593 20.6058 123.419 20.6058C124.572 20.6058 125.743 21.2975 125.762 22.5266V22.68C125.358 22.4495 124.495 22.104 123.438 22.104C121.307 22.104 119.136 23.2751 119.136 25.4645C119.136 27.4617 120.884 28.7485 122.843 28.7485C124.341 28.7485 125.166 28.0764 125.686 27.2892H125.762V28.4412H127.912V22.7182C127.912 20.0685 125.935 18.5895 123.381 18.5895V18.5895ZM109.612 20.7331H106.443V15.6166H109.612C111.277 15.6166 112.223 16.9957 112.223 18.1748C112.223 19.3316 111.277 20.7331 109.612 20.7331ZM109.554 13.5391H104.216V28.4659H106.443V22.8106H109.554C112.024 22.8106 114.451 21.0228 114.451 18.1748C114.451 15.3269 112.024 13.5391 109.554 13.5391ZM80.4426 26.7732C78.9034 26.7732 77.6147 25.4845 77.6147 23.7145C77.6147 21.9258 78.9034 20.6175 80.4426 20.6175C81.9623 20.6175 83.1549 21.9258 83.1549 23.7145C83.1549 25.4845 81.9623 26.7732 80.4426 26.7732V26.7732ZM83.001 19.7519H82.9239C82.424 19.1557 81.4617 18.6171 80.25 18.6171C77.7108 18.6171 75.3834 20.8484 75.3834 23.7145C75.3834 26.5615 77.7108 28.7737 80.25 28.7737C81.4617 28.7737 82.424 28.235 82.9239 27.6198H83.001V28.3507C83.001 30.2938 81.9623 31.3325 80.2887 31.3325C78.923 31.3325 78.0765 30.3512 77.7299 29.5242L75.7873 30.3321C76.3452 31.6786 77.8265 33.333 80.2887 33.333C82.9048 33.333 85.117 31.7938 85.117 28.0429V18.9249H83.001V19.7519ZM86.6558 28.4659H88.8872V13.5386H86.6558V28.4659ZM92.1767 23.5415C92.1189 21.5792 93.6964 20.5792 94.8312 20.5792C95.7167 20.5792 96.4665 21.0214 96.716 21.6567L92.1767 23.5415ZM99.1017 21.8488C98.679 20.7135 97.3895 18.6171 94.7541 18.6171C92.138 18.6171 89.9645 20.6753 89.9645 23.6954C89.9645 26.5424 92.1189 28.7737 95.0042 28.7737C97.3322 28.7737 98.679 27.3502 99.2367 26.5232L97.5053 25.3688C96.9286 26.2154 96.1393 26.7732 95.0042 26.7732C93.8694 26.7732 93.0616 26.2537 92.542 25.2345L99.3322 22.4258L99.1017 21.8488ZM45.0024 20.1753V22.3297H50.1576C50.0037 23.5415 49.5998 24.4263 48.9841 25.0419C48.2341 25.7924 47.0607 26.6193 45.0024 26.6193C41.8283 26.6193 39.347 24.061 39.347 20.887C39.347 17.7131 41.8283 15.1544 45.0024 15.1544C46.7145 15.1544 47.9645 15.8278 48.888 16.6935L50.4076 15.174C49.1189 13.9426 47.4067 13 45.0024 13C40.6548 13 37 16.5396 37 20.887C37 25.2345 40.6548 28.7737 45.0024 28.7737C47.3494 28.7737 49.1189 28.0046 50.5038 26.5615C51.9273 25.138 52.3699 23.1375 52.3699 21.5219C52.3699 21.0214 52.3316 20.5601 52.2542 20.1753H45.0024ZM58.2309 26.7732C56.6917 26.7732 55.3643 25.5036 55.3643 23.6954C55.3643 21.8679 56.6917 20.6175 58.2309 20.6175C59.7695 20.6175 61.0969 21.8679 61.0969 23.6954C61.0969 25.5036 59.7695 26.7732 58.2309 26.7732V26.7732ZM58.2309 18.6171C55.4221 18.6171 53.1329 20.7522 53.1329 23.6954C53.1329 26.6193 55.4221 28.7737 58.2309 28.7737C61.0392 28.7737 63.3284 26.6193 63.3284 23.6954C63.3284 20.7522 61.0392 18.6171 58.2309 18.6171ZM69.3512 26.7732C67.8125 26.7732 66.485 25.5036 66.485 23.6954C66.485 21.8679 67.8125 20.6175 69.3512 20.6175C70.8899 20.6175 72.2173 21.8679 72.2173 23.6954C72.2173 25.5036 70.8899 26.7732 69.3512 26.7732ZM69.3512 18.6171C66.5424 18.6171 64.2537 20.7522 64.2537 23.6954C64.2537 26.6193 66.5424 28.7737 69.3512 28.7737C72.1595 28.7737 74.4487 26.6193 74.4487 23.6954C74.4487 20.7522 72.1595 18.6171 69.3512 18.6171Z" fill="black" fill-opacity="0.7"/>
    <path d="M0.641314 30.9863L0.552596 30.9014C0.205133 30.5338 0 29.9629 0 29.2237V29.3977V2.99051C0 2.98812 0 2.98633 0 2.98442C0 2.98669 0 2.9886 0 2.99098V3.16543C0 2.36495 0.239163 1.76197 0.63988 1.40042L15.4337 16.1938L0.641314 30.9863ZM0 2.98299C0 2.91719 0.00179096 2.85331 0.00513424 2.79039C0.00179096 2.85284 0 2.91719 0 2.98299ZM0.00513424 2.78752C0.00513424 2.78669 0.00513313 2.78573 0.00549134 2.78478C0.00513313 2.78573 0.00513424 2.78669 0.00513424 2.78752ZM0.00549134 2.77916C0.00549134 2.77869 0.00549134 2.77821 0.00549134 2.77773C0.00549134 2.77821 0.00549134 2.77869 0.00549134 2.77916Z" fill="url(#paint0_linear_1_693)"/>
    <path d="M20.3641 21.3018L20.4766 21.2379L26.3189 17.9184C26.8759 17.6017 27.2471 17.2178 27.4323 16.8116C27.2476 17.2178 26.8762 17.6022 26.3189 17.9188L20.4766 21.2384L20.3641 21.3018V21.3018ZM20.3655 21.1268L15.4336 16.1941L20.3651 11.2621L26.3189 14.6446C27.0749 15.0742 27.4994 15.6278 27.5703 16.1936C27.5703 16.1941 27.5703 16.195 27.5703 16.1958C27.4994 16.7603 27.0749 17.3144 26.3189 17.7439L20.3655 21.1268" fill="url(#paint1_linear_1_693)"/>
    <path d="M1.69533 31.5498C1.28208 31.5498 0.92148 31.4155 0.640286 31.1617L0.640765 31.1613C0.92196 31.415 1.28303 31.5498 1.69629 31.5498C1.73211 31.5498 1.76853 31.5488 1.80542 31.5471C1.76805 31.5488 1.73115 31.5498 1.69533 31.5498V31.5498ZM1.69581 31.3749C1.28256 31.3754 0.92196 31.2405 0.640765 30.9868V30.9865L15.4331 16.194L20.3651 21.1268L3.03348 30.9743C2.55396 31.2462 2.09963 31.3749 1.69581 31.3749V31.3749ZM0.636586 31.1585C0.610437 31.1348 0.584764 31.1096 0.55957 31.0834L0.636586 31.1585Z" fill="url(#paint2_linear_1_693)"/>
    <path d="M15.4334 16.1934L0.639648 1.39993C0.920842 1.14668 1.28096 1.01235 1.69374 1.01235C2.09863 1.01235 2.55332 1.14155 3.0338 1.4139L20.3649 11.2614L15.4334 16.1934V16.1934ZM20.4764 11.15L3.0338 1.23957C2.55332 0.967096 2.09863 0.837904 1.69374 0.837904C1.69183 0.837904 1.69051 0.837904 1.6886 0.837904C1.69099 0.837904 1.69278 0.837904 1.69565 0.837904C2.09959 0.837904 2.5538 0.966619 3.0338 1.2391L20.4764 11.15V11.15Z" fill="url(#paint3_linear_1_693)"/>
    <path d="M1.80611 31.5469C2.18151 31.5254 2.59715 31.3962 3.03417 31.1485L20.3643 21.3015L3.03417 31.1485C2.59751 31.3967 2.18151 31.5254 1.80611 31.5469V31.5469ZM0.640973 31.1616L0.637273 31.1583C0.638586 31.1593 0.640018 31.1606 0.640973 31.1616ZM0.560257 31.0832L0.552734 31.0758V31.0754C0.5556 31.0781 0.557869 31.0808 0.560257 31.0832Z" fill="white"/>
    <path d="M20.3643 21.3008L20.4767 21.2369L20.3643 21.3008Z" fill="url(#paint4_linear_1_693)"/>
    <path d="M1.69697 31.5498C1.28372 31.5498 0.922646 31.415 0.641452 31.1613L0.640973 31.1617C0.640018 31.1608 0.638586 31.1595 0.637273 31.1585L0.560257 31.0834C0.557869 31.081 0.5556 31.0783 0.552734 31.0755L0.641452 30.9868C0.922646 31.2405 1.28324 31.3754 1.6965 31.3749C2.10032 31.3749 2.55464 31.2462 3.03417 30.9743L20.3657 21.1268L20.4768 21.2378L20.3643 21.3017L3.03417 31.1487C2.59715 31.3964 2.18151 31.5256 1.80611 31.5471C1.76921 31.5488 1.73279 31.5498 1.69697 31.5498" fill="url(#paint5_linear_1_693)"/>
    <path d="M0.552599 31.0752C0.205134 30.7076 0 30.1367 0 29.3975V29.397C0 30.1367 0.205134 30.7071 0.552599 31.0747V31.0752" fill="white"/>
    <path d="M0.552599 31.0752C0.205134 30.7076 0 30.1372 0 29.3975V29.2235C0 29.9627 0.205134 30.5336 0.552599 30.9012L0.641317 30.9861L0.552599 31.0752" fill="url(#paint6_linear_1_693)"/>
    <path d="M0.552734 31.0752L0.641454 30.9861V30.9865L0.552734 31.0752" fill="url(#paint7_linear_1_693)"/>
    <path d="M27.4326 16.8115C27.5244 16.61 27.5706 16.4029 27.5706 16.1958C27.5706 16.1954 27.5706 16.1949 27.5706 16.1949C27.5706 16.4024 27.5244 16.6095 27.4326 16.8115Z" fill="white"/>
    <path d="M20.4763 21.2373L20.3652 21.1263L26.3185 17.7433C27.0746 17.3138 27.4991 16.7597 27.57 16.1953C27.57 16.4024 27.5238 16.6095 27.432 16.811C27.2468 17.2172 26.8756 17.6011 26.3185 17.9178L20.4763 21.2373Z" fill="url(#paint8_linear_1_693)"/>
    <path d="M27.5708 16.1934V16.1929C27.5703 15.5683 27.1529 14.9438 26.3193 14.4699L20.477 11.1504H20.4766L20.477 11.15L26.3193 14.4694C27.1538 14.9433 27.5717 15.5688 27.5708 16.1934Z" fill="#404040"/>
    <path d="M27.5705 16.1934C27.4995 15.6276 27.0751 15.074 26.319 14.6443L20.3652 11.2619L20.4763 11.1509H20.4768L26.319 14.4704C27.1526 14.9443 27.57 15.5688 27.5705 16.1934Z" fill="url(#paint9_linear_1_693)"/>
    <path d="M0 2.98438C0 2.9839 0 2.98342 0 2.98294C0 2.98342 0 2.9839 0 2.98438ZM0.00513424 2.79035C0.00513424 2.78939 0.00513424 2.78844 0.00513424 2.78748C0.00513424 2.78844 0.00513424 2.78939 0.00513424 2.79035ZM0.00549134 2.78473C0.00549134 2.78282 0.00549134 2.78103 0.00549134 2.77912C0.00549134 2.78103 0.00549134 2.78282 0.00549134 2.78473ZM0.00549134 2.77769C0.0746257 1.55106 0.741611 0.842526 1.68513 0.838346C1.27606 0.840734 0.91976 0.975063 0.640834 1.22641V1.22593L0.637491 1.22927C0.608118 1.25578 0.580178 1.28384 0.552596 1.31273C0.239163 1.64432 0.0414316 2.14103 0.00549134 2.77769Z" fill="#404040"/>
    <path d="M0 3.16516V2.99071C0 2.98833 0 2.98642 0 2.98415C0 2.98367 0 2.98319 0 2.98271C0 2.91692 0.00179097 2.85256 0.00513428 2.79012C0.00513428 2.78916 0.00513428 2.78821 0.00513428 2.78725C0.00513428 2.78642 0.00513317 2.78546 0.00549139 2.78451C0.00549139 2.78259 0.00549139 2.7808 0.00549139 2.77889C0.00549139 2.77842 0.00549139 2.77794 0.00549139 2.77746C0.041432 2.1408 0.239165 1.64409 0.5526 1.3125L0.639885 1.40015C0.239165 1.7617 0 2.36468 0 3.16516V3.16516ZM0.637496 1.22904L0.64084 1.2257C0.639884 1.22713 0.638452 1.22808 0.637496 1.22904Z" fill="url(#paint10_linear_1_693)"/>
    <path d="M20.3653 11.2617L3.03417 1.4142C2.55369 1.14184 2.099 1.01265 1.69411 1.01265C1.28133 1.01265 0.921212 1.14697 0.640018 1.40023L0.552734 1.31258C0.580316 1.28369 0.608257 1.25563 0.63763 1.22912C0.638585 1.22817 0.640018 1.22721 0.640973 1.22626C0.919898 0.974914 1.2762 0.840586 1.68527 0.838198C1.68623 0.838198 1.68754 0.838198 1.68897 0.838198C1.69088 0.838198 1.6922 0.838198 1.69411 0.838198C2.099 0.838198 2.55369 0.96739 3.03417 1.23987L20.4768 11.1503L20.4763 11.1507L20.3653 11.2617Z" fill="url(#paint11_linear_1_693)"/>
    <path fill-rule="evenodd" clip-rule="evenodd" d="M40.148 4.21156V1.67007H42.8512V6.83521H39.5642C39.9558 6.16405 40.1489 5.32001 40.1489 4.31091L40.148 4.21156ZM38.4969 7.95413V9.35521V9.47461H38.3775H37.3779V6.83521H37.4973H38.1523C38.7013 6.34192 38.9894 5.50331 38.9899 4.29133L38.9894 4.21395V4.21347V0.551146H44.0112V6.83521H44.8112V9.47461H44.6918H43.6918V9.35521V7.95413H38.4969ZM47.3829 6.22554L47.3832 6.2253C46.8766 5.70984 46.6233 5.06148 46.622 4.25276C46.6233 3.44405 46.8766 2.79569 47.3832 2.28023H47.3827C47.8939 1.76488 48.5044 1.51211 49.2442 1.51067C49.9834 1.51211 50.5954 1.76488 51.1051 2.28023C51.613 2.79569 51.8659 3.44405 51.8672 4.25276C51.8659 5.06148 51.613 5.70984 51.1051 6.2253C50.5954 6.74064 49.9834 6.99342 49.2442 6.99485C48.5045 6.99342 47.8941 6.74072 47.3829 6.22554ZM53.0459 4.25276C53.0468 5.32644 52.6807 6.24859 51.9568 6.99199C51.2325 7.73874 50.3183 8.11521 49.2442 8.11426C48.1696 8.11521 47.2553 7.73874 46.5324 6.99199V6.99247C45.8071 6.24859 45.4424 5.32644 45.4434 4.25276C45.4424 3.17909 45.8071 2.25694 46.5324 1.51306V1.51354C47.2553 0.766792 48.1696 0.389481 49.2442 0.390795C50.3132 0.389481 51.2245 0.768583 51.9521 1.5182C52.6798 2.26494 53.0468 3.18518 53.0459 4.25276ZM59.2206 7.75752C58.7114 7.99585 58.1553 8.1143 57.5602 8.1143C56.479 8.11525 55.5578 7.74391 54.8242 7.00887C54.0868 6.2743 53.7174 5.34606 53.7188 4.25281C53.7174 3.15955 54.0868 2.23131 54.8242 1.49722C55.5578 0.761702 56.479 0.389882 57.5602 0.390838C58.6684 0.389524 59.5887 0.797164 60.2823 1.60313L60.3559 1.68839L60.2747 1.76684L59.5392 2.47907L59.4572 2.37639C58.9912 1.79717 58.3713 1.51263 57.5602 1.51072C56.8056 1.51215 56.1839 1.76122 55.6674 2.26725H55.6671C55.154 2.77197 54.8984 3.42355 54.8974 4.25281C54.8984 5.08206 55.154 5.7346 55.6671 6.23836H55.6674C56.1839 6.74439 56.8056 6.99346 57.5602 6.99489C58.3882 6.99346 59.0812 6.66749 59.6718 5.99537L59.7557 5.89925L59.8462 5.98976L60.563 6.70713L60.4935 6.7906C60.1545 7.19824 59.73 7.52146 59.2206 7.75752ZM64.2448 1.67004V7.8347V7.9541H64.1254H63.0849V1.67004H61.084V1.55064V0.551117H66.2458V0.670521V1.67004H64.2448ZM69.6145 4.52437L67.9038 0.551252H66.7443H66.5586L69.0242 5.96307L68.7868 6.48451C68.6921 6.69394 68.5904 6.82922 68.5008 6.89215C68.4137 6.95519 68.2732 6.99531 68.0745 6.99483C67.9285 6.99483 67.791 6.95794 67.6528 6.88009L67.5204 6.80546L67.2392 7.80224L67.2102 7.90385L67.3077 7.94492C67.5731 8.05633 67.8255 8.11424 68.0652 8.11424C68.8566 8.11794 69.4649 7.64128 69.8451 6.76212L69.8446 6.76295L72.631 0.551252H72.4467H71.3655H71.2863L69.6145 4.52437ZM74.4083 7.9541H73.4885H73.3691V0.551117H78.7912V7.9541H78.6718H77.6313V1.67004H74.5277V7.9541H74.4083ZM81.233 7.9541H80.3128H80.1934V0.551117H80.3128H81.3524V3.62252H84.6957V0.551117H84.8151H85.8557V7.9541H85.7363H84.6957V4.72186H81.3524V7.9541H81.233ZM87.9862 4.25276C87.9877 5.06148 88.2409 5.70984 88.7474 6.2253C89.2582 6.74064 89.8692 6.99342 90.6085 6.99485C91.3478 6.99342 91.9597 6.74064 92.4695 6.2253C92.9774 5.70984 93.2307 5.06148 93.2316 4.25276C93.2307 3.44405 92.9774 2.79569 92.4695 2.28023C91.9597 1.76488 91.3478 1.51211 90.6085 1.51067C89.8692 1.51211 89.2582 1.76488 88.7474 2.28023C88.2409 2.79569 87.9877 3.44405 87.9862 4.25276ZM94.4103 4.25276C94.4112 5.32644 94.0455 6.24859 93.3212 6.99199C92.5969 7.73874 91.6831 8.11521 90.6085 8.11426C89.5338 8.11521 88.6202 7.73874 87.8967 6.99199V6.99247C87.1714 6.24859 86.8067 5.32644 86.8076 4.25276C86.8067 3.17909 87.1714 2.25694 87.8967 1.51306V1.51354C88.6202 0.766792 89.5338 0.389481 90.6085 0.390795C91.6775 0.389481 92.5889 0.768583 93.3165 1.5182C94.0442 2.26494 94.4112 3.18518 94.4103 4.25276ZM99.0938 6.83517V4.72186H100.786C101.127 4.72317 101.384 4.83147 101.589 5.04926C101.799 5.27684 101.896 5.51147 101.897 5.77308C101.896 6.03661 101.802 6.27458 101.598 6.50395C101.398 6.72604 101.152 6.83326 100.826 6.83517H99.0938ZM99.0938 3.62252V1.67004H100.687C100.993 1.67195 101.22 1.76986 101.402 1.97093L101.403 1.97177L101.402 1.97141C101.589 2.18037 101.676 2.39864 101.678 2.64162C101.676 2.88365 101.587 3.10288 101.393 3.31601V3.31649C101.205 3.52126 100.967 3.62108 100.646 3.62252H99.0938ZM101.989 4.12059C102.214 3.98586 102.403 3.8079 102.55 3.58885V3.58932C102.742 3.30908 102.837 2.98204 102.837 2.62156C102.838 2.03243 102.616 1.52688 102.182 1.13691C101.752 0.748368 101.232 0.550159 100.646 0.551114H97.9355V7.9541H98.055H100.786C101.399 7.95505 101.942 7.74884 102.392 7.34264C102.845 6.93726 103.078 6.40974 103.077 5.79362C103.078 5.38371 102.954 5.01332 102.712 4.69989L102.71 4.69846L102.712 4.69941C102.517 4.44702 102.273 4.25244 101.989 4.12059Z" fill="black" fill-opacity="0.7"/>
    <defs>
        <linearGradient id="paint0_linear_1_693" x1="14.1219" y1="2.71194" x2="-5.91689" y2="22.7508" gradientUnits="userSpaceOnUse">
            <stop stop-color="#00A0FF"/>
            <stop offset="0.00657445" stop-color="#00A1FF"/>
            <stop offset="0.2601" stop-color="#00BEFF"/>
            <stop offset="0.5122" stop-color="#00D2FF"/>
            <stop offset="0.7604" stop-color="#00DFFF"/>
            <stop offset="1" stop-color="#00E3FF"/>
        </linearGradient>
        <linearGradient id="paint1_linear_1_693" x1="28.4915" y1="16.1948" x2="-0.400439" y2="16.1948" gradientUnits="userSpaceOnUse">
            <stop stop-color="#FFE000"/>
            <stop offset="0.4087" stop-color="#FFBD00"/>
            <stop offset="0.7754" stop-color="#FFA500"/>
            <stop offset="1" stop-color="#FF9C00"/>
        </linearGradient>
        <linearGradient id="paint2_linear_1_693" x1="17.7359" y1="18.9346" x2="-9.43816" y2="46.1087" gradientUnits="userSpaceOnUse">
            <stop stop-color="#FF3A44"/>
            <stop offset="1" stop-color="#C31162"/>
        </linearGradient>
        <linearGradient id="paint3_linear_1_693" x1="-3.19474" y1="-7.47779" x2="8.93958" y2="4.65653" gradientUnits="userSpaceOnUse">
            <stop stop-color="#32A071"/>
            <stop offset="0.0685" stop-color="#2DA771"/>
            <stop offset="0.4762" stop-color="#15CF74"/>
            <stop offset="0.8009" stop-color="#06E775"/>
            <stop offset="1" stop-color="#00F076"/>
        </linearGradient>
        <linearGradient id="paint4_linear_1_693" x1="28.4907" y1="16.1938" x2="-0.397934" y2="16.1938" gradientUnits="userSpaceOnUse">
            <stop stop-color="#CCB300"/>
            <stop offset="0.4087" stop-color="#CC9700"/>
            <stop offset="0.7754" stop-color="#CC8400"/>
            <stop offset="1" stop-color="#CC7D00"/>
        </linearGradient>
        <linearGradient id="paint5_linear_1_693" x1="17.7366" y1="18.9346" x2="-9.43749" y2="46.1087" gradientUnits="userSpaceOnUse">
            <stop stop-color="#CC2E36"/>
            <stop offset="1" stop-color="#9C0E4E"/>
        </linearGradient>
        <linearGradient id="paint6_linear_1_693" x1="14.122" y1="2.71176" x2="-5.91679" y2="22.7507" gradientUnits="userSpaceOnUse">
            <stop stop-color="#008DE0"/>
            <stop offset="0.00657445" stop-color="#008DE0"/>
            <stop offset="0.2601" stop-color="#00A7E0"/>
            <stop offset="0.5122" stop-color="#00B8E0"/>
            <stop offset="0.7604" stop-color="#00C4E0"/>
            <stop offset="1" stop-color="#00C7E0"/>
        </linearGradient>
        <linearGradient id="paint7_linear_1_693" x1="17.7372" y1="18.935" x2="-9.4353" y2="46.11" gradientUnits="userSpaceOnUse">
            <stop stop-color="#E0333C"/>
            <stop offset="1" stop-color="#AB0F56"/>
        </linearGradient>
        <linearGradient id="paint8_linear_1_693" x1="28.4912" y1="16.1942" x2="-0.400694" y2="16.1942" gradientUnits="userSpaceOnUse">
            <stop stop-color="#E0C500"/>
            <stop offset="0.4087" stop-color="#E0A600"/>
            <stop offset="0.7754" stop-color="#E09100"/>
            <stop offset="1" stop-color="#E08900"/>
        </linearGradient>
        <linearGradient id="paint9_linear_1_693" x1="28.4917" y1="16.1946" x2="-0.400214" y2="16.1946" gradientUnits="userSpaceOnUse">
            <stop stop-color="#FFE840"/>
            <stop offset="0.4087" stop-color="#FFCE40"/>
            <stop offset="0.7754" stop-color="#FFBC40"/>
            <stop offset="1" stop-color="#FFB540"/>
        </linearGradient>
        <linearGradient id="paint10_linear_1_693" x1="14.122" y1="2.71167" x2="-5.91682" y2="22.7506" gradientUnits="userSpaceOnUse">
            <stop stop-color="#40B8FF"/>
            <stop offset="0.00657445" stop-color="#40B9FF"/>
            <stop offset="0.2601" stop-color="#40CEFF"/>
            <stop offset="0.5122" stop-color="#40DDFF"/>
            <stop offset="0.7604" stop-color="#40E7FF"/>
            <stop offset="1" stop-color="#40EAFF"/>
        </linearGradient>
        <linearGradient id="paint11_linear_1_693" x1="-3.19437" y1="-7.4775" x2="8.93996" y2="4.65682" gradientUnits="userSpaceOnUse">
            <stop stop-color="#65B895"/>
            <stop offset="0.0685" stop-color="#62BD95"/>
            <stop offset="0.4762" stop-color="#50DB97"/>
            <stop offset="0.8009" stop-color="#44ED98"/>
            <stop offset="1" stop-color="#40F498"/>
        </linearGradient>
    </defs>
</svg>
