<svg width="60" height="60" viewBox="0 0 60 60" fill="none" xmlns="http://www.w3.org/2000/svg">
    <g clip-path="url(#clip0_1_647)">
        <path fill-rule="evenodd" clip-rule="evenodd" d="M45 60H15C11.0218 59.9998 7.2066 58.4194 4.39359 55.6064C1.58058 52.7934 0.000174035 48.9782 0 45L0 15C0.000174035 11.0218 1.58058 7.2066 4.39359 4.39359C7.2066 1.58058 11.0218 0.000174035 15 0L45 0C48.9782 0 52.7936 1.58035 55.6066 4.3934C58.4196 7.20644 60 11.0218 60 15V45C60 48.9782 58.4196 52.7936 55.6066 55.6066C52.7936 58.4196 48.9782 60 45 60Z" fill="#2C4C5E"/>
        <path fill-rule="evenodd" clip-rule="evenodd" d="M28.125 16.875H45C47.1631 16.8749 49.2435 16.0441 50.8116 14.5541C52.3797 13.0642 53.3158 11.029 53.4265 8.86875C53.5372 6.70852 52.8141 4.58827 51.4064 2.94587C49.9988 1.30347 48.0142 0.264358 45.8625 0.043125C45.5756 0.0271875 45.2916 0 45 0H15C11.0218 0.000174035 7.2066 1.58058 4.39359 4.39359C1.58058 7.2066 0.000174035 11.0218 0 15L0 45C0.000174041 37.5408 2.96339 30.3872 8.23781 25.1128C13.5122 19.8384 20.6658 16.8752 28.125 16.875Z" fill="#395D70"/>
        <path fill-rule="evenodd" clip-rule="evenodd" d="M45 30C42.0333 30 39.1332 30.8797 36.6665 32.528C34.1997 34.1762 32.2771 36.5189 31.1418 39.2597C30.0065 42.0006 29.7094 45.0166 30.2882 47.9264C30.867 50.8361 32.2956 53.5088 34.3934 55.6066C36.4912 57.7044 39.1639 59.133 42.0737 59.7118C44.9834 60.2906 47.9994 59.9935 50.7403 58.8582C53.4812 57.7229 55.8238 55.8003 57.472 53.3336C59.1203 50.8668 60 47.9667 60 45V15C60 18.9782 58.4197 22.7936 55.6066 25.6066C52.7936 28.4196 48.9783 30 45 30Z" fill="#253F4D"/>
        <path fill-rule="evenodd" clip-rule="evenodd" d="M42.8416 12.4567C43.0116 12.4868 43.1259 12.5144 43.2891 12.5649C43.3585 12.5863 43.4515 12.6142 43.4957 12.6268C43.5398 12.6393 43.6483 12.6818 43.7366 12.7211C43.825 12.7604 43.9438 12.8131 44.0006 12.8381C44.0574 12.8631 44.1762 12.9263 44.2645 12.9784C44.3529 13.0305 44.4804 13.1057 44.5479 13.1454C44.6154 13.1851 44.698 13.2438 44.7315 13.276C44.765 13.3081 44.8286 13.36 44.8727 13.3912C44.9169 13.4224 44.9582 13.4542 44.9645 13.4619C44.9708 13.4695 45.0122 13.5013 45.0563 13.5326C45.16 13.6059 45.4421 13.8919 45.5145 13.997C45.5453 14.0418 45.587 14.0942 45.6072 14.1134C45.6273 14.1326 45.669 14.1849 45.6998 14.2297C45.7306 14.2745 45.7818 14.3389 45.8135 14.3729C45.8649 14.428 45.938 14.5475 46.2532 15.0921C46.3019 15.176 46.3416 15.2575 46.3416 15.2732C46.3416 15.2888 46.3672 15.3529 46.3985 15.4155C46.4298 15.4782 46.4803 15.6008 46.5106 15.6882C46.541 15.7755 46.5767 15.8783 46.5901 15.9167C46.6567 16.1078 46.7151 16.3268 46.7547 16.5333C46.7658 16.5909 46.7868 16.6851 46.8014 16.7427C46.8161 16.8003 46.8371 16.926 46.8481 17.022C46.8592 17.1179 46.8802 17.275 46.895 17.371C46.9294 17.5952 46.9522 41.6996 46.9181 41.8262C46.9061 41.871 46.8859 41.9495 46.8732 42.0007C46.8063 42.2718 46.7205 42.4999 46.6252 42.6597C46.5666 42.7579 46.5119 42.8436 46.5036 42.85C46.4953 42.8564 46.4634 42.8983 46.4326 42.9431C46.2258 43.2438 45.7682 43.5587 45.3547 43.685C45.26 43.7139 45.1509 43.7473 45.1121 43.7591C45.0716 43.7716 44.3361 43.7807 43.3823 43.7807C41.7664 43.7807 41.719 43.7795 41.5708 43.7324C41.3951 43.6766 41.3085 43.6469 41.212 43.6094C41.1285 43.5769 40.7778 43.366 40.7233 43.3155C40.7017 43.2955 40.648 43.2536 40.6038 43.2224C40.5038 43.1517 40.4893 43.137 40.4205 43.0361C40.39 42.9913 40.3476 42.9388 40.3263 42.9193C40.305 42.8998 40.2301 42.7858 40.16 42.666C40.044 42.4679 39.979 42.3082 39.9081 42.0472C39.8902 41.9811 39.8793 40.1635 39.8704 35.7764L39.8579 29.5986L39.0087 29.5807C38.5416 29.5709 37.0389 29.5526 35.6693 29.5402C34.2997 29.5277 32.5026 29.507 31.6758 29.494C30.849 29.4811 29.4754 29.4603 28.6233 29.4478C27.7712 29.4353 26.9088 29.4222 26.7069 29.4187L26.3397 29.4124L26.3447 29.9127C26.3499 30.4273 26.3784 31.1257 26.4193 31.7393C26.4795 32.6442 26.5152 33.11 26.5572 33.5368C26.5701 33.668 26.5907 33.8774 26.6029 34.0021C26.6152 34.1269 26.636 34.318 26.6493 34.4268C26.6626 34.5356 26.683 34.7136 26.6947 34.8224C26.7064 34.9311 26.7273 35.0882 26.7413 35.1714C26.7553 35.2546 26.7757 35.4116 26.7867 35.5204C26.7977 35.6292 26.8185 35.7758 26.8329 35.8462C26.8473 35.9166 26.8681 36.0527 26.879 36.1487C26.89 36.2446 26.9104 36.3808 26.9244 36.4511C26.9385 36.5215 26.9593 36.6367 26.9708 36.7071C26.9823 36.7775 27.0029 36.8927 27.0167 36.9631C27.0305 37.0334 27.0511 37.1486 27.0626 37.219C27.082 37.3379 27.0923 37.3925 27.1544 37.7076C27.167 37.7716 27.1871 37.8737 27.1989 37.9345C27.2107 37.9953 27.2322 38.0922 27.2465 38.1497C27.2609 38.2073 27.2805 38.312 27.2901 38.3824C27.2997 38.4528 27.3246 38.5575 27.3454 38.6151C27.3662 38.6727 27.3834 38.7453 27.3836 38.7763C27.3839 38.8345 27.392 38.8662 27.4738 39.1301C27.5001 39.2149 27.5216 39.3093 27.5216 39.3398C27.5216 39.3703 27.5423 39.4526 27.5675 39.5226C27.5928 39.5926 27.6134 39.6793 27.6134 39.7152C27.6134 39.751 27.6341 39.8214 27.6593 39.8716C27.6846 39.9218 27.7052 39.9808 27.7052 40.0028C27.7052 40.0248 27.7148 40.075 27.7265 40.1143C27.7959 40.3472 27.941 40.8236 27.9592 40.878C27.971 40.9132 27.991 40.9734 28.0036 41.0118C28.0162 41.0502 28.0369 41.113 28.0495 41.1514C28.0621 41.1898 28.0828 41.2526 28.0954 41.291C28.2061 41.6275 28.2808 41.8316 28.3273 41.924C28.3532 41.9754 28.393 42.0766 28.4158 42.1487C28.4386 42.2209 28.4934 42.3584 28.5377 42.4544C28.582 42.5504 28.6515 42.7075 28.6921 42.8034C28.8713 43.227 29.0064 43.4955 29.2461 43.9044C29.3334 44.0534 29.3401 44.2709 29.2602 44.3651C29.1243 44.5251 28.909 44.5706 28.71 44.4812C28.656 44.457 28.555 44.414 28.4856 44.3857C28.4162 44.3574 28.3129 44.3129 28.2561 44.2868C28.1993 44.2607 28.1025 44.2204 28.041 44.1972C27.9796 44.174 27.8608 44.1143 27.7771 44.0645C27.6934 44.0146 27.5475 43.9283 27.4528 43.8726C27.2695 43.7646 26.944 43.5503 26.9249 43.5249C26.9186 43.5165 26.8463 43.464 26.7642 43.4083C26.6822 43.3526 26.5996 43.2901 26.5806 43.2694C26.5617 43.2486 26.5101 43.2064 26.4659 43.1754C26.4217 43.1444 26.3494 43.0817 26.3052 43.0361C26.261 42.9905 26.1887 42.9274 26.1446 42.8959C26.0405 42.8217 25.4842 42.2578 25.4106 42.1519C25.3795 42.1071 25.307 42.0234 25.2495 41.9658C25.192 41.9082 25.1199 41.8244 25.0893 41.7796C25.0587 41.7348 25.0171 41.6825 24.997 41.6633C24.9769 41.6441 24.9356 41.5917 24.9052 41.5469C24.8749 41.5022 24.8439 41.4603 24.8363 41.4539C24.8288 41.4475 24.7978 41.4056 24.7675 41.3608C24.7372 41.316 24.7062 41.2741 24.6986 41.2677C24.6911 41.2613 24.6601 41.2194 24.6298 41.1747C24.5994 41.1299 24.568 41.088 24.5599 41.0816C24.5518 41.0752 24.4321 40.8972 24.2939 40.686C24.0709 40.3452 23.9117 40.082 23.6184 39.5691C23.5159 39.39 22.9211 38.1651 22.8189 37.9229C22.7798 37.8301 22.7179 37.6835 22.6814 37.5971C22.6449 37.5107 22.5933 37.3851 22.5667 37.3179C22.4834 37.1077 22.4226 36.9553 22.3789 36.8467C22.2919 36.6308 21.9931 35.7323 21.8333 35.2063C21.7828 35.0399 21.7136 34.8148 21.6796 34.706C21.6455 34.5972 21.608 34.4663 21.5964 34.4152C21.5754 34.3232 21.5501 34.2189 21.5074 34.0487C21.4953 34.0007 21.4756 33.9222 21.4636 33.8742C21.4515 33.8262 21.4304 33.7398 21.4166 33.6822C21.389 33.5668 21.358 33.4404 21.3223 33.2983C21.3095 33.2471 21.29 33.1581 21.2789 33.1005C21.2679 33.0429 21.2472 32.9487 21.233 32.8911C21.2188 32.8335 21.1975 32.7366 21.1857 32.6758C21.1738 32.6151 21.1538 32.513 21.1412 32.449C21.1286 32.385 21.1079 32.2803 21.0953 32.2163C21.0331 31.901 21.0228 31.8461 21.0024 31.7218C20.9904 31.6482 20.9699 31.5226 20.9568 31.4426C20.9437 31.3626 20.9234 31.2291 20.9117 31.1459C20.9 31.0627 20.8791 30.9266 20.8654 30.8434C20.8517 30.7603 20.8309 30.6032 20.8192 30.4944C20.8075 30.3856 20.787 30.2076 20.7737 30.0988C20.7603 29.9901 20.7396 29.7911 20.7277 29.6567C20.7157 29.5224 20.6948 29.3025 20.6813 29.1681C20.5853 28.2121 20.5854 25.0591 20.6815 24.2119C20.6952 24.0903 20.716 23.8705 20.7275 23.7233C20.7391 23.5761 20.7598 23.3772 20.7736 23.2812C20.7873 23.1852 20.808 23.0177 20.8195 22.9089C20.831 22.8001 20.8517 22.643 20.8654 22.5599C20.8791 22.4767 20.9 22.3406 20.9117 22.2574C20.9234 22.1742 20.9437 22.0407 20.9568 21.9607C20.9699 21.8807 20.9904 21.7551 21.0024 21.6815C21.0269 21.5321 21.0502 21.4096 21.1405 20.9543C21.1519 20.8967 21.1729 20.8025 21.1871 20.7449C21.2013 20.6873 21.2211 20.5931 21.231 20.5355C21.241 20.4779 21.266 20.3837 21.2866 20.3261C21.3073 20.2685 21.3243 20.1966 21.3245 20.1662C21.3247 20.1359 21.3448 20.0469 21.3691 19.9685C21.3935 19.89 21.4253 19.7787 21.4398 19.7211C21.4653 19.6198 21.627 19.0777 21.6706 18.9474C21.6824 18.9122 21.7024 18.852 21.715 18.8136C21.7677 18.6534 21.7919 18.5838 21.8527 18.4181C21.8879 18.3221 21.9385 18.1886 21.9651 18.1214C21.9916 18.0542 22.0351 17.9443 22.0617 17.8771C22.0882 17.8099 22.1243 17.7157 22.1419 17.6677C22.1995 17.5102 22.6597 16.5951 22.7473 16.4639C22.7944 16.3933 22.8497 16.3025 22.8702 16.2621C22.8906 16.2217 22.9209 16.1746 22.9374 16.1574C22.9538 16.1402 22.9923 16.0895 23.0229 16.0447C23.0534 15.9999 23.0845 15.958 23.0921 15.9516C23.0996 15.9452 23.1306 15.9033 23.1609 15.8585C23.1913 15.8137 23.2326 15.7614 23.2527 15.7422C23.2728 15.723 23.3146 15.6706 23.3455 15.6258C23.4184 15.5201 24.0205 14.9096 24.1249 14.8357C24.169 14.8044 24.2207 14.762 24.2396 14.7416C24.2586 14.7212 24.3102 14.6794 24.3544 14.6486C24.3986 14.6178 24.4399 14.586 24.4462 14.5779C24.464 14.555 24.8516 14.2951 25.0429 14.1778C25.2135 14.0731 25.5938 13.8818 25.9036 13.7447C26.0468 13.6814 26.1608 13.6374 26.3856 13.5586C26.5432 13.5034 26.8509 13.4082 26.9364 13.3882C26.9869 13.3763 27.0695 13.356 27.12 13.343C27.1705 13.33 27.2583 13.3102 27.3151 13.299C27.3719 13.2878 27.4648 13.2664 27.5216 13.2514C27.6752 13.2109 27.8897 13.1974 27.9183 13.2265C27.9358 13.2442 27.9224 13.3171 27.8719 13.4788C27.8328 13.6039 27.7787 13.7847 27.7515 13.8807C27.7244 13.9767 27.6926 14.084 27.6808 14.1192C27.669 14.1544 27.6497 14.212 27.6378 14.2472C27.6177 14.307 27.5972 14.3843 27.5409 14.6137C27.5283 14.6649 27.499 14.7748 27.4757 14.858C27.4525 14.9412 27.4216 15.0563 27.4071 15.1139C27.3926 15.1715 27.3608 15.2828 27.3364 15.3613C27.3121 15.4398 27.292 15.5288 27.2918 15.5591C27.2916 15.5894 27.2746 15.6613 27.2539 15.7189C27.2333 15.7765 27.2083 15.8707 27.1983 15.9283C27.1884 15.9859 27.1686 16.0802 27.1544 16.1378C27.1402 16.1953 27.1196 16.2896 27.1085 16.3472C27.0975 16.4048 27.0767 16.499 27.0623 16.5566C27.0479 16.6142 27.0271 16.7189 27.016 16.7893C26.9885 16.9638 26.9559 17.1295 26.9243 17.2546C26.9098 17.3122 26.8891 17.4274 26.8783 17.5106C26.8675 17.5938 26.8471 17.7194 26.8329 17.7898C26.8187 17.8602 26.7981 17.9963 26.7872 18.0923C26.7763 18.1883 26.7555 18.3244 26.7411 18.3948C26.7267 18.4652 26.7056 18.6118 26.6942 18.7206C26.6828 18.8293 26.6627 19.0073 26.6495 19.1161C26.6122 19.4233 26.5816 19.7122 26.5606 19.9538C26.55 20.0754 26.535 20.1958 26.5272 20.2214C26.5122 20.2705 26.495 20.5243 26.4666 21.1172C26.4571 21.3156 26.4429 21.504 26.4351 21.536C26.4071 21.6507 26.3909 22.3111 26.3883 23.4441L26.3856 24.5958L29.7364 24.6134C31.5794 24.623 34.6107 24.6335 36.4726 24.6366L39.8579 24.6424L39.8747 23.5139C39.8839 22.8932 39.902 22.066 39.915 21.6757C40.0113 18.7774 40.0122 16.7525 39.9174 16.0098C39.8458 15.4491 39.8394 15.4149 39.7592 15.1697C39.6858 14.9452 39.5795 14.7515 39.4674 14.6378C39.3045 14.4726 39.2034 14.4297 38.8538 14.3773C38.7883 14.3675 38.7677 14.3537 38.7677 14.3193C38.7677 14.2676 38.976 13.9445 39.0655 13.8574C39.0983 13.8254 39.1505 13.7626 39.1815 13.7178C39.2539 13.6129 39.4451 13.4192 39.5481 13.3464C39.5922 13.3151 39.6439 13.2726 39.6628 13.2518C39.7037 13.207 39.9758 13.0224 40.2052 12.8839C40.3882 12.7734 40.4922 12.7298 40.8907 12.5964C41.2816 12.4655 41.2971 12.4614 41.3973 12.461C41.4469 12.4608 41.5029 12.4503 41.5219 12.4376C41.5664 12.4079 42.6546 12.4236 42.8416 12.4567ZM19.6736 19.1941C19.6623 19.2242 19.58 19.3968 19.4906 19.5777C19.4012 19.7587 19.3136 19.9461 19.296 19.9942C19.2784 20.0424 19.2411 20.1394 19.213 20.2097C19.1653 20.3295 18.9897 20.8562 18.8902 21.1784C18.8659 21.2569 18.8459 21.3459 18.8457 21.3762C18.8456 21.4065 18.8284 21.4785 18.8076 21.536C18.7868 21.5936 18.7616 21.6983 18.7516 21.7687C18.7416 21.8391 18.7222 21.9543 18.7084 22.0247C18.6706 22.2177 18.6399 22.4119 18.6156 22.6122C18.6035 22.7114 18.5829 22.8789 18.5698 22.9845C18.5568 23.0901 18.5362 23.2864 18.5242 23.4208C18.5121 23.5552 18.4913 23.7855 18.478 23.9327C18.4298 24.4635 18.4079 25.3435 18.4074 26.7715C18.407 28.1658 18.4239 28.7388 18.4784 29.1681C18.4922 29.2769 18.5129 29.4758 18.5245 29.6102C18.536 29.7446 18.5561 29.9278 18.5691 30.0174C18.5915 30.1717 18.6115 30.3144 18.6612 30.6747C18.6731 30.7611 18.6943 30.8894 18.7084 30.9598C18.7224 31.0302 18.7431 31.1558 18.7543 31.239C18.7655 31.3222 18.786 31.4478 18.7999 31.5182C18.8138 31.5886 18.8343 31.7038 18.8454 31.7742C18.8565 31.8446 18.8773 31.9493 18.8917 32.0069C18.9061 32.0645 18.9275 32.1613 18.9393 32.2221C18.9512 32.2829 18.9705 32.3824 18.9824 32.4431C18.9942 32.5039 19.0155 32.6008 19.0297 32.6584C19.0439 32.716 19.0646 32.8102 19.0756 32.8678C19.0866 32.9254 19.1073 33.0196 19.1215 33.0772C19.1357 33.1348 19.1557 33.229 19.1658 33.2866C19.176 33.3442 19.202 33.4489 19.2236 33.5193C19.2451 33.5897 19.2723 33.6866 19.284 33.7346C19.3113 33.8473 19.3447 33.9827 19.3758 34.1068C19.4156 34.2658 19.5324 34.6805 19.6493 35.0783C19.7356 35.3717 20.2456 36.9247 20.3332 37.1608C20.3712 37.2632 20.4246 37.4098 20.4518 37.4866C20.5049 37.6363 20.5577 37.7697 20.6592 38.0101C20.6943 38.0933 20.746 38.219 20.774 38.2894C20.8244 38.4162 20.8832 38.5573 21.026 38.8943C21.1182 39.1121 21.7776 40.4577 21.8934 40.6642C22.0276 40.9039 22.687 41.9379 22.7234 41.9658C22.7317 41.9722 22.7634 42.0141 22.7937 42.0589C22.824 42.1036 22.855 42.1455 22.8625 42.1519C22.8701 42.1583 22.9012 42.2002 22.9316 42.245C22.9621 42.2898 23.0136 42.3526 23.0462 42.3846C23.0787 42.4166 23.1303 42.4794 23.1609 42.5242C23.1915 42.569 23.2431 42.6318 23.2757 42.6638C23.3082 42.6958 23.3602 42.7587 23.3912 42.8034C23.4645 42.9094 24.2958 43.7521 24.4003 43.8265C24.4445 43.8579 24.5064 43.9106 24.538 43.9436C24.5695 43.9766 24.6315 44.0289 24.6757 44.0597C24.7199 44.0906 24.7715 44.1326 24.7904 44.153C24.8094 44.1734 24.861 44.2153 24.9052 44.2461C24.9494 44.2769 24.9907 44.3085 24.997 44.3165C25.0033 44.3245 25.0756 44.3766 25.1577 44.4322C25.2397 44.4879 25.312 44.5403 25.3183 44.5487C25.3371 44.5736 25.6617 44.7878 25.8347 44.8894C25.9231 44.9412 26.0677 45.0263 26.156 45.0784C26.4147 45.2309 27.0213 45.5216 27.4298 45.6888C27.4993 45.7172 27.5922 45.7568 27.6364 45.7769C27.6806 45.7969 27.7761 45.8219 27.8487 45.8325C28.2323 45.8881 28.2843 45.8993 28.4206 45.9557C28.4416 45.9643 28.4855 46.0123 28.5181 46.0623C28.6177 46.2149 28.5964 46.46 28.4648 46.6746C28.4035 46.7745 28.0981 46.9902 27.8885 47.0815C27.8192 47.1117 27.7161 47.1577 27.6593 47.1838C27.498 47.2578 27.3312 47.3175 27.2856 47.3175C27.2627 47.3175 27.2109 47.335 27.1705 47.3564C27.0634 47.413 26.8459 47.4595 26.2478 47.5539C26.0376 47.5871 24.7509 47.5858 24.4691 47.5521C24.3492 47.5378 24.153 47.5164 24.0331 47.5046C23.9131 47.4928 23.7479 47.4717 23.6658 47.4577C23.5838 47.4437 23.4495 47.4227 23.3675 47.4111C23.2854 47.3995 23.1641 47.3789 23.0978 47.3654C23.0315 47.3519 22.9282 47.331 22.8683 47.319C22.8083 47.307 22.7128 47.2854 22.656 47.271C22.5992 47.2566 22.5062 47.2357 22.4494 47.2245C22.3926 47.2133 22.3022 47.193 22.2486 47.1794C22.195 47.1658 22.1097 47.1442 22.0593 47.1314C22.0088 47.1186 21.9287 47.0994 21.8814 47.0888C21.8341 47.0781 21.7623 47.052 21.7219 47.0306C21.6815 47.0092 21.632 46.9918 21.6121 46.9918C21.5734 46.9918 20.8797 46.7611 20.7484 46.7046C20.7057 46.6863 20.6139 46.648 20.5445 46.6197C19.9206 46.3648 19.0759 45.9248 18.6395 45.6274C18.507 45.537 18.366 45.446 18.3261 45.4252C18.2863 45.4044 18.2398 45.3734 18.2229 45.3564C18.2059 45.3394 18.1248 45.2797 18.0428 45.2237C17.9607 45.1678 17.8781 45.105 17.8592 45.0843C17.8403 45.0636 17.7886 45.0215 17.7444 44.9907C17.7003 44.9599 17.6589 44.9285 17.6526 44.9209C17.6463 44.9132 17.605 44.8817 17.5608 44.8507C17.5166 44.8197 17.4443 44.7571 17.4002 44.7115C17.356 44.6659 17.2837 44.6027 17.2395 44.5712C17.1346 44.4964 16.0742 43.4211 16.0009 43.3154C15.9699 43.2706 15.9179 43.2077 15.8854 43.1757C15.8528 43.1437 15.8013 43.0809 15.7708 43.0361C15.7404 42.9913 15.699 42.939 15.6788 42.9198C15.6587 42.9006 15.6174 42.8482 15.587 42.8034C15.5567 42.7587 15.5153 42.7063 15.4952 42.6871C15.4751 42.6679 15.4338 42.6156 15.4034 42.5708C15.3731 42.526 15.3416 42.4841 15.3335 42.4777C15.3254 42.4713 15.1851 42.2619 15.0216 42.0123C14.7579 41.6095 14.6004 41.3504 14.3002 40.8256C14.2028 40.6554 13.8377 39.8992 13.7328 39.6506C13.5922 39.317 13.5667 39.2484 13.4778 38.9641C13.3262 38.4794 13.3096 38.4214 13.2903 38.3126C13.2802 38.255 13.26 38.1608 13.2454 38.1032C13.2309 38.0456 13.21 37.9304 13.1989 37.8473C13.1878 37.7641 13.1666 37.628 13.1518 37.5448C13.1165 37.3467 13.1159 36.2101 13.151 36.0149C13.1654 35.9349 13.1867 35.8092 13.1984 35.7356C13.21 35.6621 13.2313 35.5547 13.2457 35.4971C13.2601 35.4395 13.2796 35.3453 13.2891 35.2877C13.2985 35.2301 13.3237 35.1495 13.345 35.1086C13.3663 35.0676 13.3837 35.0151 13.3837 34.9919C13.3837 34.9515 13.4184 34.8503 13.5238 34.5839C13.5504 34.5167 13.5867 34.4218 13.6045 34.3731C13.6749 34.1804 14.0703 33.4715 14.1556 33.3849C14.173 33.3673 14.1983 33.332 14.2117 33.3065C14.2422 33.2488 14.5007 33.0772 14.5572 33.0772C14.6004 33.0772 14.669 33.1852 14.669 33.2533C14.669 33.2747 14.6889 33.3564 14.7133 33.4348C14.7376 33.5133 14.7694 33.6246 14.7839 33.6822C14.8996 34.1415 15.2902 35.3796 15.5365 36.0672C15.5869 36.208 15.6505 36.386 15.6778 36.4628C15.7051 36.5396 15.7475 36.6521 15.772 36.7129C15.7965 36.7737 15.8383 36.8784 15.8649 36.9456C15.9349 37.1222 16.1383 37.6032 16.2807 37.9287C16.4099 38.2241 17.0101 39.4442 17.1564 39.7087C17.448 40.2359 17.499 40.3234 17.882 40.9536C18.0049 41.1559 18.2517 41.5313 18.2721 41.5469C18.2804 41.5533 18.3322 41.6266 18.3871 41.7098C18.442 41.793 18.4933 41.8663 18.5012 41.8727C18.5091 41.8791 18.5403 41.921 18.5707 41.9658C18.601 42.0106 18.632 42.0525 18.6395 42.0589C18.6471 42.0653 18.678 42.1071 18.7084 42.1519C18.7387 42.1967 18.7801 42.2491 18.8002 42.2683C18.8203 42.2875 18.8617 42.3398 18.8922 42.3846C18.9227 42.4294 18.9742 42.4922 19.0067 42.5242C19.0393 42.5562 19.0909 42.619 19.1215 42.6638C19.1521 42.7086 19.2037 42.7715 19.2363 42.8034C19.2688 42.8354 19.3208 42.8983 19.3518 42.9431C19.4251 43.049 20.3023 43.9382 20.4068 44.0126C20.451 44.0441 20.5129 44.0968 20.5445 44.1297C20.576 44.1627 20.638 44.215 20.6822 44.2459C20.7264 44.2768 20.778 44.3188 20.7969 44.3392C20.8159 44.3596 20.8675 44.4015 20.9117 44.4322C20.9559 44.463 20.9972 44.4944 21.0035 44.502C21.0098 44.5097 21.0511 44.5413 21.0953 44.5723C21.1395 44.6034 21.1929 44.6448 21.214 44.6643C21.366 44.805 22.6429 45.5026 22.7484 45.5026C22.7743 45.5026 22.8338 45.5216 22.8807 45.5448C22.9636 45.586 23.194 45.6615 23.3789 45.7083C23.4294 45.721 23.5146 45.7444 23.5682 45.7603C23.6546 45.7859 23.6708 45.7844 23.7116 45.747C23.7634 45.6995 23.7725 45.5844 23.7317 45.4936C23.708 45.4409 23.3635 45.1895 23.1909 45.0991C23.1515 45.0784 23.1055 45.0477 23.0885 45.0307C23.0715 45.0137 22.9905 44.954 22.9085 44.898C22.8264 44.842 22.7438 44.7792 22.7248 44.7585C22.7059 44.7378 22.6543 44.6957 22.6101 44.6649C22.5659 44.6342 22.5246 44.6028 22.5183 44.5951C22.512 44.5875 22.4707 44.5559 22.4265 44.5248C22.3823 44.4938 22.2997 44.4207 22.2429 44.3624C22.1861 44.3041 22.1034 44.2306 22.0593 44.199C21.9549 44.1244 21.1237 43.2818 21.0498 43.1757C21.0186 43.1309 20.9358 43.0367 20.8658 42.9663C20.7957 42.8959 20.7134 42.8017 20.6827 42.7569C20.6521 42.7121 20.6209 42.6702 20.6133 42.6638C20.6058 42.6574 20.5747 42.6156 20.5442 42.5708C20.5138 42.526 20.4623 42.4631 20.4297 42.4311C20.3972 42.3992 20.3457 42.3363 20.3152 42.2915C20.2847 42.2467 20.2536 42.2049 20.2461 42.1985C20.2386 42.1921 20.2076 42.1502 20.1773 42.1054C20.1469 42.0606 20.1157 42.0187 20.1078 42.0123C20.0999 42.0059 20.0485 41.9326 19.9936 41.8494C19.9388 41.7663 19.8867 41.693 19.878 41.6866C19.8347 41.6546 19.2274 40.6944 18.9656 40.2439C18.566 39.5563 17.9878 38.3674 17.701 37.6437C17.6744 37.5765 17.6308 37.4665 17.604 37.3993C17.5773 37.3321 17.5372 37.2301 17.5149 37.1725C17.4926 37.1149 17.4531 37.0154 17.4272 36.9514C17.3287 36.7089 16.8719 35.3366 16.7785 35.0027C16.7543 34.9163 16.7147 34.775 16.6905 34.6886C16.6462 34.5308 16.6125 34.4019 16.5704 34.229C16.558 34.1778 16.5278 34.0717 16.5035 33.9933C16.4791 33.9148 16.459 33.8258 16.4588 33.7955C16.4586 33.7652 16.4416 33.6932 16.421 33.6357C16.4003 33.5781 16.3753 33.4838 16.3654 33.4262C16.3554 33.3687 16.3357 33.2744 16.3215 33.2168C16.3073 33.1592 16.286 33.0624 16.2741 33.0016C16.2623 32.9408 16.2423 32.8387 16.2297 32.7747C16.1675 32.4596 16.1572 32.4049 16.1379 32.2861C16.1264 32.2157 16.1056 32.1005 16.0917 32.0301C16.0778 31.9597 16.0572 31.8341 16.046 31.7509C16.0348 31.6677 16.0142 31.5421 16.0001 31.4717C15.9498 31.2197 15.8668 30.5454 15.8154 29.9709C15.7556 29.3027 15.7444 28.9867 15.7442 27.9814C15.7441 26.8201 15.7675 26.3663 15.8612 25.7127C15.874 25.6232 15.8945 25.4766 15.9066 25.387C15.9188 25.2974 15.9393 25.1717 15.9522 25.1078C15.9838 24.9512 16.017 24.7831 16.0439 24.6424C16.0561 24.5784 16.0771 24.4815 16.0905 24.4272C16.1039 24.3728 16.1239 24.289 16.1348 24.241C16.1458 24.193 16.1714 24.1066 16.1919 24.049C16.2123 23.9914 16.2291 23.9256 16.2293 23.9027C16.2295 23.8798 16.2503 23.82 16.2756 23.7698C16.3008 23.7197 16.3215 23.6575 16.3215 23.6318C16.3215 23.606 16.341 23.5401 16.3649 23.4854C16.3888 23.4307 16.4312 23.3283 16.4591 23.2579C16.6364 22.8107 16.8701 22.3355 17.1199 21.9142C17.2104 21.7617 17.4714 21.3655 17.4918 21.3499C17.5001 21.3435 17.5519 21.2702 17.6068 21.187C17.6618 21.1038 17.7235 21.0201 17.7439 21.0009C17.7643 20.9817 17.806 20.9293 17.8364 20.8845C17.8669 20.8397 17.9184 20.7769 17.951 20.7449C17.9835 20.7129 18.0355 20.6501 18.0665 20.6053C18.0975 20.5605 18.2985 20.3458 18.5132 20.1282C18.7278 19.9106 18.9396 19.7068 18.9838 19.6753C19.028 19.6439 19.0899 19.5912 19.1215 19.5582C19.1531 19.5252 19.215 19.473 19.2592 19.4421C19.3034 19.4112 19.355 19.3692 19.374 19.3488C19.3929 19.3284 19.4445 19.2864 19.4887 19.2554C19.5329 19.2244 19.5827 19.1857 19.5994 19.1692C19.6525 19.117 19.697 19.1319 19.6736 19.1941Z" fill="#BEA645"/>
    </g>
    <defs>
        <clipPath id="clip0_1_647">
            <rect width="60" height="60" fill="white"/>
        </clipPath>
    </defs>
</svg>
