<svg width="40" height="40" viewBox="0 0 40 40" fill="none" xmlns="http://www.w3.org/2000/svg">
    <g clip-path="url(#clip0_1_283)">
        <path fill-rule="evenodd" clip-rule="evenodd" d="M0 30V10C0.000116023 7.34787 1.05372 4.8044 2.92906 2.92906C4.8044 1.05372 7.34787 0.000116023 10 0L30 0C32.6521 0.000116023 35.1956 1.05372 37.0709 2.92906C38.9463 4.8044 39.9999 7.34787 40 10V30C40 32.6522 38.9464 35.1957 37.0711 37.0711C35.1957 38.9464 32.6522 40 30 40H10C7.34784 40 4.8043 38.9464 2.92893 37.0711C1.05357 35.1957 0 32.6522 0 30Z" fill="#2C4C5E"/>
        <path fill-rule="evenodd" clip-rule="evenodd" d="M28.75 18.75V30C28.7501 31.442 29.304 32.829 30.2972 33.8744C31.2905 34.9198 32.6473 35.5439 34.0875 35.6177C35.5277 35.6915 36.9412 35.2094 38.0361 34.271C39.131 33.3325 39.8238 32.0095 39.9712 30.575C39.9819 30.3837 40 30.1944 40 30V10C39.9999 7.34787 38.9463 4.8044 37.0709 2.92906C35.1956 1.05372 32.6521 0.000116023 30 0L10 0C14.9728 0.000116027 19.7418 1.97559 23.2581 5.49188C26.7744 9.00816 28.7499 13.7772 28.75 18.75" fill="#395D70"/>
        <path fill-rule="evenodd" clip-rule="evenodd" d="M20 30C20 28.0222 19.4135 26.0888 18.3147 24.4443C17.2159 22.7998 15.6541 21.5181 13.8268 20.7612C11.9996 20.0043 9.98891 19.8063 8.0491 20.1922C6.10929 20.578 4.32746 21.5304 2.92893 22.9289C1.53041 24.3275 0.577998 26.1093 0.192146 28.0491C-0.193706 29.9889 0.00432745 31.9996 0.761204 33.8268C1.51808 35.6541 2.79981 37.2159 4.4443 38.3147C6.08879 39.4135 8.02219 40 10 40H30C27.3478 40 24.8043 38.9464 22.9289 37.0711C21.0536 35.1957 20 32.6522 20 30Z" fill="#253F4D"/>
        <path fill-rule="evenodd" clip-rule="evenodd" d="M31.6955 28.561C31.6755 28.6744 31.6571 28.7506 31.6234 28.8594C31.6091 28.9057 31.5905 28.9677 31.5822 28.9971C31.5738 29.0266 31.5455 29.0989 31.5193 29.1578C31.4931 29.2167 31.4579 29.2959 31.4413 29.3337C31.4246 29.3716 31.3825 29.4508 31.3477 29.5097C31.313 29.5686 31.2629 29.6536 31.2364 29.6986C31.21 29.7436 31.1708 29.7987 31.1493 29.821C31.1279 29.8433 31.0934 29.8857 31.0725 29.9152C31.0517 29.9446 31.0305 29.9722 31.0254 29.9764C31.0203 29.9806 30.9991 30.0081 30.9783 30.0376C30.9294 30.1066 30.7387 30.2947 30.6686 30.343C30.6388 30.3636 30.6039 30.3914 30.5911 30.4048C30.5783 30.4182 30.5434 30.446 30.5135 30.4666C30.4836 30.4871 30.4407 30.5212 30.4181 30.5423C30.3814 30.5766 30.3017 30.6253 29.9386 30.8355C29.8827 30.8679 29.8283 30.8944 29.8179 30.8944C29.8075 30.8944 29.7647 30.9115 29.723 30.9324C29.6812 30.9532 29.5994 30.9869 29.5412 31.0071C29.483 31.0273 29.4145 31.0511 29.3889 31.0601C29.2614 31.1045 29.1155 31.1434 28.9778 31.1698C28.9394 31.1772 28.8766 31.1912 28.8382 31.2009C28.7998 31.2107 28.716 31.2247 28.652 31.2321C28.588 31.2394 28.4833 31.2535 28.4193 31.2633C28.2698 31.2862 12.2002 31.3015 12.1159 31.2788C12.086 31.2707 12.0337 31.2573 11.9995 31.2488C11.8188 31.2042 11.6668 31.147 11.5602 31.0835C11.4947 31.0444 11.4376 31.0079 11.4333 31.0024C11.4291 30.9969 11.4012 30.9756 11.3713 30.955C11.1708 30.8172 10.9608 30.5121 10.8767 30.2365C10.8574 30.1734 10.8352 30.1006 10.8272 30.0747C10.819 30.0477 10.8129 29.5574 10.8129 28.9215C10.8129 27.8443 10.8137 27.8127 10.8451 27.7138C10.8823 27.5967 10.9021 27.539 10.9271 27.4747C10.9487 27.419 11.0893 27.1852 11.123 27.1488C11.1363 27.1345 11.1642 27.0987 11.1851 27.0692C11.2322 27.0025 11.242 26.9929 11.3092 26.947C11.3391 26.9267 11.3742 26.8984 11.3871 26.8842C11.4001 26.87 11.4761 26.8201 11.556 26.7733C11.688 26.696 11.7945 26.6527 11.9685 26.6054C12.0126 26.5935 13.2244 26.5862 16.1491 26.5803L20.2676 26.5719L20.2795 26.0058C20.2861 25.6944 20.2982 24.6926 20.3065 23.7795C20.3149 22.8665 20.3287 21.6684 20.3373 21.1172C20.3459 20.566 20.3598 19.6502 20.3682 19.0822C20.3765 18.5142 20.3852 17.9392 20.3875 17.8046L20.3917 17.5598L20.0582 17.5631C19.7152 17.5666 19.2496 17.5856 18.8405 17.6128C18.2372 17.653 17.9267 17.6768 17.6422 17.7048C17.5547 17.7134 17.4151 17.7271 17.3319 17.7353C17.2487 17.7434 17.1213 17.7574 17.0488 17.7662C16.9763 17.7751 16.8576 17.7887 16.7851 17.7965C16.7126 17.8043 16.6079 17.8182 16.5524 17.8275C16.497 17.8368 16.3922 17.8505 16.3197 17.8578C16.2472 17.8652 16.1495 17.879 16.1026 17.8886C16.0556 17.8982 15.9649 17.912 15.9009 17.9193C15.8369 17.9266 15.7462 17.9403 15.6992 17.9496C15.6523 17.959 15.5755 17.9729 15.5286 17.9805C15.4817 17.9882 15.4049 18.002 15.358 18.0111C15.311 18.0203 15.2343 18.0341 15.1873 18.0417C15.1081 18.0547 15.0716 18.0615 14.8616 18.1029C14.8189 18.1114 14.7508 18.1247 14.7103 18.1326C14.6698 18.1405 14.6052 18.1548 14.5668 18.1644C14.5284 18.1739 14.4586 18.187 14.4117 18.1934C14.3648 18.1998 14.295 18.2164 14.2566 18.2303C14.2182 18.2442 14.1698 18.2556 14.1491 18.2557C14.1103 18.256 14.0892 18.2614 13.9133 18.3159C13.8567 18.3334 13.7938 18.3478 13.7735 18.3478C13.7531 18.3478 13.6983 18.3615 13.6516 18.3784C13.6049 18.3952 13.5471 18.409 13.5232 18.409C13.4993 18.409 13.4524 18.4227 13.4189 18.4396C13.3855 18.4564 13.3461 18.4702 13.3314 18.4702C13.3168 18.4702 13.2833 18.4765 13.2571 18.4843C13.1019 18.5306 12.7843 18.6274 12.748 18.6395C12.7245 18.6473 12.6844 18.6607 12.6588 18.6691C12.6332 18.6775 12.5913 18.6913 12.5657 18.6997C12.5401 18.7081 12.4983 18.7219 12.4727 18.7303C12.2483 18.804 12.1123 18.8539 12.0507 18.8849C12.0164 18.9021 11.949 18.9287 11.9009 18.9439C11.8528 18.959 11.761 18.9956 11.6971 19.0251C11.6331 19.0547 11.5284 19.101 11.4644 19.128C11.182 19.2475 11.003 19.3376 10.7304 19.4974C10.6311 19.5556 10.4861 19.5601 10.4233 19.5068C10.3166 19.4162 10.2863 19.2726 10.3458 19.14C10.362 19.104 10.3907 19.0367 10.4095 18.9904C10.4284 18.9441 10.4581 18.8753 10.4755 18.8374C10.4929 18.7995 10.5197 18.735 10.5352 18.694C10.5507 18.653 10.5905 18.5739 10.6237 18.5181C10.6569 18.4623 10.7145 18.365 10.7516 18.3019C10.8236 18.1796 10.9665 17.9627 10.9834 17.9499C10.989 17.9457 11.024 17.8975 11.0611 17.8428C11.0983 17.7881 11.14 17.733 11.1538 17.7204C11.1676 17.7078 11.1958 17.6734 11.2164 17.6439C11.2371 17.6145 11.2788 17.5663 11.3092 17.5368C11.3397 17.5074 11.3817 17.4592 11.4027 17.4297C11.4522 17.3603 11.8281 16.9895 11.8987 16.9404C11.9286 16.9197 11.9844 16.8713 12.0228 16.833C12.0612 16.7947 12.1171 16.7466 12.1469 16.7262C12.1768 16.7058 12.2117 16.6781 12.2245 16.6647C12.2373 16.6513 12.2722 16.6237 12.302 16.6035C12.3319 16.5832 12.3598 16.5626 12.3641 16.5576C12.3684 16.5525 12.3963 16.5319 12.4261 16.5117C12.456 16.4914 12.4839 16.4708 12.4882 16.4658C12.4924 16.4607 12.5204 16.4401 12.5502 16.4199C12.5801 16.3996 12.608 16.3787 12.6123 16.3733C12.6165 16.3679 12.7352 16.2881 12.876 16.196C13.1032 16.0473 13.2786 15.9411 13.6206 15.7456C13.74 15.6773 14.5566 15.2807 14.7181 15.2126C14.7799 15.1865 14.8777 15.1453 14.9353 15.121C14.9929 15.0966 15.0766 15.0622 15.1214 15.0445C15.2615 14.9889 15.3632 14.9484 15.4355 14.9193C15.5795 14.8613 16.1784 14.6621 16.5291 14.5556C16.6401 14.5219 16.7901 14.4757 16.8627 14.453C16.9352 14.4303 17.0224 14.4054 17.0566 14.3976C17.1178 14.3836 17.1874 14.3667 17.3009 14.3382C17.3329 14.3302 17.3852 14.3171 17.4172 14.3091C17.4492 14.301 17.5068 14.2869 17.5452 14.2777C17.6222 14.2593 17.7064 14.2386 17.8012 14.2149C17.8353 14.2063 17.8946 14.1933 17.933 14.1859C17.9714 14.1786 18.0342 14.1648 18.0726 14.1553C18.111 14.1459 18.1756 14.1317 18.2161 14.1238C18.2566 14.1159 18.3247 14.1026 18.3674 14.0941C18.41 14.0857 18.4798 14.072 18.5225 14.0635C18.7327 14.0221 18.7693 14.0152 18.8521 14.0016C18.9012 13.9936 18.9849 13.9799 19.0383 13.9712C19.0916 13.9625 19.1806 13.949 19.236 13.9411C19.2915 13.9333 19.3823 13.9194 19.4377 13.9103C19.4932 13.9011 19.5979 13.8873 19.6704 13.8795C19.7429 13.8717 19.8616 13.858 19.9341 13.8491C20.0066 13.8402 20.1393 13.8264 20.2288 13.8184C20.3184 13.8104 20.465 13.7966 20.5546 13.7876C21.192 13.7235 23.294 13.7236 23.8587 13.7876C23.9398 13.7968 24.0864 13.8107 24.1845 13.8184C24.2826 13.8261 24.4152 13.8399 24.4792 13.8491C24.5432 13.8582 24.6549 13.872 24.7274 13.8797C24.7999 13.8873 24.9046 13.9011 24.9601 13.9103C25.0156 13.9194 25.1063 13.9333 25.1618 13.9411C25.2172 13.949 25.3062 13.9625 25.3595 13.9712C25.4129 13.9799 25.4966 13.9936 25.5457 14.0016C25.6452 14.0179 25.7269 14.0334 26.0304 14.0937C26.0688 14.1013 26.1317 14.1153 26.1701 14.1247C26.2085 14.1342 26.2713 14.1474 26.3097 14.154C26.3481 14.1607 26.4109 14.1773 26.4493 14.1911C26.4877 14.2048 26.5356 14.2162 26.5558 14.2163C26.576 14.2164 26.6354 14.2298 26.6877 14.2461C26.74 14.2623 26.8142 14.2835 26.8526 14.2932C26.9201 14.3102 27.2815 14.418 27.3684 14.4471C27.3919 14.4549 27.432 14.4682 27.4576 14.4767C27.5644 14.5118 27.6108 14.5279 27.7213 14.5685C27.7853 14.592 27.8743 14.6257 27.9191 14.6434C27.9639 14.6611 28.0372 14.6901 28.082 14.7078C28.1268 14.7255 28.1895 14.7495 28.2215 14.7612C28.3266 14.7996 28.9366 15.1065 29.0241 15.1648C29.0711 15.1963 29.1317 15.2331 29.1586 15.2468C29.1855 15.2604 29.2169 15.2806 29.2284 15.2916C29.2399 15.3026 29.2737 15.3282 29.3035 15.3486C29.3334 15.3689 29.3613 15.3897 29.3656 15.3947C29.3699 15.3997 29.3978 15.4204 29.4276 15.4406C29.4575 15.4609 29.4924 15.4884 29.5052 15.5018C29.518 15.5152 29.5529 15.5431 29.5828 15.5637C29.6533 15.6123 30.0603 16.0137 30.1095 16.0832C30.1304 16.1127 30.1586 16.1471 30.1722 16.1597C30.1858 16.1724 30.2138 16.2068 30.2343 16.2363C30.2548 16.2657 30.276 16.2932 30.2814 16.2975C30.2966 16.3094 30.4699 16.5677 30.5481 16.6953C30.6179 16.809 30.7455 17.0626 30.8368 17.2691C30.8791 17.3646 30.9084 17.4405 30.9609 17.5904C30.9977 17.6955 31.0612 17.9006 31.0746 17.9576C31.0824 17.9913 31.096 18.0463 31.1047 18.08C31.1133 18.1137 31.1265 18.1722 31.134 18.2101C31.1415 18.2479 31.1558 18.3099 31.1657 18.3478C31.1927 18.4501 31.2017 18.5931 31.1824 18.6122C31.1705 18.6239 31.122 18.6149 31.0141 18.5812C30.9308 18.5552 30.8102 18.5191 30.7462 18.501C30.6822 18.4829 30.6106 18.4617 30.5872 18.4539C30.5637 18.446 30.5253 18.4331 30.5019 18.4252C30.462 18.4118 30.4105 18.3982 30.2576 18.3606C30.2234 18.3522 30.1501 18.3327 30.0947 18.3172C30.0392 18.3017 29.9624 18.2811 29.924 18.2714C29.8856 18.2617 29.8114 18.2405 29.7591 18.2243C29.7068 18.208 29.6475 18.1946 29.6273 18.1945C29.6071 18.1944 29.5591 18.183 29.5207 18.1693C29.4823 18.1555 29.4195 18.1389 29.3811 18.1322C29.3427 18.1256 29.2799 18.1124 29.2415 18.1029C29.2031 18.0935 29.1403 18.0797 29.1019 18.0723C29.0635 18.065 29.0007 18.0511 28.9623 18.0415C28.9239 18.032 28.8541 18.0181 28.8072 18.0107C28.6908 17.9924 28.5803 17.9706 28.4969 17.9496C28.4585 17.9399 28.3817 17.9261 28.3263 17.9189C28.2708 17.9117 28.187 17.898 28.1401 17.8886C28.0932 17.8791 28.0025 17.8654 27.9385 17.8581C27.8745 17.8508 27.7837 17.837 27.7368 17.8274C27.6899 17.8178 27.5922 17.8037 27.5196 17.7961C27.4471 17.7885 27.3284 17.7751 27.2559 17.7663C27.0512 17.7415 26.8585 17.721 26.6975 17.707C26.6164 17.7 26.5361 17.69 26.5191 17.6848C26.4863 17.6748 26.3172 17.6633 25.9219 17.6444C25.7896 17.638 25.664 17.6286 25.6426 17.6234C25.5662 17.6048 25.1259 17.5939 24.3706 17.5922L23.6028 17.5904L23.5911 19.8243C23.5846 21.0529 23.5777 23.0738 23.5756 24.3151L23.5717 26.5719L24.3241 26.5831C24.7379 26.5892 25.2893 26.6013 25.5496 26.61C27.4817 26.6742 28.8316 26.6748 29.3268 26.6116C29.7006 26.5639 29.7234 26.5596 29.8869 26.5061C30.0365 26.4572 30.1657 26.3864 30.2415 26.3116C30.3516 26.203 30.3802 26.1356 30.4151 25.9025C30.4216 25.8589 30.4309 25.8451 30.4538 25.8451C30.4883 25.8451 30.7037 25.984 30.7617 26.0436C30.783 26.0656 30.8249 26.1004 30.8548 26.121C30.9247 26.1693 31.0539 26.2967 31.1024 26.3654C31.1233 26.3948 31.1516 26.4293 31.1655 26.4419C31.1953 26.4691 31.3184 26.6505 31.4107 26.8034C31.4844 26.9254 31.5135 26.9948 31.6024 27.2605C31.6897 27.5211 31.6924 27.5314 31.6927 27.5982C31.6928 27.6312 31.6998 27.6686 31.7083 27.6812C31.7281 27.7109 31.7176 28.4364 31.6955 28.561ZM27.204 13.1158C27.1839 13.1082 27.0688 13.0533 26.9482 12.9937C26.8275 12.9341 26.7026 12.8758 26.6705 12.864C26.6384 12.8523 26.5738 12.8274 26.5268 12.8087C26.447 12.7768 26.0959 12.6598 25.881 12.5934C25.8287 12.5773 25.7694 12.564 25.7492 12.5638C25.729 12.5637 25.681 12.5523 25.6426 12.5384C25.6042 12.5245 25.5344 12.5077 25.4875 12.5011C25.4406 12.4944 25.3638 12.4814 25.3169 12.4723C25.1882 12.4471 25.0587 12.4266 24.9252 12.4104C24.8591 12.4023 24.7474 12.3886 24.677 12.3799C24.6066 12.3712 24.4757 12.3575 24.3861 12.3494C24.2966 12.3414 24.143 12.3275 24.0449 12.3186C23.691 12.2865 23.1043 12.272 22.1524 12.2716C21.2228 12.2713 20.8408 12.2826 20.5546 12.3189C20.4821 12.3281 20.3494 12.3419 20.2599 12.3497C20.1703 12.3574 20.0481 12.3708 19.9884 12.3794C19.8855 12.3944 19.7904 12.4077 19.5502 12.4408C19.4926 12.4487 19.4071 12.4629 19.3601 12.4723C19.3132 12.4816 19.2295 12.4954 19.174 12.5029C19.1185 12.5103 19.0348 12.524 18.9878 12.5333C18.9409 12.5426 18.8641 12.5562 18.8172 12.5636C18.7703 12.571 18.7005 12.5849 18.6621 12.5944C18.6237 12.604 18.5591 12.6183 18.5186 12.6262C18.4781 12.6341 18.4118 12.647 18.3712 12.6549C18.3307 12.6628 18.2661 12.677 18.2277 12.6865C18.1894 12.6959 18.1265 12.7097 18.0881 12.7171C18.0497 12.7244 17.9869 12.7382 17.9485 12.7477C17.9101 12.7571 17.8473 12.7704 17.8089 12.7772C17.7705 12.784 17.7007 12.8013 17.6538 12.8157C17.6069 12.8301 17.5423 12.8482 17.5103 12.856C17.4351 12.8742 17.3448 12.8965 17.2621 12.9172C17.1561 12.9437 16.8796 13.0216 16.6145 13.0996C16.4189 13.1571 15.3835 13.4971 15.2261 13.5555C15.1579 13.5808 15.0601 13.6164 15.0089 13.6345C14.9091 13.6699 14.8202 13.7051 14.6599 13.7728C14.6045 13.7962 14.5207 13.8307 14.4738 13.8493C14.3892 13.883 14.2951 13.9221 14.0704 14.0173C13.9253 14.0788 13.0282 14.5184 12.8905 14.5956C12.7308 14.6851 12.0414 15.1247 12.0228 15.1489C12.0185 15.1545 11.9906 15.1756 11.9608 15.1958C11.9309 15.216 11.903 15.2367 11.8987 15.2417C11.8944 15.2467 11.8665 15.2674 11.8367 15.2878C11.8068 15.3081 11.7649 15.3424 11.7436 15.3641C11.7223 15.3858 11.6804 15.4202 11.6505 15.4406C11.6207 15.461 11.5788 15.4954 11.5574 15.5171C11.5361 15.5388 11.4942 15.5735 11.4644 15.5941C11.3937 15.643 10.8319 16.1972 10.7824 16.2669C10.7614 16.2963 10.7263 16.3376 10.7043 16.3587C10.6823 16.3797 10.6474 16.421 10.6268 16.4505C10.6062 16.4799 10.5783 16.5143 10.5647 16.527C10.551 16.5396 10.5231 16.574 10.5026 16.6035C10.4821 16.6329 10.461 16.6605 10.4556 16.6647C10.4503 16.6689 10.4156 16.7171 10.3785 16.7718C10.3414 16.8265 10.3065 16.8747 10.3009 16.8789C10.2842 16.8914 10.1415 17.1078 10.0738 17.2232C10.0392 17.2821 9.98248 17.3785 9.94774 17.4374C9.84606 17.6098 9.65228 18.0142 9.54079 18.2866C9.52185 18.3328 9.49544 18.3948 9.48208 18.4243C9.46872 18.4537 9.45205 18.5174 9.44502 18.5658C9.4079 18.8215 9.40044 18.8562 9.3629 18.947C9.35711 18.9611 9.32511 18.9903 9.29181 19.0121C9.19006 19.0785 9.02665 19.0643 8.88357 18.9765C8.81699 18.9357 8.67321 18.732 8.61233 18.5923C8.59223 18.5462 8.56155 18.4774 8.54416 18.4396C8.49478 18.332 8.45498 18.2208 8.45498 18.1904C8.45498 18.1751 8.44333 18.1406 8.42909 18.1137C8.39136 18.0423 8.36031 17.8973 8.29737 17.4986C8.27525 17.3584 8.27612 16.5006 8.29858 16.3128C8.30814 16.2328 8.32239 16.102 8.33026 16.022C8.33812 15.9421 8.35219 15.8319 8.36153 15.7772C8.37087 15.7225 8.38485 15.633 8.39259 15.5783C8.40034 15.5236 8.41406 15.4427 8.42307 15.3985C8.43208 15.3543 8.44601 15.2855 8.454 15.2455C8.46201 15.2056 8.4764 15.1419 8.486 15.104C8.4956 15.0661 8.50957 15.0042 8.51703 14.9663C8.52449 14.9284 8.53802 14.8682 8.54707 14.8324C8.55615 14.7966 8.57054 14.7398 8.57908 14.7062C8.58761 14.6725 8.60039 14.6192 8.60748 14.5876C8.61457 14.556 8.63202 14.5082 8.64626 14.4812C8.6605 14.4543 8.67215 14.4214 8.67215 14.408C8.67215 14.3823 8.82592 13.9198 8.86357 13.8323C8.87583 13.8038 8.90133 13.7426 8.92022 13.6963C9.09011 13.2804 9.38344 12.7172 9.58176 12.4264C9.64201 12.338 9.70265 12.244 9.71653 12.2174C9.73042 12.1909 9.75105 12.1599 9.76239 12.1486C9.77371 12.1372 9.81352 12.0832 9.85084 12.0285C9.88816 11.9738 9.93 11.9187 9.9438 11.9061C9.95761 11.8935 9.98569 11.8591 10.0062 11.8296C10.0267 11.8002 10.0477 11.7726 10.0527 11.7684C10.0578 11.7642 10.0789 11.7367 10.0995 11.7072C10.1202 11.6778 10.162 11.6296 10.1924 11.6001C10.2228 11.5707 10.2648 11.5225 10.2859 11.493C10.3358 11.4231 11.0526 10.7161 11.1231 10.6673C11.153 10.6466 11.1948 10.612 11.2162 10.5903C11.2375 10.5686 11.2794 10.5342 11.3092 10.5139C11.3391 10.4936 11.374 10.466 11.3868 10.4526C11.3996 10.4391 11.4345 10.4116 11.4644 10.3913C11.4942 10.3711 11.5291 10.3436 11.5419 10.3301C11.5547 10.3167 11.5896 10.2892 11.6195 10.269C11.6494 10.2487 11.6773 10.2277 11.6815 10.2223C11.6858 10.2169 11.8254 10.1234 11.9918 10.0144C12.2603 9.83859 12.4331 9.73358 12.7829 9.53345C12.8964 9.46853 13.4006 9.22511 13.5663 9.15521C13.7887 9.06143 13.8344 9.04443 14.0239 8.98519C14.3471 8.88416 14.3858 8.87304 14.4582 8.86023C14.4966 8.85344 14.5595 8.83997 14.5979 8.83029C14.6363 8.82062 14.713 8.80665 14.7685 8.79927C14.824 8.79188 14.9147 8.77776 14.9702 8.76787C15.1022 8.74434 15.86 8.74393 15.9901 8.76734C16.0434 8.77692 16.1272 8.79113 16.1762 8.7989C16.2253 8.80668 16.2968 8.82088 16.3352 8.83045C16.3736 8.84005 16.4365 8.85305 16.4749 8.85937C16.5132 8.86569 16.567 8.88248 16.5943 8.89668C16.6216 8.91086 16.6566 8.92247 16.6721 8.92247C16.699 8.92247 16.7664 8.94562 16.9441 9.01588C16.9889 9.03359 17.0521 9.05779 17.0846 9.06967C17.2131 9.11659 17.6857 9.3802 17.7434 9.43707C17.7551 9.44868 17.7787 9.46553 17.7957 9.47449C17.8342 9.49481 17.9485 9.66713 17.9485 9.70479C17.9485 9.73363 17.8765 9.77932 17.8311 9.77932C17.8169 9.77932 17.7624 9.79261 17.7101 9.80885C17.6578 9.8251 17.5836 9.84629 17.5452 9.85596C17.239 9.93304 16.4136 10.1935 15.9552 10.3577C15.8613 10.3913 15.7427 10.4337 15.6915 10.4519C15.6403 10.4701 15.5652 10.4983 15.5247 10.5147C15.4842 10.531 15.4144 10.5589 15.3696 10.5766C15.2518 10.6233 14.9312 10.7589 14.7142 10.8538C14.5172 10.9399 13.7039 11.3401 13.5275 11.4376C13.1761 11.632 13.1177 11.666 12.6976 11.9213C12.5627 12.0033 12.3125 12.1678 12.302 12.1814C12.2978 12.1869 12.2489 12.2214 12.1934 12.258C12.138 12.2946 12.0891 12.3289 12.0849 12.3341C12.0806 12.3394 12.0527 12.3602 12.0228 12.3805C11.993 12.4007 11.965 12.4213 11.9608 12.4264C11.9565 12.4314 11.9286 12.452 11.8987 12.4723C11.8689 12.4925 11.834 12.52 11.8212 12.5335C11.8084 12.5469 11.7735 12.5745 11.7436 12.5948C11.7137 12.6151 11.6718 12.6495 11.6505 12.6712C11.6292 12.6929 11.5873 12.7273 11.5574 12.7477C11.5276 12.7681 11.4857 12.8025 11.4644 12.8242C11.443 12.8459 11.4012 12.8805 11.3713 12.9012C11.3007 12.9501 10.7078 13.5348 10.6583 13.6045C10.6373 13.634 10.6022 13.6753 10.5802 13.6963C10.5582 13.7174 10.5233 13.7587 10.5027 13.7881C10.4821 13.8176 10.4542 13.852 10.4406 13.8646C10.427 13.8773 10.399 13.9117 10.3785 13.9411C10.358 13.9706 10.3371 13.9981 10.332 14.0023C10.3269 14.0065 10.3058 14.0341 10.2851 14.0635C10.2644 14.093 10.2368 14.1286 10.2238 14.1427C10.13 14.244 9.66494 15.0952 9.66494 15.1656C9.66494 15.1829 9.65227 15.2226 9.63677 15.2538C9.60933 15.3091 9.55898 15.4627 9.52783 15.586C9.51933 15.6196 9.5037 15.6764 9.49312 15.7121C9.47605 15.7698 9.47705 15.7806 9.502 15.8078C9.53367 15.8423 9.61037 15.8484 9.67094 15.8211C9.70608 15.8053 9.87364 15.5756 9.93396 15.4606C9.9477 15.4344 9.96822 15.4036 9.97956 15.3923C9.99088 15.381 10.0307 15.327 10.068 15.2723C10.1053 15.2176 10.1472 15.1625 10.161 15.1499C10.1748 15.1373 10.2029 15.1028 10.2234 15.0734C10.2439 15.0439 10.2648 15.0164 10.2699 15.0122C10.275 15.008 10.2961 14.9804 10.3168 14.951C10.3375 14.9215 10.3862 14.8664 10.425 14.8286C10.4639 14.7907 10.5129 14.7356 10.534 14.7062C10.5837 14.6366 11.1455 14.0825 11.2162 14.0332C11.246 14.0124 11.3089 13.9572 11.3558 13.9105C11.4027 13.8638 11.4655 13.8089 11.4954 13.7885C11.5253 13.7681 11.5532 13.7472 11.5574 13.7422C11.5617 13.7372 11.5896 13.7165 11.6195 13.6962C11.6494 13.6759 11.6912 13.6415 11.7126 13.6198C11.7339 13.5981 11.7758 13.5638 11.8056 13.5435C11.8355 13.5231 11.8634 13.5024 11.8677 13.4974C11.872 13.4924 11.8999 13.4717 11.9297 13.4515C11.9596 13.4313 11.9875 13.4104 11.9918 13.4052C11.9961 13.3999 12.0449 13.3657 12.1004 13.3291C12.1558 13.2925 12.2047 13.2578 12.209 13.252C12.2303 13.2231 12.8704 12.8183 13.1707 12.6437C13.6291 12.3773 14.4217 11.9919 14.9042 11.8007C14.949 11.7829 15.0223 11.7538 15.0671 11.736C15.1119 11.7182 15.18 11.6915 15.2184 11.6766C15.2567 11.6618 15.3231 11.6354 15.3657 11.6181C15.5274 11.5525 16.4422 11.248 16.6649 11.1857C16.7225 11.1696 16.8167 11.1432 16.8743 11.127C16.9795 11.0975 17.0654 11.075 17.1807 11.047C17.2148 11.0386 17.2855 11.0186 17.3378 11.0023C17.3901 10.9861 17.4495 10.9727 17.4697 10.9725C17.4899 10.9724 17.5378 10.9611 17.5762 10.9473C17.6146 10.9336 17.6774 10.9169 17.7158 10.9102C17.7542 10.9036 17.8171 10.8904 17.8554 10.881C17.8938 10.8715 17.9584 10.8573 17.9989 10.8494C18.0395 10.8415 18.1075 10.8282 18.1502 10.8198C18.3603 10.7783 18.3967 10.7715 18.4759 10.7586C18.5229 10.7509 18.5997 10.7371 18.6466 10.7278C18.6935 10.7185 18.7773 10.7048 18.8327 10.6974C18.8882 10.6899 18.9719 10.6761 19.0189 10.6668C19.1868 10.6332 19.6364 10.5779 20.0194 10.5436C20.4648 10.5038 20.6755 10.4962 21.3457 10.4962C22.1199 10.4961 22.4225 10.5117 22.8582 10.5741C22.9179 10.5827 23.0156 10.5963 23.0753 10.6044C23.1351 10.6125 23.2188 10.6262 23.2615 10.6348C23.3659 10.6559 23.4779 10.678 23.5717 10.6959C23.6144 10.7041 23.679 10.7181 23.7152 10.727C23.7515 10.736 23.8073 10.7492 23.8393 10.7565C23.8713 10.7638 23.9289 10.781 23.9673 10.7946C24.0057 10.8082 24.0496 10.8194 24.0649 10.8195C24.0801 10.8197 24.12 10.8335 24.1535 10.8504C24.1869 10.8672 24.2283 10.881 24.2455 10.881C24.2627 10.881 24.3066 10.894 24.3431 10.91C24.3795 10.9259 24.4478 10.9541 24.4947 10.9727C24.7929 11.0909 25.1096 11.2467 25.3905 11.4133C25.4922 11.4736 25.7563 11.6476 25.7667 11.6612C25.771 11.6667 25.8199 11.7012 25.8753 11.7379C25.9308 11.7745 25.9866 11.8157 25.9994 11.8293C26.0122 11.8429 26.0471 11.8706 26.077 11.891C26.1068 11.9113 26.1487 11.9456 26.1701 11.9673C26.1914 11.989 26.2333 12.0237 26.2631 12.0443C26.293 12.065 26.4361 12.199 26.5812 12.3421C26.7263 12.4852 26.8622 12.6264 26.8831 12.6559C26.9041 12.6853 26.9392 12.7266 26.9612 12.7477C26.9832 12.7687 27.018 12.81 27.0386 12.8395C27.0592 12.8689 27.0872 12.9034 27.1008 12.916C27.1144 12.9286 27.1424 12.963 27.1631 12.9925C27.1837 13.0219 27.2096 13.0551 27.2205 13.0662C27.2553 13.1016 27.2454 13.1313 27.204 13.1158Z" fill="#BEA645"/>
    </g>
    <defs>
        <clipPath id="clip0_1_283">
            <rect width="40" height="40" fill="white" transform="translate(40) rotate(90)"/>
        </clipPath>
    </defs>
</svg>
