<svg width="40" height="40" viewBox="0 0 40 40" fill="none" xmlns="http://www.w3.org/2000/svg">
    <g clip-path="url(#clip0_1_335)">
        <path fill-rule="evenodd" clip-rule="evenodd" d="M0 30V10C0.000114441 7.34787 1.05372 4.8044 2.92906 2.92906C4.8044 1.05372 7.34787 0.000116023 10 0L30 0C32.6521 0.000116023 35.1956 1.05372 37.0709 2.92906C38.9463 4.8044 39.9999 7.34787 40 10V30C40 32.6522 38.9464 35.1957 37.0711 37.0711C35.1957 38.9464 32.6522 40 30 40H10C7.34784 40 4.80429 38.9464 2.92893 37.0711C1.05357 35.1957 0 32.6522 0 30Z" fill="#1E1E1E"/>
        <path fill-rule="evenodd" clip-rule="evenodd" d="M28.75 18.75V30C28.7501 31.442 29.304 32.829 30.2972 33.8744C31.2905 34.9198 32.6473 35.5439 34.0875 35.6177C35.5277 35.6915 36.9412 35.2094 38.0361 34.271C39.131 33.3325 39.8238 32.0095 39.9712 30.575C39.9819 30.3837 40 30.1944 40 30V10C39.9999 7.34787 38.9463 4.8044 37.0709 2.92906C35.1956 1.05372 32.6521 0.000116023 30 0L10 0C14.9728 0.000116027 19.7418 1.97559 23.2581 5.49188C26.7744 9.00816 28.7499 13.7772 28.75 18.75Z" fill="#373737"/>
        <path fill-rule="evenodd" clip-rule="evenodd" d="M20 30C20 28.0222 19.4135 26.0888 18.3147 24.4443C17.2159 22.7998 15.6541 21.5181 13.8268 20.7612C11.9996 20.0043 9.98891 19.8063 8.0491 20.1922C6.10929 20.578 4.32746 21.5304 2.92893 22.9289C1.53041 24.3275 0.577999 26.1093 0.192146 28.0491C-0.193707 29.9889 0.00432777 31.9996 0.761204 33.8268C1.51808 35.6541 2.79981 37.2159 4.4443 38.3147C6.08879 39.4135 8.02219 40 10 40H30C27.3478 40 24.8043 38.9464 22.9289 37.0711C21.0536 35.1957 20 32.6522 20 30Z" fill="black"/>
        <g clip-path="url(#clip1_1_335)">
            <path d="M19.8466 27.4863C23.306 27.4549 24.9681 30.3142 25.0498 30.443C27.4032 28.8343 27.7237 26.3332 27.7614 25.4408C27.9782 23.3137 26.5077 21.287 26.5077 20.2062C26.5077 19.1253 27.73 17.46 27.6954 15.6942C27.6608 13.3722 26.3475 11.2325 24.2674 10.0353C20.0885 7.62539 13.8892 9.41951 10.4927 11.7698C8.83366 12.9198 6.96414 14.2865 7.03326 16.0869C7.10239 17.8214 8.15498 18.4749 8.15498 20.5675C8.15498 22.6601 7.03326 23.2508 7.06783 25.0795C7.10553 26.9427 8.76454 28.1242 10.4298 29.2647C12.3559 30.5812 14.2223 31.1248 14.3197 31.1562C14.3354 31.1154 15.7116 27.524 19.8466 27.4863Z" fill="white"/>
            <path d="M30.0075 24.0459C31.1638 25.001 32.7726 25.6452 34.375 25.4692C34.3184 24.093 33.4575 22.4277 32.3012 21.4411C31.2801 20.5582 29.6431 19.7821 28.072 19.9926C27.9526 21.5228 28.8544 23.0907 30.0075 24.0459Z" fill="white"/>
        </g>
    </g>
    <defs>
        <clipPath id="clip0_1_335">
            <rect width="40" height="40" fill="white" transform="translate(40) rotate(90)"/>
        </clipPath>
        <clipPath id="clip1_1_335">
            <rect width="27.3438" height="27.3438" fill="white" transform="translate(34.375 6.32812) rotate(90)"/>
        </clipPath>
    </defs>
</svg>
