<svg width="97" height="32" viewBox="0 0 97 32" fill="none" xmlns="http://www.w3.org/2000/svg">
    <path d="M43.668 17.6133V28.333H44.8188V24.3549H47.7277C48.7127 24.3549 49.5343 24.0334 50.1901 23.3878C50.8459 22.7422 51.1725 21.941 51.1725 20.9816C51.1725 20.0221 50.8459 19.2209 50.1952 18.5779C49.542 17.9348 48.7178 17.6133 47.7277 17.6133H43.668ZM47.7277 18.6901C48.4192 18.6901 48.9755 18.8994 49.394 19.3178C49.8125 19.7363 50.0217 20.2926 50.0217 20.9841C50.0217 21.6782 49.8125 22.2319 49.394 22.6504C48.9755 23.0714 48.4192 23.2806 47.7277 23.2806H44.8188V18.6901H47.7277ZM54.7679 24.1252C54.0764 24.2401 53.5456 24.485 53.1756 24.8601C52.8082 25.2378 52.6219 25.7303 52.6219 26.3452C52.6219 26.9015 52.872 27.3991 53.3747 27.8329C53.8748 28.2667 54.4923 28.4836 55.2246 28.4836C55.5181 28.4836 55.8039 28.4427 56.0795 28.3636C56.3576 28.282 56.5796 28.1927 56.748 28.0906C56.919 27.9885 57.0772 27.8711 57.2226 27.7385C57.3706 27.6058 57.465 27.5139 57.5084 27.4629C57.5492 27.4093 57.5824 27.3685 57.6003 27.3378V28.333H58.6694V23.6608C58.6694 22.8571 58.3939 22.186 57.8452 21.6424C57.2941 21.0989 56.6 20.8285 55.7631 20.8285C55.4339 20.8285 55.1098 20.8769 54.7934 20.9739C54.477 21.0709 54.2218 21.1806 54.0279 21.3056C53.834 21.4307 53.6477 21.571 53.4716 21.7292C53.293 21.8849 53.1807 21.9946 53.1271 22.0584C53.0736 22.1196 53.0327 22.1706 53.0047 22.2115L53.6911 22.8979L53.9233 22.6376C54.0789 22.4513 54.3264 22.2702 54.6684 22.0941C55.0077 21.918 55.3726 21.8287 55.7631 21.8287C56.3015 21.8287 56.7429 21.9997 57.0848 22.3365C57.4293 22.6759 57.6003 23.1173 57.6003 23.6608L54.7679 24.1252ZM55.2246 27.4884C54.7449 27.4884 54.3698 27.3787 54.0993 27.1618C53.8263 26.9474 53.6911 26.6744 53.6911 26.3452C53.6962 25.6512 54.158 25.2174 55.0741 25.0439L57.6003 24.5794V25.0439C57.6003 25.766 57.3783 26.3554 56.9317 26.8071C56.4852 27.2613 55.9162 27.4884 55.2246 27.4884ZM62.7215 29.4022C62.4485 30.1702 61.9866 30.553 61.3385 30.553C61.0833 30.5479 60.8307 30.4968 60.5755 30.3973V31.3976L60.6801 31.4282C60.7567 31.4588 60.869 31.4843 61.0221 31.5099C61.1726 31.5354 61.3308 31.5481 61.4967 31.5481C62.0249 31.5481 62.4612 31.3848 62.8108 31.0582C63.1604 30.7316 63.487 30.1804 63.7907 29.4022L67.1614 20.9841H66.0106L63.6401 26.9576L61.2645 20.9841H60.1137L63.1017 28.333L62.7215 29.4022Z" fill="#FEFEFE"/>
    <path fill-rule="evenodd" clip-rule="evenodd" d="M5.67619 3.90214C12.4864 -1.92836 22.7339 -1.13416 28.5644 5.67614C33.9418 11.957 33.6841 21.1615 28.2691 27.1283L4.1533 27.0763C4.0688 26.9821 3.98489 26.887 3.90209 26.7904C-1.9284 19.9801 -1.13411 9.73263 5.67619 3.90214Z" fill="#FEFEFE"/>
    <path d="M51.0806 7.59922V8.38742V10.0724L50.8121 10.2966C50.6262 10.4648 50.3075 10.63 49.8531 10.7953C49.3957 10.9576 48.894 11.0403 48.3393 11.0403C47.1797 11.0403 46.2118 10.6507 45.4357 9.87462C44.6567 9.09562 44.2671 8.12772 44.2671 6.96812C44.2671 5.81132 44.6567 4.84342 45.4357 4.06452C46.2118 3.28542 47.1797 2.89892 48.3393 2.89892C48.7613 2.89892 49.1714 2.96382 49.5757 3.09072C49.98 3.22052 50.3046 3.36212 50.5525 3.51552C50.8003 3.66902 51.0305 3.84612 51.24 4.04672C51.4495 4.25032 51.5852 4.39202 51.6472 4.47462C51.7063 4.56022 51.7535 4.62222 51.7888 4.66942L53.4738 2.98442L53.2761 2.72482C53.1492 2.55652 52.9397 2.35292 52.6505 2.11102C52.3584 1.86902 52.0249 1.62702 51.6472 1.38512C51.2695 1.14312 50.7856 0.93652 50.1984 0.76542C49.6111 0.59722 48.9915 0.511719 48.3393 0.511719C46.4479 0.511719 44.8544 1.14312 43.5531 2.40612C42.2547 3.66602 41.6055 5.18872 41.6055 6.96812C41.6055 8.75042 42.2547 10.273 43.5531 11.5389C44.8544 12.8019 46.4479 13.4363 48.3393 13.4363C48.9974 13.4363 49.6348 13.3508 50.2544 13.1767C50.8741 13.0026 51.3758 12.8108 51.7594 12.6012C52.1429 12.3918 52.5059 12.1497 52.8482 11.8754C53.1905 11.6009 53.4119 11.4091 53.5122 11.297C53.6154 11.1848 53.6892 11.0992 53.7334 11.0403V7.59922H51.0806Z" fill="#FEFEFE"/>
    <path d="M58.6001 0.857422H56.207V13.2539H58.6001V0.857422Z" fill="#FEFEFE"/>
    <path d="M62.9329 8.83215C62.9329 8.18305 63.1424 7.63705 63.5614 7.19445C63.9833 6.74885 64.4821 6.52755 65.0575 6.52755C65.6358 6.52755 66.1316 6.74885 66.5535 7.19445C66.9755 7.63705 67.185 8.18305 67.185 8.83215C67.185 9.47835 66.9755 10.0243 66.5535 10.464C66.1316 10.9066 65.6358 11.128 65.0575 11.128C64.4821 11.128 63.9833 10.9066 63.5614 10.464C63.1424 10.0243 62.9329 9.47835 62.9329 8.83215ZM69.6578 8.82626C69.6578 7.62226 69.2005 6.56886 68.2857 5.66596C67.3738 4.76586 66.2968 4.31445 65.0575 4.31445C63.8181 4.31445 62.7411 4.76586 61.8263 5.66596C60.9086 6.56886 60.4512 7.62226 60.4512 8.82626C60.4512 10.0303 60.9086 11.0837 61.8263 11.9867C62.7411 12.8896 63.8181 13.3411 65.0575 13.3411C66.2968 13.3411 67.3738 12.8896 68.2857 11.9867C69.2005 11.0837 69.6578 10.0303 69.6578 8.82626Z" fill="#FEFEFE"/>
    <path d="M96.5083 0.857422H94.1152V13.2539H96.5083V0.857422Z" fill="#FEFEFE"/>
    <path d="M73.9973 8.83318C73.9973 8.18408 74.2068 7.63808 74.6258 7.19548C75.0478 6.74988 75.5465 6.52858 76.122 6.52858C76.7002 6.52858 77.1961 6.74988 77.618 7.19548C78.0399 7.63808 78.2495 8.18408 78.2495 8.83318C78.2495 9.47938 78.0399 10.0253 77.618 10.465C77.1961 10.9076 76.7002 11.129 76.122 11.129C75.5465 11.129 75.0478 10.9076 74.6258 10.465C74.2068 10.0253 73.9973 9.47938 73.9973 8.83318ZM73.9179 0.771484H71.5248V8.53588C71.5187 8.63198 71.5156 8.72919 71.5156 8.82728C71.5156 10.0313 71.973 11.0847 72.8907 11.9877C73.8055 12.8906 74.8826 13.3421 76.122 13.3421C77.3613 13.3421 78.4383 12.8906 79.3501 11.9877C80.2649 11.0847 80.7223 10.0313 80.7223 8.82728C80.7223 7.62328 80.2649 6.56989 79.3501 5.66699C78.4383 4.76689 77.3613 4.31548 76.122 4.31548C75.3192 4.31548 74.5845 4.50498 73.9179 4.88298V0.771484Z" fill="#FEFEFE"/>
    <path d="M89.1624 8.83215C89.1624 8.18305 88.9529 7.63705 88.5339 7.19445C88.112 6.74885 87.6132 6.52755 87.0378 6.52755C86.4595 6.52755 85.9637 6.74885 85.5417 7.19445C85.1198 7.63705 84.9102 8.18305 84.9102 8.83215C84.9102 9.47835 85.1198 10.0243 85.5417 10.464C85.9637 10.9066 86.4595 11.128 87.0378 11.128C87.6132 11.128 88.112 10.9066 88.5339 10.464C88.9529 10.0243 89.1624 9.47835 89.1624 8.83215ZM89.251 4.40425H91.6441V8.82626V13.2513H89.251V12.7675C88.582 13.1498 87.8443 13.3411 87.0378 13.3411C85.7985 13.3411 84.7214 12.8896 83.8096 11.9867C82.8948 11.0837 82.4375 10.0303 82.4375 8.82626C82.4375 7.62226 82.8948 6.56886 83.8096 5.66596C84.7214 4.76586 85.7985 4.31445 87.0378 4.31445C87.8443 4.31445 88.582 4.50565 89.251 4.88715V4.40425Z" fill="#FEFEFE"/>
</svg>
