<svg width="110" height="37" viewBox="0 0 110 37" fill="none" xmlns="http://www.w3.org/2000/svg">
    <path d="M49.3223 20.6895V32.853H50.6281V28.3391H53.9288C55.0465 28.3391 55.9787 27.9743 56.7228 27.2417C57.467 26.5092 57.8376 25.6001 57.8376 24.5114C57.8376 23.4227 57.467 22.5136 56.7286 21.784C55.9875 21.0543 55.0522 20.6895 53.9288 20.6895H49.3223ZM53.9288 21.9113C54.7134 21.9113 55.3446 22.1488 55.8195 22.6235C56.2944 23.0984 56.5318 23.7296 56.5318 24.5143C56.5318 25.3019 56.2944 25.9301 55.8195 26.405C55.3446 26.8827 54.7134 27.1201 53.9288 27.1201H50.6281V21.9113H53.9288ZM61.9172 28.0785C61.1326 28.2088 60.5303 28.4867 60.1105 28.9123C59.6936 29.3409 59.4822 29.8998 59.4822 30.5975C59.4822 31.2287 59.766 31.7933 60.3364 32.2856C60.9038 32.7778 61.6045 33.0239 62.4355 33.0239C62.7685 33.0239 63.0928 32.9775 63.4055 32.8877C63.7211 32.7951 63.973 32.6938 64.1641 32.578C64.3581 32.4621 64.5376 32.3289 64.7026 32.1784C64.8705 32.0279 64.9776 31.9236 65.0269 31.8657C65.0732 31.8049 65.1108 31.7586 65.1312 31.7238V32.853H66.3442V27.5515C66.3442 26.6396 66.0316 25.8781 65.409 25.2612C64.7837 24.6445 63.9961 24.3377 63.0465 24.3377C62.6729 24.3377 62.3052 24.3926 61.9462 24.5027C61.5872 24.6128 61.2976 24.7372 61.0776 24.8791C60.8576 25.021 60.6462 25.1802 60.4463 25.3597C60.2437 25.5364 60.1163 25.6609 60.0554 25.7333C59.9947 25.8027 59.9483 25.8606 59.9166 25.907L60.6954 26.6859L60.9589 26.3905C61.1354 26.1791 61.4163 25.9736 61.8043 25.7738C62.1893 25.574 62.6034 25.4726 63.0465 25.4726C63.6574 25.4726 64.1583 25.6667 64.5462 26.0488C64.9371 26.4339 65.1312 26.9348 65.1312 27.5515L61.9172 28.0785ZM62.4355 31.8947C61.8911 31.8947 61.4655 31.7702 61.1586 31.5241C60.8488 31.2808 60.6954 30.971 60.6954 30.5975C60.7012 29.81 61.2252 29.3178 62.2647 29.1209L65.1312 28.5938V29.1209C65.1312 29.9403 64.8792 30.6091 64.3725 31.1216C63.8659 31.637 63.2202 31.8947 62.4355 31.8947ZM70.9421 34.0662C70.6324 34.9377 70.1082 35.372 69.3729 35.372C69.0833 35.3663 68.7967 35.3083 68.5071 35.1954V36.3304L68.6258 36.3651C68.7127 36.3998 68.8401 36.4288 69.0138 36.4578C69.1846 36.4868 69.3641 36.5012 69.5524 36.5012C70.1517 36.5012 70.6468 36.3159 71.0435 35.9453C71.4402 35.5747 71.8107 34.9493 72.1553 34.0662L75.9801 24.5143H74.6743L71.9845 31.2924L69.2889 24.5143H67.9831L71.3736 32.853L70.9421 34.0662Z" fill="white"/>
    <path fill-rule="evenodd" clip-rule="evenodd" d="M6.44073 4.92773C14.1682 -1.6881 25.796 -0.786924 32.4118 6.94068C38.5135 14.0676 38.2211 24.5118 32.0767 31.2823L4.71271 31.2233C4.61683 31.1164 4.52163 31.0085 4.42768 30.8989C-2.18815 23.1713 -1.28686 11.5436 6.44073 4.92773Z" fill="white"/>
    <path d="M57.7318 9.32339V10.2177V12.1297L57.4271 12.3841C57.2162 12.575 56.8546 12.7624 56.339 12.95C55.82 13.1341 55.2507 13.228 54.6213 13.228C53.3055 13.228 52.2072 12.7859 51.3266 11.9053C50.4426 11.0213 50.0006 9.92307 50.0006 8.60728C50.0006 7.29467 50.4426 6.1964 51.3266 5.31259C52.2072 4.42855 53.3055 3.98999 54.6213 3.98999C55.1001 3.98999 55.5654 4.06363 56.0242 4.20762C56.483 4.3549 56.8513 4.51558 57.1326 4.68964C57.4137 4.86381 57.6749 5.06477 57.9127 5.29239C58.1504 5.52341 58.3044 5.6842 58.3747 5.77793C58.4418 5.87505 58.4953 5.94541 58.5354 5.99896L60.4473 4.08701L60.223 3.79244C60.079 3.60147 59.8413 3.37045 59.5132 3.09597C59.1817 2.82137 58.8033 2.54677 58.3747 2.27229C57.9461 1.99769 57.3971 1.76327 56.7308 1.56912C56.0644 1.37827 55.3613 1.28125 54.6213 1.28125C52.4751 1.28125 50.667 1.99769 49.1904 3.43081C47.7171 4.86041 46.9805 6.58821 46.9805 8.60728C46.9805 10.6296 47.7171 12.3573 49.1904 13.7937C50.667 15.2269 52.4751 15.9467 54.6213 15.9467C55.368 15.9467 56.0913 15.8497 56.7943 15.6521C57.4975 15.4546 58.0668 15.237 58.502 14.9991C58.9372 14.7615 59.3491 14.4868 59.7375 14.1756C60.1259 13.8641 60.3771 13.6465 60.4909 13.5193C60.608 13.3919 60.6918 13.2948 60.7419 13.228V9.32339H57.7318Z" fill="white"/>
    <path d="M66.2643 1.67578H63.5488V15.742H66.2643V1.67578Z" fill="white"/>
    <path d="M71.1793 10.7239C71.1793 9.98733 71.417 9.36779 71.8924 8.86557C72.3711 8.35995 72.9371 8.10884 73.59 8.10884C74.2462 8.10884 74.8088 8.35995 75.2875 8.86557C75.7664 9.36779 76.0041 9.98733 76.0041 10.7239C76.0041 11.4571 75.7664 12.0765 75.2875 12.5755C74.8088 13.0777 74.2462 13.3289 73.59 13.3289C72.9371 13.3289 72.3711 13.0777 71.8924 12.5755C71.417 12.0765 71.1793 11.4571 71.1793 10.7239ZM78.81 10.7172C78.81 9.35099 78.2911 8.15571 77.253 7.1312C76.2183 6.10986 74.9962 5.59766 73.59 5.59766C72.1837 5.59766 70.9616 6.10986 69.9236 7.1312C68.8823 8.15571 68.3633 9.35099 68.3633 10.7172C68.3633 12.0833 68.8823 13.2786 69.9236 14.3032C70.9616 15.3278 72.1837 15.8401 73.59 15.8401C74.9962 15.8401 76.2183 15.3278 77.253 14.3032C78.2911 13.2786 78.81 12.0833 78.81 10.7172Z" fill="white"/>
    <path d="M109.282 1.67578H106.566V15.742H109.282V1.67578Z" fill="white"/>
    <path d="M83.7378 10.7237C83.7378 9.98719 83.9756 9.36765 84.451 8.86544C84.9298 8.35982 85.4957 8.10871 86.1487 8.10871C86.8048 8.10871 87.3675 8.35982 87.8462 8.86544C88.3249 9.36765 88.5628 9.98719 88.5628 10.7237C88.5628 11.457 88.3249 12.0764 87.8462 12.5753C87.3675 13.0775 86.8048 13.3288 86.1487 13.3288C85.4957 13.3288 84.9298 13.0775 84.451 12.5753C83.9756 12.0764 83.7378 11.457 83.7378 10.7237ZM83.6478 1.57617H80.9323V10.3864C80.9254 10.4954 80.9219 10.6057 80.9219 10.717C80.9219 12.0832 81.4409 13.2785 82.4822 14.3031C83.5202 15.3276 84.7424 15.8399 86.1487 15.8399C87.5549 15.8399 88.777 15.3276 89.8116 14.3031C90.8496 13.2785 91.3686 12.0832 91.3686 10.717C91.3686 9.35086 90.8496 8.15558 89.8116 7.13106C88.777 6.10973 87.5549 5.59752 86.1487 5.59752C85.2378 5.59752 84.4041 5.81255 83.6478 6.24146V1.57617Z" fill="white"/>
    <path d="M100.943 10.7239C100.943 9.98733 100.705 9.36779 100.23 8.86557C99.7513 8.35995 99.1853 8.10884 98.5324 8.10884C97.8762 8.10884 97.3137 8.35995 96.8348 8.86557C96.3561 9.36779 96.1183 9.98733 96.1183 10.7239C96.1183 11.4571 96.3561 12.0765 96.8348 12.5755C97.3137 13.0777 97.8762 13.3289 98.5324 13.3289C99.1853 13.3289 99.7513 13.0777 100.23 12.5755C100.705 12.0765 100.943 11.4571 100.943 10.7239ZM101.044 5.69955H103.759V10.7172V15.7382H101.044V15.1892C100.285 15.623 99.4476 15.8401 98.5324 15.8401C97.1262 15.8401 95.904 15.3278 94.8694 14.3032C93.8314 13.2786 93.3125 12.0833 93.3125 10.7172C93.3125 9.35099 93.8314 8.15571 94.8694 7.1312C95.904 6.10986 97.1262 5.59766 98.5324 5.59766C99.4476 5.59766 100.285 5.81461 101.044 6.24749V5.69955Z" fill="white"/>
</svg>
