<svg width="60" height="60" viewBox="0 0 60 60" fill="none" xmlns="http://www.w3.org/2000/svg">
    <g clip-path="url(#clip0_1_659)">
        <path fill-rule="evenodd" clip-rule="evenodd" d="M45 60H15C11.0218 59.9998 7.2066 58.4194 4.39359 55.6064C1.58058 52.7934 0.000174035 48.9782 0 45L0 15C0.000174035 11.0218 1.58058 7.2066 4.39359 4.39359C7.2066 1.58058 11.0218 0.000174035 15 0L45 0C48.9782 0 52.7936 1.58035 55.6066 4.3934C58.4196 7.20644 60 11.0218 60 15V45C60 48.9782 58.4196 52.7936 55.6066 55.6066C52.7936 58.4196 48.9782 60 45 60Z" fill="#004A99"/>
        <path fill-rule="evenodd" clip-rule="evenodd" d="M28.125 16.875H45C47.1631 16.8749 49.2435 16.0441 50.8116 14.5541C52.3797 13.0642 53.3158 11.029 53.4265 8.86875C53.5372 6.70852 52.8141 4.58827 51.4064 2.94587C49.9988 1.30347 48.0142 0.264358 45.8625 0.043125C45.5756 0.0271875 45.2916 0 45 0H15C11.0218 0.000174035 7.2066 1.58058 4.39359 4.39359C1.58058 7.2066 0.000174035 11.0218 0 15L0 45C0.000174041 37.5408 2.96339 30.3872 8.23781 25.1128C13.5122 19.8384 20.6658 16.8752 28.125 16.875Z" fill="#0055AF"/>
        <path fill-rule="evenodd" clip-rule="evenodd" d="M45 30C42.0333 30 39.1332 30.8797 36.6665 32.528C34.1997 34.1762 32.2771 36.5189 31.1418 39.2597C30.0065 42.0006 29.7094 45.0166 30.2882 47.9264C30.867 50.8361 32.2956 53.5088 34.3934 55.6066C36.4912 57.7044 39.1639 59.133 42.0737 59.7118C44.9834 60.2906 47.9994 59.9935 50.7403 58.8582C53.4812 57.7229 55.8238 55.8003 57.472 53.3336C59.1203 50.8668 60 47.9667 60 45V15C60 18.9782 58.4197 22.7936 55.6066 25.6066C52.7936 28.4196 48.9783 30 45 30Z" fill="#004084"/>
        <g clip-path="url(#clip1_1_659)">
            <path d="M49.1371 44.7726V44.852H49.2114C49.2254 44.8522 49.2391 44.8487 49.2513 44.8419C49.2561 44.8385 49.26 44.8339 49.2626 44.8286C49.2652 44.8233 49.2665 44.8174 49.2662 44.8115C49.2665 44.8057 49.2652 44.7999 49.2626 44.7948C49.26 44.7896 49.2561 44.7852 49.2513 44.7819C49.2393 44.7747 49.2254 44.7712 49.2114 44.7718H49.1371V44.7726ZM49.2122 44.7164C49.2441 44.7144 49.2756 44.7236 49.3015 44.7422C49.3118 44.7507 49.3201 44.7614 49.3255 44.7736C49.3309 44.7858 49.3334 44.7992 49.3328 44.8125C49.3332 44.824 49.3312 44.8354 49.3269 44.8461C49.3226 44.8567 49.316 44.8663 49.3077 44.8742C49.2877 44.8915 49.2627 44.9019 49.2363 44.9038L49.3359 45.017H49.2592L49.1676 44.9046H49.1379V45.017H49.0738V44.7166H49.2132L49.2122 44.7164ZM49.1923 45.1206C49.226 45.121 49.2593 45.1142 49.2901 45.1008C49.3199 45.088 49.3469 45.0698 49.3698 45.047C49.3928 45.0242 49.4111 44.9972 49.4238 44.9676C49.4499 44.9046 49.4499 44.8339 49.4238 44.771C49.4109 44.7414 49.3926 44.7145 49.3698 44.6916C49.3469 44.6688 49.3199 44.6505 49.2901 44.6378C49.2591 44.6251 49.2258 44.6187 49.1923 44.6191C49.1582 44.6188 49.1244 44.6251 49.0927 44.6378C49.0623 44.6503 49.0346 44.6686 49.0112 44.6916C48.976 44.7276 48.9521 44.7732 48.9427 44.8226C48.9332 44.872 48.9386 44.9231 48.958 44.9695C48.9702 44.9993 48.9883 45.0264 49.0112 45.049C49.0346 45.072 49.0623 45.0902 49.0927 45.1028C49.1242 45.1162 49.1581 45.1229 49.1923 45.1226M49.1923 44.5468C49.2799 44.5467 49.3639 44.581 49.4264 44.6421C49.4565 44.6715 49.4805 44.7065 49.4969 44.7452C49.5139 44.7849 49.5227 44.8276 49.5227 44.8708C49.5227 44.9139 49.5139 44.9567 49.4969 44.9963C49.4801 45.0348 49.4562 45.0697 49.4264 45.0994C49.3958 45.1286 49.3603 45.1521 49.3214 45.1689C49.2806 45.1862 49.2367 45.195 49.1923 45.1947C49.1474 45.195 49.103 45.1862 49.0616 45.1689C49.0223 45.1525 48.9864 45.129 48.9558 45.0994C48.9261 45.0687 48.9025 45.0325 48.8863 44.993C48.8693 44.9533 48.8605 44.9106 48.8605 44.8674C48.8605 44.8242 48.8693 44.7815 48.8863 44.7418C48.9028 44.7031 48.9267 44.6681 48.9568 44.6388C48.987 44.6087 49.023 44.585 49.0626 44.5693C49.104 44.5519 49.1484 44.5431 49.1933 44.5435M18.6879 43.3867C18.6879 42.8139 19.0645 42.3433 19.6798 42.3433C20.2679 42.3433 20.6648 42.7936 20.6648 43.3867C20.6648 43.9798 20.2679 44.4301 19.6798 44.4301C19.0645 44.4301 18.6879 43.9595 18.6879 43.3867ZM21.3351 43.3867V41.7566H20.6241V42.1537C20.3986 41.8602 20.0566 41.6762 19.5914 41.6762C18.675 41.6762 17.9558 42.3925 17.9558 43.3875C17.9558 44.3824 18.6746 45.0988 19.5914 45.0988C20.0564 45.0988 20.3986 44.9145 20.6241 44.6213V45.017H21.3344V43.3867H21.3351ZM45.3593 43.3867C45.3593 42.8139 45.7359 42.3433 46.3515 42.3433C46.9401 42.3433 47.3364 42.7936 47.3364 43.3867C47.3364 43.9798 46.9401 44.4301 46.3515 44.4301C45.7361 44.4301 45.3593 43.9595 45.3593 43.3867ZM48.0074 43.3867V40.4481H47.2957V42.1537C47.0702 41.8602 46.7282 41.6762 46.263 41.6762C45.3466 41.6762 44.6274 42.3925 44.6274 43.3875C44.6274 44.3824 45.3462 45.0988 46.263 45.0988C46.7282 45.0988 47.0702 44.9145 47.2957 44.6213V45.017H48.0074V43.3867ZM30.1597 42.3097C30.6179 42.3097 30.9122 42.5961 30.9873 43.1002H29.2908C29.3667 42.6296 29.6533 42.3097 30.1599 42.3097M30.1741 41.6744C29.2158 41.6744 28.5455 42.3693 28.5455 43.3857C28.5455 44.4219 29.2427 45.097 30.2217 45.097C30.7142 45.097 31.1652 44.9745 31.562 44.6403L31.2136 44.1152C30.9395 44.3336 30.5905 44.4561 30.2623 44.4561C29.8041 44.4561 29.387 44.2446 29.2844 43.6579H31.7123C31.7192 43.5698 31.7264 43.4808 31.7264 43.3855C31.7192 42.3695 31.0889 41.6742 30.1737 41.6742M38.758 43.3855C38.758 42.8127 39.1346 42.3421 39.7499 42.3421C40.338 42.3421 40.7349 42.7924 40.7349 43.3855C40.7349 43.9786 40.338 44.4289 39.7499 44.4289C39.1346 44.4289 38.7578 43.9583 38.7578 43.3855M41.405 43.3855V41.7566H40.6944V42.1537C40.4681 41.8602 40.1269 41.6762 39.6617 41.6762C38.7453 41.6762 38.0261 42.3925 38.0261 43.3875C38.0261 44.3824 38.7449 45.0988 39.6617 45.0988C40.1269 45.0988 40.4681 44.9145 40.6944 44.6213V45.017H41.4052V43.3867L41.405 43.3855ZM34.7428 43.3855C34.7428 44.3741 35.4333 45.0968 36.4871 45.0968C36.9796 45.0968 37.3077 44.9876 37.6625 44.7082L37.3211 44.1354C37.0541 44.3266 36.7738 44.4289 36.4644 44.4289C35.8968 44.4219 35.4795 44.0129 35.4795 43.3855C35.4795 42.7581 35.8968 42.3493 36.4644 42.3421C36.773 42.3421 37.0533 42.4444 37.3211 42.6356L37.6625 42.0627C37.3071 41.7834 36.979 41.6742 36.4871 41.6742C35.4333 41.6742 34.7428 42.3967 34.7428 43.3855ZM43.9088 41.6742C43.4986 41.6742 43.2315 41.8654 43.0468 42.1517V41.7566H42.3422V45.0152H43.054V43.1885C43.054 42.6493 43.2865 42.3497 43.7512 42.3497C43.9034 42.3475 44.0546 42.3753 44.1959 42.4317L44.415 41.7637C44.2577 41.702 44.0525 41.6748 43.9084 41.6748M24.8504 42.0157C24.5083 41.7909 24.037 41.6748 23.517 41.6748C22.6886 41.6748 22.1553 42.0705 22.1553 42.718C22.1553 43.2493 22.5524 43.5771 23.2835 43.6794L23.6194 43.727C24.0093 43.7816 24.1933 43.8839 24.1933 44.0679C24.1933 44.3199 23.9344 44.4636 23.4481 44.4636C22.9556 44.4636 22.6002 44.3068 22.3605 44.1227L22.0264 44.6753C22.4163 44.9616 22.9088 45.0982 23.4421 45.0982C24.3864 45.0982 24.9336 44.655 24.9336 44.0346C24.9336 43.4617 24.5029 43.1621 23.7913 43.0599L23.4562 43.0114C23.1484 42.9717 22.9018 42.91 22.9018 42.6916C22.9018 42.4533 23.1343 42.3099 23.5244 42.3099C23.9417 42.3099 24.3457 42.4668 24.5438 42.5893L24.8516 42.0165L24.8504 42.0157ZM34.0246 41.6754C33.6144 41.6754 33.3472 41.8666 33.1634 42.1529V41.7566H32.4587V45.0152H33.1697V43.1885C33.1697 42.6493 33.4022 42.3497 33.867 42.3497C34.0192 42.3475 34.1703 42.3753 34.3117 42.4317L34.5308 41.7637C34.3734 41.702 34.1682 41.6748 34.0242 41.6748M27.9572 41.7566H26.7945V40.768H26.0758V41.7566H25.4126V42.4043H26.0758V43.8908C26.0758 44.6469 26.3702 45.0972 27.2113 45.0972C27.5199 45.0972 27.8753 45.0019 28.1008 44.8453L27.8954 44.2385C27.6833 44.361 27.4508 44.4227 27.2659 44.4227C26.9105 44.4227 26.7945 44.2043 26.7945 43.8773V42.4048H27.9572V41.7566ZM17.3271 45.016V42.9709C17.3271 42.2007 16.8346 41.6825 16.0407 41.6756C15.6233 41.6686 15.1928 41.7981 14.8914 42.2553C14.6659 41.894 14.3105 41.6756 13.8109 41.6756C13.4616 41.6756 13.1204 41.7778 12.8532 42.1594V41.7566H12.1416V45.0152H12.8588V43.2084C12.8588 42.6427 13.1736 42.3421 13.6596 42.3421C14.1318 42.3421 14.3707 42.6489 14.3707 43.2012V45.0148H15.0894V43.208C15.0894 42.6423 15.4176 42.3417 15.8895 42.3417C16.375 42.3417 16.6067 42.6485 16.6067 43.2008V45.0144L17.3271 45.016Z" fill="white"/>
            <path d="M49.5408 34.1763V33.6998H49.4165L49.2727 34.0268L49.1297 33.6998H49.005V34.1763H49.0933V33.8173L49.2277 34.1271H49.3192L49.4537 33.8165V34.1763H49.5412H49.5408ZM48.7523 34.1763V33.7814H48.9114V33.701H48.5049V33.7814H48.664V34.1763H48.7515H48.7523Z" fill="#F79410"/>
            <path d="M35.3902 36.2199H24.6152V16.9207H35.3904L35.3902 36.2199Z" fill="#FF5F00"/>
            <path d="M25.2984 26.5708C25.2984 22.6559 27.1376 19.1686 30.0016 16.9211C27.8337 15.2175 25.1524 14.2928 22.3916 14.2969C15.5909 14.2969 10.0781 19.792 10.0781 26.5708C10.0781 33.3495 15.5909 38.8446 22.3916 38.8446C25.1525 38.8488 27.8339 37.9241 30.0018 36.2204C27.138 33.9734 25.2984 30.4858 25.2984 26.5708Z" fill="#EB001B"/>
            <path d="M49.9266 26.5708C49.9266 33.3495 44.4138 38.8446 37.6131 38.8446C34.852 38.8487 32.1703 37.9241 30.002 36.2204C32.8667 33.973 34.7059 30.4858 34.7059 26.5708C34.7059 22.6557 32.8667 19.1686 30.002 16.9211C32.1702 15.2175 34.8519 14.2929 37.6129 14.2969C44.4136 14.2969 49.9264 19.792 49.9264 26.5708" fill="#F79E1B"/>
        </g>
    </g>
    <defs>
        <clipPath id="clip0_1_659">
            <rect width="60" height="60" fill="white"/>
        </clipPath>
        <clipPath id="clip1_1_659">
            <rect width="39.8438" height="30.8947" fill="white" transform="translate(10.0781 14.2969)"/>
        </clipPath>
    </defs>
</svg>
