<svg width="108" height="33" viewBox="0 0 108 33" fill="none" xmlns="http://www.w3.org/2000/svg">
    <path fill-rule="evenodd" clip-rule="evenodd" d="M16.2488 0C25.2227 0 32.4976 7.2749 32.4976 16.2488C32.4976 24.5252 26.3097 31.3563 18.308 32.3682L0.0047998 16.6297C0.0018998 16.503 0 16.3762 0 16.2488C0 7.2749 7.2748 0 16.2488 0Z" fill="#18406D"/>
    <path d="M50.3762 27.7193C50.3762 28.3205 50.1621 28.8054 49.7338 29.1743C49.3055 29.5459 48.6916 29.7317 47.8969 29.7317C47.5279 29.7317 47.1693 29.6826 46.8237 29.5846C46.4753 29.484 46.1993 29.3783 45.9955 29.2647C45.7917 29.1537 45.6007 29.0196 45.4253 28.8648C45.2474 28.7125 45.1338 28.6043 45.0796 28.5397C45.028 28.4778 44.9919 28.4314 44.9713 28.4005L44.2617 29.1872L44.4036 29.3602C44.4836 29.4711 44.6281 29.6078 44.8345 29.7678C45.0409 29.9303 45.2783 30.0877 45.5465 30.2399C45.8123 30.3947 46.1554 30.5289 46.5734 30.6424C46.9913 30.7559 47.4325 30.8127 47.8969 30.8127C49.0346 30.8127 49.9272 30.5262 50.5722 29.9535C51.2173 29.3808 51.5398 28.6377 51.5398 27.7193C51.5398 27.1904 51.4314 26.7389 51.2147 26.3622C50.998 25.9881 50.7141 25.6966 50.3685 25.4902C50.0202 25.2839 49.6384 25.1084 49.223 24.9639C48.8076 24.8221 48.3896 24.6904 47.9718 24.5718C47.5538 24.4531 47.1693 24.3215 46.8237 24.1744C46.4753 24.03 46.1941 23.8262 45.9774 23.563C45.7607 23.2998 45.6523 22.9826 45.6523 22.611C45.6523 22.0976 45.8613 21.659 46.2819 21.2952C46.7024 20.9315 47.2699 20.7509 47.9795 20.7509C48.2761 20.7509 48.5651 20.7896 48.8437 20.8695C49.1249 20.947 49.3495 21.0347 49.5171 21.1327C49.6873 21.2308 49.8473 21.3417 49.997 21.4655C50.1492 21.5893 50.2446 21.6745 50.2833 21.7235C50.3246 21.7699 50.3556 21.8087 50.3762 21.8396L51.1528 21.0605L51.0263 20.9109C50.9438 20.8153 50.8122 20.6992 50.6239 20.5651C50.4382 20.4335 50.2266 20.2993 49.9893 20.1652C49.7519 20.0311 49.4577 19.915 49.1017 19.817C48.7457 19.7189 48.3717 19.6699 47.9795 19.6699C46.9371 19.6699 46.0935 19.9562 45.4537 20.529C44.8139 21.0991 44.4939 21.7931 44.4939 22.611C44.4939 23.1347 44.6024 23.5863 44.819 23.9629C45.0357 24.3422 45.317 24.6337 45.6627 24.8401C46.0083 25.0465 46.3902 25.2219 46.8081 25.3664C47.2261 25.5083 47.644 25.6399 48.062 25.7585C48.4799 25.8772 48.8618 26.0088 49.2074 26.1559C49.5533 26.3028 49.8344 26.5068 50.0512 26.7673C50.2679 27.0305 50.3762 27.3477 50.3762 27.7193ZM59.4318 26.9453C59.4318 27.7503 59.1661 28.4262 58.6346 28.9782C58.1032 29.5304 57.4659 29.8065 56.7203 29.8065C55.9772 29.8065 55.34 29.5279 54.8085 28.9705C54.2771 28.4133 54.0113 27.7374 54.0113 26.9428C54.0113 26.1404 54.2771 25.4644 54.8085 24.9123C55.34 24.3603 55.9772 24.0842 56.7203 24.0842C57.4659 24.0842 58.1032 24.3603 58.6346 24.9123C59.1661 25.4644 59.4318 26.1429 59.4318 26.9453ZM52.9304 26.9453C52.9304 28.0315 53.2993 28.9473 54.0372 29.693C54.7776 30.4386 55.6729 30.8127 56.7255 30.8127C57.7781 30.8127 58.6732 30.4386 59.4086 29.693C60.1439 28.9473 60.5129 28.0315 60.5129 26.9453C60.5129 25.8591 60.1439 24.9432 59.4086 24.1951C58.6732 23.4469 57.7781 23.0728 56.7255 23.0728C55.6729 23.0728 54.7776 23.4469 54.0372 24.1951C53.2993 24.9432 52.9304 25.8591 52.9304 26.9453ZM63.6036 19.8221H62.5225V30.6604H63.6036V19.8221ZM71.5704 30.6604H72.6591V23.2302H71.5704V27.3349C71.5704 28.0546 71.3537 28.6481 70.9203 29.1099C70.4868 29.5742 69.9554 29.8065 69.3258 29.8065C68.7402 29.8065 68.2474 29.5949 67.8424 29.1718C67.44 28.7487 67.2387 28.2121 67.2387 27.5619V23.2302H66.1577V27.5619C66.1577 28.5243 66.4441 29.306 67.0168 29.9071C67.587 30.5108 68.3068 30.8127 69.1737 30.8127C69.4704 30.8127 69.7593 30.7714 70.0406 30.6914C70.3192 30.6089 70.5435 30.5185 70.7164 30.4153C70.8867 30.3121 71.0467 30.1935 71.1963 30.0593C71.3433 29.9251 71.4388 29.8322 71.4802 29.7807C71.5188 29.7265 71.5498 29.6852 71.5704 29.6542V30.6604ZM75.9098 22.4587C75.9098 22.9747 75.7034 23.2302 75.288 23.2302H74.4341V24.2363H75.8324V28.6506C75.8324 29.3395 76.013 29.8735 76.3742 30.2477C76.7354 30.6243 77.2334 30.8127 77.8732 30.8127C78.2679 30.8179 78.6188 30.7404 78.9258 30.5856V29.5794L78.7891 29.6388C78.7039 29.6697 78.5774 29.7059 78.415 29.7471C78.2498 29.7859 78.0847 29.8065 77.9196 29.8065C77.2488 29.8116 76.9135 29.4246 76.9135 28.6506V24.2363H78.5388V23.2302H76.9135V20.7509H75.9098V22.4587ZM80.7833 30.6604H81.8644V23.2302H80.7833V30.6604ZM80.626 20.7509C80.626 20.947 80.6931 21.112 80.8247 21.2462C80.9588 21.3804 81.124 21.4475 81.3199 21.4475C81.516 21.4475 81.6812 21.3804 81.8153 21.2462C81.9495 21.112 82.0166 20.947 82.0166 20.7509C82.0166 20.5548 81.9495 20.3897 81.8153 20.2555C81.6812 20.124 81.516 20.0569 81.3199 20.0569C81.124 20.0569 80.9588 20.124 80.8247 20.2555C80.6931 20.3897 80.626 20.5548 80.626 20.7509ZM90.3008 26.9453C90.3008 27.7503 90.0351 28.4262 89.5036 28.9782C88.9721 29.5304 88.3348 29.8065 87.5893 29.8065C86.8462 29.8065 86.2089 29.5279 85.6775 28.9705C85.1461 28.4133 84.8803 27.7374 84.8803 26.9428C84.8803 26.1404 85.1461 25.4644 85.6775 24.9123C86.2089 24.3603 86.8462 24.0842 87.5893 24.0842C88.3348 24.0842 88.9721 24.3603 89.5036 24.9123C90.0351 25.4644 90.3008 26.1429 90.3008 26.9453ZM83.7994 26.9453C83.7994 28.0315 84.1683 28.9473 84.9062 29.693C85.6466 30.4386 86.5419 30.8127 87.5945 30.8127C88.647 30.8127 89.5422 30.4386 90.2776 29.693C91.0129 28.9473 91.3818 28.0315 91.3818 26.9453C91.3818 25.8591 91.0129 24.9432 90.2776 24.1951C89.5422 23.4469 88.647 23.0728 87.5945 23.0728C86.5419 23.0728 85.6466 23.4469 84.9062 24.1951C84.1683 24.9432 83.7994 25.8591 83.7994 26.9453ZM94.3977 23.2302H93.3167V30.6604H94.3977V26.5558C94.3977 25.836 94.6196 25.2425 95.0633 24.7807C95.5071 24.3163 96.0592 24.0842 96.7197 24.0842C97.3079 24.0842 97.7904 24.2828 98.167 24.6775C98.5412 25.0722 98.7294 25.5961 98.7294 26.2461V30.6604H99.8181V26.2461C99.8181 25.289 99.537 24.5202 98.9797 23.9423C98.4199 23.3617 97.6897 23.0728 96.7945 23.0728C96.4977 23.0728 96.2088 23.1166 95.9277 23.2044C95.6489 23.2921 95.4246 23.3902 95.2569 23.4984C95.0866 23.6069 94.9266 23.7333 94.777 23.8804C94.6248 24.0273 94.5293 24.128 94.4881 24.1822C94.4493 24.239 94.4183 24.2803 94.3977 24.3112V23.2302ZM106.779 24.0842L106.665 23.9706C106.606 23.9114 106.505 23.8287 106.369 23.7255C106.229 23.6224 106.072 23.5217 105.897 23.4237C105.719 23.3256 105.494 23.2431 105.218 23.1735C104.945 23.1064 104.663 23.0728 104.377 23.0728C103.665 23.0728 103.074 23.2818 102.605 23.6997C102.132 24.1177 101.898 24.6052 101.898 25.1651C101.898 25.6399 102.037 26.0269 102.316 26.3261C102.597 26.6254 102.932 26.8448 103.327 26.984C103.719 27.1207 104.111 27.2472 104.501 27.3606C104.89 27.4742 105.226 27.629 105.507 27.8225C105.786 28.016 105.925 28.2663 105.925 28.5733C105.925 28.9319 105.786 29.226 105.507 29.4582C105.226 29.6903 104.826 29.8065 104.3 29.8065C104.075 29.8065 103.851 29.7678 103.629 29.693C103.407 29.6182 103.224 29.5304 103.084 29.4323C102.943 29.3343 102.811 29.2234 102.687 29.0995C102.563 28.9757 102.483 28.8906 102.45 28.8415C102.414 28.7952 102.385 28.7564 102.365 28.7254L101.588 29.4969L101.686 29.6413C101.756 29.7317 101.867 29.8401 102.014 29.9691C102.163 30.0981 102.339 30.2244 102.54 30.3509C102.741 30.4772 102.997 30.5856 103.306 30.676C103.616 30.7662 103.949 30.8127 104.3 30.8127C105.128 30.8127 105.786 30.5985 106.273 30.1729C106.763 29.7471 107.006 29.2131 107.006 28.5733C107.006 28.0856 106.869 27.6832 106.591 27.3685C106.315 27.0537 105.979 26.8267 105.587 26.6873C105.192 26.5506 104.8 26.4268 104.405 26.3184C104.013 26.21 103.678 26.0656 103.402 25.8824C103.123 25.7018 102.986 25.4619 102.986 25.1651C102.986 24.8788 103.115 24.626 103.371 24.4093C103.629 24.1925 103.964 24.0842 104.377 24.0842C104.699 24.0842 105.001 24.1563 105.283 24.3009C105.566 24.4428 105.747 24.5562 105.824 24.6414C105.902 24.724 105.961 24.7962 106.002 24.8555L106.779 24.0842Z" fill="#18406D"/>
    <path d="M74.9271 10.9633C74.9271 10.307 75.1389 9.755 75.5626 9.3075C75.9892 8.857 76.4934 8.6332 77.0752 8.6332C77.6599 8.6332 78.1612 8.857 78.5878 9.3075C79.0144 9.755 79.2263 10.307 79.2263 10.9633C79.2263 11.6167 79.0144 12.1686 78.5878 12.6131C78.1612 13.0606 77.6599 13.2844 77.0752 13.2844C76.4934 13.2844 75.9892 13.0606 75.5626 12.6131C75.1389 12.1686 74.9271 11.6167 74.9271 10.9633ZM74.8469 2.8125H72.4273V10.6627C72.4212 10.7599 72.418 10.8581 72.418 10.9573C72.418 12.1746 72.8805 13.2397 73.8083 14.1526C74.7332 15.0655 75.8221 15.522 77.0752 15.522C78.3282 15.522 79.4172 15.0655 80.3391 14.1526C81.264 13.2397 81.7264 12.1746 81.7264 10.9573C81.7264 9.7401 81.264 8.675 80.3391 7.7621C79.4172 6.8521 78.3282 6.3956 77.0752 6.3956C76.2636 6.3956 75.5208 6.5872 74.8469 6.9694V2.8125Z" fill="#18406D"/>
    <path d="M51.7557 9.71668V10.5136V12.2172L51.4842 12.4439C51.2963 12.6139 50.9741 12.781 50.5146 12.9481C50.0522 13.1122 49.545 13.1958 48.9841 13.1958C47.8116 13.1958 46.8331 12.8019 46.0484 12.0173C45.2608 11.2296 44.8669 10.251 44.8669 9.07848C44.8669 7.90898 45.2608 6.93048 46.0484 6.14288C46.8331 5.35518 47.8116 4.96438 48.9841 4.96438C49.4107 4.96438 49.8254 5.02998 50.2342 5.15828C50.6429 5.28958 50.9711 5.43278 51.2217 5.58788C51.4723 5.74308 51.705 5.92198 51.9168 6.12488C52.1287 6.33078 52.2659 6.47398 52.3286 6.55758C52.3883 6.64408 52.436 6.70668 52.4717 6.75448L54.1753 5.05088L53.9754 4.78838C53.8471 4.61828 53.6353 4.41238 53.343 4.16778C53.0475 3.92318 52.7104 3.67848 52.3286 3.43388C51.9467 3.18918 51.4574 2.98039 50.8637 2.80729C50.2699 2.63719 49.6435 2.55078 48.9841 2.55078C47.0717 2.55078 45.4606 3.18918 44.145 4.46608C42.8322 5.73998 42.1758 7.27948 42.1758 9.07848C42.1758 10.8805 42.8322 12.42 44.145 13.6999C45.4606 14.9769 47.0717 15.6183 48.9841 15.6183C49.6494 15.6183 50.2939 15.5318 50.9203 15.3558C51.5469 15.1798 52.0541 14.9858 52.442 14.774C52.8298 14.5622 53.1967 14.3175 53.5428 14.0401C53.8889 13.7626 54.1127 13.5687 54.2141 13.4553C54.3185 13.3419 54.3931 13.2554 54.4378 13.1958V9.71668H51.7557Z" fill="#18406D"/>
    <path d="M59.3591 2.90039H56.9395V15.4339H59.3591V2.90039Z" fill="#18406D"/>
    <path d="M63.7396 10.9622C63.7396 10.3059 63.9514 9.75393 64.375 9.30643C64.8017 8.85593 65.3059 8.63213 65.8877 8.63213C66.4724 8.63213 66.9737 8.85593 67.4003 9.30643C67.8269 9.75393 68.0388 10.3059 68.0388 10.9622C68.0388 11.6156 67.8269 12.1675 67.4003 12.612C66.9737 13.0595 66.4724 13.2833 65.8877 13.2833C65.3059 13.2833 64.8017 13.0595 64.375 12.612C63.9514 12.1675 63.7396 11.6156 63.7396 10.9622ZM70.5389 10.9562C70.5389 9.73903 70.0765 8.67393 69.1515 7.76103C68.2296 6.85103 67.1407 6.39453 65.8877 6.39453C64.6346 6.39453 63.5457 6.85103 62.6208 7.76103C61.6929 8.67393 61.2305 9.73903 61.2305 10.9562C61.2305 12.1735 61.6929 13.2386 62.6208 14.1515C63.5457 15.0644 64.6346 15.5209 65.8877 15.5209C67.1407 15.5209 68.2296 15.0644 69.1515 14.1515C70.0765 13.2386 70.5389 12.1735 70.5389 10.9562Z" fill="#18406D"/>
    <path d="M97.6872 2.90039H95.2676V15.4339H97.6872V2.90039Z" fill="#18406D"/>
    <path d="M90.2583 10.9622C90.2583 10.3059 90.0465 9.75393 89.6228 9.30643C89.1962 8.85593 88.692 8.63213 88.1102 8.63213C87.5255 8.63213 87.0242 8.85593 86.5976 9.30643C86.171 9.75393 85.9591 10.3059 85.9591 10.9622C85.9591 11.6156 86.171 12.1675 86.5976 12.612C87.0242 13.0595 87.5255 13.2833 88.1102 13.2833C88.692 13.2833 89.1962 13.0595 89.6228 12.612C90.0465 12.1675 90.2583 11.6156 90.2583 10.9622ZM90.3478 6.48533H92.7674V10.9562V15.4302H90.3478V14.941C89.6715 15.3275 88.9256 15.5209 88.1102 15.5209C86.8572 15.5209 85.7682 15.0644 84.8463 14.1515C83.9214 13.2386 83.459 12.1735 83.459 10.9562C83.459 9.73903 83.9214 8.67393 84.8463 7.76103C85.7682 6.85103 86.8572 6.39453 88.1102 6.39453C88.9256 6.39453 89.6715 6.58783 90.3478 6.97363V6.48533Z" fill="#18406D"/>
</svg>
