<svg width="235" height="180" viewBox="0 0 235 180" fill="none" xmlns="http://www.w3.org/2000/svg">
    <path d="M133.666 141.271H101.041V178.585H133.666V141.271Z" fill="#244E8E"/>
    <path d="M133.666 141.271H101.041V154.886H133.666V141.271Z" fill="#183969"/>
    <path d="M176.037 175.217H58.6846V180H176.037V175.217Z" fill="#265396"/>
    <path d="M230.422 0H4.28329C1.91769 0 0 1.9177 0 4.28329V144.983C0 147.349 1.91769 149.267 4.28329 149.267H230.422C232.788 149.267 234.706 147.349 234.706 144.983V4.28329C234.706 1.9177 232.788 0 230.422 0Z" fill="#265396"/>
    <path d="M230.25 137.8V5.77613C230.25 4.78327 229.445 3.97839 228.452 3.97839L6.26813 3.97839C5.27527 3.97839 4.47038 4.78327 4.47038 5.77613V137.8C4.47038 138.793 5.27527 139.598 6.26813 139.598H228.452C229.445 139.598 230.25 138.793 230.25 137.8Z" fill="#CEE3FF"/>
    <path d="M17.9307 121.371L141.497 121.371C143.447 121.371 145.028 119.449 145.028 117.077V16.6376C145.028 14.2657 143.447 12.3429 141.497 12.3429L17.9307 12.3429C15.9806 12.3429 14.3998 14.2657 14.3998 16.6376V117.077C14.3998 119.449 15.9806 121.371 17.9307 121.371Z" fill="#F4AF64"/>
    <path d="M46.7998 12.3429H155.76C156.888 12.3633 157.962 12.8352 158.746 13.6548C159.53 14.4745 159.96 15.575 159.942 16.7149V116.999C159.96 118.139 159.53 119.24 158.746 120.06C157.962 120.879 156.888 121.351 155.76 121.371H46.7998V12.3429Z" fill="white"/>
    <path d="M14.3999 18.5143V14.3635C14.3917 13.9029 14.4853 13.4452 14.6754 13.0168C14.8655 12.5884 15.1484 12.1976 15.508 11.8667C15.8675 11.5357 16.2966 11.2712 16.7708 11.0882C17.245 10.9052 17.755 10.8073 18.2717 10.8H156.07C156.587 10.8073 157.097 10.9052 157.571 11.0882C158.045 11.2712 158.474 11.5357 158.834 11.8667C159.193 12.1976 159.476 12.5884 159.666 13.0168C159.856 13.4452 159.95 13.9029 159.942 14.3635V18.5143H14.3999Z" fill="#3C597D"/>
    <path d="M30.5908 14.8117C30.5893 15.1429 30.6861 15.467 30.8689 15.7431C31.0518 16.0192 31.3125 16.2348 31.618 16.3626C31.9235 16.4904 32.26 16.5247 32.585 16.461C32.91 16.3974 33.2088 16.2387 33.4435 16.0051C33.6782 15.7714 33.8383 15.4734 33.9034 15.1487C33.9686 14.8241 33.936 14.4873 33.8096 14.1812C33.6832 13.8751 33.4688 13.6134 33.1936 13.4293C32.9184 13.2452 32.5947 13.1469 32.2635 13.1469C31.8212 13.1468 31.397 13.322 31.0835 13.634C30.77 13.946 30.5929 14.3694 30.5908 14.8117Z" fill="#E0ECFC"/>
    <path d="M25.5811 14.8117C25.5795 15.1429 25.6763 15.467 25.8592 15.7431C26.042 16.0192 26.3027 16.2348 26.6082 16.3626C26.9137 16.4904 27.2503 16.5247 27.5753 16.461C27.9002 16.3974 28.199 16.2387 28.4337 16.0051C28.6684 15.7714 28.8285 15.4734 28.8937 15.1487C28.9589 14.8241 28.9262 14.4873 28.7998 14.1812C28.6735 13.8751 28.4591 13.6134 28.1838 13.4293C27.9086 13.2452 27.5849 13.1469 27.2537 13.1469C26.8115 13.1468 26.3872 13.322 26.0737 13.634C25.7603 13.946 25.5831 14.3694 25.5811 14.8117Z" fill="#E0ECFC"/>
    <path d="M20.5713 14.8117C20.5698 15.1429 20.6665 15.467 20.8494 15.7431C21.0323 16.0192 21.2929 16.2348 21.5984 16.3626C21.9039 16.4904 22.2405 16.5247 22.5655 16.461C22.8905 16.3974 23.1892 16.2387 23.424 16.0051C23.6587 15.7714 23.8187 15.4734 23.8839 15.1487C23.9491 14.8241 23.9164 14.4873 23.7901 14.1812C23.6637 13.8751 23.4493 13.6134 23.1741 13.4293C22.8988 13.2452 22.5751 13.1469 22.244 13.1469C21.8017 13.1468 21.3774 13.322 21.064 13.634C20.7505 13.946 20.5734 14.3694 20.5713 14.8117Z" fill="#E0ECFC"/>
    <path d="M41.6656 27.7715H19.5351C19.2645 27.7715 19.0049 27.6631 18.8135 27.4702C18.6222 27.2773 18.5146 27.0157 18.5146 26.7429C18.5146 26.4701 18.6222 26.2085 18.8135 26.0156C19.0049 25.8227 19.2645 25.7144 19.5351 25.7144H41.6656C41.7996 25.7144 41.9323 25.741 42.0561 25.7926C42.1799 25.8443 42.2924 25.9201 42.3872 26.0156C42.4819 26.1111 42.5571 26.2245 42.6084 26.3493C42.6597 26.4741 42.6861 26.6079 42.6861 26.7429C42.6861 26.878 42.6597 27.0118 42.6084 27.1365C42.5571 27.2613 42.4819 27.3747 42.3872 27.4702C42.2924 27.5657 42.1799 27.6415 42.0561 27.6932C41.9323 27.7449 41.7996 27.7715 41.6656 27.7715Z" fill="white"/>
    <path d="M41.6656 31.8857H19.5351C19.2645 31.8857 19.0049 31.7773 18.8135 31.5844C18.6222 31.3915 18.5146 31.1299 18.5146 30.8571C18.5146 30.5843 18.6222 30.3227 18.8135 30.1298C19.0049 29.9369 19.2645 29.8286 19.5351 29.8286H41.6656C41.7996 29.8286 41.9323 29.8552 42.0561 29.9068C42.1799 29.9585 42.2924 30.0343 42.3872 30.1298C42.4819 30.2253 42.5571 30.3387 42.6084 30.4635C42.6597 30.5883 42.6861 30.7221 42.6861 30.8571C42.6861 30.9922 42.6597 31.126 42.6084 31.2507C42.5571 31.3755 42.4819 31.4889 42.3872 31.5844C42.2924 31.6799 42.1799 31.7557 42.0561 31.8074C41.9323 31.8591 41.7996 31.8857 41.6656 31.8857Z" fill="white"/>
    <path d="M41.6656 35.9998H19.5351C19.2645 35.9998 19.0049 35.8915 18.8135 35.6986C18.6222 35.5057 18.5146 35.2441 18.5146 34.9713C18.5146 34.6985 18.6222 34.4368 18.8135 34.2439C19.0049 34.0511 19.2645 33.9427 19.5351 33.9427H41.6656C41.7996 33.9427 41.9323 33.9693 42.0561 34.021C42.1799 34.0727 42.2924 34.1484 42.3872 34.2439C42.4819 34.3395 42.5571 34.4528 42.6084 34.5776C42.6597 34.7024 42.6861 34.8362 42.6861 34.9713C42.6861 35.1063 42.6597 35.2401 42.6084 35.3649C42.5571 35.4897 42.4819 35.6031 42.3872 35.6986C42.2924 35.7941 42.1799 35.8698 42.0561 35.9215C41.9323 35.9732 41.7996 35.9998 41.6656 35.9998Z" fill="white"/>
    <path d="M41.6656 40.1145H19.5351C19.2645 40.1145 19.0049 40.0061 18.8135 39.8132C18.6222 39.6203 18.5146 39.3587 18.5146 39.0859C18.5146 38.8131 18.6222 38.5515 18.8135 38.3586C19.0049 38.1657 19.2645 38.0573 19.5351 38.0573H41.6656C41.7996 38.0573 41.9323 38.0839 42.0561 38.1356C42.1799 38.1873 42.2924 38.2631 42.3872 38.3586C42.4819 38.4541 42.5571 38.5675 42.6084 38.6923C42.6597 38.8171 42.6861 38.9508 42.6861 39.0859C42.6861 39.221 42.6597 39.3547 42.6084 39.4795C42.5571 39.6043 42.4819 39.7177 42.3872 39.8132C42.2924 39.9087 42.1799 39.9845 42.0561 40.0362C41.9323 40.0879 41.7996 40.1145 41.6656 40.1145Z" fill="white"/>
    <path d="M36.2473 44.2286H19.2963C19.089 44.2286 18.8902 44.1202 18.7436 43.9273C18.597 43.7344 18.5146 43.4728 18.5146 43.2C18.5146 42.9272 18.597 42.6656 18.7436 42.4727C18.8902 42.2798 19.089 42.1714 19.2963 42.1714H36.2473C36.3499 42.1714 36.4516 42.198 36.5464 42.2497C36.6412 42.3014 36.7274 42.3772 36.8 42.4727C36.8726 42.5682 36.9302 42.6816 36.9694 42.8064C37.0087 42.9312 37.0289 43.065 37.0289 43.2C37.0289 43.3351 37.0087 43.4688 36.9694 43.5936C36.9302 43.7184 36.8726 43.8318 36.8 43.9273C36.7274 44.0228 36.6412 44.0986 36.5464 44.1503C36.4516 44.202 36.3499 44.2286 36.2473 44.2286Z" fill="white"/>
    <path d="M221.728 25.7144C222.833 25.7144 223.728 26.6098 223.728 27.7144V103.877L221.054 102.624L218.039 103.877L216.812 102.694L213.057 103.877L210.513 103.127L206.044 103.877L201.909 103.127L197.184 103.877L194.035 102.694L189.673 103.877L186.159 103.127L182.161 103.877L177.919 103.127L175.134 103.877L172.104 103.127L168.686 103.877V27.7144C168.686 26.6098 169.581 25.7144 170.686 25.7144H221.728Z" fill="white"/>
    <path d="M213.912 37.1634H177.11C176.941 37.163 176.779 37.0957 176.66 36.9764C176.54 36.857 176.473 36.6953 176.473 36.5266C176.473 36.3577 176.54 36.1957 176.659 36.0762C176.779 35.9568 176.941 35.8897 177.11 35.8897H213.912C214.081 35.8897 214.243 35.9568 214.362 36.0762C214.481 36.1957 214.549 36.3577 214.549 36.5266C214.548 36.6953 214.481 36.857 214.362 36.9764C214.242 37.0957 214.08 37.163 213.912 37.1634Z" fill="#699FF0"/>
    <path d="M213.912 42.5278H177.11C176.941 42.5278 176.779 42.461 176.66 42.3419C176.54 42.2229 176.473 42.0613 176.473 41.8927C176.473 41.7238 176.54 41.5618 176.659 41.4424C176.779 41.323 176.941 41.2559 177.11 41.2559H213.912C214.081 41.2559 214.243 41.323 214.362 41.4424C214.481 41.5618 214.549 41.7238 214.549 41.8927C214.548 42.0613 214.481 42.2229 214.361 42.3419C214.242 42.461 214.08 42.5278 213.912 42.5278Z" fill="#699FF0"/>
    <path d="M206.467 46.6253H184.554C184.281 46.6253 184.06 46.8465 184.06 47.1195V47.4049C184.06 47.6778 184.281 47.899 184.554 47.899H206.467C206.74 47.899 206.961 47.6778 206.961 47.4049V47.1195C206.961 46.8465 206.74 46.6253 206.467 46.6253Z" fill="#699FF0"/>
    <path d="M206.467 51.9932H184.554C184.281 51.9932 184.06 52.2145 184.06 52.4874V52.7728C184.06 53.0457 184.281 53.2669 184.554 53.2669H206.467C206.74 53.2669 206.961 53.0457 206.961 52.7728V52.4874C206.961 52.2145 206.74 51.9932 206.467 51.9932Z" fill="#699FF0"/>
    <path d="M206.467 57.3627H184.554C184.281 57.3627 184.06 57.5839 184.06 57.8568V58.1422C184.06 58.4152 184.281 58.6364 184.554 58.6364H206.467C206.74 58.6364 206.961 58.4152 206.961 58.1422V57.8568C206.961 57.5839 206.74 57.3627 206.467 57.3627Z" fill="#699FF0"/>
    <path d="M195.548 90.5971C193.29 90.5971 191.082 89.9275 189.205 88.673C187.327 87.4185 185.864 85.6354 185 83.5492C184.136 81.463 183.91 79.1674 184.35 76.9527C184.791 74.738 185.878 72.7037 187.475 71.107C189.072 69.5103 191.106 68.4229 193.321 67.9824C195.535 67.5419 197.831 67.7679 199.917 68.6321C202.003 69.4962 203.786 70.9596 205.041 72.8371C206.295 74.7146 206.965 76.922 206.965 79.1801C206.963 82.2073 205.759 85.1099 203.618 87.2506C201.478 89.3912 198.575 90.5948 195.548 90.5971ZM195.548 68.6871C193.472 68.6871 191.442 69.3027 189.716 70.4561C187.99 71.6094 186.645 73.2488 185.85 75.1668C185.056 77.0848 184.848 79.1953 185.253 81.2314C185.658 83.2676 186.658 85.1378 188.126 86.6058C189.594 88.0738 191.464 89.0735 193.5 89.4785C195.536 89.8835 197.647 89.6756 199.565 88.8812C201.483 88.0867 203.122 86.7414 204.275 85.0152C205.429 83.2891 206.044 81.2597 206.044 79.1836C206.041 76.4008 204.934 73.7329 202.966 71.7651C200.999 69.7973 198.331 68.6904 195.548 68.6871Z" fill="#699FF0"/>
    <path d="M188.91 76.5202L195.764 85.4397L201.166 72.2156L194.738 79.0658L188.91 76.5202Z" fill="#F99746"/>
    <rect x="78.6855" y="105.886" width="44.2286" height="8.22857" rx="2" fill="#6EA4E4"/>
    <g clip-path="url(#clip0_1_471)">
        <path fill-rule="evenodd" clip-rule="evenodd" d="M111 57H95C92.8783 56.9999 90.8435 56.157 89.3432 54.6568C87.843 53.1565 87.0001 51.1217 87 49V33C87.0001 30.8783 87.843 28.8435 89.3432 27.3432C90.8435 25.843 92.8783 25.0001 95 25H111C113.122 25 115.157 25.8429 116.657 27.3431C118.157 28.8434 119 30.8783 119 33V49C119 51.1217 118.157 53.1566 116.657 54.6569C115.157 56.1571 113.122 57 111 57Z" fill="#FFCF26"/>
        <path fill-rule="evenodd" clip-rule="evenodd" d="M102 34H111C112.154 33.9999 113.263 33.5568 114.1 32.7622C114.936 31.9676 115.435 30.8821 115.494 29.73C115.553 28.5779 115.167 27.4471 114.417 26.5711C113.666 25.6952 112.608 25.141 111.46 25.023C111.307 25.0145 111.156 25 111 25H95C92.8783 25.0001 90.8435 25.843 89.3432 27.3432C87.843 28.8435 87.0001 30.8783 87 33V49C87.0001 45.0218 88.5805 41.2065 91.3935 38.3935C94.2065 35.5805 98.0218 34.0001 102 34Z" fill="#FFD954"/>
        <path fill-rule="evenodd" clip-rule="evenodd" d="M111 41C109.418 41 107.871 41.4692 106.555 42.3482C105.24 43.2273 104.214 44.4767 103.609 45.9385C103.003 47.4003 102.845 49.0089 103.154 50.5607C103.462 52.1126 104.224 53.538 105.343 54.6569C106.462 55.7757 107.887 56.5376 109.439 56.8463C110.991 57.155 112.6 56.9965 114.061 56.391C115.523 55.7855 116.773 54.7602 117.652 53.4446C118.531 52.129 119 50.5823 119 49V33C119 35.1217 118.157 37.1566 116.657 38.6569C115.157 40.1571 113.122 41 111 41Z" fill="#FFC700"/>
        <path d="M103.001 30.5625C97.2454 30.5625 92.5625 35.2446 92.5625 40.9997C92.5625 46.7547 97.2454 51.4368 103.001 51.4368C108.757 51.4368 113.439 46.7547 113.439 40.9997C113.439 35.2446 108.756 30.5625 103.001 30.5625ZM109.993 35.4399C109.145 35.8051 108.104 36.0956 106.941 36.2966C106.766 35.4252 106.541 34.6154 106.27 33.8924C106.065 33.3463 105.837 32.8629 105.59 32.4452C107.347 32.9778 108.876 34.0376 109.993 35.4399ZM100.13 40.2497C100.153 39.4675 100.212 38.7058 100.305 37.9779C101.173 38.0696 102.078 38.1179 103.001 38.1179C103.924 38.1179 104.829 38.0696 105.697 37.978C105.789 38.7059 105.848 39.4676 105.871 40.2497H100.13ZM105.871 41.7497C105.848 42.5324 105.789 43.2947 105.696 44.023C104.829 43.9315 103.924 43.8832 103.001 43.8832C102.078 43.8832 101.173 43.9315 100.305 44.0231C100.212 43.2947 100.153 42.5324 100.13 41.7497H105.871ZM101.136 34.419C101.681 32.9655 102.396 32.0625 103.001 32.0625C103.606 32.0625 104.32 32.9654 104.865 34.419C105.099 35.0435 105.295 35.7437 105.451 36.4977C104.665 36.5764 103.843 36.6179 103.001 36.6179C102.159 36.6179 101.337 36.5764 100.55 36.4976C100.706 35.7436 100.902 35.0435 101.136 34.419ZM100.412 32.4455C100.164 32.8631 99.9364 33.3464 99.7317 33.8924C99.4606 34.6153 99.2355 35.4251 99.0603 36.2965C97.8967 36.0955 96.8558 35.8051 96.008 35.44C97.1254 34.0379 98.6549 32.9782 100.412 32.4455ZM95.1647 36.7043C96.1688 37.1671 97.4208 37.5301 98.819 37.7723C98.7167 38.5682 98.6522 39.3991 98.6284 40.2497H94.0943C94.2008 38.9735 94.5766 37.7727 95.1647 36.7043ZM95.1655 45.2963C94.5769 44.2276 94.2009 43.0264 94.0943 41.7497H98.6283C98.6522 42.6009 98.7168 43.4323 98.8192 44.2287C97.4213 44.4709 96.1695 44.8338 95.1655 45.2963ZM96.0091 46.5607C96.8567 46.1957 97.8974 45.9055 99.0605 45.7046C99.2357 46.5756 99.4607 47.3851 99.7317 48.1076C99.9363 48.6533 100.164 49.1363 100.411 49.5537C98.6552 49.0212 97.1263 47.962 96.0091 46.5607ZM104.865 47.581C104.32 49.0341 103.606 49.9368 103.001 49.9368C102.396 49.9368 101.681 49.0341 101.136 47.5809C100.902 46.9568 100.706 46.2571 100.55 45.5035C101.337 45.4247 102.16 45.3832 103.001 45.3832C103.843 45.3832 104.665 45.4247 105.451 45.5034C105.295 46.257 105.099 46.9568 104.865 47.581ZM105.59 49.554C105.837 49.1365 106.065 48.6534 106.27 48.1076C106.541 47.3849 106.766 46.5755 106.941 45.7045C108.104 45.9054 109.145 46.1957 109.992 46.5608C108.875 47.9623 107.346 49.0216 105.59 49.554ZM110.836 45.2964C109.832 44.8338 108.58 44.4708 107.182 44.2286C107.284 43.4322 107.349 42.6008 107.373 41.7497H111.907C111.8 43.0264 111.424 44.2277 110.836 45.2964ZM111.907 40.2497H107.373C107.349 39.3991 107.284 38.5683 107.182 37.7724C108.58 37.5302 109.832 37.1671 110.837 36.7043C111.425 37.7726 111.8 38.9735 111.907 40.2497Z" fill="white"/>
    </g>
    <path d="M53.2 69C53.2 66.9013 54.9013 65.2 57 65.2H151C153.099 65.2 154.8 66.9013 154.8 69V92C154.8 94.0987 153.099 95.8 151 95.8H57C54.9013 95.8 53.2 94.0987 53.2 92V69Z" fill="white" stroke="#CEE3FF" stroke-width="0.4"/>
    <rect x="63" y="73" width="82" height="5" rx="2.5" fill="#BFD8FC"/>
    <rect x="63" y="83" width="53" height="5" rx="2.5" fill="#BFD8FC"/>
    <defs>
        <clipPath id="clip0_1_471">
            <rect width="32" height="32" fill="white" transform="translate(87 25)"/>
        </clipPath>
    </defs>
</svg>
