<svg width="50" height="50" viewBox="0 0 50 50" fill="none" xmlns="http://www.w3.org/2000/svg">
    <g clip-path="url(#clip0_85_4988)">
        <path d="M14.5832 8.33341V41.6667H35.4165V8.33341H14.5832ZM12.4998 4.16675H37.4998C38.0524 4.16675 38.5823 4.38624 38.973 4.77694C39.3637 5.16764 39.5832 5.69755 39.5832 6.25008V43.7501C39.5832 44.3026 39.3637 44.8325 38.973 45.2232C38.5823 45.6139 38.0524 45.8334 37.4998 45.8334H12.4998C11.9473 45.8334 11.4174 45.6139 11.0267 45.2232C10.636 44.8325 10.4165 44.3026 10.4165 43.7501V6.25008C10.4165 5.69755 10.636 5.16764 11.0267 4.77694C11.4174 4.38624 11.9473 4.16675 12.4998 4.16675ZM24.9998 35.4167C25.5524 35.4167 26.0823 35.6362 26.473 36.0269C26.8637 36.4176 27.0832 36.9475 27.0832 37.5001C27.0832 38.0526 26.8637 38.5825 26.473 38.9732C26.0823 39.3639 25.5524 39.5834 24.9998 39.5834C24.4473 39.5834 23.9174 39.3639 23.5267 38.9732C23.136 38.5825 22.9165 38.0526 22.9165 37.5001C22.9165 36.9475 23.136 36.4176 23.5267 36.0269C23.9174 35.6362 24.4473 35.4167 24.9998 35.4167V35.4167Z" fill="white"/>
    </g>
    <defs>
        <clipPath id="clip0_85_4988">
            <rect width="50" height="50" fill="white"/>
        </clipPath>
    </defs>
</svg>
