<svg width="50" height="50" viewBox="0 0 50 50" fill="none" xmlns="http://www.w3.org/2000/svg">
    <g clip-path="url(#clip0_74_5180)">
        <path d="M40.7978 49.9302L50 40.7276L40.7978 31.5254L38.0371 34.2861L42.5266 38.7756H34.6516C31.8047 38.7756 29.1023 37.542 27.2377 35.3909L20.6093 27.7447C19.6438 26.6308 18.5242 25.6924 17.2993 24.9489C18.5295 24.2207 19.6442 23.299 20.5925 22.2046L27.2377 14.5393C29.1023 12.3882 31.8047 11.1542 34.6516 11.1542L42.5266 11.1542L38.0371 15.6441L40.7978 18.4048L50 9.20219L40.7978 0L38.0371 2.7607L42.5266 7.25021H34.6516C30.6717 7.25021 26.8944 8.97484 24.2874 11.982L17.6426 19.6472C15.8241 21.7449 13.1348 22.9538 10.2707 22.9641H0V26.8681H10.2455C13.0653 26.8681 15.7677 28.1197 17.6594 30.302L24.2874 37.9482C26.8944 40.9554 30.6717 42.6796 34.6516 42.6796H42.5266L38.0371 47.1695L40.7978 49.9302Z" fill="white"/>
    </g>
    <defs>
        <clipPath id="clip0_74_5180">
            <rect width="50" height="50" fill="white" transform="translate(50) rotate(90)"/>
        </clipPath>
    </defs>
</svg>
