<svg width="264" height="220" viewBox="0 0 264 220" fill="none" xmlns="http://www.w3.org/2000/svg">
    <path fill-rule="evenodd" clip-rule="evenodd" d="M230.389 220C251.29 196.647 264 165.808 264 132C264 59.0984 204.902 0 132 0C59.0984 0 0 59.0984 0 132C0 165.808 12.7096 196.647 33.6113 220H230.389Z" fill="#FBDDD5"/>
    <path d="M148.666 181.271H116.041V218.585H148.666V181.271Z" fill="#244E8E"/>
    <path d="M148.666 181.271H116.041V194.886H148.666V181.271Z" fill="#183969"/>
    <path d="M191.037 215.217H73.6846V220H191.037V215.217Z" fill="#265396"/>
    <path d="M245.422 40H19.2833C16.9177 40 15 41.9177 15 44.2833V184.983C15 187.349 16.9177 189.267 19.2833 189.267H245.422C247.788 189.267 249.706 187.349 249.706 184.983V44.2833C249.706 41.9177 247.788 40 245.422 40Z" fill="#265396"/>
    <path d="M245.25 177.8V45.7761C245.25 44.7833 244.445 43.9784 243.452 43.9784L21.2681 43.9784C20.2753 43.9784 19.4704 44.7833 19.4704 45.7761V177.8C19.4704 178.793 20.2753 179.598 21.2681 179.598H243.452C244.445 179.598 245.25 178.793 245.25 177.8Z" fill="#CEE3FF"/>
    <path d="M32.9307 161.371L156.497 161.371C158.447 161.371 160.028 159.449 160.028 157.077V56.6376C160.028 54.2657 158.447 52.3429 156.497 52.3429L32.9307 52.3429C30.9806 52.3429 29.3998 54.2657 29.3998 56.6376V157.077C29.3998 159.449 30.9806 161.371 32.9307 161.371Z" fill="#F4AF64"/>
    <path d="M61.7998 52.3429H170.76C171.888 52.3633 172.962 52.8352 173.746 53.6548C174.53 54.4745 174.96 55.575 174.942 56.7149V156.999C174.96 158.139 174.53 159.24 173.746 160.06C172.962 160.879 171.888 161.351 170.76 161.371H61.7998V52.3429Z" fill="white"/>
    <path d="M29.3999 58.5143V54.3635C29.3917 53.9029 29.4853 53.4452 29.6754 53.0168C29.8655 52.5884 30.1484 52.1976 30.508 51.8667C30.8675 51.5357 31.2966 51.2712 31.7708 51.0882C32.245 50.9052 32.755 50.8073 33.2717 50.8H171.07C171.587 50.8073 172.097 50.9052 172.571 51.0882C173.045 51.2712 173.474 51.5357 173.834 51.8667C174.193 52.1976 174.476 52.5884 174.666 53.0168C174.856 53.4452 174.95 53.9029 174.942 54.3635V58.5143H29.3999Z" fill="#3C597D"/>
    <path d="M45.5908 54.8117C45.5893 55.1429 45.6861 55.467 45.8689 55.7431C46.0518 56.0192 46.3125 56.2348 46.618 56.3626C46.9235 56.4904 47.26 56.5247 47.585 56.461C47.91 56.3974 48.2088 56.2387 48.4435 56.0051C48.6782 55.7714 48.8383 55.4734 48.9034 55.1487C48.9686 54.8241 48.936 54.4873 48.8096 54.1812C48.6832 53.8751 48.4688 53.6134 48.1936 53.4293C47.9184 53.2452 47.5947 53.1469 47.2635 53.1469C46.8212 53.1468 46.397 53.322 46.0835 53.634C45.77 53.946 45.5929 54.3694 45.5908 54.8117V54.8117Z" fill="#E0ECFC"/>
    <path d="M40.5811 54.8117C40.5795 55.1429 40.6763 55.467 40.8592 55.7431C41.042 56.0192 41.3027 56.2348 41.6082 56.3626C41.9137 56.4904 42.2503 56.5247 42.5753 56.461C42.9002 56.3974 43.199 56.2387 43.4337 56.0051C43.6684 55.7714 43.8285 55.4734 43.8937 55.1487C43.9589 54.8241 43.9262 54.4873 43.7998 54.1812C43.6735 53.8751 43.4591 53.6134 43.1838 53.4293C42.9086 53.2452 42.5849 53.1469 42.2537 53.1469C41.8115 53.1468 41.3872 53.322 41.0737 53.634C40.7603 53.946 40.5831 54.3694 40.5811 54.8117V54.8117Z" fill="#E0ECFC"/>
    <path d="M35.5713 54.8117C35.5698 55.1429 35.6665 55.467 35.8494 55.7431C36.0323 56.0192 36.2929 56.2348 36.5984 56.3626C36.9039 56.4904 37.2405 56.5247 37.5655 56.461C37.8905 56.3974 38.1892 56.2387 38.424 56.0051C38.6587 55.7714 38.8187 55.4734 38.8839 55.1487C38.9491 54.8241 38.9164 54.4873 38.7901 54.1812C38.6637 53.8751 38.4493 53.6134 38.1741 53.4293C37.8988 53.2452 37.5751 53.1469 37.244 53.1469C36.8017 53.1468 36.3774 53.322 36.064 53.634C35.7505 53.946 35.5734 54.3694 35.5713 54.8117Z" fill="#E0ECFC"/>
    <path d="M56.6656 67.7715H34.5351C34.2645 67.7715 34.0049 67.6631 33.8135 67.4702C33.6222 67.2773 33.5146 67.0157 33.5146 66.7429C33.5146 66.4701 33.6222 66.2085 33.8135 66.0156C34.0049 65.8227 34.2645 65.7144 34.5351 65.7144H56.6656C56.7996 65.7144 56.9323 65.741 57.0561 65.7926C57.1799 65.8443 57.2924 65.9201 57.3872 66.0156C57.4819 66.1111 57.5571 66.2245 57.6084 66.3493C57.6597 66.4741 57.6861 66.6079 57.6861 66.7429C57.6861 66.878 57.6597 67.0118 57.6084 67.1365C57.5571 67.2613 57.4819 67.3747 57.3872 67.4702C57.2924 67.5657 57.1799 67.6415 57.0561 67.6932C56.9323 67.7449 56.7996 67.7715 56.6656 67.7715Z" fill="white"/>
    <path d="M56.6656 71.8857H34.5351C34.2645 71.8857 34.0049 71.7773 33.8135 71.5844C33.6222 71.3915 33.5146 71.1299 33.5146 70.8571C33.5146 70.5843 33.6222 70.3227 33.8135 70.1298C34.0049 69.9369 34.2645 69.8286 34.5351 69.8286H56.6656C56.7996 69.8286 56.9323 69.8552 57.0561 69.9068C57.1799 69.9585 57.2924 70.0343 57.3872 70.1298C57.4819 70.2253 57.5571 70.3387 57.6084 70.4635C57.6597 70.5883 57.6861 70.7221 57.6861 70.8571C57.6861 70.9922 57.6597 71.126 57.6084 71.2507C57.5571 71.3755 57.4819 71.4889 57.3872 71.5844C57.2924 71.6799 57.1799 71.7557 57.0561 71.8074C56.9323 71.8591 56.7996 71.8857 56.6656 71.8857Z" fill="white"/>
    <path d="M56.6656 75.9998H34.5351C34.2645 75.9998 34.0049 75.8915 33.8135 75.6986C33.6222 75.5057 33.5146 75.2441 33.5146 74.9713C33.5146 74.6985 33.6222 74.4368 33.8135 74.2439C34.0049 74.0511 34.2645 73.9427 34.5351 73.9427H56.6656C56.7996 73.9427 56.9323 73.9693 57.0561 74.021C57.1799 74.0727 57.2924 74.1484 57.3872 74.2439C57.4819 74.3395 57.5571 74.4528 57.6084 74.5776C57.6597 74.7024 57.6861 74.8362 57.6861 74.9713C57.6861 75.1063 57.6597 75.2401 57.6084 75.3649C57.5571 75.4897 57.4819 75.6031 57.3872 75.6986C57.2924 75.7941 57.1799 75.8698 57.0561 75.9215C56.9323 75.9732 56.7996 75.9998 56.6656 75.9998Z" fill="white"/>
    <path d="M56.6656 80.1145H34.5351C34.2645 80.1145 34.0049 80.0061 33.8135 79.8132C33.6222 79.6203 33.5146 79.3587 33.5146 79.0859C33.5146 78.8131 33.6222 78.5515 33.8135 78.3586C34.0049 78.1657 34.2645 78.0573 34.5351 78.0573H56.6656C56.7996 78.0573 56.9323 78.0839 57.0561 78.1356C57.1799 78.1873 57.2924 78.2631 57.3872 78.3586C57.4819 78.4541 57.5571 78.5675 57.6084 78.6923C57.6597 78.8171 57.6861 78.9508 57.6861 79.0859C57.6861 79.221 57.6597 79.3547 57.6084 79.4795C57.5571 79.6043 57.4819 79.7177 57.3872 79.8132C57.2924 79.9087 57.1799 79.9845 57.0561 80.0362C56.9323 80.0879 56.7996 80.1145 56.6656 80.1145Z" fill="white"/>
    <path d="M51.2473 84.2286H34.2963C34.089 84.2286 33.8902 84.1202 33.7436 83.9273C33.597 83.7344 33.5146 83.4728 33.5146 83.2C33.5146 82.9272 33.597 82.6656 33.7436 82.4727C33.8902 82.2798 34.089 82.1714 34.2963 82.1714H51.2473C51.3499 82.1714 51.4516 82.198 51.5464 82.2497C51.6412 82.3014 51.7274 82.3772 51.8 82.4727C51.8726 82.5682 51.9302 82.6816 51.9694 82.8064C52.0087 82.9312 52.0289 83.065 52.0289 83.2C52.0289 83.3351 52.0087 83.4688 51.9694 83.5936C51.9302 83.7184 51.8726 83.8318 51.8 83.9273C51.7274 84.0228 51.6412 84.0986 51.5464 84.1503C51.4516 84.202 51.3499 84.2286 51.2473 84.2286Z" fill="white"/>
    <path d="M236.728 65.7144C237.833 65.7144 238.728 66.6098 238.728 67.7144V143.877L236.054 142.624L233.039 143.877L231.812 142.694L228.057 143.877L225.513 143.127L221.044 143.877L216.909 143.127L212.184 143.877L209.035 142.694L204.673 143.877L201.159 143.127L197.161 143.877L192.919 143.127L190.134 143.877L187.104 143.127L183.686 143.877V67.7144C183.686 66.6098 184.581 65.7144 185.686 65.7144H236.728Z" fill="white"/>
    <path d="M228.912 77.1634H192.11C191.941 77.163 191.779 77.0957 191.66 76.9764C191.54 76.857 191.473 76.6953 191.473 76.5266V76.5266C191.473 76.3577 191.54 76.1957 191.659 76.0762C191.779 75.9568 191.941 75.8897 192.11 75.8897H228.912C229.081 75.8897 229.243 75.9568 229.362 76.0762C229.481 76.1957 229.549 76.3577 229.549 76.5266C229.548 76.6953 229.481 76.857 229.362 76.9764C229.242 77.0957 229.08 77.163 228.912 77.1634V77.1634Z" fill="#699FF0"/>
    <path d="M228.912 82.5278H192.11C191.941 82.5278 191.779 82.461 191.66 82.3419C191.54 82.2229 191.473 82.0613 191.473 81.8927V81.8927C191.473 81.7238 191.54 81.5618 191.659 81.4424C191.779 81.323 191.941 81.2559 192.11 81.2559H228.912C229.081 81.2559 229.243 81.323 229.362 81.4424C229.481 81.5618 229.549 81.7238 229.549 81.8927C229.548 82.0613 229.481 82.2229 229.361 82.3419C229.242 82.461 229.08 82.5278 228.912 82.5278V82.5278Z" fill="#699FF0"/>
    <path d="M221.467 86.6253H199.554C199.281 86.6253 199.06 86.8465 199.06 87.1195V87.4049C199.06 87.6778 199.281 87.899 199.554 87.899H221.467C221.74 87.899 221.961 87.6778 221.961 87.4049V87.1195C221.961 86.8465 221.74 86.6253 221.467 86.6253Z" fill="#699FF0"/>
    <path d="M221.467 91.9932H199.554C199.281 91.9932 199.06 92.2145 199.06 92.4874V92.7728C199.06 93.0457 199.281 93.2669 199.554 93.2669H221.467C221.74 93.2669 221.961 93.0457 221.961 92.7728V92.4874C221.961 92.2145 221.74 91.9932 221.467 91.9932Z" fill="#699FF0"/>
    <path d="M221.467 97.3627H199.554C199.281 97.3627 199.06 97.5839 199.06 97.8568V98.1422C199.06 98.4152 199.281 98.6364 199.554 98.6364H221.467C221.74 98.6364 221.961 98.4152 221.961 98.1422V97.8568C221.961 97.5839 221.74 97.3627 221.467 97.3627Z" fill="#699FF0"/>
    <path d="M210.548 130.597C208.29 130.597 206.082 129.928 204.205 128.673C202.327 127.418 200.864 125.635 200 123.549C199.136 121.463 198.91 119.167 199.35 116.953C199.791 114.738 200.878 112.704 202.475 111.107C204.072 109.51 206.106 108.423 208.321 107.982C210.535 107.542 212.831 107.768 214.917 108.632C217.003 109.496 218.786 110.96 220.041 112.837C221.295 114.715 221.965 116.922 221.965 119.18C221.963 122.207 220.759 125.11 218.618 127.251C216.478 129.391 213.575 130.595 210.548 130.597ZM210.548 108.687C208.472 108.687 206.442 109.303 204.716 110.456C202.99 111.609 201.645 113.249 200.85 115.167C200.056 117.085 199.848 119.195 200.253 121.231C200.658 123.268 201.658 125.138 203.126 126.606C204.594 128.074 206.464 129.073 208.5 129.479C210.536 129.884 212.647 129.676 214.565 128.881C216.483 128.087 218.122 126.741 219.275 125.015C220.429 123.289 221.044 121.26 221.044 119.184C221.041 116.401 219.934 113.733 217.966 111.765C215.999 109.797 213.331 108.69 210.548 108.687V108.687Z" fill="#699FF0"/>
    <path d="M203.91 116.52L210.764 125.44L216.166 112.216L209.738 119.066L203.91 116.52Z" fill="#F99746"/>
    <rect x="93.6855" y="145.886" width="44.2286" height="8.22857" rx="2" fill="#6EA4E4"/>
    <g clip-path="url(#clip0_0_1)">
        <path fill-rule="evenodd" clip-rule="evenodd" d="M126 97H110C107.878 96.9999 105.844 96.157 104.343 94.6568C102.843 93.1565 102 91.1217 102 89V73C102 70.8783 102.843 68.8435 104.343 67.3432C105.844 65.843 107.878 65.0001 110 65H126C128.122 65 130.157 65.8429 131.657 67.3431C133.157 68.8434 134 70.8783 134 73V89C134 91.1217 133.157 93.1566 131.657 94.6569C130.157 96.1571 128.122 97 126 97Z" fill="#FFCF26"/>
        <path fill-rule="evenodd" clip-rule="evenodd" d="M117 74H126C127.154 73.9999 128.263 73.5568 129.1 72.7622C129.936 71.9676 130.435 70.8821 130.494 69.73C130.553 68.5779 130.167 67.4471 129.417 66.5711C128.666 65.6952 127.608 65.141 126.46 65.023C126.307 65.0145 126.155 65 126 65H110C107.878 65.0001 105.844 65.843 104.343 67.3432C102.843 68.8435 102 70.8783 102 73V89C102 85.0218 103.58 81.2065 106.394 78.3935C109.207 75.5805 113.022 74.0001 117 74" fill="#FFD954"/>
        <path fill-rule="evenodd" clip-rule="evenodd" d="M126 81C124.418 81 122.871 81.4692 121.555 82.3482C120.24 83.2273 119.214 84.4767 118.609 85.9385C118.003 87.4003 117.845 89.0089 118.154 90.5607C118.462 92.1126 119.224 93.538 120.343 94.6569C121.462 95.7757 122.887 96.5376 124.439 96.8463C125.991 97.155 127.6 96.9965 129.061 96.391C130.523 95.7855 131.773 94.7602 132.652 93.4446C133.531 92.129 134 90.5823 134 89V73C134 75.1217 133.157 77.1566 131.657 78.6569C130.157 80.1571 128.122 81 126 81Z" fill="#FFC700"/>
        <path d="M118.001 70.5625C112.245 70.5625 107.562 75.2446 107.562 80.9997C107.562 86.7547 112.245 91.4368 118.001 91.4368C123.757 91.4368 128.439 86.7547 128.439 80.9997C128.439 75.2446 123.756 70.5625 118.001 70.5625V70.5625ZM124.993 75.4399C124.145 75.8051 123.104 76.0956 121.941 76.2966C121.766 75.4252 121.541 74.6154 121.27 73.8924C121.065 73.3463 120.837 72.8629 120.59 72.4452C122.347 72.9778 123.876 74.0376 124.993 75.4399V75.4399ZM115.13 80.2497C115.153 79.4675 115.212 78.7058 115.305 77.9779C116.173 78.0696 117.078 78.1179 118.001 78.1179C118.924 78.1179 119.829 78.0696 120.697 77.978C120.789 78.7059 120.848 79.4676 120.871 80.2497H115.13ZM120.871 81.7497C120.848 82.5324 120.789 83.2947 120.696 84.023C119.829 83.9315 118.924 83.8832 118.001 83.8832C117.078 83.8832 116.173 83.9315 115.305 84.0231C115.212 83.2947 115.153 82.5324 115.13 81.7497H120.871ZM116.136 74.419C116.681 72.9655 117.396 72.0625 118.001 72.0625C118.606 72.0625 119.32 72.9654 119.865 74.419C120.099 75.0435 120.295 75.7437 120.451 76.4977C119.665 76.5764 118.843 76.6179 118.001 76.6179C117.159 76.6179 116.337 76.5764 115.55 76.4976C115.706 75.7436 115.902 75.0435 116.136 74.419V74.419ZM115.412 72.4455C115.164 72.8631 114.936 73.3464 114.732 73.8924C114.461 74.6153 114.235 75.4251 114.06 76.2965C112.897 76.0955 111.856 75.8051 111.008 75.44C112.125 74.0379 113.655 72.9782 115.412 72.4455V72.4455ZM110.165 76.7043C111.169 77.1671 112.421 77.5301 113.819 77.7723C113.717 78.5682 113.652 79.3991 113.628 80.2497H109.094C109.201 78.9735 109.577 77.7727 110.165 76.7043ZM110.165 85.2963C109.577 84.2276 109.201 83.0264 109.094 81.7497H113.628C113.652 82.6009 113.717 83.4323 113.819 84.2287C112.421 84.4709 111.17 84.8338 110.165 85.2963ZM111.009 86.5607C111.857 86.1957 112.897 85.9055 114.06 85.7046C114.236 86.5756 114.461 87.3851 114.732 88.1076C114.936 88.6533 115.164 89.1363 115.411 89.5537C113.655 89.0212 112.126 87.962 111.009 86.5607ZM119.865 87.581C119.32 89.0341 118.606 89.9368 118.001 89.9368C117.396 89.9368 116.681 89.0341 116.136 87.5809C115.902 86.9568 115.706 86.2571 115.55 85.5035C116.337 85.4247 117.16 85.3832 118.001 85.3832C118.843 85.3832 119.665 85.4247 120.451 85.5034C120.295 86.257 120.099 86.9568 119.865 87.581ZM120.59 89.554C120.837 89.1365 121.065 88.6534 121.27 88.1076C121.541 87.3849 121.766 86.5755 121.941 85.7045C123.104 85.9054 124.145 86.1957 124.992 86.5608C123.875 87.9623 122.346 89.0216 120.59 89.554ZM125.836 85.2964C124.832 84.8338 123.58 84.4708 122.182 84.2286C122.284 83.4322 122.349 82.6008 122.373 81.7497H126.907C126.8 83.0264 126.424 84.2277 125.836 85.2964ZM126.907 80.2497H122.373C122.349 79.3991 122.284 78.5683 122.182 77.7724C123.58 77.5302 124.832 77.1671 125.837 76.7043C126.425 77.7726 126.8 78.9735 126.907 80.2497V80.2497Z" fill="white"/>
    </g>
    <path d="M72 105.2H166C168.099 105.2 169.8 106.901 169.8 109V132C169.8 134.099 168.099 135.8 166 135.8H72C69.9013 135.8 68.2 134.099 68.2 132V109C68.2 106.901 69.9013 105.2 72 105.2Z" fill="white" stroke="#CEE3FF" stroke-width="0.4"/>
    <rect x="78" y="113" width="82" height="5" rx="2.5" fill="#BFD8FC"/>
    <rect x="78" y="123" width="53" height="5" rx="2.5" fill="#BFD8FC"/>
    <defs>
        <clipPath id="clip0_0_1">
            <rect width="32" height="32" fill="white" transform="translate(102 65)"/>
        </clipPath>
    </defs>
</svg>
