<svg width="264" height="220" viewBox="0 0 264 220" fill="none" xmlns="http://www.w3.org/2000/svg">
    <path fill-rule="evenodd" clip-rule="evenodd" d="M230.389 220C251.29 196.647 264 165.808 264 132C264 59.0984 204.902 0 132 0C59.0984 0 0 59.0984 0 132C0 165.808 12.7096 196.647 33.6113 220H230.389Z" fill="#FBDDD5"/>
    <path d="M180.425 212.351V47.5279C180.329 45.4463 179.414 43.4871 177.879 42.0778C176.344 40.6686 174.314 39.9238 172.232 40.0062H92.1764C90.0959 39.9239 88.0676 40.6692 86.5352 42.0788C85.0029 43.4885 84.0913 45.4478 84 47.5279V212.351C84 216.519 87.657 219.888 92.5597 220H172.616C174.646 219.957 176.584 219.142 178.034 217.721C179.485 216.3 180.34 214.38 180.425 212.351Z" fill="#265396"/>
    <path d="M93.0719 216.199H171.371C174.996 216.199 177.935 213.261 177.935 209.636L177.935 50.2267C177.935 46.6018 174.996 43.6632 171.371 43.6632H93.0719C89.447 43.6632 86.5084 46.6018 86.5084 50.2267L86.5084 209.636C86.5084 213.261 89.447 216.199 93.0719 216.199Z" fill="#CEE3FF"/>
    <rect x="97.6592" y="191.309" width="68.2992" height="13.6598" rx="3" fill="#6EA4E4"/>
    <path d="M91.3555 121.111C91.3555 123.32 93.1463 125.111 95.3555 125.111L169.315 125.111C171.524 125.111 173.315 123.32 173.315 121.111V102.842C173.315 100.633 171.524 98.842 169.315 98.842L91.3555 98.842V121.111Z" fill="white"/>
    <path d="M155.369 116.929H121.657C121.173 116.885 120.722 116.662 120.394 116.303C120.067 115.944 119.885 115.475 119.885 114.989C119.885 114.503 120.067 114.034 120.394 113.675C120.722 113.316 121.173 113.093 121.657 113.049H155.369C155.638 113.024 155.91 113.056 156.167 113.142C156.423 113.229 156.659 113.368 156.859 113.55C157.059 113.733 157.218 113.955 157.328 114.203C157.437 114.45 157.493 114.718 157.493 114.989C157.493 115.26 157.437 115.527 157.328 115.775C157.218 116.023 157.059 116.245 156.859 116.427C156.659 116.61 156.423 116.749 156.167 116.835C155.91 116.922 155.638 116.954 155.369 116.929Z" fill="#BFD8FC"/>
    <path d="M163.563 110.062H121.659C121.146 110.062 120.655 109.859 120.293 109.496C119.93 109.134 119.727 108.642 119.727 108.13C119.727 107.617 119.93 107.126 120.293 106.764C120.655 106.401 121.146 106.198 121.659 106.198H163.563C163.817 106.198 164.068 106.248 164.303 106.345C164.537 106.442 164.75 106.584 164.93 106.764C165.109 106.943 165.251 107.156 165.348 107.39C165.446 107.625 165.496 107.876 165.496 108.13C165.496 108.384 165.446 108.635 165.348 108.869C165.251 109.104 165.109 109.317 164.93 109.496C164.75 109.676 164.537 109.818 164.303 109.915C164.068 110.012 163.817 110.062 163.563 110.062Z" fill="#BFD8FC"/>
    <path d="M113.221 111.876C113.221 113.623 112.703 115.33 111.733 116.783C110.762 118.235 109.383 119.367 107.769 120.035C106.156 120.704 104.38 120.879 102.667 120.538C100.954 120.197 99.3803 119.356 98.1452 118.121C96.9101 116.886 96.069 115.312 95.7283 113.599C95.3875 111.886 95.5624 110.11 96.2308 108.497C96.8992 106.883 98.0312 105.504 99.4834 104.533C100.936 103.563 102.643 103.045 104.39 103.045C105.55 103.043 106.699 103.27 107.772 103.713C108.844 104.156 109.819 104.807 110.639 105.627C111.46 106.448 112.11 107.422 112.553 108.494C112.996 109.567 113.223 110.716 113.221 111.876Z" fill="#BFD8FC"/>
    <path d="M173.314 153.685C173.314 155.894 171.524 157.685 169.314 157.685H95.3554C93.1463 157.685 91.3554 155.894 91.3554 153.685V135.416C91.3554 133.207 93.1463 131.416 95.3554 131.416H173.314V153.685Z" fill="white"/>
    <path d="M100.836 149.503H134.548C135.032 149.459 135.483 149.235 135.811 148.876C136.139 148.517 136.32 148.048 136.32 147.562C136.32 147.076 136.139 146.607 135.811 146.248C135.483 145.889 135.032 145.666 134.548 145.622H100.836C100.567 145.597 100.295 145.629 100.038 145.716C99.7819 145.802 99.5461 145.941 99.3462 146.124C99.1463 146.306 98.9867 146.528 98.8775 146.776C98.7682 147.024 98.7118 147.292 98.7118 147.562C98.7118 147.833 98.7682 148.101 98.8775 148.348C98.9867 148.596 99.1463 148.818 99.3462 149.001C99.5461 149.183 99.7819 149.322 100.038 149.409C100.295 149.495 100.567 149.527 100.836 149.503Z" fill="#BFD8FC"/>
    <path d="M101.107 142.636H143.011C143.524 142.636 144.015 142.432 144.377 142.07C144.74 141.707 144.943 141.216 144.943 140.703C144.943 140.191 144.74 139.699 144.377 139.337C144.015 138.975 143.524 138.771 143.011 138.771H101.107C100.853 138.771 100.602 138.821 100.367 138.918C100.133 139.015 99.9198 139.157 99.7403 139.337C99.5609 139.516 99.4186 139.729 99.3215 139.964C99.2243 140.198 99.1744 140.45 99.1744 140.703C99.1744 140.957 99.2243 141.208 99.3215 141.443C99.4186 141.677 99.5609 141.89 99.7403 142.07C99.9198 142.249 100.133 142.391 100.367 142.489C100.602 142.586 100.853 142.636 101.107 142.636Z" fill="#BFD8FC"/>
    <path d="M151.449 144.45C151.449 146.197 151.967 147.904 152.937 149.356C153.908 150.809 155.287 151.941 156.901 152.609C158.514 153.278 160.29 153.452 162.003 153.112C163.716 152.771 165.29 151.93 166.525 150.695C167.76 149.46 168.601 147.886 168.942 146.173C169.282 144.46 169.108 142.684 168.439 141.071C167.771 139.457 166.639 138.078 165.186 137.107C163.734 136.137 162.027 135.619 160.28 135.619C159.12 135.617 157.97 135.844 156.898 136.287C155.826 136.73 154.851 137.38 154.031 138.201C153.21 139.021 152.56 139.996 152.117 141.068C151.674 142.14 151.447 143.29 151.449 144.45Z" fill="#F9E181"/>
    <g clip-path="url(#clip0_1_571)">
        <path fill-rule="evenodd" clip-rule="evenodd" d="M139.755 86.7106H123.755C121.633 86.7105 119.598 85.8676 118.098 84.3673C116.598 82.8671 115.755 80.8323 115.755 78.7106V62.7106C115.755 60.5889 116.598 58.5541 118.098 57.0538C119.598 55.5535 121.633 54.7107 123.755 54.7106H139.755C141.877 54.7106 143.911 55.5534 145.412 57.0537C146.912 58.554 147.755 60.5888 147.755 62.7106V78.7106C147.755 80.8323 146.912 82.8671 145.412 84.3674C143.911 85.8677 141.877 86.7106 139.755 86.7106Z" fill="#199BDF"/>
        <path fill-rule="evenodd" clip-rule="evenodd" d="M130.755 63.7106H139.755C140.909 63.7105 142.018 63.2674 142.854 62.4728C143.691 61.6782 144.19 60.5927 144.249 59.4406C144.308 58.2884 143.922 57.1576 143.172 56.2817C142.421 55.4058 141.362 54.8516 140.215 54.7336C140.062 54.7251 139.91 54.7106 139.755 54.7106H123.755C121.633 54.7107 119.598 55.5535 118.098 57.0538C116.598 58.5541 115.755 60.5889 115.755 62.7106V78.7106C115.755 74.7324 117.335 70.9171 120.148 68.1041C122.961 65.291 126.777 63.7107 130.755 63.7106Z" fill="#32B4FF"/>
        <path fill-rule="evenodd" clip-rule="evenodd" d="M139.755 70.7106C138.173 70.7106 136.626 71.1798 135.31 72.0588C133.995 72.9379 132.969 74.1873 132.364 75.6491C131.758 77.1109 131.6 78.7194 131.909 80.2713C132.217 81.8231 132.979 83.2486 134.098 84.3674C135.217 85.4862 136.642 86.2482 138.194 86.5569C139.746 86.8655 141.355 86.7071 142.816 86.1016C144.278 85.4961 145.528 84.4707 146.407 83.1551C147.286 81.8395 147.755 80.2928 147.755 78.7106V62.7106C147.755 64.8323 146.912 66.8671 145.412 68.3674C143.911 69.8677 141.877 70.7106 139.755 70.7106Z" fill="#1A90CD"/>
        <path fill-rule="evenodd" clip-rule="evenodd" d="M138.295 63.2266C138.541 63.1251 138.809 63.0908 139.073 63.1271C139.336 63.1635 139.585 63.2692 139.794 63.4335C140.003 63.5978 140.165 63.8147 140.263 64.062C140.36 64.3094 140.391 64.5782 140.35 64.8411C139.767 68.6306 138.699 75.5746 138.132 79.2606C138.093 79.5156 137.988 79.7563 137.829 79.9592C137.67 80.1621 137.46 80.3205 137.222 80.4189C136.983 80.5174 136.724 80.5527 136.467 80.5214C136.211 80.49 135.967 80.3931 135.76 80.2401C133.754 78.7621 130.746 76.5461 129.219 75.4206C129.101 75.3337 129.004 75.2221 128.934 75.0935C128.864 74.9649 128.823 74.8225 128.814 74.6764C128.805 74.5303 128.828 74.384 128.882 74.2479C128.936 74.1117 129.019 73.9891 129.125 73.8886C130.525 72.5671 133.312 69.9351 135.229 68.1241C135.274 68.0811 135.302 68.0229 135.306 67.9607C135.311 67.8986 135.292 67.837 135.253 67.7881C135.215 67.7392 135.159 67.7064 135.098 67.6962C135.036 67.686 134.973 67.6992 134.921 67.7331C132.462 69.3366 128.697 71.7921 126.852 72.9956C126.506 73.2211 126.117 73.3729 125.71 73.4412C125.303 73.5096 124.886 73.4932 124.485 73.3931C123.469 73.1391 122.003 72.7726 120.699 72.4466C120.495 72.3955 120.312 72.2814 120.176 72.1203C120.041 71.9593 119.96 71.7596 119.944 71.5497C119.929 71.3397 119.98 71.1303 120.09 70.9512C120.201 70.7721 120.365 70.6324 120.56 70.5521C125.1 68.6766 133.986 65.0066 138.295 63.2266Z" fill="white"/>
    </g>
    <defs>
        <clipPath id="clip0_1_571">
            <rect width="32" height="32" fill="white" transform="translate(115.755 54.7106)"/>
        </clipPath>
    </defs>
</svg>
