<svg width="264" height="220" viewBox="0 0 264 220" fill="none" xmlns="http://www.w3.org/2000/svg">
    <path fill-rule="evenodd" clip-rule="evenodd" d="M230.389 220C251.29 196.647 264 165.808 264 132C264 59.0984 204.902 0 132 0C59.0984 0 0 59.0984 0 132C0 165.808 12.7096 196.647 33.6113 220H230.389Z" fill="#FBDDD5"/>
    <path d="M133.267 50.8814C134.352 50.8814 135.231 50.0734 135.231 49.0768C135.231 48.0802 134.352 47.2722 133.267 47.2722C132.182 47.2722 131.303 48.0802 131.303 49.0768C131.303 50.0734 132.182 50.8814 133.267 50.8814Z" fill="#2F3B4F"/>
    <path d="M180.425 212.351V47.5279C180.329 45.4463 179.414 43.4871 177.879 42.0778C176.344 40.6686 174.314 39.9238 172.232 40.0062H92.1764C90.0959 39.9239 88.0676 40.6692 86.5352 42.0788C85.0029 43.4885 84.0913 45.4478 84 47.5279V212.351C84 216.519 87.657 219.888 92.5597 220H172.616C174.646 219.957 176.584 219.142 178.034 217.721C179.485 216.3 180.34 214.38 180.425 212.351Z" fill="#265396"/>
    <path d="M93.0709 216.199H171.37C174.995 216.199 177.934 213.261 177.934 209.636L177.934 50.2269C177.934 46.6019 174.995 43.6633 171.37 43.6633H93.0709C89.446 43.6633 86.5074 46.6019 86.5074 50.2269L86.5074 209.636C86.5074 213.261 89.446 216.199 93.0709 216.199Z" fill="#CEE3FF"/>
    <path d="M169.656 149.279H95.7603C93.6755 149.279 91.9854 150.993 91.9854 153.108V172.598C91.9854 174.713 93.6755 176.427 95.7603 176.427H169.656C171.74 176.427 173.431 174.713 173.431 172.598V153.108C173.431 150.993 171.74 149.279 169.656 149.279Z" fill="white"/>
    <path d="M164.935 162.773C164.935 164.519 164.417 166.227 163.447 167.679C162.476 169.131 161.097 170.263 159.483 170.932C157.87 171.6 156.094 171.775 154.381 171.434C152.668 171.094 151.094 170.252 149.859 169.017C148.624 167.782 147.783 166.209 147.442 164.496C147.101 162.783 147.276 161.007 147.945 159.393C148.613 157.78 149.745 156.4 151.197 155.43C152.65 154.46 154.357 153.942 156.104 153.942C157.264 153.939 158.413 154.166 159.486 154.61C160.558 155.053 161.532 155.703 162.353 156.524C163.173 157.344 163.824 158.318 164.267 159.391C164.71 160.463 164.937 161.612 164.935 162.773Z" fill="#BFD8FC"/>
    <path d="M133.586 168.155H99.8736C99.3894 168.111 98.9391 167.887 98.6113 167.528C98.2834 167.169 98.1016 166.7 98.1016 166.214C98.1016 165.728 98.2834 165.259 98.6113 164.9C98.9391 164.541 99.3894 164.318 99.8736 164.274H133.586C133.855 164.249 134.127 164.281 134.383 164.368C134.64 164.454 134.876 164.593 135.076 164.776C135.276 164.958 135.435 165.18 135.544 165.428C135.654 165.676 135.71 165.944 135.71 166.214C135.71 166.485 135.654 166.753 135.544 167C135.435 167.248 135.276 167.47 135.076 167.653C134.876 167.835 134.64 167.974 134.383 168.061C134.127 168.147 133.855 168.179 133.586 168.155Z" fill="#BFD8FC"/>
    <path d="M141.779 161.288H99.8747C99.3622 161.288 98.8707 161.084 98.5083 160.722C98.146 160.359 97.9424 159.868 97.9424 159.355C97.9424 158.843 98.146 158.351 98.5083 157.989C98.8707 157.627 99.3622 157.423 99.8747 157.423H141.779C142.033 157.423 142.284 157.473 142.519 157.57C142.753 157.667 142.966 157.81 143.145 157.989C143.325 158.168 143.467 158.381 143.564 158.616C143.661 158.85 143.711 159.102 143.711 159.355C143.711 159.609 143.661 159.86 143.564 160.095C143.467 160.329 143.325 160.542 143.145 160.722C142.966 160.901 142.753 161.043 142.519 161.141C142.284 161.238 142.033 161.288 141.779 161.288Z" fill="#BFD8FC"/>
    <path d="M150.306 159.691H153.803L156.326 163.156L161.261 153.542H164.407L156.773 168.474L150.306 159.691Z" fill="#F76C59"/>
    <path d="M92.4062 100.741C92.4062 98.5317 94.1971 96.7408 96.4062 96.7408H169.315C171.524 96.7408 173.315 98.5317 173.315 100.741V140.025C173.315 142.234 171.524 144.025 169.315 144.025H96.4063C94.1971 144.025 92.4062 142.234 92.4062 140.025V100.741Z" fill="white"/>
    <rect x="98.3721" y="192.388" width="68.6695" height="12.7757" rx="2" fill="#6EA4E4"/>
    <path d="M163.856 112.029H101.029C100.303 111.975 99.6279 111.701 99.1362 111.259C98.6446 110.818 98.3721 110.242 98.3721 109.644C98.3721 109.046 98.6446 108.47 99.1362 108.028C99.6279 107.587 100.303 107.312 101.029 107.258H163.856C164.26 107.228 164.668 107.267 165.053 107.374C165.437 107.48 165.791 107.651 166.09 107.875C166.39 108.1 166.629 108.373 166.793 108.677C166.957 108.982 167.042 109.311 167.042 109.644C167.042 109.977 166.957 110.306 166.793 110.61C166.629 110.915 166.39 111.188 166.09 111.413C165.791 111.637 165.437 111.808 165.053 111.914C164.668 112.02 164.26 112.06 163.856 112.029Z" fill="#BFD8FC"/>
    <path d="M163.856 121.611H101.029C100.303 121.557 99.6279 121.282 99.1362 120.841C98.6446 120.4 98.3721 119.823 98.3721 119.226C98.3721 118.628 98.6446 118.052 99.1362 117.61C99.6279 117.169 100.303 116.894 101.029 116.84H163.856C164.26 116.81 164.668 116.849 165.053 116.955C165.437 117.062 165.791 117.232 166.09 117.457C166.39 117.681 166.629 117.955 166.793 118.259C166.957 118.564 167.042 118.893 167.042 119.226C167.042 119.558 166.957 119.888 166.793 120.192C166.629 120.497 166.39 120.77 166.09 120.994C165.791 121.219 165.437 121.39 165.053 121.496C164.668 121.602 164.26 121.641 163.856 121.611Z" fill="#BFD8FC"/>
    <path d="M134.921 131.193H99.855C99.4498 131.139 99.073 130.864 98.7986 130.423C98.5242 129.982 98.3721 129.405 98.3721 128.808C98.3721 128.21 98.5242 127.634 98.7986 127.192C99.073 126.751 99.4498 126.476 99.855 126.422H134.921C135.147 126.392 135.374 126.431 135.589 126.537C135.804 126.644 136.001 126.814 136.168 127.039C136.336 127.263 136.469 127.536 136.561 127.841C136.652 128.146 136.699 128.475 136.699 128.808C136.699 129.14 136.652 129.47 136.561 129.774C136.469 130.079 136.336 130.352 136.168 130.576C136.001 130.801 135.804 130.972 135.589 131.078C135.374 131.184 135.147 131.223 134.921 131.193Z" fill="#BFD8FC"/>
    <path fill-rule="evenodd" clip-rule="evenodd" d="M120.559 85.6601H104.559C102.437 85.6601 100.402 84.8172 98.9018 83.3169C97.4016 81.8166 96.5587 79.7819 96.5586 77.6602V61.6602C96.5587 59.5385 97.4016 57.5037 98.9018 56.0034C100.402 54.5031 102.437 53.6602 104.559 53.6602H120.559C122.68 53.6602 124.715 54.503 126.215 56.0033C127.716 57.5036 128.559 59.5384 128.559 61.6602V77.6602C128.559 79.7819 127.716 81.8167 126.215 83.317C124.715 84.8173 122.68 85.6601 120.559 85.6601Z" fill="#32DC82"/>
    <path fill-rule="evenodd" clip-rule="evenodd" d="M111.559 62.6602H120.559C121.712 62.6601 122.822 62.217 123.658 61.4224C124.494 60.6277 124.994 59.5423 125.053 58.3902C125.112 57.238 124.726 56.1072 123.975 55.2313C123.225 54.3553 122.166 53.8011 121.019 53.6832C120.866 53.6747 120.714 53.6602 120.559 53.6602H104.559C102.437 53.6602 100.402 54.5031 98.9018 56.0034C97.4016 57.5037 96.5587 59.5385 96.5586 61.6602V77.6602C96.5587 73.6819 98.1391 69.8667 100.952 67.0537C103.765 64.2406 107.58 62.6602 111.559 62.6602Z" fill="#4BF59B"/>
    <path fill-rule="evenodd" clip-rule="evenodd" d="M120.559 69.6601C118.976 69.6601 117.43 70.1293 116.114 71.0083C114.798 71.8874 113.773 73.1368 113.168 74.5986C112.562 76.0604 112.404 77.669 112.712 79.2208C113.021 80.7727 113.783 82.1981 114.902 83.3169C116.021 84.4358 117.446 85.1977 118.998 85.5064C120.55 85.8151 122.158 85.6566 123.62 85.0511C125.082 84.4456 126.331 83.4202 127.21 82.1047C128.089 80.7891 128.559 79.2423 128.559 77.6601V61.6601C128.559 63.7818 127.716 65.8167 126.215 67.3169C124.715 68.8172 122.68 69.6601 120.559 69.6601Z" fill="#19C369"/>
    <path fill-rule="evenodd" clip-rule="evenodd" d="M119.559 69.66H105.559V76.66C105.559 76.7914 105.584 76.9214 105.635 77.0428C105.685 77.1641 105.759 77.2744 105.851 77.3672C105.944 77.4601 106.055 77.5338 106.176 77.584C106.297 77.6342 106.427 77.6601 106.559 77.66H118.559C118.69 77.6601 118.82 77.6342 118.941 77.584C119.063 77.5338 119.173 77.4601 119.266 77.3672C119.359 77.2744 119.432 77.1641 119.483 77.0428C119.533 76.9214 119.559 76.7914 119.559 76.66V69.66Z" fill="white"/>
    <path fill-rule="evenodd" clip-rule="evenodd" d="M104.559 71.16C104.559 70.7622 104.401 70.3807 104.119 70.0994C103.838 69.8181 103.456 69.66 103.059 69.66C102.661 69.66 102.279 69.8181 101.998 70.0994C101.717 70.3807 101.559 70.7622 101.559 71.16V76.16C101.559 76.5579 101.717 76.9394 101.998 77.2207C102.279 77.502 102.661 77.66 103.059 77.66C103.456 77.66 103.838 77.502 104.119 77.2207C104.401 76.9394 104.559 76.5579 104.559 76.16V71.16Z" fill="white"/>
    <path fill-rule="evenodd" clip-rule="evenodd" d="M123.559 71.16C123.559 70.7622 123.401 70.3807 123.119 70.0994C122.838 69.8181 122.456 69.66 122.059 69.66C121.661 69.66 121.279 69.8181 120.998 70.0994C120.717 70.3807 120.559 70.7622 120.559 71.16V76.16C120.559 76.5579 120.717 76.9394 120.998 77.2207C121.279 77.502 121.661 77.66 122.059 77.66C122.456 77.66 122.838 77.502 123.119 77.2207C123.401 76.9394 123.559 76.5579 123.559 76.16V71.16Z" fill="white"/>
    <path fill-rule="evenodd" clip-rule="evenodd" d="M105.559 68.6602H119.559C119.558 67.6035 119.318 66.5607 118.858 65.6096C118.397 64.6586 117.728 63.824 116.899 63.1682L118.492 60.4102C118.557 60.2954 118.574 60.1595 118.539 60.0321C118.505 59.9047 118.421 59.7961 118.307 59.7301C118.193 59.6641 118.057 59.6459 117.929 59.6797C117.801 59.7134 117.692 59.7963 117.626 59.9102L116.07 62.6047C115.003 61.9862 113.792 61.6604 112.558 61.6602C111.325 61.66 110.114 61.9855 109.047 62.6037L107.492 59.9102C107.425 59.7963 107.316 59.7134 107.188 59.6797C107.06 59.6459 106.925 59.6641 106.81 59.7301C106.696 59.7961 106.612 59.9047 106.578 60.0321C106.543 60.1595 106.56 60.2954 106.626 60.4102L108.218 63.1682C107.388 63.8229 106.718 64.6572 106.257 65.6085C105.796 66.5598 105.558 67.6032 105.559 68.6602ZM115.809 65.1602C115.957 65.1602 116.102 65.2042 116.225 65.2866C116.349 65.369 116.445 65.4862 116.502 65.6232C116.558 65.7602 116.573 65.911 116.544 66.0565C116.515 66.202 116.444 66.3357 116.339 66.4405C116.234 66.5454 116.1 66.6169 115.955 66.6458C115.809 66.6747 115.659 66.6599 115.522 66.6031C115.385 66.5464 115.267 66.4502 115.185 66.3269C115.103 66.2036 115.059 66.0585 115.059 65.9102C115.059 65.7113 115.138 65.5206 115.278 65.38C115.419 65.2393 115.61 65.1603 115.809 65.1602ZM109.309 65.1602C109.457 65.1602 109.602 65.2042 109.725 65.2866C109.849 65.369 109.945 65.4862 110.002 65.6232C110.058 65.7602 110.073 65.911 110.044 66.0565C110.015 66.202 109.944 66.3357 109.839 66.4405C109.734 66.5454 109.6 66.6169 109.455 66.6458C109.309 66.6747 109.159 66.6599 109.022 66.6031C108.885 66.5464 108.767 66.4502 108.685 66.3269C108.603 66.2036 108.559 66.0585 108.559 65.9102C108.559 65.7113 108.638 65.5206 108.778 65.38C108.919 65.2393 109.11 65.1603 109.309 65.1602Z" fill="white"/>
    <g clip-path="url(#clip0_1_523)">
        <path fill-rule="evenodd" clip-rule="evenodd" d="M161.538 85.6599H145.538C143.416 85.6598 141.382 84.8169 139.881 83.3167C138.381 81.8164 137.538 79.7816 137.538 77.6599V61.6599C137.538 59.5382 138.381 57.5034 139.881 56.0032C141.382 54.5029 143.416 53.66 145.538 53.6599H161.538C163.66 53.6599 165.695 54.5028 167.195 56.0031C168.695 57.5033 169.538 59.5382 169.538 61.6599V77.6599C169.538 79.7816 168.695 81.8165 167.195 83.3168C165.695 84.8171 163.66 85.6599 161.538 85.6599Z" fill="#1E1E1E"/>
        <path fill-rule="evenodd" clip-rule="evenodd" d="M152.538 62.6599H161.538C162.692 62.6598 163.801 62.2167 164.638 61.4221C165.474 60.6275 165.973 59.542 166.032 58.3899C166.091 57.2378 165.706 56.107 164.955 55.231C164.204 54.3551 163.146 53.8009 161.998 53.6829C161.845 53.6744 161.694 53.6599 161.538 53.6599H145.538C143.416 53.66 141.382 54.5029 139.881 56.0032C138.381 57.5034 137.538 59.5382 137.538 61.6599V77.6599C137.538 73.6817 139.119 69.8664 141.932 67.0534C144.745 64.2404 148.56 62.66 152.538 62.6599Z" fill="#373737"/>
        <path fill-rule="evenodd" clip-rule="evenodd" d="M161.538 69.6599C159.956 69.6599 158.409 70.1291 157.094 71.0082C155.778 71.8872 154.753 73.1366 154.147 74.5984C153.542 76.0603 153.383 77.6688 153.692 79.2206C154 80.7725 154.762 82.1979 155.881 83.3168C157 84.4356 158.426 85.1975 159.977 85.5062C161.529 85.8149 163.138 85.6565 164.6 85.0509C166.061 84.4454 167.311 83.4201 168.19 82.1045C169.069 80.7889 169.538 79.2422 169.538 77.6599V61.6599C169.538 63.7816 168.695 65.8165 167.195 67.3168C165.695 68.8171 163.66 69.6599 161.538 69.6599Z" fill="black"/>
        <g clip-path="url(#clip1_1_523)">
            <path d="M159.527 69.783C159.502 67.0155 161.789 65.6857 161.892 65.6204C160.605 63.7377 158.605 63.4813 157.891 63.4511C156.189 63.2777 154.568 64.4541 153.703 64.4541C152.838 64.4541 151.506 63.4762 150.093 63.5039C148.236 63.5315 146.524 64.5822 145.566 66.2463C143.638 69.5894 145.074 74.5488 146.954 77.2661C147.874 78.5933 148.967 80.0889 150.408 80.0336C151.795 79.9783 152.318 79.1362 153.992 79.1362C155.666 79.1362 156.139 80.0336 157.602 80.006C159.092 79.9758 160.037 78.6486 160.95 77.3164C162.003 75.7755 162.438 74.2824 162.463 74.2045C162.43 74.1919 159.557 73.0909 159.527 69.783Z" fill="white"/>
            <path d="M156.774 61.6539C157.539 60.7289 158.054 59.4419 157.913 58.1599C156.812 58.2052 155.48 58.8939 154.691 59.8189C153.984 60.6358 153.363 61.9455 153.532 63.2023C154.756 63.2978 156.01 62.5764 156.774 61.6539Z" fill="white"/>
        </g>
    </g>
    <defs>
        <clipPath id="clip0_1_523">
            <rect width="32" height="32" fill="white" transform="translate(137.538 53.6599)"/>
        </clipPath>
        <clipPath id="clip1_1_523">
            <rect width="21.875" height="21.875" fill="white" transform="translate(142.601 58.1599)"/>
        </clipPath>
    </defs>
</svg>
