<svg width="40" height="40" viewBox="0 0 40 40" fill="none" xmlns="http://www.w3.org/2000/svg">
    <g clip-path="url(#clip0_1_313)">
        <path fill-rule="evenodd" clip-rule="evenodd" d="M30 40H10C7.34787 39.9999 4.8044 38.9463 2.92906 37.0709C1.05372 35.1956 0.000116023 32.6521 0 30L0 10C0.000116023 7.34787 1.05372 4.8044 2.92906 2.92906C4.8044 1.05372 7.34787 0.000116023 10 0L30 0C32.6522 0 35.1957 1.05357 37.0711 2.92893C38.9464 4.8043 40 7.34784 40 10V30C40 32.6522 38.9464 35.1957 37.0711 37.0711C35.1957 38.9464 32.6522 40 30 40Z" fill="#199BDF"/>
        <path fill-rule="evenodd" clip-rule="evenodd" d="M18.75 11.25H30C31.442 11.2499 32.829 10.696 33.8744 9.70276C34.9198 8.70948 35.5439 7.35266 35.6177 5.9125C35.6915 4.47235 35.2094 3.05885 34.271 1.96391C33.3325 0.868981 32.0095 0.176239 30.575 0.02875C30.3837 0.018125 30.1944 0 30 0H10C7.34787 0.000116023 4.8044 1.05372 2.92906 2.92906C1.05372 4.8044 0.000116023 7.34787 0 10L0 30C0.000116027 25.0272 1.97559 20.2582 5.49188 16.7419C9.00816 13.2256 13.7772 11.2501 18.75 11.25" fill="#32B4FF"/>
        <path fill-rule="evenodd" clip-rule="evenodd" d="M30 20C28.0222 20 26.0888 20.5865 24.4443 21.6853C22.7998 22.7841 21.5181 24.3459 20.7612 26.1732C20.0043 28.0004 19.8063 30.0111 20.1922 31.9509C20.578 33.8907 21.5304 35.6725 22.9289 37.0711C24.3275 38.4696 26.1093 39.422 28.0491 39.8079C29.9889 40.1937 31.9996 39.9957 33.8268 39.2388C35.6541 38.4819 37.2159 37.2002 38.3147 35.5557C39.4135 33.9112 40 31.9778 40 30V10C40 12.6522 38.9464 15.1957 37.0711 17.0711C35.1957 18.9464 32.6522 20 30 20Z" fill="#0082BE"/>
        <path fill-rule="evenodd" clip-rule="evenodd" d="M28.1746 10.6451C28.4818 10.5182 28.8173 10.4753 29.1466 10.5208C29.4758 10.5662 29.7871 10.6984 30.0485 10.9038C30.3099 11.1091 30.512 11.3803 30.6341 11.6894C30.7562 11.9986 30.7939 12.3347 30.7434 12.6632C30.015 17.4001 28.6796 26.0801 27.9707 30.6876C27.9217 31.0064 27.7912 31.3072 27.5919 31.5608C27.3926 31.8145 27.1313 32.0125 26.8331 32.1356C26.5349 32.2587 26.21 32.3028 25.8899 32.2636C25.5697 32.2244 25.265 32.1033 25.0053 31.912C22.4977 30.0645 18.738 27.2945 16.8292 25.8876C16.6819 25.779 16.5602 25.6395 16.4728 25.4787C16.3853 25.318 16.3342 25.14 16.3231 24.9574C16.312 24.7747 16.3411 24.5919 16.4084 24.4217C16.4756 24.2515 16.5795 24.0982 16.7125 23.9726C18.4615 22.3207 21.9452 19.0307 24.342 16.767C24.3984 16.7133 24.4328 16.6405 24.4384 16.5628C24.444 16.4851 24.4203 16.4082 24.3721 16.347C24.3239 16.2858 24.2546 16.2449 24.1777 16.2321C24.1009 16.2194 24.0221 16.2358 23.9567 16.2782C20.8835 18.2826 16.1769 21.352 13.8702 22.8563C13.4379 23.1383 12.952 23.3279 12.443 23.4134C11.934 23.4989 11.4129 23.4784 10.9122 23.3532C9.64198 23.0357 7.80985 22.5776 6.17942 22.1701C5.92415 22.1063 5.69552 21.9636 5.52609 21.7623C5.35666 21.561 5.25506 21.3114 5.23578 21.049C5.2165 20.7866 5.28052 20.5248 5.41871 20.3008C5.5569 20.0769 5.76221 19.9024 6.00542 19.802C11.6812 17.4576 22.7885 12.8701 28.1746 10.6451Z" fill="white"/>
    </g>
    <defs>
        <clipPath id="clip0_1_313">
            <rect width="40" height="40" fill="white"/>
        </clipPath>
    </defs>
</svg>
