<svg width="50" height="50" viewBox="0 0 50 50" fill="none" xmlns="http://www.w3.org/2000/svg">
    <g clip-path="url(#clip0_74_5174)">
        <path d="M36.7033 12.432L39.7304 9.40495L42.6762 12.3508L39.6491 15.3779C42.6403 19.122 44.0843 23.8693 43.6847 28.6448C43.285 33.4203 41.072 37.8616 37.5001 41.0565C33.9282 44.2513 29.2686 45.9572 24.4782 45.8239C19.6879 45.6905 15.1304 43.728 11.7418 40.3394C8.35314 36.9508 6.39062 32.3933 6.25727 27.6029C6.12391 22.8125 7.82984 18.1529 11.0247 14.581C14.2195 11.0091 18.6608 8.7961 23.4363 8.39645C28.2119 7.99679 32.9592 9.44085 36.7033 12.432V12.432ZM24.9991 41.6654C26.9142 41.6654 28.8106 41.2882 30.5799 40.5553C32.3492 39.8224 33.9569 38.7482 35.3111 37.394C36.6653 36.0398 37.7395 34.4322 38.4723 32.6628C39.2052 30.8935 39.5824 28.9971 39.5824 27.082C39.5824 25.1669 39.2052 23.2706 38.4723 21.5012C37.7395 19.7319 36.6653 18.1242 35.3111 16.7701C33.9569 15.4159 32.3492 14.3417 30.5799 13.6088C28.8106 12.8759 26.9142 12.4987 24.9991 12.4987C21.1314 12.4987 17.422 14.0352 14.6871 16.7701C11.9522 19.505 10.4158 23.2143 10.4158 27.082C10.4158 30.9498 11.9522 34.6591 14.6871 37.394C17.422 40.1289 21.1314 41.6654 24.9991 41.6654V41.6654ZM22.9158 16.6654H27.0824V29.1654H22.9158V16.6654ZM16.6658 2.08203H33.3324V6.2487H16.6658V2.08203Z" fill="white"/>
    </g>
    <defs>
        <clipPath id="clip0_74_5174">
            <rect width="50" height="50" fill="white"/>
        </clipPath>
    </defs>
</svg>
