<svg width="50" height="50" viewBox="0 0 50 50" fill="none" xmlns="http://www.w3.org/2000/svg">
    <g clip-path="url(#clip0_79_4947)">
        <path d="M29.1666 29.6916V34.0458C27.281 33.3791 25.263 33.1746 23.282 33.4495C21.301 33.7243 19.4149 34.4705 17.7821 35.6254C16.1492 36.7802 14.8173 38.31 13.8982 40.0862C12.979 41.8624 12.4995 43.8333 12.4999 45.8333L8.33325 45.8312C8.33261 43.2872 8.91434 40.7768 10.0339 38.4924C11.1534 36.208 12.781 34.2102 14.792 32.6521C16.803 31.094 19.144 30.0169 21.6357 29.5033C24.1273 28.9898 26.7034 29.0535 29.1666 29.6895V29.6916ZM24.9999 27.0833C18.0937 27.0833 12.4999 21.4895 12.4999 14.5833C12.4999 7.677 18.0937 2.08325 24.9999 2.08325C31.9062 2.08325 37.4999 7.677 37.4999 14.5833C37.4999 21.4895 31.9062 27.0833 24.9999 27.0833ZM24.9999 22.9166C29.6041 22.9166 33.3333 19.1874 33.3333 14.5833C33.3333 9.97909 29.6041 6.24992 24.9999 6.24992C20.3958 6.24992 16.6666 9.97909 16.6666 14.5833C16.6666 19.1874 20.3958 22.9166 24.9999 22.9166ZM41.6666 35.4166H47.9166V39.5833H41.6666V46.8749L31.2499 37.4999L41.6666 28.1249V35.4166Z" fill="white"/>
    </g>
    <defs>
        <clipPath id="clip0_79_4947">
            <rect width="50" height="50" fill="white"/>
        </clipPath>
    </defs>
</svg>
