<svg width="40" height="40" viewBox="0 0 40 40" fill="none" xmlns="http://www.w3.org/2000/svg">
    <g clip-path="url(#clip0_1_289)">
        <path fill-rule="evenodd" clip-rule="evenodd" d="M30 40H10C7.34787 39.9999 4.8044 38.9463 2.92906 37.0709C1.05372 35.1956 0.000116023 32.6521 0 30L0 10C0.000116023 7.34787 1.05372 4.8044 2.92906 2.92906C4.8044 1.05372 7.34787 0.000116023 10 0L30 0C32.6522 0 35.1957 1.05357 37.0711 2.92893C38.9464 4.8043 40 7.34784 40 10V30C40 32.6522 38.9464 35.1957 37.0711 37.0711C35.1957 38.9464 32.6522 40 30 40Z" fill="#004B9B"/>
        <path fill-rule="evenodd" clip-rule="evenodd" d="M18.75 11.25H30C31.442 11.2499 32.829 10.696 33.8744 9.70276C34.9198 8.70948 35.5439 7.35266 35.6177 5.9125C35.6915 4.47235 35.2094 3.05885 34.271 1.96391C33.3325 0.868981 32.0095 0.176239 30.575 0.02875C30.3837 0.018125 30.1944 0 30 0H10C7.34787 0.000116023 4.8044 1.05372 2.92906 2.92906C1.05372 4.8044 0.000116023 7.34787 0 10L0 30C0.000116027 25.0272 1.97559 20.2582 5.49188 16.7419C9.00816 13.2256 13.7772 11.2501 18.75 11.25" fill="#015DBF"/>
        <path fill-rule="evenodd" clip-rule="evenodd" d="M30 20C28.0222 20 26.0888 20.5865 24.4443 21.6853C22.7998 22.7841 21.5181 24.3459 20.7612 26.1732C20.0043 28.0004 19.8063 30.0111 20.1922 31.9509C20.578 33.8907 21.5304 35.6725 22.9289 37.0711C24.3275 38.4696 26.1093 39.422 28.0491 39.8079C29.9889 40.1937 31.9996 39.9957 33.8268 39.2388C35.6541 38.4819 37.2159 37.2002 38.3147 35.5557C39.4135 33.9112 40 31.9778 40 30V10C40 12.6522 38.9464 15.1957 37.0711 17.0711C35.1957 18.9464 32.6522 20 30 20Z" fill="#004084"/>
        <g clip-path="url(#clip1_1_289)">
            <path fill-rule="evenodd" clip-rule="evenodd" d="M29.6554 20.7648C29.6554 24.3089 28.8565 26.9501 27.2602 28.671C25.6616 30.3946 23.1974 31.252 19.8723 31.252C16.7654 31.252 14.4104 30.3948 12.8012 28.671C11.1945 26.95 10.3906 24.3519 10.3906 20.886C10.3906 17.0054 10.3906 13.125 10.3906 9.24441C10.3906 8.97248 10.6101 8.75 10.8783 8.75H16.5116C16.7798 8.75 16.9992 8.97248 16.9992 9.24441C16.9992 13.2092 16.9992 17.174 16.9992 21.1388C16.9992 22.5556 17.2579 23.647 17.7837 24.4151C18.3072 25.1797 19.0566 25.5633 20.0334 25.5633C21.0153 25.5633 21.7637 25.205 22.2778 24.4835C22.792 23.762 23.0467 22.6979 23.0467 21.2915V19.0641H29.6554V20.7648Z" fill="white"/>
            <path fill-rule="evenodd" clip-rule="evenodd" d="M29.1448 17.7644H23.5576H23.0469V17.2466V15.7288V9.26781C23.0469 8.98302 23.2767 8.75 23.5576 8.75H24.4703C24.4722 11.6507 26.7923 14.0016 29.654 14.0016L29.6555 14.0016V15.7288V17.2466V17.7644H29.1448Z" fill="white"/>
            <path fill-rule="evenodd" clip-rule="evenodd" d="M25.7696 8.75C26.8947 8.75 28.0199 8.75 29.1451 8.75C29.426 8.75 29.6558 8.98302 29.6558 9.26781C29.6558 10.4099 29.6558 11.5521 29.6558 12.6942C27.5095 12.6942 25.7695 10.9302 25.7695 8.75429L25.7696 8.75Z" fill="#FE8700"/>
        </g>
    </g>
    <defs>
        <clipPath id="clip0_1_289">
            <rect width="40" height="40" fill="white"/>
        </clipPath>
        <clipPath id="clip1_1_289">
            <rect width="19.2649" height="23.4375" fill="white" transform="translate(10.3906 8.28125)"/>
        </clipPath>
    </defs>
</svg>
