<svg width="60" height="60" viewBox="0 0 60 60" fill="none" xmlns="http://www.w3.org/2000/svg">
    <g clip-path="url(#clip0_1_653)">
        <path fill-rule="evenodd" clip-rule="evenodd" d="M45 60H15C11.0218 59.9998 7.2066 58.4194 4.39359 55.6064C1.58058 52.7934 0.000174035 48.9782 0 45L0 15C0.000174035 11.0218 1.58058 7.2066 4.39359 4.39359C7.2066 1.58058 11.0218 0.000174035 15 0L45 0C48.9782 0 52.7936 1.58035 55.6066 4.3934C58.4196 7.20644 60 11.0218 60 15V45C60 48.9782 58.4196 52.7936 55.6066 55.6066C52.7936 58.4196 48.9782 60 45 60Z" fill="#232A93"/>
        <path fill-rule="evenodd" clip-rule="evenodd" d="M28.125 16.875H45C47.1631 16.8749 49.2435 16.0441 50.8116 14.5541C52.3797 13.0642 53.3158 11.029 53.4265 8.86875C53.5372 6.70852 52.8141 4.58827 51.4064 2.94587C49.9988 1.30347 48.0142 0.264358 45.8625 0.043125C45.5756 0.0271875 45.2916 0 45 0H15C11.0218 0.000174035 7.2066 1.58058 4.39359 4.39359C1.58058 7.2066 0.000174035 11.0218 0 15L0 45C0.000174041 37.5408 2.96339 30.3872 8.23781 25.1128C13.5122 19.8384 20.6658 16.8752 28.125 16.875Z" fill="#2F37B4"/>
        <path fill-rule="evenodd" clip-rule="evenodd" d="M45 30C42.0333 30 39.1332 30.8797 36.6665 32.528C34.1997 34.1762 32.2771 36.5189 31.1418 39.2597C30.0065 42.0006 29.7094 45.0166 30.2882 47.9264C30.867 50.8361 32.2956 53.5088 34.3934 55.6066C36.4912 57.7044 39.1639 59.133 42.0737 59.7118C44.9834 60.2906 47.9994 59.9935 50.7403 58.8582C53.4812 57.7229 55.8238 55.8003 57.472 53.3336C59.1203 50.8668 60 47.9667 60 45V15C60 18.9782 58.4197 22.7936 55.6066 25.6066C52.7936 28.4196 48.9783 30 45 30Z" fill="#1A1F71"/>
        <path d="M24.6052 23.1023L18.8294 36.8848H15.0594L12.2192 25.8867C12.0443 25.2084 11.8948 24.9616 11.3705 24.6736C10.5117 24.2092 9.09897 23.7737 7.85156 23.5024L7.93888 23.1023H14.0041C14.7777 23.1023 15.4731 23.6182 15.6479 24.5077L17.1498 32.4847L20.8594 23.1023H24.6052ZM39.3719 32.3828C39.3886 28.7472 34.3413 28.5493 34.3776 26.9228C34.3874 26.4264 34.8579 25.9011 35.8886 25.7683C36.4003 25.7003 37.8085 25.6504 39.4046 26.3831L40.0303 23.4619C39.1715 23.1502 38.0676 22.8516 36.6956 22.8516C33.1718 22.8516 30.6912 24.7259 30.6702 27.4078C30.647 29.3909 32.44 30.4977 33.7924 31.1582C35.1812 31.834 35.6455 32.2655 35.6407 32.8716C35.6315 33.7966 34.5325 34.2009 33.5076 34.219C31.7147 34.2469 30.6747 33.7345 29.8442 33.3477L29.1988 36.3695C30.0305 36.7514 31.5708 37.083 33.1648 37.1026C36.9099 37.1026 39.3599 35.2482 39.3719 32.3828ZM48.6774 36.8848H51.9758L49.0977 23.1023H46.0529C45.3687 23.1023 44.7919 23.5013 44.535 24.1125L39.1882 36.8848H42.9306L43.6735 34.8264H48.2481L48.6774 36.8848ZM44.6991 32.0015L46.5766 26.8265L47.6566 32.0015H44.6991ZM29.7003 23.1023L26.7504 36.8848H23.1844L26.135 23.1023H29.7003Z" fill="white"/>
    </g>
    <defs>
        <clipPath id="clip0_1_653">
            <rect width="60" height="60" fill="white"/>
        </clipPath>
    </defs>
</svg>
