<svg width="40" height="40" viewBox="0 0 40 40" fill="none" xmlns="http://www.w3.org/2000/svg">
    <g clip-path="url(#clip0_1_277)">
        <path fill-rule="evenodd" clip-rule="evenodd" d="M40 10V30C39.9999 32.6521 38.9463 35.1956 37.0709 37.0709C35.1956 38.9463 32.6521 39.9999 30 40H10C7.34787 39.9999 4.8044 38.9463 2.92906 37.0709C1.05372 35.1956 0.000116023 32.6521 0 30L0 10C0 7.34784 1.05357 4.8043 2.92893 2.92893C4.8043 1.05357 7.34784 0 10 0H30C32.6522 0 35.1957 1.05357 37.0711 2.92893C38.9464 4.8043 40 7.34784 40 10Z" fill="#232A93"/>
        <path fill-rule="evenodd" clip-rule="evenodd" d="M11.25 21.25V10C11.2499 8.55796 10.696 7.17101 9.70276 6.1256C8.70948 5.08018 7.35266 4.45614 5.9125 4.38235C4.47235 4.30855 3.05885 4.79063 1.96391 5.72904C0.868981 6.66745 0.176239 7.99052 0.02875 9.425C0.018125 9.61625 0 9.80563 0 10L0 30C0.000116023 32.6521 1.05372 35.1956 2.92906 37.0709C4.8044 38.9463 7.34787 39.9999 10 40H30C25.0272 39.9999 20.2582 38.0244 16.7419 34.5081C13.2256 30.9918 11.2501 26.2228 11.25 21.25" fill="#2F37B4"/>
        <path fill-rule="evenodd" clip-rule="evenodd" d="M20 9.99999C20 11.9778 20.5865 13.9112 21.6853 15.5557C22.7841 17.2002 24.3459 18.4819 26.1732 19.2388C28.0004 19.9957 30.0111 20.1937 31.9509 19.8078C33.8907 19.422 35.6725 18.4696 37.0711 17.0711C38.4696 15.6725 39.422 13.8907 39.8079 11.9509C40.1937 10.0111 39.9957 8.00042 39.2388 6.17316C38.4819 4.3459 37.2002 2.78411 35.5557 1.6853C33.9112 0.586485 31.9778 -4.76837e-06 30 -4.76837e-06H10C12.6522 -4.76837e-06 15.1957 1.05356 17.0711 2.92893C18.9464 4.80429 20 7.34783 20 9.99999Z" fill="#1A1F71"/>
        <path d="M15.4015 23.5965L24.5898 27.4471V29.9604L17.2578 31.8539C16.8056 31.9705 16.6411 32.0701 16.449 32.4197C16.1395 32.9922 15.8491 33.934 15.6682 34.7656L15.4015 34.7074V30.6639C15.4015 30.1482 15.7455 29.6846 16.3385 29.568L21.6565 28.5668L15.4015 26.0937V23.5965ZM21.5885 13.7521C19.1648 13.7409 19.0329 17.1058 17.9485 17.0816C17.6176 17.0751 17.2674 16.7614 17.1789 16.0743C17.1336 15.7331 17.1002 14.7943 17.5887 13.7302L15.6412 13.3131C15.4334 13.8857 15.2344 14.6216 15.2344 15.5362C15.2344 17.8854 16.4839 19.5392 18.2718 19.5532C19.594 19.5686 20.3318 18.3733 20.7721 17.4717C21.2227 16.5458 21.5103 16.2364 21.9144 16.2396C22.5311 16.2456 22.8006 16.9783 22.8127 17.6616C22.8313 18.8569 22.4896 19.5502 22.2318 20.1039L24.2463 20.5341C24.501 19.9796 24.722 18.9528 24.7351 17.8901C24.7351 15.3934 23.4988 13.76 21.5885 13.7521ZM24.5898 7.5484V5.34949L15.4015 7.26818V9.29807C15.4015 9.75418 15.6675 10.1387 16.075 10.31L24.5898 13.8745V11.3796L23.2176 10.8843V7.83463L24.5898 7.5484ZM21.3343 10.2006L17.8843 8.94895L21.3343 8.22893V10.2006ZM15.4015 20.1998L24.5898 22.1664V24.5438L15.4015 22.5767V20.1998Z" fill="white"/>
    </g>
    <defs>
        <clipPath id="clip0_1_277">
            <rect width="40" height="40" fill="white" transform="translate(0 40) rotate(-90)"/>
        </clipPath>
    </defs>
</svg>
