<svg width="22" height="22" viewBox="0 0 22 22" fill="none" xmlns="http://www.w3.org/2000/svg">
    <path d="M10.9997 20.1667C5.93692 20.1667 1.83301 16.0628 1.83301 11C1.83301 5.93729 5.93692 1.83337 10.9997 1.83337C16.0624 1.83337 20.1663 5.93729 20.1663 11C20.1663 16.0628 16.0624 20.1667 10.9997 20.1667ZM8.90051 18.0281C7.99614 16.1098 7.47222 14.0344 7.35776 11.9167H3.72317C3.90155 13.3274 4.48577 14.6559 5.40486 15.7408C6.32396 16.8257 7.53835 17.6203 8.90051 18.0281V18.0281ZM9.19384 11.9167C9.33226 14.1525 9.97117 16.2525 10.9997 18.106C12.056 16.2035 12.673 14.0887 12.8055 11.9167H9.19384V11.9167ZM18.2762 11.9167H14.6416C14.5271 14.0344 14.0032 16.1098 13.0988 18.0281C14.461 17.6203 15.6754 16.8257 16.5945 15.7408C17.5136 14.6559 18.0978 13.3274 18.2762 11.9167V11.9167ZM3.72317 10.0834H7.35776C7.47222 7.96568 7.99614 5.89025 8.90051 3.97196C7.53835 4.37976 6.32396 5.1744 5.40486 6.25931C4.48577 7.34423 3.90155 8.67272 3.72317 10.0834V10.0834ZM9.19476 10.0834H12.8046C12.6724 7.91142 12.0556 5.79661 10.9997 3.89404C9.94338 5.79654 9.32635 7.91135 9.19384 10.0834H9.19476ZM13.0988 3.97196C14.0032 5.89025 14.5271 7.96568 14.6416 10.0834H18.2762C18.0978 8.67272 17.5136 7.34423 16.5945 6.25931C15.6754 5.1744 14.461 4.37976 13.0988 3.97196V3.97196Z" fill="#8F8F8F"/>
</svg>
