<svg width="50" height="50" viewBox="0 0 50 50" fill="none" xmlns="http://www.w3.org/2000/svg">
    <g clip-path="url(#clip0_85_4995)">
        <path d="M8.33326 33.3333H41.6666V10.4167H8.33326V33.3333ZM27.0833 37.5V41.6667H35.4166V45.8333H14.5833V41.6667H22.9166V37.5H6.23326C5.95968 37.4984 5.68912 37.4428 5.43708 37.3364C5.18504 37.23 4.95648 37.0749 4.76449 36.88C4.5725 36.6851 4.42086 36.4542 4.31826 36.2006C4.21566 35.947 4.16412 35.6756 4.16659 35.4021V8.34792C4.16659 7.18958 5.11451 6.25 6.23326 6.25H43.7666C44.9083 6.25 45.8333 7.18542 45.8333 8.34792V35.4021C45.8333 36.5604 44.8853 37.5 43.7666 37.5H27.0833V37.5Z" fill="white"/>
    </g>
    <defs>
        <clipPath id="clip0_85_4995">
            <rect width="50" height="50" fill="white"/>
        </clipPath>
    </defs>
</svg>
