<svg width="40" height="40" viewBox="0 0 40 40" fill="none" xmlns="http://www.w3.org/2000/svg">
<g clip-path="url(#clip0_1340_84913)">
<path fill-rule="evenodd" clip-rule="evenodd" d="M10 0L30 0C32.6521 0.000114441 35.1956 1.05372 37.0709 2.92906C38.9463 4.8044 39.9999 7.34787 40 10L40 30C39.9999 32.6521 38.9463 35.1956 37.0709 37.0709C35.1956 38.9463 32.6521 39.9999 30 40L10 40C7.34784 40 4.80429 38.9464 2.92893 37.0711C1.05357 35.1957 0 32.6522 0 30L0 10C0 7.34784 1.05357 4.80429 2.92893 2.92893C4.80429 1.05357 7.34784 0 10 0Z" fill="#FFCF26"/>
<path fill-rule="evenodd" clip-rule="evenodd" d="M21.25 28.75L10 28.75C8.55795 28.7501 7.17101 29.304 6.1256 30.2972C5.08018 31.2905 4.45614 32.6473 4.38235 34.0875C4.30855 35.5277 4.79063 36.9412 5.72904 38.0361C6.66745 39.131 7.99052 39.8238 9.425 39.9712C9.61625 39.9819 9.80563 40 10 40L30 40C32.6521 39.9999 35.1956 38.9463 37.0709 37.0709C38.9463 35.1956 39.9999 32.6521 40 30V10C39.9999 14.9728 38.0244 19.7418 34.5081 23.2581C30.9918 26.7744 26.2228 28.7499 21.25 28.75Z" fill="#FFD954"/>
<path fill-rule="evenodd" clip-rule="evenodd" d="M9.99999 20C11.9778 20 13.9112 19.4135 15.5557 18.3147C17.2002 17.2159 18.4819 15.6541 19.2388 13.8268C19.9957 11.9996 20.1937 9.98891 19.8078 8.0491C19.422 6.10929 18.4696 4.32746 17.0711 2.92893C15.6725 1.53041 13.8907 0.577999 11.9509 0.192146C10.0111 -0.193707 8.00042 0.00432777 6.17316 0.761204C4.3459 1.51808 2.78411 2.79981 1.6853 4.4443C0.586485 6.08879 -3.8147e-06 8.02219 -3.8147e-06 10L-3.8147e-06 30C-3.8147e-06 27.3478 1.05356 24.8043 2.92893 22.9289C4.80429 21.0536 7.34783 20 9.99999 20Z" fill="#FFC700"/>
<path d="M19.9982 33.0469C27.1933 33.0469 33.0469 27.1942 33.0469 20.0004C33.0469 12.8066 27.1933 6.954 19.9982 6.954C12.8044 6.954 6.95176 12.8066 6.95176 20.0004C6.95176 27.1942 12.8044 33.0469 19.9982 33.0469ZM11.2583 26.9502C12.3182 26.4936 13.6194 26.1305 15.0739 25.8792C15.2929 26.9685 15.5741 27.9807 15.9129 28.8845C16.1688 29.5671 16.4536 30.1713 16.7627 30.6935C14.5668 30.0278 12.655 28.7031 11.2583 26.9502ZM23.5877 20.9379C23.5589 21.9156 23.4853 22.8677 23.3692 23.7776C22.2841 23.663 21.1522 23.6026 19.9982 23.6026C18.8451 23.6026 17.7139 23.663 16.6294 23.7774C16.5133 22.8676 16.4398 21.9155 16.411 20.9379H23.5877ZM16.4109 19.0629C16.4398 18.0845 16.5134 17.1317 16.6295 16.2212C17.714 16.3356 18.8451 16.396 19.9982 16.396C21.1521 16.396 22.2839 16.3356 23.3691 16.2211C23.4852 17.1316 23.5589 18.0844 23.5877 19.0629H16.4109ZM22.3298 28.2262C21.6484 30.0431 20.755 31.1719 19.9982 31.1719C19.2424 31.1719 18.3497 30.0432 17.6686 28.2263C17.3759 27.4456 17.1311 26.5704 16.936 25.6279C17.9187 25.5295 18.9465 25.4776 19.9982 25.4776C21.0507 25.4776 22.0793 25.5296 23.0626 25.628C22.8674 26.5705 22.6225 27.4456 22.3298 28.2262ZM23.2356 30.6931C23.5446 30.1711 23.8295 29.567 24.0854 28.8845C24.4243 27.9809 24.7056 26.9686 24.9247 25.8794C26.3791 26.1306 27.6802 26.4936 28.74 26.9501C27.3432 28.7027 25.4314 30.0273 23.2356 30.6931ZM29.7941 25.3696C28.539 24.7912 26.974 24.3374 25.2263 24.0346C25.3541 23.0397 25.4348 22.0011 25.4646 20.9379H31.1322C30.999 22.5332 30.5293 24.0341 29.7941 25.3696ZM29.7932 14.6296C30.5289 15.9654 30.9989 17.467 31.1322 19.0629H25.4646C25.4348 17.9989 25.354 16.9596 25.2261 15.9641C26.9734 15.6614 28.5381 15.2077 29.7932 14.6296ZM28.7386 13.0492C27.6791 13.5054 26.3783 13.8682 24.9244 14.1193C24.7054 13.0305 24.4242 12.0187 24.0854 11.1155C23.8296 10.4334 23.5449 9.82968 23.236 9.30787C25.431 9.97353 27.3421 11.2975 28.7386 13.0492ZM17.6686 11.7738C18.3497 9.95739 19.2423 8.829 19.9982 8.829C20.7551 8.829 21.6485 9.95739 22.3298 11.7739C22.6224 12.554 22.8672 13.4286 23.0623 14.3707C22.0791 14.4691 21.0506 14.521 19.9982 14.521C18.9466 14.521 17.9188 14.4691 16.9362 14.3708C17.1313 13.4287 17.376 12.554 17.6686 11.7738ZM16.7623 9.3075C16.4534 9.82943 16.1687 10.4333 15.9129 11.1155C15.5743 12.0188 15.2931 13.0306 15.0741 14.1194C13.6202 13.8683 12.3193 13.5054 11.2596 13.049C12.6562 11.2971 14.5673 9.97301 16.7623 9.3075ZM10.2052 14.6295C11.4604 15.2078 13.0252 15.6615 14.7725 15.9642C14.6446 16.9597 14.5639 17.9989 14.5341 19.0629L8.86644 19.0629C8.99969 17.467 9.46965 15.9654 10.2052 14.6295ZM8.86645 20.9379L14.5341 20.9379C14.5639 22.0011 14.6445 23.0396 14.7723 24.0345C13.0246 24.3372 11.4596 24.7911 10.2043 25.3697C9.46924 24.0342 8.99964 22.5332 8.86645 20.9379Z" fill="white"/>
</g>
<defs>
<clipPath id="clip0_1340_84913">
<rect width="40" height="40" fill="white" transform="translate(40 40) rotate(-180)"/>
</clipPath>
</defs>
</svg>
