<svg width="252" height="210" viewBox="0 0 252 210" fill="none" xmlns="http://www.w3.org/2000/svg">
<path fill-rule="evenodd" clip-rule="evenodd" d="M219.916 210C239.868 187.708 252 158.271 252 126C252 56.4121 195.588 0 126 0C56.4121 0 0 56.4121 0 126C0 158.271 12.1318 187.708 32.0835 210H219.916Z" fill="#FBDDD5"/>
<path d="M203.216 23.5347H47.5259V210H203.216V23.5347Z" fill="#407BFF"/>
<g opacity="0.4">
<path d="M203.216 23.5347H47.5259V210H203.216V23.5347Z" fill="white"/>
</g>
<g opacity="0.8">
<path d="M202.944 119.963H48.2681V121.9H202.944V119.963Z" fill="white"/>
</g>
<path d="M99.2382 134.871H80.0757V155.572H99.2382V134.871Z" fill="#407BFF"/>
<path d="M136.043 134.871H116.88V155.572H136.043V134.871Z" fill="#407BFF"/>
<path d="M172.847 134.871H153.685V155.572H172.847V134.871Z" fill="#407BFF"/>
<path d="M78.7089 178.455H59.5464V199.156H78.7089V178.455Z" fill="#407BFF"/>
<path d="M191.294 178.455H172.132V199.156H191.294V178.455Z" fill="#407BFF"/>
<path d="M99.2382 41.6289H80.0757V62.3302H99.2382V41.6289Z" fill="#407BFF"/>
<path d="M136.043 41.6289H116.88V62.3302H136.043V41.6289Z" fill="#407BFF"/>
<path d="M172.847 41.6289H153.685V62.3302H172.847V41.6289Z" fill="#407BFF"/>
<path d="M99.2382 72.6221H80.0757V93.3234H99.2382V72.6221Z" fill="#407BFF"/>
<path d="M136.043 72.6221H116.88V93.3234H136.043V72.6221Z" fill="#407BFF"/>
<path d="M172.847 72.6221H153.685V93.3234H172.847V72.6221Z" fill="#407BFF"/>
<g opacity="0.8">
<path d="M103.239 180.881H123.071L122.999 201.474H103.112L103.239 180.881Z" fill="white"/>
</g>
<g opacity="0.8">
<path d="M126.901 180.881H147.557L146.579 201.474H126.692L126.901 180.881Z" fill="white"/>
</g>
<path d="M150.716 205.619H98.3876L98.1704 201.474H150.906L150.716 205.619Z" fill="#407BFF"/>
<g opacity="0.1">
<path d="M150.716 205.619H98.3876L98.1704 201.474H150.906L150.716 205.619Z" fill="white"/>
</g>
<path d="M152.825 210H96.532L96.3057 205.918H153.033L152.825 210Z" fill="#407BFF"/>
<g opacity="0.4">
<path d="M154.689 173.585H94.5225L94.269 168.923H154.925L154.689 173.585Z" fill="white"/>
</g>
<path d="M94.5225 173.585L103.239 180.881H147.557L154.689 173.585H94.5225Z" fill="#263238"/>
<path d="M98.605 176.998L101.683 201.437H104.127L103.14 176.998C102.44 176.638 101.664 176.45 100.877 176.45C100.09 176.45 99.3141 176.638 98.614 176.998H98.605Z" fill="#407BFF"/>
<path d="M151.458 176.998L148.453 201.438H146L146.905 176.998C147.577 176.557 148.364 176.322 149.168 176.322C149.972 176.322 150.758 176.557 151.431 176.998H151.458Z" fill="#407BFF"/>
<path d="M44.1362 19.8232L47.5261 24.2405H202.216L205.61 19.8232H44.1362Z" fill="black"/>
<path d="M47.5259 19.0088H203.216L203.206 24.4398H47.535L47.5259 19.0088Z" fill="white"/>
<path d="M44.127 15.3877H205.619L205.61 19.823H44.136L44.127 15.3877Z" fill="#407BFF"/>
</svg>
