<svg width="252" height="217" viewBox="0 0 252 217" fill="none" xmlns="http://www.w3.org/2000/svg">
<path d="M219.916 217C239.868 194.708 252 165.271 252 133C252 63.4121 195.588 7 126 7C56.4121 7 0 63.4121 0 133C0 165.271 12.1319 194.708 32.0835 217H219.916Z" fill="#FBDDD5"/>
<g opacity="0.8">
<path d="M93.3796 66.2678C93.3796 66.2678 95.9921 77.2767 88.729 86.8647L87.3717 85.9133C87.3717 85.9133 93.1633 74.5435 92.2837 67.4436C91.4041 60.3437 93.3796 66.2678 93.3796 66.2678Z" fill="#AEC3FF"/>
</g>
<path d="M161.131 149.818C161.131 149.818 151.337 143.348 139.397 147.009L139.841 148.671C139.841 148.671 152.992 147.081 159.594 150.467C166.195 153.854 161.131 149.818 161.131 149.818Z" fill="#BBD0FF"/>
<path d="M184.586 100.787C184.586 100.787 173.491 109.037 172.757 123.728L174.775 123.903C174.775 123.903 178.285 108.706 184.687 102.75C191.089 96.7928 184.586 100.787 184.586 100.787Z" fill="#D2E0FF"/>
<path d="M224.251 45.0183L100.564 0L39.0008 169.145L162.688 214.163L224.251 45.0183Z" fill="#739AF0"/>
<path d="M217.321 47.6646L104.174 6.48242L45.968 166.401L159.115 207.584L217.321 47.6646Z" fill="#F3FAFF"/>
<path d="M138.951 13.9727L136.854 19.7345C136.578 20.491 136.454 21.2944 136.489 22.0989C136.524 22.9033 136.717 23.693 137.057 24.4228C137.398 25.1526 137.878 25.8082 138.472 26.3522C139.066 26.8962 139.761 27.3178 140.517 27.593L171.437 38.8469C172.194 39.1218 172.997 39.2451 173.801 39.2096C174.605 39.1741 175.394 38.9806 176.123 38.6401C176.853 38.2996 177.508 37.8188 178.051 37.2252C178.595 36.6315 179.016 35.9366 179.291 35.1802L181.388 29.4184L138.951 13.9727Z" fill="#2B478B"/>
<path d="M81.3407 153.641L67.3413 148.546L66.8256 149.963L80.825 155.058L81.3407 153.641Z" fill="#AEC3FF"/>
<path d="M98.58 159.919L84.5806 154.823L84.0649 156.24L98.0643 161.335L98.58 159.919Z" fill="#AEC3FF"/>
<path d="M85.6111 158.756L66.1968 151.689L65.6811 153.106L85.0954 160.173L85.6111 158.756Z" fill="#AEC3FF"/>
<path d="M179.437 55.1099L125.177 35.3608C123.376 34.7053 121.384 35.6339 120.729 37.435C120.073 39.2361 121.002 41.2276 122.803 41.8831L177.063 61.6322C178.864 62.2878 180.856 61.3591 181.511 59.558C182.167 57.7569 181.238 55.7654 179.437 55.1099Z" fill="#8C9DF4"/>
<path d="M184.373 102.971L163.91 95.523L171.358 75.0596L191.821 82.5077L184.373 102.971ZM165.224 94.9091L183.76 101.656L190.506 83.1197L171.97 76.3732L165.224 94.9091Z" fill="#AFCDFB"/>
<path d="M176.146 95.3201C175.934 95.2421 175.742 95.1184 175.583 94.958C175.424 94.7975 175.302 94.6041 175.226 94.3914L171.683 84.4503C171.559 84.0689 171.588 83.6539 171.765 83.2938C171.942 82.9337 172.253 82.657 172.631 82.5226C173.009 82.3882 173.424 82.4068 173.789 82.5745C174.153 82.7421 174.438 83.0455 174.582 83.42L177.386 91.3003L191.979 79.3922C192.296 79.1459 192.697 79.0334 193.096 79.0787C193.495 79.124 193.861 79.3235 194.115 79.6346C194.369 79.9457 194.491 80.3438 194.455 80.7438C194.42 81.1438 194.229 81.5141 193.925 81.7756L177.639 95.0638C177.448 95.2198 177.223 95.3277 176.981 95.3783C176.74 95.4288 176.49 95.4206 176.253 95.3543C176.22 95.3455 176.183 95.3337 176.146 95.3201Z" fill="#E95530"/>
<path d="M154.466 72.3334L109.005 55.7871L108.279 57.7841L153.739 74.3304L154.466 72.3334Z" fill="#AEC3FF"/>
<path d="M147.658 79.9514L105.761 64.7021L105.034 66.6991L146.931 81.9483L147.658 79.9514Z" fill="#AEC3FF"/>
<path d="M152.844 76.7917L140.452 72.2812L139.725 74.2782L152.117 78.7887L152.844 76.7917Z" fill="#AEC3FF"/>
<path d="M137.017 71.0304L107.382 60.2441L106.655 62.2411L136.29 73.0273L137.017 71.0304Z" fill="#AEC3FF"/>
<path d="M98.1787 53.8666L95.9387 53.691L96.1098 51.9255L99.4983 52.0587L100.886 52.5638L96.7443 63.9432L94.7724 63.2255L98.1787 53.8666Z" fill="#AEC3FF"/>
<path d="M98.2999 63.7042C98.3516 63.562 98.4444 63.4384 98.5664 63.3489C98.6884 63.2595 98.8342 63.2082 98.9854 63.2016C99.1365 63.195 99.2862 63.2334 99.4156 63.3118C99.5449 63.3903 99.6481 63.5054 99.712 63.6425C99.776 63.7797 99.7978 63.9327 99.7748 64.0822C99.7518 64.2317 99.6849 64.3711 99.5827 64.4826C99.4805 64.5942 99.3475 64.6729 99.2006 64.7089C99.0536 64.7448 98.8993 64.7364 98.7571 64.6847C98.5664 64.6153 98.4112 64.473 98.3254 64.2891C98.2397 64.1053 98.2305 63.8948 98.2999 63.7042V63.7042Z" fill="#AEC3FF"/>
<path d="M173.406 133.597L152.943 126.149L160.391 105.686L180.854 113.134L173.406 133.597ZM154.256 125.536L172.793 132.283L179.54 113.748L161.003 107.001L154.256 125.536Z" fill="#AFCDFB"/>
<path d="M165.178 125.947C164.965 125.869 164.773 125.745 164.614 125.585C164.455 125.424 164.334 125.231 164.258 125.018L160.722 115.087C160.653 114.897 160.622 114.694 160.631 114.491C160.64 114.288 160.689 114.089 160.776 113.906C160.862 113.722 160.984 113.557 161.135 113.421C161.285 113.284 161.461 113.179 161.652 113.111C161.843 113.043 162.046 113.013 162.249 113.024C162.452 113.035 162.65 113.086 162.834 113.173C163.017 113.261 163.18 113.384 163.316 113.536C163.451 113.687 163.555 113.864 163.622 114.056L166.425 121.937L181.019 110.028C181.175 109.898 181.355 109.8 181.55 109.74C181.744 109.68 181.948 109.659 182.151 109.679C182.353 109.698 182.55 109.757 182.729 109.853C182.909 109.949 183.067 110.08 183.196 110.238C183.324 110.395 183.421 110.577 183.478 110.772C183.536 110.967 183.555 111.171 183.534 111.374C183.512 111.576 183.45 111.772 183.353 111.95C183.255 112.129 183.123 112.286 182.964 112.413L166.678 125.701C166.487 125.857 166.262 125.964 166.021 126.015C165.779 126.065 165.529 126.057 165.292 125.99C165.252 125.972 165.218 125.961 165.178 125.947Z" fill="#E95530"/>
<path d="M81.6705 91.3176L86.7327 89.4386C88.7445 88.6998 89.5687 88.1842 89.9364 87.1739C90.3405 86.0637 89.7868 85.1409 88.7599 84.7671C87.733 84.3933 86.8274 84.6923 85.5508 85.5054L84.5531 83.907C86.1753 82.7923 87.5447 82.3242 89.5472 83.0531C91.744 83.8526 92.7597 85.7467 92.0188 87.7825C91.3773 89.5449 90.0878 90.1474 87.5236 91.0654L84.5053 92.156L89.8425 94.0986L89.2126 95.8291L81.1028 92.8774L81.6705 91.3176Z" fill="#AEC3FF"/>
<path d="M90.8068 95.5969C90.858 95.4554 90.9501 95.3322 91.0713 95.243C91.1926 95.1538 91.3376 95.1026 91.488 95.0959C91.6384 95.0892 91.7874 95.1272 91.9162 95.2053C92.0449 95.2833 92.1476 95.3978 92.2112 95.5342C92.2749 95.6707 92.2966 95.8229 92.2736 95.9717C92.2506 96.1205 92.184 96.2591 92.0822 96.37C91.9804 96.4809 91.8479 96.5591 91.7016 96.5947C91.5554 96.6302 91.4018 96.6216 91.2604 96.5698C91.0713 96.501 90.9172 96.3598 90.8321 96.1773C90.747 95.9949 90.7379 95.7861 90.8068 95.5969V95.5969Z" fill="#AEC3FF"/>
<path d="M146.027 103.878L98.2559 86.4912L97.529 88.4882L145.3 105.875L146.027 103.878Z" fill="#AEC3FF"/>
<path d="M139.034 111.436L95.0083 95.4121L94.2815 97.4091L138.307 113.433L139.034 111.436Z" fill="#AEC3FF"/>
<path d="M144.404 108.338L131.381 103.599L130.655 105.596L143.677 110.335L144.404 108.338Z" fill="#AEC3FF"/>
<path d="M127.773 102.285L96.6323 90.9512L95.9055 92.9481L127.046 104.282L127.773 102.285Z" fill="#AEC3FF"/>
<path d="M162.197 164.394L141.733 156.946L149.181 136.482L169.645 143.931L162.197 164.394ZM143.047 156.333L161.584 163.08L168.33 144.544L149.793 137.797L143.047 156.333Z" fill="#AFCDFB"/>
<path d="M153.968 156.741C153.756 156.663 153.564 156.539 153.405 156.379C153.246 156.218 153.124 156.025 153.049 155.812L149.513 145.881C149.379 145.498 149.403 145.077 149.579 144.711C149.754 144.344 150.068 144.063 150.45 143.926C150.833 143.79 151.254 143.811 151.622 143.984C151.989 144.157 152.273 144.468 152.412 144.85L155.215 152.731L169.809 140.822C169.965 140.692 170.146 140.594 170.34 140.534C170.535 140.474 170.739 140.453 170.942 140.472C171.144 140.492 171.341 140.551 171.52 140.647C171.699 140.743 171.858 140.874 171.987 141.032C172.115 141.189 172.211 141.371 172.269 141.566C172.327 141.761 172.346 141.965 172.324 142.168C172.303 142.37 172.241 142.566 172.143 142.744C172.045 142.922 171.913 143.08 171.754 143.207L155.466 156.489C155.275 156.643 155.05 156.75 154.809 156.799C154.568 156.848 154.319 156.838 154.083 156.771C154.042 156.766 154.008 156.755 153.968 156.741Z" fill="#E95530"/>
<path d="M134.817 134.674L87.0459 117.287L86.3191 119.284L134.09 136.671L134.817 134.674Z" fill="#AEC3FF"/>
<path d="M127.827 142.23L83.8018 126.206L83.0749 128.203L127.101 144.227L127.827 142.23Z" fill="#AEC3FF"/>
<path d="M133.194 139.131L120.172 134.392L119.445 136.389L132.467 141.128L133.194 139.131Z" fill="#AEC3FF"/>
<path d="M116.566 133.079L85.4253 121.745L84.6985 123.742L115.839 135.076L116.566 133.079Z" fill="#AEC3FF"/>
<path d="M70.4941 121.579L72.2976 120.821C72.7461 122.033 73.4376 122.871 74.6588 123.315C75.7412 123.709 76.7971 123.347 77.1739 122.312C77.5679 121.229 76.802 120.259 75.2644 119.699L74.3707 119.374L74.497 118.051L78.6083 115.979L73.8553 114.249L74.4665 112.569L81.7285 115.213L81.2032 116.656L77.0082 118.682C78.6588 119.566 79.8235 121.003 79.1042 122.98C78.3678 125.003 76.272 125.878 73.9975 125.05C72.0832 124.342 71.0086 123.046 70.4941 121.579Z" fill="#AEC3FF"/>
<path d="M78.6454 125.943C78.6954 125.806 78.7849 125.686 78.9026 125.6C79.0204 125.514 79.1612 125.464 79.3071 125.458C79.453 125.451 79.5975 125.488 79.7223 125.564C79.8472 125.64 79.9468 125.751 80.0085 125.883C80.0702 126.016 80.0913 126.163 80.0691 126.308C80.0469 126.452 79.9823 126.587 79.8837 126.694C79.785 126.802 79.6566 126.878 79.5148 126.913C79.3729 126.947 79.224 126.939 79.0867 126.889C78.9027 126.822 78.7528 126.685 78.6701 126.507C78.5873 126.33 78.5784 126.127 78.6454 125.943V125.943Z" fill="#AEC3FF"/>
<path d="M117.462 171.914C115.466 171.183 113.783 169.787 112.694 167.962C111.605 166.137 111.177 163.992 111.482 161.889C111.506 161.723 111.596 161.574 111.731 161.474C111.865 161.374 112.034 161.331 112.2 161.356C112.366 161.38 112.515 161.47 112.615 161.605C112.715 161.739 112.758 161.908 112.733 162.074C112.469 163.883 112.834 165.727 113.768 167.298C114.701 168.87 116.146 170.073 117.86 170.706C119.575 171.34 121.455 171.365 123.186 170.778C124.917 170.191 126.393 169.027 127.369 167.481C127.462 167.347 127.602 167.254 127.762 167.221C127.922 167.189 128.088 167.219 128.226 167.305C128.364 167.392 128.464 167.529 128.504 167.687C128.544 167.845 128.521 168.012 128.441 168.154C127.31 169.935 125.607 171.278 123.612 171.962C121.616 172.645 119.447 172.628 117.462 171.914Z" fill="#AEC3FF"/>
<path d="M113.03 159.394C112.992 159.38 112.955 159.363 112.92 159.342C112.776 159.256 112.673 159.117 112.633 158.955C112.592 158.793 112.617 158.621 112.702 158.477C113.784 156.677 115.448 155.3 117.419 154.572C119.389 153.845 121.549 153.81 123.541 154.475C125.534 155.139 127.241 156.463 128.38 158.228C129.52 159.992 130.024 162.093 129.809 164.182C129.801 164.265 129.776 164.345 129.736 164.418C129.697 164.491 129.643 164.556 129.579 164.608C129.514 164.66 129.44 164.699 129.36 164.723C129.281 164.747 129.197 164.754 129.115 164.746C129.032 164.737 128.952 164.712 128.879 164.673C128.806 164.633 128.741 164.58 128.689 164.515C128.637 164.451 128.598 164.377 128.574 164.297C128.55 164.217 128.542 164.134 128.551 164.051C128.735 162.248 128.299 160.437 127.315 158.915C126.332 157.393 124.859 156.251 123.14 155.678C121.421 155.105 119.558 155.134 117.857 155.761C116.157 156.389 114.721 157.576 113.786 159.128C113.71 159.253 113.593 159.347 113.455 159.396C113.318 159.444 113.167 159.443 113.03 159.394V159.394Z" fill="#AEC3FF"/>
<path d="M116.13 175.573C113.689 174.684 111.567 173.093 110.032 170.998C108.496 168.904 107.616 166.402 107.503 163.807C107.39 161.213 108.048 158.643 109.395 156.423C110.743 154.203 112.718 152.432 115.071 151.334C117.425 150.237 120.051 149.862 122.618 150.257C125.185 150.652 127.576 151.799 129.491 153.554C131.406 155.308 132.757 157.591 133.374 160.113C133.992 162.636 133.847 165.285 132.959 167.725C131.765 170.995 129.322 173.658 126.167 175.129C123.012 176.601 119.402 176.76 116.13 175.573V175.573ZM124.496 152.586C122.39 151.82 120.104 151.695 117.927 152.228C115.75 152.76 113.78 153.927 112.266 155.579C110.752 157.231 109.762 159.296 109.421 161.511C109.08 163.726 109.404 165.992 110.351 168.023C111.298 170.054 112.826 171.759 114.742 172.922C116.658 174.084 118.876 174.653 121.115 174.555C123.354 174.457 125.513 173.698 127.321 172.373C129.128 171.047 130.502 169.216 131.269 167.11C132.293 164.286 132.155 161.171 130.885 158.448C129.616 155.725 127.318 153.617 124.496 152.586V152.586Z" fill="#AEC3FF"/>
<path d="M123.624 162.577L118.738 160.799L118.453 161.582L123.339 163.36L123.624 162.577Z" fill="#AEC3FF"/>
<path d="M122.46 165.776L117.574 163.998L117.289 164.781L122.175 166.559L122.46 165.776Z" fill="#AEC3FF"/>
<path d="M124.216 164.545L117.023 161.927L116.739 162.709L123.931 165.327L124.216 164.545Z" fill="#AEC3FF"/>
</svg>
