<svg width="290" height="210" viewBox="0 0 290 210" fill="none" xmlns="http://www.w3.org/2000/svg">
<path d="M238.916 210C258.868 187.708 271 158.271 271 126C271 56.4121 214.587 0 145 0C75.4116 0 18.9995 56.4121 18.9995 126C18.9995 158.271 31.1314 187.708 51.083 210H238.916Z" fill="#FBDDD5"/>
<path d="M238.916 210C258.868 187.708 271 158.271 271 126C271 56.4121 214.587 0 145 0C75.4116 0 18.9995 56.4121 18.9995 126C18.9995 158.271 31.1314 187.708 51.083 210H238.916Z" fill="#FBDDD5"/>
<path d="M289.034 161.734C289.117 162.406 288.984 163.088 288.653 163.679C288.323 164.27 287.812 164.741 287.195 165.022C286.579 165.303 285.889 165.379 285.225 165.241C284.562 165.102 283.96 164.755 283.508 164.251C282.315 162.936 278.399 159.507 274.745 159.511C273.018 159.511 271.469 160.297 270.014 161.907C264.4 168.106 272.354 177.253 272.461 177.347C272.994 177.983 273.258 178.801 273.196 179.629C273.134 180.456 272.751 181.226 272.129 181.775C271.507 182.324 270.696 182.609 269.867 182.568C269.039 182.528 268.259 182.165 267.694 181.558C263.581 176.912 257.784 165.931 265.293 157.63C267.956 154.683 271.235 153.129 274.773 153.139C277.898 153.139 281.131 154.318 284.383 156.624C285.783 157.608 287.077 158.736 288.243 159.988C288.683 160.473 288.959 161.084 289.034 161.734Z" fill="#2C3A64"/>
<path d="M268.648 160.325C268.641 160.77 268.507 161.203 268.263 161.574C268.018 161.945 267.673 162.239 267.268 162.421C266.862 162.604 266.413 162.666 265.973 162.603C265.533 162.539 265.121 162.351 264.784 162.061L257.377 155.394C257.137 155.194 256.939 154.949 256.796 154.671C256.654 154.394 256.568 154.09 256.546 153.779C256.523 153.468 256.563 153.155 256.665 152.86C256.766 152.565 256.926 152.293 257.135 152.061C257.344 151.829 257.597 151.642 257.88 151.51C258.163 151.379 258.47 151.306 258.782 151.296C259.094 151.286 259.405 151.339 259.695 151.453C259.986 151.566 260.251 151.737 260.474 151.955L267.881 158.617C268.121 158.833 268.313 159.096 268.445 159.39C268.577 159.684 268.647 160.003 268.648 160.325Z" fill="#2C3A64"/>
<path d="M261.368 158.318L260.736 158.739C260.023 159.213 259.268 159.622 258.481 159.96H258.453C255.921 161.029 253.129 161.32 250.431 160.795C247.733 160.27 245.253 158.953 243.308 157.012C234.951 148.698 223.895 142.929 210.285 139.804C209.761 139.682 209.241 139.57 208.722 139.467C204.162 138.507 199.538 137.882 194.887 137.595C191.949 137.417 189.173 136.193 187.059 134.145C184.946 132.098 183.635 129.362 183.363 126.432L183.325 126.01L183.134 123.91C183.017 122.667 183.166 121.414 183.57 120.233C183.974 119.053 184.624 117.971 185.477 117.061C186.33 116.15 187.367 115.431 188.519 114.951C189.671 114.471 190.912 114.241 192.159 114.276C198.758 114.463 205.33 115.189 211.81 116.447C217.287 117.504 222.674 118.989 227.919 120.887C240.117 125.299 252.792 132.551 263.221 144.421C264.089 145.423 264.734 146.598 265.114 147.867C265.494 149.137 265.6 150.473 265.425 151.787C265.25 153.101 264.797 154.362 264.098 155.488C263.399 156.614 262.468 157.578 261.368 158.318Z" fill="#97BDFF"/>
<path d="M258.453 159.974C255.92 161.042 253.127 161.33 250.429 160.803C247.731 160.275 245.252 158.956 243.308 157.012C234.952 148.698 223.896 142.929 210.285 139.804C209.761 139.682 209.242 139.57 208.722 139.467C209.92 128.21 211.165 116.779 211.165 116.779L211.796 116.442C217.278 117.5 222.669 118.987 227.919 120.887C227.919 120.887 225.351 132.21 234.661 137.694C243.972 143.177 251.613 162.318 258.453 159.974Z" fill="#4C88F2"/>
<path d="M114.51 108.587C109.756 104.325 111.473 97.1428 111.553 96.834L116.087 98.1253L113.817 97.4937L116.091 98.1253C116.091 98.1674 115.071 102.561 117.528 104.765L114.51 108.587Z" fill="#F99746"/>
<path d="M178.366 108.587C183.12 104.325 181.403 97.1428 181.323 96.834L176.789 98.1253L179.058 97.4797L176.785 98.1113C176.785 98.1534 177.805 102.547 175.348 104.751L178.366 108.587Z" fill="#F99746"/>
<path d="M73.3179 112.241V210H194.761V112.241C194.756 110.131 193.917 108.108 192.427 106.614C190.937 105.12 188.917 104.275 186.807 104.264H81.2952C79.8958 104.261 78.521 104.632 77.3136 105.34C76.099 106.037 75.09 107.042 74.3884 108.254C73.6868 109.465 73.3175 110.841 73.3179 112.241Z" fill="#ED7D2B"/>
<path d="M101.255 112.241V210H222.721V112.241C222.715 110.131 221.876 108.109 220.386 106.615C218.897 105.121 216.877 104.276 214.767 104.264H109.237C107.122 104.269 105.096 105.111 103.6 106.605C102.104 108.1 101.261 110.126 101.255 112.241Z" fill="#F99746"/>
<path d="M172.602 99.3838H134.039V104.259H172.602V99.3838Z" fill="#97BDFF"/>
<path d="M141.062 99.3838H118.763V104.259H141.062V99.3838Z" fill="#4C88F2"/>
<path d="M211.651 116.495L206.037 123.48C205.812 123.76 205.527 123.986 205.203 124.142C204.879 124.297 204.524 124.377 204.165 124.377C203.806 124.377 203.451 124.297 203.127 124.142C202.803 123.986 202.518 123.76 202.294 123.48L200.038 120.673L196.436 116.209C196.262 116.003 196.152 115.751 196.118 115.484C196.084 115.217 196.127 114.945 196.243 114.702C196.359 114.459 196.542 114.254 196.772 114.112C197.001 113.971 197.266 113.898 197.535 113.903H210.439C210.739 113.903 211.033 113.99 211.286 114.151C211.539 114.312 211.74 114.542 211.867 114.814C211.994 115.086 212.042 115.388 212.003 115.686C211.965 115.983 211.843 116.264 211.651 116.495Z" fill="#97BDFF"/>
<path d="M211.651 116.494L206.036 123.48C205.811 123.76 205.526 123.986 205.203 124.141C204.879 124.297 204.524 124.377 204.165 124.377C203.806 124.377 203.451 124.297 203.127 124.141C202.803 123.986 202.518 123.76 202.293 123.48L200.038 120.673C201.774 120.301 203.382 119.48 204.702 118.292C206.021 117.104 207.006 115.59 207.557 113.902H210.439C210.739 113.903 211.033 113.989 211.285 114.151C211.538 114.312 211.74 114.542 211.867 114.814C211.994 115.086 212.041 115.388 212.003 115.686C211.965 115.983 211.843 116.264 211.651 116.494Z" fill="#4C88F2"/>
<path d="M94.3301 131.887L95.1068 129.604L95.2612 129.136C96.3545 125.939 96.2677 122.456 95.0165 119.317C93.7654 116.177 91.4324 113.59 88.4395 112.021C83.1589 109.248 78.1112 106.053 73.3456 102.467C60.5304 92.8145 51.6407 81.5573 46.7981 68.9199C45.4944 65.4928 43.0436 62.6232 39.8626 60.7994C36.6817 58.9757 32.9671 58.3103 29.3509 58.9166L28.4806 59.0663C26.9726 59.3227 25.5366 59.8977 24.2683 60.7529C23 61.6081 21.9286 62.7239 21.1256 64.0258C20.3193 65.3217 19.8017 66.776 19.608 68.2898C19.4142 69.8037 19.5488 71.3415 20.0026 72.7986C31.4517 109.85 63.5155 129.646 80.3592 137.74C81.6492 138.36 83.0559 138.699 84.4866 138.736C85.9174 138.772 87.3396 138.505 88.6596 137.952C89.9796 137.399 91.1674 136.573 92.1448 135.527C93.1222 134.482 93.867 133.241 94.3301 131.887Z" fill="#97BDFF"/>
<path d="M94.3352 131.873L95.1118 129.59L95.2663 129.122C96.3554 125.926 96.266 122.446 95.0142 119.31C93.7623 116.174 91.4306 113.589 88.4399 112.021C83.1594 109.248 78.1116 106.053 73.3461 102.467C60.5308 92.8145 51.6411 81.5573 46.7986 68.9199C45.4948 65.4928 43.044 62.6232 39.8631 60.7995C36.6821 58.9757 32.9675 58.3103 29.3513 58.9166L28.4811 59.0663C26.973 59.3227 25.537 59.8977 24.2687 60.7529C23.0004 61.6081 21.929 62.7239 21.126 64.0258C28.219 62.4304 36.4163 62.7813 39.8412 71.1517C46.4476 87.2842 65.9349 104.839 81.6509 114.29C97.0114 123.54 94.4568 131.522 94.3352 131.873Z" fill="#4C88F2"/>
<path d="M30.9839 26.7552C30.2857 26.4101 29.4955 26.2972 28.7285 26.4328C27.9615 26.5684 27.258 26.9456 26.7205 27.5092C26.183 28.0729 25.8396 28.7935 25.7405 29.566C25.6413 30.3386 25.7916 31.1225 26.1694 31.8036C27.1426 33.5909 29.3838 39.1353 27.9988 43.0983C27.3485 44.9698 25.9121 46.3734 23.6195 47.3092C14.7766 51.0522 7.86129 38.9575 7.79111 38.8312C7.31398 37.9855 6.52046 37.364 5.5851 37.1034C4.64975 36.8428 3.64918 36.9645 2.80351 37.4416C1.95784 37.9187 1.33634 38.7122 1.07574 39.6476C0.815137 40.5829 0.936778 41.5835 1.4139 42.4292C4.90429 48.6426 14.6315 59.0717 26.4689 54.0607C30.6798 52.2827 33.59 49.3117 34.9188 45.4704C36.0932 42.0783 36.037 38.1247 34.7597 33.7266C34.2192 31.8302 33.4855 29.9943 32.57 28.2477C32.2065 27.5996 31.6529 27.0787 30.9839 26.7552Z" fill="#2C3A64"/>
<path d="M24.8082 49.4052C24.3229 49.2365 23.799 49.212 23.3001 49.3349C22.8012 49.4577 22.3485 49.7225 21.997 50.0973C21.6455 50.4721 21.4102 50.9408 21.3195 51.4466C21.2289 51.9523 21.2868 52.4736 21.4863 52.9471L25.9218 63.4978C26.0471 63.8342 26.2391 64.1418 26.4863 64.402C26.7335 64.6623 27.0308 64.8699 27.3603 65.0123C27.6898 65.1547 28.0448 65.2291 28.4037 65.2308C28.7627 65.2325 29.1183 65.1617 29.4492 65.0224C29.78 64.8832 30.0793 64.6785 30.3291 64.4206C30.5788 64.1627 30.7738 63.857 30.9023 63.5219C31.0308 63.1867 31.0903 62.829 31.077 62.4703C31.0638 62.1115 30.9781 61.7592 30.8252 61.4344L26.4037 50.8884C26.2571 50.5428 26.0392 50.2321 25.7643 49.9765C25.4894 49.7209 25.1636 49.5262 24.8082 49.4052Z" fill="#2C3A64"/>
<path d="M129.917 37.881C129.917 36.7126 129.571 35.5705 128.922 34.5989C128.273 33.6273 127.351 32.8699 126.272 32.4224C125.192 31.9749 124.005 31.8573 122.859 32.0845C121.713 32.3118 120.66 32.8737 119.833 33.6992C119.006 34.5247 118.442 35.5767 118.213 36.7224C117.984 37.8681 118.1 39.056 118.546 40.1359C118.992 41.2159 119.748 42.1394 120.718 42.7899C121.689 43.4403 122.83 43.7885 123.999 43.7903C124.776 43.7922 125.545 43.6406 126.264 43.3444C126.982 43.0482 127.635 42.6132 128.185 42.0642C128.734 41.5152 129.17 40.8631 129.468 40.1453C129.765 39.4275 129.918 38.658 129.917 37.881Z" fill="#2C3A64"/>
<path d="M123.999 35.6118C124.224 35.6105 124.44 35.5204 124.599 35.361C124.759 35.2016 124.849 34.9857 124.85 34.7602V10.8469C124.849 10.6218 124.759 10.4064 124.599 10.2478C124.44 10.0891 124.224 10 123.999 10C123.774 10.0012 123.56 10.0908 123.401 10.2494C123.243 10.408 123.153 10.6226 123.152 10.8469V34.7602C123.152 34.9852 123.241 35.2011 123.4 35.3607C123.558 35.5203 123.774 35.6105 123.999 35.6118Z" fill="#2C3A64"/>
<path d="M198.635 37.881C198.635 36.7123 198.288 35.5697 197.639 34.598C196.989 33.6262 196.066 32.8688 194.987 32.4215C193.907 31.9742 192.719 31.8572 191.572 32.0852C190.426 32.3132 189.373 32.876 188.547 33.7025C187.72 34.5289 187.157 35.5819 186.929 36.7282C186.701 37.8745 186.818 39.0626 187.266 40.1424C187.713 41.2222 188.47 42.1451 189.442 42.7944C190.414 43.4438 191.556 43.7903 192.725 43.7903C193.501 43.7909 194.27 43.6385 194.987 43.3418C195.705 43.045 196.356 42.6098 196.905 42.0609C197.454 41.512 197.889 40.8604 198.186 40.1431C198.483 39.4259 198.635 38.6572 198.635 37.881Z" fill="#2C3A64"/>
<path d="M184.785 36.5059H91.3028C84.897 36.5059 79.7041 41.6988 79.7041 48.1046V87.7855C79.7041 94.1913 84.897 99.3842 91.3028 99.3842H184.785C191.191 99.3842 196.384 94.1913 196.384 87.7855V48.1046C196.384 41.6988 191.191 36.5059 184.785 36.5059Z" fill="#ED7D2B"/>
<path d="M209.424 36.5059H114.538C108.52 36.5059 103.641 41.3846 103.641 47.4028V88.4873C103.641 94.5055 108.52 99.3842 114.538 99.3842H209.424C215.442 99.3842 220.321 94.5055 220.321 88.4873V47.4028C220.321 41.3846 215.442 36.5059 209.424 36.5059Z" fill="#F99746"/>
<path d="M183.419 77.2012H135.695C135.695 77.2012 140.561 87.298 161.976 87.3027C179.554 87.3074 183.419 77.2012 183.419 77.2012Z" fill="white"/>
<path d="M110.084 70.8574L210.65 70.8574V48.8156L110.084 48.8156V70.8574Z" fill="#4C88F2"/>
<path d="M191.158 60.3252H193.451V58.0326H191.158V60.3252Z" fill="white"/>
<path d="M194.059 60.3252H196.352V58.0326H194.059V60.3252Z" fill="white"/>
<path d="M194.059 63.3242H196.352V61.0316H194.059V63.3242Z" fill="white"/>
<path d="M197.062 60.3252H199.355V58.0326H197.062V60.3252Z" fill="white"/>
<path d="M188.239 60.3252H190.531V58.0326H188.239V60.3252Z" fill="white"/>
<path d="M188.239 63.3242H190.531V61.0316H188.239V63.3242Z" fill="white"/>
<path d="M185.324 60.3252H187.616V58.0326H185.324V60.3252Z" fill="white"/>
<path d="M191.158 57.3584H193.451V55.0658H191.158V57.3584Z" fill="white"/>
<path d="M191.158 54.6025H193.451V52.3099H191.158V54.6025Z" fill="white"/>
<path d="M188.239 57.3584H190.531V55.0658H188.239V57.3584Z" fill="white"/>
<path d="M194.059 57.3584H196.352V55.0658H194.059V57.3584Z" fill="white"/>
<path d="M191.158 63.3242H193.451V61.0316H191.158V63.3242Z" fill="white"/>
<path d="M191.158 66.3467H193.451V64.0541H191.158V66.3467Z" fill="white"/>
<path d="M129.842 60.3252H132.135V58.0326H129.842V60.3252Z" fill="white"/>
<path d="M132.748 60.3252H135.041V58.0326H132.748V60.3252Z" fill="white"/>
<path d="M132.748 63.3242H135.041V61.0316H132.748V63.3242Z" fill="white"/>
<path d="M135.752 60.3252H138.044V58.0326H135.752V60.3252Z" fill="white"/>
<path d="M126.928 60.3252H129.22V58.0326H126.928V60.3252Z" fill="white"/>
<path d="M126.928 63.3242H129.22V61.0316H126.928V63.3242Z" fill="white"/>
<path d="M124.013 60.3252H126.305V58.0326H124.013V60.3252Z" fill="white"/>
<path d="M129.842 57.3584H132.135V55.0658H129.842V57.3584Z" fill="white"/>
<path d="M129.842 54.6025H132.135V52.3099H129.842V54.6025Z" fill="white"/>
<path d="M126.928 57.3584H129.22V55.0658H126.928V57.3584Z" fill="white"/>
<path d="M132.748 57.3584H135.041V55.0658H132.748V57.3584Z" fill="white"/>
<path d="M129.842 63.3242H132.135V61.0316H129.842V63.3242Z" fill="white"/>
<path d="M129.842 66.3467H132.135V64.0541H129.842V66.3467Z" fill="white"/>
<path d="M192.725 35.6118C192.951 35.6105 193.167 35.5204 193.326 35.361C193.485 35.2016 193.576 34.9857 193.577 34.7602V10.8469C193.576 10.6218 193.485 10.4064 193.326 10.2478C193.166 10.0891 192.95 10 192.725 10C192.501 10.0012 192.286 10.0908 192.128 10.2494C191.969 10.408 191.88 10.6226 191.878 10.8469V34.7602C191.878 34.9852 191.967 35.2011 192.126 35.3607C192.285 35.5203 192.5 35.6105 192.725 35.6118Z" fill="#2C3A64"/>
<path d="M129.88 111.53C129.881 111.204 129.785 110.885 129.605 110.613C129.424 110.342 129.167 110.13 128.866 110.005C128.566 109.879 128.234 109.846 127.914 109.909C127.595 109.972 127.301 110.129 127.07 110.359C126.839 110.589 126.682 110.882 126.618 111.202C126.554 111.521 126.586 111.853 126.711 112.154C126.835 112.455 127.046 112.713 127.317 112.894C127.588 113.075 127.907 113.172 128.233 113.172C128.668 113.171 129.086 112.997 129.394 112.69C129.703 112.382 129.877 111.965 129.88 111.53Z" fill="white"/>
<path d="M122.829 111.53C122.83 111.204 122.734 110.885 122.554 110.613C122.373 110.342 122.116 110.13 121.816 110.005C121.515 109.879 121.183 109.846 120.864 109.909C120.544 109.972 120.25 110.129 120.019 110.359C119.788 110.589 119.631 110.882 119.567 111.202C119.503 111.521 119.536 111.853 119.66 112.154C119.785 112.455 119.996 112.713 120.267 112.894C120.538 113.075 120.856 113.172 121.182 113.172C121.618 113.172 122.036 112.999 122.345 112.691C122.654 112.383 122.828 111.966 122.829 111.53Z" fill="white"/>
<path d="M115.848 111.53C115.849 111.203 115.753 110.884 115.572 110.613C115.392 110.341 115.135 110.129 114.834 110.004C114.532 109.879 114.201 109.846 113.881 109.909C113.561 109.973 113.267 110.13 113.037 110.36C112.806 110.591 112.649 110.885 112.586 111.205C112.522 111.525 112.555 111.856 112.68 112.157C112.806 112.458 113.018 112.716 113.289 112.896C113.561 113.077 113.88 113.173 114.206 113.172C114.641 113.171 115.058 112.997 115.366 112.689C115.673 112.382 115.847 111.965 115.848 111.53Z" fill="white"/>
</svg>
