<svg width="252" height="212" viewBox="0 0 252 212" fill="none" xmlns="http://www.w3.org/2000/svg">
<path fill-rule="evenodd" clip-rule="evenodd" d="M219.916 212C239.868 189.708 252 160.271 252 128C252 58.4121 195.588 2 126 2C56.4121 2 0 58.4121 0 128C0 160.271 12.1318 189.708 32.0835 212H219.916Z" fill="#FBDDD5"/>
<mask id="mask0_450_28492" style="mask-type:alpha" maskUnits="userSpaceOnUse" x="0" y="2" width="252" height="210">
<path fill-rule="evenodd" clip-rule="evenodd" d="M219.916 212C239.868 189.708 252 160.271 252 128C252 58.4121 195.588 2 126 2C56.4121 2 0 58.4121 0 128C0 160.271 12.1318 189.708 32.0835 212H219.916Z" fill="#FBDDD5"/>
</mask>
<g mask="url(#mask0_450_28492)">
<path d="M112.92 52.0879C112.92 52.0879 112.416 67.692 110.422 74.6802L94.6167 85.7032L154.112 94.6055L139.923 74.9877C139.923 74.9877 135.639 54.0709 137.882 46.3298C140.125 38.5888 112.92 52.0879 112.92 52.0879Z" fill="#FFB27D"/>
<path d="M112.834 54.2402C112.834 54.2402 117.537 65.5655 126.403 65.3163C135.268 65.0671 137.261 55.0462 137.261 55.0462L112.834 54.2402Z" fill="#ED985F"/>
<path d="M107.57 45.0732C107.57 45.0732 104.706 30.7893 102.708 26.4628C100.709 22.1363 99.0492 2.83133 121.18 1.82923C121.18 1.82923 129.663 2.83132 134.329 0C134.329 0 134.329 2.83134 133.163 3.82813C135.661 3.38841 138.23 3.60153 140.621 4.44689C143.012 5.29224 145.144 6.74113 146.811 8.65304C152.802 15.3125 142.818 38.6099 143.316 44.1029L107.57 45.0732Z" fill="#2C3A64"/>
<path d="M125.385 60.9425C118.964 60.8312 107.146 52.2789 107.146 41.6906V25.1693C107.146 21.304 109.844 18.1387 113.137 18.1387H137.633C140.931 18.1387 143.624 21.3199 143.624 25.1693V40.7574C143.624 51.86 132.749 61.0698 125.385 60.9425Z" fill="#FFB27D"/>
<path d="M169.933 215.424C169.933 215.424 146.297 220 124.728 220C115.322 220 105.11 218.939 96.9658 217.879C87.9522 216.686 81.5207 215.424 81.5207 215.424C81.5207 215.424 76.7489 215.843 79.559 192.211C81.7116 174.227 81.033 157.992 80.5558 141.311C80.5027 139.45 80.5557 137.255 80.6565 134.811C81.5737 115.336 87.4644 80.2734 91.9553 78.3912C91.9553 78.3912 98.6306 75.9098 110.422 74.6797C110.422 74.9077 117.267 84.9127 125.39 86.0368C130.438 84.0379 134.404 82.3253 139.923 75.0031C147.621 75.9076 155.241 77.3767 162.722 79.3985C162.722 79.3985 163.571 83.11 166.779 147.552C168.014 173.081 176.741 215.509 169.933 215.424Z" fill="white"/>
<path d="M96.9658 217.879C87.9522 216.686 81.5207 215.424 81.5207 215.424C81.5207 215.424 76.7489 215.843 79.559 192.212C81.7116 174.227 81.033 157.992 80.5558 141.311C80.5027 139.45 80.5557 137.255 80.6565 134.811C82.035 137.017 97.3899 161.82 101.526 180.25C104.537 193.675 99.9986 209.512 96.9658 217.879Z" fill="#DFEBFD"/>
<path d="M58.7109 155.076C58.1436 155.548 60.1106 160.42 63.0056 166.772C68.9705 179.815 78.8695 199.083 78.8695 199.083C78.1087 202.092 77.1032 205.034 75.8632 207.879C59.2093 194.794 48.4672 183.659 41.6169 175.123C31.9777 163.114 30 156.232 30 156.232C67.1147 80.7455 93.1852 77.9619 93.1852 77.9619L90.0994 127.849C90.0994 127.849 60.4235 153.649 58.7109 155.076Z" fill="white"/>
<path d="M76.8918 200.032C76.8918 200.032 85.8789 191.713 89.5426 196.369C93.2064 201.024 93.8691 208.351 91.0378 207.853C88.2065 207.354 82.3848 204.672 81.5524 206.024C80.72 207.376 76.9925 209.9 75.8632 207.879C74.7338 205.859 76.8918 200.032 76.8918 200.032Z" fill="#FFB27D"/>
<path d="M78.8698 199.083C78.109 202.093 77.1035 205.034 75.8635 207.88C59.2095 194.794 48.4675 183.66 41.6172 175.123C46.7814 174.736 54.3422 172.891 63.0059 166.772C68.9707 179.816 78.8698 199.083 78.8698 199.083Z" fill="#FFB27D"/>
<path d="M222.095 156.232C222.095 156.232 220.123 163.124 210.483 175.123C203.628 183.66 192.891 194.794 176.237 207.88C174.997 205.034 173.992 202.092 173.231 199.083C173.231 199.083 183.13 179.816 189.089 166.772C191.99 160.41 193.957 155.548 193.389 155.076C192.059 153.968 173.931 138.22 165.818 131.216L161.974 127.871L160.124 78.7256C160.124 78.7256 185.012 80.7457 222.095 156.232Z" fill="white"/>
<path d="M175.203 200.032C175.203 200.032 166.189 191.713 162.557 196.369C158.926 201.024 158.231 208.351 161.057 207.853C163.883 207.354 169.71 204.672 170.542 206.024C171.375 207.376 175.102 209.9 176.237 207.879C177.372 205.859 175.203 200.032 175.203 200.032Z" fill="#FFB27D"/>
<path d="M173.231 199.083C173.992 202.092 174.995 205.034 176.232 207.88C192.891 194.794 203.628 183.66 210.484 175.123C205.314 174.736 197.759 172.891 189.09 166.772C183.13 179.816 173.231 199.083 173.231 199.083Z" fill="#FFB27D"/>
<path d="M111.249 70.873C110.421 71.2708 109.689 71.8431 109.104 72.5506C108.518 73.2581 108.092 74.084 107.856 74.9716C107.856 74.9716 118.46 85.8727 125.39 86.0371L111.249 70.873Z" fill="#6A99FF"/>
<path d="M125.39 86.0372L139.064 70.3218C139.064 70.3218 141.89 72.1828 141.848 75.2421C141.848 75.2421 131.27 86.4296 125.39 86.0372Z" fill="#6A99FF"/>
<path d="M122.946 84.881C122.946 84.881 112.506 175.017 116.138 185.982C117.778 190.839 119.91 195.517 122.5 199.942C122.828 200.501 123.296 200.964 123.857 201.286C124.419 201.608 125.055 201.777 125.703 201.777C126.35 201.777 126.987 201.608 127.549 201.286C128.11 200.964 128.578 200.501 128.905 199.942C131.678 195.128 135.3 188.166 135.3 184.629C135.3 178.903 127.378 84.8174 127.378 84.8174L122.946 84.881Z" fill="#8CB0FF"/>
<path d="M120.188 80.4645C120.188 80.4645 126.498 79.8282 130.342 80.2206C130.519 80.238 130.689 80.2997 130.835 80.4C130.982 80.5002 131.102 80.6357 131.182 80.7941C131.263 80.9525 131.303 81.1287 131.298 81.3064C131.293 81.4841 131.243 81.6577 131.153 81.8112C130.093 83.7465 127.882 87.1133 125.586 87.1133C122.357 87.0974 117.331 80.6872 120.188 80.4645Z" fill="#6A99FF"/>
<path d="M120.294 50.3006C120.955 51.1187 121.792 51.7779 122.741 52.2294C123.691 52.6809 124.73 52.9133 125.782 52.9093C126.781 52.8962 127.763 52.6543 128.654 52.202C129.545 51.7498 130.32 51.0993 130.92 50.3006C130.92 50.3006 125.003 49.3144 120.294 50.3006Z" fill="white"/>
</g>
<path d="M107.059 45.0732C107.059 45.0732 104.142 30.7893 102.105 26.4628C100.068 22.1363 98.3774 2.83133 120.927 1.82923C120.927 1.82923 129.571 2.83132 134.325 0C134.325 0 134.325 2.83134 133.137 3.82813C135.682 3.38841 138.3 3.60153 140.736 4.44689C143.172 5.29224 145.345 6.74113 147.043 8.65304C153.148 15.3125 142.975 38.6099 143.483 44.1029L107.059 45.0732Z" fill="#2C3A64"/>
<path d="M125.211 60.9425C118.669 60.8312 106.627 52.2789 106.627 41.6906V25.1693C106.627 21.304 109.377 18.1387 112.732 18.1387H137.691C141.051 18.1387 143.796 21.3199 143.796 25.1693V40.7574C143.796 51.86 132.715 61.0698 125.211 60.9425Z" fill="#FFB27D"/>
<path d="M120.025 50.3006C120.698 51.1187 121.55 51.7779 122.518 52.2294C123.486 52.6809 124.545 52.9133 125.616 52.9093C126.634 52.8962 127.635 52.6543 128.543 52.202C129.45 51.7498 130.24 51.0993 130.851 50.3006C130.851 50.3006 124.822 49.3144 120.025 50.3006Z" fill="white"/>
</svg>
