<svg width="50" height="50" viewBox="0 0 50 50" fill="none" xmlns="http://www.w3.org/2000/svg">
    <path d="M25.2716 1.5625C20.5887 1.5625 15.901 2.77395 11.7065 5.19562C11.5247 5.30092 11.3654 5.441 11.2377 5.60788C11.1099 5.77475 11.0164 5.96515 10.9622 6.16819C10.9081 6.37123 10.8945 6.58295 10.9222 6.79125C10.9499 6.99955 11.0183 7.20036 11.1236 7.3822C11.2289 7.56405 11.369 7.72337 11.5359 7.85108C11.7028 7.97879 11.8932 8.07237 12.0962 8.1265C12.2993 8.18063 12.511 8.19423 12.7193 8.16654C12.9276 8.13884 13.1284 8.07039 13.3102 7.96509C20.7135 3.69078 29.8297 3.69078 37.233 7.96509C37.4152 8.08077 37.6189 8.1584 37.8319 8.19329C38.0449 8.22818 38.2628 8.21962 38.4724 8.16811C38.682 8.11661 38.879 8.02323 39.0516 7.8936C39.2241 7.76396 39.3687 7.60076 39.4766 7.4138C39.5844 7.22683 39.6533 7.01999 39.6791 6.8057C39.705 6.59141 39.6872 6.37411 39.6268 6.16688C39.5665 5.95965 39.4648 5.76678 39.328 5.59986C39.1911 5.43294 39.0219 5.29544 38.8306 5.19562C34.6361 2.77395 29.9545 1.5625 25.2716 1.5625ZM25 7.69348C16.3702 7.69349 8.39205 12.3017 4.07713 19.7754C3.95916 19.9575 3.87947 20.1618 3.84292 20.3757C3.80637 20.5897 3.81373 20.8088 3.86453 21.0198C3.91534 21.2308 4.00854 21.4292 4.13846 21.6031C4.26838 21.7769 4.43231 21.9225 4.62028 22.031C4.80824 22.1395 5.01631 22.2086 5.23183 22.2341C5.44734 22.2597 5.66581 22.2411 5.87392 22.1795C6.08203 22.118 6.27545 22.0148 6.44241 21.8761C6.60936 21.7374 6.74636 21.5663 6.84508 21.373C10.591 14.8849 17.5082 10.8948 25 10.8948C32.4918 10.8948 39.409 14.8849 43.1549 21.373C43.2536 21.5663 43.3906 21.7374 43.5576 21.8761C43.7245 22.0148 43.9179 22.118 44.1261 22.1795C44.3342 22.2411 44.5526 22.2597 44.7681 22.2341C44.9837 22.2086 45.1917 22.1395 45.3797 22.031C45.5677 21.9225 45.7316 21.7769 45.8615 21.6031C45.9914 21.4292 46.0846 21.2308 46.1354 21.0198C46.1862 20.8088 46.1936 20.5897 46.1571 20.3757C46.1205 20.1618 46.0408 19.9575 45.9228 19.7754C41.6079 12.3017 33.6298 7.69348 25 7.69348ZM24.8733 13.7634C18.5852 13.9074 12.5159 17.2117 9.11711 23.0148C9.08642 23.0581 9.0579 23.103 9.03166 23.1491C6.68674 27.2107 5.45042 31.8153 5.45043 36.5051C5.46072 36.9226 5.6338 37.3195 5.93271 37.6112C6.23163 37.9028 6.6327 38.066 7.05031 38.066C7.46792 38.066 7.86899 37.9028 8.16791 37.6112C8.46682 37.3195 8.6399 36.9226 8.65019 36.5051C8.65019 32.4073 9.72239 28.3834 11.7569 24.8276C11.7823 24.7919 11.8062 24.7553 11.8286 24.7177C16.1252 17.2757 25.5918 14.7341 33.0337 19.0308C40.4757 23.3274 43.0112 32.8016 38.7146 40.2435C37.6956 42.0086 35.4915 42.5992 33.7265 41.5802C31.9615 40.5612 31.3631 38.351 32.3822 36.586C32.4145 36.5313 32.4436 36.4748 32.4692 36.4166C34.2583 33.1125 33.1008 28.9206 29.8279 27.0309C28.1636 26.0701 26.2544 25.8802 24.5224 26.3443C22.8423 26.7945 21.3308 27.8654 20.3644 29.4479C20.3308 29.4941 20.2997 29.5419 20.2713 29.5914C17.1936 34.9221 17.372 41.5362 20.7275 46.6965C20.8376 46.8818 20.984 47.0429 21.1579 47.1703C21.3319 47.2976 21.5297 47.3885 21.7396 47.4375C21.9495 47.4864 22.1672 47.4925 22.3795 47.4553C22.5918 47.418 22.7944 47.3383 22.9751 47.2208C23.1559 47.1034 23.311 46.9506 23.4312 46.7717C23.5514 46.5928 23.6343 46.3914 23.6747 46.1797C23.7152 45.968 23.7125 45.7503 23.6667 45.5396C23.621 45.329 23.5331 45.1298 23.4085 44.9539C20.7057 40.7974 20.5664 35.4873 23.0453 31.1935C24.1024 29.3627 26.3933 28.7479 28.2242 29.805C30.0551 30.862 30.6713 33.1529 29.6142 34.9838C29.5737 35.0498 29.538 35.1187 29.5074 35.1898C27.7851 38.4222 28.9279 42.5051 32.1228 44.3497C35.3488 46.2122 39.506 45.1234 41.42 41.9449C41.4442 41.9107 41.4671 41.8756 41.4886 41.8396C46.6499 32.9001 43.577 21.4241 34.6374 16.2628C32.4025 14.9725 30.0032 14.197 27.5894 13.8992C26.6842 13.7876 25.7769 13.7427 24.8733 13.7634ZM25.9582 20.2713C21.5324 20.2713 17.4391 22.616 15.1901 26.4206C15.1658 26.4558 15.1429 26.4919 15.1214 26.5289C15.0937 26.5744 15.0682 26.6213 15.0452 26.6693C12.0244 31.9856 11.2139 38.2837 12.7975 44.194C12.8521 44.397 12.9462 44.5873 13.0743 44.7539C13.2024 44.9205 13.3621 45.0603 13.5443 45.1652C13.7264 45.2702 13.9274 45.3382 14.1359 45.3654C14.3443 45.3926 14.5561 45.3785 14.7591 45.3239C14.962 45.2693 15.1523 45.1753 15.3189 45.0472C15.4856 44.919 15.6253 44.7593 15.7303 44.5772C15.8352 44.3951 15.9032 44.194 15.9304 43.9856C15.9577 43.7772 15.9436 43.5654 15.889 43.3624C14.5108 38.2191 15.227 32.744 17.8894 28.1326C19.5548 25.2481 22.6275 23.4726 25.9582 23.4726C29.289 23.4726 32.3602 25.2481 34.0256 28.1326C35.691 31.0172 35.691 34.5605 34.0256 37.4451C33.8137 37.8129 33.7567 38.2499 33.867 38.6598C33.9773 39.0697 34.2459 39.419 34.6138 39.6309C34.9816 39.8427 35.4186 39.8998 35.8285 39.7895C36.2384 39.6792 36.5878 39.4105 36.7996 39.0427C39.034 35.1726 39.034 30.399 36.7996 26.5289C34.5652 22.6588 30.427 20.2713 25.9582 20.2713ZM26.4587 31.1829C26.1713 31.1799 25.8884 31.2545 25.6398 31.3987C25.3912 31.5429 25.186 31.7514 25.0458 32.0023C21.7783 37.6616 23.7352 44.9458 29.3945 48.2132C29.5767 48.3181 29.7777 48.3861 29.9861 48.4133C30.1945 48.4405 30.4063 48.4264 30.6093 48.3718C30.8122 48.3172 31.0025 48.2231 31.1691 48.095C31.3357 47.9668 31.4754 47.8071 31.5803 47.625C31.6852 47.4428 31.7532 47.2418 31.7804 47.0334C31.8077 46.8249 31.7936 46.6132 31.7389 46.4102C31.6843 46.2073 31.5902 46.017 31.4621 45.8504C31.334 45.6838 31.1743 45.544 30.9921 45.4391C26.8304 43.0364 25.417 37.7616 27.8198 33.5999C27.9634 33.358 28.0408 33.0825 28.044 32.8013C28.0473 32.52 27.9763 32.2428 27.8383 31.9977C27.7002 31.7526 27.5 31.5483 27.2578 31.4052C27.0156 31.2621 26.74 31.1854 26.4587 31.1829Z" fill="#9F87FF"/>
</svg>
