<svg width="46" height="46" viewBox="0 0 46 46" fill="none" xmlns="http://www.w3.org/2000/svg">
    <path d="M5.5 20.75L10.5 15.75L24.25 29.5L33 20.75L40.5 28.25V5.5H5.5V20.75ZM5.5 27.8225V40.5H13.25L20.715 33.0375L10.5 22.8225L5.5 27.8225ZM20.3225 40.5H40.5V35.3225L33 27.8225L20.3225 40.5ZM3 0.5H43C43.663 0.5 44.2989 0.763392 44.7678 1.23223C45.2366 1.70107 45.5 2.33696 45.5 3V43C45.5 43.663 45.2366 44.2989 44.7678 44.7678C44.2989 45.2366 43.663 45.5 43 45.5H3C2.33696 45.5 1.70107 45.2366 1.23223 44.7678C0.763392 44.2989 0.5 43.663 0.5 43V3C0.5 2.33696 0.763392 1.70107 1.23223 1.23223C1.70107 0.763392 2.33696 0.5 3 0.5ZM31.75 18C30.7554 18 29.8016 17.6049 29.0983 16.9017C28.3951 16.1984 28 15.2446 28 14.25C28 13.2554 28.3951 12.3016 29.0983 11.5983C29.8016 10.8951 30.7554 10.5 31.75 10.5C32.7446 10.5 33.6984 10.8951 34.4016 11.5983C35.1049 12.3016 35.5 13.2554 35.5 14.25C35.5 15.2446 35.1049 16.1984 34.4016 16.9017C33.6984 17.6049 32.7446 18 31.75 18Z" fill="#8F73FF"/>
</svg>
