<svg width="50" height="50" viewBox="0 0 50 50" fill="none" xmlns="http://www.w3.org/2000/svg">
    <path d="M5.46875 11.7188C6.54746 11.7188 7.42188 10.8443 7.42188 9.76562V5.85938C7.42188 4.78242 8.29805 3.90625 9.375 3.90625H13.2812C14.36 3.90625 15.2344 3.03184 15.2344 1.95312C15.2344 0.874414 14.36 0 13.2812 0H9.375C6.14414 0 3.51562 2.62852 3.51562 5.85938V9.76562C3.51562 10.8443 4.39004 11.7188 5.46875 11.7188ZM36.7188 3.90625H40.625C41.702 3.90625 42.5781 4.78242 42.5781 5.85938V9.76562C42.5781 10.8443 43.4525 11.7188 44.5312 11.7188C45.61 11.7188 46.4844 10.8443 46.4844 9.76562V5.85938C46.4844 2.62852 43.8559 0 40.625 0H36.7188C35.64 0 34.7656 0.874414 34.7656 1.95312C34.7656 3.03184 35.64 3.90625 36.7188 3.90625ZM13.2812 46.0938H9.375C8.29805 46.0938 7.42188 45.2176 7.42188 44.1406V40.2344C7.42188 39.1557 6.54746 38.2812 5.46875 38.2812C4.39004 38.2812 3.51562 39.1557 3.51562 40.2344V44.1406C3.51562 47.3715 6.14414 50 9.375 50H13.2812C14.36 50 15.2344 49.1256 15.2344 48.0469C15.2344 46.9682 14.36 46.0938 13.2812 46.0938ZM30.8594 32.8125C30.8594 31.7338 29.985 30.8594 28.9062 30.8594C27.8275 30.8594 26.9531 31.7338 26.9531 32.8125C26.9531 33.8895 26.077 34.7656 25 34.7656C23.923 34.7656 23.0469 33.8895 23.0469 32.8125C23.0469 31.7338 22.1725 30.8594 21.0938 30.8594C20.015 30.8594 19.1406 31.7338 19.1406 32.8125C19.1406 36.0434 21.7691 38.6719 25 38.6719C28.2309 38.6719 30.8594 36.0434 30.8594 32.8125ZM39.0572 31.0046C38.059 30.5966 36.9186 31.075 36.5104 32.0735C33.8618 38.553 29.4514 42.5781 25 42.5781C20.5486 42.5781 16.1382 38.553 13.4896 32.0735C13.0815 31.075 11.9414 30.5965 10.9428 31.0046C9.94424 31.4127 9.46572 32.553 9.87393 33.5515C11.3818 37.2409 13.4799 40.3818 15.9409 42.6349C18.6918 45.1532 21.8244 46.4844 25 46.4844C28.1756 46.4844 31.3082 45.1532 34.0592 42.6349C36.5202 40.3818 38.6183 37.2409 40.1262 33.5515C40.5343 32.553 40.0558 31.4127 39.0572 31.0046ZM48.0469 23.0469H42.5171C42.5572 22.3925 42.5781 21.74 42.5781 21.0938C42.5781 11.4012 34.6926 3.51562 25 3.51562C15.3074 3.51562 7.42188 11.4012 7.42188 21.0938C7.42188 21.74 7.44277 22.3925 7.48291 23.0469H1.95312C0.874414 23.0469 0 23.9213 0 25C0 26.0787 0.874414 26.9531 1.95312 26.9531H40.367C40.3692 26.9531 40.3715 26.9533 40.3736 26.9533L40.3783 26.9531H48.0469C49.1256 26.9531 50 26.0787 50 25C50 23.9213 49.1256 23.0469 48.0469 23.0469ZM38.6025 23.0469H11.3975C11.3519 22.392 11.3281 21.7392 11.3281 21.0938C11.3281 13.5551 17.4613 7.42188 25 7.42188C32.5387 7.42188 38.6719 13.5551 38.6719 21.0938C38.6719 21.7392 38.6481 22.392 38.6025 23.0469ZM44.5312 38.2812C43.4525 38.2812 42.5781 39.1557 42.5781 40.2344V44.1406C42.5781 45.2176 41.702 46.0938 40.625 46.0938H36.7188C35.64 46.0938 34.7656 46.9682 34.7656 48.0469C34.7656 49.1256 35.64 50 36.7188 50H40.625C43.8559 50 46.4844 47.3715 46.4844 44.1406V40.2344C46.4844 39.1557 45.61 38.2812 44.5312 38.2812Z" fill="#9F87FF"/>
</svg>
