<svg width="62" height="50" viewBox="0 0 62 50" fill="none" xmlns="http://www.w3.org/2000/svg">
    <path d="M59.2949 9.18359H5.58932C5.0848 9.18516 4.58273 9.25379 4.0963 9.38768C2.97699 9.71161 1.99339 10.3908 1.29393 11.3228C0.594476 12.2547 0.217102 13.3889 0.218755 14.5542V44.6293C0.218755 46.0537 0.784581 47.4197 1.79176 48.4268C2.79893 49.434 4.16495 49.9999 5.58932 49.9999H54.9985C56.043 49.9993 57.0647 49.6942 57.9384 49.1219C58.8122 48.5495 59.5001 47.7348 59.9179 46.7775C60.2164 46.1007 60.37 45.369 60.369 44.6293V10.2577C60.369 9.97283 60.2559 9.69963 60.0544 9.49819C59.853 9.29676 59.5798 9.18359 59.2949 9.18359Z" fill="#4CE166"/>
    <path d="M43.5252 27.3468L46.7475 24.1245L45.2223 22.61L36.1031 31.7399L28.0043 23.6519L42.5263 9.18359H5.58756C5.08304 9.18516 4.58097 9.25379 4.09454 9.38768C3.36644 9.60005 2.69244 9.96635 2.11818 10.4618L20.1203 28.5176L1.03333 47.4757C1.41738 48.0895 1.92158 48.6192 2.5156 49.0331C3.41659 49.662 4.48879 49.9995 5.58756 49.9999H20.8614L42.0107 28.8613L59.9161 46.7775C60.2146 46.1007 60.3683 45.369 60.3673 44.6293V44.1782L43.5252 27.3468Z" fill="#00DF77"/>
    <path d="M20.122 28.5175L1.03508 47.4756C0.501608 46.622 0.218746 45.6357 0.21875 44.6292V14.554C0.219793 13.7748 0.390383 13.0052 0.718682 12.2985C1.04698 11.5918 1.52513 10.965 2.11993 10.4617L20.122 28.5175Z" fill="#59C7FF"/>
    <path d="M59.9188 46.7775C59.501 47.7348 58.8131 48.5495 57.9394 49.1219C57.0656 49.6942 56.0439 49.9993 54.9994 49.9999H20.8641L42.0134 28.8613L59.9188 46.7775Z" fill="#A8EEFC"/>
    <path d="M60.37 10.2577V44.1782L43.5279 27.3468L46.7502 24.1245L45.225 22.61L36.1058 31.74L28.007 23.6519L42.529 9.18359H59.2958C59.5807 9.18359 59.8539 9.29676 60.0554 9.49819C60.2568 9.69963 60.37 9.97283 60.37 10.2577Z" fill="#59C7FF"/>
    <path d="M43.5269 27.3468L46.7493 24.1245L45.224 22.61L36.1048 31.7399L28.006 23.6519L42.528 9.18359H39.4775L21.701 26.9494L16.3304 21.5788L28.6398 9.18359H25.6L14.7193 20.0214L4.09629 9.38768C3.36819 9.60005 2.69419 9.96635 2.11993 10.4618L9.295 17.6369L0.21875 26.7131V29.7421L10.8095 19.1514L20.122 28.5176L1.03508 47.4757C1.41913 48.0895 1.92333 48.6192 2.51735 49.0331L15.7289 35.8753L23.8492 43.9956L17.8342 49.9999H20.8632L42.0125 28.8613L59.9179 46.7775C60.2164 46.1007 60.37 45.369 60.369 44.6293V44.1782L43.5269 27.3468ZM25.3637 42.4811L17.2434 34.3715L26.4915 25.1664L34.5903 33.2544L25.3637 42.4811Z" fill="#FFE689"/>
    <path d="M57.8281 23.6299H49.2352V21.4817H57.8281V23.6299Z" fill="#FFDB56"/>
    <path d="M61.7199 8.5962C61.7149 10.2158 61.2552 11.8015 60.393 13.1726C59.5309 14.5437 58.301 15.6451 56.8434 16.3513C55.7473 18.0955 54.8365 19.9494 54.1259 21.883C54.0463 22.0828 53.9085 22.2542 53.7304 22.3748C53.5523 22.4955 53.3421 22.5599 53.127 22.5597C52.9118 22.5599 52.7016 22.4955 52.5235 22.3748C52.3454 22.2542 52.2076 22.0828 52.128 21.883C51.4313 19.9401 50.5198 18.0811 49.4105 16.3405C48.0253 15.6761 46.8436 14.6524 45.9884 13.3761C45.1332 12.0998 44.6359 10.6176 44.5481 9.08376C44.4603 7.54995 44.7854 6.02065 45.4894 4.65514C46.1934 3.28963 47.2507 2.13784 48.5511 1.31972C49.8514 0.501596 51.3474 0.0470661 52.8831 0.0034624C54.4188 -0.0401413 55.9381 0.328775 57.2828 1.07179C58.6275 1.81481 59.7484 2.90476 60.5288 4.22812C61.3091 5.55149 61.7204 7.05988 61.7199 8.5962Z" fill="#9F87FF"/>
    <path d="M53.127 0.00314905C52.768 0.00287957 52.4093 0.0244018 52.0529 0.0675962C53.8974 0.296206 55.6182 1.11675 56.9569 2.40613C58.2956 3.6955 59.1802 5.3842 59.4779 7.21889C59.7756 9.05358 59.4704 10.9353 58.6081 12.5819C57.7458 14.2284 56.3728 15.551 54.6952 16.3511C53.6272 18.043 52.7415 19.8432 52.0529 21.7217C52.0825 21.7806 52.1076 21.8416 52.128 21.9043C52.2072 22.1046 52.3448 22.2765 52.523 22.3977C52.7011 22.5188 52.9115 22.5836 53.127 22.5836C53.3424 22.5836 53.5528 22.5188 53.731 22.3977C53.9091 22.2765 54.0467 22.1046 54.1259 21.9043C54.8365 19.9707 55.7473 18.1168 56.8434 16.3726C58.6162 15.5394 60.0512 14.1255 60.9104 12.3651C61.7697 10.6047 62.0017 8.60363 61.568 6.69336C61.1343 4.7831 60.0609 3.07835 58.5258 1.86161C56.9906 0.64486 55.0858 -0.0108426 53.127 0.00314905Z" fill="#8F73FF"/>
    <path d="M57.4233 8.59625C57.4233 9.44601 57.1714 10.2767 56.6993 10.9832C56.2272 11.6898 55.5561 12.2405 54.7711 12.5657C53.986 12.8908 53.1221 12.9759 52.2887 12.8101C51.4553 12.6444 50.6897 12.2352 50.0888 11.6343C49.488 11.0334 49.0788 10.2679 48.913 9.43445C48.7472 8.60102 48.8323 7.73715 49.1575 6.95207C49.4827 6.167 50.0334 5.49599 50.7399 5.02389C51.4465 4.55179 52.2771 4.2998 53.1269 4.2998C54.2664 4.2998 55.3592 4.75246 56.1649 5.55821C56.9707 6.36395 57.4233 7.45676 57.4233 8.59625Z" fill="white"/>
</svg>
