<svg width="50" height="50" viewBox="0 0 50 50" fill="none" xmlns="http://www.w3.org/2000/svg">
    <g clip-path="url(#clip0_1_6047)">
        <path d="M47.5087 33.9356C47.398 33.9356 47.2855 33.9264 47.173 33.9066C46.1098 33.7223 45.398 32.7114 45.5822 31.6486C45.9614 29.4605 46.1655 27.2236 46.1888 25C46.1075 17.152 43.8191 9.5516 39.571 3.01778C38.9828 2.1137 39.2395 0.903673 40.1436 0.315827C41.0481 -0.272018 42.2577 -0.0156701 42.846 0.888795C47.5029 8.05128 50.0096 16.3822 50.095 24.9805V25.0195C50.0706 27.4597 49.8475 29.9145 49.4309 32.3162C49.2661 33.2661 48.441 33.9356 47.5087 33.9356ZM42.846 49.1112C44.3566 46.788 45.657 44.3096 46.7118 41.745C47.1222 40.7475 46.6458 39.6061 45.6482 39.196C44.6507 38.7856 43.5093 39.2616 43.0993 40.2592C42.1368 42.5999 40.9497 44.8616 39.571 46.9818C38.9828 47.8863 39.2395 49.0959 40.1436 49.6842C40.4725 49.8978 40.8413 50 41.2064 50C41.8454 50 42.4717 49.6868 42.846 49.1112ZM33.3565 44.0209C37.1262 38.3946 39.1663 31.826 39.2559 25.0256C39.2563 25.0084 39.2563 24.9912 39.2559 24.9741C39.1663 18.1736 37.1262 11.6051 33.3565 5.97913C32.7561 5.08306 31.5426 4.84311 30.6469 5.44355C29.7505 6.04398 29.5109 7.25706 30.1113 8.15313C33.4542 13.1424 35.2654 18.967 35.3497 25C35.2654 31.0326 33.4542 36.8572 30.1113 41.8465C29.5109 42.7426 29.7509 43.9556 30.6469 44.5561C30.9807 44.78 31.3584 44.8868 31.7322 44.8868C32.3616 44.8868 32.9796 44.5831 33.3565 44.0209ZM24.7555 35.8696C25.7775 35.5766 26.6094 34.8057 26.981 33.8081C28.0571 30.9185 28.5733 27.9423 28.5149 24.9615C28.4214 20.2049 26.9032 15.5853 24.1245 11.6024C23.5073 10.7181 22.2897 10.5011 21.4051 11.1183C20.5204 11.7355 20.3037 12.9532 20.921 13.8378C23.2559 17.1844 24.5312 21.0575 24.6094 25.0381C24.6537 27.2877 24.3031 29.5406 23.5672 31.7463L5.65148 17.9714C4.87137 17.3714 3.84674 17.1959 2.91062 17.5011C1.9764 17.8062 1.25427 18.5509 0.978852 19.4939C0.576783 20.8691 0.0976562 23.0595 0.0976562 25.6832C0.0976562 30.3062 2.74086 34.4372 2.85301 34.6108C3.43895 35.5145 4.6444 35.7712 5.54925 35.1879C6.45447 34.6043 6.71502 33.3962 6.13328 32.4898C6.1123 32.4566 4.00391 29.1306 4.00391 25.6832C4.00391 24.242 4.17901 22.9607 4.39339 21.9315L21.7869 35.3046C22.3843 35.7636 23.0934 36.0024 23.8201 36.0024C24.1314 36.0024 24.4457 35.9589 24.7555 35.8696Z" fill="#9F87FF"/>
    </g>
    <defs>
        <clipPath id="clip0_1_6047">
            <rect width="50" height="50" fill="white"/>
        </clipPath>
    </defs>
</svg>
