<svg width="279" height="94" viewBox="0 0 279 94" fill="none" xmlns="http://www.w3.org/2000/svg">
    <path d="M271.707 0.292892C271.317 -0.0976296 270.683 -0.0976295 270.293 0.292892L263.929 6.65685C263.538 7.04738 263.538 7.68054 263.929 8.07107C264.319 8.46159 264.953 8.46159 265.343 8.07107L271 2.41422L276.657 8.07107C277.047 8.46159 277.681 8.46159 278.071 8.07107C278.462 7.68054 278.462 7.04738 278.071 6.65685L271.707 0.292892ZM272 48L272 1L270 1L270 48L272 48Z" fill="#D0CAFF"/>
    <path d="M8.7071 0.292892C8.31658 -0.0976296 7.68342 -0.0976295 7.29289 0.292892L0.92893 6.65685C0.538406 7.04738 0.538406 7.68054 0.92893 8.07107C1.31945 8.46159 1.95262 8.46159 2.34314 8.07107L8 2.41422L13.6569 8.07107C14.0474 8.46159 14.6805 8.46159 15.0711 8.07107C15.4616 7.68054 15.4616 7.04738 15.0711 6.65685L8.7071 0.292892ZM9 48L9 1L7 1L7 48L9 48Z" fill="#D0CAFF"/>
    <path d="M140.707 0.292892C140.317 -0.0976334 139.683 -0.0976333 139.293 0.292892L132.929 6.65685C132.538 7.04738 132.538 7.68054 132.929 8.07107C133.319 8.46159 133.953 8.46159 134.343 8.07107L140 2.41422L145.657 8.07107C146.047 8.46159 146.681 8.46159 147.071 8.07107C147.462 7.68054 147.462 7.04738 147.071 6.65685L140.707 0.292892ZM141 94L141 1L139 1L139 94L141 94Z" fill="#D0CAFF"/>
    <line x1="272" y1="48" x2="7" y2="48" stroke="#D0CAFF" stroke-width="2"/>
</svg>
