<svg width="996" height="123" viewBox="0 0 996 123" fill="none" xmlns="http://www.w3.org/2000/svg">
    <path d="M7.29289 122.707C7.68342 123.098 8.31658 123.098 8.70711 122.707L15.0711 116.343C15.4616 115.953 15.4616 115.319 15.0711 114.929C14.6805 114.538 14.0474 114.538 13.6569 114.929L8 120.586L2.34315 114.929C1.95262 114.538 1.31946 114.538 0.928932 114.929C0.538408 115.319 0.538408 115.953 0.928932 116.343L7.29289 122.707ZM7 72L7 122H9L9 72H7Z" fill="#8F73FF"/>
    <path d="M215.293 122.707C215.683 123.098 216.317 123.098 216.707 122.707L223.071 116.343C223.462 115.953 223.462 115.319 223.071 114.929C222.681 114.538 222.047 114.538 221.657 114.929L216 120.586L210.343 114.929C209.953 114.538 209.319 114.538 208.929 114.929C208.538 115.319 208.538 115.953 208.929 116.343L215.293 122.707ZM215 72L215 122H217L217 72H215Z" fill="#8F73FF"/>
    <path d="M403.293 122.707C403.683 123.098 404.317 123.098 404.707 122.707L411.071 116.343C411.462 115.953 411.462 115.319 411.071 114.929C410.681 114.538 410.047 114.538 409.657 114.929L404 120.586L398.343 114.929C397.953 114.538 397.319 114.538 396.929 114.929C396.538 115.319 396.538 115.953 396.929 116.343L403.293 122.707ZM403 72V122H405V72H403Z" fill="#8F73FF"/>
    <path d="M591.293 122.707C591.683 123.098 592.317 123.098 592.707 122.707L599.071 116.343C599.462 115.953 599.462 115.319 599.071 114.929C598.681 114.538 598.047 114.538 597.657 114.929L592 120.586L586.343 114.929C585.953 114.538 585.319 114.538 584.929 114.929C584.538 115.319 584.538 115.953 584.929 116.343L591.293 122.707ZM591 72V122H593V72H591Z" fill="#8F73FF"/>
    <path d="M779.293 122.707C779.683 123.098 780.317 123.098 780.707 122.707L787.071 116.343C787.462 115.953 787.462 115.319 787.071 114.929C786.681 114.538 786.047 114.538 785.657 114.929L780 120.586L774.343 114.929C773.953 114.538 773.319 114.538 772.929 114.929C772.538 115.319 772.538 115.953 772.929 116.343L779.293 122.707ZM779 72V122H781V72H779Z" fill="#8F73FF"/>
    <path d="M987.293 122.707C987.683 123.098 988.317 123.098 988.707 122.707L995.071 116.343C995.462 115.953 995.462 115.319 995.071 114.929C994.681 114.538 994.047 114.538 993.657 114.929L988 120.586L982.343 114.929C981.953 114.538 981.319 114.538 980.929 114.929C980.538 115.319 980.538 115.953 980.929 116.343L987.293 122.707ZM987 72V122H989V72H987Z" fill="#8F73FF"/>
    <line x1="7" y1="71" x2="989" y2="70.9999" stroke="#8F73FF" stroke-width="2"/>
    <line x1="498" y1="3.98687e-08" x2="498" y2="70" stroke="#8F73FF" stroke-width="2"/>
</svg>
