<svg width="279" height="94" viewBox="0 0 279 94" fill="none" xmlns="http://www.w3.org/2000/svg">
    <path d="M7.2929 93.7071C7.68342 94.0976 8.31658 94.0976 8.70711 93.7071L15.0711 87.3431C15.4616 86.9526 15.4616 86.3195 15.0711 85.9289C14.6805 85.5384 14.0474 85.5384 13.6569 85.9289L8 91.5858L2.34315 85.9289C1.95262 85.5384 1.31946 85.5384 0.928934 85.9289C0.53841 86.3195 0.53841 86.9526 0.928934 87.3431L7.2929 93.7071ZM7 46L7 93L9 93L9 46L7 46Z" fill="#D0CAFF"/>
    <path d="M270.293 93.7071C270.683 94.0976 271.317 94.0976 271.707 93.7071L278.071 87.3431C278.462 86.9526 278.462 86.3195 278.071 85.9289C277.681 85.5384 277.047 85.5384 276.657 85.9289L271 91.5858L265.343 85.9289C264.953 85.5384 264.319 85.5384 263.929 85.9289C263.538 86.3195 263.538 86.9526 263.929 87.3431L270.293 93.7071ZM270 46L270 93L272 93L272 46L270 46Z" fill="#D0CAFF"/>
    <path d="M138.293 93.7071C138.683 94.0976 139.317 94.0976 139.707 93.7071L146.071 87.3431C146.462 86.9526 146.462 86.3195 146.071 85.9289C145.681 85.5384 145.047 85.5384 144.657 85.9289L139 91.5858L133.343 85.9289C132.953 85.5384 132.319 85.5384 131.929 85.9289C131.538 86.3195 131.538 86.9526 131.929 87.3431L138.293 93.7071ZM138 4.48043e-08L138 93L140 93L140 -4.48043e-08L138 4.48043e-08Z" fill="#D0CAFF"/>
    <line x1="7" y1="46" x2="272" y2="46" stroke="#D0CAFF" stroke-width="2"/>
</svg>
