<svg width="51" height="50" viewBox="0 0 51 50" fill="none" xmlns="http://www.w3.org/2000/svg">
    <path d="M4.66667 41.6667H46.3333V45.8334H4.66667V41.6667ZM8.83333 25.0001H13V39.5834H8.83333V25.0001ZM19.25 25.0001H23.4167V39.5834H19.25V25.0001ZM27.5833 25.0001H31.75V39.5834H27.5833V25.0001ZM38 25.0001H42.1667V39.5834H38V25.0001ZM4.66667 14.5834L25.5 4.16675L46.3333 14.5834V22.9167H4.66667V14.5834ZM8.83333 17.1584V18.7501H42.1667V17.1584L25.5 8.82508L8.83333 17.1584ZM25.5 16.6667C24.9475 16.6667 24.4176 16.4473 24.0269 16.0566C23.6362 15.6659 23.4167 15.1359 23.4167 14.5834C23.4167 14.0309 23.6362 13.501 24.0269 13.1103C24.4176 12.7196 24.9475 12.5001 25.5 12.5001C26.0525 12.5001 26.5824 12.7196 26.9731 13.1103C27.3638 13.501 27.5833 14.0309 27.5833 14.5834C27.5833 15.1359 27.3638 15.6659 26.9731 16.0566C26.5824 16.4473 26.0525 16.6667 25.5 16.6667Z" fill="#8F73FF"/>
</svg>
