<svg width="51" height="50" viewBox="0 0 51 50" fill="none" xmlns="http://www.w3.org/2000/svg">
    <path d="M6.74999 6.25H44.25C44.8025 6.25 45.3324 6.46949 45.7231 6.86019C46.1138 7.25089 46.3333 7.7808 46.3333 8.33333V41.6667C46.3333 42.2192 46.1138 42.7491 45.7231 43.1398C45.3324 43.5305 44.8025 43.75 44.25 43.75H6.74999C6.19746 43.75 5.66755 43.5305 5.27685 43.1398C4.88615 42.7491 4.66666 42.2192 4.66666 41.6667V8.33333C4.66666 7.7808 4.88615 7.25089 5.27685 6.86019C5.66755 6.46949 6.19746 6.25 6.74999 6.25ZM42.1667 22.9167H8.83332V39.5833H42.1667V22.9167ZM42.1667 18.75V10.4167H8.83332V18.75H42.1667ZM29.6667 31.25H38V35.4167H29.6667V31.25Z" fill="#8F73FF"/>
</svg>
