<svg width="26" height="26" viewBox="0 0 26 26" fill="none" xmlns="http://www.w3.org/2000/svg">
    <path d="M12.9998 23.8333C7.01659 23.8333 2.1665 18.9832 2.1665 13C2.1665 7.01671 7.01659 2.16663 12.9998 2.16663C18.9831 2.16663 23.8332 7.01671 23.8332 13C23.8332 18.9832 18.9831 23.8333 12.9998 23.8333ZM12.9998 21.6666C15.2984 21.6666 17.5028 20.7535 19.1281 19.1282C20.7534 17.5029 21.6665 15.2985 21.6665 13C21.6665 10.7014 20.7534 8.49702 19.1281 6.8717C17.5028 5.24639 15.2984 4.33329 12.9998 4.33329C10.7013 4.33329 8.49689 5.24639 6.87158 6.8717C5.24626 8.49702 4.33317 10.7014 4.33317 13C4.33317 15.2985 5.24626 17.5029 6.87158 19.1282C8.49689 20.7535 10.7013 21.6666 12.9998 21.6666V21.6666ZM11.9198 17.3333L7.32317 12.7367L8.855 11.2049L11.9198 14.2696L18.0471 8.14121L19.58 9.67304L11.9198 17.3333Z" fill="#6CCB03"/>
</svg>
