<svg width="530" height="360" viewBox="0 0 530 360" fill="none" xmlns="http://www.w3.org/2000/svg">
    <g clip-path="url(#clip0_382_21533)">
        <path d="M419.369 77.7125C419.369 79.3981 402.939 80.7688 382.67 80.7688C362.4 80.7688 345.973 79.3981 345.973 77.7125C345.973 76.8181 350.619 76.011 358.015 75.4527C357.895 75.0491 357.835 74.6301 357.835 74.209C357.835 71.2612 360.746 68.869 364.353 68.869H365.229C365.229 65.9239 368.14 63.5344 371.746 63.5344C372.258 63.5348 372.768 63.5844 373.271 63.6825C373.964 59.9409 377.907 57.0671 382.67 57.0671C386.684 57.0671 390.113 59.1047 391.511 61.9837C392.205 61.823 392.915 61.7413 393.627 61.7403C397.83 61.7403 401.235 64.532 401.235 67.972C401.234 68.2718 401.208 68.5711 401.156 68.8664C402.794 68.8783 404.379 69.4445 405.654 70.4726C406.219 70.9193 406.678 71.4855 406.999 72.1306C407.319 72.7756 407.492 73.4836 407.507 74.2037C407.508 74.6242 407.446 75.0425 407.324 75.4447C414.723 76.0084 419.369 76.8181 419.369 77.7125Z" fill="url(#paint0_linear_382_21533)"/>
        <path d="M187.526 255.572C187.526 257.257 171.093 258.625 150.823 258.625C130.554 258.625 114.126 257.257 114.126 255.572C114.126 254.675 118.776 253.87 126.172 253.309C126.05 252.906 125.988 252.487 125.989 252.066C125.989 249.118 128.9 246.726 132.507 246.726H133.383C133.383 243.78 136.293 241.391 139.9 241.391C140.412 241.391 140.922 241.441 141.424 241.539C142.12 237.797 146.063 234.924 150.823 234.924C154.84 234.924 158.27 236.961 159.664 239.843C160.358 239.68 161.068 239.598 161.781 239.597C165.983 239.597 169.392 242.389 169.392 245.829C169.391 246.128 169.364 246.428 169.312 246.723C170.95 246.735 172.536 247.301 173.811 248.329C174.376 248.776 174.835 249.342 175.155 249.987C175.475 250.632 175.649 251.34 175.663 252.06C175.665 252.481 175.605 252.899 175.483 253.301C182.879 253.865 187.526 254.675 187.526 255.572Z" fill="url(#paint1_linear_382_21533)"/>
        <path d="M504.094 231.129C504.094 235.757 458.98 239.515 403.326 239.515C347.672 239.515 302.568 235.757 302.568 231.129C302.568 228.671 315.327 226.459 335.645 224.924C335.312 223.816 335.145 222.665 335.147 221.508C335.147 213.41 343.157 206.845 353.043 206.845H355.449C355.449 198.759 363.459 192.194 373.342 192.194C374.746 192.195 376.147 192.333 377.526 192.604C379.436 182.329 390.262 174.456 403.334 174.456C414.36 174.456 423.775 180.053 427.609 187.952C429.507 187.51 431.448 187.285 433.397 187.282C444.937 187.282 454.301 194.956 454.301 204.392C454.299 205.217 454.226 206.039 454.082 206.851C458.919 206.946 463.288 208.618 466.434 211.259C469.58 213.9 471.533 217.509 471.533 221.502C471.532 222.662 471.358 223.815 471.017 224.924C491.332 226.448 504.094 228.671 504.094 231.129Z" fill="url(#paint2_linear_382_21533)"/>
        <path d="M281.287 109.765C281.287 114.394 236.173 118.151 180.519 118.151C124.865 118.151 79.7607 114.394 79.7607 109.765C79.7607 107.31 92.5205 105.095 112.838 103.56C112.505 102.452 112.338 101.301 112.34 100.144C112.34 92.0467 120.35 85.4843 130.236 85.4843H132.642C132.642 77.3949 140.652 70.8324 150.535 70.8324C151.939 70.8348 153.34 70.9712 154.719 71.24C156.626 60.9649 167.455 53.0952 180.527 53.0952C191.553 53.0952 200.968 58.6892 204.803 66.5906C206.7 66.1463 208.641 65.9207 210.59 65.9185C222.13 65.9185 231.494 73.5924 231.494 83.0286C231.492 83.8529 231.419 84.6754 231.275 85.4869C236.112 85.5822 240.481 87.2572 243.627 89.8981C246.773 92.5389 248.726 96.1457 248.726 100.139C248.724 101.296 248.55 102.446 248.21 103.552C268.519 105.087 281.287 107.31 281.287 109.765Z" fill="url(#paint3_linear_382_21533)"/>
        <path d="M264.616 359.997C410.76 359.997 529.233 354.732 529.233 348.238C529.233 341.743 410.76 336.478 264.616 336.478C118.473 336.478 0 341.743 0 348.238C0 354.732 118.473 359.997 264.616 359.997Z" fill="#ECEEF3"/>
        <path d="M193.8 351.064H333.89C342.009 351.064 349.399 344.48 350.394 336.362L388.407 26.7791C389.404 18.6607 383.643 12.077 375.512 12.077H235.421C227.303 12.077 219.912 18.6607 218.914 26.7791L180.902 336.362C179.907 344.48 185.679 351.064 193.8 351.064Z" fill="#D2C7FF"/>
        <path d="M186.449 351.064H326.537C334.655 351.064 342.046 344.48 343.043 336.362L381.048 26.7791C382.043 18.6607 376.269 12.077 368.15 12.077H228.07C219.952 12.077 212.561 18.6607 211.563 26.7791L173.554 336.362C172.556 344.48 178.33 351.064 186.449 351.064Z" fill="#806EFF"/>
        <path d="M186.679 348.235H327.002C333.496 348.235 339.408 342.969 340.207 336.476L378.245 26.6628C379.039 20.1691 374.424 14.9032 367.925 14.9032H227.61C221.113 14.9032 215.202 20.1691 214.403 26.6628L176.364 336.478C175.565 342.972 180.185 348.235 186.679 348.235Z" fill="white"/>
        <path d="M371.402 116.598H370.029L373.498 88.3501H374.871C375.055 88.3456 375.238 88.3815 375.407 88.4554C375.575 88.5292 375.726 88.6392 375.847 88.7775C375.968 88.9158 376.058 89.0791 376.109 89.2558C376.161 89.4325 376.173 89.6184 376.144 89.8002L373.032 115.148C372.976 115.543 372.781 115.906 372.483 116.172C372.185 116.437 371.802 116.588 371.402 116.598Z" fill="#806EFF"/>
        <path d="M197.552 127.945H199.14L201.222 110.993H199.635C199.295 111.002 198.97 111.132 198.716 111.358C198.463 111.584 198.298 111.893 198.251 112.229L196.472 126.709C196.446 126.864 196.454 127.023 196.497 127.174C196.54 127.325 196.615 127.465 196.719 127.583C196.822 127.701 196.95 127.795 197.095 127.858C197.239 127.92 197.395 127.95 197.552 127.945Z" fill="#806EFF"/>
        <path d="M201.725 93.9546H203.313L205.398 77.0033H203.81C203.47 77.0119 203.144 77.1407 202.89 77.367C202.637 77.5933 202.471 77.9023 202.424 78.2391L200.645 92.7189C200.619 92.8737 200.627 93.0326 200.67 93.1838C200.713 93.335 200.788 93.4749 200.892 93.5932C200.995 93.7115 201.123 93.8053 201.268 93.8678C201.412 93.9304 201.568 93.96 201.725 93.9546Z" fill="#806EFF"/>
        <path d="M373.683 29.3115L336.29 333.835C335.602 339.45 330.49 344.004 324.872 344.004H189.846C184.231 344.004 180.238 339.45 180.926 333.835L218.309 29.3115C218.999 23.6937 224.112 19.1396 229.727 19.1396H364.753C370.378 19.1396 374.371 23.6937 373.683 29.3115Z" fill="#F6F7FC"/>
        <path d="M298.318 27.3042C299.526 26.1679 299.691 24.3802 298.686 23.3113C297.681 22.2424 295.886 22.297 294.678 23.4334C293.47 24.5697 293.305 26.3574 294.31 27.4263C295.315 28.4952 297.11 28.4405 298.318 27.3042Z" fill="#806EFF"/>
        <path d="M199.56 325.253C196.713 325.253 194.165 324.144 192.387 322.136C190.608 320.128 189.796 317.402 190.148 314.526C190.87 308.646 196.234 303.862 202.122 303.862H322.39C325.24 303.862 327.786 304.968 329.564 306.979C331.342 308.99 332.157 311.713 331.803 314.589C331.08 320.469 325.716 325.253 319.829 325.253H199.56Z" fill="#6ED200"/>
        <path d="M322.39 304.126C328.151 304.126 332.247 308.797 331.541 314.557C330.834 320.318 325.589 324.989 319.829 324.989H199.56C193.8 324.989 189.703 320.318 190.413 314.557C191.122 308.797 196.361 304.126 202.122 304.126H322.39ZM322.39 303.597H202.122C196.112 303.597 190.624 308.484 189.886 314.494C189.524 317.447 190.341 320.223 192.188 322.311C194.035 324.399 196.636 325.518 199.56 325.518H319.829C325.838 325.518 331.329 320.63 332.064 314.621C332.427 311.668 331.609 308.892 329.762 306.804C327.915 304.716 325.317 303.597 322.39 303.597Z" fill="white"/>
        <path d="M331.988 263.01H202.622C199.373 263.01 197.065 260.38 197.462 257.13L219.124 80.7212C219.523 77.4717 222.479 74.8387 225.726 74.8387H355.094C358.341 74.8387 360.651 77.4717 360.251 80.7212L338.593 257.13C338.193 260.382 335.237 263.01 331.988 263.01Z" fill="white"/>
        <path d="M223.669 124.251H221.684L224.243 103.404H245.09L244.846 105.389H225.984L223.669 124.251Z" fill="#6ED200"/>
        <path d="M345.128 124.251H343.141L345.456 105.389H326.595L326.838 103.404H347.687L345.128 124.251Z" fill="#6ED200"/>
        <path d="M234.007 234.448H213.158L215.719 213.598H217.704L215.389 232.463H234.25L234.007 234.448Z" fill="#6ED200"/>
        <path d="M333.491 234.448H312.644L312.888 232.463H331.749L334.065 213.598H336.052L333.491 234.448Z" fill="#6ED200"/>
        <path d="M146.717 201.137C165.584 183.395 168.156 155.484 152.463 138.796C136.77 122.107 108.754 122.961 89.887 140.703C71.0205 158.445 68.4481 186.356 84.1413 203.044C99.8346 219.732 127.851 218.878 146.717 201.137Z" fill="#806EFF"/>
        <path d="M117.582 176.788C111.748 176.788 107.582 172.024 108.3 166.203L109.599 155.618C110.313 149.781 115.645 145.034 121.483 145.034C127.32 145.034 131.483 149.781 130.768 155.618L129.469 166.203C128.752 172.038 123.42 176.788 117.582 176.788ZM121.049 148.561C117.159 148.561 113.605 151.736 113.126 155.618L111.827 166.203C111.348 170.093 114.126 173.258 118.016 173.258C121.906 173.258 125.463 170.082 125.939 166.203L127.238 155.618C127.717 151.726 124.939 148.561 121.049 148.561Z" fill="#481AA0"/>
        <path d="M130.191 193.839H100.79C100.417 193.849 100.046 193.776 99.7041 193.627C99.3622 193.477 99.0574 193.254 98.8112 192.974C98.565 192.693 98.3835 192.362 98.2796 192.004C98.1757 191.645 98.1518 191.268 98.2097 190.9L101.819 161.498C101.933 160.697 102.327 159.961 102.932 159.423C103.536 158.885 104.312 158.578 105.122 158.558H134.523C134.896 158.549 135.266 158.622 135.608 158.772C135.949 158.921 136.254 159.144 136.5 159.425C136.746 159.705 136.927 160.036 137.031 160.395C137.135 160.753 137.158 161.13 137.1 161.498L133.491 190.9C133.378 191.701 132.984 192.436 132.38 192.974C131.776 193.513 131 193.819 130.191 193.839Z" fill="white"/>
        <path d="M122.253 172.376C122.157 173.064 121.913 173.723 121.536 174.306C121.159 174.889 120.66 175.383 120.072 175.753L119.331 181.786C119.254 182.325 119.019 182.829 118.656 183.234C118.292 183.639 117.816 183.927 117.289 184.062C117.093 184.112 116.892 184.137 116.691 184.136C116.392 184.143 116.095 184.085 115.821 183.966C115.547 183.848 115.302 183.671 115.103 183.448C114.908 183.221 114.764 182.956 114.681 182.669C114.597 182.383 114.576 182.082 114.619 181.786L115.357 175.753C114.854 175.359 114.464 174.84 114.227 174.247C113.99 173.653 113.914 173.008 114.007 172.376C114.167 171.254 114.718 170.225 115.565 169.471C116.411 168.717 117.497 168.288 118.63 168.259C118.825 168.259 119.02 168.274 119.212 168.301C121.173 168.587 122.496 170.302 122.253 172.376Z" fill="#61DBD2"/>
        <path d="M122.253 172.376C122.157 173.064 121.913 173.723 121.536 174.306C121.16 174.889 120.66 175.383 120.072 175.753L119.331 181.786C119.254 182.325 119.019 182.829 118.656 183.234C118.292 183.639 117.816 183.927 117.289 184.062C116.901 183.962 116.553 183.748 116.288 183.448C116.094 183.221 115.951 182.956 115.867 182.669C115.784 182.383 115.762 182.082 115.804 181.786L116.545 175.753C116.041 175.36 115.651 174.84 115.414 174.247C115.176 173.654 115.101 173.008 115.195 172.376C115.34 171.356 115.808 170.409 116.531 169.674C117.254 168.939 118.194 168.456 119.212 168.296C121.173 168.587 122.496 170.302 122.253 172.376Z" fill="#6ED200"/>
        <path d="M391.531 34.6986C400.335 26.419 401.536 13.3937 394.212 5.60586C386.889 -2.182 373.814 -1.78332 365.01 6.49631C356.205 14.776 355.005 27.8012 362.328 35.5891C369.652 43.3769 382.726 42.9783 391.531 34.6986Z" fill="#6ED200"/>
        <path d="M370.28 20.9153L374.726 25.98L386.851 15.181" stroke="white" stroke-width="10" stroke-linecap="round" stroke-linejoin="round"/>
        <path d="M161.268 324.602C161.268 324.602 177.518 280.988 177.518 271.758C177.518 262.529 167.6 217.213 167.6 217.213L191.101 238.258L195.684 271.761L171.075 328.352L161.268 324.602Z" fill="#EFB600"/>
        <path d="M280.084 115.263C267.696 114.501 257.006 123.952 256.244 136.339C255.496 148.489 264.394 158.908 276.755 160.096C277.136 160.072 277.514 160.095 277.795 160.16C277.89 160.166 277.937 160.169 278.031 160.175C278.079 160.178 278.079 160.178 278.126 160.181C290.256 160.5 300.364 151.251 301.159 139.103C301.921 126.716 292.471 116.026 280.084 115.263Z" fill="#ECEEF3"/>
        <path d="M300.566 174.185C287.916 164.58 266.404 163.256 252.578 171.232C246.326 174.881 242.682 180.115 242.324 185.93C241.966 191.745 244.944 197.339 250.657 201.677C257.002 206.528 265.565 209.286 274.264 209.821C282.963 210.357 291.799 208.67 298.692 204.633C304.896 200.981 308.538 195.795 308.899 189.932C309.209 184.114 306.279 178.523 300.566 174.185Z" fill="#ECEEF3"/>
        <path d="M208.311 168.772H349.439L349.196 170.759H208.068L208.311 168.772Z" fill="#6ED200"/>
        <path d="M255.027 140.228C253.534 142.525 252.849 141.99 250.684 144.462C250.335 144.859 236.84 163.779 231.103 171.717C225.366 179.656 220.955 186.555 215.16 180.834C209.801 175.525 198.843 152.469 198.843 152.469C205.782 146.629 203.548 137.51 203.548 137.51C205.194 141.043 209.439 140.241 211.135 144.724C215.787 157.01 220.425 171.082 220.425 171.082L246.035 142.583C246.035 142.583 245.868 138.058 245.818 136.59C245.827 135.293 246.266 134.036 247.064 133.015C247.594 132.388 248.406 133.091 248.02 134.213C247.633 135.335 247.392 136.725 248.133 136.473C248.874 136.222 251.391 130.331 252.632 128.535C253.873 126.738 253.809 128.786 252.875 130.72C252.324 131.847 251.914 133.037 251.653 134.264C251.653 134.264 253.386 134.793 253.28 136.354C253.28 136.354 255.003 136.558 254.659 137.942C254.675 137.926 256.516 137.934 255.027 140.228Z" fill="#FECCC6"/>
        <path d="M207.766 253.098C207.369 283.401 204.44 330.553 204.44 330.553H193.771C193.771 330.553 191.463 307.299 190.376 290.332C189.288 273.365 179.553 234.63 179.553 234.63C164.47 226.427 164.417 204.797 164.417 204.797L175.724 202.506L194.451 198.708L206.914 196.181C206.914 196.208 206.914 196.308 206.935 196.478C207.099 199.084 208.219 218.655 207.766 253.098Z" fill="#FFD13E"/>
        <path d="M201.836 92.7876C201.836 92.7876 207.15 102.713 201.286 112.978C197.467 119.662 191.828 115.931 191.828 115.931L195.223 121.837C195.223 121.837 190.063 129.223 184.639 128.982C179.214 128.741 177.274 121.837 177.274 121.837L179.701 112.991C179.701 112.991 177.007 94.0234 187.571 91.5572C198.134 89.0909 201.836 92.7876 201.836 92.7876Z" fill="#FECCC6"/>
        <path d="M193.768 349.196V342.003C193.768 342.003 201.651 346.557 208.928 342.003C208.928 342.003 223.932 345.864 229.385 350.252C229.548 350.387 229.667 350.568 229.726 350.771C229.785 350.974 229.782 351.191 229.717 351.392C229.651 351.594 229.527 351.771 229.36 351.901C229.193 352.031 228.991 352.108 228.779 352.122C225.339 352.294 216.906 352.556 197.166 352.583C196.72 352.584 196.279 352.497 195.867 352.327C195.455 352.158 195.08 351.908 194.765 351.594C194.449 351.279 194.199 350.905 194.028 350.494C193.857 350.082 193.768 349.641 193.768 349.196Z" fill="#481AA0"/>
        <path d="M193.768 330.559V342.003C194.861 343.269 196.254 344.24 197.819 344.828C199.384 345.416 201.072 345.603 202.728 345.372C208.549 344.634 208.928 342.003 208.928 342.003C208.928 342.003 207.605 341.096 204.318 340.834L204.44 330.553L193.768 330.559Z" fill="#FECCC6"/>
        <path d="M161.268 324.602L157.508 333.758C157.508 333.758 156.415 339.172 161.268 339.91C166.121 340.649 167.574 337.571 167.574 337.571L171.072 328.349L161.268 324.602Z" fill="#FECCC6"/>
        <path d="M154.446 339.22L157.508 333.758C157.508 333.758 159.569 340.773 167.563 337.571C167.563 337.571 170.596 344.094 175.081 345.324C178.388 346.232 181.762 347.275 183.21 349.336C183.39 349.586 183.497 349.88 183.52 350.187C183.543 350.494 183.481 350.802 183.34 351.076C183.2 351.35 182.986 351.579 182.723 351.739C182.46 351.899 182.158 351.983 181.85 351.982H168.561C168.161 351.982 167.77 351.86 167.441 351.633L155.393 343.3C154.755 342.861 154.304 342.199 154.128 341.444C153.953 340.689 154.066 339.895 154.446 339.22Z" fill="#481AA0"/>
        <path d="M200.622 156.61C200.622 156.61 200.05 173.493 205.983 191.582C206.001 191.632 206.014 191.683 206.028 191.733C206.48 193.165 206.62 194.689 206.922 196.181C206.747 196.359 203.882 199.23 199.113 202.109C199.104 202.117 199.093 202.123 199.081 202.127C191.895 206.448 180.386 210.777 167.227 205.946L166.296 205.594C165.679 205.348 165.049 205.083 164.425 204.8L164.443 204.718C164.538 204.329 164.949 202.601 165.42 200.121C166.642 193.853 172.588 180.804 171.082 173.194C168.905 162.12 161.741 144.803 165.621 134.462C169.5 124.121 177.293 121.843 177.293 121.843C177.293 121.843 182.866 128.971 195.237 121.843C195.237 121.843 206.351 130.44 211.378 144.512C211.362 144.512 213.397 147.232 200.622 156.61Z" fill="#8EB367"/>
        <path d="M190.304 82.0867C199.105 82.0867 204.744 85.8178 203.334 90.8481C201.923 95.8785 200.196 102.515 200.741 107.747C201.286 112.978 205.12 122.343 196.928 128.982C188.735 135.621 171.635 131.192 170.545 122.7C169.455 114.208 177.457 108.117 175.274 100.178C173.091 92.24 179.145 82.0867 190.304 82.0867Z" fill="#233862"/>
        <path d="M206.93 196.47C204.509 198.597 201.887 200.483 199.1 202.101C199.091 202.109 199.08 202.115 199.068 202.119C191.598 206.467 180.058 210.611 167.214 205.938L166.282 205.586C165.666 205.34 165.036 205.075 164.411 204.792L164.43 204.71L165.406 200.114C165.406 200.114 169.331 202.098 175.726 202.495C178.389 202.665 181.063 202.542 183.699 202.13C187.454 201.542 191.151 200.227 194.453 198.69C198.537 196.759 202.415 194.422 206.03 191.715C206.483 193.146 206.623 194.67 206.925 196.163C206.914 196.2 206.93 196.3 206.93 196.47Z" fill="white"/>
        <path d="M200.622 156.61C200.622 156.61 192.381 143.853 191.413 140.297" stroke="white" stroke-width="2" stroke-linecap="round" stroke-linejoin="round"/>
        <path d="M30.3886 173.961H60.5839C60.9727 173.961 61.2878 173.646 61.2878 173.258V173.096C61.2878 172.707 60.9727 172.392 60.5839 172.392H30.3886C29.9998 172.392 29.6847 172.707 29.6847 173.096V173.258C29.6847 173.646 29.9998 173.961 30.3886 173.961Z" fill="#ECEEF3"/>
        <path d="M38.8695 169.254H60.5839C60.9727 169.254 61.2878 168.939 61.2878 168.55V168.389C61.2878 168 60.9727 167.685 60.5839 167.685H38.8695C38.4808 167.685 38.1656 168 38.1656 168.389V168.55C38.1656 168.939 38.4808 169.254 38.8695 169.254Z" fill="#ECEEF3"/>
        <path d="M30.3886 178.672H60.5839C60.9727 178.672 61.2878 178.357 61.2878 177.968V177.806C61.2878 177.418 60.9727 177.102 60.5839 177.102H30.3886C29.9998 177.102 29.6847 177.418 29.6847 177.806V177.968C29.6847 178.357 29.9998 178.672 30.3886 178.672Z" fill="#ECEEF3"/>
        <path d="M33.3046 183.379H60.5839C60.9727 183.379 61.2878 183.064 61.2878 182.675V182.514C61.2878 182.125 60.9727 181.81 60.5839 181.81H33.3046C32.9159 181.81 32.6007 182.125 32.6007 182.514V182.675C32.6007 183.064 32.9159 183.379 33.3046 183.379Z" fill="#ECEEF3"/>
        <path d="M80.9065 291.65H111.102C111.491 291.65 111.806 291.335 111.806 290.946V290.784C111.806 290.396 111.491 290.08 111.102 290.08H80.9065C80.5177 290.08 80.2026 290.396 80.2026 290.784V290.946C80.2026 291.335 80.5177 291.65 80.9065 291.65Z" fill="#ECEEF3"/>
        <path d="M89.3874 286.939H111.102C111.491 286.939 111.806 286.624 111.806 286.236V286.074C111.806 285.685 111.491 285.37 111.102 285.37H89.3874C88.9987 285.37 88.6835 285.685 88.6835 286.074V286.236C88.6835 286.624 88.9987 286.939 89.3874 286.939Z" fill="#ECEEF3"/>
        <path d="M80.9065 296.354H111.102C111.491 296.354 111.806 296.039 111.806 295.651V295.489C111.806 295.1 111.491 294.785 111.102 294.785H80.9065C80.5177 294.785 80.2026 295.1 80.2026 295.489V295.651C80.2026 296.039 80.5177 296.354 80.9065 296.354Z" fill="#ECEEF3"/>
        <path d="M83.8225 301.065H111.102C111.491 301.065 111.806 300.749 111.806 300.361V300.199C111.806 299.811 111.491 299.495 111.102 299.495H83.8225C83.4338 299.495 83.1187 299.811 83.1187 300.199V300.361C83.1187 300.749 83.4338 301.065 83.8225 301.065Z" fill="#ECEEF3"/>
        <path d="M526.449 172.392H496.254C495.865 172.392 495.55 172.707 495.55 173.096V173.258C495.55 173.646 495.865 173.961 496.254 173.961H526.449C526.838 173.961 527.153 173.646 527.153 173.258V173.096C527.153 172.707 526.838 172.392 526.449 172.392Z" fill="#ECEEF3"/>
        <path d="M517.968 167.685H496.254C495.865 167.685 495.55 168 495.55 168.389V168.55C495.55 168.939 495.865 169.254 496.254 169.254H517.968C518.357 169.254 518.672 168.939 518.672 168.55V168.389C518.672 168 518.357 167.685 517.968 167.685Z" fill="#ECEEF3"/>
        <path d="M526.449 177.1H496.254C495.865 177.1 495.55 177.415 495.55 177.804V177.965C495.55 178.354 495.865 178.669 496.254 178.669H526.449C526.838 178.669 527.153 178.354 527.153 177.965V177.804C527.153 177.415 526.838 177.1 526.449 177.1Z" fill="#ECEEF3"/>
        <path d="M523.533 181.81H496.254C495.865 181.81 495.55 182.125 495.55 182.514V182.675C495.55 183.064 495.865 183.379 496.254 183.379H523.533C523.922 183.379 524.237 183.064 524.237 182.675V182.514C524.237 182.125 523.922 181.81 523.533 181.81Z" fill="#ECEEF3"/>
        <path d="M418.226 285.37H388.031C387.642 285.37 387.327 285.685 387.327 286.074V286.236C387.327 286.624 387.642 286.939 388.031 286.939H418.226C418.615 286.939 418.93 286.624 418.93 286.236V286.074C418.93 285.685 418.615 285.37 418.226 285.37Z" fill="#ECEEF3"/>
        <path d="M409.745 280.663H388.031C387.642 280.663 387.327 280.978 387.327 281.367V281.528C387.327 281.917 387.642 282.232 388.031 282.232H409.745C410.134 282.232 410.449 281.917 410.449 281.528V281.367C410.449 280.978 410.134 280.663 409.745 280.663Z" fill="#ECEEF3"/>
        <path d="M418.226 290.078H388.031C387.642 290.078 387.327 290.393 387.327 290.782V290.943C387.327 291.332 387.642 291.647 388.031 291.647H418.226C418.615 291.647 418.93 291.332 418.93 290.943V290.782C418.93 290.393 418.615 290.078 418.226 290.078Z" fill="#ECEEF3"/>
        <path d="M415.31 294.788H388.031C387.642 294.788 387.327 295.103 387.327 295.492V295.653C387.327 296.042 387.642 296.357 388.031 296.357H415.31C415.699 296.357 416.014 296.042 416.014 295.653V295.492C416.014 295.103 415.699 294.788 415.31 294.788Z" fill="#ECEEF3"/>
        <path d="M462.094 92.2214C459.287 92.2214 456.595 91.1062 454.61 89.1212C452.625 87.1362 451.51 84.4439 451.51 81.6367V71.0521C451.51 68.2448 452.625 65.5526 454.61 63.5676C456.595 61.5826 459.287 60.4674 462.094 60.4674C464.902 60.4674 467.594 61.5826 469.579 63.5676C471.564 65.5526 472.679 68.2448 472.679 71.0521V81.6367C472.679 84.4439 471.564 87.1362 469.579 89.1212C467.594 91.1062 464.902 92.2214 462.094 92.2214ZM462.094 63.9947C460.223 63.9968 458.429 64.7411 457.106 66.0641C455.783 67.3872 455.039 69.181 455.037 71.0521V81.6367C455.037 83.5084 455.781 85.3035 457.104 86.627C458.428 87.9505 460.223 88.694 462.094 88.694C463.966 88.694 465.761 87.9505 467.085 86.627C468.408 85.3035 469.152 83.5084 469.152 81.6367V71.0521C469.15 69.181 468.405 67.3872 467.082 66.0641C465.759 64.7411 463.965 63.9968 462.094 63.9947Z" fill="white" stroke="#B1ABFF" stroke-width="2" stroke-miterlimit="10"/>
        <path d="M477.087 73.9919H447.098C445.637 73.9919 444.452 75.1767 444.452 76.6381V106.627C444.452 108.089 445.637 109.273 447.098 109.273H477.087C478.549 109.273 479.734 108.089 479.734 106.627V76.6381C479.734 75.1767 478.549 73.9919 477.087 73.9919Z" fill="white" stroke="#B1ABFF" stroke-width="2" stroke-miterlimit="10"/>
        <path d="M466.209 87.8103C466.21 88.4736 466.05 89.1271 465.743 89.7151C465.436 90.303 464.991 90.808 464.447 91.1868V97.2174C464.447 97.7393 464.274 98.2464 463.955 98.659C463.635 99.0715 463.187 99.3659 462.682 99.4958C462.49 99.5446 462.292 99.5695 462.094 99.5699C461.785 99.5702 461.479 99.5096 461.194 99.3915C460.908 99.2734 460.649 99.1001 460.43 98.8816C460.212 98.6631 460.038 98.4036 459.92 98.1181C459.802 97.8325 459.742 97.5264 459.742 97.2174V91.1868C459.022 90.6865 458.48 89.9693 458.197 89.1398C457.913 88.3103 457.901 87.4118 458.164 86.5753C458.427 85.7388 458.949 85.008 459.656 84.4895C460.363 83.971 461.218 83.6919 462.094 83.6929C462.291 83.6935 462.487 83.7077 462.682 83.7352C463.661 83.8771 464.557 84.367 465.205 85.1154C465.853 85.8638 466.209 86.8205 466.209 87.8103Z" fill="white" stroke="#B1ABFF" stroke-width="2" stroke-miterlimit="10"/>
        <path d="M60.9014 267.263C57.8994 267.259 54.9275 266.664 52.1554 265.511C49.3834 264.359 46.8654 262.672 44.7453 260.546C42.6253 258.421 40.9446 255.899 39.7993 253.124C38.654 250.349 38.0665 247.375 38.0703 244.373V221.841L60.9014 215.662L83.7325 221.852V244.392C83.7353 250.451 81.3321 256.264 77.051 260.553C72.7698 264.841 66.9611 267.255 60.9014 267.263Z" fill="white" stroke="#B1ABFF" stroke-width="2" stroke-miterlimit="10"/>
        <path d="M60.9015 253.222C67.3961 253.222 72.661 247.957 72.661 241.462C72.661 234.968 67.3961 229.703 60.9015 229.703C54.4068 229.703 49.1419 234.968 49.1419 241.462C49.1419 247.957 54.4068 253.222 60.9015 253.222Z" fill="white" stroke="#B1ABFF" stroke-width="2" stroke-miterlimit="10"/>
        <path d="M59.2741 246.016C59.0808 246.017 58.8894 245.979 58.7109 245.905C58.5325 245.831 58.3704 245.722 58.2341 245.585L55.3392 242.69C55.2028 242.554 55.0947 242.392 55.0209 242.213C54.9472 242.035 54.9093 241.844 54.9094 241.651C54.9095 241.458 54.9477 241.267 55.0216 241.088C55.0956 240.91 55.204 240.748 55.3405 240.612C55.4771 240.475 55.6392 240.367 55.8176 240.293C55.9959 240.22 56.1871 240.182 56.3801 240.182C56.5731 240.182 56.7642 240.22 56.9425 240.294C57.1208 240.368 57.2827 240.476 57.4191 240.613L59.2714 242.465L64.405 237.334C64.6804 237.059 65.054 236.904 65.4436 236.904C65.8332 236.904 66.2068 237.059 66.4822 237.334C66.7577 237.61 66.9124 237.983 66.9124 238.373C66.9124 238.763 66.7577 239.136 66.4822 239.412L60.3114 245.582C60.1757 245.72 60.0142 245.829 59.8361 245.903C59.6581 245.978 59.4671 246.016 59.2741 246.016Z" fill="white" stroke="#B1ABFF" stroke-width="2" stroke-miterlimit="10"/>
        <path d="M114.169 38.634C113.992 38.6344 113.818 38.5979 113.657 38.5268C113.495 38.4557 113.351 38.3516 113.232 38.2212C113.176 38.1603 107.249 31.8333 96.7041 31.8333C86.22 31.8333 81.2081 37.901 81.0017 38.1603C80.7912 38.4228 80.485 38.5909 80.1505 38.6276C79.8161 38.6643 79.4807 38.5667 79.2182 38.3561C78.9557 38.1456 78.7877 37.8394 78.7509 37.5049C78.7142 37.1704 78.8119 36.8351 79.0224 36.5726C79.2579 36.2762 84.9472 29.2957 96.7041 29.2957C108.413 29.3062 114.844 36.226 115.108 36.517C115.273 36.6984 115.382 36.9238 115.422 37.166C115.461 37.4082 115.429 37.6566 115.33 37.8809C115.231 38.1053 115.068 38.2959 114.863 38.4297C114.657 38.5634 114.417 38.6343 114.171 38.634H114.169Z" fill="#ECEEF3"/>
        <path d="M78.509 48.1602C78.2967 48.1594 78.0879 48.1052 77.9019 48.0027C77.7159 47.9002 77.5587 47.7526 77.4446 47.5735C77.3305 47.3943 77.2633 47.1894 77.2491 46.9775C77.2349 46.7656 77.2741 46.5535 77.3632 46.3608C77.5776 45.9056 82.7455 35.2257 97.6699 35.2257C108.908 35.2257 117.596 45.2997 117.958 45.7283C118.066 45.8548 118.148 46.0013 118.199 46.1594C118.25 46.3175 118.269 46.4841 118.256 46.6497C118.243 46.8153 118.197 46.9767 118.121 47.1246C118.046 47.2725 117.942 47.4041 117.815 47.5118C117.689 47.6196 117.542 47.7013 117.384 47.7524C117.226 47.8036 117.059 47.823 116.894 47.8098C116.728 47.7965 116.567 47.7508 116.419 47.6751C116.271 47.5995 116.139 47.4954 116.032 47.369C115.95 47.2737 107.723 37.7554 97.6699 37.7554C84.4073 37.7554 79.8427 47.0408 79.6548 47.4351C79.5521 47.6521 79.3899 47.8354 79.187 47.9637C78.9842 48.0921 78.7491 48.1602 78.509 48.1602Z" fill="#ECEEF3"/>
        <path d="M100.533 76.3497C100.253 76.3493 99.9816 76.2563 99.7604 76.0851C95.5265 72.825 91.3429 68.0434 89.8002 64.7198C88.6597 62.2641 88.4375 58.1044 90.2712 55.2306C91.2397 53.717 93.182 51.9097 96.974 51.9097C101.848 51.9097 103.626 56.6728 105.055 60.4886C106.257 63.7089 107.159 65.8206 108.683 65.8206C112.488 65.8206 112.904 62.587 112.904 55.7255C112.904 50.6978 104.82 43.2541 97.5561 43.2541C90.7581 43.2541 81.2769 48.4406 81.2769 56.8845C81.2769 65.2649 85.2964 71.0203 85.3361 71.0759C85.5312 71.3489 85.6099 71.6882 85.5548 72.0192C85.4997 72.3502 85.3154 72.6458 85.0424 72.8409C84.7694 73.036 84.4301 73.1146 84.0991 73.0595C83.7681 73.0045 83.4725 72.8201 83.2774 72.5471C83.0922 72.2825 78.7472 66.109 78.7472 56.8845C78.7472 47.66 88.6756 40.7244 97.5561 40.7244C105.743 40.7244 115.434 48.856 115.434 55.7255C115.434 61.6423 115.434 68.3503 108.683 68.3503C105.291 68.3503 103.965 64.8045 102.684 61.375C101.118 57.1862 99.8742 54.4394 96.974 54.4394C94.857 54.4394 93.317 55.1645 92.4067 56.5934C90.9883 58.8135 91.3826 62.1186 92.0944 63.6534C93.4652 66.6038 97.4265 71.0864 101.306 74.0819C101.515 74.243 101.669 74.4657 101.746 74.7188C101.822 74.9718 101.818 75.2425 101.732 75.4927C101.647 75.743 101.485 75.9602 101.27 76.1139C101.055 76.2676 100.797 76.3501 100.533 76.3497Z" fill="#ECEEF3"/>
        <path d="M106.942 73.9153C106.735 73.9148 106.532 73.864 106.349 73.7671C96.757 68.6679 95.0978 59.798 95.0343 59.4222C94.9848 59.096 95.0647 58.7633 95.257 58.4951C95.4494 58.2269 95.7389 58.0445 96.0638 57.9869C96.3888 57.9292 96.7234 58.0008 96.9962 58.1864C97.2691 58.372 97.4586 58.6569 97.5244 58.9803C97.5403 59.065 99.0777 67.0326 107.537 71.5311C107.787 71.6637 107.984 71.8758 108.099 72.1338C108.214 72.3917 108.239 72.6807 108.17 72.9545C108.102 73.2284 107.944 73.4715 107.721 73.6452C107.499 73.8188 107.224 73.9129 106.942 73.9126V73.9153Z" fill="#ECEEF3"/>
        <path d="M92.3511 76.3498C92.1571 76.3501 91.9657 76.3056 91.7917 76.2198C91.6178 76.1339 91.466 76.0091 91.3482 75.8549C90.983 75.3813 82.4359 64.1562 84.5423 55.5615C85.3203 52.3861 87.4187 49.9887 90.7766 48.4327C94.9391 46.5063 98.694 46.3529 101.933 47.9749C108.196 51.1107 110.088 59.7345 110.165 60.0997C110.235 60.4278 110.172 60.7703 109.99 61.0519C109.808 61.3335 109.521 61.5312 109.193 61.6014C108.865 61.6716 108.522 61.6085 108.24 61.4261C107.959 61.2438 107.761 60.957 107.691 60.6289C107.672 60.5522 105.963 52.8174 100.792 50.2374C98.2759 48.9805 95.2645 49.1472 91.8404 50.7323C89.1784 51.9654 87.6065 53.7409 87.0006 56.1622C85.1827 63.5714 93.272 74.209 93.3514 74.3149C93.4948 74.5024 93.583 74.7262 93.606 74.9612C93.6291 75.1961 93.586 75.4328 93.4818 75.6447C93.3775 75.8565 93.2162 76.035 93.016 76.16C92.8157 76.285 92.5845 76.3517 92.3485 76.3524L92.3511 76.3498Z" fill="#ECEEF3"/>
        <path d="M484.169 274.333H468.842V259.006H484.169V274.333ZM470.237 272.939H482.777V260.398H470.237V272.939Z" fill="#ECEEF3"/>
        <path d="M455.606 263.188H448.639V270.155H455.606V263.188Z" fill="#ECEEF3"/>
        <path d="M463.949 259.702H460.467V263.185H463.949V259.702Z" fill="#ECEEF3"/>
        <path d="M467.432 263.188H463.949V266.67H467.432V263.188Z" fill="#ECEEF3"/>
        <path d="M463.949 266.67H460.467V270.152H463.949V266.67Z" fill="#ECEEF3"/>
        <path d="M467.432 270.152H463.949V273.634H467.432V270.152Z" fill="#ECEEF3"/>
        <path d="M463.949 273.637H460.467V277.119H463.949V273.637Z" fill="#ECEEF3"/>
        <path d="M463.949 277.12H460.467V280.602H463.949V277.12Z" fill="#ECEEF3"/>
        <path d="M467.432 280.602H463.949V284.084H467.432V280.602Z" fill="#ECEEF3"/>
        <path d="M463.949 284.087H460.467V287.569H463.949V284.087Z" fill="#ECEEF3"/>
        <path d="M467.432 284.087H463.949V287.569H467.432V284.087Z" fill="#ECEEF3"/>
        <path d="M464.92 287.569H461.438V291.052H464.92V287.569Z" fill="#ECEEF3"/>
        <path d="M467.432 291.052H463.949V294.534H467.432V291.052Z" fill="#ECEEF3"/>
        <path d="M465.193 294.536H461.711V298.019H465.193V294.536Z" fill="#ECEEF3"/>
        <path d="M470.917 277.12H467.434V280.602H470.917V277.12Z" fill="#ECEEF3"/>
        <path d="M474.399 275.378H470.917V278.861H474.399V275.378Z" fill="#ECEEF3"/>
        <path d="M477.881 278.861H474.399V282.343H477.881V278.861Z" fill="#ECEEF3"/>
        <path d="M481.366 275.378H477.884V278.861H481.366V275.378Z" fill="#ECEEF3"/>
        <path d="M460.467 275.876H456.985V279.358H460.467V275.876Z" fill="#ECEEF3"/>
        <path d="M456.982 277.617H453.5V281.099H456.982V277.617Z" fill="#ECEEF3"/>
        <path d="M453.5 275.378H450.017V278.861H453.5V275.378Z" fill="#ECEEF3"/>
        <path d="M450.015 277.374H446.532V280.856H450.015V277.374Z" fill="#ECEEF3"/>
        <path d="M453.5 278.861H450.017V282.343H453.5V278.861Z" fill="#ECEEF3"/>
        <path d="M467.432 273.637H463.949V277.119H467.432V273.637Z" fill="#ECEEF3"/>
        <path d="M459.787 274.333H444.46V259.006H459.787V274.333ZM445.852 272.939H458.392V260.398H445.852V272.939Z" fill="#ECEEF3"/>
        <path d="M479.99 263.188H473.023V270.155H479.99V263.188Z" fill="#ECEEF3"/>
        <path d="M455.606 287.569H448.639V294.537H455.606V287.569Z" fill="#ECEEF3"/>
        <path d="M459.787 298.715H444.46V283.388H459.787V298.715ZM445.852 297.323H458.392V284.783H445.852V297.323Z" fill="#ECEEF3"/>
        <path d="M479.99 287.569H473.023V294.537H479.99V287.569Z" fill="#ECEEF3"/>
        <path d="M484.169 298.715H468.842V283.388H484.169V298.715ZM470.237 297.323H482.777V284.783H470.237V297.323Z" fill="#ECEEF3"/>
        <g filter="url(#filter0_dd_382_21533)">
            <path d="M474.565 216.118C493.623 198.197 494.544 168.219 476.623 149.161C458.701 130.103 428.723 129.182 409.665 147.103C390.607 165.025 389.686 195.003 407.608 214.061C425.53 233.119 455.507 234.04 474.565 216.118Z" fill="#EBB31F"/>
        </g>
        <g clip-path="url(#clip1_382_21533)">
            <path fill-rule="evenodd" clip-rule="evenodd" d="M450.095 172.085L444.609 176.727L438.942 181.49V179.32V172.085L409.28 196.984H417.841L433.456 183.901V186.072V192.583V193.246L438.459 189.026L438.942 188.604L444.609 183.841V188.182V192.583H450.095H451.542H451.722H455.219C458.716 192.583 461.308 191.98 463.056 190.714C464.805 189.448 465.649 187.579 465.649 185.047C465.649 183.299 465.227 181.912 464.262 180.766C463.358 179.621 461.971 178.777 460.163 178.174C461.308 177.632 462.152 176.968 462.755 176.064C463.358 175.16 463.659 173.894 463.659 172.748C463.659 170.518 462.755 169.071 461.007 167.925C459.258 166.78 456.606 166.237 453.169 166.237H451.542H433.697L428.391 170.638H451.542H451.722H453.531C455.279 170.638 455.521 170.759 456.123 171.241C456.726 171.723 457.148 172.688 457.148 173.653C457.148 174.557 456.907 175.401 456.365 175.883C455.581 176.607 455.159 176.727 454.074 176.727H451.602V181.128H453.893C455.701 181.128 456.304 181.188 457.269 181.912C458.053 182.455 458.595 183.66 458.595 184.806C458.595 185.71 458.234 186.554 457.45 187.277C456.304 188.242 455.641 188.182 453.893 188.182H451.722H451.542H450.095V179.259V172.085Z" fill="url(#paint4_radial_382_21533)"/>
            <path d="M413.681 185.288C413.742 185.589 413.742 185.891 413.681 186.132C413.621 186.433 413.561 186.675 413.38 186.916C413.199 187.157 413.018 187.338 412.717 187.519C412.415 187.699 412.054 187.82 411.632 187.88H411.511C411.089 187.941 410.727 187.941 410.366 187.88C410.064 187.82 409.763 187.699 409.522 187.519C409.28 187.338 409.1 187.157 408.979 186.916C408.858 186.675 408.738 186.373 408.678 186.072C408.617 185.77 408.617 185.469 408.678 185.228C408.738 184.926 408.798 184.685 408.979 184.444C409.16 184.203 409.341 184.022 409.642 183.841C409.944 183.66 410.245 183.54 410.667 183.479H410.788C411.21 183.419 411.632 183.419 411.933 183.479C412.234 183.54 412.536 183.66 412.777 183.841C413.018 184.022 413.199 184.203 413.32 184.444C413.5 184.685 413.621 184.987 413.681 185.288ZM412.958 185.409C412.898 185.228 412.898 185.107 412.777 184.926C412.656 184.745 412.536 184.625 412.415 184.565C412.234 184.444 412.054 184.384 411.812 184.384C411.571 184.323 411.33 184.384 410.968 184.444H410.848C410.546 184.504 410.305 184.565 410.124 184.685C409.944 184.806 409.763 184.926 409.642 185.047C409.522 185.167 409.461 185.348 409.461 185.529C409.401 185.71 409.401 185.891 409.461 186.011C409.461 186.192 409.522 186.373 409.642 186.494C409.702 186.614 409.823 186.795 410.004 186.855C410.124 186.976 410.305 187.036 410.546 187.097C410.788 187.157 411.029 187.097 411.33 187.097H411.451C411.752 187.036 412.054 186.976 412.234 186.855C412.415 186.735 412.596 186.614 412.717 186.494C412.837 186.373 412.898 186.192 412.958 186.011C412.958 185.71 412.958 185.589 412.958 185.409ZM409.461 181.972H410.366V182.877H409.461L408.376 182.153V181.731L409.461 181.972ZM412.536 180.887L409.22 177.993L409.039 180.525H408.316L408.557 176.968L409.22 177.029L412.536 179.862L412.717 177.149L413.44 177.21L413.199 180.947L412.536 180.887ZM408.798 175.22L409.22 173.291C409.341 172.748 409.582 172.387 409.823 172.206C410.124 172.025 410.426 171.965 410.848 172.025C411.089 172.085 411.27 172.206 411.451 172.387C411.571 172.567 411.692 172.748 411.692 172.989C411.812 172.748 411.993 172.507 412.234 172.387C412.476 172.266 412.717 172.266 413.018 172.326C413.199 172.387 413.38 172.447 413.561 172.567C413.742 172.688 413.802 172.809 413.922 172.989C413.983 173.17 414.043 173.351 414.103 173.592C414.103 173.833 414.103 174.075 414.043 174.376L413.561 176.366L408.798 175.22ZM413.32 174.255C413.38 173.894 413.38 173.653 413.32 173.472C413.259 173.291 413.078 173.231 412.837 173.17C412.717 173.11 412.596 173.11 412.536 173.11C412.476 173.11 412.355 173.17 412.295 173.231C412.234 173.291 412.174 173.351 412.114 173.472C412.054 173.592 411.993 173.713 411.933 173.894L411.692 174.979L413.139 175.28L413.32 174.255ZM411.21 173.894C411.27 173.592 411.27 173.351 411.21 173.17C411.149 172.989 410.968 172.929 410.788 172.869C410.607 172.809 410.426 172.869 410.305 172.929C410.185 173.05 410.064 173.231 410.004 173.532L409.763 174.497L410.968 174.919L411.21 173.894ZM410.185 169.975L411.39 166.9L412.054 167.142L411.21 169.493L412.415 169.975L413.259 167.865L413.922 168.106L413.078 170.216L414.405 170.759L415.309 168.468L415.972 168.709L414.767 171.784L410.185 169.975ZM412.234 165.393L412.656 164.67L414.706 165.815L413.681 162.861L414.164 162.017L415.008 164.61L418.504 164.368L417.962 165.212L415.189 165.393L415.49 166.358L416.877 167.142L416.455 167.865L412.234 165.393ZM415.249 160.691L415.791 160.028L419.65 163.042L419.107 163.705L415.249 160.691ZM421.7 160.872C421.458 161.113 421.217 161.233 421.036 161.354C420.795 161.475 420.614 161.535 420.433 161.535C420.253 161.535 420.072 161.535 419.891 161.475C419.71 161.414 419.529 161.294 419.409 161.173L420.011 160.57C420.072 160.631 420.192 160.691 420.253 160.691C420.313 160.691 420.433 160.751 420.554 160.691C420.675 160.691 420.795 160.631 420.856 160.57C420.976 160.51 421.097 160.389 421.217 160.269C421.338 160.148 421.458 160.028 421.519 159.907C421.579 159.787 421.639 159.666 421.639 159.545C421.639 159.425 421.639 159.365 421.639 159.244C421.639 159.184 421.579 159.063 421.519 159.003C421.338 158.822 421.157 158.762 420.916 158.822C420.675 158.882 420.373 159.063 420.011 159.304C419.77 159.425 419.589 159.545 419.409 159.606C419.167 159.847 418.987 159.847 418.806 159.907C418.625 159.907 418.444 159.907 418.323 159.787C418.143 159.726 418.022 159.606 417.841 159.425C417.721 159.304 417.6 159.123 417.54 158.943C417.479 158.762 417.479 158.581 417.479 158.4C417.479 158.219 417.6 158.038 417.66 157.797C417.781 157.616 417.962 157.375 418.143 157.194C418.323 157.013 418.565 156.832 418.745 156.772C418.926 156.652 419.167 156.591 419.348 156.591C419.529 156.591 419.71 156.591 419.891 156.652C420.072 156.712 420.192 156.832 420.373 156.953L419.77 157.556C419.65 157.435 419.529 157.435 419.288 157.435C419.107 157.435 418.926 157.556 418.685 157.797C418.444 158.038 418.323 158.219 418.263 158.4C418.263 158.581 418.263 158.762 418.384 158.882C418.565 159.063 418.745 159.123 418.926 159.063C419.167 159.003 419.409 158.882 419.77 158.701C420.011 158.521 420.253 158.4 420.433 158.34C420.675 158.219 420.856 158.219 421.036 158.159C421.217 158.159 421.398 158.159 421.579 158.219C421.76 158.279 421.88 158.4 422.061 158.581C422.182 158.701 422.302 158.882 422.363 159.063C422.423 159.244 422.423 159.425 422.423 159.606C422.423 159.787 422.302 160.028 422.182 160.209C422.122 160.45 421.941 160.691 421.7 160.872ZM422.061 154.964L420.735 155.928L420.313 155.325L423.689 152.914L424.111 153.517L422.785 154.481L425.196 157.857L424.533 158.34L422.061 154.964ZM428.633 155.868C428.391 155.988 428.09 156.109 427.789 156.109C427.487 156.169 427.246 156.109 426.945 156.049C426.643 155.988 426.402 155.808 426.161 155.566C425.92 155.325 425.678 155.024 425.498 154.602L425.437 154.481C425.256 154.12 425.136 153.758 425.076 153.396C425.015 153.095 425.076 152.793 425.196 152.492C425.317 152.251 425.437 152.01 425.618 151.768C425.799 151.588 426.04 151.407 426.342 151.286C426.583 151.166 426.884 151.045 427.186 151.045C427.487 150.985 427.728 151.045 428.03 151.105C428.211 151.226 428.512 151.407 428.753 151.588C428.994 151.829 429.235 152.13 429.416 152.492L429.477 152.612C429.657 153.034 429.778 153.396 429.838 153.698C429.899 154.059 429.838 154.361 429.778 154.602C429.657 154.843 429.537 155.084 429.356 155.325C429.115 155.566 428.874 155.747 428.633 155.868ZM428.271 155.205C428.452 155.144 428.572 155.024 428.693 154.903C428.813 154.783 428.874 154.602 428.934 154.421C428.994 154.24 428.994 154.059 428.934 153.818C428.874 153.577 428.813 153.336 428.693 153.034L428.633 152.914C428.512 152.612 428.331 152.432 428.15 152.251C427.969 152.07 427.789 152.01 427.668 151.949C427.487 151.889 427.306 151.889 427.125 151.889C426.945 151.889 426.764 151.949 426.643 152.01C426.462 152.07 426.342 152.19 426.221 152.311C426.1 152.432 426.04 152.612 425.98 152.793C425.92 152.974 425.92 153.155 425.92 153.396C425.98 153.637 426.04 153.878 426.161 154.12L426.221 154.24C426.342 154.542 426.522 154.722 426.703 154.903C426.884 155.084 427.065 155.205 427.246 155.265C427.427 155.325 427.608 155.325 427.789 155.325C427.969 155.325 428.09 155.265 428.271 155.205ZM430.019 149.719L430.803 149.477L434.058 152.19L433.094 148.814L433.878 148.573L435.204 153.276L434.42 153.517L431.225 150.864L432.189 154.24L431.345 154.421L430.019 149.719ZM438.459 147.85L440.328 147.789C440.63 147.789 440.931 147.789 441.112 147.91C441.353 147.97 441.534 148.091 441.715 148.211C441.896 148.332 442.016 148.513 442.077 148.694C442.137 148.875 442.197 149.055 442.197 149.297C442.197 149.658 442.137 149.899 441.956 150.201C441.775 150.442 441.534 150.623 441.172 150.743L442.438 152.612H441.534L440.389 150.804H439.364L439.424 152.673H438.58L438.459 147.85ZM440.208 150.141C440.63 150.141 440.931 150.08 441.112 149.899C441.293 149.779 441.353 149.538 441.353 149.297C441.353 149.055 441.233 148.875 441.112 148.694C440.931 148.573 440.63 148.513 440.208 148.513H439.364L439.424 150.08L440.208 150.141ZM444.187 147.85L447.442 148.272L447.382 148.995L444.97 148.694L444.789 149.96L447.02 150.201L446.9 150.924L444.669 150.623L444.488 152.07L446.9 152.371L446.779 153.095L443.523 152.673L444.187 147.85ZM449.371 153.878C449.07 153.818 448.829 153.698 448.588 153.577C448.407 153.456 448.226 153.276 448.105 153.155C447.985 152.974 447.924 152.793 447.864 152.612C447.804 152.432 447.804 152.251 447.864 152.01L448.648 152.251C448.648 152.371 448.648 152.432 448.648 152.552C448.648 152.612 448.708 152.733 448.768 152.793C448.829 152.854 448.949 152.974 449.01 153.034C449.13 153.095 449.251 153.155 449.432 153.215C449.793 153.215 449.974 153.215 450.095 153.215C450.215 153.215 450.336 153.215 450.456 153.155C450.577 153.095 450.637 153.095 450.698 153.034C450.758 152.974 450.818 152.914 450.818 152.793C450.878 152.552 450.818 152.371 450.637 152.19C450.456 152.01 450.155 151.829 449.793 151.588C449.552 151.467 449.371 151.346 449.19 151.226C449.01 151.105 448.889 150.985 448.768 150.804C448.648 150.683 448.588 150.502 448.588 150.321C448.588 150.141 448.588 149.96 448.648 149.719C448.708 149.538 448.768 149.417 448.889 149.236C449.01 149.116 449.13 148.995 449.311 148.935C449.492 148.875 449.673 148.814 449.914 148.814C450.155 148.814 450.396 148.814 450.698 148.935C450.999 148.995 451.18 149.116 451.361 149.236C451.542 149.357 451.722 149.477 451.783 149.658C451.903 149.839 451.964 149.96 452.024 150.141C452.084 150.321 452.084 150.502 452.024 150.683L451.24 150.442C451.24 150.261 451.18 150.08 451.059 149.96C450.939 149.839 450.758 149.719 450.456 149.598C450.155 149.477 449.914 149.477 449.733 149.598C449.552 149.658 449.432 149.779 449.432 149.96C449.371 150.201 449.432 150.382 449.552 150.502C449.673 150.683 449.974 150.804 450.276 150.985C450.517 151.105 450.758 151.286 450.939 151.407C451.12 151.527 451.3 151.708 451.361 151.829C451.481 152.01 451.542 152.13 451.542 152.311C451.542 152.492 451.542 152.673 451.481 152.914C451.421 153.095 451.361 153.276 451.24 153.396C451.12 153.517 450.939 153.637 450.758 153.758C450.577 153.818 450.336 153.878 450.095 153.878C449.974 153.999 449.733 153.939 449.371 153.878ZM454.194 150.261L455.822 150.985C456.425 151.226 456.787 151.588 456.967 151.949C457.148 152.311 457.148 152.733 456.907 153.155C456.726 153.577 456.425 153.878 456.003 153.999C455.581 154.12 455.099 154.059 454.496 153.758L453.652 153.396L452.928 155.084L452.145 154.722L454.194 150.261ZM454.737 153.155C454.918 153.215 455.099 153.276 455.279 153.336C455.4 153.336 455.581 153.396 455.641 153.336C455.762 153.336 455.822 153.276 455.943 153.155C456.003 153.095 456.063 152.974 456.123 152.854C456.184 152.733 456.244 152.612 456.244 152.492C456.244 152.371 456.244 152.251 456.184 152.19C456.123 152.07 456.063 152.01 455.943 151.889C455.822 151.768 455.641 151.708 455.46 151.588L454.677 151.226L454.013 152.733L454.737 153.155ZM457.811 157.918C457.57 157.737 457.389 157.556 457.209 157.315C457.028 157.074 456.967 156.893 456.907 156.652C456.847 156.41 456.907 156.169 456.967 155.928C457.028 155.687 457.148 155.386 457.389 155.144L459.078 152.733L459.801 153.215L458.113 155.566C457.872 155.928 457.751 156.29 457.751 156.591C457.811 156.893 457.932 157.134 458.234 157.375C458.535 157.616 458.836 157.677 459.138 157.616C459.439 157.556 459.68 157.315 459.982 156.953L461.67 154.602L462.333 155.084L460.645 157.496C460.464 157.797 460.223 157.978 459.982 158.159C459.741 158.34 459.5 158.4 459.319 158.46C459.078 158.521 458.836 158.46 458.595 158.4C458.354 158.219 458.053 158.099 457.811 157.918ZM463.599 156.169L465.046 157.496C465.468 157.857 465.649 158.219 465.709 158.581C465.709 158.943 465.589 159.244 465.347 159.545C465.167 159.726 464.986 159.847 464.745 159.907C464.503 159.967 464.322 159.907 464.081 159.787C464.262 160.028 464.322 160.269 464.322 160.57C464.322 160.811 464.202 161.053 463.961 161.294C463.84 161.414 463.659 161.535 463.478 161.655C463.298 161.716 463.117 161.776 462.936 161.776C462.755 161.776 462.574 161.716 462.333 161.595C462.152 161.475 461.911 161.354 461.73 161.113L460.223 159.666L463.599 156.169ZM462.152 160.51C462.393 160.751 462.634 160.872 462.815 160.932C462.996 160.932 463.177 160.872 463.358 160.691C463.418 160.631 463.478 160.51 463.539 160.45C463.599 160.389 463.599 160.269 463.599 160.148C463.599 160.028 463.539 159.967 463.478 159.847C463.418 159.726 463.298 159.606 463.177 159.485L462.333 158.701L461.308 159.726L462.152 160.51ZM463.478 158.882C463.72 159.123 463.9 159.244 464.081 159.244C464.262 159.244 464.443 159.184 464.564 159.003C464.684 158.822 464.745 158.701 464.745 158.521C464.745 158.34 464.624 158.159 464.383 157.918L463.659 157.194L462.755 158.159L463.478 158.882ZM467.518 160.269L468 160.932L464.624 163.343L466.011 165.273L465.408 165.695L463.539 163.102L467.518 160.269ZM470.11 164.188L470.532 164.911L466.312 167.322L465.89 166.599L470.11 164.188ZM471.436 166.478L471.738 167.262L469.567 168.106L472.522 169.191L472.883 170.156L470.351 169.191L468.362 172.085L468 171.06L469.628 168.83L468.663 168.468L467.216 169.071L466.915 168.287L471.436 166.478ZM470.351 175.341L469.929 173.411L468.784 173.231L468.603 172.387L473.788 173.11L473.968 173.954L469.628 176.848L469.447 176.004L470.351 175.341ZM470.713 173.532L471.014 174.919L472.823 173.773L470.713 173.532ZM469.628 179.018C469.628 178.717 469.628 178.415 469.688 178.174C469.748 177.933 469.809 177.752 469.929 177.571C470.05 177.39 470.17 177.27 470.351 177.149C470.532 177.029 470.713 176.968 470.894 176.968L470.954 177.812C470.833 177.812 470.773 177.873 470.713 177.933C470.653 177.993 470.592 178.054 470.532 178.114C470.472 178.174 470.411 178.295 470.411 178.415C470.411 178.536 470.411 178.717 470.411 178.898C470.411 179.078 470.472 179.259 470.532 179.38C470.592 179.5 470.653 179.621 470.713 179.681C470.773 179.742 470.833 179.802 470.954 179.862C471.014 179.922 471.135 179.922 471.195 179.922C471.436 179.922 471.557 179.802 471.678 179.561C471.798 179.32 471.858 179.018 471.919 178.536C471.979 178.295 471.979 178.054 472.039 177.873C472.1 177.692 472.16 177.511 472.28 177.39C472.401 177.27 472.522 177.149 472.642 177.089C472.823 177.029 473.004 176.968 473.185 176.968C473.366 176.968 473.546 176.968 473.727 177.029C473.908 177.089 474.029 177.21 474.149 177.33C474.27 177.451 474.39 177.632 474.451 177.873C474.511 178.114 474.571 178.355 474.632 178.656C474.632 178.958 474.632 179.199 474.571 179.38C474.511 179.621 474.451 179.802 474.33 179.922C474.21 180.103 474.089 180.224 473.908 180.284C473.727 180.405 473.607 180.465 473.366 180.465L473.305 179.621C473.486 179.561 473.607 179.44 473.727 179.32C473.848 179.139 473.848 178.958 473.848 178.656C473.848 178.295 473.727 178.114 473.607 177.933C473.486 177.812 473.305 177.752 473.185 177.752C472.944 177.752 472.823 177.873 472.702 178.054C472.582 178.234 472.522 178.536 472.461 178.958C472.401 179.259 472.401 179.5 472.28 179.742C472.22 179.983 472.16 180.164 472.039 180.284C471.919 180.465 471.798 180.586 471.617 180.646C471.436 180.706 471.256 180.766 471.014 180.827C470.833 180.827 470.653 180.827 470.472 180.766C470.291 180.706 470.11 180.586 469.989 180.465C469.869 180.284 469.748 180.103 469.628 179.862C469.688 179.621 469.688 179.32 469.628 179.018ZM474.632 181.912V182.756L469.748 182.635V181.791L474.632 181.912Z" fill="white"/>
            <path d="M419.831 199.033L420.433 199.636L419.409 202.771L422.604 201.927L423.207 202.53L419.65 205.906L419.047 205.303L421.519 202.952L418.866 203.676L418.504 203.254L419.348 200.661L416.877 203.012L416.274 202.409L419.831 199.033ZM424.111 207.775L422.483 206.63L421.519 207.293L420.855 206.81L425.196 203.917L425.859 204.399L424.533 209.463L423.81 208.92L424.111 207.775ZM423.086 206.208L424.232 207.052L424.834 205.002L423.086 206.208ZM427.789 205.665L429.477 206.449C429.778 206.569 429.959 206.75 430.14 206.871C430.321 207.052 430.441 207.232 430.562 207.413C430.622 207.594 430.682 207.775 430.682 208.016C430.682 208.197 430.622 208.438 430.562 208.619C430.441 208.92 430.2 209.162 429.959 209.282C429.718 209.403 429.356 209.463 428.994 209.403L429.296 211.694L428.452 211.332L428.211 209.162L427.306 208.74L426.522 210.428L425.739 210.066L427.789 205.665ZM428.391 208.498C428.753 208.679 429.055 208.74 429.296 208.679C429.537 208.619 429.657 208.498 429.778 208.257C429.899 208.016 429.899 207.835 429.778 207.594C429.657 207.353 429.416 207.232 429.055 207.052L428.271 206.69L427.608 208.137L428.391 208.498ZM432.189 207.594L432.973 207.835L432.31 210.066L434.963 208.378L435.927 208.679L433.636 210.126L434.722 213.442L433.757 213.141L432.913 210.488L432.069 211.031L431.647 212.538L430.863 212.297L432.189 207.594ZM439.183 212.839L437.193 212.658L436.711 213.743L435.867 213.683L438.098 208.92L438.942 208.981L440.389 213.985L439.484 213.924L439.183 212.839ZM437.555 211.995L439.002 212.116L438.459 210.066L437.555 211.995ZM441.534 213.442L443.885 209.765L441.353 209.945L441.293 209.222L444.85 208.981L444.91 209.644L442.559 213.321L445.272 213.141L445.332 213.864L441.655 214.165L441.534 213.442ZM446.116 208.74L446.96 208.619L447.804 213.442L446.96 213.563L446.116 208.74ZM450.456 210.85L447.683 208.619L448.648 208.318L450.577 209.945L451.059 207.474L451.903 207.172L451.24 210.609L451.843 212.417L451.059 212.658L450.456 210.85ZM454.194 206.147L455.882 205.183C456.365 204.881 456.787 204.821 457.088 204.881C457.45 204.942 457.691 205.183 457.872 205.484C457.992 205.725 458.053 205.906 458.053 206.147C458.053 206.388 457.932 206.569 457.751 206.75C458.053 206.69 458.294 206.69 458.535 206.75C458.776 206.81 458.957 206.991 459.138 207.293C459.258 207.474 459.319 207.654 459.319 207.835C459.319 208.016 459.319 208.197 459.258 208.378C459.198 208.559 459.078 208.74 458.957 208.86C458.776 209.041 458.595 209.162 458.354 209.343L456.545 210.367L454.194 206.147ZM457.992 208.8C458.294 208.619 458.475 208.438 458.535 208.257C458.595 208.076 458.595 207.896 458.475 207.715C458.414 207.594 458.354 207.534 458.294 207.474C458.233 207.413 458.113 207.353 458.053 207.353C457.932 207.353 457.872 207.353 457.751 207.353C457.631 207.413 457.51 207.474 457.329 207.534L456.365 208.076L457.088 209.343L457.992 208.8ZM456.787 207.052C457.088 206.871 457.209 206.75 457.269 206.569C457.329 206.388 457.269 206.208 457.209 206.027C457.088 205.846 456.967 205.725 456.787 205.725C456.606 205.665 456.425 205.786 456.123 205.906L455.219 206.388L455.882 207.534L456.787 207.052ZM462.574 205.062L461.007 206.268L461.368 207.413L460.705 207.956L459.138 202.952L459.801 202.409L464.262 205.122L463.539 205.665L462.574 205.062ZM460.766 205.544L461.911 204.64L460.102 203.495L460.766 205.544ZM461.429 201.023L461.971 200.42L466.191 200.902L463.539 198.611L464.081 197.948L467.759 201.143L467.216 201.746L462.996 201.264L465.649 203.555L465.106 204.218L461.429 201.023ZM464.744 197.165L465.167 196.441L467.216 197.587L466.191 194.632L466.674 193.788L467.518 196.381L471.014 196.14L470.532 197.044L467.759 197.225L468.06 198.189L469.447 198.973L469.025 199.697L464.744 197.165ZM467.216 192.643L467.578 191.859L472.039 193.849L471.678 194.632L467.216 192.643Z" fill="white"/>
            <path fill-rule="evenodd" clip-rule="evenodd" d="M471.316 186.675C472.28 186.675 473.004 187.458 473.004 188.363C473.004 189.267 472.22 190.051 471.316 190.051C470.351 190.051 469.628 189.267 469.628 188.363C469.628 187.458 470.351 186.675 471.316 186.675Z" fill="white"/>
        </g>
    </g>
    <defs>
        <filter id="filter0_dd_382_21533" x="386.747" y="126.242" width="110.737" height="115.737" filterUnits="userSpaceOnUse" color-interpolation-filters="sRGB">
            <feFlood flood-opacity="0" result="BackgroundImageFix"/>
            <feColorMatrix in="SourceAlpha" type="matrix" values="0 0 0 0 0 0 0 0 0 0 0 0 0 0 0 0 0 0 127 0" result="hardAlpha"/>
            <feOffset/>
            <feGaussianBlur stdDeviation="4"/>
            <feComposite in2="hardAlpha" operator="out"/>
            <feColorMatrix type="matrix" values="0 0 0 0 0.913725 0 0 0 0 0.713726 0 0 0 0 0.184314 0 0 0 0.06 0"/>
            <feBlend mode="normal" in2="BackgroundImageFix" result="effect1_dropShadow_382_21533"/>
            <feColorMatrix in="SourceAlpha" type="matrix" values="0 0 0 0 0 0 0 0 0 0 0 0 0 0 0 0 0 0 127 0" result="hardAlpha"/>
            <feOffset dy="5"/>
            <feGaussianBlur stdDeviation="4"/>
            <feComposite in2="hardAlpha" operator="out"/>
            <feColorMatrix type="matrix" values="0 0 0 0 0.913725 0 0 0 0 0.713726 0 0 0 0 0.184314 0 0 0 0.2 0"/>
            <feBlend mode="normal" in2="effect1_dropShadow_382_21533" result="effect2_dropShadow_382_21533"/>
            <feBlend mode="normal" in="SourceGraphic" in2="effect2_dropShadow_382_21533" result="shape"/>
        </filter>
        <linearGradient id="paint0_linear_382_21533" x1="382.67" y1="57.0724" x2="382.67" y2="80.7688" gradientUnits="userSpaceOnUse">
            <stop stop-color="#F0F2F7" stop-opacity="0.4"/>
            <stop offset="1" stop-color="#F0F2F7"/>
        </linearGradient>
        <linearGradient id="paint1_linear_382_21533" x1="150.826" y1="234.929" x2="150.826" y2="258.625" gradientUnits="userSpaceOnUse">
            <stop stop-color="#F0F2F7" stop-opacity="0.4"/>
            <stop offset="1" stop-color="#F0F2F7"/>
        </linearGradient>
        <linearGradient id="paint2_linear_382_21533" x1="403.328" y1="174.456" x2="403.328" y2="239.515" gradientUnits="userSpaceOnUse">
            <stop stop-color="#F0F2F7" stop-opacity="0.4"/>
            <stop offset="1" stop-color="#F0F2F7"/>
        </linearGradient>
        <linearGradient id="paint3_linear_382_21533" x1="180.516" y1="53.0952" x2="180.516" y2="118.151" gradientUnits="userSpaceOnUse">
            <stop stop-color="#F0F2F7" stop-opacity="0.4"/>
            <stop offset="1" stop-color="#F0F2F7"/>
        </linearGradient>
        <radialGradient id="paint4_radial_382_21533" cx="0" cy="0" r="1" gradientUnits="userSpaceOnUse" gradientTransform="translate(457.717 166.544) rotate(144.287) scale(52.1754 53.6183)">
            <stop stop-color="white"/>
            <stop offset="0.502" stop-color="white"/>
            <stop offset="0.609375" stop-color="white"/>
            <stop offset="1" stop-color="white"/>
        </radialGradient>
        <clipPath id="clip0_382_21533">
            <rect width="529.233" height="360" fill="white"/>
        </clipPath>
        <clipPath id="clip1_382_21533">
            <rect width="66.3761" height="66.3158" fill="white" transform="translate(408.316 147.789)"/>
        </clipPath>
    </defs>
</svg>
