<svg width="194" height="220" viewBox="0 0 194 220" fill="none" xmlns="http://www.w3.org/2000/svg">
    <path fill-rule="evenodd" clip-rule="evenodd" d="M9.83354 191.991C29.2946 209.409 54.9938 220 83.1668 220C143.918 220 193.167 170.751 193.167 110C193.167 49.2487 143.918 0 83.1668 0C54.9938 0 29.2946 10.5913 9.83354 28.0093V191.991Z" fill="#D2C7FF"/>
    <g opacity="0.8">
        <path d="M55.2121 66.2683C55.2121 66.2683 57.8246 77.2772 50.5615 86.8652L49.2042 85.9138C49.2042 85.9138 54.9958 74.544 54.1162 67.4441C53.2366 60.3442 55.2121 66.2683 55.2121 66.2683Z" fill="#AEC3FF"/>
    </g>
    <path d="M122.964 149.818C122.964 149.818 113.169 143.348 101.23 147.009L101.673 148.671C101.673 148.671 114.825 147.081 121.426 150.467C128.028 153.854 122.964 149.818 122.964 149.818Z" fill="#BBD0FF"/>
    <path d="M146.419 100.787C146.419 100.787 135.324 109.037 134.589 123.728L136.608 123.903C136.608 123.903 140.118 108.706 146.52 102.749C152.922 96.7923 146.419 100.787 146.419 100.787Z" fill="#D2E0FF"/>
    <path d="M186.084 45.0183L62.3972 0L0.833528 169.145L124.52 214.163L186.084 45.0183Z" fill="#739AF0"/>
    <path d="M179.154 47.6646L66.0068 6.48242L7.80105 166.401L120.948 207.584L179.154 47.6646Z" fill="#F3FAFF"/>
    <path d="M100.784 13.9727L98.6868 19.7345C98.4111 20.491 98.2871 21.2944 98.322 22.0989C98.3569 22.9033 98.5499 23.693 98.8901 24.4228C99.2303 25.1526 99.711 25.8083 100.305 26.3522C100.898 26.8962 101.593 27.3178 102.35 27.593L133.27 38.8469C134.027 39.1219 134.83 39.2451 135.634 39.2096C136.438 39.1741 137.227 38.9806 137.956 38.6401C138.686 38.2996 139.341 37.8188 139.884 37.2252C140.427 36.6315 140.849 35.9366 141.124 35.1802L143.221 29.4184L100.784 13.9727Z" fill="#2B478B"/>
    <path d="M43.1736 153.641L29.1742 148.546L28.6585 149.963L42.6579 155.058L43.1736 153.641Z" fill="#AEC3FF"/>
    <path d="M60.4128 159.919L46.4134 154.823L45.8977 156.24L59.8971 161.335L60.4128 159.919Z" fill="#AEC3FF"/>
    <path d="M47.4439 158.756L28.0295 151.689L27.5138 153.106L46.9282 160.173L47.4439 158.756Z" fill="#AEC3FF"/>
    <path d="M141.27 55.1099L87.0094 35.3608C85.2083 34.7053 83.2168 35.6339 82.5612 37.435C81.9057 39.2361 82.8343 41.2276 84.6354 41.8831L138.896 61.6322C140.697 62.2878 142.688 61.3591 143.344 59.558C143.999 57.7569 143.071 55.7654 141.27 55.1099Z" fill="#8C9DF4"/>
    <path d="M146.206 102.971L125.742 95.523L133.191 75.0596L153.654 82.5077L146.206 102.971ZM127.057 94.9091L145.592 101.656L152.339 83.1197L133.803 76.3732L127.057 94.9091Z" fill="#AFCDFB"/>
    <path d="M137.978 95.3201C137.766 95.2421 137.574 95.1184 137.415 94.958C137.257 94.7975 137.135 94.6041 137.059 94.3914L133.516 84.4503C133.391 84.0689 133.42 83.6539 133.597 83.2938C133.774 82.9337 134.085 82.657 134.463 82.5226C134.841 82.3882 135.257 82.4068 135.621 82.5745C135.986 82.7421 136.271 83.0455 136.415 83.42L139.218 91.3003L153.812 79.3922C154.129 79.1459 154.53 79.0334 154.929 79.0787C155.328 79.124 155.693 79.3235 155.947 79.6346C156.201 79.9457 156.324 80.3438 156.288 80.7438C156.253 81.1438 156.062 81.5141 155.757 81.7756L139.472 95.0638C139.281 95.2198 139.055 95.3277 138.814 95.3783C138.573 95.4288 138.323 95.4206 138.085 95.3543C138.052 95.3455 138.016 95.3337 137.978 95.3201Z" fill="#6ED200"/>
    <path d="M116.299 72.3329L70.8381 55.7866L70.1112 57.7836L115.572 74.3299L116.299 72.3329Z" fill="#AEC3FF"/>
    <path d="M109.49 79.9514L67.5934 64.7021L66.8665 66.6991L108.763 81.9483L109.49 79.9514Z" fill="#AEC3FF"/>
    <path d="M114.677 76.7917L102.284 72.2812L101.558 74.2782L113.95 78.7887L114.677 76.7917Z" fill="#AEC3FF"/>
    <path d="M98.8493 71.0309L69.2143 60.2446L68.4875 62.2416L98.1225 73.0278L98.8493 71.0309Z" fill="#AEC3FF"/>
    <path d="M60.0114 53.8671L57.7714 53.6915L57.9425 51.926L61.3311 52.0592L62.7188 52.5643L58.577 63.9437L56.6051 63.226L60.0114 53.8671Z" fill="#AEC3FF"/>
    <path d="M60.1326 63.7042C60.1844 63.562 60.2771 63.4384 60.3991 63.3489C60.5212 63.2595 60.667 63.2082 60.8181 63.2016C60.9693 63.195 61.119 63.2334 61.2483 63.3118C61.3777 63.3903 61.4808 63.5054 61.5448 63.6425C61.6087 63.7797 61.6306 63.9327 61.6076 64.0822C61.5845 64.2317 61.5177 64.3711 61.4155 64.4826C61.3133 64.5942 61.1803 64.6729 61.0333 64.7089C60.8863 64.7448 60.732 64.7364 60.5898 64.6847C60.3992 64.6153 60.2439 64.473 60.1582 64.2891C60.0724 64.1053 60.0632 63.8948 60.1326 63.7042Z" fill="#AEC3FF"/>
    <path d="M135.239 133.598L114.776 126.149L122.224 105.686L142.687 113.134L135.239 133.598ZM116.089 125.537L134.626 132.284L141.373 113.748L122.836 107.001L116.089 125.537Z" fill="#AFCDFB"/>
    <path d="M127.01 125.946C126.798 125.868 126.606 125.745 126.447 125.584C126.288 125.424 126.167 125.23 126.091 125.018L122.555 115.087C122.485 114.896 122.454 114.694 122.464 114.491C122.473 114.288 122.522 114.089 122.608 113.905C122.695 113.721 122.817 113.557 122.967 113.42C123.118 113.284 123.294 113.179 123.485 113.111C123.676 113.043 123.879 113.013 124.082 113.024C124.285 113.034 124.483 113.085 124.666 113.173C124.849 113.261 125.013 113.384 125.148 113.535C125.284 113.687 125.388 113.863 125.454 114.055L128.257 121.937L142.851 110.027C143.008 109.897 143.188 109.799 143.383 109.739C143.577 109.679 143.781 109.659 143.984 109.678C144.186 109.698 144.383 109.757 144.562 109.853C144.742 109.949 144.9 110.079 145.029 110.237C145.157 110.395 145.253 110.576 145.311 110.771C145.369 110.966 145.388 111.171 145.366 111.373C145.345 111.575 145.283 111.771 145.185 111.95C145.088 112.128 144.955 112.285 144.796 112.412L128.511 125.7C128.32 125.856 128.095 125.964 127.853 126.014C127.612 126.065 127.362 126.056 127.125 125.99C127.084 125.972 127.05 125.961 127.01 125.946Z" fill="#6ED200"/>
    <path d="M43.5033 91.318L48.5655 89.4391C50.5773 88.7003 51.4015 88.1847 51.7692 87.1744C52.1733 86.0642 51.6196 85.1414 50.5927 84.7676C49.5658 84.3938 48.6602 84.6928 47.3836 85.5059L46.3859 83.9075C48.0081 82.7928 49.3775 82.3247 51.38 83.0535C53.5768 83.8531 54.5925 85.7472 53.8516 87.783C53.2101 89.5454 51.9206 90.1479 49.3564 91.0659L46.3381 92.1565L51.6753 94.0991L51.0454 95.8296L42.9356 92.8779L43.5033 91.318Z" fill="#AEC3FF"/>
    <path d="M52.6396 95.5974C52.6908 95.4558 52.7829 95.3327 52.9042 95.2435C53.0254 95.1543 53.1705 95.1031 53.3209 95.0964C53.4713 95.0896 53.6203 95.1277 53.749 95.2058C53.8777 95.2838 53.9804 95.3983 54.0441 95.5347C54.1077 95.6712 54.1294 95.8234 54.1064 95.9722C54.0834 96.121 54.0168 96.2596 53.915 96.3705C53.8132 96.4814 53.6807 96.5596 53.5345 96.5952C53.3882 96.6307 53.2346 96.6221 53.0933 96.5703C52.9041 96.5015 52.75 96.3603 52.6649 96.1778C52.5798 95.9954 52.5707 95.7866 52.6396 95.5974Z" fill="#AEC3FF"/>
    <path d="M107.86 103.878L60.0885 86.4907L59.3617 88.4877L107.133 105.875L107.86 103.878Z" fill="#AEC3FF"/>
    <path d="M100.867 111.436L56.8411 95.4121L56.1143 97.4091L100.14 113.433L100.867 111.436Z" fill="#AEC3FF"/>
    <path d="M106.236 108.338L93.214 103.598L92.4871 105.595L105.51 110.335L106.236 108.338Z" fill="#AEC3FF"/>
    <path d="M89.6054 102.286L58.4648 90.9517L57.738 92.9486L88.8786 104.283L89.6054 102.286Z" fill="#AEC3FF"/>
    <path d="M124.029 164.394L103.566 156.946L111.014 136.482L131.477 143.931L124.029 164.394ZM104.879 156.333L123.417 163.08L130.163 144.544L111.626 137.797L104.879 156.333Z" fill="#AFCDFB"/>
    <path d="M115.801 156.741C115.589 156.663 115.397 156.539 115.238 156.379C115.079 156.218 114.958 156.025 114.882 155.812L111.346 145.881C111.212 145.498 111.236 145.077 111.412 144.711C111.587 144.344 111.901 144.063 112.283 143.926C112.666 143.79 113.087 143.811 113.455 143.984C113.822 144.157 114.106 144.468 114.245 144.85L117.048 152.731L131.642 140.822C131.798 140.692 131.979 140.594 132.173 140.534C132.368 140.474 132.572 140.453 132.775 140.472C132.977 140.492 133.174 140.551 133.353 140.647C133.532 140.743 133.691 140.874 133.82 141.032C133.948 141.189 134.044 141.371 134.102 141.566C134.16 141.761 134.179 141.965 134.157 142.168C134.136 142.37 134.074 142.566 133.976 142.744C133.878 142.922 133.746 143.08 133.587 143.207L117.299 156.489C117.108 156.643 116.883 156.75 116.642 156.799C116.401 156.848 116.152 156.838 115.916 156.771C115.875 156.766 115.841 156.755 115.801 156.741Z" fill="#6ED200"/>
    <path d="M96.65 134.675L48.8788 117.288L48.152 119.285L95.9231 136.672L96.65 134.675Z" fill="#AEC3FF"/>
    <path d="M89.6598 142.23L45.6341 126.206L44.9073 128.203L88.933 144.227L89.6598 142.23Z" fill="#AEC3FF"/>
    <path d="M95.0266 139.131L82.0042 134.392L81.2774 136.389L94.2998 141.128L95.0266 139.131Z" fill="#AEC3FF"/>
    <path d="M78.3987 133.079L47.2581 121.745L46.5312 123.742L77.6719 135.076L78.3987 133.079Z" fill="#AEC3FF"/>
    <path d="M32.3266 121.579L34.1301 120.821C34.5787 122.033 35.2701 122.871 36.4913 123.315C37.5737 123.709 38.6296 123.347 39.0064 122.312C39.4004 121.229 38.6345 120.259 37.0969 119.699L36.2032 119.374L36.3296 118.051L40.4408 115.979L35.6878 114.249L36.299 112.569L43.561 115.213L43.0357 116.656L38.8407 118.682C40.4914 119.566 41.656 121.003 40.9367 122.98C40.2003 125.003 38.1045 125.878 35.83 125.05C33.9157 124.342 32.8411 123.046 32.3266 121.579Z" fill="#AEC3FF"/>
    <path d="M40.478 125.942C40.528 125.805 40.6175 125.686 40.7353 125.599C40.853 125.513 40.9938 125.464 41.1397 125.457C41.2856 125.451 41.4301 125.488 41.5549 125.564C41.6798 125.639 41.7794 125.751 41.8411 125.883C41.9028 126.015 41.9239 126.163 41.9017 126.307C41.8795 126.452 41.8149 126.586 41.7163 126.694C41.6176 126.801 41.4892 126.877 41.3474 126.912C41.2055 126.947 41.0566 126.939 40.9193 126.889C40.7353 126.822 40.5854 126.684 40.5027 126.507C40.4199 126.33 40.411 126.126 40.478 125.942Z" fill="#AEC3FF"/>
    <path d="M79.295 171.914C77.2993 171.183 75.6158 169.787 74.5269 167.962C73.438 166.137 73.0101 163.992 73.3148 161.889C73.3393 161.723 73.4288 161.574 73.5635 161.474C73.6981 161.374 73.867 161.331 74.0329 161.356C74.1988 161.38 74.3482 161.47 74.4482 161.605C74.5481 161.739 74.5905 161.908 74.566 162.074C74.302 163.883 74.6672 165.727 75.6006 167.298C76.534 168.87 77.9789 170.073 79.6934 170.706C81.4079 171.34 83.2879 171.365 85.0188 170.778C86.7496 170.191 88.2263 169.027 89.2016 167.481C89.2944 167.347 89.4354 167.254 89.5951 167.221C89.7549 167.189 89.921 167.219 90.0591 167.305C90.1972 167.392 90.2965 167.529 90.3365 167.687C90.3764 167.845 90.3539 168.012 90.2735 168.154C89.1434 169.935 87.4401 171.278 85.4444 171.962C83.4488 172.645 81.2798 172.628 79.295 171.914Z" fill="#AEC3FF"/>
    <path d="M74.8623 159.393C74.8241 159.379 74.7872 159.362 74.752 159.342C74.609 159.256 74.5058 159.116 74.465 158.954C74.4242 158.792 74.449 158.621 74.5341 158.477C75.6168 156.677 77.2805 155.299 79.251 154.572C81.2216 153.844 83.3813 153.81 85.374 154.474C87.3667 155.139 89.0734 156.462 90.2128 158.227C91.3522 159.992 91.8563 162.092 91.6418 164.182C91.6332 164.264 91.6084 164.345 91.5689 164.418C91.5293 164.491 91.4757 164.555 91.4112 164.607C91.3467 164.66 91.2725 164.699 91.1929 164.723C91.1133 164.746 91.0298 164.754 90.9471 164.745C90.8645 164.737 90.7844 164.712 90.7114 164.672C90.6383 164.633 90.5738 164.579 90.5215 164.515C90.4692 164.45 90.43 164.376 90.4064 164.296C90.3827 164.217 90.375 164.133 90.3836 164.051C90.5672 162.248 90.1313 160.436 89.1477 158.914C88.1641 157.392 86.6915 156.251 84.9723 155.677C83.2532 155.104 81.3901 155.134 79.69 155.761C77.9898 156.388 76.5539 157.576 75.6189 159.128C75.5427 159.253 75.4258 159.347 75.2879 159.395C75.15 159.444 74.9996 159.443 74.8623 159.393Z" fill="#AEC3FF"/>
    <path d="M77.9626 175.573C75.5223 174.684 73.4002 173.093 71.8647 170.998C70.3291 168.904 69.449 166.402 69.3357 163.807C69.2225 161.213 69.8811 158.643 71.2283 156.423C72.5755 154.203 74.5508 152.432 76.9044 151.334C79.2579 150.237 81.8841 149.862 84.4508 150.257C87.0175 150.652 89.4093 151.799 91.324 153.554C93.2386 155.308 94.59 157.591 95.2072 160.114C95.8245 162.636 95.6799 165.285 94.7917 167.725C93.5977 170.995 91.1552 173.658 88.0001 175.129C84.845 176.601 81.2351 176.76 77.9626 175.573ZM86.329 152.586C84.223 151.82 81.937 151.695 79.7601 152.228C77.5832 152.76 75.6131 153.927 74.099 155.579C72.5849 157.231 71.5948 159.296 71.2539 161.511C70.9129 163.726 71.2365 165.992 72.1836 168.023C73.1308 170.054 74.659 171.759 76.575 172.922C78.4909 174.084 80.7087 174.653 82.9477 174.555C85.1867 174.457 87.3464 173.698 89.1538 172.373C90.9611 171.047 92.3349 169.216 93.1014 167.11C94.1256 164.286 93.9878 161.171 92.7182 158.448C91.4485 155.725 89.1508 153.617 86.329 152.586Z" fill="#AEC3FF"/>
    <path d="M85.457 162.577L80.5708 160.799L80.2859 161.582L85.1721 163.36L85.457 162.577Z" fill="#AEC3FF"/>
    <path d="M84.293 165.777L79.4068 163.999L79.1219 164.781L84.0081 166.56L84.293 165.777Z" fill="#AEC3FF"/>
    <path d="M86.0487 164.545L78.8561 161.927L78.5713 162.709L85.7639 165.327L86.0487 164.545Z" fill="#AEC3FF"/>
</svg>
