<svg width="46" height="32" viewBox="0 0 46 32" fill="none" xmlns="http://www.w3.org/2000/svg">
    <path d="M1.49479 1.41659C1.86956 1.41659 2.17382 1.11996 2.17382 0.754086C2.17382 0.387578 1.86956 0.0909424 1.49479 0.0909424C1.12003 0.0909424 0.816406 0.387578 0.816406 0.754086C0.816406 1.11996 1.12003 1.41659 1.49479 1.41659ZM2.85221 5.8077C3.64874 5.8077 4.2941 5.17695 4.2941 4.39883C4.2941 3.62072 3.64874 2.98997 2.85221 2.98997C2.05567 2.98997 1.41031 3.62072 1.41031 4.39883C1.41031 5.17695 2.05504 5.8077 2.85157 5.8077H2.85221ZM4.54818 9.45372C5.34471 9.45372 5.99007 8.8236 5.99007 8.04549C5.99007 7.26737 5.34471 6.63663 4.54818 6.63663C3.75164 6.63663 3.10628 7.26737 3.10628 8.04549C3.10628 8.8236 3.75164 9.45372 4.54818 9.45372ZM6.41438 12.6024C6.83615 12.6024 7.17788 12.2689 7.17788 11.8567C7.17788 11.4451 6.83615 11.1109 6.41438 11.1109C5.99324 11.1109 5.65151 11.4451 5.65151 11.8567C5.65151 12.2689 5.99324 12.6024 6.41438 12.6024ZM8.79064 16.7451C9.25878 16.7451 9.63863 16.3742 9.63863 15.9162C9.63863 15.4588 9.25878 15.0879 8.79064 15.0879C8.32187 15.0879 7.94266 15.4588 7.94266 15.9162C7.94266 16.3735 8.32187 16.7451 8.79064 16.7451ZM11.6751 21.9671C12.706 21.9671 13.5413 21.1502 13.5413 20.144C13.5413 19.1366 12.706 18.321 11.6751 18.321C10.6441 18.321 9.80886 19.1366 9.80886 20.144C9.80886 21.1502 10.6441 21.9671 11.6751 21.9671ZM14.8961 25.6944C15.5059 25.6944 15.9995 25.2123 15.9995 24.6177C15.9995 24.0225 15.5053 23.5404 14.8968 23.5404C14.287 23.5404 13.7934 24.0225 13.7934 24.6177C13.7934 25.2123 14.2876 25.6944 14.8961 25.6944ZM18.6298 31.9091C20.0825 31.9091 21.2595 30.7594 21.2595 29.3404C21.2595 27.9214 20.0825 26.7717 18.6298 26.7717C17.1778 26.7717 16.0001 27.9214 16.0001 29.3404C16.0001 30.7588 17.1778 31.9091 18.6298 31.9091Z" fill="#00BAAF"/>
    <path d="M6.92631 1.91391C7.30108 1.91391 7.6047 1.61727 7.6047 1.25077C7.6047 0.884893 7.30108 0.588257 6.92631 0.588257C6.55155 0.588257 6.24792 0.884893 6.24792 1.25077C6.24792 1.61727 6.55155 1.91391 6.92631 1.91391ZM8.02901 5.0613C8.40378 5.0613 8.70803 4.76466 8.70803 4.39879C8.70803 4.03292 8.40378 3.73565 8.02901 3.73565C7.65425 3.73565 7.35062 4.03292 7.35062 4.39879C7.35062 4.76466 7.65425 5.0613 8.02901 5.0613ZM9.38769 8.95632C10.1842 8.95632 10.8296 8.3262 10.8296 7.54809C10.8296 6.76997 10.1842 6.13923 9.38769 6.13923C8.59116 6.13923 7.9458 6.76997 7.9458 7.54809C7.9458 8.3262 8.59116 8.95695 9.38769 8.95695V8.95632ZM11.1688 11.6915C11.5435 11.6915 11.8472 11.3942 11.8472 11.0283C11.8472 10.6624 11.5435 10.3652 11.1688 10.3652C10.794 10.3652 10.4904 10.6624 10.4904 11.0283C10.4904 11.3942 10.794 11.6915 11.1688 11.6915ZM13.3735 16.1664C14.2171 16.1664 14.9005 15.4982 14.9005 14.675C14.9005 13.8511 14.2171 13.1835 13.3735 13.1835C12.5306 13.1835 11.8472 13.8505 11.8472 14.675C11.8472 15.4982 12.5306 16.1664 13.3735 16.1664ZM16.0032 20.1427C16.9402 20.1427 17.6999 19.4008 17.6999 18.4849C17.6999 17.5702 16.9402 16.8283 16.0039 16.8283C15.0663 16.8283 14.3066 17.5702 14.3066 18.4855C14.3066 19.4002 15.0663 20.1427 16.0032 20.1427ZM19.2262 23.3752C19.7414 23.3752 20.16 22.9668 20.16 22.4637C20.16 21.96 19.7414 21.5522 19.2262 21.5522C18.7111 21.5522 18.2931 21.96 18.2931 22.4637C18.2931 22.9668 18.7111 23.3746 19.2269 23.3746L19.2262 23.3752ZM23.3829 28.7604C24.6476 28.7604 25.6735 27.7587 25.6735 26.5226C25.6735 25.2872 24.6476 24.2855 23.3829 24.2855C22.1183 24.2855 21.0924 25.2872 21.0924 26.5226C21.0924 27.7587 22.1183 28.7604 23.3829 28.7604ZM11.8472 2.24548C11.9242 2.2464 12.0007 2.23213 12.0723 2.20349C12.1439 2.17484 12.2091 2.13238 12.2642 2.07853C12.3194 2.02468 12.3634 1.96049 12.3937 1.88963C12.4241 1.81877 12.4402 1.74262 12.4411 1.66555C12.4402 1.58847 12.4241 1.51233 12.3937 1.44147C12.3634 1.37061 12.3194 1.30642 12.2642 1.25257C12.2091 1.19871 12.1439 1.15625 12.0723 1.12761C12.0007 1.09896 11.9242 1.08469 11.8472 1.08561C11.6916 1.08392 11.5417 1.14405 11.4305 1.25279C11.3193 1.36154 11.2557 1.50999 11.2539 1.66555C11.2539 1.98569 11.5194 2.24548 11.8472 2.24548ZM12.8648 5.55993C13.5203 5.55993 14.0526 5.04034 14.0526 4.40006C14.0526 3.75852 13.5203 3.23956 12.8648 3.23956C12.2086 3.23956 11.6769 3.75915 11.6769 4.40006C11.6769 5.04034 12.2086 5.55993 12.8648 5.55993ZM14.0526 8.45959C14.7557 8.45959 15.3255 7.90316 15.3255 7.21652C15.3255 6.53051 14.7557 5.97344 14.0526 5.97344C13.35 5.97344 12.7803 6.52987 12.7803 7.21652C12.7803 7.90253 13.35 8.45959 14.0526 8.45959ZM15.6653 11.0277C16.0401 11.0277 16.3437 10.731 16.3437 10.3652C16.3437 9.9993 16.0401 9.70203 15.6647 9.70203C15.2899 9.70203 14.9863 9.9993 14.9863 10.3652C14.9863 10.731 15.2906 11.0277 15.6653 11.0277ZM17.7856 14.2596C18.1604 14.2596 18.4634 13.9629 18.4634 13.5964C18.4634 13.2305 18.1597 12.9339 17.785 12.9339C17.4102 12.9339 17.1066 13.2305 17.1066 13.5964C17.1066 13.9629 17.4102 14.2596 17.785 14.2596H17.7856ZM20.3296 18.4861C21.1731 18.4861 21.8566 17.8186 21.8566 16.9947C21.8566 16.1709 21.1731 15.5033 20.3296 15.5033C19.4867 15.5033 18.8026 16.1702 18.8026 16.9947C18.8026 17.8186 19.4867 18.4861 20.3296 18.4861ZM23.5525 22.2135C24.4895 22.2135 25.2485 21.4709 25.2485 20.5556C25.2485 19.6409 24.4895 18.899 23.5525 18.899C22.6156 18.899 21.8559 19.6409 21.8559 20.5562C21.8559 21.4709 22.6156 22.2135 23.5519 22.2135H23.5525ZM27.4552 26.1085C28.5325 26.1085 29.4065 25.2554 29.4065 24.2029C29.4065 23.1504 28.5325 22.2973 27.4552 22.2973C26.3779 22.2973 25.5039 23.1504 25.5039 24.2029C25.5039 25.2554 26.3779 26.1085 27.4552 26.1085ZM31.4423 23.7888C32.4256 23.7888 33.2234 23.01 33.2234 22.049C33.2234 21.0879 32.4256 20.3085 31.4417 20.3085C30.4577 20.3085 29.6606 21.0879 29.6606 22.049C29.6606 23.01 30.4577 23.7894 31.4417 23.7894L31.4423 23.7888ZM27.7093 20.4743C28.5522 20.4743 29.2363 19.8067 29.2363 18.9829C29.2363 18.159 28.5522 17.4914 27.7093 17.4914C26.8657 17.4914 26.1822 18.159 26.1822 18.9829C26.1822 19.8067 26.8657 20.4743 27.7093 20.4743ZM24.5714 17.0773C25.3209 17.0773 25.9288 16.484 25.9288 15.7516C25.9288 15.0199 25.3209 14.426 24.5714 14.426C23.8219 14.426 23.214 15.0199 23.214 15.7516C23.214 16.484 23.8219 17.0773 24.5714 17.0773ZM22.1113 14.0944C22.8608 14.0944 23.4687 13.5011 23.4687 12.7688C23.4687 12.0364 22.8614 11.4431 22.1119 11.4431C21.3624 11.4431 20.7545 12.0364 20.7545 12.7688C20.7545 13.5005 21.3618 14.0944 22.1113 14.0944ZM20.0761 10.4484C20.1532 10.4493 20.2297 10.435 20.3013 10.4064C20.3728 10.3778 20.438 10.3353 20.4932 10.2814C20.5483 10.2276 20.5923 10.1634 20.6227 10.0925C20.653 10.0217 20.6691 9.94553 20.67 9.86845C20.6691 9.79138 20.653 9.71524 20.6227 9.64438C20.5923 9.57352 20.5483 9.50933 20.4932 9.45547C20.438 9.40162 20.3728 9.35916 20.3013 9.33051C20.2297 9.30187 20.1532 9.2876 20.0761 9.28852C19.9206 9.28683 19.7707 9.34696 19.6595 9.4557C19.5482 9.56444 19.4847 9.7129 19.4828 9.86845C19.4828 10.1886 19.7484 10.4484 20.0761 10.4484ZM18.464 8.12802C19.0731 8.12802 19.5667 7.64527 19.5667 7.05073C19.5667 6.45555 19.0731 5.97344 18.464 5.97344C17.8548 5.97344 17.3613 6.45619 17.3613 7.05073C17.3613 7.64591 17.8548 8.12802 18.464 8.12802ZM17.2762 5.6425C17.8847 5.6425 18.3789 5.15976 18.3789 4.56458C18.3789 3.97003 17.8853 3.48792 17.2762 3.48792C16.6664 3.48792 16.1735 3.97003 16.1735 4.56458C16.1735 5.15976 16.667 5.64187 17.2762 5.64187V5.6425ZM16.2586 2.49384C16.5394 2.49384 16.7674 2.27152 16.7674 1.99648C16.7666 1.93042 16.7529 1.86515 16.7269 1.8044C16.7009 1.74365 16.6633 1.68861 16.616 1.64242C16.5688 1.59624 16.5129 1.55981 16.4516 1.53522C16.3902 1.51064 16.3247 1.49837 16.2586 1.49913C16.1925 1.49829 16.1268 1.51049 16.0654 1.53504C16.004 1.55959 15.9481 1.596 15.9008 1.64219C15.8535 1.68839 15.8157 1.74346 15.7897 1.80425C15.7637 1.86504 15.7499 1.93036 15.7492 1.99648C15.7492 2.27089 15.9778 2.49384 16.2586 2.49384ZM20.2451 2.82541C20.5258 2.82541 20.7539 2.6031 20.7539 2.32806C20.7531 2.26199 20.7394 2.19672 20.7134 2.13597C20.6874 2.07522 20.6497 2.02018 20.6025 1.97399C20.5552 1.92781 20.4994 1.89138 20.438 1.8668C20.3767 1.84221 20.3111 1.82994 20.2451 1.8307C20.179 1.82986 20.1133 1.84206 20.0519 1.86661C19.9905 1.89116 19.9346 1.92757 19.8873 1.97377C19.8399 2.01996 19.8022 2.07503 19.7762 2.13582C19.7502 2.19661 19.7364 2.26194 19.7357 2.32806C19.7357 2.60246 19.9643 2.82541 20.2451 2.82541ZM21.3478 5.55993C21.9099 5.55993 22.3654 5.11529 22.3654 4.56585C22.3654 4.0164 21.9093 3.57113 21.3478 3.57113C20.785 3.57113 20.3296 4.0164 20.3296 4.56585C20.3296 5.11466 20.785 5.55993 21.3478 5.55993ZM22.5356 7.96224C23.0977 7.96224 23.5538 7.5176 23.5538 6.96815C23.5538 6.41871 23.0977 5.97344 22.5356 5.97344C21.9734 5.97344 21.518 6.41871 21.518 6.96815C21.518 7.51696 21.9734 7.96224 22.5356 7.96224ZM24.1471 10.5316C24.7562 10.5316 25.2498 10.0489 25.2498 9.45431C25.2498 8.85913 24.7562 8.37702 24.1471 8.37702C23.5373 8.37702 23.0444 8.85977 23.0444 9.45431C23.0444 10.0489 23.5379 10.5316 24.1471 10.5316ZM26.0978 12.6849C26.1748 12.6858 26.2513 12.6716 26.3229 12.6429C26.3945 12.6143 26.4597 12.5718 26.5148 12.518C26.57 12.4641 26.614 12.3999 26.6443 12.3291C26.6747 12.2582 26.6908 12.1821 26.6917 12.105C26.6908 12.0279 26.6747 11.9518 26.6443 11.8809C26.614 11.81 26.57 11.7458 26.5148 11.692C26.4597 11.6381 26.3945 11.5957 26.3229 11.567C26.2513 11.5384 26.1748 11.5241 26.0978 11.525C25.9422 11.5233 25.7923 11.5835 25.6811 11.6922C25.5699 11.801 25.5063 11.9494 25.5045 12.105C25.5045 12.4251 25.77 12.6849 26.0978 12.6849ZM28.643 15.8336C29.2992 15.8336 29.8308 15.314 29.8308 14.6731C29.8308 14.0328 29.2992 13.5132 28.643 13.5132C27.9875 13.5132 27.4552 14.0328 27.4552 14.6731C27.4552 15.314 27.9868 15.8336 28.643 15.8336ZM31.6964 18.8997C32.4923 18.8997 33.1383 18.2689 33.1383 17.4914C33.1383 16.7133 32.4923 16.0826 31.6964 16.0826C30.8992 16.0826 30.2538 16.7133 30.2538 17.4914C30.2538 18.2689 30.8992 18.8997 31.6957 18.8997H31.6964ZM35.2598 21.0549C35.6816 21.0549 36.0233 20.7214 36.0233 20.3092C36.0233 19.8975 35.6816 19.5634 35.2598 19.5634C34.8387 19.5634 34.497 19.8975 34.497 20.3092C34.497 20.7214 34.8387 21.0549 35.2598 21.0549ZM35.2592 17.6572C35.9617 17.6572 36.5315 17.1008 36.5315 16.4141C36.5315 15.7281 35.9617 15.1717 35.2592 15.1717C34.5567 15.1717 33.9869 15.7281 33.9869 16.4141C33.9869 17.1008 34.5567 17.6572 35.2592 17.6572ZM38.7369 19.397C39.1116 19.397 39.4153 19.1004 39.4153 18.7339C39.4153 18.368 39.1116 18.0714 38.7369 18.0714C38.3621 18.0714 38.0579 18.368 38.0579 18.7339C38.0579 19.1004 38.3615 19.397 38.7369 19.397ZM32.2909 15.0879C32.9464 15.0879 33.4787 14.5683 33.4787 13.928C33.4787 13.2871 32.9464 12.7681 32.2909 12.7681C31.6348 12.7681 31.1031 13.2871 31.1031 13.928C31.1031 14.5683 31.6348 15.0879 32.2909 15.0879ZM29.8295 12.6023C30.4393 12.6023 30.9322 12.1196 30.9322 11.525C30.9322 10.9299 30.4387 10.4478 29.8295 10.4478C29.221 10.4478 28.7268 10.9305 28.7268 11.525C28.7268 12.1202 29.221 12.6023 29.8295 12.6023ZM27.8795 9.61882C28.1609 9.61882 28.3889 9.39651 28.3889 9.1221C28.3881 9.05604 28.3743 8.99078 28.3482 8.93006C28.3221 8.86934 28.2844 8.81435 28.2371 8.76822C28.1898 8.7221 28.1339 8.68574 28.0725 8.66123C28.0111 8.63672 27.9456 8.62454 27.8795 8.62538C27.7462 8.62385 27.6177 8.67531 27.5223 8.76845C27.4269 8.86159 27.3724 8.98879 27.3707 9.1221C27.3707 9.39714 27.5987 9.61946 27.8795 9.61946V9.61882ZM26.2674 7.87966C26.8295 7.87966 27.2849 7.43502 27.2849 6.88558C27.2849 6.33614 26.8295 5.8915 26.2674 5.8915C25.7052 5.8915 25.2491 6.33614 25.2491 6.88558C25.2491 7.43439 25.7052 7.87966 26.2674 7.87966ZM24.9951 5.31093C25.2758 5.31093 25.5039 5.08861 25.5039 4.81357C25.5022 4.68026 25.4477 4.55306 25.3523 4.45992C25.2569 4.36678 25.1284 4.31533 24.9951 4.31685C24.8618 4.31533 24.7333 4.36678 24.6379 4.45992C24.5425 4.55306 24.488 4.68026 24.4863 4.81357C24.4863 5.08861 24.7137 5.31093 24.9944 5.31093H24.9951ZM23.893 3.15699C24.1744 3.15699 24.4018 2.93467 24.4018 2.65963C24.4003 2.52631 24.3459 2.39905 24.2506 2.30579C24.1554 2.21254 24.027 2.16091 23.8936 2.16227C23.8275 2.16143 23.7619 2.17364 23.7005 2.19818C23.6391 2.22273 23.5831 2.25914 23.5358 2.30534C23.4885 2.35153 23.4508 2.4066 23.4247 2.46739C23.3987 2.52818 23.385 2.59351 23.3842 2.65963C23.3842 2.93403 23.6122 3.15699 23.893 3.15699ZM27.1585 3.36342C27.2192 3.36418 27.2793 3.35298 27.3356 3.33046C27.3919 3.30794 27.4432 3.27454 27.4865 3.23218C27.5299 3.18983 27.5645 3.13933 27.5883 3.08359C27.6121 3.02786 27.6247 2.96797 27.6254 2.90735C27.6247 2.84679 27.612 2.78697 27.5881 2.73131C27.5643 2.67564 27.5297 2.62523 27.4863 2.58293C27.443 2.54064 27.3917 2.5073 27.3355 2.48482C27.2792 2.46235 27.2191 2.45116 27.1585 2.45192C27.0363 2.45056 26.9186 2.49777 26.8312 2.58316C26.7438 2.66856 26.6938 2.78516 26.6923 2.90735C26.6923 3.15953 26.9007 3.36342 27.1585 3.36342ZM28.3038 5.80765C28.8189 5.80765 29.2369 5.39986 29.2369 4.89678C29.2369 4.39307 28.8189 3.98528 28.3038 3.98528C27.7887 3.98528 27.3707 4.39307 27.3707 4.89678C27.3707 5.39986 27.7887 5.80829 28.3038 5.80829V5.80765ZM29.6599 7.79645C30.1757 7.79645 30.5937 7.38865 30.5937 6.88494C30.5937 6.38187 30.1757 5.97344 29.6599 5.97344C29.1448 5.97344 28.7268 6.38187 28.7268 6.88494C28.7268 7.38865 29.1448 7.79645 29.6606 7.79645H29.6599ZM31.2733 9.78524C31.7885 9.78524 32.2064 9.37681 32.2064 8.87374C32.2064 8.37003 31.7885 7.96224 31.2727 7.96224C30.7582 7.96224 30.3402 8.37003 30.3402 8.87374C30.3402 9.37681 30.7576 9.78524 31.2733 9.78524ZM33.224 11.6076C33.5048 11.6076 33.7328 11.3853 33.7328 11.1109C33.7321 11.0448 33.7183 10.9796 33.6923 10.9188C33.6664 10.8581 33.6287 10.803 33.5814 10.7568C33.5342 10.7106 33.4783 10.6742 33.417 10.6496C33.3557 10.625 33.2901 10.6128 33.224 10.6135C33.1579 10.6127 33.0923 10.6249 33.0309 10.6495C32.9695 10.674 32.9135 10.7104 32.8662 10.7566C32.8189 10.8028 32.7811 10.8579 32.7551 10.9187C32.7291 10.9795 32.7153 11.0448 32.7146 11.1109C32.7146 11.3853 32.9433 11.6076 33.224 11.6076ZM35.5996 14.3428C36.2082 14.3428 36.7023 13.86 36.7023 13.2655C36.7023 12.6703 36.2082 12.1882 35.5996 12.1882C34.9899 12.1882 34.497 12.6709 34.497 13.2655C34.497 13.86 34.9905 14.3428 35.5996 14.3428ZM38.397 15.9174C38.4741 15.9183 38.5506 15.9041 38.6222 15.8754C38.6938 15.8468 38.759 15.8043 38.8141 15.7505C38.8693 15.6966 38.9133 15.6324 38.9436 15.5616C38.974 15.4907 38.99 15.4146 38.991 15.3375C38.99 15.2604 38.974 15.1843 38.9436 15.1134C38.9133 15.0425 38.8693 14.9784 38.8141 14.9245C38.759 14.8706 38.6938 14.8282 38.6222 14.7995C38.5506 14.7709 38.4741 14.7566 38.397 14.7576C38.32 14.7566 38.2435 14.7709 38.1719 14.7995C38.1003 14.8282 38.0351 14.8706 37.98 14.9245C37.9248 14.9784 37.8808 15.0425 37.8505 15.1134C37.8201 15.1843 37.8041 15.2604 37.8031 15.3375C37.8031 15.6583 38.0693 15.9174 38.397 15.9174ZM41.7896 18.8164C42.5392 18.8164 43.147 18.2232 43.147 17.4908C43.147 16.7584 42.5398 16.1651 41.7903 16.1651C41.0407 16.1651 40.4328 16.7584 40.4328 17.4908C40.4328 18.2232 41.0407 18.8164 41.7903 18.8164H41.7896ZM44.5908 16.9947C44.6679 16.9956 44.7444 16.9814 44.816 16.9527C44.8875 16.9241 44.9528 16.8816 45.0079 16.8278C45.0631 16.7739 45.1071 16.7097 45.1374 16.6389C45.1677 16.568 45.1838 16.4919 45.1847 16.4148C45.1829 16.2592 45.1194 16.1108 45.0081 16.002C44.8969 15.8933 44.747 15.8331 44.5915 15.8348C44.5144 15.8339 44.4379 15.8482 44.3663 15.8768C44.2948 15.9055 44.2295 15.9479 44.1744 16.0018C44.1192 16.0556 44.0752 16.1198 44.0449 16.1907C44.0146 16.2616 43.9985 16.3377 43.9976 16.4148C43.9976 16.7349 44.2631 16.9947 44.5908 16.9947ZM41.1989 15.6678C41.8074 15.6678 42.301 15.185 42.301 14.5905C42.301 13.9953 41.8074 13.5132 41.1983 13.5132C40.5891 13.5132 40.0956 13.996 40.0956 14.5905C40.0956 15.185 40.5891 15.6678 41.1983 15.6678H41.1989ZM38.3983 13.0991C38.6797 13.0991 38.9077 12.8767 38.9077 12.6017C38.907 12.5356 38.8932 12.4703 38.8672 12.4095C38.8412 12.3487 38.8035 12.2936 38.7561 12.2474C38.7088 12.2012 38.6529 12.1648 38.5915 12.1403C38.5301 12.1157 38.4644 12.1035 38.3983 12.1043C38.3322 12.1036 38.2667 12.1159 38.2054 12.1404C38.144 12.165 38.0882 12.2015 38.0409 12.2476C37.9937 12.2938 37.956 12.3489 37.93 12.4096C37.904 12.4704 37.8903 12.5356 37.8895 12.6017C37.8895 12.8761 38.1176 13.0991 38.3983 13.0991ZM36.1065 11.525C36.6217 11.525 37.0396 11.1172 37.0396 10.6135C37.0396 10.1105 36.6217 9.70203 36.1059 9.70203C35.5914 9.70203 35.1734 10.1105 35.1734 10.6135C35.1734 11.1172 35.5908 11.525 36.1065 11.525ZM34.1565 9.61882C34.671 9.61882 35.0896 9.21103 35.0896 8.70732C35.0896 8.20424 34.6716 7.79581 34.1558 7.79581C33.6413 7.79581 33.2234 8.20424 33.2234 8.70732C33.2234 9.21103 33.6407 9.61882 34.1565 9.61882ZM32.545 7.63066C33.0138 7.63066 33.3936 7.25971 33.3936 6.80237C33.3936 6.34503 33.0138 5.97344 32.545 5.97344C32.0762 5.97344 31.697 6.34439 31.697 6.80237C31.697 7.25971 32.0762 7.63066 32.545 7.63066ZM31.2733 5.72571C31.7421 5.72571 32.122 5.35476 32.122 4.89742C32.122 4.44008 31.7421 4.06849 31.2733 4.06849C30.8046 4.06849 30.4254 4.44008 30.4254 4.89742C30.4254 5.35476 30.8046 5.72571 31.2733 5.72571ZM30.0004 3.48729C30.0556 3.48804 30.1103 3.4779 30.1616 3.45745C30.2128 3.437 30.2595 3.40664 30.299 3.3681C30.3385 3.32957 30.3699 3.28362 30.3916 3.2329C30.4133 3.18217 30.4248 3.12767 30.4254 3.0725C30.4247 3.01745 30.4132 2.96306 30.3915 2.91245C30.3698 2.86184 30.3384 2.816 30.299 2.77754C30.2596 2.73909 30.213 2.70877 30.1619 2.68832C30.1107 2.66787 30.0561 2.65769 30.001 2.65836C29.946 2.65769 29.8913 2.66787 29.8402 2.68832C29.7891 2.70877 29.7425 2.73909 29.7031 2.77754C29.6637 2.816 29.6323 2.86184 29.6106 2.91245C29.5889 2.96306 29.5774 3.01745 29.5767 3.0725C29.5767 3.30117 29.7667 3.48729 30.001 3.48729H30.0004Z" fill="#3653B7"/>
</svg>
