<svg xmlns="http://www.w3.org/2000/svg" width="33" height="23" viewBox="0 0 33 23" fill="none">
    <path fill-rule="evenodd" clip-rule="evenodd" d="M0 2.86727C1.1787 1.81583 2.57434 1.00811 4.11012 0.521912V22.4784C2.57434 21.9922 1.1787 21.1845 0 20.133V2.86727V2.86727Z" fill="#6ED200"/>
    <path fill-rule="evenodd" clip-rule="evenodd" d="M5.29156 0.217546C6.00578 0.0749006 6.7441 0 7.49972 0C13.7698 0 18.8528 5.14872 18.8528 11.5C18.8528 17.8513 13.7698 23 7.49972 23C6.7441 23 6.00578 22.9251 5.29156 22.7824V0.217546Z" fill="#8F73FF"/>
    <rect x="21.8528" y="6" width="11" height="11" rx="2" fill="#8F73FF"/>
    <path d="M29.7786 9.25L28.1042 13.75H26.5222L24.927 9.25H26.4124L27.1946 12.0229C27.2825 12.3364 27.3337 12.603 27.3484 12.8228H27.366C27.3865 12.6147 27.4407 12.3569 27.5286 12.0493L28.3284 9.25H29.7786Z" fill="white"/>
</svg>
