<svg width="50" height="44" viewBox="0 0 50 44" fill="none" xmlns="http://www.w3.org/2000/svg">
    <path d="M21.6768 26.665H19.7646C19.5533 26.665 19.4023 26.6952 19.3117 26.7456C19.201 26.816 19.1507 26.9267 19.1507 27.0575V28.7785C19.1507 28.9496 19.201 29.0704 19.3017 29.1408C19.4023 29.2113 19.5633 29.2414 19.8049 29.2414H21.6768V29.7748H19.5432C19.191 29.7748 18.9192 29.7044 18.728 29.5534C18.5368 29.4125 18.4362 29.2113 18.4362 28.9496V26.9368C18.4362 26.6349 18.5368 26.4235 18.7381 26.2927C18.9092 26.182 19.201 26.1216 19.5935 26.1216H21.6768V26.665Z" fill="#343535"/>
    <path d="M26.3364 26.1317L24.6658 28.2955V29.785H23.9412V28.2955L22.2705 26.1317H23.0958L24.2733 27.7118L25.5011 26.1317H26.3364Z" fill="#343535"/>
    <path d="M30.4625 28.9497C30.4625 29.2113 30.3719 29.4126 30.2009 29.5535C30.0096 29.7045 29.7379 29.785 29.3957 29.785H26.8898V26.1317H29.3957C30.1002 26.1317 30.4525 26.4034 30.4525 26.957V27.2589C30.4525 27.44 30.4223 27.5709 30.3719 27.6615C30.3116 27.7722 30.1707 27.8728 29.9694 27.9634C30.0197 27.9835 30.1002 28.0238 30.2109 28.0741C30.3418 28.1546 30.4223 28.2955 30.4525 28.4867C30.4625 28.537 30.4625 28.688 30.4625 28.9497ZM29.7379 28.849V28.6075C29.7379 28.3559 29.5568 28.225 29.1844 28.225H27.6244V29.2516H29.1844C29.5568 29.2516 29.7379 29.1207 29.7379 28.849ZM29.748 27.3193V27.0475C29.748 26.7859 29.5467 26.655 29.1542 26.655H27.6345V27.6916H29.1844C29.5568 27.6916 29.748 27.5709 29.748 27.3193Z" fill="#343535"/>
    <path d="M34.5888 28.2251H32.2237V28.839C32.2237 29.1107 32.435 29.2516 32.8577 29.2516H34.7297V29.785H32.6564C32.2941 29.785 32.0224 29.7246 31.8211 29.6038C31.5997 29.4629 31.489 29.2717 31.489 29.0201V26.967C31.489 26.7154 31.5897 26.5142 31.7809 26.3733C31.9721 26.2324 32.2438 26.1519 32.586 26.1519H34.7196V26.6853H32.8376C32.4149 26.6853 32.2136 26.8161 32.2136 27.0878V27.7118H34.5787V28.2251H34.5888Z" fill="#343535"/>
    <path d="M39.4798 29.7849H38.574L36.7927 28.386C36.7323 28.3357 36.7021 28.2652 36.7021 28.1545C36.7021 27.9533 36.8531 27.8526 37.155 27.8526L38.2218 27.8426C38.574 27.8426 38.7552 27.7218 38.7552 27.4802V27.0576C38.7552 26.806 38.5539 26.6751 38.1614 26.6751H36.6619V29.7849H35.9373V26.1417H38.3728C39.1175 26.1417 39.4899 26.4034 39.4899 26.9167V27.5507C39.4899 27.7721 39.3892 27.9633 39.198 28.0942C39.0068 28.2351 38.7552 28.3055 38.4432 28.3055H37.6079L39.4798 29.7849Z" fill="#343535"/>
    <path d="M21.6666 31.7474H19.8047C19.5028 31.7474 19.3116 31.8078 19.2311 31.9185C19.1908 31.989 19.1607 32.1399 19.1607 32.3815C19.1607 32.5123 19.221 32.6029 19.3317 32.6733C19.4223 32.7337 19.5833 32.7539 19.7947 32.7539H20.5596C20.8917 32.7539 21.1533 32.8243 21.3446 32.9551C21.5458 33.086 21.6364 33.2671 21.6364 33.5087V34.0823C21.6364 34.3339 21.5358 34.5251 21.3345 34.656C21.1332 34.7868 20.8514 34.8572 20.5092 34.8572H18.436V34.3238H20.2979C20.6099 34.3238 20.8011 34.2635 20.8715 34.1427C20.9017 34.0823 20.9219 33.9112 20.9219 33.6496C20.9219 33.3979 20.7206 33.2772 20.318 33.2772H19.5531C19.2311 33.2772 18.9694 33.2168 18.7681 33.096C18.5467 32.9652 18.436 32.784 18.436 32.5526V31.9789C18.436 31.7273 18.5568 31.516 18.7983 31.365C18.9694 31.2543 19.211 31.204 19.5431 31.204H21.6565V31.7474H21.6666Z" fill="#343535"/>
    <path d="M25.7123 33.3073H23.3472V33.9212C23.3472 34.193 23.5586 34.3339 23.9813 34.3339H25.8532V34.8673H23.78C23.4177 34.8673 23.1459 34.8069 22.9447 34.6861C22.7233 34.5452 22.6125 34.354 22.6125 34.1024V32.0493C22.6125 31.7977 22.7132 31.5964 22.9044 31.4555C23.0956 31.3146 23.3674 31.2341 23.7095 31.2341H25.8431V31.7675H23.9712C23.5485 31.7675 23.3472 31.8984 23.3472 32.1701V32.7941H25.7123V33.3073Z" fill="#343535"/>
    <path d="M30.2917 31.7374H28.3795C28.1681 31.7374 28.0172 31.7676 27.9266 31.8179C27.8159 31.8884 27.7656 31.9991 27.7656 32.1299V33.8509C27.7656 34.022 27.8159 34.1427 27.9165 34.2132C28.0172 34.2836 28.1782 34.3138 28.4197 34.3138H30.2917V34.8472H28.1581C27.8058 34.8472 27.5341 34.7768 27.3429 34.6258C27.1517 34.4849 27.051 34.2836 27.051 34.022V32.0092C27.051 31.7072 27.1517 31.4959 27.3529 31.3651C27.524 31.2543 27.8159 31.194 28.2084 31.194H30.2917V31.7374Z" fill="#343535"/>
    <path d="M34.941 33.9415C34.941 34.1025 34.9208 34.2333 34.8906 34.3239C34.8403 34.4447 34.7598 34.5554 34.629 34.646C34.4982 34.7466 34.3572 34.807 34.2164 34.8372C34.1157 34.8573 33.9547 34.8674 33.7232 34.8674H32.586C32.3646 34.8674 32.2035 34.8573 32.1029 34.8372C31.9519 34.807 31.811 34.7466 31.6802 34.656C31.5393 34.5554 31.4487 34.4447 31.3984 34.334C31.3682 34.2535 31.3582 34.1327 31.3582 33.9515V31.2242H32.0828V33.8509C32.0828 34.0421 32.1331 34.173 32.2337 34.2333C32.3344 34.3038 32.5155 34.334 32.7772 34.334H33.5219C33.7836 34.334 33.9647 34.3038 34.0654 34.2333C34.166 34.173 34.2164 34.0421 34.2164 33.861V31.2141H34.941V33.9415Z" fill="#343535"/>
    <path d="M39.5203 34.8573H38.6146L36.8332 33.4584C36.7728 33.4081 36.7427 33.3376 36.7427 33.2269C36.7427 33.0256 36.8936 32.925 37.1955 32.925L38.2623 32.9149C38.6146 32.9149 38.7957 32.7942 38.7957 32.5526V32.1299C38.7957 31.8783 38.5944 31.7475 38.202 31.7475H36.7024V34.8573H35.9778V31.2141H38.4133C39.158 31.2141 39.5304 31.4758 39.5304 31.989V32.6231C39.5304 32.8445 39.4298 33.0357 39.2386 33.1665C39.0473 33.3074 38.7957 33.3779 38.4837 33.3779H37.6484L39.5203 34.8573Z" fill="#343535"/>
    <path d="M41.4423 34.8573H40.7177V31.194H41.4423V34.8573Z" fill="#343535"/>
    <path d="M45.4579 31.7374H44.2201V34.8673H43.4955V31.7374H42.2576V31.204H45.4579V31.7374Z" fill="#343535"/>
    <path d="M49.8762 31.2141L48.2056 33.3779V34.8674H47.4809V33.3779L45.8103 31.2141H46.6356L47.8131 32.7942L49.0409 31.2141H49.8762Z" fill="#343535"/>
    <path d="M21.6767 36.8197H19.7645C19.5532 36.8197 19.4022 36.8499 19.3116 36.9002C19.2009 36.9707 19.1506 37.0814 19.1506 37.2122V38.9332C19.1506 39.1043 19.2009 39.225 19.3015 39.2955C19.4022 39.3659 19.5632 39.3961 19.8047 39.3961H21.6767V39.9295H19.5431C19.1908 39.9295 18.9191 39.8591 18.7279 39.7081C18.5367 39.5672 18.436 39.3659 18.436 39.1043V37.0914C18.436 36.7895 18.5367 36.5782 18.738 36.4473C18.909 36.3366 19.2009 36.2762 19.5934 36.2762H21.6767V36.8197Z" fill="#343535"/>
    <path d="M25.8231 38.3797H23.4581V38.9936C23.4581 39.2654 23.6694 39.4063 24.0921 39.4063H25.964V39.9397H23.8908C23.5285 39.9397 23.2568 39.8793 23.0555 39.7585C22.8341 39.6176 22.7234 39.4264 22.7234 39.1748V37.1217C22.7234 36.8701 22.824 36.6688 23.0152 36.5279C23.2065 36.387 23.4782 36.3065 23.8204 36.3065H25.954V36.8399H24.072C23.6493 36.8399 23.448 36.9707 23.448 37.2425V37.8665H25.8131V38.3797H25.8231Z" fill="#343535"/>
    <path d="M30.7443 39.5068C30.7443 39.6477 30.694 39.7584 30.5933 39.849C30.4826 39.9497 30.3317 40 30.1505 40C29.9794 40 29.8486 39.9597 29.748 39.8792C29.7077 39.849 29.6373 39.7484 29.5265 39.5873L27.8358 37.0109V39.9497H27.1414V36.8298C27.1414 36.4775 27.3426 36.2964 27.7351 36.2964C27.9163 36.2964 28.0471 36.3366 28.1478 36.4071C28.1981 36.4474 28.2786 36.548 28.3692 36.699L30.0398 39.2653V36.3165H30.7342V39.5068H30.7443Z" fill="#343535"/>
    <path d="M34.7598 36.8097H33.5219V39.9396H32.7973V36.8097H31.5594V36.2864H34.7598V36.8097Z" fill="#343535"/>
    <path d="M38.6647 38.3797H36.2996V38.9936C36.2996 39.2654 36.511 39.4063 36.9337 39.4063H38.8056V39.9397H36.7324C36.3701 39.9397 36.0983 39.8793 35.8971 39.7585C35.6756 39.6176 35.5649 39.4264 35.5649 39.1748V37.1217C35.5649 36.8701 35.6656 36.6688 35.8568 36.5279C36.048 36.387 36.3197 36.3065 36.6619 36.3065H38.7955V36.8399H36.9135C36.4908 36.8399 36.2896 36.9707 36.2896 37.2425V37.8665H38.6647V38.3797Z" fill="#343535"/>
    <path d="M43.6969 39.9396H42.7911L41.0097 38.5407C40.9494 38.4904 40.9192 38.4199 40.9192 38.3092C40.9192 38.1079 41.0701 38.0073 41.3721 38.0073L42.4388 37.9972C42.7911 37.9972 42.9722 37.8765 42.9722 37.6349V37.2122C42.9722 36.9606 42.771 36.8298 42.3785 36.8298H40.8789V39.9396H40.1543V36.2964H42.5898C43.3346 36.2964 43.7069 36.5581 43.7069 37.0713V37.7054C43.7069 37.9268 43.6063 38.118 43.4151 38.2488C43.2238 38.3897 42.9722 38.4602 42.6603 38.4602H41.8249L43.6969 39.9396Z" fill="#343535"/>
    <path d="M16.6144 24.0786L16.6647 8.13707C16.6647 7.90559 16.3829 7.78483 16.2219 7.95592L0.199857 23.8874C0.0388312 24.0484 0.149538 24.3302 0.381012 24.3302H16.3427C16.4936 24.3302 16.6144 24.2195 16.6144 24.0786Z" fill="#2176BC"/>
    <path d="M16.5941 26.4034L16.6343 39.4565C16.6343 39.7484 16.2821 39.8993 16.0808 39.688L2.95726 26.6349C2.74591 26.4336 2.89687 26.0713 3.18873 26.0713H16.262C16.4431 26.0713 16.5941 26.2222 16.5941 26.4034Z" fill="#49B172"/>
    <path d="M23.6978 18.4025C23.9695 18.4025 24.201 18.3018 24.3922 18.1006C24.5834 17.8993 24.6841 17.6577 24.6841 17.3659V15.7053C24.6841 15.4235 24.5834 15.1719 24.3922 14.9706C24.201 14.7693 23.9695 14.6687 23.6978 14.6687C23.426 14.6687 23.2046 14.7693 23.0134 14.9706C22.8222 15.1719 22.7216 15.4134 22.7216 15.7053V17.3659C22.7216 17.6477 22.8222 17.8993 23.0134 18.1006C23.2046 18.3018 23.4361 18.4025 23.6978 18.4025Z" fill="#2176BC"/>
    <path d="M31.6483 18.4025C31.9201 18.4025 32.1515 18.3018 32.3428 18.1006C32.534 17.8993 32.6346 17.6577 32.6346 17.3659V15.7053C32.6346 15.4235 32.534 15.1719 32.3428 14.9706C32.1515 14.7693 31.9201 14.6687 31.6483 14.6687C31.3766 14.6687 31.1552 14.7693 30.964 14.9706C30.7728 15.1719 30.6721 15.4134 30.6721 15.7053V17.3659C30.6721 17.6477 30.7728 17.8993 30.964 18.1006C31.1552 18.3018 31.3766 18.4025 31.6483 18.4025Z" fill="#2176BC"/>
    <path d="M26.6969 11.3777C26.6969 11.6595 26.7975 11.9111 26.9888 12.1124C27.18 12.3136 27.4115 12.4143 27.6731 12.4143C27.9448 12.4143 28.1763 12.3136 28.3675 12.1124C28.5588 11.9111 28.6594 11.6695 28.6594 11.3777V10.019L27.3712 8.73083C27.2303 8.78116 27.1095 8.86167 26.9888 8.98244C26.7975 9.18372 26.6969 9.42526 26.6969 9.71711V11.3777Z" fill="#2176BC"/>
    <path d="M19.4307 20.687H18.6054V20.0027H20.2257L20.2358 24.3302H23.3959V20.687H22.5706V20.0027H24.191L24.201 24.3302H26.1837C25.9924 24.0384 25.8918 23.7062 25.8918 23.3339V21.7236C25.8918 21.2204 26.0629 20.7877 26.4051 20.4354C26.7472 20.0832 27.1699 19.902 27.6631 19.902C28.1562 19.902 28.5789 20.0832 28.9211 20.4253C29.2733 20.7776 29.4444 21.2103 29.4444 21.7136V23.3238C29.4444 23.6962 29.3438 24.0283 29.1526 24.3201H31.3365V20.687H30.5112V20.0027H32.1315L32.1416 24.3302H34.1343C33.9431 24.0384 33.8424 23.7062 33.8424 23.3339V21.7236C33.8424 21.2204 34.0135 20.7877 34.3557 20.4354C34.6979 20.0832 35.1206 19.902 35.6137 19.902C36.1069 19.902 36.5295 20.0832 36.8717 20.4253C37.224 20.7776 37.3951 21.2103 37.3951 21.7136V23.3238C37.3951 23.6962 37.2944 24.0283 37.1032 24.3201H39.2871V20.687H38.4618V20.0027H38.6732L36.1169 17.4564V18.3924H36.6906V19.0768H34.7381V18.3924H35.3118V16.6513L29.4545 10.8141V11.3475C29.4545 11.8407 29.2834 12.2734 28.9312 12.6257C28.5789 12.9779 28.1663 13.1591 27.6731 13.1591C27.18 13.1591 26.7573 12.9779 26.4151 12.6257C26.073 12.2734 25.9019 11.8407 25.9019 11.3475V9.73728C25.9019 9.23408 26.073 8.80132 26.4151 8.44908C26.5359 8.32831 26.6567 8.22767 26.7875 8.14716L24.2111 5.59088V6.41614H24.7847V7.10049H22.8323V6.41614H23.406V4.78575L18.6457 0.0556297C18.5249 -0.0651394 18.3236 0.0254378 18.3236 0.186463L18.3337 2.6421C18.3739 2.58172 18.4242 2.5314 18.4746 2.47101C18.8167 2.11877 19.2394 1.93761 19.7326 1.93761C20.2257 1.93761 20.6484 2.11877 20.9906 2.46095C21.3428 2.81319 21.5139 3.24595 21.5139 3.74915V5.35941C21.5139 5.85255 21.3428 6.2853 20.9906 6.63754C20.6383 6.98979 20.2257 7.17094 19.7326 7.17094C19.2394 7.17094 18.8167 6.98979 18.4746 6.63754C18.4242 6.58722 18.384 6.5369 18.3437 6.48658L18.3941 24.139C18.3941 24.2396 18.4746 24.3302 18.5853 24.3302H19.4307V20.687ZM29.8772 15.7455C29.8772 15.2423 30.0483 14.8096 30.3904 14.4573C30.7326 14.1051 31.1553 13.9239 31.6485 13.9239C32.1416 13.9239 32.5643 14.1051 32.9065 14.4473C33.2587 14.7995 33.4298 15.2323 33.4298 15.7355V17.3457C33.4298 17.8389 33.2587 18.2716 32.9065 18.6239C32.5542 18.9761 32.1416 19.1573 31.6485 19.1573C31.1553 19.1573 30.7326 18.9761 30.3904 18.6239C30.0483 18.2716 29.8772 17.8389 29.8772 17.3457V15.7455ZM26.546 14.0145H28.1663L28.1763 18.3924H28.75V19.0768H26.7976V18.3924H27.3712V14.6888H26.546V14.0145ZM22.5807 8.02639H24.201L24.2111 12.4043H24.7847V13.0886H22.8323V12.4043H23.406V8.70068H22.5807V8.02639ZM21.9266 15.7455C21.9266 15.2423 22.0976 14.8096 22.4398 14.4573C22.782 14.1051 23.2047 13.9239 23.6978 13.9239C24.191 13.9239 24.6137 14.1051 24.9558 14.4473C25.3081 14.7995 25.4792 15.2323 25.4792 15.7355V17.3457C25.4792 17.8389 25.3081 18.2716 24.9558 18.6239C24.6036 18.9761 24.191 19.1573 23.6978 19.1573C23.2047 19.1573 22.782 18.9761 22.4398 18.6239C22.0976 18.2716 21.9266 17.8389 21.9266 17.3457V15.7455ZM18.6054 8.02639H20.2257L20.2358 12.4043H20.8094V13.0886H18.857V12.4043H19.4307V8.70068H18.6054V8.02639ZM18.6054 14.0145H20.2257L20.2358 18.3924H20.8094V19.0768H18.857V18.3924H19.4307V14.6888H18.6054V14.0145Z" fill="#2176BC"/>
    <path d="M20.4271 6.12424C20.6183 5.92295 20.719 5.68142 20.719 5.38956V3.72898C20.719 3.44719 20.6183 3.19559 20.4271 2.99431C20.2359 2.79303 20.0044 2.69238 19.7327 2.69238C19.461 2.69238 19.2395 2.79303 19.0483 2.99431C18.8571 3.19559 18.7565 3.43713 18.7565 3.72898V5.38956C18.7565 5.67135 18.8571 5.92295 19.0483 6.12424C19.2395 6.32552 19.471 6.42616 19.7327 6.42616C20.0044 6.42616 20.2359 6.32552 20.4271 6.12424Z" fill="#2176BC"/>
    <path d="M36.6002 23.364V21.7035C36.6002 21.4217 36.4995 21.1701 36.3083 20.9688C36.1171 20.7675 35.8856 20.6669 35.6139 20.6669C35.3422 20.6669 35.1208 20.7675 34.9296 20.9688C34.7383 21.1701 34.6377 21.4116 34.6377 21.7035V23.364C34.6377 23.6458 34.7383 23.8974 34.9296 24.0987C35.0403 24.2094 35.161 24.2899 35.2919 24.3403H35.936C36.0668 24.2899 36.1976 24.2094 36.3083 24.0987C36.5096 23.8874 36.6002 23.6458 36.6002 23.364Z" fill="#2176BC"/>
    <path d="M28.6594 23.364V21.7035C28.6594 21.4217 28.5588 21.1701 28.3675 20.9688C28.1763 20.7675 27.9448 20.6669 27.6731 20.6669C27.4014 20.6669 27.18 20.7675 26.9888 20.9688C26.7975 21.1701 26.6969 21.4116 26.6969 21.7035V23.364C26.6969 23.6458 26.7975 23.8974 26.9888 24.0987C27.0995 24.2094 27.2202 24.2899 27.3511 24.3403H27.9952C28.126 24.2899 28.2568 24.2094 28.3675 24.0987C28.5588 23.8874 28.6594 23.6458 28.6594 23.364Z" fill="#2176BC"/>
    <path d="M42.7089 24.0182L40.0923 21.4116L40.1023 24.3403H42.5781C42.7492 24.3403 42.8297 24.1289 42.7089 24.0182Z" fill="#2176BC"/>
</svg>
