<svg width="36" height="36" viewBox="0 0 36 36" fill="none" xmlns="http://www.w3.org/2000/svg">
    <path fill-rule="evenodd" clip-rule="evenodd" d="M35.5 0.5H5.09767C2.56868 0.5 0.5 2.56868 0.5 5.09634V6.11937C1.33146 6.24575 2.25605 6.49187 3.25647 6.84574C6.40672 7.96456 10.3286 10.1729 14.5391 13.2234C17.9621 10.6731 21.1123 8.84923 23.6666 7.94327C26.1623 7.05859 28.0993 7.04795 29.1822 8.08828C30.4101 9.26696 30.3609 11.6217 29.266 14.7067C28.1485 17.857 25.9388 21.7802 22.8897 25.9907C25.4399 29.4137 27.2638 32.5639 28.1685 35.1182C28.215 35.2472 28.2576 35.3736 28.2989 35.5H30.9023C33.4313 35.5 35.5 33.4313 35.5 30.9023V0.5ZM0.5 19.8033V30.9023C0.5 32.6225 1.45785 34.1284 2.86535 34.9173C3.93894 34.9479 5.23602 34.6845 6.7127 34.1537C9.72327 33.0721 13.4682 30.8824 17.563 27.8159C17.5949 27.792 17.6415 27.7986 17.6667 27.8306C17.6894 27.8612 17.6854 27.9037 17.6588 27.929V27.9303C16.5054 29.0305 15.3559 30.0709 14.2212 31.046C13.0678 32.0398 11.9276 32.9657 10.8155 33.8171L10.1649 34.308V34.3093H10.1636C9.60487 34.7257 9.05411 35.1235 8.51 35.5H22.7021C23.7531 34.2894 23.6932 32.1555 22.7034 29.399C21.6219 26.3898 19.4321 22.6449 16.3643 18.5501C16.3404 18.5168 16.347 18.4703 16.379 18.445C16.4096 18.4224 16.4521 18.4264 16.4774 18.4543L16.4788 18.453C17.5789 19.6077 18.6193 20.7571 19.5957 21.8906C20.5602 23.0134 21.4622 24.1202 22.2937 25.2045C23.7344 22.3935 24.6644 19.9017 24.9969 17.8889C25.3176 15.944 25.0794 14.4513 24.2054 13.5586C23.028 12.356 20.8276 12.3746 17.9475 13.4097C14.9382 14.4912 11.1933 16.681 7.0985 19.7474C7.06524 19.7727 7.01868 19.7647 6.99341 19.7328C6.97079 19.7022 6.97478 19.6596 7.00272 19.6343C8.1548 18.5341 9.30421 17.4938 10.4377 16.5187C11.5605 15.5528 12.6686 14.6509 13.7529 13.8181C10.9432 12.3773 8.45013 11.4487 6.43732 11.1161C4.49236 10.7955 2.99971 11.0323 2.10705 11.9064C0.904424 13.0837 0.923049 15.2841 1.95806 18.1643C3.03963 21.1749 5.22937 24.9198 8.29581 29.0146C8.32109 29.0465 8.31311 29.0931 8.28118 29.1183C8.25058 29.141 8.20801 29.137 8.18273 29.1104C7.08254 27.957 6.04221 26.8075 5.06707 25.6741C4.0733 24.5193 3.14738 23.3792 2.29596 22.2671L2.29463 22.2657L1.80374 21.6165L1.80241 21.6152C1.34477 21.0019 0.911076 20.3966 0.5 19.8033Z" fill="#1066A2"/>
</svg>
