<svg width="100" height="100" viewBox="0 0 100 100" fill="none" xmlns="http://www.w3.org/2000/svg">
    <rect x="0.5" y="0.5" width="99" height="99" rx="11.5" fill="white"/>
    <path d="M50.1629 17.9375C47.3532 17.9375 44.5405 18.6644 42.0239 20.1174C41.9148 20.1806 41.8192 20.2646 41.7425 20.3647C41.6659 20.4649 41.6098 20.5791 41.5773 20.7009C41.5448 20.8227 41.5367 20.9498 41.5533 21.0747C41.5699 21.1997 41.611 21.3202 41.6741 21.4293C41.7373 21.5384 41.8214 21.634 41.9215 21.7106C42.0216 21.7873 42.1359 21.8434 42.2577 21.8759C42.3795 21.9084 42.5065 21.9165 42.6315 21.8999C42.7565 21.8833 42.877 21.8422 42.9861 21.7791C47.4281 19.2145 52.8977 19.2145 57.3397 21.7791C57.4491 21.8485 57.5713 21.895 57.6991 21.916C57.8269 21.9369 57.9576 21.9318 58.0834 21.9009C58.2091 21.87 58.3273 21.8139 58.4309 21.7362C58.5344 21.6584 58.6212 21.5605 58.6859 21.4483C58.7506 21.3361 58.7919 21.212 58.8074 21.0834C58.8229 20.9548 58.8122 20.8245 58.776 20.7001C58.7398 20.5758 58.6788 20.4601 58.5967 20.3599C58.5146 20.2598 58.4131 20.1773 58.2983 20.1174C55.7816 18.6644 52.9726 17.9375 50.1629 17.9375ZM49.9999 21.6161C44.822 21.6161 40.0352 24.381 37.4462 28.8652C37.3754 28.9745 37.3276 29.0971 37.3057 29.2254C37.2838 29.3538 37.2882 29.4853 37.3187 29.6119C37.3492 29.7385 37.4051 29.8575 37.483 29.9618C37.561 30.0661 37.6593 30.1535 37.7721 30.2186C37.8849 30.2837 38.0097 30.3252 38.139 30.3405C38.2684 30.3558 38.3994 30.3447 38.5243 30.3077C38.6492 30.2708 38.7652 30.2089 38.8654 30.1257C38.9656 30.0425 39.0478 29.9398 39.107 29.8238C41.3545 25.9309 45.5049 23.5369 49.9999 23.5369C54.495 23.5369 58.6454 25.9309 60.8929 29.8238C60.9521 29.9398 61.0343 30.0425 61.1345 30.1257C61.2347 30.2089 61.3507 30.2708 61.4756 30.3077C61.6005 30.3447 61.7315 30.3558 61.8608 30.3405C61.9901 30.3252 62.115 30.2837 62.2278 30.2186C62.3405 30.1535 62.4389 30.0661 62.5169 29.9618C62.5948 29.8575 62.6507 29.7385 62.6812 29.6119C62.7117 29.4853 62.7161 29.3538 62.6942 29.2254C62.6723 29.0971 62.6244 28.9745 62.5537 28.8652C59.9647 24.381 55.1778 21.6161 49.9999 21.6161ZM49.924 25.2581C46.1511 25.3444 42.5095 27.327 40.4702 30.8089C40.4518 30.8349 40.4347 30.8618 40.4189 30.8895C39.012 33.3264 38.2702 36.0892 38.2702 38.9031C38.2764 39.1536 38.3802 39.3917 38.5596 39.5667C38.7389 39.7417 38.9796 39.8396 39.2301 39.8396C39.4807 39.8396 39.7213 39.7417 39.9007 39.5667C40.08 39.3917 40.1839 39.1536 40.1901 38.9031C40.1901 36.4444 40.8334 34.03 42.0541 31.8965C42.0693 31.8752 42.0837 31.8532 42.0971 31.8306C44.6751 27.3654 50.355 25.8405 54.8202 28.4185C59.2854 30.9964 60.8067 36.681 58.2287 41.1461C57.6173 42.2051 56.2949 42.5595 55.2358 41.9481C54.1768 41.3367 53.8178 40.0106 54.4293 38.9516C54.4487 38.9188 54.4661 38.8849 54.4814 38.85C55.5549 36.8675 54.8605 34.3523 52.8967 33.2186C51.8981 32.6421 50.7526 32.5281 49.7134 32.8066C48.7053 33.0767 47.7984 33.7193 47.2186 34.6688C47.1984 34.6964 47.1798 34.7252 47.1627 34.7548C45.3161 37.9532 45.4231 41.9217 47.4365 45.0179C47.5025 45.1291 47.5904 45.2258 47.6947 45.3022C47.7991 45.3786 47.9178 45.4331 48.0437 45.4625C48.1697 45.4919 48.3003 45.4955 48.4276 45.4732C48.555 45.4508 48.6766 45.403 48.785 45.3325C48.8935 45.262 48.9865 45.1703 49.0587 45.063C49.1308 44.9557 49.1805 44.8348 49.2048 44.7078C49.2291 44.5808 49.2274 44.4502 49.2 44.3238C49.1725 44.1974 49.1198 44.0779 49.045 43.9724C47.4234 41.4785 47.3398 38.2924 48.8272 35.7161C49.4614 34.6176 50.8359 34.2488 51.9345 34.883C53.033 35.5172 53.4027 36.8918 52.7685 37.9903C52.7442 38.0299 52.7228 38.0712 52.7044 38.1139C51.671 40.0533 52.3567 42.5031 54.2736 43.6098C56.2092 44.7273 58.7035 44.0741 59.8519 42.1669C59.8665 42.1464 59.8802 42.1253 59.8931 42.1038C62.9899 36.74 61.1461 29.8544 55.7824 26.7577C54.4415 25.9835 53.0019 25.5182 51.5536 25.3395C51.0105 25.2725 50.4661 25.2456 49.924 25.2581ZM50.5749 29.1628C47.9194 29.1628 45.4634 30.5696 44.114 32.8524C44.0994 32.8735 44.0857 32.8951 44.0728 32.9174C44.0562 32.9447 44.0409 32.9728 44.027 33.0016C42.2146 36.1914 41.7283 39.9702 42.6785 43.5164C42.7112 43.6382 42.7677 43.7524 42.8445 43.8523C42.9214 43.9523 43.0172 44.0362 43.1265 44.0991C43.2358 44.1621 43.3564 44.2029 43.4815 44.2192C43.6065 44.2356 43.7336 44.2271 43.8554 44.1944C43.9772 44.1616 44.0913 44.1052 44.1913 44.0283C44.2913 43.9514 44.3751 43.8556 44.4381 43.7463C44.5011 43.637 44.5419 43.5164 44.5582 43.3914C44.5745 43.2663 44.5661 43.1392 44.5333 43.0175C43.7064 39.9314 44.1361 36.6464 45.7336 33.8796C46.7328 32.1489 48.5764 31.0836 50.5749 31.0836C52.5734 31.0836 54.4161 32.1489 55.4153 33.8796C56.4145 35.6103 56.4145 37.7363 55.4153 39.467C55.2882 39.6878 55.2539 39.9499 55.3201 40.1959C55.3863 40.4418 55.5475 40.6514 55.7682 40.7785C55.9889 40.9056 56.2511 40.9399 56.4971 40.8737C56.743 40.8075 56.9526 40.6463 57.0797 40.4256C58.4204 38.1035 58.4204 35.2394 57.0797 32.9174C55.7391 30.5953 53.2562 29.1628 50.5749 29.1628ZM50.8752 35.7097C50.7027 35.708 50.533 35.7527 50.3838 35.8392C50.2347 35.9257 50.1115 36.0508 50.0274 36.2014C48.067 39.5969 49.2411 43.9675 52.6367 45.9279C52.7459 45.9909 52.8666 46.0317 52.9916 46.048C53.1167 46.0643 53.2437 46.0558 53.3655 46.0231C53.4873 45.9903 53.6014 45.9339 53.7014 45.857C53.8014 45.7801 53.8852 45.6843 53.9482 45.575C54.0111 45.4657 54.0519 45.3451 54.0682 45.22C54.0845 45.095 54.0761 44.9679 54.0433 44.8461C54.0105 44.7244 53.9541 44.6102 53.8772 44.5102C53.8003 44.4103 53.7045 44.3264 53.5952 44.2635C51.0982 42.8218 50.2502 39.6569 51.6918 37.1599C51.778 37.0148 51.8244 36.8495 51.8264 36.6808C51.8283 36.512 51.7857 36.3457 51.7029 36.1986C51.6201 36.0516 51.5 35.9289 51.3547 35.8431C51.2093 35.7573 51.044 35.7113 50.8752 35.7097Z" fill="#9F87FF"/>
    <path d="M12.4473 78V66.0967H15.834C16.8633 66.0967 17.6795 66.3485 18.2827 66.8521C18.8859 67.3556 19.1875 68.0114 19.1875 68.8193C19.1875 69.4945 19.0049 70.0811 18.6396 70.5791C18.2744 71.0771 17.7708 71.4313 17.1289 71.6416V71.6748C17.9313 71.7689 18.5732 72.0732 19.0547 72.5879C19.5361 73.097 19.7769 73.7611 19.7769 74.5801C19.7769 75.5983 19.4116 76.4229 18.6812 77.0537C17.9507 77.6846 17.0293 78 15.917 78H12.4473ZM13.8418 67.3584V71.2017H15.2695C16.0332 71.2017 16.6336 71.019 17.0708 70.6538C17.508 70.283 17.7266 69.7629 17.7266 69.0933C17.7266 67.9367 16.9657 67.3584 15.4438 67.3584H13.8418ZM13.8418 72.4551V76.7383H15.7344C16.5534 76.7383 17.187 76.5446 17.6353 76.1572C18.089 75.7699 18.3159 75.2386 18.3159 74.5635C18.3159 73.1579 17.3586 72.4551 15.4438 72.4551H13.8418ZM22.707 67.3418C22.4635 67.3418 22.256 67.2588 22.0845 67.0928C21.9129 66.9268 21.8271 66.7165 21.8271 66.4619C21.8271 66.2074 21.9129 65.9971 22.0845 65.8311C22.256 65.6595 22.4635 65.5737 22.707 65.5737C22.9561 65.5737 23.1663 65.6595 23.3379 65.8311C23.515 65.9971 23.6035 66.2074 23.6035 66.4619C23.6035 66.7054 23.515 66.9129 23.3379 67.0845C23.1663 67.256 22.9561 67.3418 22.707 67.3418ZM23.3711 78H22.0098V69.5H23.3711V78ZM29.6797 78.1992C28.4235 78.1992 27.4191 77.8035 26.6665 77.0122C25.9194 76.2153 25.5459 75.1611 25.5459 73.8496C25.5459 72.4219 25.936 71.3068 26.7163 70.5044C27.4966 69.702 28.5508 69.3008 29.8789 69.3008C31.1462 69.3008 32.134 69.6909 32.8423 70.4712C33.5562 71.2515 33.9131 72.3333 33.9131 73.7168C33.9131 75.0726 33.5285 76.16 32.7593 76.979C31.9956 77.7925 30.9691 78.1992 29.6797 78.1992ZM29.7793 70.4463C28.9049 70.4463 28.2132 70.7451 27.7041 71.3428C27.195 71.9349 26.9404 72.7539 26.9404 73.7998C26.9404 74.807 27.1978 75.6011 27.7124 76.1821C28.2271 76.7632 28.916 77.0537 29.7793 77.0537C30.6592 77.0537 31.3343 76.7687 31.8047 76.1987C32.2806 75.6287 32.5186 74.818 32.5186 73.7666C32.5186 72.7041 32.2806 71.8851 31.8047 71.3096C31.3343 70.734 30.6592 70.4463 29.7793 70.4463ZM48.1572 78H46.7959V73.1191C46.7959 72.1784 46.6493 71.4977 46.356 71.0771C46.0682 70.6566 45.5812 70.4463 44.895 70.4463C44.314 70.4463 43.8187 70.7119 43.4092 71.2432C43.0052 71.7744 42.8032 72.4108 42.8032 73.1523V78H41.4419V72.9531C41.4419 71.2819 40.7972 70.4463 39.5078 70.4463C38.9102 70.4463 38.4176 70.6981 38.0303 71.2017C37.6429 71.6997 37.4492 72.3499 37.4492 73.1523V78H36.0879V69.5H37.4492V70.8447H37.4824C38.0856 69.8154 38.9655 69.3008 40.1221 69.3008C40.7031 69.3008 41.2095 69.464 41.6411 69.7905C42.0728 70.1115 42.3688 70.5348 42.5293 71.0605C43.1602 69.8874 44.1009 69.3008 45.3516 69.3008C47.222 69.3008 48.1572 70.4546 48.1572 72.7622V78ZM57.562 74.0903H51.5605C51.5827 75.0366 51.8372 75.7671 52.3242 76.2817C52.8112 76.7964 53.4808 77.0537 54.333 77.0537C55.2904 77.0537 56.1702 76.7383 56.9727 76.1074V77.3857C56.2256 77.9281 55.2378 78.1992 54.0093 78.1992C52.8084 78.1992 51.8649 77.8146 51.1787 77.0454C50.4925 76.2707 50.1494 75.1833 50.1494 73.7832C50.1494 72.4606 50.5229 71.3843 51.27 70.5542C52.0226 69.7186 52.9551 69.3008 54.0674 69.3008C55.1797 69.3008 56.0402 69.6605 56.6489 70.3799C57.2576 71.0993 57.562 72.0981 57.562 73.3765V74.0903ZM56.1675 72.9365C56.1619 72.1507 55.971 71.5392 55.5947 71.1021C55.224 70.6649 54.7065 70.4463 54.0425 70.4463C53.4006 70.4463 52.8555 70.6759 52.4072 71.1353C51.959 71.5946 51.6823 72.195 51.5771 72.9365H56.1675ZM63.5718 77.917C63.2508 78.0941 62.8275 78.1826 62.3018 78.1826C60.8132 78.1826 60.0688 77.3525 60.0688 75.6924V70.6621H58.6079V69.5H60.0688V67.4248L61.4302 66.9849V69.5H63.5718V70.6621H61.4302V75.4517C61.4302 76.0216 61.527 76.4284 61.7207 76.6719C61.9144 76.9154 62.2354 77.0371 62.6836 77.0371C63.0267 77.0371 63.3228 76.943 63.5718 76.7549V77.917ZM69.8223 70.8779C69.5843 70.6953 69.2412 70.604 68.793 70.604C68.2119 70.604 67.7249 70.8779 67.332 71.4258C66.9447 71.9736 66.751 72.7207 66.751 73.667V78H65.3896V69.5H66.751V71.2515H66.7842C66.9779 70.6538 67.2739 70.189 67.6724 69.8569C68.0708 69.5194 68.5163 69.3506 69.0088 69.3506C69.363 69.3506 69.6341 69.3893 69.8223 69.4668V70.8779ZM71.9971 67.3418C71.7536 67.3418 71.5461 67.2588 71.3745 67.0928C71.203 66.9268 71.1172 66.7165 71.1172 66.4619C71.1172 66.2074 71.203 65.9971 71.3745 65.8311C71.5461 65.6595 71.7536 65.5737 71.9971 65.5737C72.2461 65.5737 72.4564 65.6595 72.6279 65.8311C72.805 65.9971 72.8936 66.2074 72.8936 66.4619C72.8936 66.7054 72.805 66.9129 72.6279 67.0845C72.4564 67.256 72.2461 67.3418 71.9971 67.3418ZM72.6611 78H71.2998V69.5H72.6611V78ZM81.2109 77.6099C80.5579 78.0028 79.7832 78.1992 78.8867 78.1992C77.6748 78.1992 76.6953 77.8063 75.9482 77.0205C75.2067 76.2292 74.8359 75.2054 74.8359 73.9492C74.8359 72.5492 75.2371 71.4258 76.0396 70.5791C76.842 69.7269 77.9128 69.3008 79.252 69.3008C79.999 69.3008 80.6576 69.4391 81.2275 69.7158V71.1104C80.5967 70.6676 79.9215 70.4463 79.2021 70.4463C78.3333 70.4463 77.6195 70.759 77.0605 71.3843C76.5072 72.0041 76.2305 72.8203 76.2305 73.833C76.2305 74.8291 76.4906 75.6149 77.0107 76.1904C77.5365 76.766 78.2393 77.0537 79.1191 77.0537C79.8607 77.0537 80.5579 76.8075 81.2109 76.3149V77.6099ZM82.7549 77.6929V76.2319C83.4964 76.7798 84.3127 77.0537 85.2036 77.0537C86.3989 77.0537 86.9966 76.6553 86.9966 75.8584C86.9966 75.6315 86.944 75.4406 86.8389 75.2856C86.7393 75.1252 86.6009 74.984 86.4238 74.8623C86.2523 74.7406 86.0475 74.6326 85.8096 74.5386C85.5771 74.439 85.3254 74.3366 85.0542 74.2314C84.6779 74.082 84.3459 73.9326 84.0581 73.7832C83.7759 73.6283 83.5379 73.4567 83.3442 73.2686C83.1561 73.0749 83.0122 72.8563 82.9126 72.6128C82.8185 72.3693 82.7715 72.0843 82.7715 71.7578C82.7715 71.3594 82.8628 71.008 83.0454 70.7036C83.228 70.3937 83.4715 70.1364 83.7759 69.9316C84.0802 69.7214 84.4261 69.5636 84.8135 69.4585C85.2064 69.3534 85.6104 69.3008 86.0254 69.3008C86.7614 69.3008 87.4199 69.4281 88.001 69.6826V71.0605C87.3757 70.651 86.6562 70.4463 85.8428 70.4463C85.5882 70.4463 85.3586 70.4767 85.1538 70.5376C84.9491 70.5929 84.772 70.6732 84.6226 70.7783C84.4787 70.8835 84.3652 71.0107 84.2822 71.1602C84.2048 71.304 84.166 71.4645 84.166 71.6416C84.166 71.863 84.2048 72.0483 84.2822 72.1978C84.3652 72.3472 84.4842 72.48 84.6392 72.5962C84.7941 72.7124 84.9823 72.8175 85.2036 72.9116C85.425 73.0057 85.6768 73.1081 85.959 73.2188C86.3353 73.3626 86.6729 73.512 86.9717 73.667C87.2705 73.8164 87.5251 73.988 87.7354 74.1816C87.9456 74.3698 88.1061 74.5884 88.2168 74.8374C88.333 75.0864 88.3911 75.3825 88.3911 75.7256C88.3911 76.1462 88.297 76.5114 88.1089 76.8213C87.9263 77.1312 87.68 77.3885 87.3701 77.5933C87.0602 77.798 86.7033 77.9502 86.2993 78.0498C85.8953 78.1494 85.472 78.1992 85.0293 78.1992C84.1549 78.1992 83.3968 78.0304 82.7549 77.6929Z" fill="#141414" fill-opacity="0.7"/>
    <rect x="0.5" y="0.5" width="99" height="99" rx="11.5" stroke="#E6E0FF"/>
</svg>
