<svg width="100" height="100" viewBox="0 0 100 100" fill="none" xmlns="http://www.w3.org/2000/svg">
    <rect x="0.5" y="0.5" width="99" height="99" rx="11.5" fill="white"/>
    <g clip-path="url(#clip0_1_8277)">
        <path d="M38.2812 24.0312C38.9285 24.0312 39.4531 23.5066 39.4531 22.8594V20.5156C39.4531 19.8695 39.9788 19.3438 40.625 19.3438H42.9687C43.616 19.3438 44.1406 18.8191 44.1406 18.1719C44.1406 17.5246 43.616 17 42.9687 17H40.625C38.6865 17 37.1094 18.5771 37.1094 20.5156V22.8594C37.1094 23.5066 37.634 24.0312 38.2812 24.0312ZM57.0312 19.3438H59.375C60.0212 19.3438 60.5469 19.8695 60.5469 20.5156V22.8594C60.5469 23.5066 61.0715 24.0312 61.7188 24.0312C62.366 24.0312 62.8906 23.5066 62.8906 22.8594V20.5156C62.8906 18.5771 61.3135 17 59.375 17H57.0312C56.384 17 55.8594 17.5246 55.8594 18.1719C55.8594 18.8191 56.384 19.3438 57.0312 19.3438ZM42.9687 44.6562H40.625C39.9788 44.6562 39.4531 44.1305 39.4531 43.4844V41.1406C39.4531 40.4934 38.9285 39.9688 38.2812 39.9688C37.634 39.9688 37.1094 40.4934 37.1094 41.1406V43.4844C37.1094 45.4229 38.6865 47 40.625 47H42.9687C43.616 47 44.1406 46.4754 44.1406 45.8281C44.1406 45.1809 43.616 44.6562 42.9687 44.6562ZM53.5156 36.6875C53.5156 36.0403 52.991 35.5156 52.3438 35.5156C51.6965 35.5156 51.1719 36.0403 51.1719 36.6875C51.1719 37.3337 50.6462 37.8594 50 37.8594C49.3538 37.8594 48.8281 37.3337 48.8281 36.6875C48.8281 36.0403 48.3035 35.5156 47.6562 35.5156C47.009 35.5156 46.4844 36.0403 46.4844 36.6875C46.4844 38.626 48.0615 40.2031 50 40.2031C51.9385 40.2031 53.5156 38.626 53.5156 36.6875ZM58.4343 35.6028C57.8354 35.358 57.1511 35.645 56.9062 36.2441C55.3171 40.1318 52.6708 42.5469 50 42.5469C47.3292 42.5469 44.6829 40.1318 43.0938 36.2441C42.8489 35.645 42.1648 35.3579 41.5657 35.6028C40.9665 35.8476 40.6794 36.5318 40.9244 37.1309C41.8291 39.3445 43.0879 41.2291 44.5646 42.5809C46.2151 44.0919 48.0946 44.8906 50 44.8906C51.9054 44.8906 53.7849 44.0919 55.4355 42.5809C56.9121 41.2291 58.171 39.3445 59.0757 37.1309C59.3206 36.5318 59.0335 35.8476 58.4343 35.6028ZM63.8281 30.8281H60.5103C60.5343 30.4355 60.5469 30.044 60.5469 29.6562C60.5469 23.8407 55.8155 19.1094 50 19.1094C44.1845 19.1094 39.4531 23.8407 39.4531 29.6562C39.4531 30.044 39.4657 30.4355 39.4897 30.8281H36.1719C35.5246 30.8281 35 31.3528 35 32C35 32.6472 35.5246 33.1719 36.1719 33.1719H59.2202C59.2215 33.1719 59.2229 33.172 59.2242 33.172L59.227 33.1719H63.8281C64.4754 33.1719 65 32.6472 65 32C65 31.3528 64.4754 30.8281 63.8281 30.8281ZM58.1615 30.8281H41.8385C41.8111 30.4352 41.7969 30.0435 41.7969 29.6562C41.7969 25.133 45.4768 21.4531 50 21.4531C54.5232 21.4531 58.2031 25.133 58.2031 29.6562C58.2031 30.0435 58.1889 30.4352 58.1615 30.8281ZM61.7188 39.9688C61.0715 39.9688 60.5469 40.4934 60.5469 41.1406V43.4844C60.5469 44.1305 60.0212 44.6562 59.375 44.6562H57.0312C56.384 44.6562 55.8594 45.1809 55.8594 45.8281C55.8594 46.4754 56.384 47 57.0312 47H59.375C61.3135 47 62.8906 45.4229 62.8906 43.4844V41.1406C62.8906 40.4934 62.366 39.9688 61.7188 39.9688Z" fill="#9F87FF"/>
    </g>
    <path d="M26.7163 78H20.5405V66.0967H21.9351V76.7383H26.7163V78ZM29.0571 67.3418C28.8136 67.3418 28.6061 67.2588 28.4346 67.0928C28.263 66.9268 28.1772 66.7165 28.1772 66.4619C28.1772 66.2074 28.263 65.9971 28.4346 65.8311C28.6061 65.6595 28.8136 65.5737 29.0571 65.5737C29.3062 65.5737 29.5164 65.6595 29.688 65.8311C29.8651 65.9971 29.9536 66.2074 29.9536 66.4619C29.9536 66.7054 29.8651 66.9129 29.688 67.0845C29.5164 67.256 29.3062 67.3418 29.0571 67.3418ZM29.7212 78H28.3599V69.5H29.7212V78ZM39.1592 69.5L35.7725 78H34.436L31.2153 69.5H32.7095L34.8677 75.6758C35.0282 76.1296 35.1278 76.5252 35.1665 76.8628H35.1997C35.255 76.4367 35.3436 76.0521 35.4653 75.709L37.7231 69.5H39.1592ZM47.3604 74.0903H41.3589C41.381 75.0366 41.6356 75.7671 42.1226 76.2817C42.6095 76.7964 43.2791 77.0537 44.1313 77.0537C45.0887 77.0537 45.9686 76.7383 46.771 76.1074V77.3857C46.0239 77.9281 45.0361 78.1992 43.8076 78.1992C42.6068 78.1992 41.6632 77.8146 40.9771 77.0454C40.2909 76.2707 39.9478 75.1833 39.9478 73.7832C39.9478 72.4606 40.3213 71.3843 41.0684 70.5542C41.821 69.7186 42.7534 69.3008 43.8657 69.3008C44.978 69.3008 45.8385 69.6605 46.4473 70.3799C47.056 71.0993 47.3604 72.0981 47.3604 73.3765V74.0903ZM45.9658 72.9365C45.9603 72.1507 45.7694 71.5392 45.3931 71.1021C45.0223 70.6649 44.5049 70.4463 43.8408 70.4463C43.1989 70.4463 42.6538 70.6759 42.2056 71.1353C41.7573 71.5946 41.4806 72.195 41.3755 72.9365H45.9658ZM56.4829 78H55.1216V73.1523C55.1216 71.3483 54.4631 70.4463 53.146 70.4463C52.4653 70.4463 51.9009 70.7036 51.4526 71.2183C51.0099 71.7274 50.7886 72.3721 50.7886 73.1523V78H49.4272V69.5H50.7886V70.9111H50.8218C51.4637 69.8376 52.3934 69.3008 53.6108 69.3008C54.5405 69.3008 55.2516 69.6024 55.7441 70.2056C56.2367 70.8032 56.4829 71.6693 56.4829 72.8037V78ZM65.8877 74.0903H59.8862C59.9084 75.0366 60.1629 75.7671 60.6499 76.2817C61.1369 76.7964 61.8065 77.0537 62.6587 77.0537C63.616 77.0537 64.4959 76.7383 65.2983 76.1074V77.3857C64.5513 77.9281 63.5635 78.1992 62.335 78.1992C61.1341 78.1992 60.1906 77.8146 59.5044 77.0454C58.8182 76.2707 58.4751 75.1833 58.4751 73.7832C58.4751 72.4606 58.8486 71.3843 59.5957 70.5542C60.3483 69.7186 61.2808 69.3008 62.3931 69.3008C63.5054 69.3008 64.3659 69.6605 64.9746 70.3799C65.5833 71.0993 65.8877 72.0981 65.8877 73.3765V74.0903ZM64.4932 72.9365C64.4876 72.1507 64.2967 71.5392 63.9204 71.1021C63.5496 70.6649 63.0322 70.4463 62.3682 70.4463C61.7262 70.4463 61.1812 70.6759 60.7329 71.1353C60.2847 71.5946 60.008 72.195 59.9028 72.9365H64.4932ZM67.4399 77.6929V76.2319C68.1815 76.7798 68.9977 77.0537 69.8887 77.0537C71.084 77.0537 71.6816 76.6553 71.6816 75.8584C71.6816 75.6315 71.6291 75.4406 71.5239 75.2856C71.4243 75.1252 71.286 74.984 71.1089 74.8623C70.9373 74.7406 70.7326 74.6326 70.4946 74.5386C70.2622 74.439 70.0104 74.3366 69.7393 74.2314C69.363 74.082 69.0309 73.9326 68.7432 73.7832C68.4609 73.6283 68.223 73.4567 68.0293 73.2686C67.8411 73.0749 67.6973 72.8563 67.5977 72.6128C67.5036 72.3693 67.4565 72.0843 67.4565 71.7578C67.4565 71.3594 67.5479 71.008 67.7305 70.7036C67.9131 70.3937 68.1566 70.1364 68.4609 69.9316C68.7653 69.7214 69.1112 69.5636 69.4985 69.4585C69.8914 69.3534 70.2954 69.3008 70.7104 69.3008C71.4465 69.3008 72.105 69.4281 72.686 69.6826V71.0605C72.0607 70.651 71.3413 70.4463 70.5278 70.4463C70.2733 70.4463 70.0436 70.4767 69.8389 70.5376C69.6341 70.5929 69.457 70.6732 69.3076 70.7783C69.1637 70.8835 69.0503 71.0107 68.9673 71.1602C68.8898 71.304 68.8511 71.4645 68.8511 71.6416C68.8511 71.863 68.8898 72.0483 68.9673 72.1978C69.0503 72.3472 69.1693 72.48 69.3242 72.5962C69.4792 72.7124 69.6673 72.8175 69.8887 72.9116C70.11 73.0057 70.3618 73.1081 70.644 73.2188C71.0203 73.3626 71.3579 73.512 71.6567 73.667C71.9556 73.8164 72.2101 73.988 72.4204 74.1816C72.6307 74.3698 72.7912 74.5884 72.9019 74.8374C73.0181 75.0864 73.0762 75.3825 73.0762 75.7256C73.0762 76.1462 72.9821 76.5114 72.7939 76.8213C72.6113 77.1312 72.3651 77.3885 72.0552 77.5933C71.7453 77.798 71.3883 77.9502 70.9844 78.0498C70.5804 78.1494 70.1571 78.1992 69.7144 78.1992C68.84 78.1992 68.0819 78.0304 67.4399 77.6929ZM74.6616 77.6929V76.2319C75.4032 76.7798 76.2194 77.0537 77.1104 77.0537C78.3057 77.0537 78.9033 76.6553 78.9033 75.8584C78.9033 75.6315 78.8507 75.4406 78.7456 75.2856C78.646 75.1252 78.5076 74.984 78.3306 74.8623C78.159 74.7406 77.9543 74.6326 77.7163 74.5386C77.4839 74.439 77.2321 74.3366 76.9609 74.2314C76.5846 74.082 76.2526 73.9326 75.9648 73.7832C75.6826 73.6283 75.4447 73.4567 75.251 73.2686C75.0628 73.0749 74.9189 72.8563 74.8193 72.6128C74.7253 72.3693 74.6782 72.0843 74.6782 71.7578C74.6782 71.3594 74.7695 71.008 74.9521 70.7036C75.1348 70.3937 75.3783 70.1364 75.6826 69.9316C75.987 69.7214 76.3328 69.5636 76.7202 69.4585C77.1131 69.3534 77.5171 69.3008 77.9321 69.3008C78.6681 69.3008 79.3267 69.4281 79.9077 69.6826V71.0605C79.2824 70.651 78.563 70.4463 77.7495 70.4463C77.495 70.4463 77.2653 70.4767 77.0605 70.5376C76.8558 70.5929 76.6787 70.6732 76.5293 70.7783C76.3854 70.8835 76.272 71.0107 76.189 71.1602C76.1115 71.304 76.0728 71.4645 76.0728 71.6416C76.0728 71.863 76.1115 72.0483 76.189 72.1978C76.272 72.3472 76.391 72.48 76.5459 72.5962C76.7008 72.7124 76.889 72.8175 77.1104 72.9116C77.3317 73.0057 77.5835 73.1081 77.8657 73.2188C78.242 73.3626 78.5796 73.512 78.8784 73.667C79.1772 73.8164 79.4318 73.988 79.6421 74.1816C79.8524 74.3698 80.0129 74.5884 80.1235 74.8374C80.2397 75.0864 80.2979 75.3825 80.2979 75.7256C80.2979 76.1462 80.2038 76.5114 80.0156 76.8213C79.833 77.1312 79.5868 77.3885 79.2769 77.5933C78.967 77.798 78.61 77.9502 78.2061 78.0498C77.8021 78.1494 77.3787 78.1992 76.936 78.1992C76.0617 78.1992 75.3035 78.0304 74.6616 77.6929Z" fill="#141414" fill-opacity="0.7"/>
    <rect x="0.5" y="0.5" width="99" height="99" rx="11.5" stroke="#E6E0FF"/>
    <defs>
        <clipPath id="clip0_1_8277">
            <rect width="30" height="30" fill="white" transform="translate(35 17)"/>
        </clipPath>
    </defs>
</svg>
