<svg width="100" height="100" viewBox="0 0 100 100" fill="none" xmlns="http://www.w3.org/2000/svg">
    <rect x="0.5" y="0.5" width="99" height="99" rx="11.5" fill="white"/>
    <path d="M56.6875 17H43.3127C42.1984 17 41.2864 17.9111 41.2864 19.0263V44.9729C41.2864 46.088 42.1984 47 43.3127 47H56.6875C57.8018 47 58.7138 46.0897 58.7138 44.9737V19.0263C58.7138 17.9111 57.8018 17 56.6875 17ZM47.8607 18.4606H52.1395C52.2749 18.4606 52.3847 18.5703 52.3847 18.7066C52.3847 18.842 52.2749 18.9517 52.1395 18.9517H47.8607C47.7252 18.9517 47.6155 18.842 47.6155 18.7066C47.6155 18.5703 47.7252 18.4606 47.8607 18.4606ZM50.0001 45.9869C49.4404 45.9869 48.9869 45.5334 48.9869 44.9729C48.9869 44.4123 49.4404 43.9597 50.0001 43.9597C50.5598 43.9597 51.0132 44.4123 51.0132 44.9729C51.0132 45.5334 50.5598 45.9869 50.0001 45.9869ZM57.3038 43.25H42.6964V20.2134H57.3038V43.25Z" fill="#9F87FF"/>
    <path d="M26.6416 78V66.0967H29.9287C34.1234 66.0967 36.2207 68.0308 36.2207 71.8989C36.2207 73.7362 35.6369 75.2137 34.4692 76.3315C33.3071 77.4438 31.7493 78 29.7959 78H26.6416ZM28.0361 67.3584V76.7383H29.8125C31.373 76.7383 32.5877 76.3205 33.4565 75.4849C34.3254 74.6493 34.7598 73.465 34.7598 71.9321C34.7598 68.883 33.1383 67.3584 29.8955 67.3584H28.0361ZM45.2104 74.0903H39.209C39.2311 75.0366 39.4857 75.7671 39.9727 76.2817C40.4596 76.7964 41.1292 77.0537 41.9814 77.0537C42.9388 77.0537 43.8187 76.7383 44.6211 76.1074V77.3857C43.874 77.9281 42.8862 78.1992 41.6577 78.1992C40.4569 78.1992 39.5133 77.8146 38.8271 77.0454C38.141 76.2707 37.7979 75.1833 37.7979 73.7832C37.7979 72.4606 38.1714 71.3843 38.9185 70.5542C39.6711 69.7186 40.6035 69.3008 41.7158 69.3008C42.8281 69.3008 43.6886 69.6605 44.2974 70.3799C44.9061 71.0993 45.2104 72.0981 45.2104 73.3765V74.0903ZM43.8159 72.9365C43.8104 72.1507 43.6195 71.5392 43.2432 71.1021C42.8724 70.6649 42.355 70.4463 41.6909 70.4463C41.049 70.4463 40.5039 70.6759 40.0557 71.1353C39.6074 71.5946 39.3307 72.195 39.2256 72.9365H43.8159ZM53.9595 69.5L50.5728 78H49.2363L46.0156 69.5H47.5098L49.668 75.6758C49.8285 76.1296 49.9281 76.5252 49.9668 76.8628H50C50.0553 76.4367 50.1439 76.0521 50.2656 75.709L52.5234 69.5H53.9595ZM56.126 67.3418C55.8825 67.3418 55.675 67.2588 55.5034 67.0928C55.3319 66.9268 55.2461 66.7165 55.2461 66.4619C55.2461 66.2074 55.3319 65.9971 55.5034 65.8311C55.675 65.6595 55.8825 65.5737 56.126 65.5737C56.375 65.5737 56.5853 65.6595 56.7568 65.8311C56.9339 65.9971 57.0225 66.2074 57.0225 66.4619C57.0225 66.7054 56.9339 66.9129 56.7568 67.0845C56.5853 67.256 56.375 67.3418 56.126 67.3418ZM56.79 78H55.4287V69.5H56.79V78ZM65.3398 77.6099C64.6868 78.0028 63.9121 78.1992 63.0156 78.1992C61.8037 78.1992 60.8242 77.8063 60.0771 77.0205C59.3356 76.2292 58.9648 75.2054 58.9648 73.9492C58.9648 72.5492 59.366 71.4258 60.1685 70.5791C60.9709 69.7269 62.0417 69.3008 63.3809 69.3008C64.1279 69.3008 64.7865 69.4391 65.3564 69.7158V71.1104C64.7256 70.6676 64.0505 70.4463 63.3311 70.4463C62.4622 70.4463 61.7484 70.759 61.1895 71.3843C60.6361 72.0041 60.3594 72.8203 60.3594 73.833C60.3594 74.8291 60.6195 75.6149 61.1396 76.1904C61.6654 76.766 62.3682 77.0537 63.248 77.0537C63.9896 77.0537 64.6868 76.8075 65.3398 76.3149V77.6099ZM74.23 74.0903H68.2285C68.2507 75.0366 68.5052 75.7671 68.9922 76.2817C69.4792 76.7964 70.1488 77.0537 71.001 77.0537C71.9583 77.0537 72.8382 76.7383 73.6406 76.1074V77.3857C72.8936 77.9281 71.9058 78.1992 70.6772 78.1992C69.4764 78.1992 68.5329 77.8146 67.8467 77.0454C67.1605 76.2707 66.8174 75.1833 66.8174 73.7832C66.8174 72.4606 67.1909 71.3843 67.938 70.5542C68.6906 69.7186 69.623 69.3008 70.7354 69.3008C71.8477 69.3008 72.7082 69.6605 73.3169 70.3799C73.9256 71.0993 74.23 72.0981 74.23 73.3765V74.0903ZM72.8354 72.9365C72.8299 72.1507 72.639 71.5392 72.2627 71.1021C71.8919 70.6649 71.3745 70.4463 70.7104 70.4463C70.0685 70.4463 69.5234 70.6759 69.0752 71.1353C68.627 71.5946 68.3503 72.195 68.2451 72.9365H72.8354Z" fill="#141414" fill-opacity="0.7"/>
    <rect x="0.5" y="0.5" width="99" height="99" rx="11.5" stroke="#E6E0FF"/>
</svg>
