<svg width="100" height="100" viewBox="0 0 100 100" fill="none" xmlns="http://www.w3.org/2000/svg">
    <rect x="0.5" y="0.5" width="99" height="99" rx="11.5" fill="white"/>
    <g style="mix-blend-mode:multiply">
        <g clip-path="url(#clip0_1_8272)">
            <path d="M63.5052 37.3613C63.4388 37.3613 63.3713 37.3558 63.3038 37.3439C62.6659 37.2334 62.2388 36.6269 62.3493 35.9892C62.5769 34.6763 62.6993 33.3342 62.7133 32C62.6645 27.2912 61.2915 22.731 58.7426 18.8107C58.3897 18.2682 58.5437 17.5422 59.0862 17.1895C59.6289 16.8368 60.3546 16.9906 60.7076 17.5333C63.5018 21.8308 65.0058 26.8293 65.057 31.9883V32.0117C65.0424 33.4758 64.9085 34.9487 64.6585 36.3897C64.5597 36.9596 64.0646 37.3613 63.5052 37.3613ZM60.7076 46.4667C61.6139 45.0728 62.3942 43.5858 63.0271 42.047C63.2733 41.4485 62.9875 40.7637 62.3889 40.5176C61.7904 40.2713 61.1056 40.557 60.8596 41.1555C60.2821 42.5599 59.5698 43.917 58.7426 45.1891C58.3897 45.7318 58.5437 46.4576 59.0862 46.8105C59.2835 46.9387 59.5048 47 59.7238 47C60.1072 47 60.483 46.8121 60.7076 46.4667ZM55.0139 43.4125C57.2757 40.0367 58.4998 36.0956 58.5536 32.0153C58.5538 32.005 58.5538 31.9947 58.5536 31.9844C58.4998 27.9042 57.2757 23.963 55.0139 20.5875C54.6536 20.0498 53.9256 19.9059 53.3882 20.2661C52.8503 20.6264 52.7065 21.3542 53.0668 21.8919C55.0725 24.8854 56.1592 28.3802 56.2098 32C56.1592 35.6195 55.0725 39.1143 53.0668 42.1079C52.7065 42.6455 52.8505 43.3734 53.3882 43.7336C53.5884 43.868 53.815 43.9321 54.0393 43.9321C54.417 43.9321 54.7878 43.7499 55.0139 43.4125ZM49.8533 38.5218C50.4665 38.346 50.9657 37.8834 51.1886 37.2849C51.8343 35.5511 52.144 33.7654 52.1089 31.9769C52.0529 29.123 51.1419 26.3512 49.4747 23.9614C49.1044 23.4309 48.3738 23.3006 47.843 23.671C47.3123 24.0413 47.1822 24.7719 47.5526 25.3027C48.9536 27.3107 49.7187 29.6345 49.7656 32.0229C49.7922 33.3726 49.5818 34.7244 49.1403 36.0478L38.3909 27.7828C37.9228 27.4228 37.308 27.3175 36.7464 27.5006C36.1858 27.6837 35.7526 28.1305 35.5873 28.6963C35.3461 29.5214 35.0586 30.8357 35.0586 32.4099C35.0586 35.1837 36.6445 37.6623 36.7118 37.7665C37.0634 38.3087 37.7866 38.4627 38.3295 38.1128C38.8727 37.7626 39.029 37.0377 38.68 36.4939C38.6674 36.474 37.4023 34.4783 37.4023 32.4099C37.4023 31.5452 37.5074 30.7764 37.636 30.1589L48.0721 38.1828C48.4306 38.4581 48.8561 38.6014 49.2921 38.6014C49.4789 38.6014 49.6674 38.5753 49.8533 38.5218Z" fill="#9F87FF"/>
        </g>
        <path d="M45.3848 78H43.6748L37.5488 68.5122C37.3939 68.2743 37.2666 68.0252 37.167 67.7651H37.1172C37.1615 68.0197 37.1836 68.5648 37.1836 69.4004V78H35.7891V66.0967H37.5986L43.5586 75.4351C43.8076 75.8224 43.9681 76.0881 44.04 76.2319H44.0732C44.0179 75.8888 43.9902 75.305 43.9902 74.4805V66.0967H45.3848V78ZM54.5488 67.3584H49.9004V71.4756H54.2002V72.729H49.9004V78H48.5059V66.0967H54.5488V67.3584ZM64.9082 77.502C64.0283 77.9668 62.9326 78.1992 61.6211 78.1992C59.9277 78.1992 58.5719 77.6541 57.5537 76.564C56.5355 75.4738 56.0264 74.0433 56.0264 72.2725C56.0264 70.3688 56.5991 68.8304 57.7446 67.6572C58.8901 66.484 60.3428 65.8975 62.1025 65.8975C63.2314 65.8975 64.1667 66.0607 64.9082 66.3872V67.873C64.056 67.3971 63.1152 67.1592 62.0859 67.1592C60.7191 67.1592 59.6095 67.6157 58.7573 68.5288C57.9106 69.4419 57.4873 70.6621 57.4873 72.1895C57.4873 73.6393 57.883 74.7959 58.6743 75.6592C59.4712 76.5169 60.5143 76.9458 61.8037 76.9458C62.999 76.9458 64.0339 76.6802 64.9082 76.1489V77.502Z" fill="#141414" fill-opacity="0.7"/>
    </g>
    <rect x="0.5" y="0.5" width="99" height="99" rx="11.5" stroke="#E6E0FF"/>
    <defs>
        <clipPath id="clip0_1_8272">
            <rect width="30" height="30" fill="white" transform="translate(35 17)"/>
        </clipPath>
    </defs>
</svg>
