<svg width="70" height="70" viewBox="0 0 70 70" fill="none" xmlns="http://www.w3.org/2000/svg">
    <rect x="0.5" y="0.5" width="69" height="69" rx="34.5" fill="white"/>
    <g clip-path="url(#clip0_1_7786)">
        <path d="M32.8626 45.0901C31.801 44.0284 31.801 42.3071 32.8626 41.2454C33.9242 40.1838 35.6456 40.1838 36.7072 41.2454L40.8217 45.3595C41.8834 46.4212 41.8834 48.1425 40.8217 49.2042C39.7601 50.2658 38.0388 50.2658 36.9772 49.2042L32.8626 45.0901Z" fill="#493EB1" fill-opacity="0.709804"/>
        <path d="M36.9769 37.1307C38.0385 36.0691 39.7599 36.0691 40.8215 37.1307C41.8832 38.1923 41.8832 39.9137 40.8215 40.9753L36.7072 45.0898C35.6456 46.1515 33.9242 46.1515 32.8626 45.0898C31.801 44.0282 31.801 42.3069 32.8626 41.2452L36.9769 37.1307Z" fill="#D276C0" fill-opacity="0.709804"/>
        <path d="M23.1484 40.5487C24.2101 39.487 25.9314 39.487 26.993 40.5487C28.0546 41.6103 28.0546 43.3317 26.993 44.3933L22.631 48.755C21.5694 49.8166 19.8481 49.8166 18.7864 48.755C17.7248 47.6934 17.7248 45.9721 18.7864 44.9104L23.1484 40.5487Z" fill="#322490" fill-opacity="0.709804"/>
        <path d="M19.3642 44.3438C20.4259 43.2882 22.1425 43.2929 23.1981 44.3546C24.2538 45.4162 24.2491 47.1328 23.1874 48.1885L22.6206 48.7551C21.559 49.8107 19.8424 49.806 18.7867 48.7443C17.731 47.6827 17.7358 45.9661 18.7974 44.9104L19.3642 44.3438Z" fill="#F38060" fill-opacity="0.709804"/>
        <path d="M41.0902 41.2445C42.1519 40.1828 43.8732 40.1828 44.9348 41.2445C45.9964 42.3061 45.9964 44.0275 44.9348 45.0891L40.8205 49.2036C39.7589 50.2652 38.0375 50.2652 36.9759 49.2036C35.9143 48.142 35.9143 46.4206 36.9759 45.359L41.0902 41.2445Z" fill="#DF7786" fill-opacity="0.709804"/>
        <path d="M44.935 41.245C45.9966 42.3066 45.9966 44.028 44.935 45.0896C43.8734 46.1512 42.1521 46.1512 41.0904 45.0896L36.9759 40.9753C35.9143 39.9137 35.9143 38.1923 36.9759 37.1307C38.0375 36.0691 39.7589 36.0691 40.8205 37.1307L44.935 41.245Z" fill="#91D259" fill-opacity="0.709804"/>
        <path d="M40.8205 49.2034C39.7589 50.265 38.0375 50.265 36.9759 49.2034C35.9143 48.1417 35.9143 46.4204 36.9759 45.3588L45.8265 36.5081C46.8882 35.4465 48.6095 35.4465 49.6711 36.5081C50.7328 37.5698 50.7328 39.2911 49.6711 40.3528L40.8205 49.2034Z" fill="#688AD6" fill-opacity="0.709804"/>
        <path d="M29.5317 38.0228C29.6587 38.1482 29.8268 38.2109 29.9956 38.2109C30.1686 38.2109 30.3382 38.1487 30.4624 38.0244L30.4647 38.0222L30.4624 38.0199L30.477 38.0053C30.6043 37.878 30.668 37.7087 30.668 37.5386H30.6726C30.6726 37.3696 30.6079 37.1994 30.4793 37.0697L30.4771 37.0719C30.3495 36.9443 30.1801 36.8806 30.01 36.8806C29.8377 36.8806 29.6674 36.9438 29.5402 37.0699L29.5264 37.084L29.5287 37.0862L29.4932 37.1202C29.3895 37.2422 29.3376 37.3968 29.3376 37.5529C29.3376 37.7247 29.4007 37.8948 29.5262 38.0217L29.5284 38.0194L29.5317 38.0228ZM29.9956 40.5447C29.2293 40.5447 28.462 40.2531 27.8788 39.6699L27.8808 39.667L27.8784 39.6649C27.2955 39.0818 27.0039 38.3163 27.0039 37.5529C27.0039 36.8226 27.2711 36.09 27.8049 35.5173C27.828 35.4895 27.8524 35.4624 27.8785 35.4364L27.8809 35.4384L27.8977 35.4217C28.481 34.8385 29.2465 34.5469 30.01 34.5469C30.7763 34.5469 31.5437 34.8387 32.1267 35.4217L32.1248 35.4243L32.1271 35.4265C32.7069 36.0066 32.9971 36.7724 32.9972 37.5386H33.0017C33.0017 38.3049 32.7101 39.0721 32.1271 39.6552L32.1123 39.6699L32.11 39.6676C31.5244 40.2523 30.7582 40.5447 29.9956 40.5447Z" fill="#C01E86" fill-opacity="0.709804"/>
        <path d="M39.4693 24.5295C40.525 25.5911 40.5203 27.3078 39.4586 28.3634C38.3969 29.4191 36.6804 29.4144 35.6246 28.3527L32.3804 25.0933C31.3248 24.0317 31.3295 22.315 32.3912 21.2594C33.4528 20.2037 35.1694 20.2084 36.2251 21.2701L39.4693 24.5295Z" fill="#3872CA" fill-opacity="0.709804"/>
        <path d="M43.1927 24.6408C42.1311 23.5792 42.1311 21.8578 43.1927 20.7962C44.2543 19.7346 45.9757 19.7346 47.0373 20.7962L50.7826 24.5413C51.8442 25.6029 51.8442 27.3243 50.7826 28.3859C49.7209 29.4475 47.9996 29.4475 46.938 28.3859L43.1927 24.6408Z" fill="#4E52BF" fill-opacity="0.709804"/>
        <path d="M50.7814 28.3854C49.7198 29.447 47.9984 29.447 46.9368 28.3854C45.8752 27.3238 45.8752 25.6024 46.9368 24.5408L50.5832 20.8948C51.6449 19.8332 53.3662 19.8332 54.4278 20.8948C55.4894 21.9565 55.4894 23.6778 54.4278 24.7394L50.7814 28.3854Z" fill="#DE7A59" fill-opacity="0.709804"/>
        <path d="M46.9369 24.5408C47.9985 23.4792 49.7199 23.4792 50.7815 24.5408C51.8431 25.6024 51.8431 27.3238 50.7815 28.3854L47.5041 31.6632C46.4425 32.7249 44.7211 32.7249 43.6595 31.6632C42.5979 30.6016 42.5979 28.8803 43.6595 27.8187L46.9369 24.5408Z" fill="#069A93" fill-opacity="0.709804"/>
        <path d="M18.6333 31.5719C17.5776 32.6335 15.861 32.6382 14.7993 31.5826C13.7377 30.5269 13.733 28.8103 14.7886 27.7487L21.252 21.27C22.3077 20.2084 24.0243 20.2037 25.086 21.2593C26.1476 22.315 26.1523 24.0316 25.0967 25.0932L18.6333 31.5719Z" fill="#49BA6B" fill-opacity="0.709804"/>
        <path d="M30.6606 30.6724C29.6049 31.7341 27.8883 31.7388 26.8267 30.6831C25.7651 29.6275 25.7603 27.9109 26.816 26.8492L32.38 21.27C33.4357 20.2084 35.1522 20.2037 36.2139 21.2593C37.2755 22.315 37.2803 24.0316 36.2246 25.0932L30.6606 30.6724Z" fill="#3872CA" fill-opacity="0.709804"/>
        <path d="M30.6622 26.8493C31.7178 27.9109 31.7131 29.6275 30.6514 30.6832C29.5898 31.7389 27.8732 31.7342 26.8175 30.6725L21.2535 25.0933C20.1978 24.0317 20.2026 22.315 21.2642 21.2594C22.3259 20.2037 24.0425 20.2084 25.0982 21.2701L30.6622 26.8493Z" fill="#5ACBDB" fill-opacity="0.709804"/>
    </g>
    <rect x="0.5" y="0.5" width="69" height="69" rx="34.5" stroke="#E6E0FF"/>
    <defs>
        <clipPath id="clip0_1_7786">
            <rect width="42" height="30" fill="white" transform="translate(14 20)"/>
        </clipPath>
    </defs>
</svg>
