<svg width="70" height="70" viewBox="0 0 70 70" fill="none" xmlns="http://www.w3.org/2000/svg">
    <rect x="0.5" y="0.5" width="69" height="69" rx="34.5" fill="white"/>
    <path fill-rule="evenodd" clip-rule="evenodd" d="M60.4499 35.0017V35.7991L60.4471 36.1331V36.3853V36.6L60.4443 36.7874L60.4415 36.9578L60.4387 37.1146L60.4359 37.2611L60.433 37.3974L60.4302 37.5269L60.4246 37.6496L60.419 37.7689L60.4133 37.8814L60.4105 37.987L60.4049 38.0927L60.3965 38.1949L60.3908 38.2903L60.3824 38.3857L60.3768 38.4777L60.3683 38.5663L60.3599 38.6515L60.3514 38.7367L60.343 38.8185L60.3317 38.9003L60.3233 38.9787L60.312 39.0571L60.3008 39.1321L60.2895 39.207L60.2782 39.2786L60.267 39.3502L60.2529 39.4183L60.2416 39.4865L60.2276 39.5546L60.2135 39.6194L60.1994 39.6841L60.1853 39.7489L60.1713 39.8102L60.1544 39.8716L60.1403 39.9329L60.1234 39.9908L60.1065 40.0522L60.0896 40.1101L60.0728 40.1646L60.0559 40.2226L60.0362 40.2771L60.0165 40.3316L59.9996 40.3827L59.9799 40.4373L59.9602 40.4884L59.9376 40.5395L59.9179 40.5906L59.8954 40.6383L59.8757 40.6895L59.8532 40.7372L59.8307 40.7849L59.8053 40.8292L59.7828 40.8769L59.7603 40.9212L59.735 40.9689L59.7096 41.0132L59.6843 41.0541L59.659 41.0984L59.6308 41.1393L59.6055 41.1836L59.5773 41.2245L59.552 41.2654L59.5239 41.3029L59.4929 41.3438L59.4648 41.3813L59.4366 41.4222L59.4056 41.4596L59.3747 41.4971L59.3437 41.5346L59.3128 41.5687L59.2818 41.6062L59.248 41.6403L59.2142 41.6743L59.1833 41.7084L59.1495 41.7425L59.1129 41.7766L59.0791 41.8072L59.0425 41.8413L59.0059 41.872L58.9693 41.9027L58.9328 41.9333L58.8962 41.964L58.8568 41.9947L58.8202 42.0219L58.7808 42.0526L58.7413 42.0799L58.6991 42.1071L58.6597 42.1344L58.6175 42.1617L58.5753 42.1889L58.5331 42.2162L58.488 42.24L58.4458 42.2673L58.4008 42.2912L58.3557 42.315L58.3079 42.3389L58.2628 42.3627L58.215 42.3832L58.1671 42.407L58.1193 42.4309L58.0686 42.4513L58.0179 42.4718L57.9673 42.4922L57.9166 42.5127L57.8659 42.5331L57.8125 42.5536L57.759 42.5706L57.7027 42.5911L57.6464 42.6081L57.5901 42.6251L57.5338 42.6422L57.4747 42.6592L57.4156 42.6763L57.3565 42.6933L57.2974 42.7069L57.2326 42.724L57.1707 42.7376L57.1059 42.7512L57.0412 42.7683L56.9737 42.7785L56.9061 42.7921L56.8385 42.8057L56.7682 42.8194L56.6978 42.8296L56.6246 42.8432L56.5486 42.8535L56.4726 42.8637L56.3966 42.8739L56.315 42.8841L56.2334 42.8944L56.1517 42.9012L56.0673 42.9114L55.98 42.9182L55.89 42.9284L55.7971 42.9353L55.7014 42.9421L55.6028 42.9489L55.5015 42.9557L55.3974 42.9591L55.2876 42.9659L55.175 42.9693L55.0568 42.9761L54.9329 42.9796L54.8034 42.983L54.6655 42.9864L54.5191 42.9898L54.3615 42.9932L54.1926 42.9966H54.004H53.7901L53.5368 43H53.2103H48.6306H47.6285H47.2851H47.0233L46.8038 42.9966H46.6124L46.4378 42.9932L46.2802 42.9898L46.131 42.9864L45.9931 42.983L45.8608 42.9796L45.7369 42.9761L45.6187 42.9727L45.5033 42.9659L45.3964 42.9625L45.2894 42.9557L45.1881 42.9489L45.0895 42.9421L44.9938 42.9353L44.901 42.9284L44.8109 42.9216L44.7236 42.9114L44.6364 42.9046L44.5547 42.8944L44.4731 42.8841L44.3915 42.8739L44.3155 42.8637L44.2395 42.8535L44.1635 42.8432L44.0903 42.833L44.0199 42.8194L43.9495 42.8092L43.8792 42.7955L43.8116 42.7819L43.7441 42.7683L43.6793 42.7546L43.6146 42.741L43.5527 42.7274L43.4907 42.7103L43.4288 42.6967L43.3669 42.6797L43.3078 42.6626L43.2515 42.6456L43.1924 42.6285L43.1361 42.6115L43.0798 42.5945L43.0263 42.574L42.9728 42.557L42.9193 42.5365L42.8658 42.5161L42.8152 42.4956L42.7645 42.4752L42.7138 42.4547L42.666 42.4343L42.6153 42.4104L42.5675 42.39L42.5196 42.3661L42.4746 42.3423L42.4267 42.3184L42.3817 42.2946L42.3367 42.2707L42.2944 42.2435L42.2494 42.2196L42.2072 42.1923L42.165 42.1685L42.1227 42.1412L42.0833 42.114L42.0411 42.0867L42.0017 42.056L41.9623 42.0288L41.9229 41.9981L41.8863 41.9708L41.8469 41.9401L41.8103 41.9095L41.7737 41.8788L41.7371 41.8447L41.7033 41.8141L41.6667 41.78L41.633 41.7493L41.5992 41.7152L41.5654 41.6811L41.5316 41.6471L41.5007 41.6096L41.4669 41.5755L41.4359 41.538L41.405 41.5039L41.374 41.4665L41.3458 41.429L41.3149 41.3881L41.2867 41.3506L41.2586 41.3097L41.2304 41.2722L41.2023 41.2313L41.1741 41.1904L41.146 41.1461L41.1207 41.1052L41.0953 41.0609L41.07 41.02L41.0447 40.9757L41.0193 40.928L40.9968 40.8837L40.9715 40.8394L40.949 40.7917L40.9264 40.744L40.9039 40.6963L40.8814 40.6486L40.8617 40.5974L40.8392 40.5463L40.8195 40.4952L40.7998 40.4441L40.7801 40.393L40.7604 40.3384L40.7407 40.2839L40.7238 40.2294L40.7069 40.1749L40.6872 40.1169L40.6703 40.059L40.6534 40.0011L40.6393 39.9431L40.6224 39.8818L40.6084 39.8204L40.5915 39.7591L40.5774 39.6944L40.5633 39.6296L40.5493 39.5649L40.5352 39.4967L40.5239 39.4285L40.5099 39.3604L40.4986 39.2888L40.4873 39.2173L40.4761 39.1423L40.4648 39.0673L40.4536 38.9923L40.4451 38.914L40.4339 38.8322L40.4254 38.7504L40.417 38.6652L40.4085 38.58L40.4001 38.4914L40.3944 38.3994L40.386 38.3073L40.3804 38.2085L40.3719 38.1097L40.3663 38.004L40.3607 37.8984L40.355 37.7859L40.3522 37.6701L40.3466 37.5474L40.3438 37.4213L40.341 37.285L40.3382 37.1384L40.3353 36.9851L40.3325 36.8181L40.3297 36.6307V36.4228L40.3269 36.1774V35.8605V35.3186V34.2656V33.9146V33.6522L40.3297 33.4341L40.3325 33.2398V33.066L40.3353 32.9093L40.3382 32.7627L40.341 32.623L40.3466 32.4935L40.3494 32.3674L40.355 32.2515L40.3607 32.1391L40.3663 32.03L40.3719 31.9244L40.3776 31.8222L40.3832 31.7267L40.3916 31.6313L40.3973 31.5393L40.4057 31.4473L40.4141 31.3621L40.4226 31.2769L40.431 31.1951L40.4423 31.1133L40.4507 31.0349L40.462 30.9565L40.4733 30.8816L40.4845 30.8066L40.4958 30.735L40.507 30.6635L40.5183 30.5919L40.5324 30.5237L40.5464 30.4556L40.5577 30.3908L40.5718 30.3261L40.5887 30.2613L40.6027 30.2L40.6168 30.1387L40.6337 30.0773L40.6506 30.0194L40.6647 29.958L40.6816 29.9001L40.7013 29.8456L40.7181 29.7876L40.735 29.7331L40.7547 29.6786L40.7744 29.6241L40.7941 29.5729L40.8139 29.5218L40.8336 29.4707L40.8533 29.4196L40.8758 29.3685L40.8983 29.3208L40.9208 29.2731L40.9433 29.2253L40.9659 29.1776L40.9884 29.1299L41.0137 29.0856L41.0362 29.0413L41.0616 28.997L41.0869 28.9527L41.1122 28.9084L41.1376 28.8675L41.1657 28.8266L41.1938 28.7823L41.2192 28.7414L41.2473 28.7039L41.2755 28.663L41.3064 28.6256L41.3346 28.5847L41.3656 28.5472L41.3965 28.5097L41.4275 28.4722L41.4584 28.4381L41.4894 28.4006L41.5232 28.3666L41.5541 28.3325L41.5879 28.2984L41.6217 28.2643L41.6555 28.2302L41.6921 28.1962L41.7258 28.1655L41.7624 28.1348L41.799 28.1007L41.8356 28.0701L41.8722 28.0428L41.9116 28.0121L41.951 27.9815L41.9904 27.9542L42.0299 27.9235L42.0693 27.8963L42.1115 27.869L42.1509 27.8417L42.1931 27.8145L42.2353 27.7906L42.2804 27.7634L42.3226 27.7395L42.3676 27.7157L42.4127 27.6884L42.4605 27.6645L42.5056 27.6441L42.5534 27.6202L42.6013 27.5964L42.6491 27.5759L42.697 27.5521L42.7476 27.5316L42.7983 27.5112L42.849 27.4907L42.9024 27.4703L42.9559 27.4498L43.0094 27.4328L43.0629 27.4124L43.1192 27.3953L43.1755 27.3783L43.2318 27.3612L43.2909 27.3442L43.35 27.3272L43.4091 27.3101L43.471 27.2965L43.533 27.2794L43.5949 27.2658L43.6596 27.2488L43.7244 27.2351L43.7891 27.2215L43.8567 27.2079L43.927 27.1977L43.9946 27.184L44.0678 27.1738L44.141 27.1602L44.2141 27.1499L44.2901 27.1397L44.3661 27.1295L44.4478 27.1193L44.5266 27.1091L44.611 27.0988L44.6955 27.092L44.7827 27.0818L44.8728 27.075L44.9629 27.0682L45.0586 27.0613L45.1571 27.0545L45.2556 27.0477L45.3598 27.0409L45.4695 27.0375L45.5821 27.0307L45.6975 27.0273L45.8214 27.0204L45.9509 27.017L46.086 27.0136L46.2323 27.0102H46.3872L46.5561 27.0068L46.7418 27.0034H46.9501H47.195L47.5046 27H48.0085H53.0751H53.4439L53.7141 27.0034H53.9393L54.1335 27.0068H54.3108L54.4713 27.0102L54.6205 27.0136L54.7612 27.017L54.8935 27.0204L55.0174 27.0239L55.1384 27.0273L55.2538 27.0341L55.3636 27.0375L55.4705 27.0443L55.5719 27.0511L55.6704 27.0579L55.7661 27.0647L55.859 27.0716L55.9519 27.0784L56.0391 27.0886L56.1236 27.0954L56.208 27.1056L56.2897 27.1125L56.3713 27.1227L56.4473 27.1329L56.5261 27.1431L56.5993 27.1568L56.6725 27.167L56.7457 27.1772L56.816 27.1908L56.8864 27.2045L56.9539 27.2181L57.0215 27.2283L57.0862 27.2454L57.151 27.259L57.2129 27.2726L57.2776 27.2863L57.3368 27.3033L57.3987 27.3203L57.4578 27.334L57.5169 27.351L57.5732 27.3681L57.6295 27.3885L57.6858 27.4055L57.7393 27.4226L57.7956 27.443L57.8491 27.4601L57.8997 27.4805L57.9532 27.501L58.0039 27.5214L58.0545 27.5419L58.1024 27.5657L58.1531 27.5862L58.2009 27.61L58.2488 27.6305L58.2938 27.6543L58.3416 27.6782L58.3867 27.702L58.4317 27.7259L58.4739 27.7531L58.519 27.777L58.5612 27.8043L58.6034 27.8281L58.6456 27.8554L58.6879 27.8826L58.7273 27.9099L58.7667 27.9406L58.8061 27.9678L58.8455 27.9985L58.8849 28.0258L58.9215 28.0564L58.9581 28.0871L58.9947 28.1178L59.0313 28.1485L59.0679 28.1825L59.1016 28.2132L59.1382 28.2473L59.172 28.2814L59.2058 28.3154L59.2368 28.3495L59.2705 28.3836L59.3015 28.4211L59.3353 28.4552L59.3662 28.4927L59.3972 28.5301L59.4253 28.5676L59.4563 28.6051L59.4845 28.646L59.5126 28.6835L59.5408 28.7244L59.5689 28.7653L59.597 28.8062L59.6252 28.8471L59.6505 28.888L59.6759 28.9323L59.7012 28.9766L59.7265 29.0209L59.7519 29.0652L59.7744 29.1095L59.7997 29.1538L59.8222 29.2015L59.8448 29.2492L59.8673 29.2969L59.8898 29.3446L59.9095 29.3957L59.932 29.4469L59.9517 29.4946L59.9714 29.5491L59.9911 29.6002L60.0108 29.6547L60.0305 29.7059L60.0502 29.7604L60.0671 29.8183L60.084 29.8728L60.1009 29.9308L60.1178 29.9887L60.1347 30.0501L60.1516 30.108L60.1656 30.1693L60.1825 30.2341L60.1966 30.2954L60.2107 30.3602L60.2248 30.4249L60.236 30.4931L60.2501 30.5612L60.2613 30.6294L60.2754 30.701L60.2867 30.7725L60.2979 30.8441L60.3092 30.9191L60.3205 30.9974L60.3289 31.0758L60.3402 31.1542L60.3486 31.236L60.357 31.3212L60.3655 31.4064L60.3739 31.495L60.3824 31.587L60.388 31.679L60.3965 31.7744L60.4021 31.8767L60.4077 31.9789L60.4133 32.0846L60.419 32.197L60.4218 32.3129L60.4274 32.4322L60.433 32.5617L60.4359 32.6946L60.4387 32.8377L60.4415 32.9911L60.4443 33.1546V33.3387L60.4471 33.5431V33.7817L60.4499 34.0816V34.5485V35.0017ZM48.6109 39.4013H51.7691C54.7584 39.4013 56.5036 37.5167 56.5036 34.9778C56.5036 32.4117 54.7837 30.6021 51.8169 30.6021H48.6109V39.4013ZM47.0346 30.6021H44.6673V39.4013H47.0346V30.6021ZM18.2138 35.0017C18.2138 37.4281 16.477 39.6023 13.8705 39.6023C11.2612 39.6023 9.5498 37.4554 9.5498 35.0017C9.5498 32.5753 11.2865 30.4011 13.8931 30.4011C16.5024 30.4011 18.2138 32.5514 18.2138 35.0017ZM10.2141 35.0017C10.2141 37.1998 11.7651 39.006 13.8931 39.006C16.0239 39.006 17.5495 37.227 17.5495 35.0017C17.5495 32.8036 15.9985 31.0009 13.8705 31.0009C11.7425 31.0009 10.2141 32.7798 10.2141 35.0017ZM21.2087 39.4013H20.5979V30.6021H21.1975L27.0917 38.2596V30.6021H27.7025V39.4013H27.2268L21.2087 31.5836V39.4013ZM36.3805 39.4013H30.2414V30.6021H36.3186V31.2053H30.8776V34.6609H35.7697V35.2641H30.8776V38.7981H36.3805V39.4013ZM51.223 37.8609C51.0597 37.8609 50.9021 37.8575 50.7473 37.8575H50.1928C50.1815 37.5338 50.235 37.0839 50.3335 36.7295C50.4123 36.4364 50.7698 36.2251 51.0935 36.0479L51.1189 36.0343C51.2202 35.9798 51.4031 35.8775 51.5749 35.8094C51.5936 35.8026 51.6124 35.7957 51.6311 35.7889C51.7803 35.7344 51.952 35.6696 51.9689 35.489C51.983 35.3527 51.9154 35.2675 51.8338 35.1653C51.8132 35.1403 51.7925 35.1142 51.7719 35.0869C51.5326 34.7632 51.3074 34.3235 51.3497 33.7237C51.3891 33.1376 51.7578 32.6809 52.3799 32.6128C52.4512 32.6037 52.5206 32.6003 52.5882 32.6026C52.6557 32.6003 52.7261 32.6037 52.7993 32.6128C53.4186 32.6809 53.7901 33.1376 53.8295 33.7237C53.8689 34.3235 53.6437 34.7632 53.4045 35.0869C53.3838 35.1142 53.3641 35.1403 53.3454 35.1653C53.2637 35.2675 53.1934 35.3527 53.2074 35.489C53.2243 35.6696 53.3988 35.7344 53.5452 35.7889C53.5659 35.7957 53.5856 35.8026 53.6043 35.8094C53.7732 35.8775 53.959 35.9798 54.0603 36.0343L54.0828 36.0479C54.3024 36.1672 54.536 36.3035 54.688 36.4671C54.6233 36.6 54.5051 36.7704 54.4375 36.8522C54.2714 37.0498 54.1054 37.2032 53.9393 37.3259H53.9421C53.8877 37.3645 53.8314 37.4009 53.7732 37.4349C53.5424 37.5815 53.3172 37.6667 53.1089 37.7246C53.0751 37.7337 53.0423 37.7428 53.0104 37.7519C52.7402 37.82 52.4756 37.8507 52.242 37.8575C51.9014 37.8677 51.5551 37.8643 51.223 37.8609Z" fill="#6949DE"/>
    <rect x="0.5" y="0.5" width="69" height="69" rx="34.5" stroke="#E6E0FF"/>
</svg>
