<svg width="100" height="100" viewBox="0 0 100 100" fill="none" xmlns="http://www.w3.org/2000/svg">
    <rect x="0.5" y="0.5" width="99" height="99" rx="11.5" fill="white"/>
    <path d="M66.977 22.5101H34.7536C34.4509 22.5111 34.1496 22.5522 33.8578 22.6326C33.1862 22.8269 32.596 23.2345 32.1764 23.7936C31.7567 24.3528 31.5303 25.0333 31.5313 25.7325V43.7775C31.5313 44.6322 31.8707 45.4518 32.4751 46.0561C33.0794 46.6604 33.899 46.9999 34.7536 46.9999H64.3991C65.0258 46.9996 65.6388 46.8165 66.1631 46.4731C66.6873 46.1297 67.1001 45.6409 67.3507 45.0665C67.5298 44.6604 67.622 44.2214 67.6214 43.7775V23.1546C67.6214 22.9837 67.5535 22.8198 67.4327 22.6989C67.3118 22.578 67.1479 22.5101 66.977 22.5101Z" fill="#4CE166"/>
    <path d="M57.5151 33.4081L59.4485 31.4747L58.5334 30.566L53.0619 36.0439L48.2026 31.1911L56.9158 22.5101H34.7526C34.4499 22.5111 34.1486 22.5522 33.8568 22.6326C33.4199 22.76 33.0155 22.9798 32.6709 23.277L43.4722 34.1105L32.02 45.4854C32.2505 45.8536 32.553 46.1715 32.9094 46.4199C33.45 46.7972 34.0933 46.9996 34.7526 46.9999H43.9169L56.6064 34.3168L67.3497 45.0665C67.5288 44.6604 67.621 44.2214 67.6204 43.7775V43.5069L57.5151 33.4081Z" fill="#00DF77"/>
    <path d="M43.4732 34.1105L32.021 45.4853C31.701 44.9732 31.5312 44.3814 31.5313 43.7775V25.7324C31.5319 25.2649 31.6342 24.8031 31.8312 24.3791C32.0282 23.9551 32.3151 23.579 32.672 23.277L43.4732 34.1105Z" fill="#59C7FF"/>
    <path d="M67.3513 45.0664C67.1006 45.6408 66.6879 46.1296 66.1636 46.473C65.6394 46.8164 65.0263 46.9994 64.3996 46.9998H43.9185L56.608 34.3167L67.3513 45.0664Z" fill="#A8EEFC"/>
    <path d="M67.6219 23.1546V43.5069L57.5167 33.4081L59.4501 31.4747L58.5349 30.566L53.0634 36.0439L48.2041 31.1911L56.9173 22.5101H66.9774C67.1484 22.5101 67.3123 22.578 67.4331 22.6989C67.554 22.8198 67.6219 22.9837 67.6219 23.1546Z" fill="#59C7FF"/>
    <path d="M57.5162 33.4081L59.4496 31.4747L58.5344 30.566L53.0629 36.0439L48.2036 31.1911L56.9168 22.5101H55.0865L44.4206 33.1696L41.1983 29.9473L48.5839 22.5101H46.76L40.2316 29.0128L33.8578 22.6326C33.4209 22.76 33.0165 22.9798 32.672 23.277L36.977 27.5821L31.5312 33.0278V34.8452L37.8857 28.4908L43.4732 34.1105L32.021 45.4854C32.2515 45.8536 32.554 46.1715 32.9104 46.4199L40.8374 38.5251L45.7095 43.3973L42.1005 46.9999H43.9179L56.6075 34.3168L67.3507 45.0665C67.5298 44.6604 67.622 44.2214 67.6214 43.7775V43.5069L57.5162 33.4081ZM46.6182 42.4886L41.7461 37.6229L47.2949 32.0998L52.1542 36.9526L46.6182 42.4886Z" fill="#FFE689"/>
    <path d="M66.0969 31.178H60.9412V29.889H66.0969V31.178Z" fill="#FFDB56"/>
    <path d="M68.4321 22.1577C68.4291 23.1295 68.1533 24.0809 67.636 24.9036C67.1187 25.7262 66.3807 26.3871 65.5062 26.8108C64.8485 27.8573 64.3021 28.9697 63.8757 30.1298C63.8279 30.2497 63.7453 30.3525 63.6384 30.4249C63.5316 30.4973 63.4054 30.5359 63.2763 30.5358C63.1473 30.5359 63.0211 30.4973 62.9143 30.4249C62.8074 30.3525 62.7247 30.2497 62.677 30.1298C62.2589 28.9641 61.712 27.8487 61.0465 26.8043C60.2154 26.4057 59.5063 25.7914 58.9932 25.0257C58.4801 24.2599 58.1817 23.3705 58.129 22.4503C58.0764 21.53 58.2714 20.6124 58.6938 19.7931C59.1162 18.9738 59.7506 18.2827 60.5308 17.7918C61.311 17.301 62.2086 17.0282 63.13 17.0021C64.0514 16.9759 64.963 17.1973 65.7698 17.6431C66.5767 18.0889 67.2492 18.7429 67.7174 19.5369C68.1856 20.3309 68.4324 21.2359 68.4321 22.1577Z" fill="#9F87FF"/>
    <path d="M63.2761 17.002C63.0607 17.0018 62.8454 17.0147 62.6316 17.0406C63.7383 17.1778 64.7708 17.6701 65.574 18.4437C66.3773 19.2174 66.908 20.2306 67.0866 21.3314C67.2653 22.4322 67.0821 23.5613 66.5647 24.5492C66.0473 25.5371 65.2236 26.3307 64.217 26.8108C63.5762 27.8259 63.0448 28.906 62.6316 30.0331C62.6494 30.0684 62.6644 30.105 62.6767 30.1427C62.7242 30.2629 62.8068 30.366 62.9137 30.4387C63.0205 30.5114 63.1468 30.5502 63.2761 30.5502C63.4053 30.5502 63.5316 30.5114 63.6385 30.4387C63.7453 30.366 63.8279 30.2629 63.8754 30.1427C64.3018 28.9825 64.8482 27.8701 65.5059 26.8236C66.5696 26.3237 67.4306 25.4753 67.9461 24.4191C68.4617 23.3629 68.6009 22.1622 68.3407 21.0161C68.0805 19.8699 67.4364 18.8471 66.5153 18.117C65.5942 17.387 64.4514 16.9936 63.2761 17.002Z" fill="#8F73FF"/>
    <path d="M65.854 22.1578C65.854 22.6677 65.7028 23.1661 65.4195 23.59C65.1363 24.0139 64.7337 24.3444 64.2626 24.5395C63.7916 24.7346 63.2733 24.7856 62.7732 24.6862C62.2731 24.5867 61.8138 24.3412 61.4533 23.9807C61.0928 23.6201 60.8472 23.1608 60.7478 22.6607C60.6483 22.1607 60.6994 21.6424 60.8945 21.1713C61.0896 20.7003 61.42 20.2977 61.8439 20.0144C62.2679 19.7311 62.7663 19.58 63.2761 19.58C63.9598 19.58 64.6155 19.8516 65.0989 20.335C65.5824 20.8184 65.854 21.4741 65.854 22.1578Z" fill="white"/>
    <path d="M25.77 78H19.5942V66.0967H20.9888V76.7383H25.77V78ZM30.9663 78.1992C29.7101 78.1992 28.7057 77.8035 27.9531 77.0122C27.2061 76.2153 26.8325 75.1611 26.8325 73.8496C26.8325 72.4219 27.2227 71.3068 28.0029 70.5044C28.7832 69.702 29.8374 69.3008 31.1655 69.3008C32.4328 69.3008 33.4206 69.6909 34.1289 70.4712C34.8428 71.2515 35.1997 72.3333 35.1997 73.7168C35.1997 75.0726 34.8151 76.16 34.0459 76.979C33.2822 77.7925 32.2557 78.1992 30.9663 78.1992ZM31.0659 70.4463C30.1916 70.4463 29.4998 70.7451 28.9907 71.3428C28.4816 71.9349 28.2271 72.7539 28.2271 73.7998C28.2271 74.807 28.4844 75.6011 28.999 76.1821C29.5137 76.7632 30.2026 77.0537 31.0659 77.0537C31.9458 77.0537 32.6209 76.7687 33.0913 76.1987C33.5672 75.6287 33.8052 74.818 33.8052 73.7666C33.8052 72.7041 33.5672 71.8851 33.0913 71.3096C32.6209 70.734 31.9458 70.4463 31.0659 70.4463ZM43.1685 77.6099C42.5155 78.0028 41.7407 78.1992 40.8442 78.1992C39.6323 78.1992 38.6528 77.8063 37.9058 77.0205C37.1642 76.2292 36.7935 75.2054 36.7935 73.9492C36.7935 72.5492 37.1947 71.4258 37.9971 70.5791C38.7995 69.7269 39.8703 69.3008 41.2095 69.3008C41.9565 69.3008 42.6151 69.4391 43.1851 69.7158V71.1104C42.5542 70.6676 41.8791 70.4463 41.1597 70.4463C40.2909 70.4463 39.577 70.759 39.0181 71.3843C38.4647 72.0041 38.188 72.8203 38.188 73.833C38.188 74.8291 38.4481 75.6149 38.9683 76.1904C39.494 76.766 40.1968 77.0537 41.0767 77.0537C41.8182 77.0537 42.5155 76.8075 43.1685 76.3149V77.6099ZM51.3115 78H49.9502V76.6719H49.917C49.3249 77.6901 48.4533 78.1992 47.3022 78.1992C46.4556 78.1992 45.7915 77.9751 45.3101 77.5269C44.8341 77.0786 44.5962 76.4837 44.5962 75.7422C44.5962 74.154 45.5314 73.2298 47.4019 72.9697L49.9502 72.6128C49.9502 71.1685 49.3664 70.4463 48.1987 70.4463C47.175 70.4463 46.2508 70.7949 45.4263 71.4922V70.0977C46.2619 69.5664 47.2248 69.3008 48.3149 69.3008C50.3127 69.3008 51.3115 70.3577 51.3115 72.4717V78ZM49.9502 73.7002L47.8999 73.9824C47.269 74.071 46.7931 74.2287 46.4722 74.4556C46.1512 74.6769 45.9907 75.0726 45.9907 75.6426C45.9907 76.0576 46.1374 76.3979 46.4307 76.6636C46.7295 76.9237 47.1252 77.0537 47.6177 77.0537C48.2928 77.0537 48.849 76.8185 49.2861 76.3481C49.7288 75.8722 49.9502 75.2718 49.9502 74.5469V73.7002ZM57.8193 77.917C57.4984 78.0941 57.075 78.1826 56.5493 78.1826C55.0607 78.1826 54.3164 77.3525 54.3164 75.6924V70.6621H52.8555V69.5H54.3164V67.4248L55.6777 66.9849V69.5H57.8193V70.6621H55.6777V75.4517C55.6777 76.0216 55.7746 76.4284 55.9683 76.6719C56.1619 76.9154 56.4829 77.0371 56.9312 77.0371C57.2743 77.0371 57.5703 76.943 57.8193 76.7549V77.917ZM60.3345 67.3418C60.091 67.3418 59.8835 67.2588 59.7119 67.0928C59.5404 66.9268 59.4546 66.7165 59.4546 66.4619C59.4546 66.2074 59.5404 65.9971 59.7119 65.8311C59.8835 65.6595 60.091 65.5737 60.3345 65.5737C60.5835 65.5737 60.7938 65.6595 60.9653 65.8311C61.1424 65.9971 61.231 66.2074 61.231 66.4619C61.231 66.7054 61.1424 66.9129 60.9653 67.0845C60.7938 67.256 60.5835 67.3418 60.3345 67.3418ZM60.9985 78H59.6372V69.5H60.9985V78ZM67.3071 78.1992C66.0509 78.1992 65.0465 77.8035 64.2939 77.0122C63.5469 76.2153 63.1733 75.1611 63.1733 73.8496C63.1733 72.4219 63.5635 71.3068 64.3438 70.5044C65.124 69.702 66.1782 69.3008 67.5063 69.3008C68.7736 69.3008 69.7614 69.6909 70.4697 70.4712C71.1836 71.2515 71.5405 72.3333 71.5405 73.7168C71.5405 75.0726 71.1559 76.16 70.3867 76.979C69.623 77.7925 68.5965 78.1992 67.3071 78.1992ZM67.4067 70.4463C66.5324 70.4463 65.8407 70.7451 65.3315 71.3428C64.8224 71.9349 64.5679 72.7539 64.5679 73.7998C64.5679 74.807 64.8252 75.6011 65.3398 76.1821C65.8545 76.7632 66.5435 77.0537 67.4067 77.0537C68.2866 77.0537 68.9618 76.7687 69.4321 76.1987C69.908 75.6287 70.146 74.818 70.146 73.7666C70.146 72.7041 69.908 71.8851 69.4321 71.3096C68.9618 70.734 68.2866 70.4463 67.4067 70.4463ZM80.771 78H79.4097V73.1523C79.4097 71.3483 78.7511 70.4463 77.4341 70.4463C76.7534 70.4463 76.189 70.7036 75.7407 71.2183C75.298 71.7274 75.0767 72.3721 75.0767 73.1523V78H73.7153V69.5H75.0767V70.9111H75.1099C75.7518 69.8376 76.6815 69.3008 77.8989 69.3008C78.8286 69.3008 79.5397 69.6024 80.0322 70.2056C80.5247 70.8032 80.771 71.6693 80.771 72.8037V78Z" fill="#141414" fill-opacity="0.7"/>
    <rect x="0.5" y="0.5" width="99" height="99" rx="11.5" stroke="#E6E0FF"/>
</svg>
