<svg width="51" height="50" viewBox="0 0 51 50" fill="none" xmlns="http://www.w3.org/2000/svg">
    <path d="M8.83334 13.3625L2.07709 6.60832L5.025 3.6604L11.7792 10.4167H43.5333C43.8581 10.4166 44.1783 10.4925 44.4685 10.6382C44.7587 10.784 45.0108 10.9955 45.2047 11.256C45.3985 11.5165 45.5289 11.8187 45.5852 12.1385C45.6416 12.4583 45.6224 12.7868 45.5292 13.0979L40.5292 29.7646C40.4005 30.1939 40.1369 30.5703 39.7773 30.8379C39.4178 31.1055 38.9815 31.25 38.5333 31.25H13V35.4167H35.9167V39.5833H10.9167C10.3641 39.5833 9.83423 39.3638 9.44353 38.9731C9.05283 38.5824 8.83334 38.0525 8.83334 37.5V13.3625ZM13 14.5833V27.0833H36.9833L40.7333 14.5833H13ZM11.9583 47.9167C11.1295 47.9167 10.3347 47.5874 9.74863 47.0014C9.16258 46.4153 8.83334 45.6205 8.83334 44.7917C8.83334 43.9629 9.16258 43.168 9.74863 42.5819C10.3347 41.9959 11.1295 41.6667 11.9583 41.6667C12.7871 41.6667 13.582 41.9959 14.168 42.5819C14.7541 43.168 15.0833 43.9629 15.0833 44.7917C15.0833 45.6205 14.7541 46.4153 14.168 47.0014C13.582 47.5874 12.7871 47.9167 11.9583 47.9167ZM36.9583 47.9167C36.1295 47.9167 35.3347 47.5874 34.7486 47.0014C34.1626 46.4153 33.8333 45.6205 33.8333 44.7917C33.8333 43.9629 34.1626 43.168 34.7486 42.5819C35.3347 41.9959 36.1295 41.6667 36.9583 41.6667C37.7871 41.6667 38.582 41.9959 39.168 42.5819C39.7541 43.168 40.0833 43.9629 40.0833 44.7917C40.0833 45.6205 39.7541 46.4153 39.168 47.0014C38.582 47.5874 37.7871 47.9167 36.9583 47.9167Z" fill="#8F73FF"/>
</svg>
