<svg width="70" height="62" viewBox="0 0 70 62" fill="none" xmlns="http://www.w3.org/2000/svg">
    <rect x="0.5" y="2.5" width="59" height="59" rx="29.5" fill="white"/>
    <path d="M32.3227 30.9929V34.3129H28.9993C28.3407 34.3139 27.6966 34.1201 27.1485 33.7559C26.6004 33.3917 26.173 32.8736 25.9202 32.267C25.6675 31.6604 25.6008 30.9927 25.7287 30.3484C25.8565 29.704 26.1731 29.1119 26.6385 28.6471C27.1038 28.1823 27.6969 27.8656 28.3427 27.737C28.9886 27.6085 29.6581 27.6739 30.2667 27.9251C30.8752 28.1762 31.3954 28.6017 31.7614 29.1478C32.1274 29.6939 32.3227 30.336 32.3227 30.9929Z" fill="#8A2943"/>
    <path d="M34.7162 16H23.2838C20.819 16.0035 18.4565 16.983 16.7156 18.7233C14.9747 20.4635 13.9979 22.8221 14 25.2804V36.7222C13.9986 39.1801 14.9757 41.538 16.7165 43.2777C18.4573 45.0174 20.8195 45.9966 23.2838 46H44V25.2804C44.0021 22.8225 43.0256 20.4644 41.2853 18.7242C39.545 16.984 37.1831 16.0041 34.7188 16H34.7162ZM37.4053 39.3938H28.9987C27.0171 39.3878 25.1011 38.6855 23.5872 37.4104C22.0732 36.1353 21.0582 34.3688 20.7203 32.4214C20.3825 30.474 20.7435 28.47 21.7399 26.7617C22.7363 25.0534 24.3043 23.7498 26.1686 23.0801V20.5777C26.1687 20.5391 26.1802 20.5014 26.2017 20.4693C26.2232 20.4372 26.2538 20.4122 26.2895 20.3975C26.3253 20.3827 26.3646 20.3788 26.4026 20.3863C26.4406 20.3939 26.4754 20.4124 26.5028 20.4397L27.8526 21.8068C27.8893 21.8434 27.939 21.8639 27.9909 21.8639C28.0428 21.8639 28.0926 21.8434 28.1293 21.8068L28.1502 21.786L28.842 20.8616C28.857 20.8405 28.8761 20.8228 28.8982 20.8092C28.9202 20.7957 28.9447 20.7868 28.9703 20.7829C28.9958 20.779 29.0219 20.7803 29.047 20.7866C29.072 20.793 29.0956 20.8043 29.1162 20.8199C29.1326 20.8311 29.1467 20.8452 29.1579 20.8616L29.8524 21.786C29.8835 21.8274 29.9299 21.8548 29.9813 21.8621C30.0068 21.8657 30.0327 21.8643 30.0576 21.858C30.0825 21.8516 30.1059 21.8404 30.1265 21.825L30.15 21.8042L31.4998 20.4371C31.5365 20.4005 31.5862 20.38 31.6381 20.38C31.69 20.38 31.7398 20.4005 31.7765 20.4371C31.8134 20.4747 31.834 20.5252 31.8339 20.5777V23.0905C33.4647 23.6762 34.8745 24.7495 35.8711 26.1638C36.8677 27.5782 37.4025 29.2648 37.4026 30.9935L37.4053 39.3938Z" fill="#8A2943"/>
    <rect x="0.5" y="2.5" width="59" height="59" rx="29.5" stroke="#E9E9E9"/>
    <g clip-path="url(#clip0_382_21807)">
        <path d="M70 0H38.4632V20H70V0Z" fill="#D2C7FF"/>
        <path d="M70 0C68.726 1.21714 67.4284 2.36799 66.1449 3.58513C64.8615 4.80227 63.5638 5.92943 62.252 7.10395C60.9401 8.27847 59.5288 9.51456 58.1648 10.708L58.0417 10.8217L54.4092 13.9758L54.2292 14.1227L54.054 13.9758L50.4262 10.817L50.3031 10.6938C48.9344 9.50035 47.5705 8.32583 46.2112 7.08501C44.852 5.84419 43.6112 4.73597 42.3183 3.58513C41.0253 2.43429 39.7372 1.21714 38.4632 0C39.8177 1.04191 41.1485 2.14066 42.4888 3.21099C43.829 4.28132 45.1598 5.38953 46.4859 6.49775C47.9635 7.71963 49.4412 8.96519 50.914 10.2202C52.0191 11.1674 53.1242 12.1067 54.2292 13.0381C55.328 12.0909 56.4314 11.1437 57.5444 10.2202C59.0157 8.9573 60.4918 7.71489 61.9725 6.49301C63.2986 5.39427 64.6294 4.29552 65.965 3.21572C67.3005 2.13592 68.6455 1.04191 70 0Z" fill="white"/>
        <path d="M50.9614 10.6797L50.9235 10.7128L50.4499 11.1343C49.659 11.8021 48.8492 12.4415 48.0251 13.0619C47.0211 13.8291 45.9934 14.5632 44.9609 15.2925C43.9285 16.0219 42.8582 16.7181 41.7784 17.4C40.6986 18.082 39.6519 18.7498 38.539 19.3607C39.4861 18.5225 40.4902 17.741 41.4942 16.9927C42.4982 16.2445 43.5307 15.4914 44.5584 14.7621C45.5861 14.0328 46.6422 13.3413 47.7078 12.6499C48.5555 12.1052 49.4175 11.5701 50.2984 11.068L50.914 10.7223L50.9614 10.6797Z" fill="white"/>
        <path d="M69.9242 19.3607C68.8113 18.7498 67.7315 18.082 66.6706 17.4C65.6098 16.7181 64.5631 16.0077 63.5212 15.2925C62.4793 14.5774 61.461 13.8291 60.457 13.0619C59.6377 12.4415 58.8278 11.8068 58.0417 11.1391L57.5397 10.7128L57.5018 10.6797L57.5491 10.7034L58.1648 11.0538C59.0457 11.5558 59.9029 12.091 60.7554 12.6356C61.821 13.3176 62.8629 14.028 63.9001 14.7479C64.9372 15.4678 65.9602 16.2113 66.9642 16.9785C67.9683 17.7458 68.9676 18.5225 69.9242 19.3607Z" fill="white"/>
    </g>
    <defs>
        <clipPath id="clip0_382_21807">
            <rect width="31.5368" height="20" fill="white" transform="translate(38.4632)"/>
        </clipPath>
    </defs>
</svg>
