<svg xmlns="http://www.w3.org/2000/svg" width="40" height="40" viewBox="0 0 40 40" fill="none">
    <g clip-path="url(#clip0_843_27025)">
        <path fill-rule="evenodd" clip-rule="evenodd" d="M30 40H10C7.34787 39.9999 4.8044 38.9463 2.92906 37.0709C1.05372 35.1956 0.000116023 32.6521 0 30L0 10C0.000116023 7.34787 1.05372 4.8044 2.92906 2.92906C4.8044 1.05372 7.34787 0.000116023 10 0L30 0C32.6522 0 35.1957 1.05357 37.0711 2.92893C38.9464 4.8043 40 7.34784 40 10V30C40 32.6522 38.9464 35.1957 37.0711 37.0711C35.1957 38.9464 32.6522 40 30 40Z" fill="#1B6AE2"/>
        <path fill-rule="evenodd" clip-rule="evenodd" d="M18.75 11.25H30C31.442 11.2499 32.829 10.696 33.8744 9.70276C34.9198 8.70948 35.5439 7.35266 35.6177 5.9125C35.6915 4.47235 35.2094 3.05885 34.271 1.96391C33.3325 0.868981 32.0095 0.176239 30.575 0.02875C30.3838 0.018125 30.1944 0 30 0H10C7.34787 0.000116023 4.8044 1.05372 2.92906 2.92906C1.05372 4.8044 0.000116023 7.34787 0 10L0 30C0.000116027 25.0272 1.97559 20.2582 5.49188 16.7419C9.00816 13.2256 13.7772 11.2501 18.75 11.25" fill="#2D78EA"/>
        <path fill-rule="evenodd" clip-rule="evenodd" d="M30 20C28.0222 20 26.0888 20.5865 24.4443 21.6853C22.7998 22.7841 21.5181 24.3459 20.7612 26.1732C20.0043 28.0004 19.8063 30.0111 20.1922 31.9509C20.578 33.8907 21.5304 35.6725 22.9289 37.0711C24.3275 38.4696 26.1093 39.422 28.0491 39.8079C29.9889 40.1937 31.9996 39.9957 33.8268 39.2388C35.6541 38.4819 37.2159 37.2002 38.3147 35.5557C39.4135 33.9112 40 31.9778 40 30V10C40 12.6522 38.9464 15.1957 37.0711 17.0711C35.1957 18.9464 32.6522 20 30 20Z" fill="#085CDB"/>
        <path d="M18.7038 27.063C17.9607 26.3198 17.9607 25.1149 18.7038 24.3718C19.4469 23.6287 20.6519 23.6287 21.395 24.3718L24.2751 27.2516C25.0182 27.9947 25.0182 29.1996 24.2751 29.9428C23.532 30.6859 22.3271 30.6859 21.5839 29.9428L18.7038 27.063Z" fill="white" fill-opacity="0.709804"/>
        <path d="M21.5838 21.4914C22.3269 20.7483 23.5318 20.7483 24.2749 21.4914C25.0181 22.2346 25.0181 23.4395 24.2749 24.1826L21.395 27.0627C20.6519 27.8058 19.4469 27.8058 18.7038 27.0627C17.9607 26.3196 17.9607 25.1147 18.7038 24.3715L21.5838 21.4914V21.4914Z" fill="white" fill-opacity="0.709804"/>
        <path d="M11.9036 23.884C12.6467 23.1409 13.8516 23.1409 14.5948 23.884C15.3379 24.6271 15.3379 25.8321 14.5948 26.5752L11.5415 29.6283C10.7983 30.3714 9.59342 30.3714 8.8503 29.6283C8.10719 28.8852 8.10719 27.6803 8.8503 26.9371L11.9036 23.884Z" fill="white" fill-opacity="0.709804"/>
        <path d="M9.25511 26.5403C9.99825 25.8014 11.1999 25.8047 11.9388 26.5478C12.6778 27.291 12.6745 28.4926 11.9313 29.2315L11.5346 29.6281C10.7914 30.3671 9.58982 30.3638 8.85087 29.6206C8.11192 28.8775 8.11523 27.6759 8.85838 26.9369L9.25511 26.5403V26.5403Z" fill="white" fill-opacity="0.709804"/>
        <path d="M24.4627 24.3713C25.2058 23.6282 26.4107 23.6282 27.1539 24.3713C27.897 25.1144 27.897 26.3194 27.1539 27.0625L24.2739 29.9426C23.5308 30.6857 22.3258 30.6857 21.5827 29.9426C20.8396 29.1995 20.8396 27.9946 21.5827 27.2514L24.4627 24.3713V24.3713Z" fill="white" fill-opacity="0.709804"/>
        <path d="M27.154 24.3714C27.8971 25.1145 27.8971 26.3194 27.154 27.0625C26.4109 27.8057 25.206 27.8057 24.4628 27.0625L21.5827 24.1826C20.8396 23.4395 20.8396 22.2346 21.5827 21.4914C22.3258 20.7483 23.5308 20.7483 24.2739 21.4914L27.154 24.3714V24.3714Z" fill="white" fill-opacity="0.709804"/>
        <path d="M24.2739 29.9424C23.5308 30.6855 22.3259 30.6855 21.5828 29.9424C20.8396 29.1992 20.8396 27.9943 21.5828 27.2512L27.778 21.0559C28.5212 20.3128 29.7261 20.3128 30.4692 21.0559C31.2123 21.799 31.2123 23.0039 30.4692 23.7471L24.2739 29.9424Z" fill="white" fill-opacity="0.709804"/>
        <path d="M16.371 22.1162C16.4599 22.2039 16.5776 22.2479 16.6957 22.2479C16.8168 22.2479 16.9355 22.2044 17.0224 22.1173L17.0241 22.1158L17.0224 22.1142L17.0327 22.1039C17.1218 22.0148 17.1664 21.8963 17.1664 21.7772H17.1696C17.1696 21.6589 17.1243 21.5399 17.0343 21.449L17.0327 21.4506C16.9434 21.3612 16.8249 21.3167 16.7058 21.3167C16.5852 21.3167 16.466 21.3609 16.3769 21.4492L16.3673 21.459L16.3689 21.4606L16.344 21.4844C16.2715 21.5698 16.2351 21.678 16.2351 21.7873C16.2351 21.9075 16.2792 22.0266 16.3671 22.1154L16.3687 22.1138L16.371 22.1162V22.1162ZM16.6957 23.8815C16.1593 23.8815 15.6222 23.6773 15.214 23.2691L15.2154 23.2671L15.2137 23.2656C14.8057 22.8575 14.6016 22.3217 14.6016 21.7873C14.6016 21.2761 14.7886 20.7633 15.1622 20.3624C15.1784 20.343 15.1955 20.324 15.2138 20.3058L15.2155 20.3072L15.2272 20.2954C15.6355 19.8873 16.1714 19.6831 16.7058 19.6831C17.2422 19.6831 17.7794 19.8874 18.1874 20.2954L18.1861 20.2973L18.1877 20.2989C18.5936 20.7049 18.7967 21.241 18.7968 21.7773H18.8C18.8 22.3137 18.5958 22.8507 18.1877 23.2589L18.1774 23.2692L18.1757 23.2675C17.7658 23.6768 17.2295 23.8815 16.6957 23.8815V23.8815Z" fill="white" fill-opacity="0.709804"/>
        <path d="M23.3286 12.6707C24.0676 13.4138 24.0642 14.6154 23.3211 15.3544C22.578 16.0933 21.3764 16.09 20.6374 15.3469L18.3665 13.0653C17.6275 12.3222 17.6309 11.1206 18.374 10.3816C19.1171 9.64268 20.3187 9.64599 21.0577 10.3891L23.3286 12.6707V12.6707Z" fill="white" fill-opacity="0.709804"/>
        <path d="M25.9343 12.7485C25.1912 12.0054 25.1912 10.8004 25.9343 10.0573C26.6774 9.31422 27.8823 9.31422 28.6254 10.0573L31.2471 12.6788C31.9902 13.4219 31.9902 14.6269 31.2471 15.37C30.504 16.1131 29.299 16.1131 28.5559 15.37L25.9343 12.7485V12.7485Z" fill="white" fill-opacity="0.709804"/>
        <path d="M31.2465 15.3695C30.5034 16.1126 29.2985 16.1126 28.5554 15.3695C27.8123 14.6263 27.8123 13.4214 28.5554 12.6783L31.1078 10.1262C31.8509 9.38307 33.0558 9.38307 33.799 10.1262C34.5421 10.8693 34.5421 12.0742 33.799 12.8173L31.2465 15.3695Z" fill="white" fill-opacity="0.709804"/>
        <path d="M28.5546 12.6784C29.2977 11.9353 30.5026 11.9353 31.2458 12.6784C31.9889 13.4215 31.9889 14.6265 31.2458 15.3696L28.9516 17.664C28.2085 18.4071 27.0036 18.4071 26.2605 17.664C25.5173 16.9209 25.5173 15.716 26.2605 14.9729L28.5546 12.6784V12.6784Z" fill="white" fill-opacity="0.709804"/>
        <path d="M8.74324 17.6002C8.00425 18.3434 6.8027 18.3467 6.05952 17.6077C5.31641 16.8688 5.3131 15.6672 6.05202 14.9241L10.5763 10.3891C11.3152 9.646 12.5168 9.64269 13.26 10.3816C14.0031 11.1206 14.0064 12.3221 13.2675 13.0653L8.74324 17.6002V17.6002Z" fill="white" fill-opacity="0.709804"/>
        <path d="M17.1631 16.9706C16.4242 17.7138 15.2226 17.7171 14.4794 16.9781C13.7363 16.2392 13.733 15.0376 14.4719 14.2945L18.3667 10.3891C19.1056 9.646 20.3072 9.64269 21.0504 10.3816C21.7935 11.1206 21.7968 12.3221 21.0579 13.0653L17.1631 16.9706Z" fill="white" fill-opacity="0.709804"/>
        <path d="M17.1634 14.2945C17.9023 15.0376 17.899 16.2392 17.1559 16.9782C16.4127 17.7171 15.2111 17.7138 14.4722 16.9707L10.5774 13.0653C9.83848 12.3222 9.84179 11.1206 10.5849 10.3816C11.3281 9.64268 12.5297 9.64599 13.2687 10.3891L17.1634 14.2945V14.2945Z" fill="white" fill-opacity="0.709804"/>
    </g>
    <defs>
        <clipPath id="clip0_843_27025">
            <rect width="40" height="40" fill="white"/>
        </clipPath>
    </defs>
</svg>