<svg width="70" height="50" viewBox="0 0 70 50" fill="none" xmlns="http://www.w3.org/2000/svg">
    <g clip-path="url(#clip0_1_5949)">
        <path d="M31.4377 41.8169C29.6684 40.0474 29.6684 37.1785 31.4377 35.409C33.2071 33.6397 36.076 33.6397 37.8454 35.409L44.7029 42.2659C46.4724 44.0354 46.4724 46.9042 44.7029 48.6737C42.9335 50.443 40.0647 50.443 38.2954 48.6737L31.4377 41.8169Z" fill="#493EB1" fill-opacity="0.709804"/>
        <path d="M38.2949 28.5511C40.0642 26.7818 42.9332 26.7818 44.7026 28.5511C46.472 30.3205 46.472 33.1895 44.7026 34.9588L37.8454 41.8163C36.076 43.5858 33.2071 43.5858 31.4377 41.8163C29.6684 40.047 29.6684 37.1781 31.4377 35.4086L38.2949 28.5511Z" fill="#D276C0" fill-opacity="0.709804"/>
        <path d="M15.2473 34.2478C17.0168 32.4783 19.8857 32.4783 21.655 34.2478C23.4243 36.0171 23.4243 38.8861 21.655 40.6554L14.3851 47.9249C12.6157 49.6943 9.74677 49.6943 7.9774 47.9249C6.20805 46.1556 6.20805 43.2868 7.9774 41.5173L15.2473 34.2478Z" fill="#322490" fill-opacity="0.709804"/>
        <path d="M8.94036 40.5731C10.7098 38.8138 13.5708 38.8216 15.3303 40.5911C17.0897 42.3605 17.0819 45.2215 15.3124 46.981L14.3677 47.9253C12.5984 49.6846 9.73731 49.6768 7.97787 47.9073C6.21842 46.138 6.22629 43.277 7.99574 41.5175L8.94036 40.5731Z" fill="#F38060" fill-opacity="0.709804"/>
        <path d="M45.1504 35.4074C46.9199 33.6379 49.7887 33.6379 51.558 35.4074C53.3273 37.1768 53.3273 40.0458 51.558 41.8151L44.7009 48.6726C42.9315 50.4419 40.0625 50.4419 38.2932 48.6726C36.5239 46.9033 36.5239 44.0343 38.2932 42.2649L45.1504 35.4074Z" fill="#DF7786" fill-opacity="0.709804"/>
        <path d="M51.5584 35.4083C53.3277 37.1776 53.3277 40.0466 51.5584 41.816C49.789 43.5853 46.9202 43.5853 45.1507 41.816L38.2932 34.9588C36.5239 33.1895 36.5239 30.3205 38.2932 28.5511C40.0625 26.7818 42.9315 26.7818 44.7009 28.5511L51.5584 35.4083Z" fill="#91D259" fill-opacity="0.709804"/>
        <path d="M44.7009 48.6724C42.9315 50.4417 40.0625 50.4417 38.2932 48.6724C36.5239 46.9029 36.5239 44.034 38.2932 42.2647L53.0442 27.5135C54.8137 25.7442 57.6825 25.7442 59.4519 27.5135C61.2214 29.283 61.2214 32.1519 59.4519 33.9214L44.7009 48.6724Z" fill="#688AD6" fill-opacity="0.709804"/>
        <path d="M25.8862 30.038C26.0979 30.247 26.3781 30.3515 26.6594 30.3515C26.9477 30.3515 27.2304 30.2479 27.4374 30.0407L27.4412 30.037L27.4374 30.0332L27.4617 30.0089C27.6739 29.7967 27.7801 29.5145 27.7801 29.231H27.7877C27.7877 28.9494 27.6799 28.6657 27.4656 28.4495L27.4619 28.4532C27.2492 28.2405 26.9669 28.1344 26.6834 28.1344C26.3962 28.1344 26.1124 28.2397 25.9004 28.4499L25.8774 28.4734L25.8812 28.477L25.8221 28.5337C25.6492 28.737 25.5627 28.9947 25.5627 29.2549C25.5627 29.5412 25.6679 29.8247 25.8771 30.0362L25.8807 30.0324L25.8862 30.038ZM26.6594 34.2412C25.3822 34.2412 24.1034 33.7552 23.1314 32.7832L23.1347 32.7784L23.1307 32.7749C22.1592 31.803 21.6732 30.5272 21.6732 29.2549C21.6732 28.0377 22.1186 26.8167 23.0082 25.8622C23.0467 25.8159 23.0874 25.7707 23.1309 25.7274L23.1349 25.7307L23.1629 25.7029C24.1351 24.7309 25.4109 24.2449 26.6834 24.2449C27.9606 24.2449 29.2396 24.7312 30.2112 25.7029L30.2081 25.7072L30.2119 25.7109C31.1782 26.6777 31.6619 27.954 31.6621 29.231H31.6696C31.6696 30.5082 31.1836 31.7869 30.2119 32.7587L30.1872 32.7832L30.1834 32.7794C29.2074 33.7539 27.9304 34.2412 26.6594 34.2412Z" fill="#C01E86" fill-opacity="0.709804"/>
        <path d="M42.4489 7.54912C44.2084 9.31847 44.2005 12.1795 42.431 13.939C40.6615 15.6984 37.8007 15.6905 36.041 13.9211L30.634 8.4887C28.8747 6.71934 28.8825 3.85829 30.652 2.09884C32.4214 0.339393 35.2824 0.347271 37.0419 2.1167L42.4489 7.54912Z" fill="#3872CA" fill-opacity="0.709804"/>
        <path d="M48.6545 7.73465C46.8852 5.9653 46.8852 3.09637 48.6545 1.32702C50.4238 -0.442339 53.2928 -0.442339 55.0622 1.32702L61.3043 7.56882C63.0737 9.33817 63.0737 12.2071 61.3043 13.9765C59.5348 15.7458 56.666 15.7458 54.8967 13.9765L48.6545 7.73465Z" fill="#4E52BF" fill-opacity="0.709804"/>
        <path d="M61.3023 13.9756C59.533 15.7449 56.664 15.7449 54.8946 13.9756C53.1253 12.2062 53.1253 9.33729 54.8946 7.56794L60.972 1.49132C62.7415 -0.278033 65.6103 -0.278033 67.3796 1.49132C69.149 3.26069 69.149 6.1296 67.3796 7.89897L61.3023 13.9756Z" fill="#DE7A59" fill-opacity="0.709804"/>
        <path d="M54.8948 7.56798C56.6641 5.79863 59.5331 5.79863 61.3025 7.56798C63.0718 9.33733 63.0718 12.2063 61.3025 13.9756L55.8401 19.4386C54.0708 21.2081 51.2018 21.2081 49.4325 19.4386C47.6631 17.6692 47.6631 14.8004 49.4325 13.031L54.8948 7.56798Z" fill="#069A93" fill-opacity="0.709804"/>
        <path d="M7.72217 19.2864C5.96263 21.0558 3.10173 21.0636 1.33222 19.3043C-0.437133 17.5448 -0.445012 14.6838 1.31435 12.9144L12.0867 2.11665C13.8461 0.347289 16.7072 0.33941 18.4767 2.09878C20.246 3.85822 20.2538 6.7192 18.4945 8.48863L7.72217 19.2864Z" fill="#49BA6B" fill-opacity="0.709804"/>
        <path d="M27.7676 17.7873C26.0081 19.5568 23.1471 19.5646 21.3778 17.8051C19.6084 16.0457 19.6004 13.1847 21.3599 11.4153L30.6333 2.11665C32.3928 0.347289 35.2536 0.33941 37.0231 2.09878C38.7924 3.85822 38.8004 6.7192 37.0409 8.48863L27.7676 17.7873Z" fill="#3872CA" fill-opacity="0.709804"/>
        <path d="M27.7704 11.4154C29.5297 13.1847 29.5219 16.0458 27.7524 17.8053C25.983 19.5648 23.122 19.5569 21.3625 17.7874L12.0892 8.4887C10.3297 6.71934 10.3376 3.85829 12.1071 2.09884C13.8765 0.339393 16.7375 0.347271 18.497 2.1167L27.7704 11.4154Z" fill="#5ACBDB" fill-opacity="0.709804"/>
    </g>
    <defs>
        <clipPath id="clip0_1_5949">
            <rect width="70" height="50" fill="white"/>
        </clipPath>
    </defs>
</svg>
