<svg width="28" height="20" viewBox="0 0 28 20" fill="none" xmlns="http://www.w3.org/2000/svg">
    <g clip-path="url(#clip0_1_6932)">
        <path d="M12.5751 16.7267C11.8673 16.0189 11.8673 14.8714 12.5751 14.1636C13.2828 13.4559 14.4304 13.4559 15.1381 14.1636L17.8811 16.9063C18.5889 17.6141 18.5889 18.7617 17.8811 19.4695C17.1734 20.1772 16.0258 20.1772 15.3181 19.4695L12.5751 16.7267Z" fill="#493EB1" fill-opacity="0.709804"/>
        <path d="M15.3179 11.4204C16.0256 10.7127 17.1732 10.7127 17.881 11.4204C18.5888 12.1282 18.5888 13.2758 17.881 13.9835L15.1381 16.7265C14.4304 17.4343 13.2828 17.4343 12.5751 16.7265C11.8673 16.0188 11.8673 14.8712 12.5751 14.1634L15.3179 11.4204Z" fill="#D276C0" fill-opacity="0.709804"/>
        <path d="M6.09893 13.6992C6.80673 12.9914 7.95427 12.9914 8.662 13.6992C9.36973 14.4069 9.36973 15.5545 8.662 16.2623L5.75402 19.1701C5.04628 19.8778 3.89871 19.8778 3.19096 19.1701C2.48322 18.4623 2.48322 17.3148 3.19096 16.607L6.09893 13.6992Z" fill="#322490" fill-opacity="0.709804"/>
        <path d="M3.57611 16.2292C4.28388 15.5255 5.4283 15.5286 6.13208 16.2364C6.83585 16.9442 6.83271 18.0886 6.12493 18.7924L5.74705 19.1701C5.03931 19.8738 3.89489 19.8707 3.19111 19.1629C2.48733 18.4552 2.49048 17.3108 3.19826 16.607L3.57611 16.2292Z" fill="#F38060" fill-opacity="0.709804"/>
        <path d="M18.0601 14.1631C18.7679 13.4553 19.9154 13.4553 20.6232 14.1631C21.3309 14.8708 21.3309 16.0184 20.6232 16.7261L17.8803 19.4691C17.1726 20.1769 16.025 20.1769 15.3172 19.4691C14.6095 18.7614 14.6095 17.6138 15.3172 16.9061L18.0601 14.1631Z" fill="#DF7786" fill-opacity="0.709804"/>
        <path d="M20.6233 14.1633C21.331 14.871 21.331 16.0186 20.6233 16.7264C19.9156 17.4341 18.768 17.4341 18.0602 16.7264L15.3172 13.9835C14.6095 13.2758 14.6095 12.1282 15.3172 11.4204C16.025 10.7127 17.1726 10.7127 17.8803 11.4204L20.6233 14.1633Z" fill="#91D259" fill-opacity="0.709804"/>
        <path d="M17.8803 19.4689C17.1726 20.1767 16.025 20.1767 15.3172 19.4689C14.6095 18.7611 14.6095 17.6136 15.3172 16.9059L21.2176 11.0054C21.9254 10.2977 23.073 10.2977 23.7807 11.0054C24.4885 11.7132 24.4885 12.8607 23.7807 13.5685L17.8803 19.4689Z" fill="#688AD6" fill-opacity="0.709804"/>
        <path d="M10.3545 12.0151C10.4391 12.0987 10.5512 12.1405 10.6637 12.1405C10.7791 12.1405 10.8921 12.0991 10.9749 12.0162L10.9765 12.0147L10.9749 12.0132L10.9847 12.0035C11.0695 11.9186 11.112 11.8057 11.112 11.6923H11.1151C11.1151 11.5797 11.0719 11.4662 10.9862 11.3797L10.9847 11.3812C10.8997 11.2961 10.7867 11.2537 10.6733 11.2537C10.5585 11.2537 10.4449 11.2958 10.3601 11.3799L10.3509 11.3893L10.3525 11.3907L10.3288 11.4134C10.2597 11.4947 10.2251 11.5978 10.2251 11.7019C10.2251 11.8164 10.2671 11.9298 10.3508 12.0144L10.3523 12.0129L10.3545 12.0151ZM10.6637 13.6964C10.1529 13.6964 9.64132 13.502 9.25252 13.1132L9.25385 13.1113L9.25225 13.1099C8.86365 12.7211 8.66925 12.2108 8.66925 11.7019C8.66925 11.215 8.84738 10.7266 9.20325 10.3448C9.21865 10.3263 9.23492 10.3082 9.25232 10.2909L9.25392 10.2922L9.26512 10.2811C9.65398 9.89228 10.1643 9.69788 10.6733 9.69788C11.1842 9.69788 11.6958 9.89241 12.0845 10.2811L12.0832 10.2828L12.0847 10.2843C12.4713 10.671 12.6647 11.1815 12.6648 11.6923H12.6678C12.6678 12.2032 12.4734 12.7147 12.0847 13.1034L12.0749 13.1132L12.0733 13.1117C11.6829 13.5015 11.1721 13.6964 10.6637 13.6964Z" fill="#C01E86" fill-opacity="0.709804"/>
        <path d="M16.9795 3.01972C17.6833 3.72746 17.6802 4.87188 16.9724 5.57566C16.2646 6.27944 15.1202 6.27629 14.4164 5.56851L12.2536 3.39555C11.5498 2.68781 11.553 1.54339 12.2608 0.839608C12.9685 0.13583 14.1129 0.138982 14.8167 0.846754L16.9795 3.01972Z" fill="#3872CA" fill-opacity="0.709804"/>
        <path d="M19.4618 3.09386C18.7541 2.38612 18.7541 1.23855 19.4618 0.530806C20.1696 -0.176936 21.3172 -0.176936 22.0249 0.530806L24.5218 3.02753C25.2295 3.73527 25.2295 4.88284 24.5218 5.59058C23.814 6.29833 22.6664 6.29833 21.9587 5.59058L19.4618 3.09386Z" fill="#4E52BF" fill-opacity="0.709804"/>
        <path d="M24.5209 5.5903C23.8132 6.29805 22.6656 6.29805 21.9579 5.5903C21.2501 4.88256 21.2501 3.73499 21.9579 3.02725L24.3888 0.596603C25.0966 -0.11114 26.2441 -0.11114 26.9519 0.596603C27.6596 1.30435 27.6596 2.45191 26.9519 3.15966L24.5209 5.5903Z" fill="#DE7A59" fill-opacity="0.709804"/>
        <path d="M21.9579 3.02727C22.6657 2.31952 23.8133 2.31952 24.521 3.02727C25.2287 3.73501 25.2287 4.88258 24.521 5.59032L22.3361 7.77551C21.6283 8.48331 20.4807 8.48331 19.773 7.77551C19.0653 7.06777 19.0653 5.92022 19.773 5.21248L21.9579 3.02727Z" fill="#069A93" fill-opacity="0.709804"/>
        <path d="M3.08887 7.71464C2.38505 8.42237 1.24069 8.42551 0.532889 7.72177C-0.174853 7.01797 -0.178005 5.8736 0.525742 5.16583L4.83467 0.846733C5.53845 0.138989 6.68287 0.135837 7.39067 0.839587C8.0984 1.54336 8.10153 2.68775 7.3978 3.39553L3.08887 7.71464Z" fill="#49BA6B" fill-opacity="0.709804"/>
        <path d="M11.1071 7.11497C10.4033 7.82277 9.25888 7.82591 8.55115 7.12211C7.84342 6.41836 7.84021 5.27397 8.54401 4.56619L12.2533 0.846733C12.9571 0.138989 14.1015 0.135837 14.8093 0.839587C15.517 1.54336 15.5202 2.68775 14.8164 3.39553L11.1071 7.11497Z" fill="#3872CA" fill-opacity="0.709804"/>
        <path d="M11.1081 4.56622C11.8118 5.27396 11.8087 6.41839 11.1009 7.12217C10.3932 7.82597 9.24878 7.82284 8.54498 7.11504L4.83564 3.39555C4.13186 2.68781 4.13502 1.54339 4.84279 0.839608C5.55057 0.13583 6.69498 0.138982 7.39878 0.846754L11.1081 4.56622Z" fill="#5ACBDB" fill-opacity="0.709804"/>
    </g>
    <defs>
        <clipPath id="clip0_1_6932">
            <rect width="28" height="20" fill="white"/>
        </clipPath>
    </defs>
</svg>
