<svg width="40" height="40" viewBox="0 0 40 40" fill="none" xmlns="http://www.w3.org/2000/svg">
    <g clip-path="url(#clip0_382_23309)">
        <path fill-rule="evenodd" clip-rule="evenodd" d="M30 40H10C7.34787 39.9999 4.8044 38.9463 2.92906 37.0709C1.05372 35.1956 0.000116023 32.6521 0 30L0 10C0.000116023 7.34787 1.05372 4.8044 2.92906 2.92906C4.8044 1.05372 7.34787 0.000116023 10 0L30 0C32.6522 0 35.1957 1.05357 37.0711 2.92893C38.9464 4.8043 40 7.34784 40 10V30C40 32.6522 38.9464 35.1957 37.0711 37.0711C35.1957 38.9464 32.6522 40 30 40Z" fill="#00EFB6"/>
        <path fill-rule="evenodd" clip-rule="evenodd" d="M18.75 11.25H30C31.442 11.2499 32.829 10.696 33.8744 9.70276C34.9198 8.70948 35.5439 7.35266 35.6177 5.9125C35.6915 4.47235 35.2094 3.05885 34.271 1.96391C33.3326 0.868981 32.0095 0.176239 30.575 0.02875C30.3838 0.018125 30.1944 0 30 0H10C7.34787 0.000116023 4.8044 1.05372 2.92906 2.92906C1.05372 4.8044 0.000116023 7.34787 0 10L0 30C0.000116027 25.0272 1.97559 20.2582 5.49188 16.7419C9.00816 13.2256 13.7772 11.2501 18.75 11.25Z" fill="#14FFC7"/>
        <path fill-rule="evenodd" clip-rule="evenodd" d="M30 20C28.0222 20 26.0888 20.5865 24.4443 21.6853C22.7998 22.7841 21.5181 24.3459 20.7612 26.1732C20.0043 28.0004 19.8063 30.0111 20.1922 31.9509C20.578 33.8907 21.5304 35.6725 22.9289 37.0711C24.3275 38.4696 26.1093 39.422 28.0491 39.8079C29.9889 40.1937 31.9996 39.9957 33.8268 39.2388C35.6541 38.4819 37.2159 37.2002 38.3147 35.5557C39.4135 33.9112 40 31.9778 40 30V10C40 12.6522 38.9464 15.1957 37.0711 17.0711C35.1957 18.9464 32.6522 20 30 20Z" fill="#00DCA7"/>
        <path d="M30.16 24.0506C30.1098 24.0506 30.0588 24.0465 30.0078 24.0375C29.5258 23.9539 29.2031 23.4957 29.2867 23.0139C29.4586 22.0219 29.5511 21.0079 29.5616 19.9998C29.5248 16.4421 28.4874 12.9966 26.5616 10.0346C26.2949 9.62471 26.4113 9.07617 26.8212 8.80968C27.2312 8.54319 27.7796 8.6594 28.0462 9.06942C30.1574 12.3164 31.2937 16.0931 31.3325 19.991V20.0087C31.3214 21.1149 31.2202 22.2277 31.0314 23.3165C30.9567 23.7471 30.5826 24.0506 30.16 24.0506ZM28.0462 30.9302C28.731 29.8771 29.3206 28.7535 29.7987 27.5909C29.9848 27.1387 29.7688 26.6213 29.3166 26.4354C28.8644 26.2493 28.3469 26.4651 28.161 26.9173C27.7247 27.9784 27.1866 29.0038 26.5616 29.9649C26.2949 30.3749 26.4113 30.9233 26.8212 31.19C26.9702 31.2868 27.1374 31.3332 27.3029 31.3332C27.5926 31.3332 27.8766 31.1912 28.0462 30.9302ZM23.7443 28.6226C25.4533 26.072 26.3781 23.0943 26.4187 20.0114C26.4189 20.0036 26.4189 19.9959 26.4187 19.9881C26.3781 16.9052 25.4533 13.9275 23.7443 11.377C23.4721 10.9708 22.922 10.862 22.516 11.1342C22.1096 11.4064 22.001 11.9564 22.2732 12.3626C23.7886 14.6244 24.6097 17.2649 24.6479 19.9998C24.6097 22.7346 23.7886 25.3751 22.2732 27.6369C22.001 28.0431 22.1098 28.593 22.516 28.8652C22.6673 28.9668 22.8385 29.0152 23.008 29.0152C23.2933 29.0152 23.5735 28.8775 23.7443 28.6226ZM19.8452 24.9274C20.3085 24.7946 20.6857 24.4451 20.8541 23.9929C21.3419 22.6829 21.5759 21.3337 21.5495 19.9824C21.5071 17.8261 20.8188 15.7318 19.5592 13.9262C19.2794 13.5254 18.7274 13.427 18.3263 13.7068C17.9253 13.9866 17.8271 14.5386 18.1069 14.9396C19.1654 16.4568 19.7435 18.2126 19.779 20.0171C19.799 21.0369 19.6401 22.0583 19.3065 23.0582L11.1847 16.8135C10.8311 16.5415 10.3666 16.462 9.9422 16.6003C9.51869 16.7387 9.19133 17.0762 9.06647 17.5037C8.8842 18.1271 8.66699 19.1201 8.66699 20.3096C8.66699 22.4053 9.86525 24.278 9.91609 24.3567C10.1817 24.7664 10.7282 24.8828 11.1384 24.6184C11.5487 24.3538 11.6669 23.8061 11.4031 23.3952C11.3936 23.3802 10.4378 21.8723 10.4378 20.3096C10.4378 19.6562 10.5172 19.0753 10.6144 18.6088L18.4994 24.6713C18.7703 24.8793 19.0917 24.9876 19.4212 24.9876C19.5623 24.9876 19.7048 24.9679 19.8452 24.9274Z" fill="white"/>
    </g>
    <defs>
        <clipPath id="clip0_382_23309">
            <rect width="40" height="40" fill="white"/>
        </clipPath>
    </defs>
</svg>
