<svg width="36" height="12" viewBox="0 0 36 12" fill="none" xmlns="http://www.w3.org/2000/svg">
    <path fill-rule="evenodd" clip-rule="evenodd" d="M35.4969 6.00117V6.54941L35.495 6.77902V6.9524V7.1L35.493 7.22886L35.4911 7.34601L35.4892 7.45378L35.4872 7.55453L35.4853 7.64824L35.4833 7.73727L35.4795 7.82162L35.4756 7.90362L35.4717 7.98094L35.4698 8.05357L35.4659 8.1262L35.4601 8.19649L35.4563 8.26209L35.4505 8.32769L35.4466 8.39095L35.4408 8.45186L35.435 8.51044L35.4292 8.56901L35.4234 8.62524L35.4156 8.68147L35.4098 8.73536L35.4021 8.78924L35.3943 8.84079L35.3866 8.89233L35.3788 8.94153L35.3711 8.99073L35.3614 9.03759L35.3537 9.08445L35.344 9.13131L35.3343 9.17583L35.3247 9.22034L35.315 9.26486L35.3053 9.30703L35.2937 9.3492L35.284 9.39137L35.2724 9.4312L35.2608 9.47338L35.2492 9.5132L35.2376 9.55069L35.226 9.59052L35.2124 9.62801L35.1989 9.66549L35.1873 9.70064L35.1737 9.73812L35.1602 9.77327L35.1447 9.80841L35.1311 9.84356L35.1157 9.87636L35.1021 9.9115L35.0866 9.9443L35.0712 9.9771L35.0537 10.0076L35.0383 10.0404L35.0228 10.0708L35.0054 10.1036L34.9879 10.1341L34.9705 10.1622L34.9531 10.1927L34.9338 10.2208L34.9163 10.2512L34.897 10.2793L34.8796 10.3075L34.8602 10.3332L34.8389 10.3613L34.8196 10.3871L34.8002 10.4152L34.7789 10.441L34.7577 10.4668L34.7364 10.4925L34.7151 10.516L34.6938 10.5417L34.6706 10.5652L34.6474 10.5886L34.6261 10.612L34.6028 10.6355L34.5777 10.6589L34.5545 10.68L34.5293 10.7034L34.5041 10.7245L34.479 10.7456L34.4538 10.7667L34.4287 10.7878L34.4016 10.8088L34.3764 10.8276L34.3493 10.8487L34.3222 10.8674L34.2932 10.8862L34.2661 10.9049L34.2371 10.9236L34.2081 10.9424L34.179 10.9611L34.1481 10.9775L34.119 10.9963L34.0881 11.0127L34.0571 11.0291L34.0242 11.0455L33.9933 11.0619L33.9604 11.0759L33.9275 11.0923L33.8946 11.1087L33.8597 11.1228L33.8249 11.1368L33.7901 11.1509L33.7552 11.165L33.7204 11.179L33.6836 11.1931L33.6469 11.2048L33.6082 11.2188L33.5695 11.2306L33.5308 11.2423L33.492 11.254L33.4514 11.2657L33.4108 11.2774L33.3701 11.2891L33.3295 11.2985L33.285 11.3102L33.2424 11.3196L33.1979 11.329L33.1534 11.3407L33.1069 11.3477L33.0605 11.3571L33.0141 11.3665L32.9657 11.3758L32.9173 11.3829L32.867 11.3922L32.8147 11.3993L32.7625 11.4063L32.7102 11.4133L32.6541 11.4203L32.598 11.4274L32.5419 11.4321L32.4838 11.4391L32.4238 11.4438L32.3619 11.4508L32.298 11.4555L32.2322 11.4602L32.1645 11.4649L32.0948 11.4695L32.0232 11.4719L31.9478 11.4766L31.8704 11.4789L31.7891 11.4836L31.7039 11.4859L31.6149 11.4883L31.5201 11.4906L31.4195 11.493L31.3111 11.4953L31.195 11.4977H31.0653H30.9183L30.7441 11.5H30.5196H27.3711H26.6822H26.4461H26.2661L26.1151 11.4977H25.9836L25.8636 11.4953L25.7552 11.493L25.6526 11.4906L25.5578 11.4883L25.4669 11.4859L25.3817 11.4836L25.3004 11.4813L25.2211 11.4766L25.1476 11.4742L25.074 11.4695L25.0044 11.4649L24.9366 11.4602L24.8708 11.4555L24.807 11.4508L24.745 11.4461L24.685 11.4391L24.6251 11.4344L24.5689 11.4274L24.5128 11.4203L24.4567 11.4133L24.4044 11.4063L24.3522 11.3993L24.2999 11.3922L24.2496 11.3852L24.2013 11.3758L24.1529 11.3688L24.1045 11.3594L24.0581 11.3501L24.0116 11.3407L23.9671 11.3313L23.9226 11.3219L23.88 11.3126L23.8374 11.3009L23.7949 11.2915L23.7523 11.2798L23.7117 11.2681L23.673 11.2563L23.6323 11.2446L23.5936 11.2329L23.5549 11.2212L23.5181 11.2071L23.4814 11.1954L23.4446 11.1814L23.4078 11.1673L23.373 11.1532L23.3382 11.1392L23.3033 11.1251L23.2704 11.1111L23.2356 11.0947L23.2027 11.0806L23.1698 11.0642L23.1388 11.0478L23.1059 11.0314L23.075 11.015L23.044 10.9986L23.015 10.9799L22.984 10.9635L22.955 10.9447L22.926 10.9283L22.8969 10.9096L22.8699 10.8908L22.8408 10.8721L22.8137 10.851L22.7866 10.8323L22.7595 10.8112L22.7344 10.7924L22.7073 10.7714L22.6821 10.7503L22.657 10.7292L22.6318 10.7058L22.6086 10.6847L22.5834 10.6612L22.5602 10.6401L22.537 10.6167L22.5138 10.5933L22.4906 10.5699L22.4693 10.5441L22.446 10.5207L22.4248 10.4949L22.4035 10.4715L22.3822 10.4457L22.3628 10.4199L22.3415 10.3918L22.3222 10.366L22.3028 10.3379L22.2835 10.3121L22.2641 10.284L22.2448 10.2559L22.2254 10.2255L22.208 10.1973L22.1906 10.1669L22.1732 10.1388L22.1558 10.1083L22.1384 10.0755L22.1229 10.045L22.1055 10.0146L22.09 9.98179L22.0745 9.94899L22.059 9.91619L22.0435 9.88339L22.03 9.84824L22.0145 9.8131L22.001 9.77796L21.9874 9.74281L21.9739 9.70767L21.9603 9.67018L21.9468 9.63269L21.9352 9.59521L21.9235 9.55772L21.91 9.51789L21.8984 9.47806L21.8868 9.43823L21.8771 9.3984L21.8655 9.35623L21.8558 9.31406L21.8442 9.27188L21.8345 9.22737L21.8249 9.18285L21.8152 9.13834L21.8055 9.09148L21.7978 9.04462L21.7881 8.99776L21.7803 8.94856L21.7726 8.89936L21.7649 8.84782L21.7571 8.79627L21.7494 8.74473L21.7436 8.69084L21.7358 8.63461L21.73 8.57838L21.7242 8.51981L21.7184 8.46124L21.7126 8.40032L21.7087 8.33706L21.7029 8.2738L21.6991 8.20586L21.6933 8.13791L21.6894 8.06528L21.6855 7.99265L21.6817 7.91534L21.6797 7.83568L21.6758 7.75133L21.6739 7.66464L21.672 7.57093L21.67 7.47018L21.6681 7.36475L21.6662 7.24995L21.6642 7.12109V6.97817L21.6623 6.80948V6.59159V6.21906V5.4951V5.25378V5.07338L21.6642 4.92343L21.6662 4.78988V4.67039L21.6681 4.56262L21.67 4.46187L21.672 4.36581L21.6758 4.27678L21.6778 4.1901L21.6817 4.11044L21.6855 4.03312L21.6894 3.95815L21.6933 3.88552L21.6971 3.81523L21.701 3.74963L21.7068 3.68403L21.7107 3.62077L21.7165 3.55751L21.7223 3.49893L21.7281 3.44036L21.7339 3.38413L21.7416 3.3279L21.7474 3.27401L21.7552 3.22013L21.7629 3.16858L21.7707 3.11704L21.7784 3.06784L21.7862 3.01864L21.7939 2.96944L21.8036 2.92258L21.8132 2.87572L21.821 2.8312L21.8307 2.78669L21.8423 2.74217L21.8519 2.7L21.8616 2.65783L21.8732 2.61565L21.8848 2.57583L21.8945 2.53365L21.9061 2.49382L21.9197 2.45634L21.9313 2.41651L21.9429 2.37902L21.9564 2.34153L21.97 2.30405L21.9835 2.2689L21.9971 2.23376L22.0106 2.19862L22.0242 2.16347L22.0397 2.12833L22.0551 2.09553L22.0706 2.06273L22.0861 2.02993L22.1016 1.99712L22.1171 1.96432L22.1345 1.93387L22.15 1.90341L22.1674 1.87295L22.1848 1.84249L22.2022 1.81203L22.2196 1.78392L22.239 1.7558L22.2583 1.72535L22.2757 1.69723L22.2951 1.67146L22.3145 1.64334L22.3357 1.61757L22.3551 1.58946L22.3764 1.56368L22.3977 1.53791L22.419 1.51214L22.4402 1.48871L22.4615 1.46294L22.4848 1.43951L22.506 1.41608L22.5293 1.39265L22.5525 1.36922L22.5757 1.34579L22.6009 1.32236L22.6241 1.30128L22.6492 1.28019L22.6744 1.25676L22.6996 1.23568L22.7247 1.21693L22.7518 1.19585L22.7789 1.17476L22.806 1.15602L22.8331 1.13493L22.8602 1.11619L22.8892 1.09744L22.9163 1.0787L22.9453 1.05996L22.9743 1.04356L23.0053 1.02481L23.0343 1.00841L23.0653 0.992013L23.0963 0.973269L23.1292 0.956869L23.1601 0.942811L23.193 0.926411L23.2259 0.910011L23.2588 0.895953L23.2917 0.879553L23.3266 0.865495L23.3614 0.851438L23.3962 0.83738L23.433 0.823323L23.4698 0.809265L23.5065 0.797551L23.5433 0.783493L23.582 0.771778L23.6207 0.760064L23.6594 0.748349L23.7 0.736635L23.7407 0.72492L23.7813 0.713206L23.8239 0.703834L23.8665 0.692119L23.909 0.682748L23.9536 0.671033L23.9981 0.661661L24.0426 0.65229L24.089 0.642918L24.1374 0.635889L24.1838 0.626518L24.2342 0.619489L24.2845 0.610117L24.3348 0.603088L24.387 0.59606L24.4393 0.589031L24.4954 0.582002L24.5496 0.574973L24.6076 0.567945L24.6657 0.563259L24.7257 0.55623L24.7876 0.551544L24.8495 0.546858L24.9153 0.542173L24.9831 0.537487L25.0508 0.532801L25.1224 0.528115L25.1979 0.525772L25.2753 0.521086L25.3546 0.518743L25.4398 0.514058L25.5288 0.511715L25.6217 0.509372L25.7223 0.507029H25.8287L25.9448 0.504686L26.0726 0.502343H26.2158H26.3841L26.597 0.5H26.9434H30.4267H30.6802L30.866 0.502343H31.0208L31.1544 0.504686H31.2763L31.3866 0.507029L31.4891 0.509372L31.5859 0.511715L31.6768 0.514058L31.762 0.5164L31.8452 0.518743L31.9246 0.523429L32 0.525772L32.0736 0.530458L32.1432 0.535144L32.211 0.53983L32.2768 0.544515L32.3406 0.549201L32.4045 0.553887L32.4645 0.560916L32.5225 0.565602L32.5806 0.57263L32.6367 0.577316L32.6928 0.584345L32.7451 0.591374L32.7993 0.598403L32.8496 0.607774L32.8999 0.614803L32.9502 0.621832L32.9986 0.631203L33.047 0.640575L33.0934 0.649947L33.1398 0.656976L33.1844 0.66869L33.2289 0.678062L33.2714 0.687433L33.3159 0.696805L33.3566 0.70852L33.3992 0.720234L33.4398 0.729606L33.4804 0.741321L33.5191 0.753035L33.5578 0.767093L33.5965 0.778807L33.6333 0.790522L33.672 0.804579L33.7088 0.816294L33.7436 0.830351L33.7804 0.844409L33.8152 0.858466L33.8501 0.872524L33.883 0.888924L33.9178 0.902982L33.9507 0.919382L33.9836 0.93344L34.0145 0.94984L34.0474 0.966241L34.0784 0.982641L34.1094 0.999041L34.1384 1.01778L34.1694 1.03419L34.1984 1.05293L34.2274 1.06933L34.2564 1.08807L34.2855 1.10682L34.3126 1.12556L34.3397 1.14665L34.3667 1.16539L34.3938 1.18647L34.4209 1.20522L34.4461 1.2263L34.4712 1.24739L34.4964 1.26848L34.5216 1.28956L34.5467 1.31299L34.5699 1.33408L34.5951 1.35751L34.6183 1.38094L34.6415 1.40437L34.6628 1.4278L34.6861 1.45122L34.7073 1.477L34.7306 1.50043L34.7519 1.5262L34.7731 1.55197L34.7925 1.57774L34.8138 1.60351L34.8331 1.63163L34.8525 1.6574L34.8718 1.68552L34.8912 1.71363L34.9105 1.74175L34.9299 1.76986L34.9473 1.79798L34.9647 1.82843L34.9821 1.85889L34.9995 1.88935L35.017 1.91981L35.0325 1.95027L35.0499 1.98072L35.0653 2.01353L35.0808 2.04633L35.0963 2.07913L35.1118 2.11193L35.1253 2.14707L35.1408 2.18222L35.1544 2.21502L35.1679 2.2525L35.1815 2.28765L35.195 2.32513L35.2086 2.36028L35.2221 2.39776L35.2337 2.43759L35.2453 2.47508L35.2569 2.51491L35.2685 2.55474L35.2802 2.59691L35.2918 2.63674L35.3014 2.67891L35.3131 2.72343L35.3227 2.7656L35.3324 2.81012L35.3421 2.85463L35.3498 2.90149L35.3595 2.94835L35.3672 2.99521L35.3769 3.04441L35.3847 3.09361L35.3924 3.14281L35.4001 3.19436L35.4079 3.24824L35.4137 3.30213L35.4214 3.35602L35.4272 3.41225L35.433 3.47082L35.4388 3.52939L35.4446 3.59031L35.4505 3.65357L35.4543 3.71683L35.4601 3.78243L35.464 3.85272L35.4679 3.923L35.4717 3.99563L35.4756 4.07295L35.4775 4.15261L35.4814 4.23461L35.4853 4.32364L35.4872 4.41502L35.4892 4.51342L35.4911 4.61885L35.493 4.73131V4.85783L35.495 4.9984V5.16241L35.4969 5.36858V5.68956V6.00117ZM27.3575 9.02588H29.5288C31.584 9.02588 32.7838 7.73024 32.7838 5.98477C32.7838 4.22055 31.6014 2.97646 29.5617 2.97646H27.3575V9.02588ZM26.2738 2.97646H24.6463V9.02588H26.2738V2.97646ZM6.45953 6.00117C6.45953 7.66933 5.26553 9.16411 3.47355 9.16411C1.67964 9.16411 0.503052 7.68807 0.503052 6.00117C0.503052 4.33301 1.69706 2.83823 3.48903 2.83823C5.28294 2.83823 6.45953 4.31661 6.45953 6.00117ZM0.959754 6.00117C0.959754 7.51235 2.02604 8.7541 3.48903 8.7541C4.95396 8.7541 6.00283 7.5311 6.00283 6.00117C6.00283 4.48999 4.93655 3.25059 3.47355 3.25059C2.01056 3.25059 0.959754 4.47359 0.959754 6.00117ZM8.51856 9.02588H8.09863V2.97646H8.51082L12.5631 8.241V2.97646H12.983V9.02588H12.656L8.51856 3.65122V9.02588ZM18.9492 9.02588H14.7286V2.97646H18.9066V3.39116H15.1659V5.76688H18.5292V6.18158H15.1659V8.61118H18.9492V9.02588ZM29.1534 7.96688C29.0411 7.96688 28.9328 7.96454 28.8263 7.96454H28.4451C28.4374 7.74196 28.4741 7.43269 28.5419 7.18903C28.596 6.98754 28.8418 6.84228 29.0644 6.72045L29.0818 6.71108C29.1514 6.67359 29.2772 6.6033 29.3953 6.55644C29.4082 6.55176 29.4211 6.54707 29.434 6.54239C29.5365 6.5049 29.6546 6.46038 29.6662 6.33621C29.6759 6.24249 29.6294 6.18392 29.5733 6.11363C29.5591 6.09645 29.5449 6.07849 29.5307 6.05974C29.3662 5.83717 29.2114 5.53493 29.2405 5.12258C29.2676 4.71959 29.5211 4.40564 29.9487 4.35879C29.9978 4.35254 30.0455 4.35019 30.0919 4.35176C30.1384 4.35019 30.1868 4.35254 30.2371 4.35879C30.6628 4.40564 30.9183 4.71959 30.9454 5.12258C30.9724 5.53493 30.8176 5.83717 30.6531 6.05974C30.6389 6.07849 30.6254 6.09645 30.6125 6.11363C30.5564 6.18392 30.508 6.24249 30.5177 6.33621C30.5293 6.46038 30.6493 6.5049 30.7499 6.54239C30.7641 6.54707 30.7776 6.55176 30.7905 6.55644C30.9066 6.6033 31.0344 6.67359 31.104 6.71108L31.1195 6.72045C31.2705 6.80245 31.4311 6.89617 31.5356 7.00863C31.4911 7.1 31.4098 7.21715 31.3633 7.27338C31.2492 7.40927 31.135 7.5147 31.0208 7.59904H31.0228C30.9853 7.62559 30.9466 7.65059 30.9066 7.67401C30.748 7.77476 30.5931 7.83333 30.4499 7.87316C30.4267 7.87941 30.4041 7.88566 30.3822 7.89191C30.1964 7.93876 30.0145 7.95985 29.8539 7.96454C29.6198 7.97157 29.3817 7.96922 29.1534 7.96688Z" fill="#6949DE"/>
</svg>
