<svg width="40" height="40" viewBox="0 0 40 40" fill="none" xmlns="http://www.w3.org/2000/svg">
    <g clip-path="url(#clip0_382_22938)">
        <path fill-rule="evenodd" clip-rule="evenodd" d="M40 10V30C39.9999 32.6521 38.9463 35.1956 37.0709 37.0709C35.1956 38.9463 32.6521 39.9999 30 40H10C7.34787 39.9999 4.8044 38.9463 2.92906 37.0709C1.05372 35.1956 0.000116023 32.6521 0 30L0 10C0 7.34784 1.05357 4.8043 2.92893 2.92893C4.8043 1.05357 7.34784 0 10 0H30C32.6522 0 35.1957 1.05357 37.0711 2.92893C38.9464 4.8043 40 7.34784 40 10Z" fill="#731EFC"/>
        <path fill-rule="evenodd" clip-rule="evenodd" d="M11.25 21.25V10C11.2499 8.55795 10.696 7.17101 9.70276 6.1256C8.70948 5.08018 7.35266 4.45614 5.9125 4.38234C4.47235 4.30855 3.05885 4.79063 1.96391 5.72904C0.868981 6.66745 0.176239 7.99051 0.02875 9.425C0.018125 9.61625 0 9.80562 0 10L0 30C0.000116023 32.6521 1.05372 35.1956 2.92906 37.0709C4.8044 38.9463 7.34787 39.9999 10 40H30C25.0272 39.9999 20.2582 38.0244 16.7419 34.5081C13.2256 30.9918 11.2501 26.2228 11.25 21.25Z" fill="#8236FF"/>
        <path fill-rule="evenodd" clip-rule="evenodd" d="M20 9.99999C20 11.9778 20.5865 13.9112 21.6853 15.5557C22.7841 17.2002 24.3459 18.4819 26.1732 19.2388C28.0004 19.9957 30.0111 20.1937 31.9509 19.8078C33.8907 19.422 35.6725 18.4696 37.0711 17.0711C38.4696 15.6725 39.422 13.8907 39.8079 11.9509C40.1937 10.0111 39.9957 8.00042 39.2388 6.17316C38.4819 4.3459 37.2002 2.78411 35.5557 1.6853C33.9112 0.586485 31.9778 -4.76837e-06 30 -4.76837e-06H10C12.6522 -4.76837e-06 15.1957 1.05356 17.0711 2.92893C18.9464 4.80429 20 7.34783 20 9.99999Z" fill="#6100FF"/>
        <path fill-rule="evenodd" clip-rule="evenodd" d="M20.1549 4.66659H20.6354L20.8366 4.66829H20.9885H21.1179L21.2308 4.66998L21.3334 4.67167L21.4279 4.67337L21.5162 4.67507L21.5983 4.67676L21.6763 4.67846L21.7502 4.68185L21.8221 4.68524L21.8899 4.68863L21.9535 4.69033L22.0172 4.69372L22.0788 4.69881L22.1362 4.7022L22.1937 4.70729L22.2492 4.71068L22.3026 4.71577L22.3539 4.72086L22.4052 4.72594L22.4545 4.73103L22.5038 4.73782L22.551 4.7429L22.5982 4.74969L22.6434 4.75647L22.6886 4.76325L22.7317 4.77004L22.7748 4.77682L22.8159 4.7853L22.8569 4.79208L22.898 4.80056L22.937 4.80904L22.976 4.81752L23.015 4.826L23.052 4.83448L23.0889 4.84465L23.1259 4.85313L23.1608 4.86331L23.1978 4.87349L23.2327 4.88366L23.2655 4.89384L23.3004 4.90401L23.3333 4.91588L23.3661 4.92775L23.3969 4.93793L23.4298 4.9498L23.4606 4.96167L23.4914 4.97524L23.5222 4.98711L23.5509 5.00068L23.5817 5.01255L23.6104 5.02612L23.6392 5.03968L23.6659 5.05494L23.6946 5.06851L23.7213 5.08208L23.7501 5.09734L23.7768 5.11261L23.8014 5.12787L23.8281 5.14313L23.8527 5.16009L23.8794 5.17535L23.9041 5.19231L23.9287 5.20757L23.9513 5.22453L23.9759 5.24319L23.9985 5.26015L24.0231 5.27711L24.0457 5.29576L24.0683 5.31442L24.0909 5.33307L24.1114 5.35172L24.134 5.37038L24.1545 5.39073L24.1751 5.41108L24.1956 5.42974L24.2161 5.45009L24.2367 5.47213L24.2552 5.49248L24.2757 5.51453L24.2942 5.53658L24.3126 5.55862L24.3311 5.58067L24.3496 5.60272L24.3681 5.62646L24.3845 5.6485L24.403 5.67225L24.4194 5.69599L24.4358 5.72143L24.4523 5.74517L24.4687 5.77061L24.4851 5.79605L24.5015 5.82149L24.5159 5.84862L24.5323 5.87406L24.5467 5.90119L24.5611 5.92833L24.5755 5.95716L24.5898 5.98429L24.6021 6.01312L24.6165 6.04195L24.6309 6.07078L24.6432 6.10131L24.6555 6.13183L24.6678 6.16236L24.6802 6.19288L24.6925 6.22341L24.7048 6.25563L24.7151 6.28785L24.7274 6.32177L24.7377 6.35569L24.7479 6.38961L24.7582 6.42352L24.7685 6.45914L24.7787 6.49475L24.789 6.53036L24.7972 6.56598L24.8075 6.60498L24.8157 6.64229L24.8239 6.6813L24.8342 6.7203L24.8403 6.761L24.8485 6.8017L24.8567 6.84241L24.865 6.8848L24.8711 6.9272L24.8793 6.97129L24.8855 7.01708L24.8916 7.06287L24.8978 7.10866L24.904 7.15784L24.9101 7.20702L24.9142 7.2562L24.9204 7.30708L24.9245 7.35965L24.9307 7.41392L24.9348 7.46988L24.9389 7.52754L24.943 7.5869L24.9471 7.64795L24.9491 7.7107L24.9532 7.77684L24.9553 7.84467L24.9594 7.9159L24.9615 7.99052L24.9635 8.06853L24.9656 8.15163L24.9676 8.23981L24.9697 8.33478L24.9717 8.43654V8.55016V8.67905L24.9738 8.83168V9.0284V11.7876V12.3913V12.5982V12.756L24.9717 12.8882V13.0036L24.9697 13.1087L24.9676 13.2037L24.9656 13.2935L24.9635 13.3766L24.9615 13.4564L24.9594 13.531L24.9573 13.6022L24.9532 13.6717L24.9512 13.7362L24.9471 13.8006L24.943 13.8617L24.9389 13.921L24.9348 13.9787L24.9307 14.0346L24.9266 14.0889L24.9204 14.1415L24.9163 14.1941L24.9101 14.2432L24.904 14.2924L24.8978 14.3416L24.8916 14.3874L24.8855 14.4332L24.8793 14.479L24.8732 14.5231L24.865 14.5655L24.8588 14.6079L24.8506 14.6503L24.8424 14.691L24.8342 14.7317L24.8259 14.7707L24.8177 14.8097L24.8095 14.847L24.7993 14.8843L24.791 14.9216L24.7808 14.9589L24.7705 14.9945L24.7602 15.0284L24.75 15.0641L24.7397 15.098L24.7294 15.1319L24.7171 15.1641L24.7069 15.1963L24.6945 15.2286L24.6822 15.2608L24.6699 15.2913L24.6576 15.3218L24.6453 15.3524L24.6329 15.3812L24.6186 15.4117L24.6063 15.4405L24.5919 15.4694L24.5775 15.4965L24.5631 15.5253L24.5488 15.5525L24.5344 15.5796L24.518 15.605L24.5036 15.6322L24.4872 15.6576L24.4728 15.683L24.4564 15.7085L24.4399 15.7322L24.4235 15.7577L24.405 15.7814L24.3886 15.8052L24.3701 15.8289L24.3537 15.8509L24.3352 15.8747L24.3167 15.8967L24.2983 15.9188L24.2777 15.9408L24.2593 15.9612L24.2387 15.9832L24.2202 16.0036L24.1997 16.0239L24.1792 16.0443L24.1587 16.0646L24.1361 16.0833L24.1155 16.1036L24.093 16.1223L24.0724 16.1409L24.0498 16.1596L24.0272 16.1765L24.0026 16.1952L23.98 16.2122L23.9554 16.2291L23.9328 16.2461L23.9082 16.263L23.8835 16.28L23.8568 16.297L23.8322 16.3122L23.8055 16.3275L23.7809 16.3427L23.7542 16.358L23.7254 16.3733L23.6987 16.3868L23.672 16.4021L23.6433 16.4157L23.6146 16.4292L23.5858 16.4428L23.5571 16.4564L23.5263 16.4682L23.4955 16.4818L23.4647 16.4937L23.4339 16.5056L23.4031 16.5174L23.3702 16.5293L23.3374 16.5412L23.3045 16.5513L23.2717 16.5615L23.2368 16.5734L23.2019 16.5836L23.167 16.5937L23.1321 16.6022L23.0951 16.6124L23.0581 16.6209L23.0212 16.631L22.9822 16.6395L22.9432 16.648L22.9041 16.6565L22.8631 16.665L22.822 16.6717L22.781 16.6802L22.7378 16.687L22.6947 16.6938L22.6495 16.7006L22.6044 16.7074L22.5592 16.7141L22.512 16.7192L22.4627 16.726L22.4134 16.7311L22.3621 16.7362L22.3108 16.7413L22.2574 16.7464L22.202 16.7498L22.1465 16.7548L22.087 16.7582L22.0274 16.7633L21.9638 16.7667L21.9001 16.7701L21.8324 16.7735L21.7626 16.7752L21.6886 16.7786L21.6127 16.7803L21.5306 16.782L21.4423 16.7837L21.3499 16.7854L21.2493 16.7871L21.1363 16.7888H21.0111L20.8633 16.7905H20.6723H20.3459H19.7114H19.4999H19.3418L19.2104 16.7888L19.0934 16.7871H18.9887L18.8942 16.7854L18.806 16.7837L18.7218 16.782L18.6437 16.7786L18.5678 16.7769L18.498 16.7735L18.4302 16.7701L18.3645 16.7667L18.3009 16.7633L18.2393 16.7599L18.1818 16.7565L18.1243 16.7515L18.0689 16.7481L18.0134 16.743L17.9621 16.7379L17.9108 16.7328L17.8615 16.7277L17.8122 16.7209L17.765 16.7158L17.7178 16.7091L17.6726 16.7023L17.6274 16.6955L17.5843 16.6887L17.5412 16.6819L17.4981 16.6751L17.457 16.6667L17.4159 16.6582L17.3769 16.6514L17.3379 16.6429L17.2989 16.6327L17.2619 16.6243L17.225 16.6158L17.188 16.6056L17.1531 16.5954L17.1162 16.587L17.0813 16.5768L17.0484 16.5649L17.0135 16.5547L16.9807 16.5446L16.9478 16.5327L16.915 16.5208L16.8842 16.5089L16.8534 16.4971L16.8226 16.4852L16.7918 16.4733L16.761 16.4598L16.7322 16.4462L16.7035 16.4326L16.6747 16.4191L16.646 16.4055L16.6172 16.3919L16.5905 16.3767L16.5639 16.3631L16.5372 16.3478L16.5105 16.3326L16.4838 16.3173L16.4591 16.302L16.4345 16.2851L16.4078 16.2681L16.3832 16.2529L16.3606 16.2359L16.3359 16.2189L16.3134 16.2003L16.2887 16.1833L16.2661 16.1647L16.2436 16.146L16.221 16.1274L16.2004 16.1087L16.1779 16.0901L16.1573 16.0697L16.1368 16.0511L16.1163 16.0307L16.0957 16.0104L16.0752 15.99L16.0547 15.968L16.0362 15.9476L16.0177 15.9256L15.9972 15.9035L15.9787 15.8815L15.9623 15.8594L15.9438 15.8357L15.9253 15.8119L15.9089 15.7882L15.8904 15.7645L15.874 15.7407L15.8576 15.7153L15.8411 15.6915L15.8247 15.6661L15.8103 15.6407L15.7939 15.6135L15.7795 15.5881L15.7652 15.5609L15.7487 15.5338L15.7344 15.505L15.722 15.4778L15.7077 15.449L15.6933 15.4202L15.681 15.3914L15.6666 15.3625L15.6543 15.332L15.642 15.3015L15.6296 15.2709L15.6173 15.2387L15.605 15.2065L15.5947 15.1743L15.5824 15.1421L15.5722 15.1081L15.5619 15.0742L15.5516 15.0403L15.5414 15.0047L15.5311 14.9691L15.5208 14.9335L15.5126 14.8962L15.5023 14.8588L15.4941 14.8215L15.4839 14.7825L15.4757 14.7435L15.4674 14.7045L15.4592 14.6638L15.4531 14.6214L15.4449 14.5807L15.4387 14.5366L15.4305 14.4925L15.4243 14.4484L15.4182 14.4027L15.412 14.3569L15.4058 14.3077L15.3997 14.2602L15.3935 14.2093L15.3894 14.1584L15.3833 14.1059L15.3792 14.0516L15.375 13.9973L15.3709 13.9397L15.3668 13.8803L15.3627 13.821L15.3586 13.7582L15.3566 13.6921L15.3525 13.6242L15.3504 13.5547L15.3463 13.4801L15.3443 13.4021L15.3422 13.3207L15.3401 13.2325V13.1392L15.3381 13.0375L15.336 12.9255V12.8V12.6525L15.334 12.466V12.1624V9.1098V8.88764L15.336 8.72484V8.58917L15.3381 8.47215V8.36531L15.3401 8.26864L15.3422 8.17876L15.3443 8.09397L15.3463 8.01426L15.3484 7.93964L15.3504 7.86672L15.3545 7.79719L15.3566 7.73105L15.3607 7.6666L15.3648 7.60555L15.3689 7.5462L15.373 7.48854L15.3771 7.43258L15.3812 7.37661L15.3874 7.32404L15.3915 7.27316L15.3976 7.22228L15.4017 7.1731L15.4079 7.12392L15.4141 7.07813L15.4202 7.03065L15.4284 6.98656L15.4346 6.94246L15.4408 6.89837L15.449 6.85597L15.4572 6.81358L15.4654 6.77288L15.4715 6.73217L15.4818 6.69317L15.49 6.65416L15.4982 6.61685L15.5065 6.57785L15.5167 6.54224L15.527 6.50492L15.5352 6.46931L15.5455 6.4337L15.5557 6.39978L15.568 6.36586L15.5783 6.33195L15.5886 6.29972L15.6009 6.26581L15.6112 6.23358L15.6235 6.20306L15.6358 6.17084L15.6481 6.14031L15.6604 6.10979L15.6748 6.08095L15.6871 6.05043L15.7015 6.0216L15.7138 5.99277L15.7282 5.96564L15.7426 5.9368L15.7569 5.90967L15.7713 5.88254L15.7877 5.8571L15.8021 5.82997L15.8185 5.80453L15.8329 5.77909L15.8493 5.75365L15.8658 5.72821L15.8822 5.70447L15.9007 5.68073L15.9171 5.65698L15.9356 5.63324L15.952 5.6095L15.9705 5.58745L15.989 5.5654L16.0074 5.54336L16.0259 5.52131L16.0464 5.49927L16.0649 5.47892L16.0855 5.45687L16.106 5.43652L16.1265 5.41617L16.1471 5.39751L16.1676 5.37716L16.1902 5.35851L16.2107 5.33816L16.2333 5.3195L16.2559 5.30085L16.2785 5.28389L16.301 5.26523L16.3257 5.24828L16.3483 5.23132L16.3729 5.21436L16.3975 5.1974L16.4222 5.18044L16.4468 5.16348L16.4715 5.14822L16.4982 5.13296L16.5248 5.11769L16.5515 5.10243L16.5782 5.08717L16.6049 5.0736L16.6316 5.05834L16.6604 5.04477L16.6891 5.0312L16.7178 5.01764L16.7466 5.00407L16.7774 4.9922L16.8082 4.97863L16.8369 4.96676L16.8698 4.95489L16.9006 4.94302L16.9334 4.93115L16.9642 4.91927L16.9971 4.9074L17.032 4.89723L17.0648 4.88705L17.0997 4.87688L17.1346 4.8667L17.1716 4.85653L17.2065 4.84635L17.2435 4.83787L17.2825 4.8277L17.3194 4.81922L17.3584 4.81074L17.3975 4.80226L17.4385 4.79548L17.4796 4.787L17.5206 4.78021L17.5638 4.77173L17.6069 4.76495L17.65 4.75817L17.6952 4.75138L17.7424 4.7446L17.7896 4.73951L17.8368 4.73273L17.8861 4.72764L17.9374 4.72255L17.9888 4.71746L18.0422 4.71238L18.0976 4.70729L18.153 4.7039L18.2105 4.69881L18.2721 4.69542L18.3337 4.69203L18.3974 4.68863L18.4651 4.68524L18.5349 4.68355L18.6068 4.68015L18.6848 4.67676L18.7649 4.67507L18.8511 4.67337L18.9435 4.67167L19.0421 4.66998H19.1529L19.2761 4.66829H19.4199L19.6005 4.66659H19.8818H20.1549ZM22.8056 11.7995V9.89669C22.8056 8.09566 21.6702 7.04422 20.1405 7.04422C18.5945 7.04422 17.5042 8.0804 17.5042 9.86786V11.7995H22.8056ZM17.5042 12.7492V14.1754H22.8056V12.7492H17.5042ZM20.1549 30.1133C21.6168 30.1133 22.9267 31.1597 22.9267 32.7301C22.9267 34.3022 21.6332 35.3333 20.1549 35.3333C18.693 35.3333 17.3831 34.2869 17.3831 32.7165C17.3831 31.1444 18.6787 30.1133 20.1549 30.1133ZM20.1549 34.933C21.4792 34.933 22.5674 33.9986 22.5674 32.7165C22.5674 31.4327 21.4956 30.5136 20.1549 30.5136C18.8306 30.5136 17.7444 31.448 17.7444 32.7301C17.7444 34.0122 18.8162 34.933 20.1549 34.933ZM22.8056 28.3089V28.6769H17.5042V28.3157L22.1178 24.7645H17.5042V24.3965H22.8056V24.6831L18.0955 28.3089H22.8056ZM22.8056 19.1681V22.8668H17.5042V19.2054H17.8676V22.4835H19.9496V19.5361H20.313V22.4835H22.4422V19.1681H22.8056ZM21.8775 10.2257C21.8775 10.3241 21.8755 10.419 21.8755 10.5123V10.8464C21.6804 10.8532 21.4094 10.8209 21.1959 10.7616C21.0193 10.7141 20.892 10.4987 20.7852 10.3037L20.777 10.2884C20.7442 10.2274 20.6826 10.1172 20.6415 10.0137C20.6374 10.0024 20.6333 9.9911 20.6292 9.97979C20.5963 9.88991 20.5573 9.78646 20.4485 9.77629C20.3664 9.76781 20.3151 9.80851 20.2535 9.85769C20.2384 9.87012 20.2227 9.88256 20.2062 9.895C20.0112 10.0391 19.7463 10.1748 19.385 10.1494C19.0318 10.1256 18.7567 9.90348 18.7156 9.52869C18.7101 9.48572 18.7081 9.44389 18.7095 9.40319C18.7081 9.36249 18.7101 9.32009 18.7156 9.276C18.7567 8.9029 19.0318 8.67905 19.385 8.65531C19.7463 8.63157 20.0112 8.76723 20.2062 8.91138C20.2227 8.92382 20.2384 8.93569 20.2535 8.947C20.3151 8.99618 20.3664 9.03858 20.4485 9.0301C20.5573 9.01992 20.5963 8.91478 20.6292 8.82659C20.6333 8.81415 20.6374 8.80228 20.6415 8.79098C20.6826 8.68922 20.7442 8.5773 20.777 8.51624L20.7852 8.50268C20.8571 8.3704 20.9392 8.22964 21.0378 8.13806C21.1179 8.17707 21.2205 8.24829 21.2698 8.289C21.3889 8.38905 21.4813 8.48911 21.5552 8.58917V8.58747C21.5785 8.62026 21.6004 8.65418 21.6209 8.68922C21.7092 8.82829 21.7605 8.96396 21.7954 9.08945C21.8009 9.1098 21.8064 9.12959 21.8118 9.14881C21.8529 9.31161 21.8714 9.47103 21.8755 9.61179C21.8817 9.81699 21.8796 10.0256 21.8775 10.2257Z" fill="white"/>
    </g>
    <defs>
        <clipPath id="clip0_382_22938">
            <rect width="40" height="40" fill="white" transform="translate(0 40) rotate(-90)"/>
        </clipPath>
    </defs>
</svg>
