<svg width="82" height="26" viewBox="0 0 82 26" fill="none" xmlns="http://www.w3.org/2000/svg">
    <path fill-rule="evenodd" clip-rule="evenodd" d="M81.724 13.0027V14.2787L81.7194 14.8131V15.2166V15.5602L81.7149 15.8601L81.7104 16.1328L81.7059 16.3836L81.7014 16.6181L81.6969 16.8362L81.6924 17.0434L81.6834 17.2398L81.6744 17.4306L81.6654 17.6106L81.6609 17.7796L81.6519 17.9487L81.6384 18.1123L81.6294 18.2649L81.6159 18.4176L81.6068 18.5649L81.5933 18.7066L81.5798 18.843L81.5663 18.9793L81.5528 19.1102L81.5348 19.241L81.5213 19.3665L81.5033 19.4919L81.4852 19.6119L81.4672 19.7318L81.4492 19.8463L81.4312 19.9609L81.4087 20.0699L81.3907 20.179L81.3681 20.288L81.3456 20.3917L81.3231 20.4953L81.3006 20.5989L81.278 20.697L81.251 20.7952L81.2285 20.8933L81.2015 20.986L81.1745 21.0842L81.1474 21.1769L81.1204 21.2642L81.0934 21.3569L81.0618 21.4441L81.0303 21.5314L81.0033 21.6132L80.9718 21.7004L80.9402 21.7822L80.9042 21.864L80.8727 21.9458L80.8366 22.0221L80.8051 22.1039L80.7691 22.1803L80.7331 22.2566L80.6925 22.3275L80.6565 22.4039L80.6204 22.4748L80.5799 22.5511L80.5394 22.622L80.4988 22.6874L80.4583 22.7583L80.4133 22.8238L80.3727 22.8946L80.3277 22.9601L80.2871 23.0255L80.2421 23.0855L80.1926 23.1509L80.1475 23.2109L80.1025 23.2764L80.0529 23.3363L80.0034 23.3963L79.9538 23.4563L79.9043 23.5108L79.8547 23.5708L79.8007 23.6254L79.7466 23.6799L79.6971 23.7344L79.6431 23.789L79.5845 23.8435L79.5304 23.8926L79.4719 23.9471L79.4133 23.9962L79.3548 24.0453L79.2962 24.0943L79.2377 24.1434L79.1746 24.1925L79.1161 24.2361L79.053 24.2852L78.99 24.3288L78.9224 24.3724L78.8593 24.4161L78.7918 24.4597L78.7242 24.5033L78.6566 24.5469L78.5846 24.5851L78.517 24.6287L78.445 24.6669L78.3729 24.7051L78.2963 24.7433L78.2243 24.7814L78.1477 24.8141L78.0711 24.8523L77.9945 24.8905L77.9135 24.9232L77.8324 24.9559L77.7513 24.9886L77.6703 25.0214L77.5892 25.0541L77.5036 25.0868L77.418 25.1141L77.3279 25.1468L77.2379 25.1741L77.1478 25.2013L77.0577 25.2286L76.9631 25.2558L76.8685 25.2831L76.7739 25.3104L76.6793 25.3322L76.5757 25.3595L76.4767 25.3813L76.3731 25.4031L76.2695 25.4303L76.1614 25.4467L76.0533 25.4685L75.9452 25.4903L75.8326 25.5121L75.72 25.5285L75.6029 25.5503L75.4812 25.5667L75.3596 25.583L75.238 25.5994L75.1074 25.6158L74.9768 25.6321L74.8462 25.643L74.711 25.6594L74.5714 25.6703L74.4273 25.6866L74.2786 25.6976L74.1255 25.7085L73.9679 25.7194L73.8057 25.7303L73.6391 25.7357L73.4634 25.7466L73.2832 25.7521L73.0941 25.763L72.8959 25.7684L72.6887 25.7739L72.468 25.7793L72.2338 25.7848L71.9815 25.7903L71.7113 25.7957H71.4095H71.0672L70.6618 25.8012H70.1394H62.8112H61.2077H60.6582H60.2393L59.888 25.7957H59.5817L59.3025 25.7903L59.0502 25.7848L58.8115 25.7793L58.5908 25.7739L58.3791 25.7684L58.1809 25.763L57.9918 25.7575L57.8071 25.7466L57.6359 25.7412L57.4648 25.7303L57.3026 25.7194L57.145 25.7085L56.9918 25.6976L56.8432 25.6866L56.6991 25.6757L56.5595 25.6594L56.4198 25.6485L56.2892 25.6321L56.1586 25.6158L56.028 25.5994L55.9064 25.583L55.7847 25.5667L55.6631 25.5503L55.546 25.534L55.4334 25.5121L55.3208 25.4958L55.2082 25.474L55.1001 25.4522L54.992 25.4303L54.8884 25.4085L54.7848 25.3867L54.6857 25.3649L54.5867 25.3376L54.4876 25.3158L54.3885 25.2886L54.2939 25.2613L54.2038 25.234L54.1092 25.2068L54.0191 25.1795L53.929 25.1522L53.8435 25.1195L53.7579 25.0923L53.6723 25.0595L53.5867 25.0268L53.5057 24.9941L53.4246 24.9614L53.3435 24.9287L53.2669 24.8959L53.1859 24.8578L53.1093 24.8251L53.0327 24.7869L52.9607 24.7487L52.8841 24.7105L52.812 24.6724L52.74 24.6342L52.6724 24.5906L52.6003 24.5524L52.5328 24.5088L52.4652 24.4706L52.3976 24.427L52.3346 24.3833L52.267 24.3397L52.204 24.2906L52.1409 24.247L52.0779 24.1979L52.0193 24.1543L51.9562 24.1052L51.8977 24.0562L51.8391 24.0071L51.7806 23.9526L51.7265 23.9035L51.668 23.8489L51.6139 23.7999L51.5599 23.7453L51.5058 23.6908L51.4518 23.6363L51.4022 23.5763L51.3482 23.5218L51.2986 23.4618L51.2491 23.4072L51.1996 23.3473L51.1545 23.2873L51.105 23.2218L51.0599 23.1618L51.0149 23.0964L50.9698 23.0364L50.9248 22.971L50.8798 22.9056L50.8347 22.8347L50.7942 22.7692L50.7536 22.6983L50.7131 22.6329L50.6726 22.562L50.632 22.4857L50.596 22.4148L50.5555 22.3439L50.5194 22.2675L50.4834 22.1912L50.4474 22.1148L50.4113 22.0385L50.3798 21.9567L50.3438 21.8749L50.3122 21.7931L50.2807 21.7113L50.2492 21.6295L50.2177 21.5423L50.1861 21.455L50.1591 21.3678L50.1321 21.2805L50.1005 21.1878L50.0735 21.0951L50.0465 21.0024L50.024 20.9097L49.997 20.8116L49.9744 20.7134L49.9474 20.6152L49.9249 20.5116L49.9024 20.408L49.8798 20.3044L49.8573 20.1953L49.8393 20.0863L49.8168 19.9772L49.7988 19.8627L49.7808 19.7482L49.7627 19.6282L49.7447 19.5083L49.7267 19.3883L49.7132 19.2629L49.6952 19.132L49.6817 19.0011L49.6682 18.8648L49.6546 18.7285L49.6411 18.5867L49.6321 18.4394L49.6186 18.2922L49.6096 18.1341L49.5961 17.9759L49.5871 17.8069L49.5781 17.6378L49.5691 17.4579L49.5646 17.2725L49.5555 17.0762L49.551 16.8744L49.5465 16.6563L49.542 16.4218L49.5375 16.1764L49.533 15.9092L49.5285 15.6093V15.2766L49.524 14.884V14.3769V13.5098V11.8248V11.2631V10.8432L49.5285 10.4942L49.533 10.1834V9.9053L49.5375 9.65445L49.542 9.41997L49.5465 9.19639L49.5555 8.98917L49.5601 8.78741L49.5691 8.602L49.5781 8.42205L49.5871 8.24755L49.5961 8.0785L49.6051 7.91491L49.6141 7.76222L49.6276 7.60953L49.6366 7.4623L49.6501 7.31506L49.6636 7.17873L49.6772 7.0424L49.6907 6.91153L49.7087 6.78065L49.7222 6.65523L49.7402 6.52981L49.7582 6.40984L49.7763 6.28987L49.7943 6.17536L49.8123 6.06084L49.8303 5.94633L49.8528 5.83726L49.8753 5.7282L49.8934 5.62459L49.9159 5.52098L49.9429 5.41737L49.9654 5.31922L49.9879 5.22106L50.015 5.1229L50.042 5.0302L50.0645 4.93204L50.0915 4.83934L50.1231 4.75209L50.1501 4.65939L50.1771 4.57214L50.2086 4.48489L50.2402 4.39764L50.2717 4.31584L50.3032 4.23404L50.3348 4.15225L50.3663 4.07045L50.4023 3.98865L50.4384 3.91231L50.4744 3.83597L50.5104 3.75962L50.5465 3.68328L50.5825 3.60693L50.623 3.53604L50.6591 3.46515L50.6996 3.39426L50.7401 3.32337L50.7807 3.25248L50.8212 3.18704L50.8662 3.12161L50.9113 3.05072L50.9518 2.98528L50.9969 2.92529L51.0419 2.85986L51.0915 2.79987L51.1365 2.73443L51.186 2.67445L51.2356 2.61447L51.2851 2.55448L51.3347 2.49995L51.3842 2.43997L51.4383 2.38543L51.4878 2.3309L51.5419 2.27637L51.5959 2.22184L51.65 2.16731L51.7085 2.11278L51.7626 2.0637L51.8211 2.01462L51.8797 1.96009L51.9382 1.91101L51.9968 1.86739L52.0598 1.81831L52.1229 1.76923L52.186 1.72561L52.249 1.67653L52.3121 1.6329L52.3796 1.58928L52.4427 1.54565L52.5102 1.50203L52.5778 1.46386L52.6499 1.42023L52.7174 1.38206L52.7895 1.34389L52.8616 1.30026L52.9381 1.26209L53.0102 1.22937L53.0868 1.1912L53.1633 1.15303L53.2399 1.12031L53.3165 1.08214L53.3976 1.04942L53.4786 1.0167L53.5597 0.983981L53.6453 0.951262L53.7309 0.918543L53.8164 0.891278L53.902 0.858559L53.9921 0.831293L54.0822 0.804028L54.1723 0.776762L54.2669 0.749496L54.3614 0.722231L54.456 0.694965L54.5551 0.673152L54.6542 0.645887L54.7533 0.624074L54.8569 0.596809L54.9605 0.574996L55.0641 0.553184L55.1722 0.531371L55.2848 0.515012L55.3929 0.493199L55.51 0.47684L55.6271 0.455027L55.7442 0.438668L55.8658 0.422309L55.9874 0.405949L56.1181 0.38959L56.2442 0.373231L56.3793 0.356871L56.5144 0.345965L56.654 0.329606L56.7982 0.318699L56.9423 0.307793L57.0954 0.296887L57.2531 0.285981L57.4107 0.275074L57.5774 0.264168L57.753 0.258715L57.9332 0.247809L58.1179 0.242355L58.3161 0.231449L58.5232 0.225996L58.7394 0.220543L58.9737 0.21509H59.2214L59.4916 0.209637L59.7889 0.204184H60.1222H60.5141L61.0095 0.19873H61.8158H69.9232H70.5132L70.9456 0.204184H71.3059L71.6167 0.209637H71.9005L72.1572 0.21509L72.3959 0.220543L72.6211 0.225996L72.8328 0.231449L73.031 0.236902L73.2247 0.242355L73.4094 0.253262L73.585 0.258715L73.7562 0.269621L73.9183 0.280527L74.076 0.291434L74.2291 0.30234L74.3777 0.313246L74.5264 0.324152L74.666 0.340512L74.8011 0.351418L74.9362 0.367777L75.0669 0.378684L75.1975 0.395043L75.3191 0.411402L75.4452 0.427762L75.5623 0.449574L75.6794 0.465934L75.7965 0.482293L75.9091 0.504106L76.0217 0.525918L76.1298 0.547731L76.2379 0.56409L76.3415 0.591356L76.4451 0.613168L76.5442 0.634981L76.6478 0.656793L76.7424 0.684059L76.8415 0.711324L76.9361 0.733137L77.0307 0.760402L77.1207 0.787668L77.2108 0.820387L77.3009 0.847653L77.3865 0.874918L77.4766 0.907637L77.5622 0.934903L77.6432 0.967621L77.7288 1.00034L77.8099 1.03306L77.8909 1.06578L77.9675 1.10395L78.0486 1.13667L78.1252 1.17484L78.2017 1.20756L78.2738 1.24573L78.3504 1.2839L78.4224 1.32207L78.4945 1.36025L78.5621 1.40387L78.6341 1.44204L78.7017 1.48567L78.7693 1.52384L78.8368 1.56747L78.9044 1.61109L78.9674 1.65472L79.0305 1.70379L79.0936 1.74742L79.1566 1.7965L79.2197 1.84012L79.2782 1.8892L79.3368 1.93828L79.3953 1.98736L79.4539 2.03643L79.5124 2.09097L79.5665 2.14004L79.625 2.19458L79.6791 2.24911L79.7331 2.30364L79.7827 2.35817L79.8367 2.4127L79.8863 2.47268L79.9403 2.52722L79.9899 2.5872L80.0394 2.64718L80.0845 2.70717L80.134 2.76715L80.179 2.83259L80.2241 2.89258L80.2691 2.95801L80.3142 3.02345L80.3592 3.08889L80.4042 3.15433L80.4448 3.21976L80.4853 3.29065L80.5259 3.36154L80.5664 3.43243L80.6069 3.50333L80.643 3.57422L80.6835 3.64511L80.7195 3.72145L80.7556 3.79779L80.7916 3.87414L80.8276 3.95048L80.8592 4.03228L80.8952 4.11408L80.9267 4.19042L80.9583 4.27767L80.9898 4.35947L81.0213 4.44672L81.0528 4.52851L81.0844 4.61576L81.1114 4.70847L81.1384 4.79572L81.1654 4.88842L81.1925 4.98112L81.2195 5.07928L81.2465 5.17198L81.269 5.27014L81.2961 5.37375L81.3186 5.4719L81.3411 5.57551L81.3636 5.67912L81.3816 5.78819L81.4042 5.89725L81.4222 6.00631L81.4447 6.12083L81.4627 6.23534L81.4807 6.34986L81.4988 6.46983L81.5168 6.59525L81.5303 6.72067L81.5483 6.84609L81.5618 6.97697L81.5753 7.1133L81.5888 7.24962L81.6023 7.3914L81.6159 7.53864L81.6249 7.68587L81.6384 7.83856L81.6474 8.00215L81.6564 8.16575L81.6654 8.3348L81.6744 8.51475L81.6789 8.70015L81.6879 8.89101L81.6969 9.09823L81.7014 9.3109L81.7059 9.53994L81.7104 9.78533L81.7149 10.0471V10.3415L81.7194 10.6687V11.0505L81.724 11.5303V12.2774V13.0027ZM62.7796 20.0427H67.8333C72.6166 20.0427 75.4092 17.0271 75.4092 12.9645C75.4092 8.8583 72.6572 5.96269 67.9098 5.96269H62.7796V20.0427ZM60.2573 5.96269H56.4694V20.0427H60.2573V5.96269ZM14.1397 13.0027C14.1397 16.8853 11.3606 20.3644 7.18982 20.3644C3.0145 20.3644 0.276001 16.9289 0.276001 13.0027C0.276001 9.12005 3.05504 5.64095 7.22585 5.64095C11.4012 5.64095 14.1397 9.08187 14.1397 13.0027V13.0027ZM1.33897 13.0027C1.33897 16.5199 3.82074 19.4101 7.22585 19.4101C10.6355 19.4101 13.0767 16.5636 13.0767 13.0027C13.0767 9.4854 10.5949 6.6007 7.18982 6.6007C3.78471 6.6007 1.33897 9.44723 1.33897 13.0027V13.0027ZM18.9321 20.0427H17.9547V5.96269H18.914L28.3457 18.2159V5.96269H29.3231V20.0427H28.5619L18.9321 7.53319V20.0427ZM43.2092 20.0427H33.3858V5.96269H43.1102V6.92789H34.4037V12.4574H42.2319V13.4226H34.4037V19.0775H43.2092V20.0427ZM66.9595 17.5778C66.6982 17.5778 66.446 17.5724 66.1983 17.5724H65.311C65.2929 17.0543 65.3785 16.3345 65.5362 15.7674C65.6623 15.2984 66.2343 14.9603 66.7523 14.6768L66.7928 14.655C66.955 14.5677 67.2477 14.4041 67.5225 14.2951C67.5525 14.2842 67.5825 14.2733 67.6126 14.2623C67.8513 14.1751 68.126 14.0715 68.153 13.7825C68.1756 13.5643 68.0675 13.428 67.9368 13.2644C67.9038 13.2244 67.8708 13.1826 67.8378 13.139C67.4549 12.621 67.0946 11.9175 67.1621 10.9577C67.2252 10.0198 67.8152 9.28909 68.8106 9.18003C68.9248 9.16549 69.0359 9.16004 69.144 9.16367C69.2521 9.16004 69.3647 9.16549 69.4818 9.18003C70.4727 9.28909 71.0672 10.0198 71.1303 10.9577C71.1933 11.9175 70.833 12.621 70.4501 13.139C70.4171 13.1826 70.3856 13.2244 70.3556 13.2644C70.2249 13.428 70.1123 13.5643 70.1349 13.7825C70.1619 14.0715 70.4411 14.1751 70.6754 14.2623C70.7084 14.2733 70.7399 14.2842 70.7699 14.2951C71.0402 14.4041 71.3375 14.5677 71.4996 14.655L71.5356 14.6768C71.887 14.8676 72.2608 15.0858 72.504 15.3475C72.4004 15.5602 72.2113 15.8328 72.1032 15.9637C71.8374 16.28 71.5717 16.5254 71.3059 16.7217H71.3104C71.2234 16.7835 71.1333 16.8417 71.0402 16.8962C70.6709 17.1307 70.3105 17.267 69.9772 17.3597C69.9232 17.3743 69.8706 17.3888 69.8196 17.4033C69.3872 17.5124 68.9638 17.5615 68.5899 17.5724C68.0449 17.5888 67.4909 17.5833 66.9595 17.5778V17.5778Z" fill="#6949DE"/>
</svg>
