<svg width="40" height="40" viewBox="0 0 40 40" fill="none" xmlns="http://www.w3.org/2000/svg">
    <g clip-path="url(#clip0_382_23057)">
        <path fill-rule="evenodd" clip-rule="evenodd" d="M0 30V10C0.000114441 7.34787 1.05372 4.8044 2.92906 2.92906C4.8044 1.05372 7.34787 0.000116023 10 0L30 0C32.6521 0.000116023 35.1956 1.05372 37.0709 2.92906C38.9463 4.8044 39.9999 7.34787 40 10V30C40 32.6522 38.9464 35.1957 37.0711 37.0711C35.1957 38.9464 32.6522 40 30 40H10C7.34784 40 4.80429 38.9464 2.92893 37.0711C1.05357 35.1957 0 32.6522 0 30Z" fill="#F8BE4E"/>
        <path fill-rule="evenodd" clip-rule="evenodd" d="M28.75 18.75V30C28.7501 31.442 29.304 32.829 30.2972 33.8744C31.2905 34.9198 32.6473 35.5439 34.0875 35.6177C35.5277 35.6915 36.9412 35.2094 38.0361 34.271C39.131 33.3326 39.8238 32.0095 39.9712 30.575C39.9819 30.3838 40 30.1944 40 30V10C39.9999 7.34787 38.9463 4.8044 37.0709 2.92906C35.1956 1.05372 32.6521 0.000116023 30 0L10 0C14.9728 0.000116027 19.7418 1.97559 23.2581 5.49188C26.7744 9.00816 28.7499 13.7772 28.75 18.75Z" fill="#FFCC69"/>
        <path fill-rule="evenodd" clip-rule="evenodd" d="M20 30C20 28.0222 19.4135 26.0888 18.3147 24.4443C17.2159 22.7998 15.6541 21.5181 13.8268 20.7612C11.9996 20.0043 9.9889 19.8063 8.0491 20.1922C6.10929 20.578 4.32745 21.5304 2.92893 22.9289C1.5304 24.3275 0.577995 26.1093 0.192144 28.0491C-0.193708 29.9889 0.00432396 31.9996 0.761202 33.8268C1.51808 35.6541 2.7998 37.2159 4.4443 38.3147C6.08879 39.4135 8.02218 40 10 40H30C27.3478 40 24.8043 38.9464 22.9289 37.0711C21.0536 35.1957 20 32.6522 20 30Z" fill="#FFB015"/>
        <rect x="32" y="11.3647" width="17.8021" height="22.6572" rx="2" transform="rotate(90 32 11.3647)" fill="#2BA2FF"/>
        <path d="M29.6475 11.6345C30.752 11.6345 31.6475 12.53 31.6475 13.6345L31.6475 26.8972C31.6475 28.0017 30.752 28.8972 29.6475 28.8972L11.6947 28.8972C10.5901 28.8972 9.69467 28.0017 9.69467 26.8972L9.69467 13.6345C9.69467 12.53 10.5901 11.6345 11.6947 11.6345L29.6475 11.6345Z" fill="white"/>
        <g opacity="0.3">
            <rect x="30.0352" y="14.0471" width="12.6095" height="1.11388" rx="0.556938" transform="rotate(90 30.0352 14.0471)" fill="#3E4958"/>
            <rect x="28.5156" y="17.4583" width="6.4081" height="0.405046" rx="0.202523" transform="rotate(90 28.5156 17.4583)" fill="#3E4958"/>
            <rect x="27.0986" y="13.5308" width="4.0309" height="0.405046" rx="0.202523" transform="rotate(90 27.0986 13.5308)" fill="#3E4958"/>
            <rect x="25.5801" y="13.5308" width="4.0309" height="0.405045" rx="0.202523" transform="rotate(90 25.5801 13.5308)" fill="#3E4958"/>
            <rect x="24.0605" y="13.5308" width="4.0309" height="0.405047" rx="0.202524" transform="rotate(90 24.0605 13.5308)" fill="#3E4958"/>
            <rect x="24.0605" y="19.3171" width="2.17049" height="0.405047" rx="0.202524" transform="rotate(90 24.0605 19.3171)" fill="#3E4958"/>
            <rect x="25.5801" y="25.1069" width="2.17048" height="0.405046" rx="0.202523" transform="rotate(90 25.5801 25.1069)" fill="#3E4958"/>
            <rect x="22.542" y="13.5308" width="6.82153" height="1.01262" rx="0.506308" transform="rotate(90 22.542 13.5308)" fill="#3E4958"/>
        </g>
        <g opacity="0.3" clip-path="url(#clip1_382_23057)">
            <rect opacity="0.1" x="12.1748" y="12.1738" width="16.1837" height="1.61837" rx="0.809187" transform="rotate(90 12.1748 12.1738)" fill="#3E4958"/>
            <rect x="11.9053" y="12.5784" width="0.404593" height="0.404593" rx="0.202297" transform="rotate(90 11.9053 12.5784)" fill="#3E4958"/>
            <rect x="11.2305" y="12.5784" width="0.404593" height="0.404594" rx="0.202297" transform="rotate(90 11.2305 12.5784)" fill="#3E4958"/>
            <rect x="11.9053" y="13.2527" width="0.404594" height="0.404593" rx="0.202297" transform="rotate(90 11.9053 13.2527)" fill="#3E4958"/>
            <rect x="11.2305" y="13.2527" width="0.404593" height="0.404594" rx="0.202297" transform="rotate(90 11.2305 13.2527)" fill="#3E4958"/>
            <rect x="11.9053" y="13.927" width="0.404593" height="0.404593" rx="0.202296" transform="rotate(90 11.9053 13.927)" fill="#3E4958"/>
            <rect x="11.2305" y="13.927" width="0.404593" height="0.404594" rx="0.202297" transform="rotate(90 11.2305 13.927)" fill="#3E4958"/>
            <rect x="11.9053" y="14.6013" width="0.404592" height="0.404594" rx="0.202296" transform="rotate(90 11.9053 14.6013)" fill="#3E4958"/>
            <rect x="11.2305" y="14.6013" width="0.404592" height="0.404594" rx="0.202296" transform="rotate(90 11.2305 14.6013)" fill="#3E4958"/>
            <rect x="11.9053" y="15.2756" width="0.404594" height="0.404594" rx="0.202297" transform="rotate(90 11.9053 15.2756)" fill="#3E4958"/>
            <rect x="11.2305" y="15.2756" width="0.404594" height="0.404594" rx="0.202297" transform="rotate(90 11.2305 15.2756)" fill="#3E4958"/>
            <rect x="11.9053" y="15.95" width="0.404592" height="0.404594" rx="0.202296" transform="rotate(90 11.9053 15.95)" fill="#3E4958"/>
            <rect x="11.2305" y="15.95" width="0.404593" height="0.404594" rx="0.202296" transform="rotate(90 11.2305 15.95)" fill="#3E4958"/>
            <rect x="11.9053" y="16.6243" width="0.404593" height="0.404593" rx="0.202297" transform="rotate(90 11.9053 16.6243)" fill="#3E4958"/>
            <rect x="11.2305" y="16.6243" width="0.404593" height="0.404594" rx="0.202297" transform="rotate(90 11.2305 16.6243)" fill="#3E4958"/>
            <rect x="11.9053" y="17.2986" width="0.404593" height="0.404593" rx="0.202296" transform="rotate(90 11.9053 17.2986)" fill="#3E4958"/>
            <rect x="11.2305" y="17.2986" width="0.404593" height="0.404594" rx="0.202296" transform="rotate(90 11.2305 17.2986)" fill="#3E4958"/>
            <rect x="11.9053" y="17.9729" width="0.404593" height="0.404593" rx="0.202297" transform="rotate(90 11.9053 17.9729)" fill="#3E4958"/>
            <rect x="11.2305" y="17.9729" width="0.404593" height="0.404594" rx="0.202297" transform="rotate(90 11.2305 17.9729)" fill="#3E4958"/>
            <rect x="11.9053" y="18.6472" width="0.404591" height="0.404593" rx="0.202295" transform="rotate(90 11.9053 18.6472)" fill="#3E4958"/>
            <rect x="11.2305" y="18.6472" width="0.404591" height="0.404594" rx="0.202295" transform="rotate(90 11.2305 18.6472)" fill="#3E4958"/>
            <rect x="11.9053" y="19.3215" width="0.404593" height="0.404593" rx="0.202297" transform="rotate(90 11.9053 19.3215)" fill="#3E4958"/>
            <rect x="11.2305" y="19.3215" width="0.404593" height="0.404594" rx="0.202296" transform="rotate(90 11.2305 19.3215)" fill="#3E4958"/>
            <rect x="11.9053" y="19.9958" width="0.404591" height="0.404593" rx="0.202295" transform="rotate(90 11.9053 19.9958)" fill="#3E4958"/>
            <rect x="11.2305" y="19.9958" width="0.404591" height="0.404594" rx="0.202295" transform="rotate(90 11.2305 19.9958)" fill="#3E4958"/>
            <rect x="11.9053" y="20.6702" width="0.404594" height="0.404593" rx="0.202297" transform="rotate(90 11.9053 20.6702)" fill="#3E4958"/>
            <rect x="11.2305" y="20.6702" width="0.404593" height="0.404594" rx="0.202297" transform="rotate(90 11.2305 20.6702)" fill="#3E4958"/>
            <rect x="11.9053" y="21.3445" width="0.404595" height="0.404593" rx="0.202297" transform="rotate(90 11.9053 21.3445)" fill="#3E4958"/>
            <rect x="11.2305" y="21.3445" width="0.404593" height="0.404594" rx="0.202297" transform="rotate(90 11.2305 21.3445)" fill="#3E4958"/>
            <rect x="11.9053" y="22.0188" width="0.404591" height="0.404593" rx="0.202296" transform="rotate(90 11.9053 22.0188)" fill="#3E4958"/>
            <rect x="11.2305" y="22.0188" width="0.404592" height="0.404594" rx="0.202296" transform="rotate(90 11.2305 22.0188)" fill="#3E4958"/>
            <rect x="11.9053" y="22.6931" width="0.404593" height="0.404593" rx="0.202297" transform="rotate(90 11.9053 22.6931)" fill="#3E4958"/>
            <rect x="11.2305" y="22.6931" width="0.404593" height="0.404594" rx="0.202297" transform="rotate(90 11.2305 22.6931)" fill="#3E4958"/>
            <rect x="11.9053" y="23.3674" width="0.404592" height="0.404593" rx="0.202296" transform="rotate(90 11.9053 23.3674)" fill="#3E4958"/>
            <rect x="11.2305" y="23.3674" width="0.404591" height="0.404594" rx="0.202295" transform="rotate(90 11.2305 23.3674)" fill="#3E4958"/>
            <rect x="11.9053" y="24.0417" width="0.404593" height="0.404593" rx="0.202297" transform="rotate(90 11.9053 24.0417)" fill="#3E4958"/>
            <rect x="11.2305" y="24.0417" width="0.404593" height="0.404594" rx="0.202297" transform="rotate(90 11.2305 24.0417)" fill="#3E4958"/>
            <rect x="11.9053" y="24.7161" width="0.404599" height="0.404594" rx="0.202297" transform="rotate(90 11.9053 24.7161)" fill="#3E4958"/>
            <rect x="11.2305" y="24.7161" width="0.404599" height="0.404594" rx="0.202297" transform="rotate(90 11.2305 24.7161)" fill="#3E4958"/>
            <rect x="11.9053" y="25.3904" width="0.404589" height="0.404593" rx="0.202295" transform="rotate(90 11.9053 25.3904)" fill="#3E4958"/>
            <rect x="11.2305" y="25.3904" width="0.404595" height="0.404594" rx="0.202297" transform="rotate(90 11.2305 25.3904)" fill="#3E4958"/>
            <rect x="11.9053" y="26.0647" width="0.404589" height="0.404593" rx="0.202295" transform="rotate(90 11.9053 26.0647)" fill="#3E4958"/>
            <rect x="11.2305" y="26.0647" width="0.404592" height="0.404594" rx="0.202296" transform="rotate(90 11.2305 26.0647)" fill="#3E4958"/>
            <rect x="11.9053" y="26.739" width="0.404593" height="0.404593" rx="0.202297" transform="rotate(90 11.9053 26.739)" fill="#3E4958"/>
            <rect x="11.2305" y="26.739" width="0.404593" height="0.404594" rx="0.202297" transform="rotate(90 11.2305 26.739)" fill="#3E4958"/>
            <rect x="11.9053" y="27.4133" width="0.404596" height="0.404593" rx="0.202297" transform="rotate(90 11.9053 27.4133)" fill="#3E4958"/>
            <rect x="11.2305" y="27.4133" width="0.404596" height="0.404594" rx="0.202297" transform="rotate(90 11.2305 27.4133)" fill="#3E4958"/>
        </g>
        <g opacity="0.3">
            <rect x="19.9102" y="13.5308" width="14.1598" height="0.607566" rx="0.303783" transform="rotate(90 19.9102 13.5308)" fill="#3E4958"/>
            <rect x="13.835" y="19.0078" width="3.72083" height="0.911352" rx="0.455676" transform="rotate(90 13.835 19.0078)" fill="#3E4958"/>
            <rect x="13.835" y="23.6597" width="3.82419" height="0.911352" rx="0.455676" transform="rotate(90 13.835 23.6597)" fill="#3E4958"/>
            <rect x="15.6572" y="19.0078" width="4.0309" height="0.506308" rx="0.253154" transform="rotate(90 15.6572 19.0078)" fill="#3E4958"/>
            <rect x="16.9727" y="19.0078" width="3.30741" height="0.506308" rx="0.253154" transform="rotate(90 16.9727 19.0078)" fill="#3E4958"/>
            <rect x="18.3906" y="19.0078" width="3.30741" height="0.506308" rx="0.253154" transform="rotate(90 18.3906 19.0078)" fill="#3E4958"/>
            <rect x="17.2754" y="25.6218" width="1.86042" height="0.708831" rx="0.354415" transform="rotate(90 17.2754 25.6218)" fill="#3E4958"/>
        </g>
        <rect opacity="0.4" x="20.6719" y="11.6345" width="17.2626" height="0.269729" transform="rotate(90 20.6719 11.6345)" fill="#3E4958"/>
        <rect opacity="0.3" x="18.5938" y="13.5308" width="4.54768" height="5.7719" rx="2" transform="rotate(90 18.5938 13.5308)" fill="#3E4958"/>
        <g clip-path="url(#clip2_382_23057)">
            <path d="M14.3593 16.8837V14.7258H14.629C14.8078 14.7258 14.9793 14.7969 15.1058 14.9233C15.2323 15.0498 15.3033 15.2213 15.3033 15.4002V16.2093C15.3033 16.3882 15.2323 16.5597 15.1058 16.6862C14.9793 16.8126 14.8078 16.8837 14.629 16.8837H14.3593ZM15.573 15.8047C15.573 15.6985 15.594 15.5933 15.6346 15.4951C15.6753 15.3969 15.7349 15.3077 15.81 15.2326C15.8852 15.1574 15.9744 15.0978 16.0726 15.0572C16.1707 15.0165 16.276 14.9956 16.3822 14.9956C16.4885 14.9956 16.5937 15.0165 16.6919 15.0572C16.7901 15.0978 16.8793 15.1574 16.9544 15.2326C17.0295 15.3077 17.0891 15.3969 17.1298 15.4951C17.1705 15.5933 17.1914 15.6985 17.1914 15.8047C17.1914 16.0194 17.1062 16.2252 16.9544 16.3769C16.8026 16.5287 16.5968 16.6139 16.3822 16.6139C16.1676 16.6139 15.9618 16.5287 15.81 16.3769C15.6583 16.2252 15.573 16.0194 15.573 15.8047Z" fill="white"/>
        </g>
        <path d="M13.5898 10.9888C13.5544 10.9535 13.5345 10.9055 13.5345 10.8554C13.5345 10.8054 13.5544 10.7574 13.5898 10.722C13.6252 10.6866 13.6732 10.6667 13.7232 10.6667H14.4779C14.628 10.6667 14.772 10.7264 14.8782 10.8325C14.9843 10.9387 15.0439 11.0827 15.0439 11.2328V11.9875C15.0439 12.0375 15.0241 12.0855 14.9887 12.1209C14.9533 12.1563 14.9053 12.1762 14.8553 12.1762C14.8052 12.1762 14.7572 12.1563 14.7219 12.1209C14.6865 12.0855 14.6666 12.0375 14.6666 11.9875V11.2328C14.6666 11.1827 14.6467 11.1348 14.6113 11.0994C14.5759 11.064 14.5279 11.0441 14.4779 11.0441H13.7232C13.6732 11.0441 13.6252 11.0242 13.5898 10.9888Z" fill="#8F73FF"/>
        <path d="M14.7219 28.5366C14.7572 28.5012 14.8052 28.4813 14.8553 28.4813C14.9053 28.4813 14.9533 28.5012 14.9887 28.5366C15.0241 28.5719 15.0439 28.6199 15.0439 28.67L15.0439 29.4247C15.0439 29.5748 14.9843 29.7188 14.8782 29.8249C14.772 29.9311 14.628 29.9907 14.4779 29.9907L13.7232 29.9907C13.6732 29.9907 13.6252 29.9708 13.5898 29.9355C13.5544 29.9001 13.5345 29.8521 13.5345 29.802C13.5345 29.752 13.5544 29.704 13.5898 29.6686C13.6252 29.6332 13.6732 29.6134 13.7232 29.6134L14.4779 29.6134C14.5279 29.6134 14.5759 29.5935 14.6113 29.5581C14.6467 29.5227 14.6666 29.4747 14.6666 29.4247L14.6666 28.67C14.6666 28.6199 14.6865 28.5719 14.7219 28.5366Z" fill="#8F73FF"/>
        <path d="M9.45417 29.6686C9.48955 29.704 9.50943 29.752 9.50943 29.802C9.50943 29.8521 9.48955 29.9001 9.45417 29.9355C9.41879 29.9708 9.37079 29.9907 9.32075 29.9907L8.56604 29.9907C8.41591 29.9907 8.27194 29.9311 8.16579 29.8249C8.05964 29.7188 8 29.5748 8 29.4247L8 28.67C8 28.6199 8.01988 28.5719 8.05526 28.5366C8.09065 28.5012 8.13864 28.4813 8.18868 28.4813C8.23872 28.4813 8.28671 28.5012 8.3221 28.5366C8.35748 28.5719 8.37736 28.6199 8.37736 28.67L8.37736 29.4247C8.37736 29.4747 8.39724 29.5227 8.43262 29.5581C8.46801 29.5935 8.516 29.6134 8.56604 29.6134L9.32075 29.6134C9.37079 29.6134 9.41879 29.6332 9.45417 29.6686Z" fill="#8F73FF"/>
        <path d="M8.3221 12.1209C8.28671 12.1563 8.23872 12.1762 8.18868 12.1762C8.13864 12.1762 8.09065 12.1563 8.05526 12.1209C8.01988 12.0855 8 12.0375 8 11.9875L8 11.2328C8 11.0827 8.05964 10.9387 8.16579 10.8325C8.27194 10.7264 8.41591 10.6667 8.56604 10.6667L9.32075 10.6667C9.37079 10.6667 9.41879 10.6866 9.45417 10.722C9.48955 10.7574 9.50943 10.8054 9.50943 10.8554C9.50943 10.9055 9.48955 10.9535 9.45417 10.9888C9.41879 11.0242 9.37079 11.0441 9.32075 11.0441L8.56604 11.0441C8.516 11.0441 8.46801 11.064 8.43262 11.0994C8.39724 11.1348 8.37736 11.1827 8.37736 11.2328L8.37736 11.9875C8.37736 12.0375 8.35748 12.0855 8.3221 12.1209Z" fill="#8F73FF"/>
    </g>
    <defs>
        <clipPath id="clip0_382_23057">
            <rect width="40" height="40" fill="white" transform="translate(40) rotate(90)"/>
        </clipPath>
        <clipPath id="clip1_382_23057">
            <rect width="16.1837" height="1.61837" fill="white" transform="translate(12.1748 12.1738) rotate(90)"/>
        </clipPath>
        <clipPath id="clip2_382_23057">
            <rect width="3.23674" height="3.23674" fill="white" transform="translate(17.3262 14.1863) rotate(90)"/>
        </clipPath>
    </defs>
</svg>
