<svg width="438" height="523" viewBox="0 0 438 523" fill="none" xmlns="http://www.w3.org/2000/svg">
    <path d="M372.041 149.345C372.041 149.345 377.439 149.345 383.036 152.911C387.426 155.714 397.362 169.895 400.634 178.332C403.906 186.769 397.086 190.421 401.959 195.265C406.786 200.049 413.354 213.546 402.189 220.175C395.882 223.93 384.659 212.342 377.45 210.706C370.242 209.07 350.949 223.935 345.875 219.261C340.801 214.587 335.719 206.56 350.97 196.396C354.907 193.771 337.562 192.13 344.987 173.312C350.085 160.343 359.185 148.975 372.041 149.345Z" fill="#233862"/>
    <path d="M317.198 230.788C317.198 230.597 319.976 224.85 319.094 224.41C318.211 223.971 316.624 224.035 316.441 225.041C316.259 226.046 317.198 230.788 317.198 230.788Z" fill="#FFB27D"/>
    <path d="M358.688 159.364C358.688 159.364 372.289 145.663 380.917 158.192C380.917 158.192 386.245 156.645 388.573 167.6C390.949 178.777 387.318 185.611 383.478 183.511C381.01 182.17 379.147 186.477 379.147 186.477L358.688 159.364Z" fill="#233862"/>
    <path d="M338.489 263.572C325.533 258.798 313.055 236.626 313.055 236.626L317.126 233.759C320.529 238.736 335.842 248.294 335.842 248.294C336.19 244.1 336.697 240.294 337.325 236.845C341.575 213.415 351.297 206.472 353.909 205C354.121 204.875 354.34 204.764 354.566 204.667C354.566 204.667 354.566 204.839 354.539 205.166C354.501 205.871 354.418 207.292 354.271 209.239C353.268 223.753 349.301 267.562 338.489 263.572Z" fill="#FFB27D"/>
    <path d="M401.092 287.496C394.691 273.14 391.628 269.083 391.521 264.566C391.438 260.994 393.197 257.141 396.617 247.693C397.41 245.477 397.98 243.188 398.32 240.86C401.025 222.645 390.446 202.712 383.9 201.368C381.068 200.687 379.035 194.548 379.072 183.937L378.252 184.097L364.468 186.827C364.468 186.827 364.781 191.167 364.792 195.254C364.792 198.659 365.369 202.245 363.824 202.293C362.832 202.384 362.247 202.443 362.247 202.443C362.247 202.443 350.75 218.408 349.785 233.254C348.819 248.1 358.989 254.553 349.707 284.224C340.23 314.536 404.627 295.439 401.092 287.496Z" fill="#FFB27D"/>
    <path d="M364.469 186.828C364.469 186.828 364.783 191.167 364.793 195.254C372.509 195.037 376.593 188 378.256 184.098L364.469 186.828Z" fill="#E8945B"/>
    <path d="M379.68 182.606C379.68 182.606 383.724 176.219 384.695 170.758C385.386 166.856 383.399 152.402 368.872 154.486C365.947 154.891 363.15 155.948 360.687 157.578C357.534 159.723 352.983 164.306 358.07 176.921L359.406 181.196L379.68 182.606Z" fill="#233862"/>
    <path d="M361.893 190.708C361.893 190.708 380.145 191.011 380.159 179.641C380.172 168.27 382.535 160.651 370.883 159.978C359.23 159.305 356.959 163.641 356.031 167.436C355.103 171.231 357.144 190.338 361.893 190.708Z" fill="#FFB27D"/>
    <path d="M362.57 159.702C362.57 159.702 367.566 173.038 375.236 175.012C382.906 176.986 386.232 174.929 386.232 174.929C386.232 174.929 380.348 170.254 379.128 162.096C379.13 162.096 366.338 153.351 362.57 159.702Z" fill="#233862"/>
    <path d="M363.808 160.782C361.959 162.019 360.385 163.624 359.185 165.497C357.522 168.034 355.862 170.287 356.109 175.309C356.109 175.309 352.354 166.242 356.575 161.115C361.062 155.676 363.808 160.782 363.808 160.782Z" fill="#233862"/>
    <path d="M384.93 425.237C380.339 443.502 373.425 457.509 373.425 457.509L367.407 457.091C367.407 457.091 370.357 443.049 370.188 424.075C370.07 410.811 368.429 395.134 363.186 380.167C345.178 328.731 348.088 291.296 348.088 291.296L381.956 295.257L383.535 295.442C383.675 310.996 384.072 332.115 384.428 348.629C384.739 363.481 385.013 374.605 385.013 374.605C391.524 388.63 389.172 408.427 384.93 425.237Z" fill="#163560"/>
    <path d="M406.084 424.666C401.325 443.203 394.16 457.418 394.16 457.418L387.922 456.994C387.922 456.994 390.98 442.743 390.805 423.488C390.682 410.027 388.981 394.116 383.547 378.927C364.883 326.726 367.899 288.735 367.899 288.735L403.001 292.755L404.638 292.943C408.438 309.063 405.194 330.161 405.564 346.921C405.886 361.993 406.17 373.282 406.17 373.282C412.919 387.516 410.481 407.607 406.084 424.666Z" fill="#1B4175"/>
    <path d="M424.841 302.742L419.359 304.386C419.359 304.386 401.284 274.396 399.64 266.592C399.104 264.05 397.79 258.965 396.256 253.272C393.081 241.472 388.986 227.039 388.986 227.039L387.645 221.195L383.043 201.27C383.043 201.27 391.855 202.168 397.007 204.324C398.713 205.035 400.016 205.885 400.469 206.882C404.256 215.209 408.034 236.216 410.692 251.204C412.172 259.555 413.301 266.039 413.891 267.413C415.519 271.245 420.55 292.337 424.841 302.742Z" fill="#FFB27D"/>
    <path d="M405.396 297.853C405.455 299.011 405.396 299.936 405.182 300.599C404.452 302.897 401.942 303.945 395.876 303.318C392.167 302.932 390.513 296.718 389.778 291.416C387.552 299 384.433 303.259 380.392 304.152C374.511 305.461 344.845 309.068 342.903 294.964C340.758 279.456 347.165 251.992 347.516 237.183C346.728 232.653 346.368 228.058 346.443 223.46C346.69 212.913 350.088 206.782 352.469 204.404C356.674 202.795 363.346 202.323 363.32 202.366C362.818 203.261 361.118 208.456 361.402 211.111C362.276 219.347 370.775 218.456 378.246 213.476C383.768 209.797 386.887 201.778 386.887 201.778C386.887 201.778 397.912 202.674 400.494 206.895C405.445 214.986 409.304 236.44 412.396 251.538C404.9 255.668 398.351 254.44 396.319 253.893C398.976 271.276 404.994 289.939 405.396 297.853Z" fill="#F99746"/>
    <path d="M317.125 233.759C317.125 233.193 317.6 225.04 316.146 223.329C314.693 221.618 311.732 219.181 310.801 219.256C309.871 219.331 306.224 224.171 307.315 227.883C308.407 231.594 313.035 236.617 313.035 236.617L317.125 233.759Z" fill="#FFB27D"/>
    <path d="M323.779 223.794L315.332 226.325C315.197 226.364 315.053 226.348 314.929 226.281C314.806 226.215 314.714 226.102 314.672 225.969L309.845 209.859C309.806 209.724 309.822 209.58 309.889 209.457C309.955 209.333 310.068 209.241 310.202 209.199L318.641 206.673C318.776 206.635 318.92 206.65 319.043 206.716C319.166 206.782 319.259 206.894 319.301 207.027L324.128 223.139C324.165 223.272 324.15 223.414 324.085 223.536C324.02 223.658 323.911 223.75 323.779 223.794Z" fill="#8F73FF" fill-opacity="0.4"/>
    <path d="M321.59 224.451L313.928 226.746C313.81 226.782 313.686 226.794 313.563 226.782C313.44 226.77 313.32 226.733 313.212 226.675C313.103 226.616 313.006 226.537 312.928 226.441C312.85 226.345 312.792 226.234 312.757 226.116L308.165 210.792C308.13 210.674 308.117 210.55 308.13 210.427C308.142 210.304 308.178 210.184 308.237 210.075C308.296 209.966 308.375 209.87 308.471 209.792C308.567 209.714 308.677 209.656 308.796 209.62L316.46 207.325C316.578 207.289 316.702 207.277 316.825 207.29C316.948 207.302 317.067 207.339 317.175 207.398C317.284 207.456 317.38 207.535 317.458 207.631C317.536 207.727 317.594 207.837 317.629 207.955L322.223 223.281C322.294 223.52 322.267 223.778 322.148 223.997C322.03 224.216 321.829 224.379 321.59 224.451Z" fill="#8F73FF"/>
    <path d="M376.893 462.559H373.05C371.763 462.355 370.811 461.982 369.492 461.811C367.486 461.543 366.563 462.369 366.381 462.559L366.346 462.597H350.02C349.607 462.009 350.001 460.652 350.387 459.647C350.517 459.312 350.722 459.011 350.987 458.769C351.253 458.526 351.57 458.349 351.916 458.249C353.648 457.748 357.059 457.303 360.186 454.473C361.943 452.886 368.677 448.63 368.677 448.63H368.711C368.859 448.63 369.564 448.85 372.624 451.435C374.209 452.776 376.915 449.558 376.915 449.558C377.285 449.896 377.586 450.303 377.8 450.757C378.181 451.533 378.303 452.411 378.148 453.261C377.904 454.734 378.685 457.466 379.318 459.314C379.699 460.435 380.02 461.229 380.02 461.229C380.02 461.229 380.197 462.146 376.893 462.559Z" fill="#1A2D4C"/>
    <path d="M377.795 450.748C376.875 451.394 374.939 452.668 373.654 452.834C371.922 453.062 368.68 448.635 368.68 448.635H368.715C368.862 448.635 369.567 448.855 372.627 451.44C374.212 452.781 376.918 449.563 376.918 449.563C377.284 449.897 377.582 450.3 377.795 450.748Z" fill="#466AA5"/>
    <path d="M376.893 462.559H373.05C371.763 462.355 370.811 461.983 369.492 461.811C367.486 461.543 366.563 462.369 366.381 462.559L366.346 462.597H350.02C349.607 462.009 350.001 460.652 350.387 459.647C350.883 459.207 351.022 461.561 351.299 461.937C351.575 462.312 364.614 462.074 365.367 461.527C366.121 460.98 368.379 460.019 371.535 460.773C374.276 461.427 378.317 459.749 379.312 459.301C379.693 460.422 380.015 461.216 380.015 461.216C380.015 461.216 380.197 462.146 376.893 462.559Z" fill="#3B6096"/>
    <path d="M397.397 462.559H393.554C392.267 462.355 391.317 461.982 389.998 461.811C387.992 461.543 387.069 462.369 386.884 462.559L386.849 462.597H370.526C370.115 462.009 370.509 460.652 370.896 459.647C371.025 459.311 371.231 459.011 371.496 458.768C371.761 458.526 372.079 458.348 372.424 458.249C374.154 457.748 377.568 457.303 380.692 454.473C382.451 452.886 389.183 448.63 389.183 448.63H389.217C389.368 448.63 390.07 448.85 393.133 451.435C394.715 452.776 397.424 449.558 397.424 449.558C397.794 449.896 398.095 450.303 398.309 450.757C398.69 451.532 398.813 452.41 398.66 453.261C398.416 454.734 399.196 457.466 399.829 459.314C400.21 460.435 400.529 461.229 400.529 461.229C400.529 461.229 400.703 462.146 397.397 462.559Z" fill="#233862"/>
    <path d="M398.291 450.748C397.374 451.394 395.438 452.668 394.153 452.834C392.418 453.062 389.176 448.635 389.176 448.635H389.211C389.361 448.635 390.063 448.855 393.126 451.44C394.708 452.781 397.417 449.563 397.417 449.563C397.782 449.898 398.079 450.3 398.291 450.748Z" fill="#466AA5"/>
    <path d="M397.397 462.559H393.554C392.267 462.355 391.317 461.983 389.998 461.811C387.992 461.543 387.069 462.369 386.884 462.559L386.849 462.597H370.526C370.115 462.009 370.509 460.652 370.896 459.647C371.392 459.207 371.531 461.561 371.805 461.937C372.078 462.312 385.122 462.074 385.876 461.527C386.63 460.98 388.888 460.019 392.044 460.773C394.787 461.427 398.826 459.749 399.821 459.301C400.202 460.422 400.521 461.216 400.521 461.216C400.521 461.216 400.703 462.146 397.397 462.559Z" fill="#466AA5"/>
    <path d="M405.396 297.853C401.232 291.293 398.788 283.35 395.527 274.253C387.128 250.825 388.402 238.02 390.432 237.551C392.462 237.081 396.311 253.885 396.311 253.885C398.976 271.277 404.994 289.939 405.396 297.853Z" fill="#EF7E29"/>
    <path d="M349.338 240.007C348.691 239.97 348.049 239.873 347.42 239.717C347.281 239.685 347.152 239.648 346.999 239.605C345.402 239.12 343.899 238.367 342.555 237.376C339.766 235.384 336.68 231.964 336.68 231.964C342.113 207.772 352.478 204.409 352.478 204.409C352.478 204.409 355.785 240.35 349.338 240.007Z" fill="#F99746"/>
    <path d="M309.93 219.888C309.93 219.888 313.448 214.474 314.306 214.777C315.535 215.206 311.118 222.077 311.118 222.077C311.118 222.077 314.389 216.941 314.902 217.327C316.066 218.207 314.212 221.433 312.373 223.906C312.373 223.906 315.663 220.891 315.771 221.436C316.146 223.337 312.158 227.944 312.158 227.944L309.93 222.849V219.888Z" fill="#FFB27D"/>
    <path d="M307.289 224.909C307.458 224.246 308.316 211.32 308.684 212.546C309.051 213.771 309.928 220.551 309.928 220.551L307.289 224.909Z" fill="#FFB27D"/>
    <path d="M387.039 231.031L393.76 255.462C393.76 255.462 407.761 256.43 412.395 251.539L403.921 229.784L387.039 231.031Z" fill="#F99746"/>
    <path d="M347.419 239.718C347.28 239.686 347.151 239.648 346.998 239.605C345.401 239.121 343.898 238.367 342.555 237.377C342.944 236.481 343.505 235.671 344.207 234.993C345.848 233.464 347.205 227.237 347.771 227.752C348.337 228.267 347.419 239.718 347.419 239.718Z" fill="#EF7E29"/>
    <path d="M424.841 302.742C424.841 302.742 431.451 307.138 432.46 308.991C433.468 310.844 435.828 317.664 435.828 317.664C435.828 317.664 434.144 317.916 432.46 314.982C430.776 312.048 425.219 312.3 423.366 310.691C421.513 309.082 419.359 304.402 419.359 304.402L424.841 302.742Z" fill="#FFB27D"/>
    <path d="M420.07 305.837C420.07 305.837 421.17 311.013 422.519 312.541C423.868 314.07 425.718 316.583 426.474 315.91C427.231 315.236 425.632 309.594 425.632 309.594L420.07 305.837Z" fill="#FFB27D"/>
    <path d="M431.523 309.58C431.692 309.832 437.501 316.016 437.501 316.016C437.501 316.016 435.396 316.971 434.819 316.016C434.243 315.062 431.523 309.58 431.523 309.58Z" fill="#FFB27D"/>
    <g filter="url(#filter0_d_382_21707)">
        <path d="M257.231 45.1914V436.808C257.232 439.866 256.704 442.895 255.679 445.721C254.654 448.547 253.151 451.115 251.256 453.277C249.361 455.44 247.111 457.156 244.635 458.327C242.16 459.497 239.506 460.1 236.826 460.1H57.4667C54.7866 460.1 52.1326 459.498 49.6564 458.328C47.1802 457.157 44.9303 455.441 43.0352 453.279C41.1401 451.116 39.6368 448.548 38.6114 445.722C37.5859 442.896 37.0582 439.867 37.0586 436.808V45.1914C37.0586 39.014 39.2087 33.0896 43.036 28.7215C46.8633 24.3534 52.0541 21.8994 57.4667 21.8994H236.834C242.245 21.9027 247.433 24.3581 251.258 28.7258C255.083 33.0936 257.231 39.0161 257.231 45.1914Z" fill="white"/>
    </g>
    <path d="M240.108 244.355C240.102 259.049 236.617 273.532 229.939 286.621C223.26 299.709 213.578 311.03 201.684 319.659C201.244 319.98 200.797 320.296 200.343 320.605C187.112 329.835 171.709 335.468 155.645 336.952C139.581 338.437 123.407 335.722 108.707 329.074C107.261 328.416 105.831 327.721 104.417 326.988C89.2654 319.145 76.5602 307.29 67.6884 292.718C58.8166 278.145 54.1193 261.415 54.1094 244.355C54.1094 192.999 95.7411 151.367 147.102 151.367C198.463 151.367 240.108 192.996 240.108 244.355Z" fill="#8F73FF" fill-opacity="0.1"/>
    <path d="M225.352 294.634C219.076 304.363 211.052 312.844 201.685 319.647C201.245 319.969 200.798 320.285 200.344 320.594C189.29 318.449 175.879 304.345 164.503 298.41C162.651 297.406 160.679 296.64 158.635 296.131C152.038 294.634 140.509 299.864 128.832 305.278C121.86 308.497 114.847 311.8 108.789 313.774L108.633 313.828C103.173 315.587 98.5017 316.263 95.364 314.826C94.7533 314.551 94.1909 314.18 93.6986 313.726C91.5265 311.763 89.5588 309.585 87.8256 307.225C80.7618 297.407 79.0214 283.465 104.168 266.699C112.262 261.303 75.6155 263.092 90.8801 224.394C101.419 197.729 121.106 169.182 147.546 169.932C147.546 169.932 158.646 169.932 170.14 177.267C179.172 183.03 192.068 209.258 198.797 226.612C205.526 243.965 192.377 254.963 202.986 264.293C214.054 274.028 223.279 284.653 225.352 294.634Z" fill="#233862"/>
    <path d="M120.105 190.457C120.105 190.457 148.082 162.279 165.824 188.043C165.824 188.043 176.782 184.857 181.571 207.389C186.455 230.38 178.989 244.433 171.086 240.107C166.015 237.337 162.177 246.208 162.177 246.208L120.105 190.457Z" fill="#233862"/>
    <path d="M201.686 319.658C201.246 319.98 200.799 320.296 200.345 320.605C187.113 329.834 171.71 335.467 155.646 336.952C139.582 338.437 123.408 335.722 108.709 329.074C107.262 328.416 105.832 327.72 104.418 326.987C105.58 322.637 106.987 318.357 108.634 314.166L108.781 313.788C116.419 294.366 127.433 279.08 127.433 279.08C127.452 279.078 127.472 279.078 127.492 279.08H127.545L127.645 279.067H127.755C127.806 279.067 127.854 279.067 127.913 279.051C128.066 279.051 128.256 279.021 128.479 278.995C128.548 278.995 128.613 278.978 128.683 278.976L128.86 278.96L129.031 278.944H129.16H129.299C129.702 278.903 130.16 278.863 130.67 278.818C134.202 278.222 132.681 271.341 132.662 264.336C132.662 262.756 132.63 261.164 132.593 259.613L132.568 258.844C132.568 258.61 132.568 258.38 132.55 258.155C132.531 257.929 132.55 257.752 132.531 257.557C132.531 257.481 132.531 257.404 132.531 257.331C132.515 256.832 132.496 256.347 132.477 255.87C132.461 255.47 132.448 255.084 132.432 254.709C132.351 252.901 132.268 251.292 132.193 250.018C132.193 249.871 132.193 249.731 132.172 249.592C132.169 249.579 132.169 249.567 132.172 249.554C132.172 249.466 132.172 249.383 132.158 249.286C132.158 249.079 132.131 248.884 132.118 248.704C132.118 248.575 132.118 248.455 132.096 248.342C132.096 248.186 132.08 248.042 132.07 247.913C132.071 247.892 132.071 247.872 132.07 247.851C132.057 247.647 132.046 247.478 132.037 247.344C132.037 247.299 132.037 247.256 132.037 247.218L132.021 246.993L158.767 241.697L160.376 241.38L162.06 241.045V241.066C162.06 242.826 162.084 244.531 162.14 246.162C162.787 264.827 167.287 275.645 170.722 276.551C172.017 277.211 174.913 277.581 177.713 277.911C180.663 278.252 183.49 278.547 184.257 279.072C192.396 284.586 198.982 300.443 201.686 319.658Z" fill="#FFB27D"/>
    <path d="M131.992 246.966C131.992 246.966 132.638 255.891 132.657 264.296C148.525 263.851 156.911 249.375 160.346 241.354L131.992 246.966Z" fill="#E8945B"/>
    <path d="M163.282 238.267C163.282 238.267 171.595 225.126 173.593 213.895C175.017 205.874 170.933 176.144 141.058 180.427C135.038 181.261 129.282 183.435 124.214 186.79C117.73 191.17 108.368 200.628 118.834 226.572L121.554 235.333L163.282 238.267Z" fill="#233862"/>
    <path d="M126.703 254.926C126.703 254.926 164.247 255.546 164.266 232.163C164.285 208.781 169.155 193.109 145.188 191.725C121.221 190.341 116.555 199.261 114.648 207.062C112.741 214.863 116.938 254.165 126.703 254.926Z" fill="#FFB27D"/>
    <path d="M128.094 191.153C128.094 191.153 138.37 218.588 154.144 222.643C169.919 226.698 176.762 222.474 176.762 222.474C176.762 222.474 164.662 212.862 162.152 196.083C162.152 196.083 135.847 178.096 128.094 191.153Z" fill="#233862"/>
    <path d="M130.65 193.379C130.65 193.379 125.479 196.466 121.146 203.071C117.721 208.293 114.307 212.924 114.814 223.254C114.814 223.254 107.072 204.608 115.774 194.061C124.991 182.875 130.65 193.379 130.65 193.379Z" fill="#233862"/>
    <path d="M206.113 288.231C199.409 279.29 177.708 277.885 177.708 277.885C177.547 278.314 173.015 290.366 164.517 298.411C163.228 299.639 161.839 300.757 160.363 301.752C148.295 309.798 134.886 312.659 128.846 305.279C127.205 303.273 126.1 300.508 125.714 296.885C125.135 291.43 128.632 280.746 129.662 278.901C129.678 278.877 129.533 278.88 129.31 278.901H129.171H129.042L128.871 278.917L128.694 278.933C128.624 278.933 128.56 278.933 128.49 278.952C128.291 278.968 128.093 278.99 127.924 279.008C127.865 279.008 127.817 279.008 127.766 279.025H127.656L127.557 279.038H127.503C127.483 279.035 127.464 279.035 127.444 279.038C121.861 279.773 110.656 280.99 106.733 283.503C106.507 283.618 96.5822 288.8 87.8557 307.188C86.9207 309.155 86.0026 311.284 85.1016 313.576C90.9601 318.834 97.4637 323.324 104.456 326.94C105.865 327.671 107.295 328.366 108.747 329.026C123.446 335.674 139.62 338.389 155.684 336.904C171.748 335.42 187.151 329.786 200.383 320.557C200.829 320.25 201.276 319.934 201.723 319.61C206.521 316.129 210.976 312.197 215.028 307.87C212.381 299.607 209.463 292.704 206.113 288.231Z" fill="#F99746"/>
    <g opacity="0.5">
        <path d="M117.984 208.467C117.984 208.059 118.105 207.66 118.332 207.32C118.559 206.98 118.882 206.716 119.259 206.56C119.636 206.403 120.052 206.362 120.452 206.442C120.853 206.522 121.221 206.718 121.509 207.007C121.798 207.296 121.995 207.664 122.075 208.064C122.154 208.465 122.113 208.88 121.957 209.258C121.801 209.635 121.536 209.957 121.197 210.184C120.857 210.411 120.458 210.532 120.049 210.532C119.778 210.532 119.51 210.479 119.259 210.375C119.009 210.271 118.781 210.119 118.589 209.927C118.397 209.736 118.245 209.508 118.142 209.258C118.038 209.007 117.984 208.738 117.984 208.467Z" fill="white"/>
        <path d="M117.984 235.69C117.984 235.282 118.105 234.882 118.332 234.543C118.559 234.203 118.882 233.938 119.259 233.782C119.636 233.626 120.052 233.585 120.452 233.665C120.853 233.744 121.221 233.941 121.509 234.23C121.798 234.519 121.995 234.887 122.075 235.287C122.154 235.688 122.113 236.103 121.957 236.48C121.801 236.858 121.536 237.18 121.197 237.407C120.857 237.634 120.458 237.755 120.049 237.755C119.778 237.755 119.51 237.701 119.259 237.598C119.009 237.494 118.781 237.342 118.589 237.15C118.397 236.958 118.245 236.731 118.142 236.48C118.038 236.23 117.984 235.961 117.984 235.69Z" fill="white"/>
        <path d="M117.984 222.573C117.984 222.164 118.105 221.765 118.332 221.426C118.559 221.086 118.882 220.821 119.259 220.665C119.636 220.509 120.052 220.468 120.452 220.547C120.853 220.627 121.221 220.824 121.509 221.113C121.798 221.401 121.995 221.769 122.075 222.17C122.154 222.57 122.113 222.986 121.957 223.363C121.801 223.74 121.536 224.063 121.197 224.29C120.857 224.517 120.458 224.638 120.049 224.638C119.778 224.638 119.51 224.584 119.259 224.481C119.009 224.377 118.781 224.225 118.589 224.033C118.397 223.841 118.245 223.614 118.142 223.363C118.038 223.112 117.984 222.844 117.984 222.573Z" fill="white"/>
        <path d="M102.719 222.573C102.719 222.164 102.84 221.765 103.067 221.426C103.294 221.086 103.616 220.821 103.994 220.665C104.371 220.509 104.786 220.468 105.187 220.547C105.587 220.627 105.955 220.824 106.244 221.113C106.533 221.401 106.729 221.769 106.809 222.17C106.889 222.57 106.848 222.986 106.691 223.363C106.535 223.74 106.271 224.063 105.931 224.29C105.591 224.517 105.192 224.638 104.784 224.638C104.236 224.638 103.711 224.42 103.324 224.033C102.936 223.646 102.719 223.12 102.719 222.573Z" fill="white"/>
        <path d="M134.813 208.467C134.813 208.059 134.934 207.659 135.161 207.32C135.388 206.98 135.71 206.715 136.088 206.559C136.465 206.403 136.881 206.362 137.281 206.442C137.682 206.522 138.05 206.719 138.339 207.008C138.627 207.297 138.824 207.665 138.903 208.066C138.982 208.467 138.941 208.882 138.784 209.259C138.628 209.637 138.363 209.959 138.023 210.186C137.683 210.412 137.283 210.533 136.875 210.532C136.604 210.532 136.335 210.479 136.085 210.375C135.835 210.271 135.607 210.119 135.416 209.927C135.224 209.735 135.072 209.508 134.969 209.257C134.865 209.007 134.812 208.738 134.813 208.467Z" fill="white"/>
        <path d="M134.813 222.573C134.813 222.164 134.934 221.765 135.161 221.425C135.388 221.086 135.71 220.821 136.088 220.665C136.465 220.509 136.881 220.468 137.281 220.548C137.682 220.628 138.05 220.825 138.339 221.114C138.627 221.403 138.824 221.771 138.903 222.172C138.982 222.572 138.941 222.988 138.784 223.365C138.628 223.742 138.363 224.064 138.023 224.291C137.683 224.518 137.283 224.638 136.875 224.638C136.604 224.638 136.335 224.584 136.085 224.48C135.835 224.377 135.607 224.225 135.416 224.033C135.224 223.841 135.072 223.613 134.969 223.363C134.865 223.112 134.812 222.844 134.813 222.573Z" fill="white"/>
        <path d="M134.813 235.69C134.813 235.281 134.934 234.882 135.161 234.542C135.388 234.203 135.71 233.938 136.088 233.782C136.465 233.626 136.881 233.585 137.281 233.665C137.682 233.745 138.05 233.942 138.339 234.231C138.627 234.52 138.824 234.888 138.903 235.289C138.982 235.689 138.941 236.105 138.784 236.482C138.628 236.859 138.363 237.182 138.023 237.408C137.683 237.635 137.283 237.755 136.875 237.755C136.604 237.755 136.335 237.701 136.085 237.598C135.835 237.494 135.607 237.342 135.416 237.15C135.224 236.958 135.072 236.731 134.969 236.48C134.865 236.229 134.812 235.961 134.813 235.69Z" fill="white"/>
        <path d="M134.813 249.581C134.813 249.172 134.934 248.773 135.161 248.433C135.388 248.093 135.71 247.829 136.088 247.673C136.465 247.516 136.881 247.476 137.281 247.555C137.682 247.635 138.05 247.832 138.339 248.121C138.627 248.41 138.824 248.779 138.903 249.179C138.982 249.58 138.941 249.995 138.784 250.373C138.628 250.75 138.363 251.072 138.023 251.299C137.683 251.525 137.283 251.646 136.875 251.646C136.604 251.646 136.335 251.592 136.085 251.488C135.835 251.385 135.607 251.232 135.416 251.041C135.224 250.849 135.072 250.621 134.969 250.371C134.865 250.12 134.812 249.852 134.813 249.581Z" fill="white"/>
        <path d="M152.301 222.573C152.301 222.164 152.422 221.765 152.649 221.426C152.876 221.086 153.198 220.821 153.576 220.665C153.953 220.509 154.368 220.468 154.769 220.547C155.169 220.627 155.537 220.824 155.826 221.113C156.115 221.401 156.311 221.769 156.391 222.17C156.471 222.57 156.43 222.986 156.274 223.363C156.117 223.74 155.853 224.063 155.513 224.29C155.173 224.517 154.774 224.638 154.366 224.638C153.818 224.638 153.293 224.42 152.906 224.033C152.518 223.646 152.301 223.12 152.301 222.573Z" fill="white"/>
        <path d="M164.754 222.573C164.754 222.164 164.875 221.765 165.102 221.426C165.329 221.086 165.651 220.821 166.029 220.665C166.406 220.509 166.821 220.468 167.222 220.547C167.622 220.627 167.99 220.824 168.279 221.113C168.568 221.401 168.764 221.769 168.844 222.17C168.924 222.57 168.883 222.986 168.727 223.363C168.57 223.74 168.306 224.063 167.966 224.29C167.627 224.517 167.227 224.638 166.819 224.638C166.271 224.638 165.746 224.42 165.359 224.033C164.971 223.646 164.754 223.12 164.754 222.573Z" fill="white"/>
        <path d="M152.301 235.69C152.301 235.282 152.422 234.882 152.649 234.543C152.876 234.203 153.198 233.938 153.576 233.782C153.953 233.626 154.368 233.585 154.769 233.665C155.169 233.744 155.537 233.941 155.826 234.23C156.115 234.519 156.311 234.887 156.391 235.287C156.471 235.688 156.43 236.103 156.274 236.48C156.117 236.858 155.853 237.18 155.513 237.407C155.173 237.634 154.774 237.755 154.366 237.755C154.095 237.755 153.826 237.701 153.576 237.598C153.325 237.494 153.097 237.342 152.906 237.15C152.714 236.958 152.562 236.731 152.458 236.48C152.354 236.23 152.301 235.961 152.301 235.69Z" fill="white"/>
        <path d="M134.813 194.361C134.813 193.952 134.934 193.553 135.161 193.213C135.388 192.874 135.71 192.609 136.088 192.453C136.465 192.297 136.881 192.256 137.281 192.336C137.682 192.416 138.05 192.613 138.339 192.902C138.627 193.191 138.824 193.559 138.903 193.96C138.982 194.36 138.941 194.776 138.784 195.153C138.628 195.53 138.363 195.853 138.023 196.079C137.683 196.306 137.283 196.426 136.875 196.426C136.604 196.426 136.335 196.372 136.085 196.269C135.835 196.165 135.607 196.013 135.416 195.821C135.224 195.629 135.072 195.401 134.969 195.151C134.865 194.9 134.812 194.632 134.813 194.361Z" fill="white"/>
        <path d="M151.641 208.467C151.641 208.059 151.762 207.66 151.989 207.32C152.216 206.98 152.538 206.716 152.915 206.56C153.293 206.403 153.708 206.362 154.108 206.442C154.509 206.522 154.877 206.718 155.166 207.007C155.455 207.296 155.651 207.664 155.731 208.064C155.811 208.465 155.77 208.88 155.613 209.258C155.457 209.635 155.192 209.957 154.853 210.184C154.513 210.411 154.114 210.532 153.706 210.532C153.158 210.532 152.633 210.315 152.245 209.927C151.858 209.54 151.641 209.015 151.641 208.467Z" fill="white"/>
        <path d="M119.781 236.237V208.467H120.315V235.143L136.609 222.442V194.361H137.146V222.705L119.781 236.237Z" fill="white"/>
        <path d="M136.873 249.936L119.302 235.422H136.607V222.842H119.31L136.873 208.121L154.631 222.445V235.02L166.45 222.571L153.521 208.663L136.875 194.718L120.219 208.682L105.171 222.568L119.326 235.062L118.972 235.465L104.375 222.579L119.865 208.282L136.875 194.023L153.902 208.282L167.185 222.573L154.631 235.795V235.955H154.457L136.873 249.936ZM120.782 235.958L136.873 249.249L153.591 235.958H120.782ZM137.141 235.422H154.092V222.702L136.878 208.819L120.787 222.311H137.146L137.141 235.422Z" fill="white"/>
        <path d="M137.146 249.592H136.609V235.555L153.054 223.225L153.376 223.654L137.146 235.824V249.592Z" fill="white"/>
        <path d="M118.586 222.305H106.078V222.841H118.586V222.305Z" fill="white"/>
        <path d="M153.214 222.305H138.941V222.841H153.214V222.305Z" fill="white"/>
        <path d="M154.623 221.723L153.465 208.736H120.93V208.199H153.953L155.157 221.675L154.623 221.723Z" fill="white"/>
        <path d="M154.205 235.904L136.449 222.586L153.537 208.263L153.881 208.673L137.31 222.562L154.527 235.475L154.205 235.904Z" fill="white"/>
        <path d="M120.199 208.224L119.867 208.646L136.698 221.876L137.03 221.454L120.199 208.224Z" fill="white"/>
        <path d="M167.493 222.305H154.363V222.841H167.493V222.305Z" fill="white"/>
    </g>
    <path d="M86.2727 198.308H81.7539V184.486H96.8093V189.002H86.2727V198.308Z" fill="#86FF00"/>
    <path d="M209.49 198.926H204.971V188.386H195.668V183.87H209.49V198.926Z" fill="#86FF00"/>
    <path d="M209.489 286.893H194.433V282.377H204.97V273.073H209.489V286.893Z" fill="#86FF00"/>
    <path d="M95.5757 287.51H81.7539V272.457H86.2727V282.994H95.5757V287.51Z" fill="#86FF00"/>
    <path d="M225.657 428.47V458.917C225.657 459.289 225.657 459.665 225.633 460.032H69.739C69.7229 459.665 69.7148 459.289 69.7148 458.917V428.47C69.7148 414.584 78.68 403.222 89.635 403.222H205.739C216.692 403.222 225.657 414.584 225.657 428.47Z" fill="#8A2943"/>
    <g filter="url(#filter1_d_382_21707)">
        <path d="M236.917 462.513H57.3693C51.273 462.505 45.4284 459.762 41.1177 454.885C36.807 450.008 34.3821 443.395 34.375 436.498V47.8934C34.3871 40.9999 36.8142 34.3929 41.1243 29.5205C45.4345 24.648 51.2762 21.9074 57.3693 21.8994H236.917C243.013 21.9074 248.858 24.6509 253.169 29.528C257.479 34.405 259.904 41.0175 259.911 47.9147V436.519C259.899 443.413 257.472 450.02 253.162 454.892C248.852 459.765 243.01 462.505 236.917 462.513ZM57.3693 27.686C52.6326 27.6924 48.0915 29.8241 44.7422 33.6135C41.3929 37.4029 39.5087 42.5405 39.503 47.8995V436.504C39.5087 441.863 41.3929 447.001 44.7422 450.79C48.0915 454.579 52.6326 456.711 57.3693 456.718H236.917C241.654 456.711 246.195 454.579 249.544 450.79C252.894 447.001 254.778 441.863 254.783 436.504V47.8995C254.778 42.5405 252.894 37.4029 249.544 33.6135C246.195 29.8241 241.654 27.6924 236.917 27.686H57.3693Z" fill="#D2C7FF"/>
        <path d="M236.917 463.263H236.918C243.242 463.255 249.282 460.41 253.724 455.389C258.163 450.371 260.649 443.585 260.661 436.521V436.519V47.9147V47.9139C260.654 40.8459 258.17 34.0539 253.731 29.0313C249.289 24.0057 243.245 21.1578 236.918 21.1494H236.917L57.3693 21.1494L57.3683 21.1494C51.0449 21.1577 45.004 24.0027 40.5626 29.0235C36.1238 34.0414 33.6374 40.8278 33.625 47.8921V47.8934L33.625 436.498L33.625 436.499C33.6323 443.567 36.1164 450.359 40.5558 455.381C44.9977 460.407 51.0415 463.255 57.3683 463.263H57.3693H236.917ZM45.3042 34.1102C48.5223 30.4693 52.8641 28.4421 57.3703 28.436H236.916C241.422 28.4421 245.764 30.4693 248.982 34.1102C252.203 37.754 254.028 42.7121 254.033 47.9003V436.503C254.028 441.691 252.203 446.65 248.982 450.293C245.764 453.934 241.422 455.961 236.916 455.968H57.3703C52.8641 455.961 48.5223 453.934 45.3042 450.293C42.0834 446.65 40.2585 441.691 40.253 436.503V47.9003C40.2585 42.7121 42.0834 37.754 45.3042 34.1102Z" stroke="#D2C7FF" stroke-width="1.5"/>
    </g>
    <path d="M146.777 439.407L136.742 430.423L139.561 427.272L146.043 433.075L155.013 420.243L158.478 422.665L146.777 439.407Z" fill="white"/>
    <path d="M147.612 448.922C143.835 448.922 140.143 447.802 137.003 445.704C133.862 443.605 131.415 440.623 129.969 437.133C128.524 433.644 128.146 429.804 128.883 426.1C129.619 422.395 131.438 418.993 134.109 416.322C136.78 413.651 140.182 411.832 143.887 411.095C147.591 410.359 151.431 410.737 154.92 412.182C158.41 413.628 161.393 416.075 163.491 419.216C165.589 422.356 166.709 426.048 166.709 429.825C166.704 434.889 164.691 439.743 161.11 443.323C157.53 446.904 152.676 448.917 147.612 448.922ZM147.612 411.496C143.987 411.496 140.443 412.571 137.429 414.585C134.415 416.599 132.065 419.461 130.678 422.811C129.291 426.16 128.928 429.846 129.635 433.401C130.342 436.957 132.088 440.223 134.651 442.787C137.215 445.35 140.481 447.096 144.036 447.803C147.592 448.51 151.278 448.147 154.627 446.76C157.976 445.373 160.839 443.023 162.853 440.009C164.867 436.995 165.942 433.451 165.942 429.825C165.937 424.966 164.004 420.307 160.567 416.87C157.131 413.434 152.472 411.501 147.612 411.496Z" fill="white"/>
    <path d="M220.616 358.544H76.0586V359.837H220.616V358.544Z" fill="#EBF3FA"/>
    <path d="M71.3281 359.193C71.3281 358.257 71.6057 357.342 72.1258 356.564C72.6459 355.785 73.3852 355.179 74.2501 354.82C75.115 354.462 76.0667 354.368 76.9848 354.551C77.903 354.734 78.7464 355.184 79.4084 355.846C80.0703 356.508 80.5212 357.352 80.7038 358.27C80.8864 359.188 80.7927 360.14 80.4344 361.005C80.0762 361.87 79.4695 362.609 78.6911 363.129C77.9127 363.649 76.9976 363.927 76.0614 363.927C74.8061 363.927 73.6021 363.428 72.7145 362.54C71.8268 361.653 71.3281 360.449 71.3281 359.193Z" fill="#8A2943"/>
    <path d="M141.992 359.193C141.992 357.938 142.363 356.71 143.061 355.666C143.758 354.622 144.749 353.808 145.909 353.327C147.069 352.846 148.345 352.72 149.577 352.964C150.808 353.209 151.939 353.813 152.828 354.701C153.716 355.589 154.32 356.72 154.565 357.951C154.811 359.183 154.685 360.459 154.205 361.619C153.724 362.779 152.911 363.771 151.867 364.468C150.823 365.166 149.595 365.538 148.34 365.538C146.657 365.538 145.043 364.87 143.852 363.68C142.662 362.49 141.993 360.876 141.992 359.193Z" fill="#8A2943"/>
    <path d="M215.887 359.193C215.887 358.257 216.164 357.342 216.684 356.564C217.205 355.785 217.944 355.179 218.809 354.82C219.674 354.462 220.625 354.368 221.543 354.551C222.462 354.734 223.305 355.184 223.967 355.846C224.629 356.508 225.08 357.352 225.262 358.27C225.445 359.188 225.351 360.14 224.993 361.005C224.635 361.87 224.028 362.609 223.25 363.129C222.471 363.649 221.556 363.927 220.62 363.927C219.998 363.927 219.383 363.804 218.809 363.566C218.234 363.328 217.713 362.98 217.273 362.54C216.834 362.101 216.485 361.579 216.247 361.005C216.009 360.43 215.887 359.815 215.887 359.193Z" fill="#EBF3FA"/>
    <path d="M148.238 358.544H76.0586V359.837H148.238V358.544Z" fill="#8A2943"/>
    <path d="M54.9453 129.13V128.484H69.4268L78.2525 111.739H78.4456C85.3243 111.739 95.7242 111.672 96.7755 111.492L114.743 93.5244H141.025V94.1707H115.011L97.2582 111.924C97.108 112.224 95.9951 112.283 87.7058 112.348C83.6375 112.38 79.5693 112.385 78.6441 112.385L69.8318 129.13H54.9453Z" fill="#EBF3FA"/>
    <path d="M100.149 114.57V110.092L96.2685 107.853L92.3906 110.092V114.57L96.2685 116.81L100.149 114.57Z" fill="#EBF3FA"/>
    <path d="M118.954 96.7471V92.2686L115.073 90.0293L111.195 92.2686V96.7471L115.073 98.9864L118.954 96.7471Z" fill="#EBF3FA"/>
    <path d="M128.793 126.566V122.088L124.913 119.849L121.035 122.088V126.566L124.913 128.806L128.793 126.566Z" fill="#EBF3FA"/>
    <path d="M74.0994 131.021V126.545L70.2216 124.306L66.3438 126.545V131.021L70.2216 133.26L74.0994 131.021Z" fill="#EBF3FA"/>
    <path d="M54.6848 129.99V127.577L52.593 126.37L50.5039 127.577V129.99L52.593 131.197L54.6848 129.99Z" fill="#EBF3FA"/>
    <path d="M143.114 95.4124V92.9988L141.023 91.792L138.934 92.9988V95.4124L141.023 96.6192L143.114 95.4124Z" fill="#EBF3FA"/>
    <path d="M96.7422 112.006L97.1739 111.526L111.379 124.273H122.222V124.919H111.13L111.039 124.836L96.7422 112.006Z" fill="#EBF3FA"/>
    <path d="M185.428 126.725H192.66L196.275 132.987L192.66 139.248H185.428L181.812 132.987L185.428 126.725Z" fill="#EBF3FA"/>
    <path d="M146.5 109.017H150.112L151.917 112.144L150.112 115.27H146.5L144.695 112.144L146.5 109.017Z" fill="#EBF3FA"/>
    <path d="M163.551 130.058H167.161L168.968 133.182L167.161 136.309H163.551L161.746 133.182L163.551 130.058Z" fill="#EBF3FA"/>
    <path d="M219.863 147.148H223.476L225.281 150.275L223.476 153.402H219.863L218.059 150.275L219.863 147.148Z" fill="#EBF3FA"/>
    <path d="M233.367 118.017H236.977L238.782 121.144L236.977 124.27H233.367L231.562 121.144L233.367 118.017Z" fill="#EBF3FA"/>
    <path d="M185.212 126.866L185.649 126.582L175.922 111.645H150.438V112.167H175.641L185.212 126.866Z" fill="#EBF3FA"/>
    <path d="M219.834 147.776L220.311 147.566L213.848 132.726H196.277V133.246H213.508L219.834 147.776Z" fill="#EBF3FA"/>
    <path d="M213.889 133.139L222.336 121.404H234.994V120.884H222.068L213.465 132.834L213.889 133.139Z" fill="#EBF3FA"/>
    <path d="M181.815 132.726H167.02V133.246H181.815V132.726Z" fill="#EBF3FA"/>
    <defs>
        <filter id="filter0_d_382_21707" x="5.05859" y="1.89941" width="298.173" height="516.2" filterUnits="userSpaceOnUse" color-interpolation-filters="sRGB">
            <feFlood flood-opacity="0" result="BackgroundImageFix"/>
            <feColorMatrix in="SourceAlpha" type="matrix" values="0 0 0 0 0 0 0 0 0 0 0 0 0 0 0 0 0 0 127 0" result="hardAlpha"/>
            <feOffset dx="7" dy="19"/>
            <feGaussianBlur stdDeviation="19.5"/>
            <feComposite in2="hardAlpha" operator="out"/>
            <feColorMatrix type="matrix" values="0 0 0 0 0.560784 0 0 0 0 0.45098 0 0 0 0 1 0 0 0 0.1 0"/>
            <feBlend mode="normal" in2="BackgroundImageFix" result="effect1_dropShadow_382_21707"/>
            <feBlend mode="normal" in="SourceGraphic" in2="effect1_dropShadow_382_21707" result="shape"/>
        </filter>
        <filter id="filter1_d_382_21707" x="0.875" y="0.399414" width="306.536" height="521.614" filterUnits="userSpaceOnUse" color-interpolation-filters="sRGB">
            <feFlood flood-opacity="0" result="BackgroundImageFix"/>
            <feColorMatrix in="SourceAlpha" type="matrix" values="0 0 0 0 0 0 0 0 0 0 0 0 0 0 0 0 0 0 127 0" result="hardAlpha"/>
            <feOffset dx="7" dy="19"/>
            <feGaussianBlur stdDeviation="19.5"/>
            <feComposite in2="hardAlpha" operator="out"/>
            <feColorMatrix type="matrix" values="0 0 0 0 0.560784 0 0 0 0 0.45098 0 0 0 0 1 0 0 0 0.1 0"/>
            <feBlend mode="normal" in2="BackgroundImageFix" result="effect1_dropShadow_382_21707"/>
            <feBlend mode="normal" in="SourceGraphic" in2="effect1_dropShadow_382_21707" result="shape"/>
        </filter>
    </defs>
</svg>
