<svg width="50" height="50" viewBox="0 0 50 50" fill="none" xmlns="http://www.w3.org/2000/svg">
    <path d="M14.5833 8.33341V41.6667H35.4167V8.33341H14.5833ZM12.5 4.16675H37.5C38.0525 4.16675 38.5824 4.38624 38.9731 4.77694C39.3638 5.16764 39.5833 5.69755 39.5833 6.25008V43.7501C39.5833 44.3026 39.3638 44.8325 38.9731 45.2232C38.5824 45.6139 38.0525 45.8334 37.5 45.8334H12.5C11.9475 45.8334 11.4176 45.6139 11.0269 45.2232C10.6362 44.8325 10.4167 44.3026 10.4167 43.7501V6.25008C10.4167 5.69755 10.6362 5.16764 11.0269 4.77694C11.4176 4.38624 11.9475 4.16675 12.5 4.16675ZM25 35.4167C25.5525 35.4167 26.0824 35.6362 26.4731 36.0269C26.8638 36.4176 27.0833 36.9475 27.0833 37.5001C27.0833 38.0526 26.8638 38.5825 26.4731 38.9732C26.0824 39.3639 25.5525 39.5834 25 39.5834C24.4475 39.5834 23.9176 39.3639 23.5269 38.9732C23.1362 38.5825 22.9167 38.0526 22.9167 37.5001C22.9167 36.9475 23.1362 36.4176 23.5269 36.0269C23.9176 35.6362 24.4475 35.4167 25 35.4167Z" fill="#8F73FF"/>
</svg>
