<svg width="50" height="50" viewBox="0 0 50 50" fill="none" xmlns="http://www.w3.org/2000/svg">
    <rect x="0.5" y="0.5" width="49" height="49" rx="24.5" fill="white"/>
    <path fill-rule="evenodd" clip-rule="evenodd" d="M42.4969 25.0012V25.5494L42.495 25.779V25.9524V26.1L42.493 26.2289L42.4911 26.346L42.4892 26.4538L42.4872 26.5545L42.4853 26.6482L42.4833 26.7373L42.4795 26.8216L42.4756 26.9036L42.4717 26.9809L42.4698 27.0536L42.4659 27.1262L42.4601 27.1965L42.4563 27.2621L42.4505 27.3277L42.4466 27.3909L42.4408 27.4519L42.435 27.5104L42.4292 27.569L42.4234 27.6252L42.4156 27.6815L42.4098 27.7354L42.4021 27.7892L42.3943 27.8408L42.3866 27.8923L42.3788 27.9415L42.3711 27.9907L42.3614 28.0376L42.3537 28.0845L42.344 28.1313L42.3343 28.1758L42.3247 28.2203L42.315 28.2649L42.3053 28.307L42.2937 28.3492L42.284 28.3914L42.2724 28.4312L42.2608 28.4734L42.2492 28.5132L42.2376 28.5507L42.226 28.5905L42.2124 28.628L42.1989 28.6655L42.1873 28.7006L42.1737 28.7381L42.1602 28.7733L42.1447 28.8084L42.1311 28.8436L42.1157 28.8764L42.1021 28.9115L42.0866 28.9443L42.0712 28.9771L42.0537 29.0076L42.0383 29.0404L42.0228 29.0708L42.0054 29.1036L41.9879 29.1341L41.9705 29.1622L41.9531 29.1927L41.9338 29.2208L41.9163 29.2512L41.897 29.2793L41.8796 29.3075L41.8602 29.3332L41.8389 29.3613L41.8196 29.3871L41.8002 29.4152L41.7789 29.441L41.7577 29.4668L41.7364 29.4925L41.7151 29.516L41.6938 29.5417L41.6706 29.5652L41.6474 29.5886L41.6261 29.612L41.6028 29.6355L41.5777 29.6589L41.5545 29.68L41.5293 29.7034L41.5041 29.7245L41.479 29.7456L41.4538 29.7667L41.4287 29.7878L41.4016 29.8088L41.3764 29.8276L41.3493 29.8487L41.3222 29.8674L41.2932 29.8862L41.2661 29.9049L41.2371 29.9236L41.2081 29.9424L41.179 29.9611L41.1481 29.9775L41.119 29.9963L41.0881 30.0127L41.0571 30.0291L41.0242 30.0455L40.9933 30.0619L40.9604 30.0759L40.9275 30.0923L40.8946 30.1087L40.8597 30.1228L40.8249 30.1368L40.7901 30.1509L40.7552 30.165L40.7204 30.179L40.6836 30.1931L40.6469 30.2048L40.6082 30.2188L40.5695 30.2306L40.5308 30.2423L40.492 30.254L40.4514 30.2657L40.4108 30.2774L40.3701 30.2891L40.3295 30.2985L40.285 30.3102L40.2424 30.3196L40.1979 30.329L40.1534 30.3407L40.1069 30.3477L40.0605 30.3571L40.0141 30.3665L39.9657 30.3758L39.9173 30.3829L39.867 30.3922L39.8147 30.3993L39.7625 30.4063L39.7102 30.4133L39.6541 30.4203L39.598 30.4274L39.5419 30.4321L39.4838 30.4391L39.4238 30.4438L39.3619 30.4508L39.298 30.4555L39.2322 30.4602L39.1645 30.4649L39.0948 30.4695L39.0232 30.4719L38.9478 30.4766L38.8704 30.4789L38.7891 30.4836L38.7039 30.4859L38.6149 30.4883L38.5201 30.4906L38.4195 30.493L38.3111 30.4953L38.195 30.4977H38.0653H37.9183L37.7441 30.5H37.5196H34.3711H33.6822H33.4461H33.2661L33.1151 30.4977H32.9836L32.8636 30.4953L32.7552 30.493L32.6526 30.4906L32.5578 30.4883L32.4669 30.4859L32.3817 30.4836L32.3004 30.4813L32.2211 30.4766L32.1476 30.4742L32.074 30.4695L32.0044 30.4649L31.9366 30.4602L31.8708 30.4555L31.807 30.4508L31.745 30.4461L31.685 30.4391L31.6251 30.4344L31.5689 30.4274L31.5128 30.4203L31.4567 30.4133L31.4044 30.4063L31.3522 30.3993L31.2999 30.3922L31.2496 30.3852L31.2013 30.3758L31.1529 30.3688L31.1045 30.3594L31.0581 30.3501L31.0116 30.3407L30.9671 30.3313L30.9226 30.3219L30.88 30.3126L30.8374 30.3009L30.7949 30.2915L30.7523 30.2798L30.7117 30.2681L30.673 30.2563L30.6323 30.2446L30.5936 30.2329L30.5549 30.2212L30.5181 30.2071L30.4814 30.1954L30.4446 30.1814L30.4078 30.1673L30.373 30.1532L30.3382 30.1392L30.3033 30.1251L30.2704 30.1111L30.2356 30.0947L30.2027 30.0806L30.1698 30.0642L30.1388 30.0478L30.1059 30.0314L30.075 30.015L30.044 29.9986L30.015 29.9799L29.984 29.9635L29.955 29.9447L29.926 29.9283L29.8969 29.9096L29.8699 29.8908L29.8408 29.8721L29.8137 29.851L29.7866 29.8323L29.7595 29.8112L29.7344 29.7924L29.7073 29.7714L29.6821 29.7503L29.657 29.7292L29.6318 29.7058L29.6086 29.6847L29.5834 29.6612L29.5602 29.6401L29.537 29.6167L29.5138 29.5933L29.4906 29.5699L29.4693 29.5441L29.446 29.5207L29.4248 29.4949L29.4035 29.4715L29.3822 29.4457L29.3628 29.4199L29.3415 29.3918L29.3222 29.366L29.3028 29.3379L29.2835 29.3121L29.2641 29.284L29.2448 29.2559L29.2254 29.2255L29.208 29.1973L29.1906 29.1669L29.1732 29.1388L29.1558 29.1083L29.1384 29.0755L29.1229 29.045L29.1055 29.0146L29.09 28.9818L29.0745 28.949L29.059 28.9162L29.0435 28.8834L29.03 28.8482L29.0145 28.8131L29.001 28.778L28.9874 28.7428L28.9739 28.7077L28.9603 28.6702L28.9468 28.6327L28.9352 28.5952L28.9235 28.5577L28.91 28.5179L28.8984 28.4781L28.8868 28.4382L28.8771 28.3984L28.8655 28.3562L28.8558 28.3141L28.8442 28.2719L28.8345 28.2274L28.8249 28.1829L28.8152 28.1383L28.8055 28.0915L28.7978 28.0446L28.7881 27.9978L28.7803 27.9486L28.7726 27.8994L28.7649 27.8478L28.7571 27.7963L28.7494 27.7447L28.7436 27.6908L28.7358 27.6346L28.73 27.5784L28.7242 27.5198L28.7184 27.4612L28.7126 27.4003L28.7087 27.3371L28.7029 27.2738L28.6991 27.2059L28.6933 27.1379L28.6894 27.0653L28.6855 26.9927L28.6817 26.9153L28.6797 26.8357L28.6758 26.7513L28.6739 26.6646L28.672 26.5709L28.67 26.4702L28.6681 26.3647L28.6662 26.2499L28.6642 26.1211V25.9782L28.6623 25.8095V25.5916V25.2191V24.4951V24.2538V24.0734L28.6642 23.9234L28.6662 23.7899V23.6704L28.6681 23.5626L28.67 23.4619L28.672 23.3658L28.6758 23.2768L28.6778 23.1901L28.6817 23.1104L28.6855 23.0331L28.6894 22.9581L28.6933 22.8855L28.6971 22.8152L28.701 22.7496L28.7068 22.684L28.7107 22.6208L28.7165 22.5575L28.7223 22.4989L28.7281 22.4404L28.7339 22.3841L28.7416 22.3279L28.7474 22.274L28.7552 22.2201L28.7629 22.1686L28.7707 22.117L28.7784 22.0678L28.7862 22.0186L28.7939 21.9694L28.8036 21.9226L28.8132 21.8757L28.821 21.8312L28.8307 21.7867L28.8423 21.7422L28.8519 21.7L28.8616 21.6578L28.8732 21.6157L28.8848 21.5758L28.8945 21.5337L28.9061 21.4938L28.9197 21.4563L28.9313 21.4165L28.9429 21.379L28.9564 21.3415L28.97 21.304L28.9835 21.2689L28.9971 21.2338L29.0106 21.1986L29.0242 21.1635L29.0397 21.1283L29.0551 21.0955L29.0706 21.0627L29.0861 21.0299L29.1016 20.9971L29.1171 20.9643L29.1345 20.9339L29.15 20.9034L29.1674 20.8729L29.1848 20.8425L29.2022 20.812L29.2196 20.7839L29.239 20.7558L29.2583 20.7253L29.2757 20.6972L29.2951 20.6715L29.3145 20.6433L29.3357 20.6176L29.3551 20.5895L29.3764 20.5637L29.3977 20.5379L29.419 20.5121L29.4402 20.4887L29.4615 20.4629L29.4848 20.4395L29.506 20.4161L29.5293 20.3927L29.5525 20.3692L29.5757 20.3458L29.6009 20.3224L29.6241 20.3013L29.6492 20.2802L29.6744 20.2568L29.6996 20.2357L29.7247 20.2169L29.7518 20.1958L29.7789 20.1748L29.806 20.156L29.8331 20.1349L29.8602 20.1162L29.8892 20.0974L29.9163 20.0787L29.9453 20.06L29.9743 20.0436L30.0053 20.0248L30.0343 20.0084L30.0653 19.992L30.0963 19.9733L30.1292 19.9569L30.1601 19.9428L30.193 19.9264L30.2259 19.91L30.2588 19.896L30.2917 19.8796L30.3266 19.8655L30.3614 19.8514L30.3962 19.8374L30.433 19.8233L30.4698 19.8093L30.5065 19.7976L30.5433 19.7835L30.582 19.7718L30.6207 19.7601L30.6594 19.7483L30.7 19.7366L30.7407 19.7249L30.7813 19.7132L30.8239 19.7038L30.8665 19.6921L30.909 19.6827L30.9536 19.671L30.9981 19.6617L31.0426 19.6523L31.089 19.6429L31.1374 19.6359L31.1838 19.6265L31.2342 19.6195L31.2845 19.6101L31.3348 19.6031L31.387 19.5961L31.4393 19.589L31.4954 19.582L31.5496 19.575L31.6076 19.5679L31.6657 19.5633L31.7257 19.5562L31.7876 19.5515L31.8495 19.5469L31.9153 19.5422L31.9831 19.5375L32.0508 19.5328L32.1224 19.5281L32.1979 19.5258L32.2753 19.5211L32.3546 19.5187L32.4398 19.5141L32.5288 19.5117L32.6217 19.5094L32.7223 19.507H32.8287L32.9448 19.5047L33.0726 19.5023H33.2158H33.3841L33.597 19.5H33.9434H37.4267H37.6802L37.866 19.5023H38.0208L38.1544 19.5047H38.2763L38.3866 19.507L38.4891 19.5094L38.5859 19.5117L38.6768 19.5141L38.762 19.5164L38.8452 19.5187L38.9246 19.5234L39 19.5258L39.0736 19.5305L39.1432 19.5351L39.211 19.5398L39.2768 19.5445L39.3406 19.5492L39.4045 19.5539L39.4645 19.5609L39.5225 19.5656L39.5806 19.5726L39.6367 19.5773L39.6928 19.5843L39.7451 19.5914L39.7993 19.5984L39.8496 19.6078L39.8999 19.6148L39.9502 19.6218L39.9986 19.6312L40.047 19.6406L40.0934 19.6499L40.1398 19.657L40.1844 19.6687L40.2289 19.6781L40.2714 19.6874L40.3159 19.6968L40.3566 19.7085L40.3992 19.7202L40.4398 19.7296L40.4804 19.7413L40.5191 19.753L40.5578 19.7671L40.5965 19.7788L40.6333 19.7905L40.672 19.8046L40.7088 19.8163L40.7436 19.8304L40.7804 19.8444L40.8152 19.8585L40.8501 19.8725L40.883 19.8889L40.9178 19.903L40.9507 19.9194L40.9836 19.9334L41.0145 19.9498L41.0474 19.9662L41.0784 19.9826L41.1094 19.999L41.1384 20.0178L41.1694 20.0342L41.1984 20.0529L41.2274 20.0693L41.2564 20.0881L41.2855 20.1068L41.3126 20.1256L41.3397 20.1466L41.3667 20.1654L41.3938 20.1865L41.4209 20.2052L41.4461 20.2263L41.4712 20.2474L41.4964 20.2685L41.5216 20.2896L41.5467 20.313L41.5699 20.3341L41.5951 20.3575L41.6183 20.3809L41.6415 20.4044L41.6628 20.4278L41.6861 20.4512L41.7073 20.477L41.7306 20.5004L41.7519 20.5262L41.7731 20.552L41.7925 20.5777L41.8138 20.6035L41.8331 20.6316L41.8525 20.6574L41.8718 20.6855L41.8912 20.7136L41.9105 20.7417L41.9299 20.7699L41.9473 20.798L41.9647 20.8284L41.9821 20.8589L41.9995 20.8894L42.017 20.9198L42.0325 20.9503L42.0499 20.9807L42.0653 21.0135L42.0808 21.0463L42.0963 21.0791L42.1118 21.1119L42.1253 21.1471L42.1408 21.1822L42.1544 21.215L42.1679 21.2525L42.1815 21.2876L42.195 21.3251L42.2086 21.3603L42.2221 21.3978L42.2337 21.4376L42.2453 21.4751L42.2569 21.5149L42.2685 21.5547L42.2802 21.5969L42.2918 21.6367L42.3014 21.6789L42.3131 21.7234L42.3227 21.7656L42.3324 21.8101L42.3421 21.8546L42.3498 21.9015L42.3595 21.9483L42.3672 21.9952L42.3769 22.0444L42.3847 22.0936L42.3924 22.1428L42.4001 22.1944L42.4079 22.2482L42.4137 22.3021L42.4214 22.356L42.4272 22.4122L42.433 22.4708L42.4388 22.5294L42.4446 22.5903L42.4505 22.6536L42.4543 22.7168L42.4601 22.7824L42.464 22.8527L42.4679 22.923L42.4717 22.9956L42.4756 23.0729L42.4775 23.1526L42.4814 23.2346L42.4853 23.3236L42.4872 23.415L42.4892 23.5134L42.4911 23.6188L42.493 23.7313V23.8578L42.495 23.9984V24.1624L42.4969 24.3686V24.6896V25.0012ZM34.3575 28.0259H36.5288C38.584 28.0259 39.7838 26.7302 39.7838 24.9848C39.7838 23.2206 38.6014 21.9765 36.5617 21.9765H34.3575V28.0259ZM33.2738 21.9765H31.6463V28.0259H33.2738V21.9765ZM13.4595 25.0012C13.4595 26.6693 12.2655 28.1641 10.4736 28.1641C8.67964 28.1641 7.50305 26.6881 7.50305 25.0012C7.50305 23.333 8.69706 21.8382 10.489 21.8382C12.2829 21.8382 13.4595 23.3166 13.4595 25.0012ZM7.95975 25.0012C7.95975 26.5124 9.02604 27.7541 10.489 27.7541C11.954 27.7541 13.0028 26.5311 13.0028 25.0012C13.0028 23.49 11.9365 22.2506 10.4736 22.2506C9.01056 22.2506 7.95975 23.4736 7.95975 25.0012ZM15.5186 28.0259H15.0986V21.9765H15.5108L19.5631 27.241V21.9765H19.983V28.0259H19.656L15.5186 22.6512V28.0259ZM25.9492 28.0259H21.7286V21.9765H25.9066V22.3912H22.1659V24.7669H25.5292V25.1816H22.1659V27.6112H25.9492V28.0259ZM36.1534 26.9669C36.0411 26.9669 35.9328 26.9645 35.8263 26.9645H35.4451C35.4374 26.742 35.4741 26.4327 35.5419 26.189C35.596 25.9875 35.8418 25.8423 36.0644 25.7204L36.0818 25.7111C36.1514 25.6736 36.2772 25.6033 36.3953 25.5564C36.4082 25.5518 36.4211 25.5471 36.434 25.5424C36.5365 25.5049 36.6546 25.4604 36.6662 25.3362C36.6759 25.2425 36.6294 25.1839 36.5733 25.1136C36.5591 25.0964 36.5449 25.0785 36.5307 25.0597C36.3662 24.8372 36.2114 24.5349 36.2405 24.1226C36.2676 23.7196 36.5211 23.4056 36.9487 23.3588C36.9978 23.3525 37.0455 23.3502 37.0919 23.3518C37.1384 23.3502 37.1868 23.3525 37.2371 23.3588C37.6628 23.4056 37.9183 23.7196 37.9454 24.1226C37.9724 24.5349 37.8176 24.8372 37.6531 25.0597C37.6389 25.0785 37.6254 25.0964 37.6125 25.1136C37.5564 25.1839 37.508 25.2425 37.5177 25.3362C37.5293 25.4604 37.6493 25.5049 37.7499 25.5424C37.7641 25.5471 37.7776 25.5518 37.7905 25.5564C37.9066 25.6033 38.0344 25.6736 38.104 25.7111L38.1195 25.7204C38.2705 25.8024 38.4311 25.8962 38.5356 26.0086C38.4911 26.1 38.4098 26.2171 38.3633 26.2734C38.2492 26.4093 38.135 26.5147 38.0208 26.599H38.0228C37.9853 26.6256 37.9466 26.6506 37.9066 26.674C37.748 26.7748 37.5931 26.8333 37.4499 26.8732C37.4267 26.8794 37.4041 26.8857 37.3822 26.8919C37.1964 26.9388 37.0145 26.9599 36.8539 26.9645C36.6198 26.9716 36.3817 26.9692 36.1534 26.9669Z" fill="#6949DE"/>
    <rect x="0.5" y="0.5" width="49" height="49" rx="24.5" stroke="#E6E0FF"/>
</svg>
