<svg width="50" height="50" viewBox="0 0 50 50" fill="none" xmlns="http://www.w3.org/2000/svg">
    <rect x="0.5" y="0.5" width="49" height="49" rx="24.5" fill="white"/>
    <g clip-path="url(#clip0_1_6636)">
        <path d="M23.5751 31.7267C22.8674 31.0189 22.8674 29.8714 23.5751 29.1636C24.2828 28.4559 25.4304 28.4559 26.1382 29.1636L28.8812 31.9063C29.589 32.6141 29.589 33.7617 28.8812 34.4695C28.1734 35.1772 27.0259 35.1772 26.3182 34.4695L23.5751 31.7267Z" fill="#493EB1" fill-opacity="0.709804"/>
        <path d="M26.318 26.4204C27.0257 25.7127 28.1733 25.7127 28.881 26.4204C29.5888 27.1282 29.5888 28.2758 28.881 28.9835L26.1382 31.7265C25.4304 32.4343 24.2828 32.4343 23.5751 31.7265C22.8674 31.0188 22.8674 29.8712 23.5751 29.1634L26.318 26.4204Z" fill="#D276C0" fill-opacity="0.709804"/>
        <path d="M17.0989 28.6992C17.8067 27.9914 18.9543 27.9914 19.662 28.6992C20.3697 29.4069 20.3697 30.5545 19.662 31.2623L16.754 34.1701C16.0463 34.8778 14.8987 34.8778 14.191 34.1701C13.4832 33.4623 13.4832 32.3148 14.191 31.607L17.0989 28.6992Z" fill="#322490" fill-opacity="0.709804"/>
        <path d="M14.5762 31.2292C15.2839 30.5255 16.4284 30.5286 17.1321 31.2364C17.8359 31.9442 17.8328 33.0886 17.125 33.7924L16.7471 34.1701C16.0394 34.8738 14.8949 34.8707 14.1912 34.1629C13.4874 33.4552 13.4905 32.3108 14.1983 31.607L14.5762 31.2292Z" fill="#F38060" fill-opacity="0.709804"/>
        <path d="M29.0602 29.1631C29.768 28.4553 30.9155 28.4553 31.6232 29.1631C32.331 29.8708 32.331 31.0184 31.6232 31.7261L28.8804 34.4691C28.1726 35.1769 27.025 35.1769 26.3173 34.4691C25.6096 33.7614 25.6096 32.6138 26.3173 31.9061L29.0602 29.1631Z" fill="#DF7786" fill-opacity="0.709804"/>
        <path d="M31.6234 29.1633C32.3311 29.871 32.3311 31.0186 31.6234 31.7264C30.9156 32.4341 29.7681 32.4341 29.0603 31.7264L26.3173 28.9835C25.6096 28.2758 25.6096 27.1282 26.3173 26.4204C27.025 25.7127 28.1726 25.7127 28.8804 26.4204L31.6234 29.1633Z" fill="#91D259" fill-opacity="0.709804"/>
        <path d="M28.8804 34.4689C28.1726 35.1767 27.025 35.1767 26.3173 34.4689C25.6096 33.7611 25.6096 32.6136 26.3173 31.9059L32.2177 26.0054C32.9255 25.2977 34.073 25.2977 34.7808 26.0054C35.4886 26.7132 35.4886 27.8607 34.7808 28.5685L28.8804 34.4689Z" fill="#688AD6" fill-opacity="0.709804"/>
        <path d="M21.3545 27.0151C21.4392 27.0987 21.5512 27.1405 21.6638 27.1405C21.7791 27.1405 21.8922 27.0991 21.975 27.0162L21.9765 27.0147L21.975 27.0132L21.9847 27.0035C22.0696 26.9186 22.112 26.8057 22.112 26.6923H22.1151C22.1151 26.5797 22.072 26.4662 21.9862 26.3797L21.9848 26.3812C21.8997 26.2961 21.7868 26.2537 21.6734 26.2537C21.5585 26.2537 21.445 26.2958 21.3602 26.3799L21.351 26.3893L21.3525 26.3907L21.3288 26.4134C21.2597 26.4947 21.2251 26.5978 21.2251 26.7019C21.2251 26.8164 21.2672 26.9298 21.3508 27.0144L21.3523 27.0129L21.3545 27.0151ZM21.6638 28.6964C21.1529 28.6964 20.6414 28.502 20.2526 28.1132L20.2539 28.1113L20.2523 28.1099C19.8637 27.7211 19.6693 27.2108 19.6693 26.7019C19.6693 26.215 19.8474 25.7266 20.2033 25.3448C20.2187 25.3263 20.235 25.3082 20.2524 25.2909L20.254 25.2922L20.2652 25.2811C20.654 24.8923 21.1644 24.6979 21.6734 24.6979C22.1842 24.6979 22.6958 24.8924 23.0845 25.2811L23.0832 25.2828L23.0848 25.2843C23.4713 25.671 23.6648 26.1815 23.6648 26.6923H23.6678C23.6678 27.2032 23.4734 27.7147 23.0848 28.1034L23.0749 28.1132L23.0734 28.1117C22.683 28.5015 22.1722 28.6964 21.6638 28.6964Z" fill="#C01E86" fill-opacity="0.709804"/>
        <path d="M27.9796 18.0197C28.6834 18.7275 28.6802 19.8719 27.9724 20.5757C27.2646 21.2794 26.1203 21.2763 25.4164 20.5685L23.2536 18.3956C22.5499 17.6878 22.553 16.5434 23.2608 15.8396C23.9686 15.1358 25.113 15.139 25.8168 15.8468L27.9796 18.0197Z" fill="#3872CA" fill-opacity="0.709804"/>
        <path d="M30.4618 18.0939C29.7541 17.3861 29.7541 16.2385 30.4618 15.5308C31.1696 14.8231 32.3172 14.8231 33.0249 15.5308L35.5218 18.0275C36.2295 18.7353 36.2295 19.8828 35.5218 20.5906C34.814 21.2983 33.6664 21.2983 32.9587 20.5906L30.4618 18.0939Z" fill="#4E52BF" fill-opacity="0.709804"/>
        <path d="M35.521 20.5903C34.8133 21.298 33.6657 21.298 32.9579 20.5903C32.2502 19.8826 32.2502 18.735 32.9579 18.0272L35.3889 15.5966C36.0967 14.8889 37.2442 14.8889 37.9519 15.5966C38.6597 16.3043 38.6597 17.4519 37.9519 18.1597L35.521 20.5903Z" fill="#DE7A59" fill-opacity="0.709804"/>
        <path d="M32.9579 18.0273C33.6657 17.3195 34.8133 17.3195 35.521 18.0273C36.2287 18.735 36.2287 19.8826 35.521 20.5903L33.3361 22.7755C32.6283 23.4833 31.4807 23.4833 30.773 22.7755C30.0653 22.0678 30.0653 20.9202 30.773 20.2125L32.9579 18.0273Z" fill="#069A93" fill-opacity="0.709804"/>
        <path d="M14.0889 22.7146C13.3851 23.4224 12.2407 23.4255 11.5329 22.7218C10.8251 22.018 10.822 20.8736 11.5257 20.1658L15.8347 15.8467C16.5384 15.139 17.6829 15.1358 18.3907 15.8396C19.0984 16.5434 19.1015 17.6878 18.3978 18.3955L14.0889 22.7146Z" fill="#49BA6B" fill-opacity="0.709804"/>
        <path d="M22.107 22.115C21.4032 22.8228 20.2588 22.8259 19.5511 22.1221C18.8434 21.4184 18.8402 20.274 19.544 19.5662L23.2533 15.8467C23.9571 15.139 25.1014 15.1358 25.8092 15.8396C26.517 16.5434 26.5202 17.6878 25.8164 18.3955L22.107 22.115Z" fill="#3872CA" fill-opacity="0.709804"/>
        <path d="M22.1082 19.5662C22.8119 20.274 22.8088 21.4184 22.101 22.1222C21.3932 22.826 20.2488 22.8228 19.545 22.115L15.8357 18.3956C15.1319 17.6878 15.1351 16.5434 15.8428 15.8396C16.5506 15.1358 17.695 15.139 18.3988 15.8468L22.1082 19.5662Z" fill="#5ACBDB" fill-opacity="0.709804"/>
    </g>
    <rect x="0.5" y="0.5" width="49" height="49" rx="24.5" stroke="#E6E0FF"/>
    <defs>
        <clipPath id="clip0_1_6636">
            <rect width="28" height="20" fill="white" transform="translate(11 15)"/>
        </clipPath>
    </defs>
</svg>
