<svg width="50" height="50" viewBox="0 0 50 50" fill="none" xmlns="http://www.w3.org/2000/svg">
    <path d="M43.75 6.25C44.3025 6.25 44.8324 6.46949 45.2231 6.86019C45.6138 7.25089 45.8333 7.7808 45.8333 8.33333V19.7917C44.452 19.7917 43.1272 20.3404 42.1505 21.3172C41.1737 22.2939 40.625 23.6187 40.625 25C40.625 26.3813 41.1737 27.7061 42.1505 28.6828C43.1272 29.6596 44.452 30.2083 45.8333 30.2083V41.6667C45.8333 42.2192 45.6138 42.7491 45.2231 43.1398C44.8324 43.5305 44.3025 43.75 43.75 43.75H6.25001C5.69747 43.75 5.16757 43.5305 4.77687 43.1398C4.38617 42.7491 4.16667 42.2192 4.16667 41.6667V30.2083C5.54801 30.2083 6.87277 29.6596 7.84952 28.6828C8.82627 27.7061 9.375 26.3813 9.375 25C9.375 23.6187 8.82627 22.2939 7.84952 21.3172C6.87277 20.3404 5.54801 19.7917 4.16667 19.7917V8.33333C4.16667 7.7808 4.38617 7.25089 4.77687 6.86019C5.16757 6.46949 5.69747 6.25 6.25001 6.25H43.75ZM41.6667 10.4167H8.33334V16.6L8.65834 16.7687C10.0715 17.5397 11.2624 18.6615 12.1162 20.0262C12.97 21.3909 13.4581 22.9524 13.5333 24.5604L13.5417 25C13.5419 26.6838 13.0886 28.3366 12.2293 29.7847C11.37 31.2328 10.1364 32.4226 8.65834 33.2292L8.33334 33.4V39.5833H41.6667V33.3979L41.3417 33.2312C39.9285 32.4603 38.7377 31.3385 37.8838 29.9738C37.03 28.6091 36.5419 27.0476 36.4667 25.4396L36.4583 25C36.4583 21.45 38.4313 18.3604 41.3417 16.7708L41.6667 16.5979V10.4167Z" fill="#8F73FF"/>
</svg>
