<svg width="99.25" height="89" viewBox="0 0 36 36" fill="none" xmlns="http://www.w3.org/2000/svg">
<path d="M34.9039 20.3549C31.1219 14.5639 31.5239 8.6279 29.7009 5.8369C27.8779 3.0459 22.4449 -1.7661 9.60786 6.6189C-3.22914 15.0039 0.0358585 24.1189 2.04186 27.1879C11.4299 41.5599 41.6029 30.6109 34.9039 20.3549Z" fill="#EFEFEF"/>
<path d="M14.4244 2.89045L13.0103 4.30469L13.7174 5.01178L15.1316 3.59754L14.4244 2.89045Z" fill="#A4AFC1"/>
<path d="M10.3585 6.95637L8.94434 8.37061L9.65146 9.0777L11.0656 7.66346L10.3585 6.95637Z" fill="#A4AFC1"/>
<path d="M9.6512 2.71354L8.94434 3.4209L10.359 4.83462L11.0659 4.12726L9.6512 2.71354Z" fill="#A4AFC1"/>
<path d="M26.7891 28.7959C25.9621 28.7959 25.2891 28.1229 25.2891 27.2959C25.2891 26.4689 25.9621 25.7959 26.7891 25.7959C27.6161 25.7959 28.2891 26.4689 28.2891 27.2959C28.2891 28.1229 27.6161 28.7959 26.7891 28.7959ZM26.7891 26.7959C26.5141 26.7959 26.2891 27.0199 26.2891 27.2959C26.2891 27.5719 26.5141 27.7959 26.7891 27.7959C27.0641 27.7959 27.2891 27.5719 27.2891 27.2959C27.2891 27.0199 27.0641 26.7959 26.7891 26.7959Z" fill="#A4AFC1"/>
<path d="M19.014 25.3408V27.7888C19.014 28.5958 19.668 29.2498 20.474 29.2498C21.28 29.2498 21.935 28.5958 21.935 27.7888V25.3408H19.014ZM14.124 25.3408V27.7888C14.124 28.5958 14.778 29.2498 15.584 29.2498C16.39 29.2498 17.045 28.5958 17.045 27.7888V25.3408H14.124ZM25.789 23.3868C24.982 23.3868 24.328 22.7328 24.328 21.9258V16.0528C24.328 15.2458 24.982 14.5918 25.789 14.5918C26.596 14.5918 27.25 15.2458 27.25 16.0528V21.9258C27.25 22.7328 26.596 23.3868 25.789 23.3868ZM10.211 23.3868C9.404 23.3868 8.75 22.7328 8.75 21.9258V16.0528C8.75 15.2458 9.404 14.5918 10.211 14.5918C11.018 14.5918 11.672 15.2458 11.672 16.0528V21.9258C11.671 22.7328 11.017 23.3868 10.211 23.3868Z" fill="#F3F3F1"/>
<path d="M11.6709 14.5929V23.3409C11.6709 24.4459 12.5659 25.3409 13.6709 25.3409H22.3289C23.4339 25.3409 24.3289 24.4459 24.3289 23.3409V14.5929H11.6709ZM17.9999 7.75293C14.5049 7.75293 11.6709 10.5969 11.6709 14.1039V14.5929H24.3289V14.1039C24.3289 10.5969 21.4949 7.75293 17.9999 7.75293Z" fill="#2FDF84"/>
<path d="M21.264 27.7888V25.3408H19.014V27.7888C19.014 28.5958 19.668 29.2498 20.474 29.2498C20.93 29.2498 21.331 29.0368 21.599 28.7098C21.393 28.4578 21.264 28.1408 21.264 27.7888ZM16.374 27.7888V25.3408H14.124V27.7888C14.124 28.5958 14.778 29.2498 15.584 29.2498C16.04 29.2498 16.441 29.0368 16.709 28.7098C16.503 28.4578 16.374 28.1408 16.374 27.7888Z" fill="#D5DBE1"/>
<path d="M13.9209 23.3409V14.5929H11.6709V23.3409C11.6709 24.4459 12.5659 25.3409 13.6709 25.3409H15.9209C14.8159 25.3409 13.9209 24.4459 13.9209 23.3409ZM19.1249 7.85893C18.7589 7.79293 18.3849 7.75293 17.9999 7.75293C14.5049 7.75293 11.6709 10.5969 11.6709 14.1039V14.5929H13.9209V14.1039C13.9209 10.9829 16.1669 8.39193 19.1249 7.85893Z" fill="#00B871"/>
<path d="M20.475 30.0002C19.256 30.0002 18.264 29.0082 18.264 27.7902V25.3422C18.264 24.9282 18.6 24.5922 19.014 24.5922H21.935C22.349 24.5922 22.685 24.9282 22.685 25.3422V27.7902C22.685 29.0082 21.693 30.0002 20.475 30.0002ZM19.764 26.0912V27.7892C19.764 28.1812 20.083 28.4992 20.475 28.4992C20.867 28.4992 21.185 28.1802 21.185 27.7892V26.0912H19.764ZM15.584 30.0002C14.365 30.0002 13.373 29.0082 13.373 27.7902V25.3422C13.373 24.9282 13.709 24.5922 14.123 24.5922H17.045C17.459 24.5922 17.795 24.9282 17.795 25.3422V27.7902C17.795 29.0082 16.803 30.0002 15.584 30.0002ZM14.873 26.0912V27.7892C14.873 28.1812 15.192 28.4992 15.584 28.4992C15.976 28.4992 16.295 28.1802 16.295 27.7892V26.0912H14.873ZM25.789 24.1372C24.57 24.1372 23.579 23.1452 23.579 21.9272V16.0542C23.579 14.8352 24.57 13.8442 25.789 13.8442C27.008 13.8442 28 14.8352 28 16.0542V21.9272C28 23.1462 27.008 24.1372 25.789 24.1372ZM25.789 15.3432C25.397 15.3432 25.079 15.6622 25.079 16.0532V21.9262C25.079 22.3182 25.397 22.6362 25.789 22.6362C26.181 22.6362 26.5 22.3172 26.5 21.9262V16.0532C26.5 15.6622 26.181 15.3432 25.789 15.3432ZM10.211 24.1372C8.992 24.1372 8 23.1462 8 21.9272V16.0542C8 14.8352 8.992 13.8442 10.211 13.8442C11.43 13.8442 12.421 14.8362 12.421 16.0542V21.9272C12.421 23.1462 11.43 24.1372 10.211 24.1372ZM10.211 15.3432C9.819 15.3432 9.5 15.6622 9.5 16.0532V21.9262C9.5 22.3182 9.819 22.6362 10.211 22.6362C10.603 22.6362 10.921 22.3172 10.921 21.9262V16.0532C10.921 15.6622 10.603 15.3432 10.211 15.3432Z" fill="black"/>
<path d="M22.3289 26.0908H13.6709C12.1539 26.0908 10.9209 24.8568 10.9209 23.3408V14.5928C10.9209 14.1788 11.2569 13.8428 11.6709 13.8428H24.3289C24.7429 13.8428 25.0789 14.1788 25.0789 14.5928V23.3408C25.0789 24.8568 23.8459 26.0908 22.3289 26.0908ZM12.4209 15.3428V23.3408C12.4209 24.0298 12.9819 24.5908 13.6709 24.5908H22.3289C23.0179 24.5908 23.5789 24.0298 23.5789 23.3408V15.3428H12.4209Z" fill="black"/>
<path d="M25.0789 14.593H23.5789V14.104C23.5789 11.015 21.0759 8.50195 17.9999 8.50195C14.9239 8.50195 12.4209 11.015 12.4209 14.104V14.593H10.9209V14.104C10.9209 10.188 14.0969 7.00195 17.9999 7.00195C21.9029 7.00195 25.0789 10.188 25.0789 14.104V14.593Z" fill="black"/>
<path d="M15.61 12.9262C14.927 12.9262 14.373 12.3702 14.373 11.6882C14.373 11.0052 14.928 10.4492 15.61 10.4492C16.292 10.4492 16.846 11.0052 16.846 11.6882C16.847 12.3712 16.292 12.9262 15.61 12.9262ZM15.61 11.4262C15.464 11.4262 15.346 11.5432 15.346 11.6882C15.346 11.9752 15.872 11.9772 15.872 11.6882C15.873 11.5432 15.755 11.4262 15.61 11.4262ZM20.421 12.9262C19.739 12.9262 19.185 12.3702 19.185 11.6882C19.185 11.0052 19.74 10.4492 20.421 10.4492C21.104 10.4492 21.658 11.0052 21.658 11.6882C21.658 12.3712 21.104 12.9262 20.421 12.9262ZM20.421 11.4262C20.276 11.4262 20.158 11.5432 20.158 11.6882C20.158 11.9772 20.684 11.9752 20.684 11.6882C20.685 11.5432 20.566 11.4262 20.421 11.4262Z" fill="black"/>
<path d="M13.2023 6.22058L12.1396 7.2793L14.1067 9.25361L15.1693 8.1949L13.2023 6.22058Z" fill="black"/>
<path d="M22.8338 6.21999L20.8667 8.19434L21.9293 9.25303L23.8964 7.27868L22.8338 6.21999Z" fill="black"/>
</svg>
