<?xml version="1.0" encoding="UTF-8"?>
<svg width="38px" height="38px" viewBox="0 0 38 38" version="1.1" xmlns="http://www.w3.org/2000/svg" xmlns:xlink="http://www.w3.org/1999/xlink">
    <title>icon-apple</title>
    <g id="Page-1" stroke="none" stroke-width="1" fill="none" fill-rule="evenodd">
        <g id="5.gs-id" transform="translate(-310.000000, -1616.000000)">
            <rect fill="#FFFFFF" x="0" y="0" width="1620" height="3306"></rect>
            <g id="Group-11" transform="translate(251.000000, 1333.000000)" fill="#18406D">
                <g id="text-info" transform="translate(0.000000, 90.000000)">
                    <g id="Platform-Icons" transform="translate(0.000000, 192.000000)">
                        <path d="M90.9160194,25.9091349 C89.7712151,25.9130225 88.8397679,24.9840504 88.8349515,23.8335969 L88.8349515,14.5064083 C88.8349515,13.3505827 89.7673294,12.413601 90.9174757,12.413601 C92.0676221,12.413601 93,13.3505827 93,14.5064083 L93,23.8335969 C92.997688,24.386598 92.7767887,24.9160085 92.3859316,25.3052821 C91.9950746,25.6945557 91.4663019,25.9117802 90.9160194,25.9091349 L90.9160194,25.9091349 Z M87.7703883,29.5544248 C87.7695402,29.8651445 87.6458198,30.1627818 87.4264775,30.3817797 C87.2071352,30.6007777 86.9101628,30.7231727 86.6009709,30.7220064 L84.1007767,30.7220064 L84.1007767,35.9071927 C84.1007767,37.0630182 83.1683988,38 82.0182524,38 C80.868106,38 79.9357282,37.0630182 79.9357282,35.9071927 L79.9357282,30.7220064 L76.0619417,30.7220064 L76.0619417,35.9071927 C76.0619417,37.0630182 75.1295639,38 73.9794175,38 C72.8292711,38 71.8968932,37.0630182 71.8968932,35.9071927 L71.8968932,30.7220064 L69.3984466,30.7220064 C69.0893047,30.7234845 68.792253,30.6014279 68.5727003,30.3827125 C68.3531476,30.1639972 68.2290972,29.8665577 68.2278641,29.5558883 L68.2278641,21.1278751 L68.2095146,21.1278751 L68.2095146,13.0938365 L87.7899029,13.0938365 L87.7899029,21.1278751 L87.7709709,21.1278751 L87.7709709,29.5547175 L87.7703883,29.5544248 Z M73.2585437,4.6017219 L71.6030097,2.2715346 C71.586338,2.18367095 71.6329187,2.09602292 71.7148544,2.06108307 C71.7759444,1.99543751 71.8740943,1.98098245 71.9513592,2.02625173 L73.6619417,4.43283381 C75.0513589,3.92592002 76.5221817,3.68198729 78,3.71337641 C79.4728748,3.69180704 80.9369857,3.94457272 82.3182524,4.45888414 L84.0474757,2.02625173 C84.1248304,1.98093757 84.2230856,1.99539034 84.2842718,2.06108307 C84.3663666,2.09584792 84.4130214,2.18363543 84.3961165,2.2715346 L82.7199029,4.63011383 C87.5105825,6.77385103 87.7086408,11.944695 87.7086408,11.944695 L68.2907767,11.944695 C68.2907767,11.944695 68.4326214,6.72731168 73.2585437,4.6017219 Z M82.261165,8.8932941 C82.9003088,8.88813101 83.4147609,8.36417123 83.4113426,7.72185998 C83.4079244,7.07954872 82.8879249,6.56114864 82.2487628,6.56285585 C81.6096007,6.56456307 81.0923507,7.08573366 81.0923301,7.72805409 C81.0953798,8.37398437 81.6184048,8.89540066 82.261165,8.8932941 L82.261165,8.8932941 Z M73.7382524,8.8932941 C74.3773962,8.88813101 74.8918483,8.36417123 74.88843,7.72185998 C74.8850117,7.07954872 74.3650123,6.56114864 73.7258502,6.56285585 C73.0866881,6.56456307 72.5694381,7.08573366 72.5694175,7.72805409 C72.5724672,8.37398437 73.0954921,8.89540066 73.7382524,8.8932941 L73.7382524,8.8932941 Z M65.0831068,25.9091349 C64.5329754,25.9115465 64.0044273,25.6942188 63.6137595,25.3049704 C63.2230917,24.915722 63.0023124,24.3864451 63,23.8335969 L63,14.5064083 C63,13.3505827 63.9323779,12.413601 65.0825243,12.413601 C66.2326707,12.413601 67.1650485,13.3505827 67.1650485,14.5064083 L67.1650485,23.8335969 C67.1602324,24.9843945 66.2282518,25.9135085 65.0831068,25.9091349 Z" id="Android-Logo"></path>
                    </g>
                </g>
            </g>
        </g>
    </g>
</svg>