<svg width="390" height="57" viewBox="0 0 390 57" fill="none" xmlns="http://www.w3.org/2000/svg">
<path fill-rule="evenodd" clip-rule="evenodd" d="M14.7999 0.571583C13.8436 0.699846 12.0319 1.17814 11.0273 1.56753C8.67169 2.4805 6.9907 3.59798 5.03659 5.55029C2.92788 7.65699 1.67698 9.6667 0.791023 12.3714C-0.0422379 14.9151 0.000366691 14.0475 0.000366691 28.486V41.4357L0.2514 42.5685C1.71196 49.1588 6.37371 54.1204 12.7818 55.9046C14.7893 56.4636 13.8342 56.4392 35.417 56.4822C54.2109 56.5198 55.5998 56.5097 55.7944 56.3335C55.9967 56.1505 56.0033 55.5223 56.0033 36.5368C56.0033 23.5823 55.9633 16.5596 55.8853 15.8404C55.1558 9.10701 50.3221 3.23629 43.8364 1.20639C41.5115 0.478747 42.5384 0.525502 28.3662 0.502405C21.2748 0.490857 15.1699 0.522026 14.7999 0.571583ZM24.5542 9.98658C26.087 11.4828 26.1716 11.5042 26.8885 10.5752C27.5268 9.74788 27.7974 9.50929 28.0435 9.55672C28.1527 9.57768 28.5385 9.96056 28.9009 10.4074C29.406 11.0302 29.6264 11.2199 29.8449 11.2199C30.0565 11.2199 30.4561 10.9016 31.3934 9.98658C32.0883 9.30826 32.7094 8.75328 32.7739 8.75328C32.8383 8.75328 32.9702 8.83255 33.0672 8.92942C33.2146 9.07697 33.2433 9.44359 33.2433 11.1792C33.2433 12.4028 33.2912 13.3422 33.3602 13.471C33.4244 13.5911 34.0425 13.9729 34.7336 14.3195C37.0309 15.4715 38.6839 16.7769 40.128 18.5794C42.0957 21.0357 43.2419 23.8085 43.5474 26.8518C43.6237 27.612 43.6703 31.0463 43.6703 35.9053C43.6703 43.651 43.6679 43.7366 43.4403 43.9642C43.2115 44.1929 43.1588 44.194 34.7791 44.1541C25.4154 44.1095 25.4372 44.1109 23.0815 43.3393C19.7689 42.2541 16.8069 39.985 14.8569 37.0386C10.7877 30.8901 11.637 22.6181 16.8746 17.3864C18.1893 16.0731 19.5336 15.1143 21.201 14.3004C21.9027 13.958 22.528 13.5821 22.5906 13.4653C22.6557 13.3435 22.7043 12.3667 22.7043 11.1792C22.7043 9.44359 22.733 9.07697 22.8804 8.92942C22.9774 8.83255 23.1093 8.75328 23.1737 8.75328C23.2382 8.75328 23.8593 9.30826 24.5542 9.98658ZM170.605 10.1109C165.879 10.4211 161.213 12.2865 157.884 15.1968C153.013 19.4556 150.848 26.1901 152.159 33.0044C153.534 40.1525 158.816 45.4664 166.439 47.3719C168.719 47.9416 169.686 48.0477 172.606 48.048C174.981 48.0484 175.542 48.0139 176.754 47.793C179.248 47.3383 180.76 46.8617 182.865 45.8675C188.693 43.1137 192.379 38.1231 193.3 31.7375C193.527 30.166 193.469 27.0607 193.185 25.5149C192.49 21.7415 190.884 18.6191 188.307 16.0321C187.595 15.3178 186.666 14.4781 186.241 14.1661C182.112 11.1326 176.644 9.71458 170.605 10.1109ZM209.517 10.6679C206.277 10.804 200.29 11.4854 199.738 11.7806C199.63 11.8388 199.509 11.9676 199.471 12.0668C199.433 12.166 199.402 20.0129 199.402 29.5043C199.402 46.3434 199.407 46.7664 199.616 46.9755C199.929 47.2882 200.943 47.3779 204.167 47.3779C207.287 47.3779 208.114 47.3007 208.534 46.97L208.82 46.745V40.9354C208.82 35.5619 208.835 35.1092 209.016 34.9037C209.202 34.693 209.322 34.6843 211.325 34.737C213.278 34.7883 213.458 34.8105 213.716 35.0327C213.87 35.1649 215.696 37.8914 217.774 41.0916C219.852 44.2919 221.692 47.0143 221.862 47.1416C222.156 47.3612 222.307 47.3723 224.83 47.3587C227.29 47.3454 230.345 47.1224 231.179 46.8951C231.687 46.7566 231.79 46.497 231.524 46.0248C231.401 45.8061 229.445 42.8678 227.178 39.4951C224.911 36.1226 223.057 33.2575 223.058 33.1283C223.059 32.8414 223.211 32.7094 224.323 32.028C225.331 31.4103 226.863 30.0036 227.612 29.0075C229.445 26.5686 230.191 22.7972 229.502 19.4573C228.698 15.5666 225.529 12.674 220.729 11.4507C219.337 11.096 217.028 10.7763 215.011 10.6592C212.959 10.54 212.544 10.5407 209.517 10.6679ZM245.819 10.7715C243.607 10.9006 240.934 11.1736 238.98 11.4701C237.647 11.6724 237.309 11.7621 237.102 11.9678L236.85 12.2187V29.4685C236.85 43.7572 236.875 46.7539 237.001 46.9251C237.193 47.1878 238.78 47.4529 242.175 47.7896C244.236 47.9939 245.388 48.0355 249.183 48.0424C253.342 48.05 253.865 48.0294 255.405 47.7986C259.691 47.1564 262.413 46.0513 264.411 44.1429C266.315 42.3232 267.27 40.0422 267.281 37.2873C267.295 33.8119 265.585 31.182 262.217 29.4963C261.723 29.2488 261.256 28.9707 261.179 28.8783C260.989 28.65 261.15 28.47 261.949 28.0176C262.864 27.4991 264.078 26.2337 264.564 25.2907C265.255 23.952 265.46 23.1228 265.523 21.4125C265.633 18.451 264.856 16.235 263.088 14.4682C260.621 12.0016 256.525 10.8102 250.192 10.717C248.681 10.6948 246.713 10.7193 245.819 10.7715ZM115.612 10.8887C114.187 10.9901 112.821 11.1694 112.151 11.3429C111.324 11.5566 111.39 10.0066 111.39 29.3519C111.39 46.313 111.395 46.7668 111.603 46.9745C111.888 47.2601 113.169 47.3779 115.986 47.3779C118.818 47.3779 120.084 47.2604 120.374 46.9708C120.585 46.7591 120.59 46.4968 120.579 36.3758C120.573 30.6679 120.602 25.9647 120.644 25.9245C120.747 25.8256 120.867 25.9785 124.761 31.1769C133.655 43.0512 136.643 46.9904 136.926 47.2157C137.229 47.4575 137.267 47.4594 140.26 47.3915C143.63 47.3149 145.224 47.1442 145.581 46.8215C145.809 46.6147 145.81 46.5894 145.81 29.1027C145.81 11.8999 145.806 11.5875 145.592 11.3937C145.276 11.1075 143.888 10.9702 141.269 10.9659C138.704 10.9617 137.14 11.1167 136.82 11.4068C136.612 11.5947 136.606 11.9055 136.622 22.2574C136.637 31.7813 136.62 32.9184 136.465 32.9497C136.356 32.972 136.092 32.6852 135.745 32.1649C135.444 31.714 134.456 30.336 133.55 29.1027C132.645 27.8694 131.591 26.4315 131.209 25.9073C130.828 25.3832 129.829 24.0209 128.991 22.8801C128.152 21.7393 125.881 18.642 123.944 15.997C121.275 12.3529 120.34 11.1543 120.082 11.0487C119.62 10.859 117.231 10.7735 115.612 10.8887ZM316.229 10.8442C314.891 10.9184 312.48 11.2376 312.119 11.3883C311.923 11.4702 311.708 11.6391 311.641 11.7636C311.556 11.923 311.52 17.1301 311.52 29.3542C311.52 43.7798 311.546 46.7535 311.672 46.926C311.873 47.2012 312.572 47.2971 315.052 47.3899C317.16 47.4688 319.81 47.3101 320.329 47.0739C320.482 47.0041 320.634 46.8389 320.667 46.7067C320.701 46.5745 320.712 41.8405 320.693 36.1869C320.665 27.9306 320.686 25.9073 320.8 25.9073C320.879 25.9073 321.106 26.1438 321.305 26.4329C321.717 27.0316 321.776 27.1102 330.446 38.6474C335.288 45.0907 336.943 47.2176 337.199 47.3237C337.457 47.4302 338.235 47.4474 340.422 47.3952C343.689 47.3172 345.241 47.1462 345.595 46.8253L345.828 46.6144V29.1027C345.828 11.8999 345.824 11.5875 345.61 11.3937C345.293 11.1066 343.901 10.9694 341.287 10.9675C338.69 10.9656 337.285 11.1043 336.965 11.3937C336.752 11.5865 336.747 11.8351 336.747 22.2891C336.747 34.3954 336.82 33.576 335.857 32.185C335.579 31.7847 332.859 28.0516 329.81 23.8892C326.762 19.7268 323.431 15.1749 322.407 13.7739C321.147 12.0494 320.437 11.1749 320.209 11.0664C319.854 10.8973 317.571 10.7697 316.229 10.8442ZM84.5934 11.0114C83.9734 11.0754 83.5424 11.1814 83.3601 11.3151C83.1499 11.4691 82.5582 12.766 80.9945 16.4996C79.8475 19.2381 78.8027 21.7309 78.6725 22.0393C78.2098 23.1357 77.5149 24.7969 75.3428 29.9996C74.1328 32.8979 72.8142 36.0512 72.4127 37.007C72.0111 37.9628 71.5146 39.1485 71.3094 39.6418C71.1042 40.1351 70.6828 41.1442 70.3729 41.8841C68.3103 46.8091 68.3667 46.6073 68.9808 46.8617C69.5802 47.1101 70.5419 47.2145 72.821 47.2786C75.5394 47.3552 77.1125 47.2286 77.4336 46.9074C77.5526 46.7884 78.2043 45.3068 78.8819 43.6149C79.7321 41.4915 80.2016 40.4606 80.3977 40.2865L80.6818 40.0342H87.6678C94.3823 40.0342 94.6644 40.0425 94.9268 40.249C95.1219 40.4024 95.5481 41.3405 96.417 43.5285C97.6 46.5074 97.793 46.9014 98.1681 47.1021C98.5683 47.3164 101.178 47.4445 102.733 47.3263C105.732 47.0983 107.017 46.8088 107.017 46.3608C107.017 46.2667 104.993 41.3109 102.52 35.3478C100.046 29.3847 97.8578 24.1022 97.6562 23.6089C96.7575 21.409 92.8531 12.0256 92.7038 11.7067C92.4951 11.261 92.1887 11.1387 90.928 10.998C89.7312 10.8643 85.9428 10.8725 84.5934 11.0114ZM284.724 11.0091C283.263 11.1768 283.291 11.1479 282.33 13.4622C281.205 16.17 277.013 26.2047 276.429 27.5891C276.058 28.4669 275.979 28.6574 272.847 36.1661C271.483 39.4344 270.27 42.3354 270.149 42.6129C269.298 44.5795 268.691 46.1463 268.691 46.3748C268.691 46.7982 269.087 46.9615 270.598 47.1612C272.186 47.371 276.543 47.3341 277.162 47.1055C277.35 47.036 277.585 46.8418 277.684 46.6739C277.782 46.5062 278.398 45.0318 279.051 43.3977C279.767 41.6079 280.334 40.3486 280.476 40.2304C280.696 40.0481 281.213 40.0342 287.751 40.0342C294.29 40.0342 294.806 40.0481 295.024 40.2304C295.16 40.3435 295.668 41.4472 296.225 42.8371C297.853 46.8992 297.837 46.8651 298.173 47.0387C298.598 47.2587 301.042 47.4553 302.326 47.3728C303.677 47.2861 305.955 47.0086 306.501 46.8642C307.281 46.6582 307.271 46.5713 306.179 43.9583C305.883 43.2492 302.733 35.6574 299.179 27.0879C294.274 15.2622 292.652 11.46 292.448 11.3126C292.276 11.1881 291.788 11.076 291.091 11.0009C289.823 10.8641 285.943 10.8692 284.724 11.0091ZM356.255 10.9996C355.608 11.0552 354.915 11.1295 354.717 11.1647C353.958 11.2994 354.013 9.89643 354.013 29.1888V46.6594L354.277 46.9231C354.494 47.1405 354.716 47.2037 355.538 47.2824C356.822 47.4053 360.873 47.4058 362.012 47.2833C363.441 47.1295 363.319 47.7059 363.319 41.1243C363.319 36.1787 363.34 35.4564 363.495 35.2354C363.792 34.8112 365.625 33.6435 365.994 33.6435C366.283 33.6435 366.621 33.9795 368.773 36.4103C370.121 37.932 372.459 40.5689 373.97 42.2699C375.481 43.9711 376.993 45.6824 377.331 46.0726C378.322 47.2161 377.977 47.1504 382.995 47.1508C388.337 47.1512 389.779 47.0068 389.779 46.4718C389.779 46.3329 388.705 45.0989 385.742 41.8338C381.514 37.174 373.88 28.6275 373.71 28.3648C373.432 27.9329 373.506 27.8248 375.003 26.494C376.629 25.0483 380.473 21.1479 381.77 19.6287C383.855 17.1844 386.592 13.6277 387.567 12.0927C387.837 11.6672 387.812 11.3462 387.5 11.2275C387.357 11.173 386.108 11.0695 384.725 10.9974C381.586 10.8339 377.951 10.9383 377.42 11.2073C377.2 11.3192 376.742 11.8385 376.218 12.5717C373.262 16.705 370.089 20.2175 366.794 23.0011C364.15 25.2357 363.557 25.613 363.387 25.1694C363.349 25.0718 363.319 21.9768 363.319 18.2915C363.319 10.4859 363.465 11.2527 361.949 11.0971C360.431 10.9411 357.517 10.8913 356.255 10.9996ZM253.072 17.7282C254.284 18.0382 254.865 18.3459 255.543 19.0364C256.299 19.8075 256.525 20.5055 256.44 21.8092C256.367 22.925 256.084 23.6088 255.421 24.2721C254.288 25.4045 253.544 25.5817 249.619 25.6534L246.523 25.7099L246.339 25.4473C246.178 25.2171 246.155 24.7403 246.155 21.5832C246.155 17.2093 245.986 17.5876 247.989 17.4841C250.07 17.3764 252.073 17.4726 253.072 17.7282ZM216.668 18.0354C218.192 18.5367 219.362 19.4664 219.872 20.5817C220.305 21.527 220.435 22.4191 220.277 23.3577C219.993 25.0482 219.035 26.3474 217.539 27.0735C216.244 27.7017 215.421 27.8133 212.083 27.8133C209.199 27.8133 209.167 27.8108 208.995 27.5641C208.844 27.3487 208.82 26.7072 208.82 22.8241C208.82 17.9167 208.821 17.9063 209.466 17.7978C209.635 17.7694 211.161 17.7572 212.856 17.7709C215.664 17.7936 216.005 17.8171 216.668 18.0354ZM175.435 18.2187C178.744 18.9746 181.43 21.2368 182.574 24.2326C183.682 27.1349 183.681 31.006 182.572 33.8824C181.676 36.2055 179.691 38.2606 177.352 39.2868C175.807 39.9647 175.111 40.0806 172.606 40.0778C170.59 40.0756 170.197 40.045 169.411 39.8287C165.695 38.8074 163.139 36.1272 162.153 32.2204C161.935 31.3578 161.905 30.9493 161.91 28.9906C161.915 26.9434 161.941 26.6543 162.205 25.6697C162.769 23.5713 163.633 22.094 165.124 20.6777C166.522 19.3497 168.211 18.5167 170.31 18.1214C171.428 17.9107 174.328 17.9659 175.435 18.2187ZM87.8233 22.2375C87.8882 22.3157 88.2136 23.1103 88.5464 24.0033C88.8792 24.8964 89.7656 27.1468 90.5162 29.0043C91.2669 30.8617 91.8811 32.5086 91.8811 32.6641C91.8811 32.8195 91.8012 32.9774 91.7037 33.0148C91.6061 33.0523 89.794 33.0829 87.6766 33.0829C85.5593 33.0829 83.7471 33.0523 83.6496 33.0148C83.5482 32.9759 83.4722 32.8166 83.4722 32.6429C83.4722 32.4758 84.176 30.5917 85.0361 28.4561C85.8963 26.3205 86.7524 24.0857 86.9387 23.4901C87.3582 22.1478 87.5378 21.8935 87.8233 22.2375ZM287.971 22.3116C288.035 22.4306 288.307 23.1243 288.575 23.8532C288.844 24.5822 289.727 26.8259 290.538 28.8392C291.348 30.8526 292.012 32.5789 292.012 32.6753C292.012 33.0451 291.609 33.0829 287.66 33.0829C283.43 33.0829 283.39 33.0772 283.521 32.4949C283.553 32.3558 284.245 30.6023 285.059 28.5982C285.873 26.5941 286.729 24.3671 286.963 23.6494C287.195 22.9316 287.421 22.2883 287.463 22.2199C287.583 22.026 287.843 22.073 287.971 22.3116ZM26.5163 22.3868C24.9677 22.8001 23.5308 23.8345 22.6943 25.138C21.5783 26.8773 21.4678 29.402 22.4251 31.2911C23.0778 32.5794 24.4036 33.738 25.8996 34.3275C26.5492 34.5835 26.6963 34.5938 30.1812 34.6295C33.7619 34.6662 33.7918 34.6646 34.034 34.4225C34.2763 34.1802 34.2776 34.1544 34.2252 30.7997C34.1661 27.0168 34.1015 26.6333 33.2968 25.2907C31.8992 22.9587 29.0098 21.7213 26.5163 22.3868ZM254.141 32.5678C254.726 32.7161 255.404 32.939 255.647 33.0633C256.376 33.4353 257.217 34.273 257.558 34.9661C257.839 35.538 257.871 35.7238 257.87 36.7267C257.869 37.7214 257.832 37.9267 257.547 38.5468C256.965 39.8135 255.861 40.6069 254.031 41.0735C253.125 41.3046 252.806 41.3231 249.812 41.3174L246.574 41.3113L246.365 41.0528C246.169 40.8111 246.155 40.5326 246.155 36.7953C246.155 33.3575 246.18 32.7614 246.33 32.5473C246.503 32.2994 246.522 32.2981 249.791 32.2981C252.893 32.2981 253.138 32.3132 254.141 32.5678Z" fill="#8A2943"/>
</svg>
