<?xml version="1.0" encoding="UTF-8"?>
<svg width="38px" height="38px" viewBox="0 0 38 38" version="1.1" xmlns="http://www.w3.org/2000/svg" xmlns:xlink="http://www.w3.org/1999/xlink">
    <title>icon-apple</title>
    <g id="Page-1" stroke="none" stroke-width="1" fill="none" fill-rule="evenodd">
        <g id="5.gs-id" transform="translate(-251.000000, -1615.000000)">
            <rect fill="#FFFFFF" x="0" y="0" width="1620" height="3306"></rect>
            <g id="Group-11" transform="translate(251.000000, 1333.000000)" fill="#18406D">
                <g id="text-info" transform="translate(0.000000, 90.000000)">
                    <g id="Platform-Icons" transform="translate(0.000000, 192.000000)">
                        <path d="M29.0568738,19.1447294 C29.0149584,14.5966743 32.871175,12.3840307 33.0475087,12.2810186 C30.863572,9.17231083 27.4785423,8.74756228 26.2890122,8.71369529 C23.445992,8.42159247 20.6882479,10.3745891 19.2399986,10.3745891 C17.7628422,10.3745891 15.532654,8.74191778 13.1290228,8.78989603 C10.0359555,8.83646314 7.1423477,10.5848467 5.55534403,13.2998507 C2.28016158,18.8356931 4.72281751,26.9708272 7.86069089,31.4455038 C9.43035026,33.6369805 11.2645102,36.0838708 13.6652508,35.9977922 C16.0139584,35.9032468 16.891291,34.535867 19.7256391,34.535867 C22.5339707,34.535867 23.3578251,35.9977922 25.8062625,35.9427583 C28.3269677,35.9032468 29.9139714,33.7414037 31.4287072,31.5301713 C33.2426321,29.0183692 33.9710928,26.5446675 34,26.4176663 C33.9407403,26.3979106 29.1045706,24.5959043 29.0568738,19.1447294 L29.0568738,19.1447294 Z M24.4317265,5.77008908 C25.6949699,4.22772973 26.5592943,2.12938724 26.3193647,0 C24.4909862,0.0790229856 22.204429,1.23473415 20.8877074,2.7432265 C19.7227484,4.07250601 18.6820902,6.25128261 18.9509269,8.30023574 C21.0047814,8.44981496 23.1135595,7.2884593 24.4317265,5.77008908 L24.4317265,5.77008908 Z" id="Apple-Logo"></path>
                    </g>
                </g>
            </g>
        </g>
    </g>
</svg>