<svg width="99" height="89" viewBox="0 0 36 36" fill="none" xmlns="http://www.w3.org/2000/svg">
<path d="M8.377 31.833C15.294 31.833 20.044 35.416 23.377 35.416C26.71 35.416 33.71 33.5 33.71 18.167C33.71 2.83401 24.293 0.583008 20.627 0.583008C3.46 0.583008 -3.873 31.833 8.377 31.833Z" fill="#EFEFEF"/>
<path d="M19.3038 3.74445L17.8896 5.15869L18.5968 5.86579L20.011 4.45155L19.3038 3.74445Z" fill="#A4AFC1"/>
<path d="M15.2379 7.81086L13.8237 9.2251L14.5308 9.93219L15.945 8.51795L15.2379 7.81086Z" fill="#A4AFC1"/>
<path d="M14.5313 3.56681L13.8242 4.27393L15.2385 5.68811L15.9456 4.981L14.5313 3.56681Z" fill="#A4AFC1"/>
<path d="M29 13.604C28.173 13.604 27.5 12.931 27.5 12.104C27.5 11.277 28.173 10.604 29 10.604C29.827 10.604 30.5 11.277 30.5 12.104C30.5 12.931 29.827 13.604 29 13.604ZM29 11.604C28.724 11.604 28.5 11.828 28.5 12.104C28.5 12.38 28.724 12.604 29 12.604C29.276 12.604 29.5 12.38 29.5 12.104C29.5 11.828 29.276 11.604 29 11.604Z" fill="#A4AFC1"/>
<path d="M19.6039 7.89184C18.3619 9.10584 18.4369 11.1478 18.4369 11.1478C18.4369 11.1478 20.5259 11.2208 21.7679 10.0068C23.0099 8.79284 22.9349 6.75084 22.9349 6.75084C22.9349 6.75084 20.8459 6.67784 19.6039 7.89184Z" fill="#2FDF84"/>
<path d="M8.975 16.8172C9.92 14.2992 12.136 12.6152 14.352 12.6152C16.303 12.6152 16.303 13.5942 18.253 13.5942C20.203 13.5942 20.204 12.6152 22.154 12.6152C23.783 12.6152 25.441 13.5252 26.582 15.0122C25.109 15.7172 24.105 17.2232 24.105 18.9752C24.105 21.0692 25.549 22.8112 27.499 23.2612C26.319 26.9602 23.646 29.2502 22.154 29.2502C20.203 29.2502 19.228 28.2712 18.253 28.2712C17.278 28.2712 16.302 29.2502 14.352 29.2502C12.402 29.2502 8.5 25.3362 8.5 19.4652C8.5 18.5152 8.672 17.6232 8.975 16.8172Z" fill="#F3F3F1"/>
<path d="M21.8539 7.89184C22.1699 7.58284 22.5399 7.35884 22.9169 7.19384C22.9369 6.92784 22.9339 6.75084 22.9339 6.75084C22.9339 6.75084 20.8449 6.67784 19.6029 7.89184C18.3609 9.10584 18.4359 11.1478 18.4359 11.1478C18.4359 11.1478 19.5969 11.1868 20.7029 10.7038C20.7549 10.0378 20.9669 8.75884 21.8539 7.89184Z" fill="#00B871"/>
<path d="M10.75 19.4652C10.75 18.5152 10.922 17.6242 11.225 16.8172C12.013 14.7182 13.686 13.2142 15.505 12.7672C15.201 12.6762 14.837 12.6152 14.352 12.6152C12.136 12.6152 9.92 14.2992 8.975 16.8172C8.672 17.6232 8.5 18.5152 8.5 19.4652C8.5 25.3362 12.401 29.2502 14.352 29.2502C14.896 29.2502 15.358 29.1712 15.771 29.0612C13.719 28.2172 10.75 24.5862 10.75 19.4652ZM20.504 13.5942C21.982 13.5942 22.343 13.0342 23.279 12.7622C22.907 12.6692 22.531 12.6162 22.156 12.6162C20.677 12.6162 20.316 13.1772 19.38 13.4492C19.677 13.5352 20.032 13.5942 20.504 13.5942ZM20.504 28.2712C20.145 28.2712 19.786 28.4042 19.379 28.5712C20.079 28.8592 20.922 29.2492 22.155 29.2492C22.395 29.2492 22.673 29.1692 22.964 29.0542C21.907 28.7702 21.202 28.2712 20.504 28.2712Z" fill="#D5DBE1"/>
<path d="M18.5058 11.8992C18.4538 11.8992 18.4208 11.8982 18.4108 11.8982C18.0178 11.8842 17.7028 11.5692 17.6878 11.1762C17.6848 11.0792 17.6168 8.7852 19.0798 7.3562C20.5348 5.9342 22.8598 5.9972 22.9618 6.0022C23.3548 6.0162 23.6708 6.3312 23.6848 6.7242C23.6878 6.8212 23.7548 9.1142 22.2918 10.5432C20.9838 11.8222 18.9708 11.8992 18.5058 11.8992ZM22.1208 7.5602C21.5168 7.6502 20.6948 7.8742 20.1278 8.4282C19.5738 8.9692 19.3448 9.7552 19.2508 10.3382C19.8548 10.2482 20.6758 10.0242 21.2428 9.4702C21.7988 8.9282 22.0268 8.1432 22.1208 7.5602Z" fill="black"/>
<path d="M22.155 30.0002C20.863 30.0002 19.928 29.6122 19.247 29.3292C18.851 29.1642 18.508 29.0222 18.253 29.0222C17.998 29.0222 17.656 29.1642 17.26 29.3292C16.578 29.6122 15.645 30.0002 14.352 30.0002C11.755 30.0002 7.75 25.4762 7.75 19.4652C7.75 18.4582 7.926 17.4792 8.272 16.5542C9.308 13.7942 11.808 11.8662 14.352 11.8662C15.505 11.8662 16.107 12.1682 16.639 12.4352C17.095 12.6642 17.455 12.8452 18.253 12.8452C19.051 12.8452 19.411 12.6642 19.867 12.4352C20.399 12.1682 21.001 11.8662 22.155 11.8662C24.008 11.8662 25.885 12.8722 27.178 14.5572C27.316 14.7362 27.365 14.9682 27.312 15.1882C27.259 15.4082 27.11 15.5922 26.906 15.6902C25.641 16.2952 24.855 17.5542 24.855 18.9762C24.855 20.6872 26.012 22.1492 27.667 22.5312C27.871 22.5782 28.046 22.7092 28.15 22.8912C28.254 23.0732 28.276 23.2902 28.212 23.4902C26.972 27.3842 24.078 30.0002 22.155 30.0002ZM18.253 27.5212C18.807 27.5212 19.3 27.7262 19.822 27.9432C20.449 28.2042 21.161 28.5002 22.155 28.5002C23.094 28.5002 25.311 26.8692 26.535 23.7402C24.628 22.9622 23.356 21.1052 23.356 18.9762C23.356 17.3032 24.13 15.7882 25.428 14.8352C24.483 13.9042 23.304 13.3662 22.156 13.3662C21.358 13.3662 20.997 13.5472 20.541 13.7762C20.009 14.0432 19.407 14.3452 18.254 14.3452C17.101 14.3452 16.499 14.0432 15.967 13.7762C15.511 13.5472 15.151 13.3662 14.353 13.3662C12.421 13.3662 10.499 14.8932 9.678 17.0812C9.395 17.8372 9.251 18.6402 9.251 19.4662C9.251 24.9002 12.881 28.5012 14.353 28.5012C15.346 28.5012 16.058 28.2052 16.686 27.9442C17.207 27.7272 17.7 27.5212 18.253 27.5212Z" fill="black"/>
</svg>
