<svg width="48" height="48" viewBox="0 0 48 48" fill="none" xmlns="http://www.w3.org/2000/svg">
<path d="M23.7782 21.667V14.667L33.1115 24.0003L23.7782 33.3337V26.3337H14.4448V21.667H23.7782ZM23.7782 0.666992C36.6582 0.666992 47.1115 11.1203 47.1115 24.0003C47.1115 36.8803 36.6582 47.3337 23.7782 47.3337C10.8982 47.3337 0.444824 36.8803 0.444824 24.0003C0.444824 11.1203 10.8982 0.666992 23.7782 0.666992ZM23.7782 42.667C34.0915 42.667 42.4448 34.3137 42.4448 24.0003C42.4448 13.687 34.0915 5.33366 23.7782 5.33366C13.4648 5.33366 5.11149 13.687 5.11149 24.0003C5.11149 34.3137 13.4648 42.667 23.7782 42.667Z" fill="#6ED200"/>
</svg>
