<svg width="48" height="48" viewBox="0 0 48 48" fill="none" xmlns="http://www.w3.org/2000/svg">
<path d="M23.9998 0.666992C36.8798 0.666992 47.3332 11.1203 47.3332 24.0003C47.3332 36.8803 36.8798 47.3337 23.9998 47.3337C11.1198 47.3337 0.666504 36.8803 0.666504 24.0003C0.666504 11.1203 11.1198 0.666992 23.9998 0.666992ZM23.9998 42.667C34.3132 42.667 42.6665 34.3137 42.6665 24.0003C42.6665 13.687 34.3132 5.33366 23.9998 5.33366C13.6865 5.33366 5.33317 13.687 5.33317 24.0003C5.33317 34.3137 13.6865 42.667 23.9998 42.667ZM23.9998 21.667H33.3332V26.3337H23.9998V33.3337L14.6665 24.0003L23.9998 14.667V21.667Z" fill="#6ED200"/>
</svg>
