<svg width="56" height="56" viewBox="0 0 56 56" fill="none" xmlns="http://www.w3.org/2000/svg">
<path d="M54.295 31.6635C48.4119 22.6553 49.0372 13.4215 46.2014 9.07995C43.3657 4.7384 34.9143 -2.74694 14.9457 10.2964C-5.023 23.3397 0.0558884 37.5186 3.17633 42.2926C17.7799 64.6491 64.7157 47.6173 54.295 31.6635Z" fill="#EFEFEF"/>
<path d="M14.0709 10.7522L11.8711 12.9521L12.9711 14.0521L15.1709 11.8521L14.0709 10.7522Z" fill="#A4AFC1"/>
<path d="M7.74575 17.0774L5.5459 19.2773L6.64586 20.3773L8.84571 18.1773L7.74575 17.0774Z" fill="#A4AFC1"/>
<path d="M6.64741 10.4758L5.54785 11.5762L7.74851 13.7753L8.84807 12.675L6.64741 10.4758Z" fill="#A4AFC1"/>
<path d="M44.6322 45.8473C43.3457 45.8473 42.2988 44.8004 42.2988 43.514C42.2988 42.2276 43.3457 41.1807 44.6322 41.1807C45.9186 41.1807 46.9655 42.2276 46.9655 43.514C46.9655 44.8004 45.9202 45.8473 44.6322 45.8473ZM44.6322 42.7362C44.2044 42.7362 43.8544 43.0847 43.8544 43.514C43.8544 43.9433 44.2044 44.2918 44.6322 44.2918C45.0599 44.2918 45.4099 43.9433 45.4099 43.514C45.4099 43.0847 45.0615 42.7362 44.6322 42.7362Z" fill="#A4AFC1"/>
<path d="M42.5679 18.243L29.3846 10.8199C28.6254 10.3921 27.3826 10.3921 26.6219 10.8199L13.4354 18.243C12.6763 18.6707 12.0557 19.7207 12.0557 20.5763V35.4225C12.0557 35.8519 12.2112 36.3263 12.4617 36.7494C12.7121 37.1725 13.0574 37.5412 13.437 37.7543L26.6203 45.179C27.3794 45.6067 28.6223 45.6067 29.3814 45.179L42.5648 37.7543C42.9443 37.5412 43.2897 37.1725 43.5401 36.7494C43.7906 36.3263 43.9461 35.8503 43.9461 35.4225V20.5763C43.9492 20.147 43.7937 19.6725 43.5432 19.2494C43.2928 18.8263 42.9474 18.4576 42.5679 18.243Z" fill="#F3F3F1"/>
<path d="M25.5887 38.5C19.8409 38.5 15.1665 33.7898 15.1665 28C15.1665 22.2102 19.8409 17.5 25.5872 17.5C29.4201 17.5078 32.7692 19.5922 34.5829 22.6971L34.6094 22.7453L30.0998 25.3758C29.1789 23.7969 27.5036 22.7516 25.5856 22.7484C22.7125 22.7484 20.3761 25.1036 20.3761 27.9984C20.3761 30.8933 22.7125 33.2484 25.5856 33.2484C27.5036 33.2438 29.1789 32.2016 30.0874 30.6476L30.0998 30.6227L34.6094 33.2516C32.7692 36.4078 29.4201 38.4922 25.5887 38.5Z" fill="#2FDF84"/>
<path d="M16.9354 37.7543C16.5559 37.5412 16.2106 37.1725 15.9601 36.7494C15.7112 36.3263 15.5557 35.8519 15.5557 35.4225V20.5763C15.5557 19.7207 16.1763 18.6707 16.9354 18.243L29.7532 11.0283L29.3846 10.8199C28.6254 10.3921 27.3826 10.3921 26.6219 10.8199L13.4354 18.243C12.6763 18.6707 12.0557 19.7207 12.0557 20.5763V35.4225C12.0557 35.8519 12.2112 36.3263 12.4601 36.7494C12.7106 37.1725 13.0559 37.5412 13.4354 37.7543L26.6188 45.179C27.3779 45.6067 28.6208 45.6067 29.3799 45.179L29.7486 44.9705L16.9354 37.7543Z" fill="#D5DBE1"/>
<path d="M30.1014 25.3773L32.4487 24.0084C31.5372 23.2276 30.3689 22.7516 29.0872 22.75C28.4758 22.75 27.8956 22.876 27.3496 23.072C28.5054 23.4936 29.4776 24.3087 30.1014 25.3773ZM32.4503 31.9947L30.0998 30.6242L30.0874 30.6491C29.4729 31.7007 28.5038 32.508 27.3496 32.928C27.8956 33.124 28.4743 33.25 29.0856 33.25C30.3721 33.2484 31.5418 32.7709 32.4503 31.9947ZM18.6665 28C18.6665 22.82 22.4123 18.5142 27.3154 17.6633C26.7507 17.5669 26.1783 17.5016 25.5872 17.5C19.8409 17.5 15.1665 22.2102 15.1665 28C15.1665 33.7898 19.8409 38.5 25.5872 38.5H25.5887C26.1798 38.4984 26.7523 38.4331 27.3154 38.3367C22.4123 37.4858 18.6665 33.18 18.6665 28Z" fill="#00B871"/>
<path d="M27.9998 46.6671C27.3013 46.6671 26.6044 46.51 26.046 46.1973L12.8642 38.7711C12.3213 38.4694 11.8204 37.9607 11.4564 37.3416C11.0909 36.7256 10.8887 36.0442 10.8887 35.4236V20.5773C10.8887 19.3002 11.738 17.8598 12.8658 17.2267L26.0507 9.80513C27.166 9.17824 28.8429 9.17824 29.9582 9.80513L43.1416 17.2282C43.6876 17.5362 44.1869 18.0433 44.5493 18.6593C44.9164 19.2785 45.1171 19.9645 45.1124 20.5867V35.4251C45.1124 36.0458 44.9102 36.7271 44.5447 37.3462C44.1838 37.9607 43.6813 38.4678 43.1353 38.7742L29.9551 46.1973C29.3951 46.51 28.6982 46.6671 27.9998 46.6671ZM28.0029 11.6687C27.6996 11.6687 27.3947 11.7247 27.194 11.8367L14.0076 19.2598C13.6187 19.4791 13.222 20.1449 13.222 20.5773V35.4236C13.222 35.5791 13.2858 35.8529 13.4647 36.1562C13.6187 36.4176 13.8209 36.6338 14.0044 36.738L27.1924 44.1642C27.5938 44.3898 28.4073 44.3898 28.8087 44.1642L41.992 36.7396C42.1802 36.6338 42.3824 36.4176 42.5349 36.1594C42.7153 35.8545 42.7791 35.5791 42.7791 35.4236V20.5773C42.7807 20.372 42.6904 20.1013 42.5396 19.8447C42.3856 19.5834 42.1833 19.3656 41.9951 19.2598L28.8118 11.8367C28.6111 11.7247 28.3062 11.6687 28.0029 11.6687Z" fill="black"/>
<path d="M25.5904 39.6663C25.5889 39.6663 25.5889 39.6663 25.5873 39.6663C19.1987 39.6663 14 34.4335 14 27.9997C14 21.5659 19.1971 16.333 25.5858 16.333C29.68 16.3408 33.5129 18.5543 35.5911 22.1088C35.7482 22.3763 35.8042 22.7186 35.7249 23.0172C35.6471 23.3159 35.4651 23.5975 35.1976 23.753L30.6896 26.3835C30.4236 26.539 30.1062 26.5826 29.806 26.5032C29.5073 26.4255 29.2507 26.231 29.0951 25.9635C28.3484 24.6832 27.0371 23.9179 25.5858 23.9148C23.3582 23.9148 21.5444 25.7472 21.5444 27.9981C21.5444 30.249 23.3582 32.0815 25.5873 32.0815C27.0153 32.0783 28.3547 31.3037 29.0811 30.0592C29.4047 29.5023 30.1327 29.2877 30.6896 29.6128L35.1991 32.2417C35.4667 32.3972 35.6611 32.6539 35.7404 32.9526C35.8198 33.2512 35.7747 33.5701 35.6191 33.8377C33.4927 37.4808 29.7438 39.6586 25.5904 39.6663ZM25.5827 18.6663C20.4836 18.6663 16.3333 22.8523 16.3333 27.9997C16.3333 33.1455 20.4836 37.333 25.5858 37.333C28.5149 37.3268 31.1951 35.9657 32.9544 33.6386L30.4251 32.1639C29.204 33.5857 27.4447 34.4132 25.5889 34.4179C22.0702 34.4179 19.2096 31.5386 19.2096 28.0012C19.2096 24.4639 22.0702 21.5846 25.5858 21.5846C27.4836 21.5877 29.2258 22.4106 30.4329 23.8339L32.9544 22.3623C31.2122 20.0617 28.4791 18.6726 25.5827 18.6663Z" fill="white"/>
<path d="M34.9998 25.2773H32.6665V30.7218H34.9998V25.2773Z" fill="black"/>
<path d="M36.5558 26.833H31.1113V29.1663H36.5558V26.833Z" fill="black"/>
<path d="M41.222 25.2773H38.8887V30.7218H41.222V25.2773Z" fill="black"/>
<path d="M42.7779 26.833H37.3335V29.1663H42.7779V26.833Z" fill="black"/>
</svg>
