<?xml version="1.0" encoding="UTF-8"?>
<svg width="30px" height="30px" viewBox="0 0 30 30" version="1.1" xmlns="http://www.w3.org/2000/svg" xmlns:xlink="http://www.w3.org/1999/xlink">
    <!-- Generator: Sketch 63.1 (92452) - https://sketch.com -->
    <title>facebook</title>
    <desc>Created with Sketch.</desc>
    <g id="Page-1" stroke="none" stroke-width="1" fill="none" fill-rule="evenodd">
        <g id="Artboard" transform="translate(-645.000000, -254.000000)" fill="#FFFFFF">
            <path d="M663.895313,263.99 L662.483438,263.990937 C661.37625,263.990937 661.161562,264.516875 661.161562,265.288437 L661.161562,266.990938 L663.8025,266.990938 L663.458437,269.658125 L661.161562,269.658125 L661.161562,276.5 L658.408125,276.5 L658.408125,269.658125 L656.105625,269.658125 L656.105625,266.990938 L658.408125,266.990938 L658.408125,265.025 C658.408125,262.742188 659.802187,261.5 661.8375,261.5 C662.8125,261.5 663.650625,261.572187 663.895313,261.605 L663.895313,263.99 Z M645,284 L675,284 L675,254 L645,254 L645,284 Z" id="facebook"></path>
        </g>
    </g>
</svg>