<svg width="753" height="400" viewBox="0 0 753 400" fill="none" xmlns="http://www.w3.org/2000/svg">
<g clip-path="url(#clip0)">
<path d="M122.112 145.727C122.175 145.802 122.239 145.879 122.305 145.954H121.973C122.019 145.879 122.066 145.802 122.112 145.727ZM39.863 163.29C40.6651 163.324 41.461 163.324 42.2497 163.29H187.123C197.555 165.324 207.662 158.519 209.697 148.084C211.73 137.652 204.922 127.545 194.489 125.51C189.26 124.491 184.114 125.692 180.027 128.458C180.335 125.562 180.26 122.576 179.756 119.563C176.768 101.723 159.887 89.6812 142.047 92.6674C131.967 94.3546 123.74 100.477 119.028 108.702C112.234 100.726 101.655 96.2552 90.4984 97.7449C79.0181 99.2754 69.7827 106.735 65.4624 116.627C60.3258 109.247 51.9156 104.274 42.2381 103.885C25.8337 103.231 12.0039 115.995 11.3479 132.402C10.6921 148.804 23.4589 162.636 39.863 163.29Z" fill="#DFEEFF"/>
<path d="M664.929 126.57C664.993 126.647 665.057 126.723 665.121 126.799H664.791C664.839 126.723 664.887 126.647 664.929 126.57ZM582.681 144.134C583.487 144.166 584.281 144.166 585.071 144.134H729.943C740.377 146.168 750.48 139.359 752.517 128.928C754.55 118.494 747.743 108.388 737.309 106.354C732.082 105.334 726.934 106.536 722.843 109.301C723.152 106.405 723.078 103.42 722.576 100.407C719.589 82.5669 702.706 70.5249 684.863 73.5105C674.787 75.1972 666.562 81.3203 661.846 89.5446C655.05 81.5694 644.473 77.0994 633.319 78.5876C621.84 80.1191 612.601 87.5774 608.28 97.4697C603.143 90.0893 594.736 85.1161 585.06 84.7294C568.652 84.0733 554.826 96.8402 554.164 113.244C553.514 129.648 566.278 143.479 582.681 144.134Z" fill="#DFEEFF"/>
<path d="M101.603 230.301C101.643 230.256 101.672 230.195 101.676 230.13L102.06 225.125C102.072 224.976 101.961 224.856 101.815 224.856C101.668 224.858 101.541 224.98 101.529 225.129L101.144 230.134C101.133 230.282 101.243 230.402 101.39 230.402C101.472 230.402 101.55 230.362 101.603 230.301Z" fill="#1D1D4D"/>
<path d="M107.869 226.094C107.892 226.066 107.911 226.035 107.924 225.999L109.557 221.605C109.61 221.462 109.541 221.312 109.404 221.27C109.267 221.228 109.113 221.31 109.059 221.453L107.427 225.849C107.374 225.991 107.443 226.142 107.58 226.182C107.682 226.214 107.797 226.176 107.869 226.094Z" fill="#1D1D4D"/>
<path d="M105.01 233.661C105.029 233.638 105.047 233.611 105.06 233.581L106.469 230.328C106.53 230.187 106.471 230.033 106.338 229.983C106.203 229.934 106.045 230.006 105.984 230.147L104.574 233.402C104.513 233.541 104.572 233.695 104.708 233.745C104.812 233.785 104.934 233.747 105.01 233.661Z" fill="#1D1D4D"/>
<path d="M108.084 236C108.098 235.986 108.109 235.971 108.118 235.954L113.712 226.418C113.79 226.285 113.752 226.123 113.626 226.054C113.501 225.988 113.337 226.041 113.259 226.172L107.665 235.708C107.589 235.84 107.627 236.003 107.751 236.07C107.861 236.129 107.998 236.097 108.084 236Z" fill="#1D1D4D"/>
<path d="M110.358 238.363C110.364 238.355 114.002 233.964 114.002 233.964C114.101 233.845 114.091 233.676 113.983 233.586C113.872 233.497 113.706 233.514 113.606 233.638L109.968 238.032C109.869 238.15 109.878 238.319 109.989 238.409C110.096 238.496 110.259 238.475 110.358 238.363Z" fill="#1D1D4D"/>
<path d="M117.401 230.223L119.45 227.894C119.551 227.778 119.548 227.608 119.441 227.515C119.334 227.422 119.167 227.441 119.064 227.555L117.017 229.884C116.916 230 116.919 230.17 117.026 230.263C117.131 230.357 117.3 230.339 117.401 230.223Z" fill="#1D1D4D"/>
<path d="M121.98 233.518C122.063 233.423 122.079 233.284 122.01 233.183C121.93 233.067 121.764 233.046 121.641 233.137L112.592 239.877C112.469 239.97 112.434 240.14 112.516 240.256C112.596 240.374 112.762 240.393 112.884 240.302L121.934 233.562C121.951 233.548 121.966 233.535 121.98 233.518Z" fill="#1D1D4D"/>
<path d="M118.142 241.439C118.212 241.359 118.237 241.243 118.195 241.146C118.138 241.015 117.982 240.963 117.847 241.032L115.038 242.449C114.902 242.517 114.838 242.681 114.895 242.812C114.952 242.944 115.106 242.995 115.243 242.927L118.051 241.51C118.087 241.493 118.117 241.468 118.142 241.439Z" fill="#1D1D4D"/>
<path d="M126.985 236.582C127.064 236.491 127.084 236.361 127.023 236.26C126.95 236.136 126.786 236.106 126.659 236.192L122.644 238.856C122.517 238.94 122.473 239.107 122.545 239.231C122.619 239.353 122.781 239.384 122.909 239.298L126.925 236.635C126.946 236.62 126.967 236.601 126.985 236.582Z" fill="#1D1D4D"/>
<path d="M123.722 245.495C123.774 245.438 123.802 245.364 123.797 245.286C123.787 245.139 123.659 245.038 123.513 245.059L119.513 245.674C119.367 245.697 119.256 245.834 119.266 245.981C119.277 246.13 119.403 246.231 119.549 246.208L123.549 245.593C123.618 245.583 123.678 245.547 123.722 245.495Z" fill="#1D1D4D"/>
<path d="M63.7269 300.612C65.208 302.332 71.1183 299.671 76.9283 294.668C82.7371 289.667 86.2452 284.216 84.7635 282.496C83.2837 280.776 77.3721 283.437 71.5635 288.44C65.7542 293.441 62.2455 298.892 63.7269 300.612Z" fill="#F8B716"/>
<path d="M91.9548 267.771L96.6799 261.47C96.8075 261.303 96.7732 261.063 96.6037 260.937L90.7017 256.509C90.5341 256.383 90.2941 256.418 90.1684 256.585L85.4414 262.885L91.9548 267.771Z" fill="#4B22EF"/>
<path d="M91.871 267.893L85.3538 263.004C83.9749 264.842 84.2244 267.362 85.9156 268.628L86.3136 268.927C88.0029 270.196 90.4921 269.733 91.871 267.893Z" fill="#DFEEFF"/>
<path d="M95.3829 263.163C95.8172 263.82 96.4609 264.297 97.2132 264.525C97.5236 264.618 97.6798 264.959 97.5598 265.285C97.4284 265.649 97.2075 265.976 96.9218 266.239L96.5618 266.654L95.183 266.037L95.1963 264.182L95.0439 263.617L95.3829 263.163Z" fill="#8F73FF"/>
<path d="M95.0442 263.617L94.5699 263.849C93.2539 264.489 92.3017 265.757 92.0541 267.201L91.9589 267.751C91.957 267.763 91.9627 267.772 91.9722 267.776C92.3969 267.906 92.753 268.184 92.9797 268.567L96.6858 274.825C97.0172 275.385 97.7943 275.453 98.2971 274.966C99.0112 274.274 99.5845 273.446 99.9806 272.537L100.209 272.008C100.409 271.549 100.19 271.044 99.7369 270.926L99.4455 270.848C98.857 270.694 98.4323 270.206 98.3447 269.586C98.4342 269.031 98.1218 268.525 97.6057 268.391C97.1848 268.283 96.9163 267.885 96.9563 267.43L96.9582 267.412C97.0001 266.942 96.7468 266.521 96.3278 266.367L96.2383 266.335C95.8174 266.18 95.5584 265.765 95.5869 265.295L95.6288 264.613C95.6555 264.175 95.4251 263.782 95.0442 263.617Z" fill="#DFEEFF"/>
<path d="M94.2804 240.353C94.8746 242.551 94.9184 244.914 94.3737 247.221C93.8442 249.462 93.0577 251.658 92.0293 253.761L90.6885 256.499L96.6172 260.946L97.9751 259.659C100.013 257.73 102.27 256.073 104.683 254.732C106.542 253.7 108.574 253.098 110.621 252.965L111.053 252.936L94.2804 240.353Z" fill="#DFEEFF"/>
<path d="M91.8712 267.893L91.9607 267.774L85.4416 262.886L85.354 263.004L91.8712 267.893Z" fill="#DFEEFF"/>
<path d="M105.393 243.001C106.623 243.904 106.823 245.723 105.837 247.061C104.85 248.4 100.392 245.128 101.378 243.789C102.363 242.451 104.161 242.096 105.393 243.001Z" fill="#1D1D4D"/>
<path d="M111.6 253.346L93.7339 239.944C94.5547 238.849 96.0364 238.572 97.0439 239.327L111.267 249.996C112.272 250.75 112.421 252.251 111.6 253.346Z" fill="#4B22EF"/>
<path d="M77.915 288.162C76.7113 286.808 76.8999 284.722 78.3207 283.597C84.2075 278.933 93.3472 272.907 93.3472 272.907L94.8575 274.602C94.8575 274.602 86.8109 284.461 82.4953 288.288C81.1393 289.489 79.1205 289.516 77.915 288.162Z" fill="#F8B716"/>
<path d="M93.3472 272.908L95.7716 270.376C96.5639 269.405 97.6399 268.708 98.8512 268.382L98.9902 268.344C99.1388 268.306 99.2854 268.407 99.3025 268.558C99.3102 268.647 99.2721 268.733 99.2016 268.784L97.4552 269.904C97.3942 269.948 97.5066 270.159 97.579 270.133L99.1883 269.535C99.3882 269.46 99.6092 269.567 99.6739 269.771C99.7406 269.975 99.6225 270.192 99.4149 270.247L98.2494 270.555C97.9332 270.641 97.3371 271.007 97.3733 271.112C97.4571 271.357 99.2721 270.839 99.2721 270.839C99.4606 270.797 99.6492 270.915 99.693 271.106C99.733 271.285 99.6301 271.466 99.4549 271.521L97.8799 272.016C97.7542 272.056 97.7694 272.237 97.8989 272.258C97.8989 272.258 99.0816 272.01 99.135 272.262C99.1464 272.319 98.994 272.572 98.994 272.572C98.9674 272.629 98.9159 272.671 98.855 272.687L97.5256 273.02C96.8743 273.151 96.2591 273.42 95.7221 273.81C95.2326 274.168 95.4574 274.526 94.8574 274.603L93.9071 274.488L93.3472 272.908Z" fill="#FCB47F"/>
<path d="M68.3543 273.964L60.6864 273.72L58.9887 286.164L52.4898 291.923L51.5722 289.716C49.0234 283.58 49.0021 276.687 51.5126 270.536C52.7692 267.458 56.012 265.681 59.2828 266.281L62.9789 266.803C67.1221 267.387 70.2819 270.806 70.5392 274.983C70.5515 275.184 70.5464 275.388 70.5239 275.588L69.8343 281.723C69.5886 283.909 70.0874 286.113 71.2495 287.981C72.9209 290.664 71.8961 294.207 69.0489 295.584L64.0947 297.979L61.185 289.834L65.5431 279.496L68.3543 273.964Z" fill="#11112D"/>
<path d="M55.0724 274.311C56.329 271.231 59.5718 269.456 62.8426 270.054L66.5387 270.576C67.6374 270.732 68.666 271.088 69.5906 271.603C68.3184 269.106 65.8904 267.287 62.973 266.876L59.2768 266.354C56.006 265.756 52.7634 267.531 51.5066 270.61C48.9963 276.76 49.0176 283.654 51.5662 289.789L52.484 291.998L54.1184 290.549C52.6392 285.208 52.9561 279.495 55.0724 274.311Z" fill="#11112D"/>
<path d="M54.1794 282.243C54.1794 282.243 55.4667 290.372 51.8203 294.514L59.4833 298.574L64.8298 294.742C64.8298 294.742 62.1336 295.691 62.9407 282.285L54.1794 282.243Z" fill="#FCB47F"/>
<path d="M61.7954 287.557C62.9371 287.636 66.3155 287.568 66.5429 286.46C67.4948 281.816 68.3562 278.872 68.391 274.699C68.3949 274.257 68.329 273.821 68.1659 273.406C67.5039 271.722 65.6185 270.395 64.9349 270.264C61.9887 270.033 60.514 272.147 57.5338 272.056C57.2836 272.046 57.0151 272.044 56.8069 272.18C56.5844 272.324 56.4854 272.591 56.4201 272.846C56.1182 274.023 56.4168 275.301 56.3039 276.522C56.1881 277.771 56.1409 279.034 56.2662 280.285C56.5096 282.721 57.4605 285.043 59.4846 286.576C60.1588 287.086 60.9465 287.497 61.7954 287.557Z" fill="#FCB47F"/>
<path d="M68.2925 272.373L64.3639 272.41C62.1587 272.429 60.2875 274.032 59.9302 276.209L59.1119 281.193C58.5363 284.697 57.0034 287.979 54.6814 290.666C54.2211 291.199 53.8867 291.557 53.8248 291.554C53.5888 291.535 52.5133 290.102 52.659 289.76C52.8047 289.415 53.9242 273.508 53.9242 273.508C53.9242 273.508 57.394 268.237 57.7151 268.183C57.9434 268.143 62.1124 268.494 64.4968 268.7C65.5653 268.793 66.581 269.199 67.4189 269.867L69.5903 271.602C69.8917 271.89 69.3903 272.775 69.0286 272.568C68.8003 272.438 68.5483 272.372 68.2925 272.373Z" fill="#11112D"/>
<path d="M55.7239 328.909L57.0398 328.345L57.3561 328.21L59.3834 327.338L59.6445 327.223L65.8172 324.576L66.0732 324.464L67.9181 323.672C70.5648 327.094 70.8966 331.202 70.6574 334.204C70.6381 334.457 70.6149 334.702 70.585 334.942C70.5128 335.575 70.4193 336.144 70.3246 336.628C70.0633 337.961 70.0233 339.327 70.2079 340.673L71.048 346.806C72.244 352.622 71.8945 356.467 71.3218 359.556C71.1253 360.617 70.9347 361.682 70.8181 362.754C70.5957 364.803 68.941 366.468 66.8114 366.633C64.4058 366.818 62.3051 365.02 62.1195 362.615C62.1181 362.596 59.0542 354.227 58.1107 351.009L56.6882 348.457C51.2211 337.59 55.7239 328.909 55.7239 328.909Z" fill="#FCB47F"/>
<path d="M51.6122 326.641L53.0381 326.516L53.3811 326.485L55.5789 326.289L55.8629 326.26L62.5527 325.668L62.8313 325.639L64.8308 325.462C66.2805 329.538 65.3167 333.545 64.1549 336.324C64.0574 336.558 63.9595 336.783 63.8559 337.004C63.5904 337.583 63.3248 338.093 63.084 338.523C62.4205 339.71 61.9569 340.995 61.713 342.332L60.6026 348.419C59.9277 354.321 58.3987 357.866 56.8925 360.623C56.3752 361.57 55.8629 362.522 55.4182 363.505C54.5688 365.383 52.4778 366.449 50.4029 365.943C48.059 365.371 46.6228 363.006 47.1955 360.663C47.1997 360.646 46.8936 351.739 46.9993 348.387L46.4423 345.519C44.6305 333.49 51.6122 326.641 51.6122 326.641Z" fill="#FCB47F"/>
<path d="M62.3963 361.346C62.89 360.331 63.9058 359.668 65.0335 359.634C66.6317 359.584 68.2591 360.028 69.6748 361.009C69.6818 361.013 69.689 361.019 69.6961 361.022C70.7923 361.788 71.0477 363.296 70.3194 364.418C69.6605 365.431 69.0986 366.462 68.7012 367.658C68.1788 369.231 67.5703 371.867 66.9509 374.942C65.078 384.244 63.105 397.553 63.105 397.553L60.2413 397.414C58.6425 386.463 58.7438 378.348 59.4626 372.522C60.1833 366.681 61.5244 363.138 62.3963 361.346Z" fill="#FCB47F"/>
<path d="M47.6173 361.198C48.1654 360.212 49.2162 359.604 50.344 359.631C51.9427 359.669 53.5434 360.202 54.9032 361.257C54.9102 361.263 54.9169 361.269 54.9238 361.274C55.9766 362.097 56.1491 363.619 55.3607 364.697C54.6474 365.674 54.0298 366.672 53.5678 367.843C52.96 369.386 52.2085 371.985 51.4221 375.023C49.0436 384.207 46.3461 397.388 46.3461 397.388L43.4943 397.092C42.4963 386.071 43.0408 377.975 44.0772 372.195C45.1159 366.401 46.6487 362.939 47.6173 361.198Z" fill="#FCB47F"/>
<path d="M72.6974 395.237C71.4403 389.75 78.4995 335.5 69.532 331.612C68.8047 330.587 65.662 329.775 64.701 329.489L63.4595 329.12C56.4728 327.047 51.7353 324.881 45.5642 331.09C42.6137 334.059 44.1928 342.679 45.4083 346.151C45.507 346.429 45.6005 346.708 45.6836 346.99C47.3823 352.59 46.9995 353.5 42.4215 363.473C37.9995 380 35.6446 393.426 35.7017 393.631C36.4758 396.794 51.6691 398.281 52.9996 398.5C54.5959 398.762 73.2929 397.938 72.6974 395.237Z" fill="#F8B716"/>
<path d="M38.7891 347.038L84.5486 350.624L87.074 318.411L41.3133 314.825L38.7891 347.038Z" fill="#4B22EF"/>
<path d="M68.1996 295.787C66.7305 293.87 64.1874 293.11 61.894 293.871C60.5245 294.327 58.7636 294.759 56.6921 294.938C51.4827 295.389 49.0866 292.63 46.0453 295.515C41.4798 299.844 46.4976 309.738 49.1479 314.872C50.1362 316.787 51.7438 321.94 51.6124 326.64C51.6124 326.64 62.222 330.459 70.2375 328.233L69.68 313.964C69.68 313.964 75.8049 305.718 68.1996 295.787Z" fill="#F8B716"/>
<path d="M47.5184 294.962C45.2554 294.784 42.9354 300.837 42.3364 308.48C41.7376 316.123 43.0866 322.463 45.3495 322.64C47.6126 322.817 49.9327 316.764 50.5315 309.122C51.1305 301.479 49.7815 295.139 47.5184 294.962Z" fill="#F8B716"/>
<path d="M43.1387 319.827C43.0006 318.019 44.4147 316.477 46.2272 316.441C53.7352 316.298 64.6587 317.042 64.6587 317.042L64.8318 319.305C64.8318 319.305 52.4577 322.274 46.7061 322.703C44.8985 322.838 43.2772 321.634 43.1387 319.827Z" fill="#F8B716"/>
<path d="M70.2103 399.385L60.1532 399.414L60.1465 397.014L62.2923 397.115L68.1041 397.967C69.702 398.111 70.2084 398.696 70.2103 399.385Z" fill="#4B22EF"/>
<path d="M53.144 399.31L43.0869 399.273L43.4497 396.893L46.156 397.039L51.9623 397.929C52.6439 398.032 53.1465 398.62 53.144 399.31Z" fill="#4B22EF"/>
<path d="M64.6582 317.042L67.4378 315.366C68.4084 314.572 69.6033 314.105 70.8539 314.029L70.9985 314.019C71.1507 314.01 71.275 314.139 71.2606 314.29C71.2522 314.379 71.1975 314.456 71.1171 314.494L69.1827 315.238C69.1134 315.271 69.1822 315.499 69.2576 315.488L70.9549 315.225C71.165 315.193 71.3598 315.341 71.3832 315.553C71.407 315.766 71.2474 315.954 71.0339 315.968L69.8288 316.038C69.5027 316.057 68.8451 316.295 68.8595 316.408C68.8929 316.663 70.7747 316.52 70.7747 316.52C70.969 316.516 71.1299 316.671 71.1343 316.865C71.1383 317.05 71.0008 317.204 70.8181 317.223L69.1757 317.394C69.045 317.408 69.0222 317.589 69.1454 317.634C69.1454 317.634 70.3546 317.629 70.3559 317.886C70.3561 317.945 70.1561 318.162 70.1561 318.162C70.1188 318.213 70.0601 318.244 69.9967 318.247L68.6281 318.307C67.964 318.305 67.307 318.446 66.7025 318.722C66.1508 318.971 66.3003 319.369 65.6958 319.324L64.8313 319.304L64.6582 317.042Z" fill="#FCB47F"/>
<path d="M22.9116 188.291C22.4389 188.41 21.9481 188.143 21.7948 187.672C21.6348 187.181 21.9033 186.654 22.3945 186.494C23.2595 186.212 24.0002 185.812 24.6593 185.267C25.0579 184.94 25.6478 184.997 25.9761 185.395C26.3046 185.795 26.2479 186.383 25.8491 186.713C25.0178 187.396 24.0505 187.922 22.974 188.272C22.9533 188.28 22.9325 188.286 22.9116 188.291Z" fill="#6ED200"/>
<path d="M201.191 61.8714C200.772 61.9751 200.322 61.7776 200.125 61.3752C199.895 60.911 200.088 60.3506 200.552 60.1234C202.31 59.2618 204.102 58.4199 205.88 57.6151C206.351 57.4028 206.904 57.6126 207.117 58.0817C207.329 58.5533 207.119 59.1087 206.65 59.3211C204.89 60.116 203.117 60.9505 201.376 61.8023C201.315 61.8319 201.253 61.8541 201.191 61.8714ZM187.497 69.2878C187.104 69.3866 186.679 69.2236 186.465 68.8582C186.2 68.4138 186.346 67.841 186.788 67.5769C188.469 66.577 190.185 65.5895 191.894 64.6414C192.345 64.3921 192.913 64.555 193.165 65.0068C193.417 65.4586 193.254 66.0265 192.802 66.2783C191.111 67.2164 189.41 68.1941 187.746 69.1841C187.667 69.231 187.583 69.2656 187.497 69.2878ZM174.449 77.7905C174.083 77.8819 173.686 77.7486 173.456 77.4251C173.158 77.003 173.256 76.4203 173.676 76.1216C175.271 74.9884 176.903 73.8651 178.527 72.7837C178.957 72.4973 179.539 72.6133 179.823 73.0429C180.11 73.4725 179.994 74.0551 179.564 74.3415C177.954 75.413 176.34 76.524 174.76 77.6449C174.663 77.714 174.557 77.7634 174.449 77.7905ZM162.127 87.3153C161.788 87.4017 161.418 87.2956 161.181 87.0117C160.848 86.6142 160.9 86.0241 161.295 85.6933C162.793 84.4367 164.326 83.185 165.86 81.9752C166.267 81.6567 166.855 81.7259 167.175 82.1307C167.494 82.5356 167.425 83.1257 167.02 83.4442C165.502 84.644 163.981 85.881 162.499 87.1252C162.386 87.2191 162.26 87.2832 162.127 87.3153ZM150.612 97.803C150.301 97.882 149.958 97.7981 149.716 97.5536C149.353 97.1858 149.358 96.5933 149.726 96.2304C151.113 94.8601 152.545 93.4899 153.977 92.1592C154.352 91.8062 154.945 91.8284 155.298 92.2061C155.648 92.5863 155.629 93.1764 155.248 93.5294C153.831 94.8453 152.414 96.2032 151.039 97.5611C150.916 97.6845 150.768 97.7635 150.612 97.803ZM139.984 109.189C139.7 109.261 139.386 109.199 139.147 108.992C138.754 108.656 138.71 108.066 139.045 107.673C140.319 106.192 141.633 104.711 142.951 103.269C143.302 102.886 143.892 102.862 144.272 103.21C144.655 103.558 144.679 104.15 144.331 104.531C143.025 105.96 141.724 107.427 140.465 108.893C140.334 109.044 140.164 109.145 139.984 109.189ZM130.33 121.41C130.071 121.477 129.785 121.43 129.551 121.262C129.134 120.958 129.041 120.373 129.344 119.956C130.488 118.373 131.677 116.788 132.873 115.243C133.189 114.833 133.774 114.759 134.184 115.075C134.592 115.391 134.668 115.979 134.352 116.386C133.167 117.917 131.992 119.487 130.857 121.052C130.724 121.237 130.536 121.358 130.33 121.41ZM121.581 134.3C121.335 134.364 121.067 134.325 120.838 134.174C120.408 133.89 120.288 133.312 120.572 132.88L121.011 132.211C121.924 130.824 122.866 129.392 123.802 127.985C124.087 127.555 124.668 127.439 125.098 127.725C125.529 128.012 125.645 128.592 125.359 129.022C124.426 130.424 123.485 131.856 122.575 133.238L122.135 133.907C122 134.112 121.8 134.246 121.581 134.3ZM112.765 147.143C112.502 147.21 112.212 147.163 111.978 146.987C111.563 146.679 111.478 146.094 111.786 145.679C112.868 144.22 113.976 142.672 115.174 140.939C115.467 140.514 116.05 140.405 116.475 140.702C116.9 140.996 117.006 141.578 116.713 142.003C115.501 143.753 114.382 145.321 113.287 146.795C113.153 146.973 112.967 147.091 112.765 147.143ZM71.9167 157.544C71.6118 157.621 71.2753 157.542 71.0338 157.305C70.2364 156.527 69.3444 155.895 68.383 155.431C67.7791 155.142 67.1241 154.925 66.4363 154.787C65.9295 154.688 65.5999 154.194 65.6999 153.688C65.8001 153.182 66.2924 152.853 66.799 152.952C67.6426 153.12 68.4489 153.387 69.1957 153.747C70.3403 154.298 71.3987 155.046 72.3418 155.969C72.7109 156.33 72.7176 156.922 72.3566 157.29C72.2315 157.418 72.0784 157.502 71.9167 157.544ZM55.9353 162.808C55.8704 162.825 55.8027 162.835 55.7329 162.835C55.2164 162.85 54.7861 162.442 54.7713 161.926C54.7379 160.754 54.9263 159.623 55.3312 158.566C55.706 157.589 56.2671 156.695 56.9984 155.91C57.3507 155.532 57.9425 155.51 58.3205 155.863C58.6984 156.216 58.7194 156.806 58.3674 157.184C57.8003 157.794 57.3665 158.485 57.0781 159.235C56.7621 160.06 56.6147 160.949 56.6414 161.875C56.654 162.321 56.3516 162.704 55.9353 162.808ZM102.608 158.932C102.294 159.011 101.946 158.924 101.706 158.675C101.345 158.302 101.357 157.71 101.728 157.352C102.915 156.209 104.09 154.994 105.221 153.745C105.393 153.555 105.564 153.364 105.733 153.174C106.076 152.787 106.667 152.752 107.053 153.095C107.44 153.439 107.474 154.031 107.131 154.419C106.958 154.611 106.785 154.806 106.609 154.999C105.45 156.28 104.244 157.527 103.027 158.7C102.905 158.816 102.76 158.892 102.608 158.932ZM65.9122 173.256C65.7757 173.291 65.6288 173.293 65.4819 173.261C63.3194 172.782 61.4048 171.965 59.7919 170.841C59.3682 170.543 59.2646 169.96 59.5603 169.538C59.8566 169.116 60.4395 169.01 60.8629 169.306C62.2743 170.291 63.965 171.007 65.8875 171.434C66.3919 171.548 66.7099 172.046 66.598 172.55C66.5185 172.908 66.2447 173.172 65.9122 173.256ZM90.2002 168.289C89.8003 168.39 89.368 168.215 89.1566 167.837C88.9033 167.388 89.0653 166.817 89.5166 166.565C91.1451 165.652 92.7792 164.615 94.377 163.482C94.796 163.183 95.3806 163.282 95.6796 163.702C95.9786 164.124 95.8815 164.709 95.4586 165.008C93.8094 166.178 92.1163 167.252 90.4308 168.197C90.3565 168.239 90.2785 168.269 90.2002 168.289ZM13.2659 188.36C13.161 188.388 13.0497 188.395 12.9359 188.383C12.5737 188.343 12.2145 188.306 11.859 188.272C10.3957 188.136 8.81436 188.227 7.40613 188.528C6.901 188.637 6.40378 188.316 6.2954 187.81C6.18702 187.304 6.50821 186.81 7.01359 186.699C8.62599 186.353 10.3618 186.254 12.0335 186.41C12.3989 186.445 12.768 186.482 13.1398 186.524C13.6536 186.578 14.0239 187.042 13.9676 187.556C13.9239 187.953 13.6343 188.269 13.2659 188.36ZM79.4304 172.646C78.1221 172.975 76.7946 173.236 75.4854 173.424C74.9741 173.498 74.5001 173.142 74.4268 172.631C74.3779 172.288 74.5208 171.962 74.7744 171.762C74.5559 171.548 74.4477 171.229 74.5146 170.908C74.7953 169.55 74.9296 168.207 74.9136 166.916C74.9074 166.407 74.8736 165.891 74.8134 165.383C74.7529 164.867 75.1198 164.403 75.6328 164.341C76.1451 164.282 76.6099 164.65 76.6707 165.161C76.7393 165.736 76.7776 166.319 76.785 166.891C76.8023 168.318 76.6556 169.797 76.347 171.286C76.3394 171.323 76.328 171.362 76.3167 171.399C77.8098 171.135 79.3067 170.777 80.7922 170.325C81.2835 170.175 81.8091 170.454 81.9597 170.948C82.1101 171.441 81.8301 171.965 81.3368 172.115C80.7045 172.308 80.0626 172.486 79.4304 172.646ZM4.02232 199.72C3.7426 199.791 3.434 199.732 3.19526 199.534C1.59125 198.199 0.576802 196.725 0.180552 195.15C0.0805637 194.752 0.0203233 194.345 0.00106628 193.94C-0.0233753 193.424 0.375351 192.985 0.891094 192.96C1.40733 192.935 1.84555 193.335 1.86999 193.851C1.88307 194.133 1.92529 194.416 1.99492 194.693C2.29241 195.876 3.09874 197.019 4.39118 198.093C4.78842 198.426 4.84273 199.013 4.51239 199.411C4.3808 199.569 4.20774 199.675 4.02232 199.72ZM68.7393 185.82C68.4706 185.887 68.1746 185.837 67.9384 185.655C67.5295 185.336 67.4545 184.748 67.7705 184.341C68.7412 183.087 69.6508 181.771 70.4744 180.435C70.6462 180.154 70.8158 179.875 70.982 179.589C71.2427 179.144 71.8159 178.996 72.2616 179.255C72.7077 179.517 72.8573 180.09 72.5963 180.537C72.423 180.83 72.2465 181.124 72.0673 181.416C71.2091 182.808 70.2613 184.178 69.2506 185.487C69.1175 185.657 68.9355 185.771 68.7393 185.82ZM18.4639 205.158C18.3419 205.188 18.212 205.195 18.0802 205.173C16.1086 204.84 14.152 204.383 12.2651 203.82C11.7703 203.672 11.4891 203.151 11.6373 202.658C11.7851 202.161 12.3061 201.88 12.8013 202.028C14.6147 202.571 16.4957 203.008 18.3918 203.329C18.9013 203.415 19.2445 203.897 19.1583 204.408C19.0944 204.783 18.8127 205.07 18.4639 205.158ZM57.4082 196.419C57.0382 196.51 56.6335 196.369 56.4064 196.036C56.1158 195.611 56.2261 195.026 56.6533 194.737C58.2439 193.654 59.7788 192.478 61.2152 191.239C61.606 190.901 62.1973 190.945 62.5345 191.335C62.872 191.728 62.8281 192.318 62.437 192.656C60.9471 193.94 59.3554 195.16 57.7062 196.285C57.6124 196.347 57.5117 196.394 57.4082 196.419ZM33.9838 205.368C33.95 205.376 33.9154 205.383 33.8801 205.388C31.9077 205.657 29.9095 205.815 27.9405 205.867C27.4241 205.877 26.995 205.47 26.9821 204.954C26.9693 204.438 27.3776 204.008 27.8941 203.996C29.7947 203.949 31.7241 203.791 33.6288 203.534C34.1406 203.465 34.6119 203.825 34.6812 204.336C34.7462 204.813 34.4395 205.255 33.9838 205.368ZM43.4484 203.218C42.9744 203.336 42.4826 203.067 42.3305 202.598C42.1722 202.104 42.4426 201.579 42.9344 201.418C44.7571 200.833 46.567 200.142 48.3135 199.369C48.786 199.159 49.3383 199.371 49.5479 199.843C49.7573 200.317 49.5442 200.868 49.0719 201.077C47.2652 201.88 45.3931 202.593 43.5076 203.201C43.4879 203.208 43.4681 203.213 43.4484 203.218Z" fill="#6ED200"/>
<path d="M215.489 55.5855C215.039 55.7004 214.565 55.4631 214.392 55.0183C214.205 54.5386 214.442 53.9965 214.922 53.8066C215.831 53.4518 216.761 53.097 217.683 52.7547C218.167 52.5723 218.707 52.8197 218.887 53.3044C219.067 53.7891 218.82 54.3263 218.337 54.5061C217.423 54.8484 216.503 55.1982 215.604 55.5505C215.567 55.5655 215.527 55.5755 215.489 55.5855Z" fill="#6ED200"/>
<path d="M221.195 46.0584C219.227 50.0334 220.856 54.8523 224.833 56.8205C228.808 58.7862 233.627 57.1576 235.595 53.1825C237.561 49.2049 235.932 44.386 231.957 42.4204C227.98 40.4522 223.161 42.0808 221.195 46.0584Z" fill="#F8B716"/>
<path d="M633.22 208.196C634.433 203.928 631.955 199.485 627.689 198.274C623.423 197.061 618.982 199.536 617.768 203.805C616.554 208.072 619.028 212.514 623.299 213.727C627.565 214.94 632.011 212.464 633.22 208.196Z" fill="#8F73FF"/>
<path d="M619.15 189.652C619.243 189.608 619.346 189.581 619.454 189.571C619.97 189.522 620.423 189.901 620.475 190.415C620.65 192.329 621.114 194.137 621.851 195.786C622.062 196.255 621.856 196.805 621.387 197.018C620.908 197.232 620.356 197.02 620.145 196.55C619.32 194.712 618.805 192.706 618.609 190.589C618.573 190.183 618.8 189.812 619.15 189.652ZM622.552 174.6C622.804 174.486 623.103 174.482 623.371 174.619C623.83 174.857 624.005 175.421 623.773 175.88C622.871 177.619 622.139 179.394 621.588 181.158C621.433 181.651 620.913 181.927 620.418 181.773C619.923 181.618 619.65 181.095 619.805 180.602C620.387 178.733 621.16 176.857 622.109 175.021C622.206 174.829 622.366 174.684 622.552 174.6ZM632.354 162.549C632.725 162.379 633.173 162.467 633.452 162.789C633.787 163.181 633.745 163.771 633.354 164.109C632.411 164.92 631.519 165.733 630.694 166.529C630.184 167.026 629.674 167.552 629.184 168.089C628.839 168.472 628.246 168.498 627.865 168.152C627.484 167.805 627.453 167.213 627.803 166.83C628.319 166.264 628.855 165.71 629.396 165.186C630.241 164.364 631.163 163.526 632.132 162.689C632.199 162.633 632.277 162.585 632.354 162.549ZM644.856 153.169C645.258 152.986 645.743 153.106 646.006 153.476C646.31 153.896 646.212 154.481 645.789 154.78C645.13 155.253 644.465 155.723 643.805 156.193C642.867 156.858 641.934 157.523 641.002 158.191C640.584 158.494 639.997 158.397 639.698 157.978C639.394 157.559 639.492 156.974 639.909 156.673C640.842 156.001 641.78 155.335 642.723 154.668C643.383 154.199 644.042 153.731 644.702 153.258C644.753 153.224 644.805 153.194 644.856 153.169ZM656.947 143.29C657.287 143.134 657.704 143.195 657.993 143.473C658.359 143.835 658.364 144.427 658.003 144.797C656.689 146.14 655.251 147.459 653.607 148.832C653.216 149.166 652.623 149.112 652.293 148.716C651.958 148.32 652.01 147.732 652.406 147.398C654.004 146.065 655.396 144.784 656.669 143.486C656.751 143.402 656.844 143.336 656.947 143.29ZM665.847 130.524C666.089 130.412 666.383 130.406 666.646 130.534C667.11 130.761 667.3 131.32 667.074 131.785C666.182 133.619 665.208 135.377 664.172 137.011C663.894 137.449 663.317 137.578 662.879 137.303C662.446 137.024 662.317 136.447 662.59 136.011C663.59 134.434 664.533 132.738 665.394 130.966C665.491 130.762 665.656 130.612 665.847 130.524ZM671.032 115.803C671.222 115.717 671.434 115.693 671.65 115.747C672.15 115.873 672.454 116.381 672.33 116.882C671.825 118.88 671.284 120.802 670.712 122.595C670.552 123.088 670.027 123.36 669.537 123.202C669.042 123.045 668.769 122.519 668.929 122.026C669.491 120.27 670.021 118.386 670.516 116.426C670.588 116.139 670.784 115.917 671.032 115.803ZM674.01 100.457C674.17 100.383 674.356 100.354 674.541 100.383C675.051 100.463 675.402 100.94 675.319 101.451C674.984 103.615 674.67 105.519 674.356 107.273C674.268 107.782 673.784 108.12 673.273 108.03C672.763 107.939 672.423 107.453 672.516 106.944C672.825 105.205 673.139 103.314 673.474 101.164C673.521 100.842 673.732 100.583 674.01 100.457ZM676.479 85.018C676.649 84.9412 676.84 84.9133 677.036 84.9494C677.546 85.0427 677.881 85.5307 677.788 86.0389C677.468 87.7597 677.149 89.6485 676.804 91.8135C676.721 92.3237 676.242 92.671 675.732 92.5896C675.221 92.5077 674.871 92.0284 674.953 91.5182C675.304 89.3382 675.629 87.435 675.948 85.6998C676.005 85.388 676.211 85.1406 676.479 85.018ZM680.257 69.8612C680.468 69.7659 680.71 69.7468 680.947 69.8262C681.437 69.9921 681.694 70.5235 681.529 71.0125C680.937 72.7606 680.38 74.6345 679.865 76.582C679.731 77.0814 679.221 77.3798 678.721 77.2479C678.221 77.1165 677.922 76.6042 678.056 76.1048C678.582 74.116 679.154 72.2004 679.762 70.4121C679.844 70.1581 680.03 69.9648 680.257 69.8612ZM716.239 52.3751C716.672 52.1777 717.192 52.3359 717.435 52.7544C717.697 53.2007 717.548 53.7733 717.1 54.034C716.244 54.5334 715.353 54.9931 714.461 55.3889C713.544 55.7986 712.611 56.2063 711.683 56.6C711.209 56.802 710.658 56.5809 710.457 56.1053C710.256 55.6301 710.467 55.0854 710.951 54.8782C711.869 54.4886 712.791 54.0856 713.703 53.68C714.533 53.3105 715.363 52.8838 716.156 52.4189C716.187 52.4029 716.213 52.388 716.239 52.3751ZM696.289 60.3699C696.32 60.3549 696.356 60.3415 696.392 60.3307C698.237 59.7303 700.098 59.0912 701.922 58.4301C702.407 58.2548 702.943 58.5058 703.118 58.9913C703.293 59.4773 703.041 60.0117 702.556 60.1895C700.711 60.8569 698.835 61.5031 696.97 62.1097C696.475 62.2695 695.949 62.0005 695.789 61.5093C695.64 61.0527 695.862 60.5647 696.289 60.3699ZM681.225 64.5474C681.282 64.5216 681.344 64.501 681.406 64.4866C683.297 64.05 685.209 63.5759 687.085 63.0776C687.58 62.9446 688.095 63.242 688.229 63.7413C688.363 64.2402 688.064 64.753 687.564 64.8855C685.668 65.389 683.74 65.8682 681.828 66.3094C681.323 66.4253 680.823 66.1115 680.705 65.608C680.602 65.1679 680.834 64.7283 681.225 64.5474ZM665.857 67.3875C665.94 67.3499 666.027 67.3241 666.12 67.3112C666.455 67.2649 666.79 67.2174 667.125 67.1685C668.712 66.9381 670.315 66.682 671.897 66.4078C672.402 66.3197 672.887 66.6603 672.98 67.1695C673.067 67.6787 672.727 68.1626 672.217 68.2513C670.619 68.528 669.001 68.7867 667.398 69.0202C667.058 69.0697 666.718 69.1176 666.373 69.165C665.863 69.2351 665.388 68.8769 665.321 68.3652C665.265 67.9467 665.491 67.5545 665.857 67.3875ZM722.31 40.4141C722.511 40.3229 722.743 40.3013 722.969 40.3698C723.217 40.4456 723.475 40.5275 723.727 40.6131C723.974 40.6965 724.175 40.88 724.284 41.1186C725.103 42.96 725.108 44.8761 724.299 46.8134C724.098 47.2895 723.552 47.5147 723.073 47.3153C722.598 47.1159 722.372 46.568 722.573 46.0913C723.129 44.7612 723.181 43.5016 722.727 42.2534C722.624 42.2215 722.526 42.1911 722.428 42.1607C721.934 42.0117 721.65 41.4897 721.8 40.9949C721.882 40.7269 722.073 40.5223 722.31 40.4141ZM687.054 55.8388C687.348 55.7059 687.698 55.7255 687.977 55.9203C688.404 56.214 688.507 56.7969 688.214 57.2215C687.817 57.8024 687.425 58.3991 687.059 58.9964C686.436 60.0143 685.828 61.0816 685.266 62.168C685.024 62.6256 684.462 62.8044 684.003 62.5653C683.545 62.3267 683.369 61.7619 683.606 61.3037C684.194 60.1792 684.817 59.0737 685.462 58.0183C685.848 57.3921 686.255 56.7654 686.678 56.1568C686.776 56.0135 686.91 55.9063 687.054 55.8388ZM650.268 67.9874C650.412 67.9209 650.577 67.891 650.747 67.9075C652.551 68.0812 654.489 68.1513 656.514 68.1152C657.029 68.1064 657.457 68.5177 657.462 69.0341C657.472 69.5505 657.06 69.9767 656.545 69.9859C654.452 70.0231 652.437 69.9504 650.567 69.7695C650.051 69.72 649.675 69.2629 649.727 68.7486C649.758 68.4043 649.974 68.1219 650.268 67.9874ZM698.16 44.9586C698.572 44.7699 699.072 44.9044 699.325 45.2946C699.613 45.7259 699.495 46.3057 699.062 46.5907C697.485 47.6307 695.96 48.8103 694.517 50.0962C694.135 50.4399 693.542 50.4075 693.197 50.022C692.852 49.637 692.888 49.0454 693.274 48.7011C694.779 47.355 696.382 46.1197 698.031 45.0292C698.072 45.0019 698.114 44.9787 698.16 44.9586ZM706.916 40.7326C706.947 40.7166 706.983 40.7027 707.024 40.6909C708.998 40.0678 710.993 39.6498 712.956 39.4489C713.466 39.3963 713.925 39.7704 713.976 40.2842C714.033 40.798 713.657 41.2578 713.147 41.3103C711.312 41.4979 709.441 41.8901 707.586 42.4751C707.091 42.6307 706.566 42.357 706.411 41.8643C706.267 41.4093 706.493 40.9264 706.916 40.7326ZM635.611 63.0549C635.9 62.9219 636.25 62.9415 636.533 63.1368C636.606 63.1889 636.683 63.2404 636.76 63.2909C638.224 64.2681 639.827 65.106 641.527 65.7822C642.007 65.9734 642.244 66.5171 642.053 66.9974C641.862 67.4772 641.316 67.7117 640.837 67.521C639.017 66.7959 637.291 65.8966 635.724 64.8468C635.637 64.7901 635.549 64.7324 635.467 64.6741C635.044 64.3794 634.936 63.7965 635.23 63.3723C635.327 63.2291 635.461 63.1224 635.611 63.0549ZM627.345 50.2127C627.406 50.1838 627.473 50.1611 627.546 50.1467C628.051 50.0426 628.545 50.3683 628.648 50.8749C628.952 52.3591 629.437 53.83 630.086 55.2467C630.225 55.5533 630.375 55.8589 630.524 56.1563C630.767 56.615 630.586 57.1798 630.122 57.4169C629.664 57.656 629.102 57.4741 628.865 57.0154C628.7 56.6918 628.535 56.3583 628.386 56.0254C627.674 54.4798 627.149 52.874 626.814 51.2511C626.726 50.8161 626.953 50.3894 627.345 50.2127ZM631.447 35.9011C631.813 35.7326 632.261 35.8181 632.539 36.1402C632.88 36.5314 632.838 37.122 632.447 37.4596C631.06 38.6557 630.004 40.1276 629.293 41.8355C629.097 42.3127 628.55 42.5395 628.071 42.3416C627.597 42.1442 627.37 41.5969 627.566 41.1197C628.386 39.1402 629.617 37.4328 631.22 36.0444C631.292 35.9846 631.364 35.9372 631.447 35.9011Z" fill="#6ED200"/>
<path d="M179.84 295.378L160.565 293.314C159.814 293.234 159.169 292.752 158.879 292.055L152.524 276.747C151.861 275.151 149.646 275.029 148.812 276.543L140.154 292.268C139.842 292.836 139.282 293.222 138.642 293.316L121.778 295.752C120.086 295.995 119.408 298.075 120.633 299.269L132.864 311.211C133.304 311.641 133.528 312.245 133.477 312.858L131.997 330.484C131.856 332.175 133.704 333.305 135.143 332.408L148.536 324.064C149.124 323.696 149.858 323.651 150.488 323.938L165.362 330.764C166.869 331.455 168.535 330.177 168.255 328.543L165.617 313.088C165.494 312.363 165.766 311.626 166.334 311.155L180.939 299.014C182.341 297.848 181.653 295.571 179.84 295.378Z" fill="#DBA11D"/>
<path d="M179.1 296.566L162.296 294.111C161.624 294.012 161.043 293.59 160.744 292.982L153.24 277.746C152.486 276.213 150.3 276.211 149.542 277.744L142.013 292.965C141.712 293.574 141.131 293.995 140.459 294.092L123.652 296.521C121.961 296.764 121.283 298.844 122.505 300.038L134.656 311.901C135.142 312.376 135.364 313.059 135.248 313.728L132.363 330.463C132.073 332.148 133.841 333.434 135.355 332.64L150.393 324.749C150.993 324.435 151.711 324.435 152.311 324.751L167.335 332.666C168.849 333.462 170.619 332.179 170.331 330.493L167.474 313.755C167.36 313.084 167.583 312.402 168.069 311.93L180.238 300.086C181.465 298.894 180.791 296.814 179.1 296.566Z" fill="#F8B716"/>
<path d="M265.165 230.243L245.887 228.179C245.138 228.099 244.493 227.617 244.202 226.92L237.848 211.612C237.184 210.016 234.97 209.894 234.135 211.408L225.478 227.133C225.166 227.701 224.605 228.087 223.964 228.181L207.1 230.617C205.41 230.86 204.731 232.94 205.957 234.134L218.188 246.076C218.627 246.506 218.852 247.11 218.801 247.723L217.319 265.349C217.179 267.04 219.026 268.17 220.467 267.273L233.86 258.929C234.447 258.561 235.182 258.516 235.811 258.803L250.685 265.629C252.192 266.321 253.858 265.043 253.579 263.409L250.941 247.953C250.816 247.228 251.088 246.491 251.656 246.02L266.263 233.879C267.664 232.714 266.977 230.436 265.165 230.243Z" fill="#DBA11D"/>
<path d="M264.42 231.434L247.618 228.979C246.944 228.88 246.363 228.457 246.065 227.849L238.56 212.613C237.806 211.079 235.621 211.079 234.862 212.611L227.333 227.832C227.034 228.442 226.453 228.863 225.781 228.96L208.974 231.388C207.28 231.632 206.604 233.711 207.826 234.905L219.978 246.769C220.462 247.243 220.685 247.927 220.57 248.595L217.683 265.33C217.395 267.016 219.163 268.301 220.676 267.507L235.715 259.616C236.314 259.302 237.031 259.302 237.632 259.618L252.655 267.534C254.17 268.329 255.938 267.046 255.653 265.361L252.796 248.622C252.681 247.951 252.903 247.27 253.39 246.797L265.558 234.953C266.786 233.761 266.111 231.681 264.42 231.434Z" fill="#F8B716"/>
<path d="M343.92 164.816L324.645 162.755C323.895 162.673 323.249 162.189 322.961 161.493L316.604 146.187C315.941 144.59 313.728 144.468 312.893 145.983L304.235 161.708C303.924 162.274 303.363 162.662 302.724 162.755L285.857 165.19C284.168 165.436 283.488 167.513 284.714 168.708L296.944 180.649C297.386 181.08 297.609 181.685 297.558 182.298L296.078 199.923C295.936 201.614 297.785 202.743 299.225 201.846L312.616 193.503C313.204 193.137 313.937 193.089 314.569 193.379L329.442 200.205C330.948 200.896 332.615 199.616 332.335 197.982L329.697 182.529C329.575 181.801 329.847 181.066 330.413 180.594L345.021 168.456C346.422 167.29 345.734 165.011 343.92 164.816Z" fill="#DBA11D"/>
<path d="M343.181 166.006L326.378 163.551C325.706 163.452 325.124 163.031 324.825 162.421L317.322 147.185C316.567 145.654 314.381 145.651 313.624 147.183L306.095 162.407C305.793 163.014 305.214 163.435 304.541 163.534L287.733 165.96C286.04 166.203 285.362 168.283 286.586 169.477L298.736 181.34C299.222 181.814 299.445 182.498 299.329 183.166L296.445 199.901C296.154 201.587 297.922 202.872 299.437 202.078L314.474 194.19C315.073 193.873 315.793 193.873 316.395 194.19L331.418 202.105C332.93 202.903 334.701 201.619 334.413 199.933L331.557 183.193C331.441 182.524 331.664 181.843 332.15 181.368L344.32 169.526C345.546 168.333 344.871 166.251 343.181 166.006Z" fill="#F8B716"/>
<path d="M421.908 99.3989L402.634 97.3375C401.883 97.2548 401.237 96.7717 400.946 96.0768L394.593 80.7703C393.928 79.1721 391.715 79.0497 390.881 80.5651L382.222 96.2886C381.911 96.8577 381.351 97.2448 380.71 97.3375L363.844 99.7728C362.154 100.018 361.475 102.096 362.7 103.29L374.932 115.232C375.372 115.662 375.597 116.267 375.544 116.879L374.065 134.505C373.923 136.197 375.773 137.326 377.212 136.429L390.603 128.086C391.192 127.719 391.926 127.673 392.555 127.961L407.431 134.786C408.937 135.479 410.605 134.199 410.323 132.565L407.686 117.111C407.561 116.383 407.835 115.648 408.401 115.179L423.006 103.035C424.409 101.871 423.721 99.5941 421.908 99.3989Z" fill="#DBA11D"/>
<path d="M421.165 100.591L404.36 98.1361C403.69 98.037 403.108 97.6142 402.808 97.0063L395.306 81.771C394.552 80.2382 392.366 80.2348 391.606 81.7676L384.077 96.9898C383.777 97.5977 383.195 98.0205 382.525 98.1163L365.717 100.544C364.025 100.789 363.348 102.867 364.571 104.062L376.721 115.925C377.206 116.401 377.431 117.081 377.315 117.752L374.428 134.486C374.137 136.172 375.905 137.457 377.421 136.663L392.458 128.772C393.059 128.458 393.776 128.458 394.377 128.775L409.401 136.69C410.914 137.486 412.685 136.202 412.397 134.519L409.54 117.778C409.424 117.108 409.649 116.427 410.135 115.951L422.304 104.109C423.53 102.916 422.856 100.838 421.165 100.591Z" fill="#F8B716"/>
<path d="M501.134 34.5879L481.86 32.5234C481.108 32.4437 480.463 31.9618 480.175 31.2635L473.818 15.9589C473.154 14.3612 470.942 14.2398 470.107 15.7539L461.447 31.4799C461.136 32.0453 460.574 32.4324 459.937 32.5234L443.072 34.9598C441.38 35.2064 440.701 37.286 441.926 38.4776L454.157 50.42C454.597 50.8488 454.821 51.456 454.772 52.067L453.292 69.6941C453.152 71.3866 454.996 72.5137 456.438 71.6181L469.83 63.2732C470.418 62.9051 471.151 62.8596 471.781 63.148L486.656 69.9749C488.163 70.6656 489.829 69.3867 489.548 67.7549L486.911 52.2984C486.789 51.5736 487.059 50.8374 487.628 50.3669L502.234 38.2233C503.635 37.0583 502.948 34.7814 501.134 34.5879Z" fill="#DBA11D"/>
<path d="M500.395 35.7774L483.592 33.3218C482.918 33.2233 482.338 32.7988 482.039 32.1925L474.535 16.9588C473.781 15.424 471.595 15.4203 470.837 16.955L463.307 32.1774C463.008 32.7837 462.424 33.2081 461.753 33.3028L444.947 35.7319C443.257 35.9744 442.579 38.0549 443.799 39.2486L455.952 51.1134C456.437 51.5871 456.66 52.2693 456.543 52.9362L453.659 69.6744C453.367 71.3569 455.137 72.6453 456.649 71.8495L471.686 63.9598C472.288 63.6453 473.004 63.6453 473.607 63.9598L488.632 71.8761C490.144 72.6719 491.914 71.391 491.626 69.7047L488.769 52.9665C488.655 52.2958 488.879 51.6137 489.364 51.14L501.532 39.2978C502.759 38.1041 502.085 36.0237 500.395 35.7774Z" fill="#F8B716"/>
<path d="M428.244 72.1207V137.308H350.017V202.5H271.789V267.689H194.326V332.88H116.098V398.069H194.326H271.789H272.555H350.017H428.244H506.472V332.88V267.689V202.5V137.308V72.1207H428.244Z" fill="#8F73FF"/>
<path d="M590.159 192.845L656.999 39.4409L503.594 106.285L517.247 119.938L239.117 398.069H357.625L576.501 179.192L590.159 192.845Z" fill="#6ED200"/>
<path d="M567.335 147.889C566.217 144.783 571.072 140.193 578.176 137.637C585.285 135.083 591.949 135.531 593.067 138.639C594.186 141.745 589.331 146.335 582.222 148.891C575.118 151.445 568.453 150.997 567.335 147.889Z" fill="#4B22EF"/>
<path d="M572.039 173.287C572.676 173.129 573.519 173.342 574.352 173.691C576.234 174.485 577.722 176.517 578.154 178.822C579.154 184.137 581.095 194.475 581.814 198.438C582.01 199.535 581.895 200.615 581.484 201.499L580.407 203.832C579.71 205.333 578.273 206.049 576.726 205.664C575.443 205.346 574.263 204.316 573.561 202.901L571.684 199.13C570.248 196.235 568.221 193.751 565.84 191.965C563.685 190.352 562.419 187.398 562.71 184.665C563.317 178.95 566.588 174.653 571.214 173.495L572.039 173.287Z" fill="#1D1D4D"/>
<path d="M557.147 174.673C556.491 174.711 555.747 175.165 555.061 175.747C553.497 177.064 552.677 179.448 552.95 181.775C553.577 187.148 554.797 197.596 555.289 201.591C555.423 202.698 555.856 203.696 556.512 204.418L558.232 206.324C559.347 207.549 560.932 207.806 562.294 206.98C563.421 206.296 564.241 204.961 564.494 203.401L565.162 199.243C565.675 196.051 566.874 193.078 568.615 190.665C570.192 188.485 570.524 185.289 569.435 182.766C567.156 177.488 562.757 174.357 557.992 174.626L557.147 174.673Z" fill="#1D1D4D"/>
<path d="M558.142 141.745L548.359 146.139C547.067 146.718 546.344 148.108 546.604 149.496L547.454 153.974C548.1 157.389 549.418 160.641 551.327 163.544L552.619 165.506C554.711 168.684 555.064 172.701 553.559 176.196L553.142 177.156C552.84 177.864 553.044 178.687 553.644 179.169L553.716 179.228C559.965 183.355 567.176 183.641 573.042 181.846C574.25 181.479 575.262 180.89 576.091 180.517C577.226 180.001 577.855 178.769 577.604 177.546L576.507 172.198C575.674 168.143 575.721 163.957 576.643 159.924L577.115 157.853C577.723 155.168 578.033 152.422 578.033 149.668V146.802C578.033 145.71 577.366 144.731 576.35 144.331L569.131 141.488C565.581 140.092 561.619 140.183 558.142 141.745Z" fill="#4B22EF"/>
<path d="M562.058 134.231L557.135 142.322L558.825 143.662C561.057 145.432 563.962 146.106 566.746 145.5C568.89 145.034 570.366 143.057 570.202 140.866L569.815 137.2L562.058 134.231Z" fill="#FCB47F"/>
<path d="M569.235 141.65C570.398 141.376 571.311 140.456 571.924 139.433C574.224 135.628 573.015 130.762 571.73 126.505C571.59 126.054 571.442 125.58 571.096 125.262C570.563 124.768 567.608 122.996 566.885 123.077C563.879 123.765 563.079 126.378 560.086 127.218C559.832 127.288 559.566 127.37 559.401 127.572C559.228 127.789 559.211 128.092 559.228 128.372C559.3 129.663 560.001 130.871 560.276 132.147C560.555 133.453 560.911 134.754 561.431 135.988C562.441 138.388 564.124 140.452 566.627 141.378C567.46 141.686 568.373 141.856 569.235 141.65Z" fill="#F49B5F"/>
<path d="M569.402 140.887C570.565 140.611 571.479 139.693 572.096 138.67C574.393 134.863 573.183 129.999 571.898 125.742C571.762 125.291 571.61 124.817 571.263 124.497C570.73 124.005 567.774 122.232 567.055 122.313C564.049 123.001 563.249 125.615 560.255 126.455C560.006 126.525 559.735 126.605 559.57 126.809C559.397 127.026 559.38 127.329 559.397 127.607C559.469 128.898 560.171 130.107 560.446 131.381C560.725 132.69 561.08 133.991 561.6 135.223C562.611 137.625 564.294 139.689 566.793 140.613C567.626 140.921 568.54 141.092 569.402 140.887Z" fill="#FCB47F"/>
<path d="M550.003 145.503C546.702 145.503 544.026 151.624 544.026 159.175C544.026 166.727 546.702 172.85 550.003 172.85C553.304 172.85 555.983 166.727 555.983 159.175C555.983 151.624 553.304 145.503 550.003 145.503Z" fill="#4B22EF"/>
<path d="M560.491 136.805C560.491 136.805 556.453 132.227 556.303 128.711C556.149 125.193 557.066 123.324 558.902 123.074C560.737 122.824 565.017 124.353 565.017 124.353C565.017 124.353 561.672 132.345 561.596 133.493C561.43 135.988 560.491 136.805 560.491 136.805Z" fill="#11112D"/>
<path d="M559.694 126.858C559.694 126.858 558.756 123.244 560.037 121.807C560.561 121.221 561.537 120.401 562.518 119.636C564.326 118.215 566.478 117.29 568.756 116.945C568.764 116.943 568.777 116.941 568.79 116.94C569.441 116.842 570.079 116.683 570.7 116.465C571.638 116.136 572.974 115.691 573.101 115.777C573.295 115.911 573.988 119.17 572.407 120.569C570.831 121.968 563.418 123.208 563.553 127.17C563.688 131.132 559.694 126.858 559.694 126.858Z" fill="#11112D"/>
<path d="M558.938 125.425C558.938 125.425 559.332 121.711 561.039 120.818C561.734 120.454 562.941 120.032 564.123 119.66C566.317 118.97 568.66 118.862 570.909 119.342C570.922 119.345 570.93 119.347 570.943 119.349C571.587 119.488 572.243 119.565 572.9 119.58C573.895 119.603 575.302 119.657 575.391 119.782C575.522 119.976 575.026 123.271 573.052 124.022C571.083 124.775 563.708 123.321 562.437 127.076C561.162 130.83 558.938 125.425 558.938 125.425Z" fill="#11112D"/>
<path d="M556.887 128.291C556.887 128.291 555.113 125.006 556.01 123.304C556.38 122.609 557.135 121.579 557.898 120.604C559.316 118.791 561.183 117.377 563.31 116.498C563.323 116.493 563.336 116.489 563.344 116.485C563.952 116.234 564.536 115.926 565.089 115.566C565.92 115.023 567.107 114.271 567.254 114.325C567.472 114.409 568.928 117.407 567.728 119.142C566.528 120.878 559.627 123.856 560.705 127.67C561.783 131.485 556.887 128.291 556.887 128.291Z" fill="#11112D"/>
<path d="M560.543 130.203C560.04 130.865 560.107 132.048 560.689 132.844C561.271 133.64 562.149 133.749 562.652 133.084C563.152 132.421 563.085 131.239 562.503 130.442C561.92 129.646 561.043 129.538 560.543 130.203Z" fill="#FCB47F"/>
<path d="M572.859 197.956C572.551 198.317 572.312 198.729 572.15 199.17L568.879 208.059C567.403 212.056 566.831 216.328 567.194 220.577L568.887 240.281L571.431 240.967L578.294 215.578L581.8 200.696C582.022 199.746 581.552 198.763 580.663 198.331L577.806 196.938C576.109 196.114 574.069 196.533 572.859 197.956Z" fill="#1D1D4D"/>
<path d="M555.475 200.382C555.245 200.795 555.091 201.246 555.016 201.713L553.552 211.07C552.894 215.277 553.169 219.579 554.361 223.674L559.883 242.663L562.51 242.837L564.261 216.595L564.779 201.315C564.812 200.338 564.157 199.467 563.198 199.218L560.125 198.414C558.302 197.936 556.384 198.748 555.475 200.382Z" fill="#1D1D4D"/>
<path d="M585.82 143.364C587.644 145.534 590.687 145.595 592.607 143.502C594.526 141.411 594.605 137.957 592.776 135.788C590.948 133.621 587.91 133.56 585.986 135.653C584.066 137.744 583.992 141.197 585.82 143.364Z" fill="#8F73FF"/>
<path d="M605 126.77L604.073 125.759C604.073 125.759 592.921 131.708 588.014 135.77C586.088 137.364 585.677 140.128 587.369 141.968C589.056 143.809 591.852 143.647 593.596 141.859C597.417 137.943 605 126.77 605 126.77Z" fill="#FCB47F"/>
<path d="M603.717 126.557L604.362 126.778C605.021 127.004 605.728 126.968 606.205 126.687L606.952 126.243C607.469 125.934 608.198 125.839 608.937 125.984L609.996 126.187C610.344 126.254 610.508 125.961 610.223 125.776C610.188 125.753 610.148 125.728 610.103 125.702C609.115 125.132 607.9 124.871 606.783 124.934C606.774 124.936 606.77 124.936 606.765 124.936C606.053 124.978 605.395 125.138 604.829 125.401L603.908 125.835L603.717 126.557Z" fill="#FCB47F"/>
<path d="M604.504 126.451C604.49 126.589 604.592 126.711 604.73 126.73L604.818 126.744C605.164 126.789 605.506 126.704 605.71 126.521L606.029 126.232C606.25 126.032 606.601 125.916 606.973 125.913L607.51 125.91C607.682 125.91 607.736 125.75 607.58 125.687C607.558 125.679 607.536 125.672 607.514 125.664C606.978 125.481 606.361 125.472 605.82 125.611C605.47 125.702 605.164 125.845 604.916 126.028L604.61 126.254C604.544 126.3 604.504 126.373 604.504 126.451Z" fill="#F49B5F"/>
<path d="M568.634 244.751H559.886V242.664L562.511 242.837L567.598 243.561C568.193 243.645 568.634 244.151 568.634 244.751Z" fill="#6ED200"/>
<path d="M576.894 244.28L568.387 242.246L568.871 240.216L571.431 240.966L576.168 242.875C576.724 243.1 577.034 243.698 576.894 244.28Z" fill="#6ED200"/>
<path d="M571.001 172.758L573.713 173.973C574.039 174.122 574.425 173.99 574.598 173.672L575.518 171.949C575.662 171.678 575.607 171.343 575.387 171.132L574.628 170.406C574.412 170.201 574.09 170.156 573.827 170.301L572.611 170.966C572.433 171.063 572.23 171.094 572.031 171.053C571.722 170.989 571.4 171.103 571.201 171.349L570.989 171.612L571.001 172.758Z" fill="#FCB47F"/>
<path d="M557.274 172.33C558.982 170.064 558.362 167.087 555.898 165.68C553.429 164.272 550.047 164.967 548.34 167.234C546.632 169.498 547.248 172.475 549.717 173.882C552.185 175.29 555.571 174.595 557.274 172.33Z" fill="#8F73FF"/>
<path d="M571.847 172.765L571.986 171.335C571.986 171.335 560.106 167.061 553.806 166.117C551.337 165.745 549.006 167.282 548.758 169.77C548.513 172.255 550.502 174.23 552.997 174.336C558.463 174.571 571.847 172.765 571.847 172.765Z" fill="#FCB47F"/>
<path d="M502.094 398.582H498.854L571.134 204H574.373L502.094 398.582Z" fill="#5B941C"/>
<path d="M526.62 398.582H523.384L595.66 204H598.901L526.62 398.582Z" fill="#5B941C"/>
<path d="M587.22 227.213H565.932L567.344 223.415H588.632L587.22 227.213Z" fill="#8F73FF"/>
<path d="M579.819 246.652H558.528L559.938 242.855H581.228L579.819 246.652Z" fill="#5B941C"/>
<path d="M572.41 266.589H551.122L552.533 262.791H573.821L572.41 266.589Z" fill="#5B941C"/>
<path d="M565.004 286.525H543.72L545.128 282.728H566.417L565.004 286.525Z" fill="#5B941C"/>
<path d="M557.601 306.463H536.312L537.726 302.665H559.01L557.601 306.463Z" fill="#5B941C"/>
<path d="M550.195 326.399H528.907L530.318 322.602H551.606L550.195 326.399Z" fill="#5B941C"/>
<path d="M542.788 346.338H521.502L522.913 342.54H544.199L542.788 346.338Z" fill="#5B941C"/>
<path d="M535.385 366.273H514.098L515.509 362.476H536.796L535.385 366.273Z" fill="#5B941C"/>
<path d="M527.978 386.213H506.691L508.103 382.415H529.389L527.978 386.213Z" fill="#5B941C"/>
<path d="M574.375 204.499H571.137L643.417 399.08H646.655L574.375 204.499Z" fill="#6ED200"/>
<path d="M598.904 204.499H595.663L667.941 399.081H671.182L598.904 204.499Z" fill="#6ED200"/>
<path d="M659.504 376.368H638.214L639.628 380.165H660.913L659.504 376.368Z" fill="#6ED200"/>
<path d="M652.1 356.431H630.81L632.219 360.229H653.509L652.1 356.431Z" fill="#6ED200"/>
<path d="M644.693 336.493H623.402L624.817 340.291H646.103L644.693 336.493Z" fill="#6ED200"/>
<path d="M637.289 316.557H615.998L617.412 320.354H638.699L637.289 316.557Z" fill="#6ED200"/>
<path d="M629.881 296.619H608.593L610.003 300.416H631.291L629.881 296.619Z" fill="#6ED200"/>
<path d="M622.475 276.682H601.186L602.6 280.479H623.885L622.475 276.682Z" fill="#6ED200"/>
<path d="M615.072 256.744H593.785L595.194 260.541H616.481L615.072 256.744Z" fill="#6ED200"/>
<path d="M607.666 236.807H586.376L587.789 240.604H609.074L607.666 236.807Z" fill="#6ED200"/>
<path d="M600.259 216.87H578.972L580.383 220.668H601.67L600.259 216.87Z" fill="#6ED200"/>
<path d="M341.714 395.388L341.949 397.946C341.964 398.091 341.849 398.214 341.703 398.209L336.321 398.039C336.136 398.034 336.091 397.78 336.259 397.71L338.608 396.738C339.096 396.538 339.463 396.125 339.609 395.62L339.69 395.325L341.714 395.388Z" fill="#F8B716"/>
<path d="M333.232 291.61C335.032 293.1 332.412 299.23 327.38 305.305C322.35 311.379 316.813 315.096 315.013 313.607C313.216 312.118 315.835 305.985 320.865 299.912C325.897 293.837 331.435 290.119 333.232 291.61Z" fill="#DFEEFF"/>
<path d="M298.903 312.952L296.39 314.229C296.085 314.384 295.712 314.277 295.537 313.982L294.585 312.39C294.432 312.14 294.47 311.82 294.668 311.609L295.354 310.885C295.552 310.68 295.857 310.624 296.11 310.748L297.296 311.325C297.466 311.409 297.664 311.428 297.85 311.38C298.142 311.306 298.449 311.399 298.652 311.624L298.865 311.862L298.903 312.952Z" fill="#FCB47F"/>
<path d="M320.389 310.361C320.232 308.502 318.54 307.169 316.694 307.433C309.045 308.527 298.097 311.357 298.097 311.357L298.263 313.277C298.263 313.277 311.33 314.385 317.239 313.869C319.099 313.709 320.547 312.218 320.389 310.361Z" fill="#DFEEFF"/>
<path d="M335.745 280.399C335.745 280.399 333.722 288.034 336.801 292.345L329.088 295.475L324.357 291.294C324.357 291.294 326.838 292.465 327.373 279.585L335.745 280.399Z" fill="#FCB47F"/>
<path d="M327.954 284.729C326.856 284.694 323.637 284.3 323.53 283.221C323.072 278.695 322.537 275.801 322.909 271.812C322.948 271.39 323.055 270.978 323.251 270.599C324.046 269.055 325.976 267.971 326.641 267.912C329.477 267.979 330.68 270.142 333.535 270.344C333.775 270.361 334.028 270.384 334.216 270.535C334.414 270.695 334.481 270.959 334.519 271.207C334.693 272.361 334.285 273.553 334.271 274.728C334.26 275.932 334.183 277.143 333.94 278.326C333.471 280.627 332.337 282.752 330.255 284.018C329.562 284.439 328.771 284.755 327.954 284.729Z" fill="#FCB47F"/>
<path d="M322.861 269.561L326.977 270.016C329.081 270.251 330.711 271.965 330.841 274.077L331.137 278.916C331.345 282.318 332.49 285.599 334.444 288.393C334.832 288.945 335.117 289.32 335.176 289.322C335.406 289.328 336.57 288.065 336.464 287.723C336.359 287.38 336.838 272.083 336.838 272.083C336.838 272.083 334.039 266.712 333.737 266.63C333.438 266.546 325.633 266.44 325.633 266.44L322.853 269.534C322.845 269.544 322.85 269.559 322.861 269.561Z" fill="#432E36"/>
<path d="M336.33 351.892L341.311 362.912C343.438 367.614 344.252 372.802 343.671 377.927L341.683 395.572L339.59 396.023L339.344 394.551C338.246 389.948 337.257 385.316 336.389 380.664C334.663 371.436 332.919 363.761 330.578 353.789L330.558 353.686C330.285 352.174 331.183 350.694 332.648 350.239C334.119 349.782 335.694 350.49 336.33 351.892Z" fill="#FCB47F"/>
<path d="M315.943 395.363L315.745 397.924C315.734 398.069 315.599 398.17 315.457 398.142L310.18 397.066C309.998 397.029 309.998 396.772 310.175 396.732L312.655 396.17C313.167 396.054 313.601 395.712 313.828 395.235L313.96 394.959L315.943 395.363Z" fill="#F8B716"/>
<path d="M325.615 352.904L326.575 364.962C326.982 370.104 325.995 375.263 323.715 379.891L315.869 395.82L313.746 395.537L314.015 394.068C314.538 389.364 315.175 384.671 315.931 379.998C317.433 370.732 318.39 362.92 319.561 352.743L319.578 352.639C319.835 351.126 321.18 350.036 322.714 350.105C324.249 350.171 325.493 351.373 325.615 352.904Z" fill="#FCB47F"/>
<path d="M338.665 331.62C333.862 332.593 328.873 332.557 324.019 331.466L323.418 331.448C322.06 331.142 321.326 329.662 321.909 328.397C321.909 328.397 323.124 314.121 319.829 300.671C318.897 296.861 323.082 293.541 323.549 292.263L323.944 291.591C324.77 290.187 326.124 289.168 327.709 288.791C330.486 288.126 334.861 287.548 337.425 289.566C338.352 290.294 340.101 292.014 340.14 292.623C340.14 292.623 341.355 331.075 338.665 331.62Z" fill="#1D1D4D"/>
<path d="M331.16 292.87C333.327 293.742 332.692 300.381 329.744 307.696C326.793 315.012 322.646 320.234 320.482 319.36C318.315 318.485 318.95 311.848 321.898 304.533C324.849 297.218 328.993 291.996 331.16 292.87Z" fill="#DFEEFF"/>
<path d="M322.181 268.379C321.767 267.667 322.044 266.751 322.786 266.389L325.046 265.284C328.133 263.776 331.789 264.022 334.645 265.93L335.379 266.419C338.806 268.707 341.354 272.089 342.607 276.012L345.226 284.213L348.819 291.433C350.206 294.218 349.875 297.551 347.966 300.007C346.074 302.443 342.963 303.592 339.941 302.971C337.542 302.477 335.504 300.899 334.431 298.695L328.998 287.546L327.149 274.331C326.892 272.495 325.731 270.91 324.058 270.11C323.274 269.735 322.62 269.131 322.181 268.379Z" fill="#11112D"/>
<path d="M322.783 266.394L324.418 265.594C324.66 266.364 325.108 267.053 325.722 267.581C327.126 268.79 327.83 270.622 327.596 272.462L327.259 275.138L327.145 274.334C326.89 272.498 325.73 270.914 324.057 270.114C323.272 269.738 322.617 269.135 322.18 268.382C321.767 267.67 322.041 266.756 322.783 266.394Z" fill="#11112D"/>
<path d="M340.966 302.695C343.451 300.823 344.644 297.693 344.036 294.642L342.455 286.733L342.079 278.132C341.979 275.934 341.482 273.79 340.629 271.794C341.462 273.102 342.13 274.52 342.606 276.014L345.226 284.217L348.819 291.435C350.206 294.22 349.875 297.552 347.963 300.011C346.176 302.312 343.297 303.462 340.438 303.056C340.035 301.929 338.64 299.059 340.966 302.695Z" fill="#11112D"/>
<path d="M310.5 393.499C311.635 388.197 321.013 326.71 322.086 324.892C322.66 323.916 324.994 323.218 325.714 322.966L326.635 322.644C331.841 320.833 335.396 318.864 339.68 325.086C341.728 328.061 340.237 336.404 339.209 339.747C339.128 340.013 339.049 340.284 338.976 340.556C337.514 345.955 338.189 351.707 340.727 356.693C341.299 357.813 353.045 393.801 353 394C352.35 396.842 326.273 396.994 324.816 397.251C323.341 397.512 309.912 396.277 310.5 393.499Z" fill="#1D1D4D"/>
<path d="M290.383 309.99H313V312.083H290.383V309.99Z" fill="white"/>
<path d="M290.43 312.082L283.197 290.1L285.35 290.094L292.583 312.078L290.43 312.082Z" fill="white"/>
<path d="M306.772 305.557L304.082 304.707C303.755 304.604 303.566 304.267 303.646 303.934L304.082 302.13C304.149 301.847 304.401 301.645 304.691 301.633L305.686 301.597C305.969 301.588 306.225 301.763 306.321 302.029L306.764 303.269C306.829 303.45 306.953 303.602 307.119 303.698C307.381 303.848 307.537 304.132 307.524 304.433L307.508 304.753L306.772 305.557Z" fill="#FCB47F"/>
<path d="M323.925 318.754C325.113 317.316 324.838 315.181 323.337 314.077C317.111 309.5 307.314 303.853 307.314 303.853L306.086 305.339C306.086 305.339 314.641 315.282 319.22 319.055C320.659 320.24 322.737 320.19 323.925 318.754Z" fill="#DFEEFF"/>
<path d="M285.666 124.513C286.414 124.324 287.406 124.577 288.388 124.986C290.603 125.92 292.354 128.315 292.865 131.027C294.041 137.28 296.325 149.448 297.165 154.112C297.401 155.405 297.264 156.678 296.781 157.717L295.511 160.462C294.691 162.228 293.002 163.07 291.18 162.62C289.673 162.243 288.286 161.031 287.454 159.367L285.251 154.927C283.556 151.52 281.17 148.598 278.368 146.496C275.833 144.596 274.346 141.12 274.685 137.903C275.4 131.174 279.251 126.12 284.697 124.754L285.666 124.513Z" fill="#4B22EF"/>
<path d="M268.139 126.142C267.366 126.186 266.493 126.722 265.68 127.405C263.84 128.956 262.881 131.762 263.199 134.502C263.936 140.825 265.37 153.122 265.952 157.824C266.111 159.128 266.62 160.3 267.391 161.152L269.419 163.395C270.725 164.839 272.592 165.14 274.197 164.166C275.523 163.361 276.487 161.79 276.786 159.953L277.571 155.062C278.178 151.306 279.587 147.807 281.638 144.964C283.492 142.398 283.881 138.637 282.599 135.667C279.918 129.455 274.74 125.773 269.135 126.088L268.139 126.142Z" fill="#4B22EF"/>
<path d="M301.833 95.8363C305.706 95.5307 309.415 102.465 310.118 111.325C310.818 120.185 308.248 127.618 304.372 127.924C300.498 128.229 296.789 121.297 296.087 112.435C295.387 103.575 297.959 96.1445 301.833 95.8363Z" fill="#8F73FF"/>
<path d="M285.742 87.6602L273.178 88.9114C271.523 89.0743 270.195 90.354 269.97 92.0033L269.243 97.3185C268.69 101.37 268.943 105.493 269.993 109.446L270.701 112.119C271.849 116.447 270.743 121.064 267.757 124.401L266.937 125.319C266.332 125.994 266.252 126.989 266.743 127.752L266.803 127.845C272.24 134.786 280.176 137.795 287.397 137.987C288.881 138.025 290.23 137.749 291.293 137.64C292.756 137.49 293.917 136.348 294.095 134.889L294.868 128.512C295.452 123.675 297.065 119.019 299.601 114.859L300.899 112.724C302.585 109.958 303.955 107.008 304.984 103.934L306.054 100.734C306.463 99.516 306.083 98.1742 305.1 97.347L298.102 91.4785C294.664 88.5934 290.207 87.2181 285.742 87.6602Z" fill="#8F73FF"/>
<path d="M292.92 80.7339L284.405 87.9281L285.792 90.0561C287.621 92.862 290.613 94.6994 293.944 95.0638C296.513 95.3442 298.898 93.6902 299.535 91.1851L300.471 86.947L292.92 80.7339Z" fill="#FCB47F"/>
<path d="M297.724 91.1269C299.127 91.0496 300.376 90.1767 301.303 89.1211C304.761 85.192 304.377 79.306 303.777 74.105C303.711 73.554 303.638 72.9747 303.301 72.5318C302.786 71.8495 299.733 69.1794 298.883 69.1228C295.255 69.2927 293.785 72.1533 290.141 72.5009C289.835 72.5292 289.508 72.5679 289.274 72.7687C289.027 72.9824 288.947 73.33 288.906 73.657C288.72 75.1684 289.281 76.7132 289.33 78.2478C289.384 79.821 289.521 81.3993 289.866 82.9391C290.538 85.9309 292.057 88.6731 294.758 90.2669C295.657 90.7973 296.681 91.1861 297.724 91.1269Z" fill="#F49B5F"/>
<path d="M298.08 90.2777C299.485 90.2004 300.735 89.3268 301.662 88.2728C305.118 84.343 304.734 78.4546 304.134 73.2568C304.069 72.7054 303.995 72.123 303.66 71.6823C303.144 70.9994 300.093 68.3297 299.24 68.273C295.612 68.4405 294.143 71.3009 290.499 71.6488C290.192 71.6798 289.865 71.7158 289.633 71.9168C289.383 72.1307 289.303 72.4812 289.262 72.8059C289.077 74.316 289.638 75.8622 289.69 77.398C289.741 78.97 289.878 80.5497 290.223 82.0881C290.896 85.08 292.414 87.8219 295.114 89.4144C296.014 89.9453 297.039 90.3344 298.08 90.2777Z" fill="#FCB47F"/>
<path d="M288.61 83.6885C288.61 83.6885 284.892 77.543 285.45 73.4367C286.005 69.3305 287.459 67.3569 289.635 67.4503C291.815 67.5436 296.454 70.2088 296.454 70.2088C296.454 70.2088 290.909 78.767 290.584 80.0819C289.869 82.9364 288.61 83.6885 288.61 83.6885Z" fill="#11112D"/>
<path d="M290.955 68.6301C291.261 68.6433 299.174 64.8308 299.903 64.91C300.415 64.947 300.977 65.2401 301.576 65.5543C302.659 66.1404 303.697 67.4182 306.456 69.0367C306.469 69.0446 306.482 69.0525 306.495 69.0604C307.279 69.5224 308.18 69.9079 309.141 70.2142C310.54 70.6868 313.032 71.265 313.333 71.4102C314.03 71.5976 315.422 74.7738 310.746 74.9111C308.528 74.9823 303.921 73.7731 300.626 72.7804C297.033 71.8194 294.744 71.0722 290.197 72.7672C285.419 74.4358 285.097 73.3771 286.562 71.9277C287.924 70.4756 291.079 68.6327 290.955 68.6301Z" fill="#11112D"/>
<path d="M290.047 76.0488C289.329 76.7141 289.159 78.0973 289.667 79.1404C290.175 80.1834 291.17 80.491 291.888 79.8282C292.606 79.1654 292.779 77.7797 292.271 76.7367C291.761 75.6936 290.768 75.386 290.047 76.0488Z" fill="#FCB47F"/>
<path d="M306.901 128.083C303.666 128.909 300.714 126.885 300.305 123.566C299.899 120.249 302.19 116.891 305.423 116.067C308.655 115.241 311.608 117.263 312.019 120.582C312.426 123.901 310.134 127.257 306.901 128.083Z" fill="#1D1D4D"/>
<path d="M317.877 100.875L319.308 101.621C319.308 101.621 315.924 116.108 312.792 122.922C311.563 125.592 308.545 126.9 305.94 125.538C303.334 124.174 302.671 120.943 304.176 118.417C307.469 112.887 317.877 100.875 317.877 100.875Z" fill="#FCB47F"/>
<path d="M276.468 90.5302C274.066 87.4765 266.453 89.46 259.474 94.9587C252.489 100.457 248.778 107.391 251.182 110.445C253.588 113.496 261.196 111.515 268.181 106.014C275.163 100.515 278.874 93.584 276.468 90.5302Z" fill="#8F73FF"/>
<path d="M251.048 102.403C253.23 99.8776 256.805 99.8453 259.04 102.334C261.274 104.822 261.315 108.887 259.134 111.414C256.955 113.939 253.375 113.972 251.143 111.483C248.909 108.995 248.867 104.93 251.048 102.403Z" fill="#1D1D4D"/>
<path d="M271.905 122.134L270.801 123.312C270.801 123.312 257.753 116.159 252.034 111.31C249.791 109.412 249.345 106.153 251.357 104.008C253.367 101.865 256.659 102.093 258.688 104.221C263.131 108.88 271.905 122.134 271.905 122.134Z" fill="#FCB47F"/>
<path d="M221.489 162.238L221.626 151.941L224.082 151.974L223.835 155.059L222.905 161.04C222.797 161.737 222.194 162.247 221.489 162.238Z" fill="#1D1D4D"/>
<path d="M274.445 154.003C274 153.669 273.5 153.412 272.969 153.251L262.303 150.009C257.506 148.552 252.449 148.17 247.479 148.889L224.084 151.975L223.807 155.246L254.11 161.586L271.832 164.693C272.964 164.893 274.087 164.27 274.536 163.196L275.976 159.745C276.832 157.697 276.202 155.33 274.445 154.003Z" fill="#4B22EF"/>
<path d="M286.963 156.99C286.897 157.542 286.928 158.102 287.055 158.643L289.615 169.493C290.766 174.374 292.976 178.939 296.093 182.874L310.549 201.116L313.488 200.141L303.739 170.76L297.518 153.876C297.121 152.795 296.02 152.138 294.866 152.291L291.16 152.78C288.957 153.071 287.225 154.806 286.963 156.99Z" fill="#4B22EF"/>
<path d="M320.839 199.264L311.383 203.336L310.41 201.081L313.353 199.986L319.168 198.449C319.849 198.268 320.561 198.615 320.839 199.264Z" fill="#1D1D4D"/>
<path d="M270.088 122.75L272.693 125.761C273.01 126.128 273.555 126.186 273.942 125.895L276.036 124.32C276.365 124.073 276.49 123.636 276.341 123.254L275.832 121.943C275.685 121.568 275.316 121.333 274.915 121.359L273.058 121.479C272.789 121.498 272.52 121.419 272.304 121.256C271.963 121.004 271.507 120.961 271.125 121.145L270.719 121.345L270.088 122.75Z" fill="#FCB47F"/>
<path d="M319.226 102.02L320.468 98.2341C320.618 97.7745 320.388 97.2775 319.939 97.0958L317.51 96.1125C317.128 95.9575 316.69 96.0751 316.439 96.4011L315.576 97.5127C315.33 97.8307 315.319 98.2716 315.549 98.6002L316.61 100.129C316.762 100.35 316.834 100.62 316.808 100.89C316.765 101.312 316.963 101.724 317.321 101.956L317.697 102.202L319.226 102.02Z" fill="#FCB47F"/>
<path d="M503.528 118.493L503.303 120.954C503.291 121.093 503.398 121.211 503.54 121.207L508.718 121.043C508.898 121.037 508.94 120.794 508.776 120.726L506.518 119.792C506.047 119.599 505.695 119.202 505.557 118.715L505.477 118.431L503.528 118.493Z" fill="#1D1D4D"/>
<path d="M508.712 76.6361L503.916 87.2415C501.873 91.7655 501.086 96.7571 501.646 101.69L503.561 118.671L505.573 119.105L505.808 117.689C506.867 113.258 507.82 108.801 508.655 104.323C510.315 95.4449 511.991 88.0586 514.246 78.4612L514.266 78.362C514.528 76.9069 513.667 75.4842 512.254 75.0451C510.84 74.6057 509.323 75.288 508.712 76.6361Z" fill="#FCB47F"/>
<path d="M540.619 92.0188L542.386 93.7457C542.484 93.843 542.646 93.8308 542.735 93.7201L545.865 89.5929C545.975 89.4514 545.813 89.2641 545.659 89.3484L543.51 90.517C543.064 90.7586 542.532 90.7834 542.066 90.5843L541.794 90.4683L540.619 92.0188Z" fill="#1D1D4D"/>
<path d="M506.671 67.4463L513.63 76.7751C516.598 80.7545 520.586 83.8584 525.174 85.7592L540.96 92.3018L542.315 90.7502L541.19 89.8575C537.823 86.7874 534.384 83.798 530.872 80.898C523.904 75.1478 518.255 70.1055 510.949 63.4867L510.868 63.423C509.723 62.4883 508.062 62.5549 506.993 63.5778C505.925 64.6016 505.787 66.2604 506.671 67.4463Z" fill="#FCB47F"/>
<path d="M483.787 21.1533C482.146 22.6916 485.018 28.4271 490.202 33.9727C495.387 39.5145 500.921 42.7659 502.562 41.2313C504.203 39.693 501.331 33.9575 496.147 28.4119C490.962 22.8701 485.428 19.6187 483.787 21.1533Z" fill="#4B22EF"/>
<path d="M516.346 44.8644L518.366 46.674C518.612 46.8963 518.986 46.8885 519.22 46.6584L520.503 45.4143C520.702 45.2193 520.749 44.9113 520.617 44.6656L520.16 43.8232C520.028 43.5853 519.759 43.4566 519.489 43.5073L518.245 43.7491C518.062 43.7842 517.879 43.7569 517.719 43.6633C517.465 43.5229 517.153 43.5346 516.908 43.6906L516.654 43.8583L516.346 44.8644Z" fill="#FCB47F"/>
<path d="M497.016 37.1183C497.625 35.4306 499.526 34.612 501.179 35.3181C508.015 38.2319 517.49 43.5822 517.49 43.5822L516.861 45.3281C516.861 45.3281 504.438 43.1127 499.068 41.165C497.38 40.552 496.406 38.8099 497.016 37.1183Z" fill="#4B22EF"/>
<path d="M492.08 1.47279C492.14 0.665321 491.527 0.00362015 490.716 0.00362015L488.293 0.0148659C484.985 0.0223389 481.934 1.79052 480.278 4.65403L479.856 5.38671C477.871 8.81844 477.108 12.8221 477.695 16.7436L478.925 24.9341L478.891 32.5564C478.88 35.2853 480.226 37.8759 482.536 39.3264C485.344 41.0871 488.917 40.8703 491.482 38.8666C493.362 37.3937 494.409 35.0909 494.398 32.7022L494.375 27.9135C494.357 23.2743 493.609 18.6688 492.155 14.2651L490.323 8.71753C489.762 7.01288 490.117 5.15123 491.216 3.73443C491.721 3.08398 492.024 2.2952 492.08 1.47279Z" fill="#11112D"/>
<path d="M480.58 13.4329C480.58 13.4329 482.522 20.7811 479.56 24.9296L486.983 27.9434L491.537 23.9176C491.537 23.9176 489.148 25.045 488.631 12.6515L480.58 13.4329Z" fill="#FCB47F"/>
<path d="M488.078 17.601C489.134 17.5674 492.231 17.1868 492.336 16.1495C492.776 11.7912 493.291 9.00759 492.933 5.16798C492.896 4.76125 492.791 4.36945 492.604 4.00377C491.84 2.51494 489.981 1.47389 489.339 1.41792C486.612 1.48135 485.455 3.56344 482.709 3.75748C482.477 3.7724 482.231 3.79481 482.052 3.94033C481.862 4.09332 481.795 4.34705 481.761 4.58586C481.593 5.69781 481.985 6.8471 481.996 7.97772C482.007 9.13445 482.082 10.2986 482.317 11.4405C482.769 13.6532 483.858 15.698 485.862 16.9144C486.53 17.3212 487.291 17.6271 488.078 17.601Z" fill="#FCB47F"/>
<path d="M492.017 3.10923L489.016 3.44468C486.992 3.66832 485.423 5.31578 485.3 7.35088L485.013 12.0063C484.815 15.2826 483.712 18.4396 481.83 21.1269C481.457 21.6599 481.185 22.0215 481.129 22.0215C480.909 22.0252 479.787 20.8101 479.888 20.4821C479.97 20.2212 479.702 11.0744 479.582 7.16823C479.549 6.0314 479.825 4.90579 480.391 3.91806L480.551 3.63476C481.767 1.49157 484.018 0.149761 486.482 0.0901241L490.309 0.000656128L492.341 2.25941C492.62 2.56878 492.43 3.0645 492.017 3.10923Z" fill="#11112D"/>
<path d="M477.766 62.7242C482.389 63.6624 487.189 63.6287 491.862 62.5779L492.44 62.5591C493.749 62.2664 494.451 60.844 493.892 59.6243C493.892 59.6243 492.725 45.885 495.892 32.945C496.793 29.2747 492.766 26.081 492.312 24.8501L491.933 24.2046C491.141 22.8535 489.835 21.874 488.311 21.51C485.639 20.872 481.429 20.3128 478.963 22.2568C478.07 22.9586 476.385 24.6099 476.347 25.1991C476.347 25.1991 475.18 62.2025 477.766 62.7242Z" fill="#DFEEFF"/>
<path d="M483.494 24.1837C481.34 24.8182 481.333 31.2378 483.483 38.5157C485.629 45.7937 489.118 51.1794 491.276 50.5449C493.429 49.9104 493.437 43.4909 491.287 36.2129C489.137 28.9312 485.647 23.5455 483.494 24.1837Z" fill="#4B22EF"/>
<path d="M496.767 30.7236L498.525 28.653C498.736 28.4045 498.717 28.0318 498.484 27.8022L497.204 26.556C497.001 26.3602 496.696 26.3226 496.451 26.4619L495.623 26.9438C495.389 27.0793 495.269 27.3542 495.325 27.6215L495.604 28.8601C495.642 29.037 495.619 29.2253 495.532 29.3909C495.397 29.6469 495.416 29.9556 495.581 30.1928L495.758 30.4488L496.767 30.7236Z" fill="#FCB47F"/>
<path d="M489.568 50.2653C487.867 49.702 486.992 47.8243 487.649 46.1531C490.376 39.2355 495.457 29.6139 495.457 29.6139L497.218 30.196C497.218 30.196 495.352 42.6755 493.557 48.0984C492.993 49.7997 491.273 50.8249 489.568 50.2653Z" fill="#4B22EF"/>
<path d="M515.5 64.4995C503.862 58.0823 486.235 54.9925 484.223 55.2801C483.146 55.4355 481.666 57.2577 481.184 57.8056L480.559 58.5089C477.042 62.4798 473.988 64.9237 477.959 71.0122C479.859 73.9228 487.828 75.6487 491.181 75.9572C491.45 75.9817 491.718 76.0112 491.986 76.045C497.324 76.7195 500.709 90.0078 501 96.4996C501.291 102.991 501.806 118.967 502 119C511.077 120.519 504.512 116.01 521 89.9997C522.717 87.2915 542.64 94.7011 542.5 91.4995C542.395 89.0478 528.892 71.8839 515.5 64.4995Z" fill="#DFEEFF"/>
<path d="M491.537 3.1661C494.458 4.81115 496.795 7.32204 498.233 10.3524L498.674 11.2822L498.256 5.56405C498.03 2.43204 495.421 0.00397968 492.282 0.00397968L489.617 0.000229836L491.537 3.1661Z" fill="#11112D"/>
<path d="M527.6 283.397L530.482 283.112C530.831 283.078 531.096 282.777 531.084 282.426L531.025 280.52C531.017 280.221 530.811 279.964 530.518 279.891L529.527 279.646C529.241 279.575 528.944 279.697 528.797 279.947L528.088 281.101C527.985 281.268 527.826 281.394 527.64 281.455C527.347 281.552 527.133 281.805 527.081 282.11L527.03 282.436L527.6 283.397Z" fill="#FCB47F"/>
<path d="M489.286 300.05C490.167 302.28 496.991 301.671 504.525 298.688C512.059 295.704 517.452 291.478 516.567 289.248C515.687 287.018 508.863 287.627 501.328 290.609C493.794 293.592 488.401 297.818 489.286 300.05Z" fill="#6ED200"/>
<path d="M507.57 293.053C506.682 291.357 507.404 289.268 509.149 288.474C516.371 285.185 527.284 281.326 527.284 281.326L528.401 283.45C528.401 283.45 517.642 291.519 512.239 294.348C510.542 295.237 508.466 294.749 507.57 293.053Z" fill="#6ED200"/>
<path d="M486.728 283.034C486.728 283.034 491.353 289.702 489.894 294.943L498.437 295.267L501.542 289.57C501.542 289.57 499.557 291.57 494.527 279.319L486.728 283.034Z" fill="#FCB47F"/>
<path d="M495.768 284.491C496.817 284.072 499.788 282.565 499.517 281.482C498.37 276.951 497.873 273.968 496.115 270.247C495.93 269.853 495.685 269.493 495.361 269.194C494.052 267.983 491.812 267.613 491.148 267.788C488.433 268.845 488.03 271.355 485.344 272.552C485.118 272.651 484.877 272.763 484.752 272.972C484.617 273.197 484.643 273.477 484.692 273.73C484.926 274.904 485.744 275.913 486.163 277.044C486.597 278.202 487.098 279.345 487.743 280.404C489.003 282.461 490.843 284.116 493.298 284.611C494.116 284.775 494.988 284.801 495.768 284.491Z" fill="#FCB47F"/>
<path d="M495.378 268.054L491.563 269.937C489.612 270.901 488.638 273.126 489.252 275.211L490.664 279.989C491.653 283.347 491.698 286.918 490.788 290.301C490.608 290.971 490.462 291.434 490.406 291.455C490.189 291.54 488.62 290.729 488.601 290.361C488.586 289.992 482.764 275.386 482.764 275.386C482.764 275.386 483.584 269.22 483.846 269.033C484.108 268.848 491.608 266.012 491.608 266.012L495.378 268.027C495.389 268.033 495.389 268.048 495.378 268.054Z" fill="#432E36"/>
<path d="M501.85 333.53C506.831 332.787 511.638 331.002 515.943 328.25L516.518 328.022C517.722 327.25 517.912 325.565 516.906 324.548C516.906 324.548 510.733 311.184 509.203 297.041C508.769 293.032 503.566 291.293 502.665 290.223L502.048 289.711C500.759 288.644 499.094 288.137 497.432 288.326C494.516 288.658 490.086 289.631 488.316 292.478C487.679 293.506 486.592 295.78 486.767 296.382C486.767 296.382 499.063 333.945 501.85 333.53Z" fill="#F8B716"/>
<path d="M492.534 296.613C491.171 298.588 495.47 303.922 502.133 308.529C508.801 313.136 515.309 315.271 516.672 313.298C518.039 311.323 513.74 305.989 507.077 301.382C500.409 296.774 493.897 294.639 492.534 296.613Z" fill="#6ED200"/>
<path d="M532.418 306.758L535.291 307.12C535.639 307.164 535.963 306.931 536.03 306.587L536.398 304.714C536.454 304.421 536.31 304.124 536.042 303.989L535.127 303.528C534.868 303.398 534.552 303.45 534.348 303.659L533.405 304.629C533.265 304.77 533.081 304.855 532.885 304.874C532.582 304.903 532.314 305.101 532.198 305.389L532.074 305.693L532.418 306.758Z" fill="#FCB47F"/>
<path d="M510.739 311.723C510.25 309.872 511.419 307.996 513.296 307.609C521.073 306.008 532.639 304.937 532.639 304.937L533.148 306.852C533.148 306.852 520.898 312.466 515.006 314.022C513.153 314.513 511.236 313.576 510.739 311.723Z" fill="#6ED200"/>
<path d="M495.625 266.675C495.775 265.843 495.186 265.056 494.343 264.966L491.773 264.69C488.263 264.315 484.819 265.833 482.725 268.676L482.189 269.406C479.683 272.815 478.405 276.974 478.57 281.204L478.915 290.041L477.971 298.273C477.607 301.449 479.098 304.552 481.8 306.256C484.482 307.946 487.888 307.965 490.585 306.308C492.732 304.99 494.145 302.75 494.411 300.246L495.752 287.577L492.908 274.163C492.515 272.301 493.081 270.364 494.418 269.006C495.044 268.368 495.464 267.557 495.625 266.675Z" fill="#11112D"/>
<path d="M494.344 264.968L492.485 264.769C492.523 265.597 492.328 266.42 491.923 267.143C490.99 268.804 490.949 270.821 491.818 272.516L493.085 274.98L492.909 274.165C492.515 272.303 493.081 270.366 494.418 269.008C495.044 268.37 495.464 267.559 495.625 266.677C495.775 265.845 495.187 265.058 494.344 264.968Z" fill="#11112D"/>
<path d="M489.499 306.398C486.443 305.461 484.196 302.856 483.713 299.696L482.469 291.507L479.824 283.066C479.148 280.91 478.877 278.665 479 276.438C478.654 277.993 478.506 279.594 478.569 281.207L478.91 290.044L477.971 298.275C477.607 301.452 479.096 304.554 481.8 306.259C484.333 307.855 487.516 307.958 490.138 306.564C490.131 305.334 490.472 302.073 489.499 306.398Z" fill="#11112D"/>
<path d="M493.981 396.095L493.634 398.711C493.611 398.858 493.728 398.99 493.875 398.991L499.406 399.037C499.599 399.039 499.655 398.78 499.482 398.702L497.11 397.609C496.62 397.382 496.258 396.944 496.133 396.419L496.058 396.112L493.981 396.095Z" fill="#6ED200"/>
<path d="M501.294 351.664L495.727 362.773C493.352 367.511 492.302 372.804 492.684 378.091L494.005 396.286L496.135 396.835L496.449 395.334C497.766 390.651 498.969 385.937 500.053 381.197C502.199 371.796 504.303 363.988 507.117 353.847L507.14 353.742C507.484 352.201 506.625 350.645 505.136 350.117C503.65 349.588 502.001 350.253 501.294 351.664Z" fill="#FCB47F"/>
<path d="M520.435 397.125L520.533 399.762C520.541 399.911 520.675 400.021 520.82 399.997L526.282 399.109C526.471 399.078 526.483 398.814 526.302 398.766L523.775 398.088C523.256 397.95 522.827 397.578 522.615 397.081L522.489 396.791L520.435 397.125Z" fill="#6ED200"/>
<path d="M512.242 353.142L510.768 365.479C510.138 370.743 510.94 376.078 513.091 380.923L520.492 397.597L522.683 397.393L522.468 395.873C522.123 391.022 521.662 386.179 521.075 381.351C519.917 371.779 519.252 363.719 518.466 353.224L518.454 353.117C518.255 351.551 516.917 350.38 515.341 350.386C513.76 350.392 512.434 351.574 512.242 353.142Z" fill="#FCB47F"/>
<path d="M524.5 393C523.553 387.509 519.983 325.478 516.5 324.007C515.952 322.982 514.099 322.691 513.375 322.405L512.439 322.036C507.171 319.962 503.599 317.794 498.947 324.007C496.722 326.978 497.913 335.603 498.829 339.077C498.904 339.355 498.974 339.635 499.037 339.917C500.317 345.52 499.389 351.397 496.577 356.41C487.5 374 490.957 393.794 491 394C491.543 396.943 500.959 398.128 511.5 399.5C522.476 399.5 524.98 395.884 524.5 393Z" fill="#F8B716"/>
</g>
<defs>
<clipPath id="clip0">
<rect width="753" height="400" fill="white"/>
</clipPath>
</defs>
</svg>
