<svg width="214" height="440" viewBox="0 0 214 440" fill="none" xmlns="http://www.w3.org/2000/svg">
<g filter="url(#filter0_iiii)">
<rect width="214" height="440" rx="33" fill="#0B0E0F"/>
<path d="M0 52.8C0 34.3183 0 25.0774 3.59679 18.0183C6.76061 11.809 11.809 6.76061 18.0183 3.59679C25.0774 0 34.3183 0 52.8 0H161.2C179.682 0 188.923 0 195.982 3.59679C202.191 6.76061 207.239 11.809 210.403 18.0183C214 25.0774 214 34.3183 214 52.8V387.2C214 405.682 214 414.923 210.403 421.982C207.239 428.191 202.191 433.239 195.982 436.403C188.923 440 179.682 440 161.2 440H52.8C34.3183 440 25.0774 440 18.0183 436.403C11.809 433.239 6.76061 428.191 3.59679 421.982C0 414.923 0 405.682 0 387.2V52.8Z" fill="#8A2943"/>
<path d="M55 12C55 9.5 52.5 9.5 52.5 9.5H162C162 9.5 159.316 9.5 159.316 12C159.316 20.2843 152.6 26 144.316 26H70.3161C62.0319 26 55 20.2843 55 12Z" fill="black"/>
<rect x="95.75" y="13.75" width="23.5" height="3" rx="1.25" fill="#151515" stroke="url(#paint0_linear)" stroke-width="0.5"/>
<circle cx="131.319" cy="15.25" r="4" fill="#151515"/>
<g filter="url(#filter1_i)">
<circle cx="131.319" cy="15.2496" r="1.76524" transform="rotate(-30 131.319 15.2496)" fill="url(#paint1_linear)"/>
</g>
</g>
<defs>
<filter id="filter0_iiii" x="0" y="0" width="214" height="440" filterUnits="userSpaceOnUse" color-interpolation-filters="sRGB">
<feFlood flood-opacity="0" result="BackgroundImageFix"/>
<feBlend mode="normal" in="SourceGraphic" in2="BackgroundImageFix" result="shape"/>
<feColorMatrix in="SourceAlpha" type="matrix" values="0 0 0 0 0 0 0 0 0 0 0 0 0 0 0 0 0 0 127 0" result="hardAlpha"/>
<feMorphology radius="9.5" operator="erode" in="SourceAlpha" result="effect1_innerShadow"/>
<feOffset/>
<feComposite in2="hardAlpha" operator="arithmetic" k2="-1" k3="1"/>
<feColorMatrix type="matrix" values="0 0 0 0 0 0 0 0 0 0 0 0 0 0 0 0 0 0 1 0"/>
<feBlend mode="normal" in2="shape" result="effect1_innerShadow"/>
<feColorMatrix in="SourceAlpha" type="matrix" values="0 0 0 0 0 0 0 0 0 0 0 0 0 0 0 0 0 0 127 0" result="hardAlpha"/>
<feMorphology radius="2.5" operator="erode" in="SourceAlpha" result="effect2_innerShadow"/>
<feOffset/>
<feComposite in2="hardAlpha" operator="arithmetic" k2="-1" k3="1"/>
<feColorMatrix type="matrix" values="0 0 0 0 1 0 0 0 0 1 0 0 0 0 1 0 0 0 0.25 0"/>
<feBlend mode="normal" in2="effect1_innerShadow" result="effect2_innerShadow"/>
<feColorMatrix in="SourceAlpha" type="matrix" values="0 0 0 0 0 0 0 0 0 0 0 0 0 0 0 0 0 0 127 0" result="hardAlpha"/>
<feMorphology radius="2" operator="erode" in="SourceAlpha" result="effect3_innerShadow"/>
<feOffset/>
<feComposite in2="hardAlpha" operator="arithmetic" k2="-1" k3="1"/>
<feColorMatrix type="matrix" values="0 0 0 0 0.104271 0 0 0 0 0.20389 0 0 0 0 0.320833 0 0 0 1 0"/>
<feBlend mode="normal" in2="effect2_innerShadow" result="effect3_innerShadow"/>
<feColorMatrix in="SourceAlpha" type="matrix" values="0 0 0 0 0 0 0 0 0 0 0 0 0 0 0 0 0 0 127 0" result="hardAlpha"/>
<feMorphology radius="0.75" operator="erode" in="SourceAlpha" result="effect4_innerShadow"/>
<feOffset/>
<feComposite in2="hardAlpha" operator="arithmetic" k2="-1" k3="1"/>
<feColorMatrix type="matrix" values="0 0 0 0 0.429688 0 0 0 0 0.578125 0 0 0 0 0.625 0 0 0 1 0"/>
<feBlend mode="normal" in2="effect3_innerShadow" result="effect4_innerShadow"/>
</filter>
<filter id="filter1_i" x="129.553" y="13.4844" width="3.53076" height="3.53125" filterUnits="userSpaceOnUse" color-interpolation-filters="sRGB">
<feFlood flood-opacity="0" result="BackgroundImageFix"/>
<feBlend mode="normal" in="SourceGraphic" in2="BackgroundImageFix" result="shape"/>
<feColorMatrix in="SourceAlpha" type="matrix" values="0 0 0 0 0 0 0 0 0 0 0 0 0 0 0 0 0 0 127 0" result="hardAlpha"/>
<feOffset/>
<feGaussianBlur stdDeviation="0.5"/>
<feComposite in2="hardAlpha" operator="arithmetic" k2="-1" k3="1"/>
<feColorMatrix type="matrix" values="0 0 0 0 0.7 0 0 0 0 0.928 0 0 0 0 1 0 0 0 0.3 0"/>
<feBlend mode="normal" in2="shape" result="effect1_innerShadow"/>
</filter>
<linearGradient id="paint0_linear" x1="107.5" y1="14" x2="107.5" y2="16.5" gradientUnits="userSpaceOnUse">
<stop/>
<stop offset="0.515625" stop-color="#4D4D4D"/>
<stop offset="1"/>
</linearGradient>
<linearGradient id="paint1_linear" x1="131.319" y1="13.4844" x2="131.319" y2="17.0149" gradientUnits="userSpaceOnUse">
<stop stop-color="#2E436C"/>
<stop offset="0.5" stop-color="#2D2D2D" stop-opacity="0"/>
<stop offset="0.848958" stop-color="#3559A0"/>
<stop offset="1" stop-color="#4C8DD9"/>
</linearGradient>
</defs>
</svg>
