<?xml version="1.0" encoding="UTF-8"?>
<svg width="30px" height="30px" viewBox="0 0 30 30" version="1.1" xmlns="http://www.w3.org/2000/svg" xmlns:xlink="http://www.w3.org/1999/xlink">
    <!-- Generator: Sketch 63.1 (92452) - https://sketch.com -->
    <title>instagram</title>
    <desc>Created with Sketch.</desc>
    <g id="Page-1" stroke="none" stroke-width="1" fill="none" fill-rule="evenodd">
        <g id="Artboard" transform="translate(-645.000000, -140.000000)" fill="#FFFFFF">
            <path d="M675,140 L675,170 L645,170 L645,140 L675,140 Z M665.716875,147.5 L654.283125,147.5 C653.29875,147.5 652.5,148.295937 652.5,149.278437 L652.5,149.278437 L652.5,160.720625 C652.5,161.703125 653.29875,162.5 654.283125,162.5 L654.283125,162.5 L665.716875,162.5 C666.702188,162.5 667.5,161.703125 667.5,160.720625 L667.5,160.720625 L667.5,149.278437 C667.5,148.295937 666.702188,147.5 665.716875,147.5 L665.716875,147.5 Z M655.617,153.813312 C655.511062,154.19675 655.454813,154.600812 655.454813,155.017062 C655.454813,157.52675 657.501375,159.569562 660.017625,159.569562 C662.533875,159.569562 664.580438,157.52675 664.580438,155.017062 C664.580438,154.600812 664.524188,154.19675 664.41825,153.813312 L664.41825,153.813312 L665.821688,153.813312 L665.821688,160.336437 C665.821688,160.568 665.634188,160.7555 665.401687,160.7555 L665.401687,160.7555 L654.632625,160.7555 C654.401062,160.7555 654.213563,160.568 654.213563,160.336437 L654.213563,160.336437 L654.213563,153.813312 Z M660.017531,152.1395 C661.610344,152.1395 662.902219,153.427625 662.902219,155.016688 C662.902219,156.606687 661.610344,157.894813 660.017531,157.894813 C658.424719,157.894813 657.132844,156.606687 657.132844,155.016688 C657.132844,153.427625 658.424719,152.1395 660.017531,152.1395 Z M665.367,149.209062 C665.598563,149.209062 665.787,149.396562 665.787,149.627187 L665.787,149.627187 L665.787,151.65125 C665.787,151.881875 665.598563,152.069375 665.367,152.069375 L665.367,152.069375 L663.339188,152.069375 C663.107625,152.069375 662.919188,151.881875 662.919188,151.65125 L662.919188,151.65125 L662.919188,149.627187 C662.919188,149.396562 663.107625,149.209062 663.339188,149.209062 L663.339188,149.209062 Z" id="instagram"></path>
        </g>
    </g>
</svg>