<svg width="56" height="56" viewBox="0 0 56 56" fill="none" xmlns="http://www.w3.org/2000/svg">
<path d="M12.622 8.65497C9.8142 19.0414 2.50464 24.7192 1.15131 29.725C-0.202025 34.7308 -0.166249 46.0194 22.8591 52.2448C45.8844 58.4701 53.0866 45.2432 54.5738 39.7365C61.5442 13.9579 17.5951 -9.74103 12.622 8.65497Z" fill="#EFEFEF"/>
<path d="M36.9446 6.35156H33.8335V7.90712H36.9446V6.35156Z" fill="#A4AFC1"/>
<path d="M27.9998 6.35156H24.8887V7.90712H27.9998V6.35156Z" fill="#A4AFC1"/>
<path d="M31.889 0.907227H30.3335V4.01834H31.889V0.907227Z" fill="#A4AFC1"/>
<path d="M11.2235 48.9997C9.93703 48.9997 8.89014 47.9528 8.89014 46.6663C8.89014 45.3799 9.93703 44.333 11.2235 44.333C12.5099 44.333 13.5568 45.3799 13.5568 46.6663C13.5568 47.9528 12.5099 48.9997 11.2235 48.9997ZM11.2235 45.8886C10.7941 45.8886 10.4457 46.237 10.4457 46.6663C10.4457 47.0957 10.7941 47.4441 11.2235 47.4441C11.6528 47.4441 12.0012 47.0957 12.0012 46.6663C12.0012 46.237 11.6528 45.8886 11.2235 45.8886Z" fill="#A4AFC1"/>
<path d="M26.4712 30.743C26.297 30.6248 22.1841 27.8185 22.1841 24.1956C22.1841 20.3736 24.9281 18.3219 27.1339 16.673C28.8699 15.3756 30.3694 14.2541 30.3694 12.6285C30.3694 11.8352 29.9043 11.4339 29.8996 11.4292L31.309 9.57031C31.4521 9.67765 32.7028 10.6825 32.7028 12.6285C32.7028 15.4223 30.5825 17.0074 28.5323 18.5412C26.4681 20.0843 24.519 21.5434 24.519 24.1956C24.519 26.1696 26.871 28.1934 27.7763 28.8079L26.4712 30.743Z" fill="black"/>
<path d="M31.212 29.521H28.8787C28.8787 28.4399 28.5676 28.0976 28.0543 27.5314C27.46 26.8765 26.6465 25.9805 26.6465 24.0579C26.6465 20.5034 32.7318 16.9925 33.9514 16.3252L35.0714 18.3708C32.6136 19.7179 28.9783 22.4572 28.9783 24.0579C28.9783 25.0799 29.28 25.4128 29.7809 25.965C30.386 26.6276 31.212 27.5392 31.212 29.521Z" fill="black"/>
<path d="M22.5837 34.5377C19.9345 34.5377 17.6572 34.2188 16.5294 33.525C15.6225 32.9682 15.4888 32.2386 15.4888 31.8528C15.4888 29.8524 18.743 28.8568 21.4745 28.373L21.8805 30.6706C20.4665 30.9226 18.9825 31.3799 18.225 31.7688C20.7232 32.5979 29.7859 32.3148 34.101 30.1293L35.1557 32.2122C32.2468 33.6806 26.919 34.5377 22.5837 34.5377ZM24.0941 38.8684C20.0014 38.8684 19.2843 37.0033 19.1723 36.5693L21.4325 35.9906C21.4092 35.8988 21.389 35.863 21.3874 35.8615C21.3937 35.8724 22.1605 36.9644 26.3559 36.3515C30.7565 35.7075 31.5965 34.9328 31.6308 34.9002C31.6308 34.9002 31.5514 34.9779 31.483 35.149L33.6483 36.0217C33.1879 37.1666 30.8483 38.0548 26.6934 38.6615C25.7041 38.8062 24.8423 38.8684 24.0941 38.8684Z" fill="black"/>
<path d="M20.9658 43.2573C18.2249 43.2573 16.0207 43.08 15.1604 42.7377C14.1509 42.3333 14 41.6411 14 41.2631C14 39.5457 16.3862 38.5751 17.808 38.1504L18.4784 40.3857C18.074 40.5086 17.6462 40.6751 17.276 40.8493C21.84 41.3642 35.4464 40.2457 37.0082 38.6015L38.7007 40.2084C36.722 42.2882 27.3747 43.2573 20.9658 43.2573Z" fill="black"/>
<path d="M22.9305 46.6408C20.0729 46.6408 17.7956 46.4168 16.8296 46.0699L17.6183 43.8735C20.1491 44.7835 34.3965 44.5766 40.2251 41.002L41.4447 42.9915C37.0098 45.7091 28.7623 46.6408 22.9305 46.6408Z" fill="black"/>
<path d="M34.927 37.7489L34.0015 35.6069C36.1995 34.6549 39.295 32.6125 39.295 31.0569C39.295 30.682 39.1892 30.6073 39.1488 30.5793C38.6495 30.2293 37.1095 30.5078 36.2337 30.8298L35.4248 28.6411C35.9739 28.4405 38.7941 27.49 40.4804 28.6645C41.003 29.0285 41.6268 29.7393 41.6268 31.0569C41.6284 34.7467 35.613 37.4518 34.927 37.7489Z" fill="black"/>
</svg>
