<svg width="56" height="56" viewBox="0 0 56 56" fill="none" xmlns="http://www.w3.org/2000/svg">
<path d="M42.6486 6.08893C31.892 6.28959 24.3989 0.854482 19.2158 0.952482C14.0326 1.05048 3.19976 4.23315 3.6462 28.0814C4.09264 51.9296 18.8035 55.1543 24.5062 55.0485C51.2042 54.5491 61.7011 5.7327 42.6486 6.08893Z" fill="#EFEFEF"/>
<path d="M34.0276 5.54102H30.9165V7.09657H34.0276V5.54102Z" fill="#A4AFC1"/>
<path d="M25.0833 5.54102H21.9722V7.09657H25.0833V5.54102Z" fill="#A4AFC1"/>
<path d="M28.9721 0.0957031H27.4165V3.20681H28.9721V0.0957031Z" fill="#A4AFC1"/>
<path d="M50.8123 44.7223C49.5259 44.7223 48.479 43.6754 48.479 42.389C48.479 41.1026 49.5259 40.0557 50.8123 40.0557C52.0988 40.0557 53.1457 41.1026 53.1457 42.389C53.1457 43.6754 52.0988 44.7223 50.8123 44.7223ZM50.8123 41.6112C50.383 41.6112 50.0346 41.9597 50.0346 42.389C50.0346 42.8183 50.383 43.1668 50.8123 43.1668C51.2417 43.1668 51.5901 42.8183 51.5901 42.389C51.5901 41.9597 51.2401 41.6112 50.8123 41.6112Z" fill="#A4AFC1"/>
<path d="M45.5 10.5H10.5V45.5H45.5V10.5Z" fill="#2FDF84"/>
<path d="M14 10.5H10.5V45.5H14V10.5Z" fill="#00B871"/>
<path d="M45.5002 46.6663H10.5002C9.85616 46.6663 9.3335 46.1437 9.3335 45.4997V10.4997C9.3335 9.85567 9.85616 9.33301 10.5002 9.33301H45.5002C46.1442 9.33301 46.6668 9.85567 46.6668 10.4997V45.4997C46.6668 46.1437 46.1442 46.6663 45.5002 46.6663ZM11.6668 44.333H44.3335V11.6663H11.6668V44.333Z" fill="black"/>
<path d="M24.1112 43.5558C21.7188 43.5558 19.6374 41.8571 19.1583 39.5176C19.0899 39.1831 19.0557 38.8409 19.0557 38.5002H21.389C21.389 38.6853 21.4077 38.8704 21.445 39.0509C21.7032 40.3093 22.8232 41.2224 24.1112 41.2224C25.6123 41.2224 26.8334 40.0013 26.8334 38.5002V27.6113H29.1668V38.5002C29.1668 41.2878 26.8988 43.5558 24.1112 43.5558Z" fill="black"/>
<path d="M37.7223 43.5555C34.7201 43.5555 32.2778 41.4617 32.2778 38.8888H34.6112C34.6112 40.1534 36.0361 41.2221 37.7223 41.2221C39.4085 41.2221 40.8334 40.1534 40.8334 38.8888C40.8334 37.7439 39.6729 36.8106 37.3832 36.1168C34.0916 35.1166 32.2778 33.3401 32.2778 31.111C32.2778 28.5381 34.7201 26.4443 37.7223 26.4443C40.7245 26.4443 43.1667 28.5381 43.1667 31.111H40.8334C40.8334 29.8463 39.4085 28.7777 37.7223 28.7777C36.0361 28.7777 34.6112 29.8463 34.6112 31.111C34.6112 32.6121 36.7734 33.4926 38.0614 33.883C42.2816 35.1632 43.1667 37.3114 43.1667 38.8888C43.1667 41.4617 40.7245 43.5555 37.7223 43.5555Z" fill="black"/>
</svg>
