<svg width="56" height="56" viewBox="0 0 56 56" fill="none" xmlns="http://www.w3.org/2000/svg">
<path d="M12.622 8.65497C9.8142 19.0414 2.50464 24.7192 1.15131 29.725C-0.202025 34.7308 -0.166249 46.0194 22.8591 52.2448C45.8844 58.4701 53.0866 45.2432 54.5738 39.7365C61.5442 13.9579 17.5951 -9.74103 12.622 8.65497Z" fill="#EFEFEF"/>
<path d="M12.8214 4.27078L10.6216 6.4707L11.7215 7.57063L13.9214 5.3707L12.8214 4.27078Z" fill="#A4AFC1"/>
<path d="M6.49672 10.594L4.29688 12.7939L5.39684 13.8939L7.59669 11.6939L6.49672 10.594Z" fill="#A4AFC1"/>
<path d="M5.3968 3.99476L4.29688 5.09473L6.4968 7.29458L7.59673 6.19461L5.3968 3.99476Z" fill="#A4AFC1"/>
<path d="M41.1444 36.1852C39.8579 36.1852 38.811 35.1383 38.811 33.8519C38.811 32.5654 39.8579 31.5186 41.1444 31.5186C42.4308 31.5186 43.4777 32.5654 43.4777 33.8519C43.4777 35.1383 42.4308 36.1852 41.1444 36.1852ZM41.1444 33.0741C40.7166 33.0741 40.3666 33.4241 40.3666 33.8519C40.3666 34.2797 40.7166 34.6297 41.1444 34.6297C41.5721 34.6297 41.9221 34.2797 41.9221 33.8519C41.9221 33.4241 41.5737 33.0741 41.1444 33.0741Z" fill="#A4AFC1"/>
<path d="M30.0221 10.5L10.6104 31.8204V44.198L43.9444 10.5H30.0221Z" fill="#F3F3F1"/>
<path d="M10.5 10.6504V25.9259L24.6711 10.6504H10.5Z" fill="#F3F3F1"/>
<path d="M29.3613 31.1113L15.3535 45.5002H43.5744L29.3613 31.1113Z" fill="#2FDF84"/>
<path d="M14.1104 31.822L33.5221 10.5H30.0221L10.6104 31.822V44.198L14.1104 40.6591V31.822Z" fill="#D5DBE1"/>
<path d="M14 10.6504H10.5V25.9259L14 22.1537V10.6504Z" fill="#D5DBE1"/>
<path d="M29.3613 31.1113L15.3535 45.5002H18.8535L31.1237 32.8955L29.3613 31.1113Z" fill="#00B871"/>
<path d="M10.6105 45.3643C10.4612 45.3643 10.3103 45.3348 10.1672 45.2757C9.73007 45.0968 9.44385 44.669 9.44385 44.1977V31.8201C9.44385 31.5292 9.55118 31.2492 9.74718 31.0346L29.159 9.71412C29.3814 9.47145 29.6941 9.33301 30.0223 9.33301H43.9445C44.4158 9.33301 44.839 9.61612 45.021 10.0501C45.2014 10.4841 45.105 10.9866 44.7736 11.3195L11.4396 45.0175C11.2172 45.2446 10.917 45.3643 10.6105 45.3643ZM11.7772 32.2712V41.3603L41.1492 11.6663H30.5372L11.7772 32.2712Z" fill="black"/>
<path d="M10.5002 27.0933C10.3571 27.0933 10.2124 27.0668 10.0739 27.0124C9.62594 26.8382 9.3335 26.4073 9.3335 25.9266V10.651C9.3335 10.007 9.85616 9.48438 10.5002 9.48438H24.6713C25.1348 9.48438 25.5548 9.75971 25.7415 10.1844C25.9282 10.609 25.8426 11.1037 25.5268 11.4444L11.3557 26.7199C11.1302 26.9626 10.8175 27.0933 10.5002 27.0933ZM11.6668 11.8177V22.9539L21.9988 11.8177H11.6668Z" fill="black"/>
<path d="M43.5756 46.6666H15.3532C14.8834 46.6666 14.4618 46.385 14.2783 45.9541C14.0963 45.5217 14.1896 45.0223 14.5178 44.6863L28.5256 30.2974C28.7449 30.0719 29.0436 29.9459 29.3563 29.9443C29.3578 29.9443 29.3594 29.9443 29.3609 29.9443C29.672 29.9443 29.9723 30.0688 30.1901 30.2912L44.4047 44.6801C44.736 45.0161 44.8325 45.5154 44.6521 45.9494C44.4701 46.3834 44.0454 46.6666 43.5756 46.6666ZM18.1158 44.3332H40.7818L29.3656 32.777L18.1158 44.3332Z" fill="black"/>
</svg>
