<?xml version="1.0" encoding="UTF-8"?>
<svg width="30px" height="30px" viewBox="0 0 30 30" version="1.1" xmlns="http://www.w3.org/2000/svg" xmlns:xlink="http://www.w3.org/1999/xlink">
    <!-- Generator: Sketch 63.1 (92452) - https://sketch.com -->
    <title>linkedin</title>
    <desc>Created with Sketch.</desc>
    <g id="Page-1" stroke="none" stroke-width="1" fill="none" fill-rule="evenodd">
        <g id="Artboard" transform="translate(-645.000000, -178.000000)" fill="#FFFFFF">
            <path d="M667.5,200.485938 L664.392187,200.485938 L664.392187,195.622188 C664.392187,194.4625 664.371562,192.970937 662.776875,192.970937 C661.159688,192.970937 660.913125,194.234688 660.913125,195.539688 L660.913125,200.485938 L657.808125,200.485938 L657.808125,190.484688 L660.7875,190.484688 L660.7875,191.8525 L660.830625,191.8525 C661.245,191.065938 662.259375,190.23625 663.771562,190.23625 C666.91875,190.23625 667.5,192.307188 667.5,195.000625 L667.5,200.485938 Z M654.30375,189.11875 C653.305313,189.11875 652.5,188.310625 652.5,187.315938 C652.5,186.32125 653.305313,185.513125 654.30375,185.513125 C655.2975,185.513125 656.104687,186.32125 656.104687,187.315938 C656.104687,188.310625 655.2975,189.11875 654.30375,189.11875 L654.30375,189.11875 Z M655.858125,200.485938 L652.746562,200.485938 L652.746562,190.484688 L655.858125,190.484688 L655.858125,200.485938 Z M645,208 L675,208 L675,178 L645,178 L645,208 Z" id="linkedin"></path>
        </g>
    </g>
</svg>