<svg width="215" height="64" viewBox="0 0 215 64" fill="none" xmlns="http://www.w3.org/2000/svg">
<g clip-path="url(#clip0)">
<path d="M206.965 63.8408H7.9602C3.58209 63.8408 0 60.2587 0 55.8806V8.11943C0 3.74132 3.58209 0.159229 7.9602 0.159229H206.965C211.343 0.159229 214.925 3.74132 214.925 8.11943V55.8806C214.925 60.2587 211.343 63.8408 206.965 63.8408Z" fill="white"/>
<path d="M206.965 0.159229H7.9602C3.58209 0.159229 0 3.74132 0 8.11943V55.8806C0 60.2587 3.58209 63.8408 7.9602 63.8408H206.965C211.343 63.8408 214.925 60.2587 214.925 55.8806V8.11943C214.925 3.74132 211.343 0.159229 206.965 0.159229ZM206.965 1.43286C210.652 1.43286 213.652 4.4329 213.652 8.11943V55.8806C213.652 59.5678 210.652 62.5678 206.965 62.5678H7.9602C4.27367 62.5678 1.27363 59.5678 1.27363 55.8806V8.11943C1.27363 4.4329 4.27367 1.43286 7.9602 1.43286H206.965Z" fill="black" fill-opacity="0.1"/>
<path d="M170.247 47.9207H173.217V28.0183H170.247V47.9207ZM197.004 35.1875L193.599 43.8162H193.497L189.962 35.1875H186.762L192.062 47.2477L189.041 53.9561H192.14L200.307 35.1875H197.004ZM180.157 45.6601C179.183 45.6601 177.826 45.1738 177.826 43.9699C177.826 42.4337 179.517 41.8448 180.975 41.8448C182.282 41.8448 182.895 42.1265 183.69 42.5109C183.459 44.3542 181.872 45.6601 180.157 45.6601ZM180.515 34.7521C178.364 34.7521 176.137 35.6999 175.215 37.7994L177.852 38.9002C178.415 37.7994 179.464 37.4406 180.566 37.4406C182.102 37.4406 183.664 38.3629 183.69 40.0016V40.2061C183.152 39.8989 182.001 39.4381 180.592 39.4381C177.75 39.4381 174.855 40.9996 174.855 43.9188C174.855 46.5818 177.186 48.2975 179.797 48.2975C181.795 48.2975 182.895 47.4014 183.588 46.3517H183.69V47.8877H186.557V40.2571C186.557 36.7242 183.921 34.7521 180.515 34.7521ZM162.156 37.6103H157.93V30.7883H162.156C164.377 30.7883 165.638 32.6271 165.638 34.1992C165.638 35.7416 164.377 37.6103 162.156 37.6103ZM162.079 28.0183H154.961V47.9207H157.93V40.3803H162.079C165.372 40.3803 168.608 37.9965 168.608 34.1992C168.608 30.402 165.372 28.0183 162.079 28.0183ZM123.264 45.6638C121.212 45.6638 119.493 43.9455 119.493 41.5855C119.493 39.2006 121.212 37.4562 123.264 37.4562C125.29 37.4562 126.88 39.2006 126.88 41.5855C126.88 43.9455 125.29 45.6638 123.264 45.6638ZM126.675 36.302H126.572C125.906 35.5071 124.623 34.7889 123.007 34.7889C119.621 34.7889 116.518 37.7639 116.518 41.5855C116.518 45.3815 119.621 48.3311 123.007 48.3311C124.623 48.3311 125.906 47.6128 126.572 46.7926H126.675V47.7671C126.675 50.3579 125.29 51.7429 123.059 51.7429C121.238 51.7429 120.109 50.4344 119.647 49.3317L117.057 50.4089C117.801 52.2042 119.776 54.4102 123.059 54.4102C126.547 54.4102 129.496 52.3579 129.496 47.3566V35.1993H126.675V36.302ZM131.548 47.9207H134.523V28.0176H131.548V47.9207ZM138.909 41.3548C138.832 38.7384 140.935 37.4051 142.449 37.4051C143.629 37.4051 144.629 37.9946 144.962 38.8418L138.909 41.3548ZM148.143 39.0979C147.579 37.5842 145.86 34.7889 142.346 34.7889C138.858 34.7889 135.96 37.5333 135.96 41.56C135.96 45.3561 138.832 48.3311 142.679 48.3311C145.783 48.3311 147.579 46.4331 148.323 45.3304L146.014 43.7913C145.245 44.92 144.193 45.6638 142.679 45.6638C141.166 45.6638 140.089 44.9711 139.396 43.6121L148.45 39.8672L148.143 39.0979ZM76.0102 36.8665V39.739H82.8838C82.6786 41.3548 82.14 42.5345 81.3192 43.3554C80.3192 44.3559 78.7545 45.4586 76.0102 45.4586C71.7781 45.4586 68.4696 42.0475 68.4696 37.8155C68.4696 33.5836 71.7781 30.172 76.0102 30.172C78.293 30.172 79.9597 31.0699 81.191 32.2241L83.2172 30.1981C81.4989 28.5562 79.2159 27.2995 76.0102 27.2995C70.2134 27.2995 65.3403 32.0189 65.3403 37.8155C65.3403 43.6121 70.2134 48.3311 76.0102 48.3311C79.1395 48.3311 81.4989 47.3057 83.3453 45.3815C85.2434 43.4835 85.8335 40.8162 85.8335 38.662C85.8335 37.9946 85.7824 37.3796 85.6793 36.8665H76.0102ZM93.6482 45.6638C91.5959 45.6638 89.8261 43.971 89.8261 41.56C89.8261 39.1234 91.5959 37.4562 93.6482 37.4562C95.6997 37.4562 97.4696 39.1234 97.4696 41.56C97.4696 43.971 95.6997 45.6638 93.6482 45.6638ZM93.6482 34.7889C89.9031 34.7889 86.8509 37.6358 86.8509 41.56C86.8509 45.4586 89.9031 48.3311 93.6482 48.3311C97.3925 48.3311 100.445 45.4586 100.445 41.56C100.445 37.6358 97.3925 34.7889 93.6482 34.7889ZM108.475 45.6638C106.424 45.6638 104.654 43.971 104.654 41.56C104.654 39.1234 106.424 37.4562 108.475 37.4562C110.527 37.4562 112.297 39.1234 112.297 41.56C112.297 43.971 110.527 45.6638 108.475 45.6638ZM108.475 34.7889C104.73 34.7889 101.679 37.6358 101.679 41.56C101.679 45.4586 104.73 48.3311 108.475 48.3311C112.22 48.3311 115.272 45.4586 115.272 41.56C115.272 37.6358 112.22 34.7889 108.475 34.7889Z" fill="black" fill-opacity="0.7"/>
<path d="M16.732 51.7246L16.6137 51.6114C16.1505 51.1212 15.877 50.3601 15.877 49.3744V49.6064V14.3969C15.877 14.3937 15.877 14.3913 15.877 14.3887C15.877 14.3918 15.877 14.3943 15.877 14.3975V14.6301C15.877 13.5628 16.1958 12.7588 16.7301 12.2767L36.4552 32.0013L16.732 51.7246ZM15.877 14.3868C15.877 14.2991 15.8793 14.2139 15.8838 14.13C15.8793 14.2133 15.877 14.2991 15.877 14.3868ZM15.8838 14.1262C15.8838 14.1251 15.8838 14.1238 15.8843 14.1225C15.8838 14.1238 15.8838 14.1251 15.8838 14.1262ZM15.8843 14.1151C15.8843 14.1144 15.8843 14.1138 15.8843 14.1132C15.8843 14.1138 15.8843 14.1144 15.8843 14.1151Z" fill="url(#paint0_linear)"/>
<path d="M43.0291 38.8115L43.1791 38.7263L50.9688 34.3003C51.7114 33.8781 52.2064 33.3663 52.4533 32.8247C52.207 33.3663 51.7119 33.8787 50.9688 34.301L43.1791 38.727L43.0291 38.8115ZM43.031 38.5783L36.4551 32.0013L43.0304 25.4253L50.9688 29.9353C51.9768 30.5081 52.5428 31.2463 52.6374 32.0006C52.6374 32.0013 52.6374 32.0025 52.6374 32.0036C52.5428 32.7562 51.9768 33.4951 50.9688 34.0677L43.031 38.5783Z" fill="url(#paint1_linear)"/>
<path d="M18.1384 52.4756C17.5874 52.4756 17.1066 52.2965 16.7316 51.9582L16.7323 51.9575C17.1072 52.2958 17.5886 52.4756 18.1396 52.4756C18.1874 52.4756 18.236 52.4743 18.2852 52.4719C18.2353 52.4743 18.1861 52.4756 18.1384 52.4756ZM18.139 52.2424C17.588 52.243 17.1072 52.0632 16.7323 51.7249V51.7245L36.4554 32.0012L43.0314 38.5782L19.9226 51.7082C19.2832 52.0707 18.6774 52.2424 18.139 52.2424ZM16.7267 51.9539C16.6918 51.9222 16.6576 51.8886 16.624 51.8537L16.7267 51.9539Z" fill="url(#paint2_linear)"/>
<path d="M36.455 32.001L16.73 12.2764C17.1049 11.9387 17.5851 11.7596 18.1354 11.7596C18.6753 11.7596 19.2815 11.9319 19.9222 12.295L43.0303 25.4251L36.455 32.001ZM43.179 25.2765L19.9222 12.0626C19.2815 11.6993 18.6753 11.527 18.1354 11.527C18.1329 11.527 18.1311 11.527 18.1286 11.527C18.1318 11.527 18.1342 11.527 18.138 11.527C18.6766 11.527 19.2822 11.6986 19.9222 12.0619L43.179 25.2765Z" fill="url(#paint3_linear)"/>
<path d="M18.2849 52.4717C18.7855 52.443 19.3397 52.2708 19.9223 51.9406L43.0292 38.8112L19.9223 51.9406C19.3401 52.2714 18.7855 52.443 18.2849 52.4717ZM16.7314 51.9579L16.7265 51.9536C16.7282 51.9549 16.7301 51.9567 16.7314 51.9579ZM16.6238 51.8535L16.6138 51.8436V51.843C16.6176 51.8466 16.6206 51.8503 16.6238 51.8535Z" fill="white"/>
<path d="M43.0293 38.8115L43.1793 38.7264L43.0293 38.8115Z" fill="url(#paint4_linear)"/>
<path d="M18.1394 52.4756C17.5884 52.4756 17.107 52.2958 16.7321 51.9575L16.7314 51.9582C16.7301 51.9569 16.7282 51.9551 16.7265 51.9539L16.6238 51.8537C16.6206 51.8505 16.6176 51.8469 16.6138 51.8432L16.7321 51.7249C17.107 52.0632 17.5878 52.243 18.1388 52.2424C18.6772 52.2424 19.283 52.0707 19.9223 51.7082L43.0311 38.5782L43.1792 38.7262L43.0292 38.8114L19.9223 51.9408C19.3397 52.271 18.7855 52.4433 18.2849 52.4719C18.2357 52.4743 18.1872 52.4756 18.1394 52.4756Z" fill="url(#paint5_linear)"/>
<path d="M16.6137 51.8438C16.1505 51.3536 15.877 50.5924 15.877 49.6068V49.6061C15.877 50.5924 16.1505 51.3529 16.6137 51.8431V51.8438Z" fill="white"/>
<path d="M16.6137 51.8438C16.1505 51.3536 15.877 50.593 15.877 49.6068V49.3748C15.877 50.3604 16.1505 51.1216 16.6137 51.6118L16.732 51.725L16.6137 51.8438Z" fill="url(#paint6_linear)"/>
<path d="M16.6138 51.8438L16.7321 51.725V51.7255L16.6138 51.8438Z" fill="url(#paint7_linear)"/>
<path d="M52.4536 32.8252C52.576 32.5565 52.6377 32.2804 52.6377 32.0042C52.6377 32.0037 52.6377 32.0031 52.6377 32.0031C52.6377 32.2798 52.576 32.5558 52.4536 32.8252Z" fill="white"/>
<path d="M43.1793 38.7256L43.0312 38.5775L50.969 34.067C51.9771 33.4943 52.5431 32.7554 52.6376 32.0029C52.6376 32.2791 52.576 32.5552 52.4536 32.8239C52.2067 33.3655 51.7117 33.8773 50.969 34.2996L43.1793 38.7256Z" fill="url(#paint8_linear)"/>
<path d="M52.6377 32.001V32.0003C52.637 31.1675 52.0804 30.3349 50.969 29.703L43.1793 25.277H43.1787L43.1793 25.2765L50.969 29.7024C52.0817 30.3343 52.6389 31.1682 52.6377 32.001Z" fill="#404040"/>
<path d="M52.6373 32.001C52.5427 31.2467 51.9767 30.5084 50.9687 29.9356L43.0303 25.4257L43.1783 25.2776H43.179L50.9687 29.7037C52.0801 30.3355 52.6366 31.1682 52.6373 32.001Z" fill="url(#paint9_linear)"/>
<path d="M15.877 14.3887C15.877 14.388 15.877 14.3874 15.877 14.3868C15.877 14.3874 15.877 14.388 15.877 14.3887ZM15.8838 14.13C15.8838 14.1287 15.8838 14.1274 15.8838 14.1261C15.8838 14.1274 15.8838 14.1287 15.8838 14.13ZM15.8843 14.1225C15.8843 14.1199 15.8843 14.1175 15.8843 14.115C15.8843 14.1175 15.8843 14.1199 15.8843 14.1225ZM15.8843 14.1131C15.9765 12.4776 16.8658 11.5329 18.1238 11.5273C17.5784 11.5305 17.1033 11.7096 16.7314 12.0447V12.0441L16.7269 12.0485C16.6878 12.0839 16.6505 12.1213 16.6137 12.1598C16.1958 12.6019 15.9322 13.2642 15.8843 14.1131Z" fill="#404040"/>
<path d="M15.877 14.6299V14.3973C15.877 14.3941 15.877 14.3916 15.877 14.3885C15.877 14.3879 15.877 14.3873 15.877 14.3866C15.877 14.2989 15.8793 14.2131 15.8838 14.1298C15.8838 14.1286 15.8838 14.1273 15.8838 14.126C15.8838 14.1249 15.8838 14.1236 15.8843 14.1223C15.8843 14.1198 15.8843 14.1174 15.8843 14.1149C15.8843 14.1142 15.8843 14.1136 15.8843 14.113C15.9322 13.2641 16.1958 12.6018 16.6137 12.1597L16.7301 12.2765C16.1958 12.7586 15.877 13.5626 15.877 14.6299ZM16.7269 12.0484L16.7314 12.0439C16.7301 12.0458 16.7282 12.0471 16.7269 12.0484Z" fill="url(#paint10_linear)"/>
<path d="M43.0305 25.4258L19.9223 12.2958C19.2817 11.9326 18.6755 11.7603 18.1356 11.7603C17.5852 11.7603 17.1051 11.9395 16.7301 12.2771L16.6138 12.1603C16.6505 12.1217 16.6878 12.0843 16.727 12.049C16.7282 12.0477 16.7301 12.0464 16.7314 12.0452C17.1033 11.71 17.5784 11.5309 18.1238 11.5278C18.1251 11.5278 18.1268 11.5278 18.1288 11.5278C18.1313 11.5278 18.1331 11.5278 18.1356 11.5278C18.6755 11.5278 19.2817 11.7 19.9223 12.0633L43.1792 25.2772L43.1786 25.2777L43.0305 25.4258Z" fill="url(#paint11_linear)"/>
<path fill-rule="evenodd" clip-rule="evenodd" d="M69.4072 16.0246V12.6359H73.0116V19.5228H68.629C69.151 18.6279 69.4085 17.5025 69.4085 16.1571L69.4072 16.0265V16.0246ZM66.7463 19.5228H65.8731H65.7139V23.042H67.0466H67.2058V22.8828V21.0147H74.1324V22.8828V23.042H75.4657H75.625V19.5228H74.5583V11.144H67.8625V16.0271V16.0278L67.8631 16.1309C67.8625 17.7469 67.4783 18.8651 66.7463 19.5228ZM79.0538 18.7099L79.0541 18.7096C78.3786 18.0223 78.0409 17.1579 78.0392 16.0796C78.0409 15.0013 78.3786 14.1368 79.0541 13.4495H79.0535C79.735 12.7624 80.549 12.4254 81.5355 12.4235C82.5211 12.4254 83.337 12.7624 84.0166 13.4495C84.6939 14.1368 85.0311 15.0013 85.0328 16.0796C85.0311 17.1579 84.6939 18.0223 84.0166 18.7096C83.337 19.3968 82.5211 19.7338 81.5355 19.7357C80.5492 19.7338 79.7353 19.3969 79.0538 18.7099ZM86.6044 16.0796C86.6056 17.5111 86.1175 18.7407 85.1522 19.7319C84.1865 20.7275 82.9677 21.2295 81.5355 21.2282C80.1026 21.2295 78.8836 20.7275 77.9198 19.7319V19.7325C76.9526 18.7407 76.4664 17.5111 76.4677 16.0796C76.4664 14.648 76.9526 13.4185 77.9198 12.4266V12.4273C78.8836 11.4316 80.1026 10.9285 81.5355 10.9303C82.9608 10.9285 84.1758 11.434 85.146 12.4335C86.1162 13.4292 86.6056 14.6561 86.6044 16.0796ZM94.8375 20.7525C94.1585 21.0703 93.4171 21.2282 92.6237 21.2282C91.1821 21.2295 89.9538 20.7344 88.9757 19.7543C87.9924 18.7749 87.4998 17.5373 87.5017 16.0796C87.4998 14.6219 87.9924 13.3843 88.9757 12.4055C89.9538 11.4248 91.1821 10.929 92.6237 10.9303C94.1012 10.9285 95.3282 11.4721 96.253 12.5467L96.3513 12.6604L96.243 12.765L95.2623 13.7146L95.1529 13.5777C94.5316 12.8054 93.7051 12.426 92.6237 12.4235C91.6175 12.4254 90.7885 12.7575 90.1 13.4322H90.0995C89.4154 14.1051 89.0745 14.9739 89.0732 16.0796C89.0745 17.1853 89.4154 18.0553 90.0995 18.727H90.1C90.7885 19.4017 91.6175 19.7338 92.6237 19.7357C93.7276 19.7338 94.6516 19.2992 95.439 18.403L95.5509 18.2748L95.6716 18.3955L96.6273 19.352L96.5347 19.4633C96.0827 20.0068 95.5167 20.4378 94.8375 20.7525ZM101.536 12.6364V20.8559V21.0151H101.377H99.9894V12.6364H97.3215V12.4772V11.1445H104.204V11.3037V12.6364H101.536ZM108.696 16.4417L106.415 11.1442H104.869H104.621L107.908 18.36L107.592 19.0552C107.466 19.3345 107.33 19.5149 107.211 19.5988C107.094 19.6828 106.907 19.7363 106.642 19.7357C106.448 19.7357 106.264 19.6865 106.08 19.5827L105.903 19.4832L105.528 20.8122L105.49 20.9477L105.62 21.0025C105.974 21.151 106.31 21.2282 106.63 21.2282C107.685 21.2331 108.496 20.5976 109.003 19.4254L109.002 19.4265L112.717 11.1442H112.472H111.03H110.925L108.696 16.4417ZM115.088 21.0151H113.862H113.703V11.1445H120.932V21.0151H120.773H119.386V12.6364H115.247V21.0151H115.088ZM124.187 21.0151H122.96H122.801V11.1445H122.96H124.346V15.2397H128.804V11.1445H128.963H130.351V21.0151H130.191H128.804V16.7055H124.346V21.0151H124.187ZM133.192 16.0796C133.194 17.1579 133.532 18.0223 134.207 18.7096C134.888 19.3968 135.703 19.7338 136.688 19.7357C137.674 19.7338 138.49 19.3968 139.17 18.7096C139.847 18.0223 140.185 17.1579 140.186 16.0796C140.185 15.0013 139.847 14.1368 139.17 13.4495C138.49 12.7624 137.674 12.4254 136.688 12.4235C135.703 12.4254 134.888 12.7624 134.207 13.4495C133.532 14.1368 133.194 15.0013 133.192 16.0796ZM141.757 16.0796C141.759 17.5111 141.271 18.7407 140.305 19.7319C139.34 20.7275 138.121 21.2295 136.688 21.2282C135.255 21.2295 134.037 20.7275 133.073 19.7319V19.7325C132.106 18.7407 131.619 17.5111 131.62 16.0796C131.619 14.648 132.106 13.4185 133.073 12.4266V12.4273C134.037 11.4316 135.255 10.9285 136.688 10.9303C138.114 10.9285 139.329 11.434 140.299 12.4335C141.269 13.4292 141.759 14.6561 141.757 16.0796ZM148.002 19.5232V16.7055H150.258C150.714 16.7072 151.056 16.8516 151.33 17.142C151.61 17.4454 151.739 17.7583 151.74 18.1071C151.739 18.4585 151.613 18.7758 151.341 19.0816C151.075 19.3777 150.747 19.5207 150.312 19.5232H148.002ZM148.002 15.2397V12.6364H150.126C150.535 12.6389 150.838 12.7695 151.08 13.0376L151.081 13.0387L151.08 13.0382C151.33 13.3168 151.446 13.6078 151.447 13.9318C151.446 14.2545 151.326 14.5468 151.069 14.831V14.8316C150.817 15.1047 150.5 15.2378 150.072 15.2397H148.002ZM151.862 15.9038C152.163 15.7241 152.415 15.4869 152.611 15.1948V15.1954C152.866 14.8218 152.993 14.3857 152.993 13.9051C152.995 13.1196 152.699 12.4455 152.119 11.9255C151.546 11.4075 150.854 11.1432 150.072 11.1445H146.458V21.0151H146.617H150.258C151.076 21.0164 151.799 20.7414 152.399 20.1998C153.004 19.6593 153.315 18.956 153.313 18.1345C153.315 17.5879 153.149 17.0941 152.826 16.6762L152.825 16.6743L152.826 16.6755C152.566 16.339 152.242 16.0796 151.862 15.9038Z" fill="black" fill-opacity="0.7"/>
</g>
<defs>
<linearGradient id="paint0_linear" x1="34.7062" y1="14.0254" x2="7.98776" y2="40.7438" gradientUnits="userSpaceOnUse">
<stop stop-color="#00A0FF"/>
<stop offset="0.00657445" stop-color="#00A1FF"/>
<stop offset="0.2601" stop-color="#00BEFF"/>
<stop offset="0.5122" stop-color="#00D2FF"/>
<stop offset="0.7604" stop-color="#00DFFF"/>
<stop offset="1" stop-color="#00E3FF"/>
</linearGradient>
<linearGradient id="paint1_linear" x1="53.8656" y1="32.0022" x2="15.343" y2="32.0022" gradientUnits="userSpaceOnUse">
<stop stop-color="#FFE000"/>
<stop offset="0.4087" stop-color="#FFBD00"/>
<stop offset="0.7754" stop-color="#FFA500"/>
<stop offset="1" stop-color="#FF9C00"/>
</linearGradient>
<linearGradient id="paint2_linear" x1="39.5258" y1="35.6554" x2="3.29371" y2="71.8875" gradientUnits="userSpaceOnUse">
<stop stop-color="#FF3A44"/>
<stop offset="1" stop-color="#C31162"/>
</linearGradient>
<linearGradient id="paint3_linear" x1="11.6175" y1="0.439424" x2="27.7966" y2="16.6185" gradientUnits="userSpaceOnUse">
<stop stop-color="#32A071"/>
<stop offset="0.0685" stop-color="#2DA771"/>
<stop offset="0.4762" stop-color="#15CF74"/>
<stop offset="0.8009" stop-color="#06E775"/>
<stop offset="1" stop-color="#00F076"/>
</linearGradient>
<linearGradient id="paint4_linear" x1="53.8653" y1="32.0025" x2="15.3445" y2="32.0025" gradientUnits="userSpaceOnUse">
<stop stop-color="#CCB300"/>
<stop offset="0.4087" stop-color="#CC9700"/>
<stop offset="0.7754" stop-color="#CC8400"/>
<stop offset="1" stop-color="#CC7D00"/>
</linearGradient>
<linearGradient id="paint5_linear" x1="39.5256" y1="35.6554" x2="3.29349" y2="71.8875" gradientUnits="userSpaceOnUse">
<stop stop-color="#CC2E36"/>
<stop offset="1" stop-color="#9C0E4E"/>
</linearGradient>
<linearGradient id="paint6_linear" x1="34.7062" y1="14.0258" x2="7.98776" y2="40.7442" gradientUnits="userSpaceOnUse">
<stop stop-color="#008DE0"/>
<stop offset="0.00657445" stop-color="#008DE0"/>
<stop offset="0.2601" stop-color="#00A7E0"/>
<stop offset="0.5122" stop-color="#00B8E0"/>
<stop offset="0.7604" stop-color="#00C4E0"/>
<stop offset="1" stop-color="#00C7E0"/>
</linearGradient>
<linearGradient id="paint7_linear" x1="39.5266" y1="35.6563" x2="3.29548" y2="71.89" gradientUnits="userSpaceOnUse">
<stop stop-color="#E0333C"/>
<stop offset="1" stop-color="#AB0F56"/>
</linearGradient>
<linearGradient id="paint8_linear" x1="53.8659" y1="32.0014" x2="15.3433" y2="32.0014" gradientUnits="userSpaceOnUse">
<stop stop-color="#E0C500"/>
<stop offset="0.4087" stop-color="#E0A600"/>
<stop offset="0.7754" stop-color="#E09100"/>
<stop offset="1" stop-color="#E08900"/>
</linearGradient>
<linearGradient id="paint9_linear" x1="53.8655" y1="32.0026" x2="15.3429" y2="32.0026" gradientUnits="userSpaceOnUse">
<stop stop-color="#FFE840"/>
<stop offset="0.4087" stop-color="#FFCE40"/>
<stop offset="0.7754" stop-color="#FFBC40"/>
<stop offset="1" stop-color="#FFB540"/>
</linearGradient>
<linearGradient id="paint10_linear" x1="34.7062" y1="14.0252" x2="7.98777" y2="40.7437" gradientUnits="userSpaceOnUse">
<stop stop-color="#40B8FF"/>
<stop offset="0.00657445" stop-color="#40B9FF"/>
<stop offset="0.2601" stop-color="#40CEFF"/>
<stop offset="0.5122" stop-color="#40DDFF"/>
<stop offset="0.7604" stop-color="#40E7FF"/>
<stop offset="1" stop-color="#40EAFF"/>
</linearGradient>
<linearGradient id="paint11_linear" x1="11.6176" y1="0.440148" x2="27.7967" y2="16.6193" gradientUnits="userSpaceOnUse">
<stop stop-color="#65B895"/>
<stop offset="0.0685" stop-color="#62BD95"/>
<stop offset="0.4762" stop-color="#50DB97"/>
<stop offset="0.8009" stop-color="#44ED98"/>
<stop offset="1" stop-color="#40F498"/>
</linearGradient>
<clipPath id="clip0">
<rect width="214.925" height="64" fill="white"/>
</clipPath>
</defs>
</svg>
