<svg width="56" height="56" viewBox="0 0 56 56" fill="none" xmlns="http://www.w3.org/2000/svg">
<path d="M12.622 8.65497C9.8142 19.0414 2.50464 24.7192 1.15131 29.725C-0.202025 34.7308 -0.166249 46.0194 22.8591 52.2448C45.8844 58.4701 53.0866 45.2432 54.5738 39.7365C61.5442 13.9579 17.5951 -9.74103 12.622 8.65497Z" fill="#EFEFEF"/>
<path d="M4.79508 33.4321L3.69531 34.5322L5.89555 36.7318L6.99532 35.6317L4.79508 33.4321Z" fill="#A4AFC1"/>
<path d="M11.1199 39.7555L10.02 40.8555L12.2199 43.0553L13.3199 41.9554L11.1199 39.7555Z" fill="#A4AFC1"/>
<path d="M5.62075 39.7561L3.4209 41.9561L4.52086 43.056L6.72071 40.8561L5.62075 39.7561Z" fill="#A4AFC1"/>
<path d="M42.6829 14.3893C41.3965 14.3893 40.3496 13.3424 40.3496 12.056C40.3496 10.7695 41.3965 9.72266 42.6829 9.72266C43.9694 9.72266 45.0163 10.7695 45.0163 12.056C45.0163 13.3424 43.9694 14.3893 42.6829 14.3893ZM42.6829 11.2782C42.2536 11.2782 41.9052 11.6282 41.9052 12.056C41.9052 12.4838 42.2536 12.8338 42.6829 12.8338C43.1123 12.8338 43.4607 12.4838 43.4607 12.056C43.4607 11.6282 43.1123 11.2782 42.6829 11.2782Z" fill="#A4AFC1"/>
<path d="M44.9043 23.3646C44.2977 20.8446 43.2399 19.0557 40.751 19.0557H38.8843V22.9446C38.8843 22.9757 38.8843 23.0068 38.8843 23.0379C38.8843 27.0512 36.2555 29.5557 32.0399 29.5557H23.5015C22.2881 29.5557 20.2659 29.9446 20.2192 32.5734V36.5557V40.709C20.2192 43.0268 21.6503 44.769 23.9526 45.1579C26.8148 45.6245 29.9243 45.609 32.491 45.1423C34.2955 44.8312 35.3688 44.3334 35.9755 43.6179C36.5821 42.9023 36.7532 41.9379 36.7532 40.709V35.7779H39.9577C42.431 35.7779 44.2199 34.8757 44.9043 32.0446C45.6821 28.7934 45.7132 26.7712 44.9043 23.3646Z" fill="#F3F3F1"/>
<path d="M31.1098 38.8887C31.9684 38.8887 32.6653 39.5856 32.6653 40.4411C32.6575 41.306 31.9684 41.9998 31.1098 41.9998C30.2573 41.9998 29.5542 41.2967 29.5542 40.4411C29.5542 39.5856 30.2511 38.8887 31.1098 38.8887Z" fill="#F3F3F1"/>
<path d="M32.0459 10.8423C29.1836 10.3757 26.0741 10.3912 23.5074 10.8579C21.703 11.169 20.6296 11.6668 20.023 12.3823C19.4163 13.0979 19.2452 14.0623 19.2452 15.2912V20.2223H16.0407C13.5674 20.2223 11.7785 21.1245 11.0941 23.9557C10.3163 27.2068 10.2852 29.229 11.0941 32.6357C11.7007 35.1557 12.7585 36.9445 15.2474 36.9445H17.1141V33.0557C17.1141 33.0245 17.1141 32.9934 17.1141 32.9623C17.1141 28.949 19.743 26.4445 23.9585 26.4445H32.497C33.7103 26.4445 35.7325 26.0557 35.7792 23.4268V19.4445V15.2912C35.7792 12.9734 34.3481 11.2312 32.0459 10.8423Z" fill="#2FDF84"/>
<path d="M24.8905 17.1111C24.0318 17.1111 23.335 16.4142 23.335 15.5587C23.3443 14.6953 24.0334 14 24.8905 14C25.743 14 26.4461 14.7031 26.4461 15.5587C26.4461 16.4142 25.7492 17.1111 24.8905 17.1111Z" fill="#2FDF84"/>
<path d="M31.1098 38.8887C31.9684 38.8887 32.6653 39.5856 32.6653 40.4411C32.6575 41.306 31.9684 41.9998 31.1098 41.9998C30.2573 41.9998 29.5542 41.2967 29.5542 40.4411C29.5542 39.5856 30.2511 38.8887 31.1098 38.8887Z" fill="#D5DBE1"/>
<path d="M24.8905 17.1111C24.0318 17.1111 23.335 16.4142 23.335 15.5587C23.3443 14.6953 24.0334 14 24.8905 14C25.743 14 26.4461 14.7031 26.4461 15.5587C26.4461 16.4142 25.7492 17.1111 24.8905 17.1111Z" fill="#00B871"/>
<path d="M42.3858 23.0379C42.3858 23.0068 42.3858 22.9757 42.3858 22.9446V19.387C41.9223 19.1739 41.384 19.0557 40.7525 19.0557H38.8858V22.9446C38.8858 22.9757 38.8858 23.0068 38.8858 23.0379C38.8858 27.0512 36.2569 29.5557 32.0414 29.5557H35.5414C39.7569 29.5557 42.3858 27.0512 42.3858 23.0379ZM27.454 45.1579C25.1518 44.769 23.7207 43.0268 23.7207 40.709V36.5557V32.5734C23.7674 29.9446 25.7896 29.5557 27.0029 29.5557H23.5029C22.2896 29.5557 20.2674 29.9446 20.2207 32.5734V36.5557V40.709C20.2207 43.0268 21.6518 44.769 23.954 45.1579C25.9265 45.4799 28.0063 45.5561 29.9554 45.4301C29.1138 45.3741 28.2738 45.2917 27.454 45.1579ZM34.6096 38.889C35.4683 38.889 36.1651 39.5859 36.1651 40.4414C36.1558 41.3063 35.4667 42.0001 34.6096 42.0001C33.7571 42.0001 33.054 41.297 33.054 40.4414C33.054 39.5859 33.7509 38.889 34.6096 38.889Z" fill="#D5DBE1"/>
<path d="M14.596 32.6352C13.7871 29.2285 13.8183 27.2063 14.596 23.9552C15.2805 21.1241 17.0694 20.2218 19.5427 20.2218H22.7471V15.2907C22.7471 14.0618 22.9183 13.0974 23.5249 12.3819C24.1316 11.6663 25.2049 11.1685 27.0094 10.8574C27.8074 10.7127 28.6676 10.6272 29.548 10.5696C27.4496 10.4312 25.3418 10.5245 23.5094 10.8574C21.7049 11.1685 20.6316 11.6663 20.0249 12.3819C19.4183 13.0974 19.2471 14.0618 19.2471 15.2907V20.2218H16.0427C13.5694 20.2218 11.7805 21.1241 11.096 23.9552C10.3183 27.2063 10.2871 29.2285 11.096 32.6352C11.7027 35.1552 12.7605 36.9441 15.2494 36.9441H17.116V36.6127C15.7534 35.9858 15.0471 34.5158 14.596 32.6352Z" fill="#00B871"/>
<path d="M21.389 36.5557H19.0557V32.5734C19.1023 29.9461 20.7652 28.389 23.503 28.389H32.043C35.5974 28.389 37.7192 26.3886 37.7192 23.0379V19.0557H40.0525V22.9446C40.0525 27.7061 36.9088 30.7223 32.043 30.7223H23.503C21.669 30.7223 21.4046 31.6681 21.389 32.5952V36.5557Z" fill="black"/>
<path d="M28.2631 46.6666C26.7604 46.6666 25.2266 46.5483 23.766 46.3103C20.9006 45.825 19.0542 43.627 19.0542 40.7088V32.5732H21.3875V40.7072C21.3875 42.4821 22.4189 43.7141 24.1471 44.0066C26.8491 44.4452 29.8171 44.4406 32.2811 43.991C33.7386 43.7421 34.6518 43.3735 35.0842 42.8617C35.4358 42.4463 35.5851 41.8023 35.5851 40.7057V36.9412H29.1622V34.6079H36.7518C37.3958 34.6079 37.9184 35.1306 37.9184 35.7746V40.7057C37.9184 41.8335 37.7986 43.2661 36.8638 44.369C36.0518 45.3272 34.7249 45.9386 32.6871 46.287C31.3198 46.5406 29.8078 46.6666 28.2631 46.6666Z" fill="black"/>
<path d="M39.9595 36.9442H36.755V34.6109H39.9595C42.2088 34.6109 43.2775 33.8144 43.7721 31.7704C44.5235 28.6298 44.5235 26.8051 43.7706 23.6333C43.0892 20.8022 42.0704 20.222 40.7528 20.222H40.0528V22.9442L37.7195 23.0376V19.0553C37.7195 18.4113 38.2421 17.8887 38.8861 17.8887H40.7528C44.3695 17.8887 45.5019 20.8567 46.0401 23.0904C46.8724 26.5998 46.8724 28.8398 46.0401 32.3164C45.2981 35.3871 43.2526 36.9442 39.9595 36.9442ZM31.1099 43.1664C29.6088 43.1664 28.3877 41.9438 28.3877 40.4411C28.3877 38.9416 29.6088 37.722 31.1099 37.722C32.611 37.722 33.8321 38.9416 33.8321 40.4411C33.8166 41.95 32.5955 43.1664 31.1099 43.1664ZM31.1099 40.0553C30.8953 40.0553 30.721 40.228 30.721 40.4411C30.721 40.8658 31.4941 40.8704 31.4988 40.4302C31.4988 40.228 31.323 40.0553 31.1099 40.0553Z" fill="black"/>
<path d="M18.2811 36.9443H15.9478V33.0554C15.9478 28.2939 19.0915 25.2777 23.9573 25.2777H32.4973C34.3313 25.2777 34.5958 24.3319 34.6113 23.4063V19.4443H36.9446V23.4281C36.898 26.0554 35.2351 27.611 32.4973 27.611H23.9573C20.4029 27.611 18.2811 29.6114 18.2811 32.9621V36.9443Z" fill="black"/>
<path d="M36.9443 23.4286H34.611V15.2915C34.611 13.5166 33.5796 12.2846 31.8514 11.9921C29.1494 11.5519 26.1814 11.5566 23.7174 12.0077C22.2599 12.2566 21.3467 12.6252 20.9143 13.137C20.5627 13.5523 20.4134 14.1964 20.4134 15.293V19.0575H26.8363V21.3908H19.2467C18.6027 21.3908 18.0801 20.8681 18.0801 20.2241V15.2915C18.0801 14.1637 18.1999 12.731 19.1347 11.6281C19.9467 10.6699 21.2736 10.0586 23.3114 9.71013C26.0181 9.21857 29.2739 9.20768 32.2356 9.69146C35.101 10.1768 36.9474 12.3748 36.9474 15.293V23.4286H36.9443Z" fill="black"/>
<path d="M17.1141 38.1118H15.2474C11.6308 38.1118 10.4983 35.1438 9.9601 32.91C9.12788 29.4007 9.12788 27.1607 9.9601 23.684C10.7037 20.6118 12.7477 19.0547 16.0408 19.0547H19.2452V21.388H16.0408C13.7914 21.388 12.7228 22.1844 12.2281 24.2284C11.4768 27.3691 11.4768 29.1938 12.2297 32.3655C12.911 35.1982 13.9299 35.7784 15.2474 35.7784H15.9474V33.0562L18.2808 32.9629V36.9451C18.2808 37.5891 17.7581 38.1118 17.1141 38.1118ZM24.8903 18.2784C23.3892 18.2784 22.1681 17.0589 22.1681 15.5593C22.1821 14.0504 23.4032 12.834 24.8903 12.834C26.3914 12.834 27.6125 14.0567 27.6125 15.5593C27.6125 17.0589 26.3914 18.2784 24.8903 18.2784ZM24.8903 15.1673C24.6741 15.1673 24.503 15.3447 24.5014 15.5702C24.5014 15.9747 25.2792 15.9855 25.2792 15.5593C25.2792 15.3509 25.0988 15.1673 24.8903 15.1673Z" fill="black"/>
</svg>
