<svg width="56" height="56" viewBox="0 0 56 56" fill="none" xmlns="http://www.w3.org/2000/svg">
<path d="M54.295 31.6635C48.4119 22.6553 49.0372 13.4215 46.2014 9.07995C43.3657 4.7384 34.9143 -2.74694 14.9457 10.2964C-5.023 23.3397 0.0558884 37.5186 3.17633 42.2926C17.7799 64.6491 64.7157 47.6173 54.295 31.6635Z" fill="#EFEFEF"/>
<path d="M42.6912 13.6862L41.5913 14.7861L43.7912 16.986L44.8912 15.886L42.6912 13.6862Z" fill="#A4AFC1"/>
<path d="M36.3665 7.36097L35.2666 8.46094L37.4665 10.6608L38.5665 9.56082L36.3665 7.36097Z" fill="#A4AFC1"/>
<path d="M44.0666 7.3616L41.8667 9.56152L42.9667 10.6614L45.1665 8.46152L44.0666 7.3616Z" fill="#A4AFC1"/>
<path d="M39.6263 48.4274C38.3399 48.4274 37.293 47.3805 37.293 46.0941C37.293 44.8076 38.3399 43.7607 39.6263 43.7607C40.9128 43.7607 41.9596 44.8076 41.9596 46.0941C41.9596 47.3805 40.9128 48.4274 39.6263 48.4274ZM39.6263 45.3163C39.1985 45.3163 38.8485 45.6663 38.8485 46.0941C38.8485 46.5219 39.1985 46.8719 39.6263 46.8719C40.0541 46.8719 40.4041 46.5219 40.4041 46.0941C40.4041 45.6663 40.0541 45.3163 39.6263 45.3163Z" fill="#A4AFC1"/>
<path d="M32.0072 12.833C35.5243 17.4515 36.915 22.9457 35.6876 27.883C35.6068 28.2797 35.4434 28.7588 35.2785 29.157C35.0188 29.017 34.8041 28.8848 34.5988 28.7432L34.6221 28.7588C34.6221 28.7588 26.6903 23.9801 18.1861 15.619C17.9403 15.381 22.7656 22.3063 28.1634 27.8021C25.6294 26.3679 18.4319 21.3528 13.9332 17.2897C14.4248 18.1655 15.1605 19.0412 15.8963 19.9186C19.6592 24.6179 24.567 30.3501 30.4548 34.729C26.2843 37.2008 20.4774 37.3579 14.5881 34.729C13.115 34.0928 11.8908 33.2963 10.4985 32.3412C12.9516 36.0839 16.7954 39.5092 21.3765 41.3401C26.8552 43.6501 32.4163 43.4914 36.4234 41.3401H36.5059C36.6692 41.2608 36.8325 41.1814 36.9959 41.0228C38.959 40.0677 42.8028 39.0317 44.9292 43.0139C45.5001 44.1292 46.5641 38.9523 42.5585 34.1752H42.557C42.6394 34.0166 42.6394 33.8563 42.7203 33.6977C44.685 26.2108 40.023 17.4515 32.0072 12.833Z" fill="#2FDF84"/>
<path d="M35.8042 27.2452C37.2556 28.2346 38.1251 28.7603 38.1251 28.7603L38.1018 28.7448C38.3071 28.8863 38.5218 29.017 38.7816 29.1586C38.9449 28.7603 39.1082 28.2828 39.1891 27.8846C39.9529 24.8077 39.6993 21.5161 38.5513 18.3537C36.7827 16.2101 34.5691 14.3092 32.0087 12.833C35.3749 17.2555 36.7656 22.4743 35.8042 27.2452ZM31.6649 27.8037C30.702 26.8237 29.7609 25.7986 28.8602 24.7766C25.9031 22.5615 22.1122 19.4783 18.1891 15.6206C18.0336 15.4697 19.9033 18.1779 22.6598 21.5768C26.2811 24.3441 29.9911 26.8563 31.6649 27.8037ZM24.878 41.3401C21.616 40.0366 18.7382 37.9179 16.4609 35.457C15.8387 35.2408 15.2149 35.009 14.5896 34.729C13.1164 34.0928 11.8922 33.2963 10.5 32.3412C12.9531 36.0839 16.7969 39.5092 21.378 41.3401C24.6633 42.7261 27.972 43.2068 30.9633 42.919C28.98 42.7199 26.9236 42.2034 24.878 41.3401ZM30.4562 34.7306C28.7669 35.7308 26.8022 36.3312 24.6789 36.5412C28.1524 36.9006 31.3693 36.2628 33.9562 34.7306C29.9382 31.7439 26.3916 28.1303 23.3396 24.6397C20.2891 22.4977 16.6304 19.7257 13.9347 17.2912C14.4262 18.167 15.1636 19.0428 15.8978 19.9186C19.6591 24.6195 24.5669 30.3517 30.4562 34.7306ZM42.098 40.4177C43.1542 40.7832 44.1576 41.5626 44.9307 43.0123C45.2402 43.6159 45.6851 42.373 45.4036 40.3554C44.282 40.0226 43.1122 40.1392 42.098 40.4177Z" fill="#00B871"/>
<path d="M45.0984 44.3331C44.596 44.3331 44.1479 44.0407 43.8928 43.5444C42.2517 40.4691 39.3304 41.2236 37.6442 42.006C37.4046 42.202 37.1775 42.3124 37.0188 42.3902C36.938 42.4276 36.8555 42.4587 36.7684 42.4789C32.3382 44.7624 26.4348 44.7391 20.9251 42.4167C16.4388 40.6247 12.2762 37.1838 9.5244 32.9838C9.21951 32.5171 9.2864 31.9011 9.68462 31.5107C10.0844 31.1202 10.702 31.0673 11.1608 31.3831C12.3975 32.2324 13.6248 33.0444 15.0528 33.662C19.7786 35.7682 24.4857 36.0544 28.2704 34.5176C22.9084 30.2149 18.3926 24.9042 14.9875 20.6513C14.244 19.7693 13.4615 18.836 12.9171 17.8638C12.6371 17.366 12.76 16.7376 13.208 16.3829C13.6575 16.0267 14.2922 16.0438 14.7184 16.428C16.6068 18.1344 18.9728 20.0058 21.2595 21.7013C20.8971 21.2471 20.5595 20.8193 20.2531 20.4258C16.526 15.63 16.5897 15.5662 17.3535 14.7962C17.8046 14.342 18.5451 14.3436 19.0024 14.7853C25.9651 21.6298 32.6042 26.088 34.614 27.3776C35.6375 22.8493 34.3557 17.842 31.0813 13.5424C30.7437 13.1007 30.7671 12.4816 31.1326 12.0662C31.4982 11.6462 32.1111 11.5451 32.5917 11.8267C41.1675 16.7687 45.9011 26.06 43.8648 33.942C46.8406 37.8293 46.9853 42.0682 46.3615 43.4433C46.0068 44.2304 45.3831 44.33 45.1311 44.3362C45.1202 44.3331 45.1093 44.3331 45.0984 44.3331ZM45.9508 42.4462C45.9539 42.4509 45.9571 42.4571 45.9602 42.4633C45.9571 42.4571 45.9539 42.4509 45.9508 42.4462ZM15.5817 36.3982C17.464 38.0409 19.592 39.3693 21.8117 40.256C26.788 42.3529 32.0379 42.37 35.8739 40.3104C35.9657 40.2622 36.0637 40.2249 36.1648 40.2016C36.1726 40.1969 36.1804 40.1907 36.1866 40.1844C36.2753 40.0973 36.378 40.0258 36.4884 39.9713C38.9182 38.7922 41.9577 38.4422 44.2304 40.2949C43.9846 38.8358 43.2924 36.8587 41.6684 34.9204C41.3697 34.5627 41.3122 34.0587 41.5237 33.6418C41.5362 33.5609 41.5626 33.4458 41.6186 33.312C42.9968 27.8971 40.6386 21.6764 35.8288 17.1187C37.3393 20.7664 37.708 24.604 36.8228 28.1647C36.7171 28.6936 36.4868 29.2956 36.3608 29.602C36.2348 29.9084 35.9844 30.1464 35.6717 30.2569C35.3606 30.3673 35.0168 30.3393 34.7228 30.1807C34.4459 30.0282 34.2126 29.8882 33.9902 29.7373C33.6075 29.5056 30.8293 27.7944 26.9248 24.7782C27.6 25.5233 28.2937 26.2669 29.0015 26.9871C29.4091 27.4024 29.448 28.0542 29.0948 28.5147C28.7386 28.9751 28.0993 29.1058 27.5953 28.818C26.284 28.0776 24.0175 26.578 21.5208 24.7798C24.3348 27.9204 27.5766 31.1311 31.156 33.7942C31.4702 34.026 31.6444 34.4024 31.6257 34.7913C31.604 35.1818 31.3908 35.5364 31.0548 35.734C26.7631 38.2758 21.1957 38.4998 15.5817 36.3982Z" fill="black"/>
</svg>
