<svg width="57" height="56" viewBox="0 0 57 56" fill="none" xmlns="http://www.w3.org/2000/svg">
<path d="M13.5311 49.5183C24.2909 49.5183 31.6798 55.0919 36.8644 55.0919C42.0491 55.0919 52.938 52.1114 52.938 28.2601C52.938 4.40878 38.2893 0.907227 32.5867 0.907227C5.88244 0.907227 -5.52445 49.5183 13.5311 49.5183Z" fill="#EFEFEF"/>
<path d="M34.5276 5.54102H31.4165V7.09657H34.5276V5.54102Z" fill="#A4AFC1"/>
<path d="M25.5833 5.54102H22.4722V7.09657H25.5833V5.54102Z" fill="#A4AFC1"/>
<path d="M29.4721 0.0957031H27.9165V3.20681H29.4721V0.0957031Z" fill="#A4AFC1"/>
<path d="M51.3822 47.3034C50.0957 47.3034 49.0488 46.2565 49.0488 44.9701C49.0488 43.6836 50.0957 42.6367 51.3822 42.6367C52.6686 42.6367 53.7155 43.6836 53.7155 44.9701C53.7155 46.2565 52.6686 47.3034 51.3822 47.3034ZM51.3822 44.1923C50.9528 44.1923 50.6044 44.5423 50.6044 44.9701C50.6044 45.3978 50.9528 45.7478 51.3822 45.7478C51.8115 45.7478 52.1599 45.3978 52.1599 44.9701C52.1599 44.5423 51.8115 44.1923 51.3822 44.1923Z" fill="#A4AFC1"/>
<path d="M11 28V45.5H46V10.5H11V28Z" fill="#2FDF84"/>
<path d="M14.5 10.5H11V28V45.5H14.5V28V10.5Z" fill="#00B871"/>
<path d="M46.0002 46.6663H11.0002C10.3562 46.6663 9.8335 46.1437 9.8335 45.4997V10.4997C9.8335 9.85567 10.3562 9.33301 11.0002 9.33301H46.0002C46.6442 9.33301 47.1668 9.85567 47.1668 10.4997V45.4997C47.1668 46.1437 46.6442 46.6663 46.0002 46.6663ZM12.1668 44.333H44.8335V11.6663H12.1668V44.333Z" fill="black"/>
<path d="M31.583 26.4443H17.583V28.7777H31.583V26.4443Z" fill="black"/>
<path d="M25.7498 26.5439H23.4165V43.5555H25.7498V26.5439Z" fill="black"/>
<path d="M38.2223 43.5555C36.2172 43.5555 34.3816 42.619 33.4312 41.1148L32.8089 40.127L34.7829 38.8826L35.4052 39.8688C35.9232 40.6901 37.0292 41.2221 38.2223 41.2221C39.9085 41.2221 41.3334 40.1534 41.3334 38.8888C41.3334 37.7439 40.1729 36.8106 37.8832 36.1168C34.5916 35.1166 32.7778 33.3401 32.7778 31.111C32.7778 28.5381 35.2201 26.4443 38.2223 26.4443C39.2754 26.4443 40.2974 26.701 41.1778 27.1879L42.1998 27.751L41.0721 29.7919L40.0501 29.2288C39.5149 28.9348 38.8818 28.7777 38.2223 28.7777C36.5361 28.7777 35.1112 29.8463 35.1112 31.111C35.1112 32.6121 37.2734 33.4926 38.5614 33.883C42.7816 35.1632 43.6667 37.3114 43.6667 38.8888C43.6667 41.4617 41.2245 43.5555 38.2223 43.5555Z" fill="white"/>
</svg>
