<?xml version="1.0" encoding="UTF-8"?>
<svg width="30px" height="30px" viewBox="0 0 30 30" version="1.1" xmlns="http://www.w3.org/2000/svg" xmlns:xlink="http://www.w3.org/1999/xlink">
    <!-- Generator: Sketch 63.1 (92452) - https://sketch.com -->
    <title>twitter</title>
    <desc>Created with Sketch.</desc>
    <g id="Page-1" stroke="none" stroke-width="1" fill="none" fill-rule="evenodd">
        <g id="Artboard" transform="translate(-645.000000, -216.000000)" fill="#FFFFFF">
            <path d="M665.964375,227.940938 C665.97,228.073125 665.97375,228.205312 665.97375,228.339375 C665.97375,232.405313 662.878125,237.094688 657.2175,237.094688 C655.479375,237.094688 653.862188,236.585625 652.5,235.712813 C652.740937,235.740938 652.985625,235.755 653.234062,235.755 C654.675938,235.755 656.0025,235.26375 657.05625,234.437813 C655.709062,234.413438 654.572813,233.52375 654.180938,232.30125 C654.369375,232.336875 654.561563,232.355625 654.760313,232.355625 C655.040625,232.355625 655.3125,232.318125 655.57125,232.247813 C654.163125,231.965625 653.102813,230.721563 653.102813,229.230938 L653.102813,229.191563 C653.517187,229.422188 653.9925,229.560938 654.496875,229.576875 C653.670938,229.024688 653.127187,228.0825 653.127187,227.015625 C653.127187,226.45125 653.279063,225.9225 653.544375,225.467813 C655.062187,227.329688 657.33,228.555 659.8875,228.683437 C659.835,228.458438 659.807812,228.223125 659.807812,227.982188 C659.807812,226.2825 661.185938,224.904375 662.884688,224.904375 C663.770625,224.904375 664.570312,225.278438 665.130937,225.876563 C665.832188,225.73875 666.49125,225.482813 667.085625,225.130313 C666.855937,225.848437 666.3675,226.45125 665.732813,226.832813 C666.355312,226.757813 666.947813,226.592813 667.5,226.348125 C667.0875,226.965 666.565313,227.506875 665.964375,227.940938 L665.964375,227.940938 Z M645,246 L675,246 L675,216 L645,216 L645,246 Z" id="twitter"></path>
        </g>
    </g>
</svg>