<svg width="14" height="14" viewBox="0 0 14 14" fill="none" xmlns="http://www.w3.org/2000/svg">
<path d="M7.00016 13.6663C3.31816 13.6663 0.333496 10.6817 0.333496 6.99967C0.333496 3.31767 3.31816 0.333008 7.00016 0.333008C10.6822 0.333008 13.6668 3.31767 13.6668 6.99967C13.6668 10.6817 10.6822 13.6663 7.00016 13.6663ZM7.00016 9.66634C7.70741 9.66634 8.38568 9.38539 8.88578 8.88529C9.38588 8.3852 9.66683 7.70692 9.66683 6.99967C9.66683 6.29243 9.38588 5.61415 8.88578 5.11406C8.38568 4.61396 7.70741 4.33301 7.00016 4.33301C6.29292 4.33301 5.61464 4.61396 5.11454 5.11406C4.61445 5.61415 4.3335 6.29243 4.3335 6.99967C4.3335 7.70692 4.61445 8.3852 5.11454 8.88529C5.61464 9.38539 6.29292 9.66634 7.00016 9.66634Z" fill="#6ED200"/>
</svg>
