<?xml version="1.0" encoding="UTF-8"?>
<svg width="35px" height="35px" viewBox="0 0 35 35" version="1.1" xmlns="http://www.w3.org/2000/svg" xmlns:xlink="http://www.w3.org/1999/xlink">
    <!-- Generator: Sketch 63.1 (92452) - https://sketch.com -->
    <title>icons8-wallet (1)</title>
    <desc>Created with Sketch.</desc>
    <g id="Page-1" stroke="none" stroke-width="1" fill="none" fill-rule="evenodd">
        <g id="4.gs-pay-dashboard" transform="translate(-281.000000, -211.000000)" fill="#D6D6D6" fill-rule="nonzero">
            <g id="icons8-wallet-(1)" transform="translate(281.000000, 211.000000)">
                <path d="M30.9615385,8.07692308 C30.9615385,8.07692308 7.59314904,8.07692308 3.565205,8.07692308 C2.38206096,8.07692308 1.33037827,7.84029481 1.33037827,6.73076923 L30.9615385,5.38461538 L30.9615385,2.69230769 C30.9615385,0.462740385 29.1526442,0 26.9230769,0 L2.71859942,4.03846154 C0.562650577,4.5169775 0,5.43194077 0,6.73076923 L0,30.9615385 C0,33.1911058 1.80889423,35 4.03846154,35 L30.9615385,35 C33.1911058,35 35,33.1911058 35,30.9615385 L35,12.1153846 C35,9.88581731 33.1911058,8.07692308 30.9615385,8.07692308 Z M29.6153846,24.2307692 C28.1272533,24.2307692 26.9230769,23.0265929 26.9230769,21.5384615 C26.9230769,20.0503302 28.1272533,18.8461538 29.6153846,18.8461538 C31.103516,18.8461538 32.3076923,20.0503302 32.3076923,21.5384615 C32.3076923,23.0265929 31.103516,24.2307692 29.6153846,24.2307692 Z" id="Shape"></path>
            </g>
        </g>
    </g>
</svg>