<svg width="51" height="68" viewBox="0 0 51 68" fill="none" xmlns="http://www.w3.org/2000/svg">
<g clip-path="url(#clip0_7_1294)" stroke="#FF8163" stroke-width="5">
  <path d="M0.5 1L9.5 7.5L22.5 20.5L30 30.5L36.5 40L42 50.5L45 58L46 67.5" class="line1"/>
  <path d="M50 49.5L48.5 54.5L46 66L39 56.5L31 46.5" class="line2"/>
</g>
<clipPath id="clip0_7_1294">
  <path d="M43.94 59.3535C40.1221 55.1295 36.5901 51.1775 32.9942 47.2704C32.7082 46.9983 32.1471 47.0134 31.0834 46.7192C32.2494 48.9267 33.0406 50.7352 34.0873 52.3646C36.8915 56.6375 39.779 60.7575 42.711 64.9409C43.0664 65.4479 43.3579 65.9998 43.8411 66.4173C45.3156 67.8414 46.8016 67.6506 47.6492 65.7333C48.041 64.797 48.3246 63.8421 48.4998 62.8686C49.1618 59.191 49.7154 55.4948 50.269 51.7986C50.3858 51.1496 50.1777 50.4448 50.0919 49.3707C46.7445 51.5277 48.1156 55.3873 46.0485 57.8757C45.7765 57.2157 45.485 56.6639 45.3018 56.1306C38.0354 35.703 25.5742 19.0108 9.06826 5.24796C7.37714 3.78666 5.47487 2.56787 3.63649 1.30429C2.69509 0.640808 1.45916 0.372789 0.728371 1.64113C-0.0468449 2.84609 0.575089 3.73347 1.73312 4.43416C14.7965 12.1976 23.8121 23.8376 32.1498 36.1418C36.5283 42.525 40.1791 49.2293 43.0187 56.4075C43.3601 57.3025 43.6376 58.2422 43.94 59.3535Z" fill="#FF8163"/>
</clipPath>
</svg>
