<svg width="64" height="60" viewBox="0 0 64 60" fill="none" xmlns="http://www.w3.org/2000/svg">
<clipPath id="clip0_7_1278">
  <path d="M52.9314 49.8366C30.8181 41.7314 14.8075 27.5323 3.505 7.23823C5.78452 7.09274 6.35675 8.46395 6.90619 9.39007C11.3317 16.2961 17.2003 21.9746 22.9577 27.6574C31.2426 35.861 41.1722 41.3238 52.0355 45.4119C52.4922 45.6169 52.9961 45.6528 54.1208 45.8316C50.8227 41.3342 45.5174 39.0343 43.4854 34.2083C43.7552 34.0304 44.0193 33.7412 44.289 33.5634C47.0807 35.795 49.9309 38.08 52.7754 40.2538C55.6199 42.4275 58.4587 44.49 61.2504 46.7216C63.2871 48.3697 63.2612 50.0432 60.9744 51.1367C58.0367 52.5904 54.9064 53.5499 51.8403 54.6741C51.512 54.7985 51.0724 54.9273 50.7326 54.8292C49.8777 54.4726 49.1812 53.9425 48.3205 53.4746C48.7317 52.7895 49.0201 51.8861 49.554 51.4191C50.3049 50.832 51.2427 50.6278 52.9314 49.8366Z" fill="#FF8163"/>
</clipPath>
<g clip-path="url(#clip0_7_1278)" stroke="#FF8163" stroke-width="5">
  <path d="M3.5 7L5.5 9L9.5 15L14.5 21L22 29L30.5 36L38 41L47 45.5L55 48L62.5 49" class="line1"/>
  <path d="M48 53.5L54 52L62 49L55.5 44L43.5 34" class="line2"/>
</g>
</svg>
