<svg width="57" height="69" viewBox="0 0 57 69" fill="none" xmlns="http://www.w3.org/2000/svg">
<clipPath id="clip0_7_1234">
<path d="M12.4418 59.9108C16.1389 56.0934 19.5605 52.5207 23.0403 48.9918C23.3158 48.7472 23.8385 48.7793 24.8403 48.5391C23.6817 50.5607 22.8855 52.2222 21.8568 53.7084C19.1037 57.6039 16.278 61.3542 13.4086 65.1621C13.0608 65.6236 12.7711 66.129 12.307 66.5029C10.8859 67.7839 9.50582 67.5582 8.77683 65.7425C8.44141 64.8565 8.20762 63.9567 8.07547 63.043C7.57624 59.5914 7.17864 56.1258 6.78104 52.6603C6.69294 52.0511 6.90974 51.4004 7.02433 50.4013C10.0774 52.5209 8.67436 56.0769 10.5225 58.4646C10.7975 57.8577 11.0871 57.3523 11.2751 56.8608C18.7098 38.0399 30.8699 22.8704 46.7088 10.5633C48.3332 9.25455 50.1467 8.17884 51.9021 7.0593C52.8015 6.47068 53.9631 6.26041 54.604 7.46698C55.2884 8.61587 54.6797 9.42361 53.577 10.04C41.1421 16.8616 32.3584 27.4293 24.1856 38.6384C19.8962 44.4518 16.2754 50.588 13.3959 57.1925C13.0487 58.0163 12.7596 58.8839 12.4418 59.9108Z" fill="#FF8163"/>
</clipPath>
<g clip-path="url(#clip0_7_1234)" stroke="#FF8163" stroke-width="5">
<!-- <path d="M45.0031 7.32531e-05L0 59.7231L11.181 68.1484L56.1841 8.42531L45.0031 7.32531e-05Z" class="line1" /> -->
<path d="M54.5 7L45.5 13.5L36.5 21.5L27 32.5L20 42L14.5 51.5L11.5 59L10.5 67" class="line1" />
<path d="M7 50.5L8 54.5L9 60L10 66.5L15.5 59.5L24.5 48.5" class="line2" />
</g>
</svg>
