<svg width="74" height="47" viewBox="0 0 74 47" fill="none" xmlns="http://www.w3.org/2000/svg">
  <g clip-path="url(#clip0_7_1227)" stroke="#FF8163" stroke-width="5">
    <path d="M72.0001 11L65.5001 11.5L56.5 13.5L49 15.5L41 19L30.5 24L22.5 29L15.5 34L11 38L8.5 41L6 45" class="line1" />
    <path d="M10.5001 29L9.50012 33L7.5 40.5L6 44.5L18 38.5L26.5 34.5" class="line2" />
  </g>

  <clipPath id="clip0_7_1227">
    <path d="M11.0909 39.4799C16.0903 37.678 20.7347 35.9746 25.412 34.3361C25.7671 34.2376 26.2225 34.4965 27.2277 34.7214C25.298 36.0272 23.8521 37.1692 22.2745 38.0513C18.0885 40.3387 13.9011 42.4636 9.64921 44.6211C9.13383 44.8826 8.6514 45.209 8.07012 45.3407C6.23037 45.8659 5.09037 45.0562 5.23439 43.1049C5.32288 42.1617 5.50874 41.2508 5.79198 40.3721C6.86198 37.0527 8.02936 33.7656 9.19674 30.4784C9.38557 29.8927 9.86651 29.4036 10.4089 28.5568C12.2183 31.8033 9.39409 34.3796 10.0035 37.3368C10.5174 36.9127 10.9998 36.5863 11.3849 36.2276C26.3405 22.5958 43.934 14.3218 63.5718 10.2367C65.6063 9.77596 67.7081 9.60767 69.777 9.37445C70.8437 9.24149 71.9793 9.56356 72.0241 10.929C72.1333 12.2619 71.2314 12.7195 69.9699 12.788C55.8021 13.4442 43.2652 19.0708 30.9949 25.542C24.5856 28.8759 18.6346 32.7939 13.1435 37.4584C12.4693 38.0455 11.828 38.6975 11.0909 39.4799Z" fill="#FF8163" />
  </clipPath>
</svg>
