<svg width="60" height="56" viewBox="0 0 60 56" fill="none" xmlns="http://www.w3.org/2000/svg">
<clipPath id="clip0_7_1272">
  <path d="M9.91619 46.5144C30.5552 38.9495 45.4985 25.697 56.0474 6.75583C53.9199 6.62004 53.3858 7.89984 52.873 8.76422C48.7425 15.2099 43.2651 20.5098 37.8916 25.8138C30.1589 33.4705 20.8913 38.569 10.7523 42.3845C10.326 42.5759 9.8558 42.6094 8.80604 42.7762C11.8843 38.5786 16.8359 36.4322 18.7324 31.9279C18.4806 31.7619 18.2341 31.492 17.9823 31.326C15.3767 33.4088 12.7166 35.5415 10.0617 37.5704C7.40686 39.5992 4.75733 41.5241 2.15176 43.607C0.250871 45.1452 0.275024 46.7071 2.40934 47.7277C5.15117 49.0845 8.0728 49.9801 10.9345 51.0293C11.2409 51.1455 11.6512 51.2656 11.9683 51.174C12.7662 50.8412 13.4163 50.3465 14.2196 49.9099C13.8358 49.2704 13.5666 48.4271 13.0683 47.9913C12.3675 47.4433 11.4922 47.2529 9.91619 46.5144Z" fill="#FF8163"/>
</clipPath>
<g clip-path="url(#clip0_7_1272)" stroke="#FF8163" stroke-width="5">
  <path d="M56 6.5L54 8.5L51 13L47 18.5L42 24L36 29.5L29 35L22 39L14.5 43L9 45L1 46" class="line1" />
  <path d="M14 50.5L3 45.5L12 37.5L18.5 31.5" class="line2" />
</g>
</svg>
