<svg width="82" height="40" viewBox="0 0 82 40" fill="none" xmlns="http://www.w3.org/2000/svg">
<clipPath id="clip0_7_1252">
  <path d="M5.02881 0.000244141C6.50512 7.76649 21.95 21.8212 34.3067 26.9695C47.6496 32.5638 56.0401 33.2568 74.4096 30.156C73.8954 31.173 73.3864 31.9597 73.055 32.7374C72.6397 33.6078 72.2095 34.5321 72.0111 35.4624C71.9369 35.7316 72.2914 36.3509 72.602 36.4946C72.9126 36.6382 73.5591 36.411 73.7419 36.1718C75.4316 33.8567 77.0128 31.5118 78.663 29.128C79.172 28.3414 79.0248 27.6054 78.1769 27.0817C74.8885 25.2471 71.615 23.3587 68.2576 21.563C67.4884 21.1769 66.4525 21.1228 65.3676 20.8234C65.5966 23.3782 67.6238 23.6479 68.8708 24.6294C70.1572 25.6798 71.6264 26.4908 73.3467 27.6609C68.0121 29.4336 62.9352 30.0606 57.7803 29.9127C38.8771 29.4475 23.613 21.2951 11.2907 7.34883C9.6944 5.51766 8.32027 3.51603 6.79307 1.64599C6.27063 1.2121 5.80243 0.793173 5.02881 0.000244141Z" fill="#FF8163"/>
</clipPath>
<g clip-path="url(#clip0_7_1252)" stroke="#FF8163" stroke-width="5">
  <path d="M5 0L8 4.5L13.5 11L22.5 19.5L33 25.5L46 29.5L58 31L66 30.5L79 28" class="line1"/>
  <path d="M72.5 36.5L77.5 28L65.5 21" class="line2"/>
</g>
</svg>
