<svg width="72" height="53" viewBox="0 0 72 53" fill="none" xmlns="http://www.w3.org/2000/svg">
  <clipPath id="clip0_7_1240">
    <path d="M69.5449 48.2792C67.613 48.5565 65.6812 48.8339 63.3875 49.1558C63.7208 48.3874 63.924 47.8543 64.2469 47.3264C70.6138 36.1017 69.2902 23.76 60.713 14.0538C55.1631 7.8513 48.1107 4.47387 40.1599 2.44239C31.2588 0.188974 22.628 1.37964 14.2079 4.62681C9.87548 6.3053 6.44892 9.22747 3.47788 12.7114C2.71754 13.6418 2.01708 14.5748 1.48059 15.8763C2.09506 15.5417 2.82668 15.2724 3.20946 14.7471C13.0523 2.22816 35.1614 0.117658 50.6615 9.28157C56.7454 12.8578 61.2045 17.929 63.7369 24.5424C66.6987 32.3186 64.8854 42.296 59.3444 48.3177C58.384 45.5663 59.4935 42.1219 56.5337 39.8255C56.4863 43.6773 56.3947 47.1659 56.3657 50.597C56.3759 51.7415 56.9356 52.6691 58.0265 52.4154C61.7808 51.6151 65.4805 50.6919 69.1229 49.706C69.365 49.6563 69.5083 49.1206 69.701 48.8279C69.7661 48.7103 69.6568 48.4647 69.5449 48.2792Z" fill="#FF8163"/>
  </clipPath>
  <g clip-path="url(#clip0_7_1240)" stroke="#FF8163" stroke-width="5">
    <path d="M1.5 16L4 13L7 10L10.5 7.5L13.5 6L17.5 4.5L21 3.5L27 2.5H33L39.5 3.5L46 5.5L53 9L58.5 13.5L62 18L65 23L66.5 30V36L65.5 40.5L64 44.5L62.5 47.5L57 52.5" class="line1" />
    <path d="M56.5 40L57.5 45V51.5L64.5 50L69.5 48.5" class="line2" />
  </g>
</svg>
