<svg width="62" height="64" viewBox="0 0 62 64" fill="none" xmlns="http://www.w3.org/2000/svg">
<g clip-path="url(#clip0_7_1284)" stroke="#FF8163" stroke-width="5">
  <path d="M0 0L3 11L6 18.5L11.5 28.5L19.5 38.5L30 47L42.5 53L53.5 56L61.5 57" class="line1"/>
  <path d="M51.5 63L55 60L59.5 57L50.5 44.5" class="line2"/>
</g>
<clipPath id="clip0_7_1284">
  <path d="M0.294623 0C-1.40676 8.18719 7.99678 28.1748 17.9881 38.2085C28.7625 49.0772 36.6815 53.1513 55.8883 57.5578C54.9741 58.3435 54.1582 58.9062 53.5195 59.532C52.7613 60.2145 51.9667 60.9436 51.3962 61.7724C51.2146 62.0054 51.3103 62.7542 51.5557 63.0203C51.8011 63.2865 52.5249 63.3262 52.8004 63.1663C55.3888 61.5881 57.8834 59.9366 60.4612 58.2752C61.277 57.7125 61.4311 56.9337 60.8145 56.0786C58.3437 52.9545 55.9092 49.7839 53.3551 46.6698C52.7597 45.9811 51.7693 45.5089 50.8303 44.777C50.0198 47.3664 51.8917 48.4507 52.713 49.9147C53.5449 51.4619 54.6523 52.8493 55.8598 54.6892C49.9289 54.2618 44.7137 52.8192 39.7359 50.5878C21.4512 42.4804 9.83497 28.3339 3.43902 9.71644C2.62037 7.28069 2.08785 4.7683 1.35246 2.32253C1.01758 1.68701 0.729634 1.08808 0.294623 0Z" fill="#FF8163"/>
</clipPath>
</svg>
