<svg width="77" height="45" viewBox="0 0 77 45" fill="none" xmlns="http://www.w3.org/2000/svg">
<g clip-path="url(#clip0_7_1286)" stroke="#FF8163" stroke-width="5">
  <path d="M1 45L5 37L11 29.5L19 22L28.5 15L42.5 9L54.5 7H64L76.5 8.5" class="line1"/>
  <path d="M68.5 0L72 5L75 8L62.5 17" class="line2"/>
</g>
<clipPath id="clip0_7_1286">
  <path d="M0.949951 44.7286C1.8031 36.4101 16.8088 20.2003 29.3658 13.6563C42.9217 6.55313 51.7017 5.0635 71.3419 6.6692C70.708 5.64392 70.1005 4.86094 69.6808 4.0713C69.1643 3.19154 68.6273 2.25638 68.3341 1.29387C68.2314 1.01687 68.549 0.332085 68.8634 0.152568C69.1778 -0.0269502 69.8797 0.153995 70.094 0.389628C72.0842 2.67653 73.9628 5.0048 75.9177 7.36778C76.5253 8.15077 76.4368 8.9397 75.5906 9.56836C72.2909 11.7994 69.0119 14.0858 65.6359 16.2821C64.8602 16.7586 63.7734 16.9093 62.657 17.323C62.6672 14.6098 64.7793 14.1421 66.0047 12.9949C67.2654 11.7715 68.7404 10.7838 70.4476 9.39502C64.665 8.00951 59.2577 7.80811 53.8383 8.43036C33.9582 10.6311 18.6091 20.6042 6.88446 36.4173C5.36779 38.4916 4.10071 40.7255 2.66039 42.8345C2.14906 43.3391 1.69353 43.8229 0.949951 44.7286Z" fill="#FF8163"/>
</clipPath>
</svg>
