<svg width="59" height="53" viewBox="0 0 59 53" fill="none" xmlns="http://www.w3.org/2000/svg">
<clipPath id="clip0_7_1258">
  <path d="M47.643 51.8818C49.4652 50.1954 49.5518 48.0758 49.3781 46.1127C49.1001 43.3852 48.5271 40.6579 47.6938 38.0872C43.5447 26.3453 35.5428 17.9241 24.4345 12.4932C21.6054 11.1225 18.5333 10.1341 15.2355 8.86786C17.5263 6.48625 21.0148 5.80649 23.5139 3.47687C22.2121 2.78275 21.1361 3.25252 20.2336 3.61793C16.5369 5.13175 12.8229 6.71506 9.16093 8.38521C7.40805 9.20287 7.04365 10.0718 7.98101 11.6348C9.89046 14.9172 12.6155 17.2957 16.1042 18.6834C16.2431 18.718 16.5034 18.5615 16.9199 18.3702C16.9023 15.1908 12.9104 14.9327 12.1638 12.0144C17.2318 12.0981 21.6056 14.076 25.7366 16.4362C30.0584 18.9179 34.0679 21.7646 37.3312 25.5326C40.5424 29.2138 42.8164 33.3994 44.7954 37.8805C46.8611 42.3095 47.6946 46.9477 47.643 51.8818Z" fill="#FF8163"/>
</clipPath>
<g clip-path="url(#clip0_7_1258)" stroke="#FF8163" stroke-width="5">
  <path d="M47.5 52L48.5 49L48 43.5L46 37.5L43.5 31.5L37 23L30.5 17.5L22 13L15.5 10.5L7.5 10" class="line1"/>
  <path d="M16.5 18.5L12.5 15L8.5 10L14 7.5L23 3" class="line2"/>
</g>
</svg>
