<svg width="45" height="37" viewBox="0 0 45 37" fill="none" xmlns="http://www.w3.org/2000/svg">
<clipPath id="clip0_7_1246">
  <path d="M24.5616 9.61902C25.0668 10.3928 25.7864 11.25 26.2159 12.193C27.1038 14.1754 27.895 16.1864 28.6863 18.1973C30.1666 22.0187 31.6391 25.8844 33.2426 30.0471C30.4809 28.5561 28.7401 25.6931 25.172 25.6577C25.3894 26.2438 25.4003 26.7022 25.6069 26.8299C28.8239 28.8575 31.4716 31.5152 33.9026 34.3629C35.9226 36.6818 37.2163 36.362 38.0345 33.5391C38.8762 30.5834 40.0289 27.6825 41.0039 24.7503C41.1786 24.2789 41.0945 23.7163 41.1593 23.0887C39.0921 23.6373 39.0921 23.6373 36.3296 29.952C36.0755 29.3138 35.8424 28.8162 35.6537 28.3265C33.8351 23.3043 32.061 18.2899 30.1457 13.2963C29.5143 11.6787 28.6895 10.1183 27.7001 8.7114C25.9413 6.21035 23.5701 5.88378 21.1722 7.78923C19.9472 8.76018 18.9419 10.0438 18.0256 11.343C16.9892 12.8037 16.196 14.4442 15.2406 15.9648C14.5489 17.0297 13.7316 18.0269 12.9432 19.1204C11.659 18.3463 11.3052 17.2341 10.8468 16.1947C8.91895 11.7923 7.7046 7.24175 7.03376 2.46746C6.9496 1.90486 6.96214 1.31364 6.73686 0.771813C6.60589 0.474847 6.15601 0.167328 5.80046 0.104669C5.62268 0.0733392 5.1813 0.497682 5.09004 0.755486C4.91296 1.50029 4.80917 2.34931 4.86211 3.089C5.20931 8.39967 6.46336 13.505 8.68433 18.3242C9.10606 19.3115 9.72118 20.2416 10.4041 21.0466C11.6602 22.5005 13.1346 22.7147 14.5921 21.4652C15.7805 20.4421 16.7413 19.1507 17.6132 17.8436C18.9132 15.9273 19.9622 13.8754 21.2622 11.9591C21.9906 10.9462 22.8157 9.90477 24.5616 9.61902Z" fill="#FF8163"/>
</clipPath>
<g clip-path="url(#clip0_7_1246)" stroke="#FF8163" stroke-width="5">
  <path d="M5.5 0L6.5 6.5L8.5 13.5L10.5 18.5L12.5 20.5L15 19L20.5 10.5L23.5 8L26 9L28 12L34.5 29.5L36.5 36" class="line1" />
  <path d="M25 25.5L29.5 28.5L33 31.5L36.5 35.5L37.5 30.5L39.5 26L41 23" class="line2" />
</g>
</svg>
