<svg width="84" height="20" viewBox="0 0 84 20" fill="none" xmlns="http://www.w3.org/2000/svg">
<g clip-path="url(#clip0_7_1266)" stroke="#FF8163" stroke-width="5">
  <path d="M0 0L5 4.5L12 9L22 14L31.5 17L39.5 18.5L49 19L57 18L65 16L73 13L79 10L83.5 8" class="line1"/>
  <path d="M79 18L80.5 12.5L82 8L67.5 4.5" class="line2"/>
</g>
<clipPath id="clip0_7_1266">
  <path d="M-0.000366211 0C3.69033 7.50356 23.3939 17.4886 37.4424 19.2611C52.6218 21.2109 61.3723 19.5565 79.2306 11.2258C78.9924 12.4075 78.6948 13.3528 78.5758 14.2391C78.3972 15.2435 78.2186 16.307 78.2781 17.3114C78.2781 17.6068 78.8139 18.1385 79.171 18.1976C79.5282 18.2567 80.1235 17.8431 80.2425 17.5477C81.314 14.7117 82.2665 11.8757 83.2784 8.98064C83.5761 8.03531 83.2189 7.32631 82.2069 7.03089C78.3376 6.08556 74.4684 5.08115 70.5396 4.1949C69.6467 4.01765 68.5752 4.25398 67.3846 4.25398C68.3371 6.79456 70.48 6.49915 72.0277 7.14906C73.635 7.85806 75.3613 8.27164 77.4447 8.98064C72.504 12.2893 67.5037 14.3572 62.2057 15.657C42.7998 20.5019 24.9416 16.4842 8.45253 5.73107C6.30955 4.31307 4.34515 2.65874 2.26169 1.18166C1.60689 0.886247 1.0116 0.590832 -0.000366211 0Z" fill="#FF8163"/>
</clipPath>
</svg>
