<svg width="71" height="50" viewBox="0 0 71 50" fill="none" xmlns="http://www.w3.org/2000/svg">
<clipPath id="clip0_7_1288">
  <path d="M60.2928 39.0535C45.9938 20.3391 27.6849 9.26011 4.9519 4.48511C5.48904 6.70521 6.96826 6.84502 8.01567 7.09506C15.9235 9.2732 23.087 13.1937 30.2217 17.0065C40.5134 22.4856 48.6754 30.3483 55.8014 39.5102C56.1327 39.8856 56.3164 40.3561 56.8207 41.3773C51.5474 39.5614 47.7776 35.1769 42.566 34.6677C42.4762 34.9781 42.2784 35.3161 42.1885 35.6265C45.1477 37.6307 48.1752 39.6749 51.0948 41.7467C54.0144 43.8185 56.8261 45.9179 59.7852 47.9221C61.9632 49.3783 63.5537 48.8573 63.9198 46.3491C64.4368 43.1124 64.4247 39.8384 64.589 36.5768C64.6104 36.2264 64.603 35.7683 64.4086 35.473C63.8145 34.7623 63.1017 34.2543 62.3996 33.5712C61.8672 34.167 61.09 34.7104 60.8024 35.3588C60.4644 36.25 60.5475 37.2062 60.2928 39.0535Z" fill="#FF8163"/>
</clipPath>
<g clip-path="url(#clip0_7_1288)" stroke="#FF8163" stroke-width="5">
  <path d="M5 4.5L7.5 6L13 7.5L21 10.5L33.5 16.5L41 22L49 29L55 35.5L59.5 41.5L63 49" class="line1"/>
  <path d="M62.5 33.5L62 47L42.5 34.5" class="line2"/>
</g>
</svg>
