<svg width="70" height="55" viewBox="0 0 70 55" fill="none" xmlns="http://www.w3.org/2000/svg">
<g clip-path="url(#clip0_7_1264)" stroke="#FF8163" stroke-width="5">
  <path d="M0.5 0L3 6.5L6.5 13.5L13 23L18 28.5L25.5 35L36 41.5L45.5 44.5L52 46L60.5 47H69.5" class="line1"/>
  <path d="M61 54.5L64.5 50.5L68 47L57 36.5" class="line2"/>
</g>
<clipPath id="clip0_7_1264">
  <path d="M0.765006 0C0.322321 8.35038 12.6426 26.6846 24.0374 35.0906C36.3326 44.2034 44.777 47.0321 64.4294 48.481C63.6447 49.396 62.9234 50.0756 62.3868 50.791C61.7405 51.5803 61.0654 52.4213 60.627 53.3269C60.4827 53.5847 60.6907 54.3103 60.9735 54.5363C61.2564 54.7622 61.9778 54.6919 62.2259 54.4922C64.5457 52.5404 66.7615 50.5304 69.0582 48.498C69.7795 47.8183 69.814 47.0252 69.0751 46.2733C66.1599 43.5591 63.2735 40.7934 60.2775 38.1017C59.5848 37.5111 58.5343 37.1942 57.4953 36.6129C57.0861 39.2951 59.1005 40.0836 60.1339 41.4064C61.1904 42.8099 62.495 44.0137 63.9671 45.6497C58.0398 46.1249 52.6664 45.4882 47.4082 44.0359C28.1071 38.7891 14.4837 26.5637 5.34373 9.12863C4.16587 6.84483 3.25924 4.44198 2.16217 2.13568C1.73496 1.55817 1.35968 1.00971 0.765006 0Z" fill="#FF8163"/>
</clipPath>
</svg>
