<svg width="60" height="60" viewBox="0 0 60 60" fill="none" xmlns="http://www.w3.org/2000/svg">
<g clip-path="url(#clip0_566_29407)">
<path d="M37.0702 19.3925L22.9302 33.535C22.6915 33.7656 22.501 34.0414 22.37 34.3465C22.239 34.6515 22.17 34.9795 22.1671 35.3115C22.1642 35.6434 22.2275 35.9726 22.3532 36.2798C22.4789 36.5871 22.6645 36.8662 22.8992 37.1009C23.134 37.3357 23.4131 37.5213 23.7203 37.647C24.0276 37.7727 24.3568 37.836 24.6887 37.8331C25.0207 37.8302 25.3487 37.7612 25.6537 37.6302C25.9587 37.4992 26.2346 37.3087 26.4652 37.07L40.6077 22.93C42.0144 21.5233 42.8046 19.6155 42.8046 17.6262C42.8046 15.6369 42.0144 13.7291 40.6077 12.3225C39.2011 10.9158 37.2933 10.1256 35.304 10.1256C33.3147 10.1256 31.4069 10.9158 30.0002 12.3225L15.8577 26.465C14.6729 27.6203 13.7293 28.9994 13.0816 30.5222C12.4339 32.045 12.0951 33.6813 12.0847 35.3362C12.0744 36.991 12.3927 38.6314 13.0212 40.1622C13.6498 41.6931 14.576 43.0839 15.7463 44.2539C16.9165 45.424 18.3074 46.3501 19.8384 46.9784C21.3693 47.6067 23.0097 47.9248 24.6646 47.9142C26.3194 47.9036 27.9556 47.5645 29.4784 46.9166C31.0011 46.2687 32.3801 45.3249 33.5352 44.14L47.6777 30L51.2127 33.535L37.0702 47.6775C35.4451 49.3026 33.5158 50.5917 31.3925 51.4712C29.2692 52.3507 26.9935 52.8034 24.6952 52.8034C22.397 52.8034 20.1212 52.3507 17.9979 51.4712C15.8746 50.5917 13.9453 49.3026 12.3202 47.6775C10.6951 46.0523 9.40601 44.1231 8.52651 41.9998C7.64701 39.8765 7.19434 37.6007 7.19434 35.3025C7.19434 33.0042 7.64701 30.7285 8.52651 28.6052C9.40601 26.4819 10.6951 24.5526 12.3202 22.9275L26.4652 8.78746C28.8228 6.51049 31.9803 5.25056 35.2577 5.27904C38.5352 5.30752 41.6704 6.62213 43.988 8.93973C46.3056 11.2573 47.6202 14.3925 47.6487 17.6699C47.6771 20.9474 46.4172 24.1049 44.1402 26.4625L30.0002 40.61C29.3036 41.3065 28.4765 41.8589 27.5664 42.2358C26.6562 42.6127 25.6807 42.8066 24.6956 42.8065C23.7105 42.8064 22.735 42.6122 21.825 42.2351C20.9149 41.858 20.088 41.3054 19.3915 40.6087C18.695 39.912 18.1425 39.085 17.7656 38.1749C17.3888 37.2647 17.1948 36.2892 17.195 35.3041C17.1951 34.319 17.3892 33.3435 17.7663 32.4334C18.1434 31.5234 18.6961 30.6965 19.3927 30L33.5352 15.8575L37.0702 19.3925Z" fill="currentColor"/>
</g>
<defs>
<clipPath id="clip0_566_29407">
<rect width="60" height="60" fill="white"/>
</clipPath>
</defs>
</svg>
