<svg width="50" height="50" viewBox="0 0 50 50" fill="none" xmlns="http://www.w3.org/2000/svg">
<g clip-path="url(#clip0_571_29583)">
<path d="M6.24935 6.25H43.7493C44.3019 6.25 44.8318 6.46949 45.2225 6.86019C45.6132 7.25089 45.8327 7.7808 45.8327 8.33333V41.6667C45.8327 42.2192 45.6132 42.7491 45.2225 43.1398C44.8318 43.5305 44.3019 43.75 43.7493 43.75H6.24935C5.69681 43.75 5.16691 43.5305 4.77621 43.1398C4.38551 42.7491 4.16602 42.2192 4.16602 41.6667V8.33333C4.16602 7.7808 4.38551 7.25089 4.77621 6.86019C5.16691 6.46949 5.69681 6.25 6.24935 6.25ZM41.666 22.9167H8.33268V39.5833H41.666V22.9167ZM41.666 18.75V10.4167H8.33268V18.75H41.666ZM29.166 31.25H37.4993V35.4167H29.166V31.25Z" fill="currentColor"/>
</g>
<defs>
<clipPath id="clip0_571_29583">
<rect width="50" height="50" fill="white"/>
</clipPath>
</defs>
</svg>
