<svg width="60" height="60" viewBox="0 0 60 60" fill="none" xmlns="http://www.w3.org/2000/svg">
<g clip-path="url(#clip0_566_29475)">
<path d="M18.2275 52.06L5.00003 55L7.94003 41.7725C6.00386 38.151 4.99385 34.1066 5.00003 30C5.00003 16.1925 16.1925 5 30 5C43.8075 5 55 16.1925 55 30C55 43.8075 43.8075 55 30 55C25.8934 55.0062 21.8491 53.9962 18.2275 52.06ZM18.9525 46.7775L20.585 47.6525C23.4814 49.2004 26.716 50.0069 30 50C33.9557 50 37.8224 48.827 41.1114 46.6294C44.4004 44.4318 46.9639 41.3082 48.4776 37.6537C49.9914 33.9991 50.3874 29.9778 49.6157 26.0982C48.844 22.2186 46.9392 18.6549 44.1422 15.8579C41.3451 13.0608 37.7815 11.156 33.9018 10.3843C30.0222 9.61259 26.0009 10.0087 22.3464 11.5224C18.6918 13.0362 15.5683 15.5996 13.3706 18.8886C11.173 22.1776 10 26.0444 10 30C10 33.335 10.8125 36.545 12.35 39.415L13.2225 41.0475L11.585 48.415L18.9525 46.7775Z" fill="currentColor"/>
</g>
<defs>
<clipPath id="clip0_566_29475">
<rect width="60" height="60" fill="white"/>
</clipPath>
</defs>
</svg>
