<svg width="60" height="60" viewBox="0 0 60 60" fill="none" xmlns="http://www.w3.org/2000/svg">
<g clip-path="url(#clip0_566_29471)">
<path d="M29.9996 7.5C43.4796 7.5 54.6946 17.2 57.0471 30C54.6972 42.8 43.4796 52.5 29.9996 52.5C16.5196 52.5 5.30465 42.8 2.95215 30C5.30215 17.2 16.5196 7.5 29.9996 7.5ZM29.9996 47.5C35.0983 47.4989 40.0456 45.7671 44.0318 42.5879C48.018 39.4088 50.8069 34.9707 51.9422 30C50.8027 25.0333 48.012 20.6 44.0262 17.4251C40.0404 14.2501 35.0954 12.5213 29.9996 12.5213C24.9039 12.5213 19.9589 14.2501 15.9731 17.4251C11.9873 20.6 9.19657 25.0333 8.05715 30C9.19239 34.9707 11.9813 39.4088 15.9675 42.5879C19.9537 45.7671 24.901 47.4989 29.9996 47.5ZM29.9996 41.25C27.016 41.25 24.1545 40.0647 22.0447 37.955C19.9349 35.8452 18.7496 32.9837 18.7496 30C18.7496 27.0163 19.9349 24.1548 22.0447 22.045C24.1545 19.9353 27.016 18.75 29.9996 18.75C32.9833 18.75 35.8448 19.9353 37.9546 22.045C40.0644 24.1548 41.2496 27.0163 41.2496 30C41.2496 32.9837 40.0644 35.8452 37.9546 37.955C35.8448 40.0647 32.9833 41.25 29.9996 41.25ZM29.9996 36.25C31.6573 36.25 33.247 35.5915 34.4191 34.4194C35.5912 33.2473 36.2496 31.6576 36.2496 30C36.2496 28.3424 35.5912 26.7527 34.4191 25.5806C33.247 24.4085 31.6573 23.75 29.9996 23.75C28.342 23.75 26.7523 24.4085 25.5802 25.5806C24.4081 26.7527 23.7496 28.3424 23.7496 30C23.7496 31.6576 24.4081 33.2473 25.5802 34.4194C26.7523 35.5915 28.342 36.25 29.9996 36.25Z" fill="currentColor"/>
</g>
<defs>
<clipPath id="clip0_566_29471">
<rect width="60" height="60" fill="white"/>
</clipPath>
</defs>
</svg>
