<svg width="50" height="50" viewBox="0 0 50 50" fill="none" xmlns="http://www.w3.org/2000/svg">
<g clip-path="url(#clip0_571_29591)">
<path d="M35.4174 27.0834V29.1668C35.4174 34.9376 34.0341 40.5105 31.4279 45.5126L30.955 46.3876L27.3154 44.3584C29.732 40.0251 31.0862 35.1709 31.2362 30.1168L31.2508 29.1668V27.0834H35.4174ZM22.9174 20.8334H27.0841V29.1668L27.0737 29.9564C26.9162 35.6599 24.9533 41.1664 21.4674 45.6834L20.9862 46.2876L17.757 43.6543C20.937 39.7707 22.7465 34.9462 22.905 29.9293L22.9174 29.1668V20.8334ZM25.0008 12.5001C27.7635 12.5001 30.413 13.5976 32.3665 15.5511C34.32 17.5046 35.4174 20.1541 35.4174 22.9168H31.2508C31.2508 21.2592 30.5923 19.6695 29.4202 18.4974C28.2481 17.3252 26.6584 16.6668 25.0008 16.6668C23.3432 16.6668 21.7535 17.3252 20.5814 18.4974C19.4093 19.6695 18.7508 21.2592 18.7508 22.9168V29.1668C18.7508 33.823 17.0424 38.2168 14.0195 41.6189L13.5779 42.098L10.5612 39.223C12.9986 36.6729 14.4242 33.3226 14.5716 29.798L14.5841 29.1668V22.9168C14.5841 20.1541 15.6816 17.5046 17.6351 15.5511C19.5886 13.5976 22.2381 12.5001 25.0008 12.5001ZM25.0008 4.16677C29.9736 4.16677 34.7427 6.14221 38.259 9.65852C41.7753 13.1748 43.7508 17.944 43.7508 22.9168V29.1668C43.7508 32.7043 43.33 36.1876 42.507 39.5626L42.2175 40.6855L38.1966 39.5897C39.0133 36.5959 39.4737 33.5022 39.5675 30.3501L39.5841 29.1668V22.9168C39.5841 20.2102 38.8309 17.5571 37.4088 15.2543C35.9868 12.9515 33.9519 11.0898 31.532 9.87768C29.112 8.66556 26.4025 8.15077 23.7067 8.39095C21.0108 8.63112 18.435 9.61678 16.2674 11.2376L13.2987 8.26677C16.6184 5.60694 20.7469 4.16046 25.0008 4.16677ZM10.3508 11.2147L13.3216 14.1834C11.5348 16.5652 10.5238 19.4388 10.4258 22.4147L10.4174 22.9168L10.4258 27.0834C10.4258 29.4168 9.87578 31.673 8.83828 33.7022L8.51328 34.3064L4.89453 32.2397C5.6862 30.8543 6.1487 29.3084 6.24036 27.6918L6.25911 27.0834V22.9168C6.24676 18.6633 7.69067 14.5337 10.3508 11.2147Z" fill="currentColor"/>
</g>
<defs>
<clipPath id="clip0_571_29591">
<rect width="50" height="50" fill="white"/>
</clipPath>
</defs>
</svg>
