<svg width="50" height="50" viewBox="0 0 50 50" fill="none" xmlns="http://www.w3.org/2000/svg">
<g clip-path="url(#clip0_571_29587)">
<path d="M24.9993 45.8334C13.4931 45.8334 4.16602 36.5063 4.16602 25.0001C4.16602 13.4938 13.4931 4.16675 24.9993 4.16675C36.5056 4.16675 45.8327 13.4938 45.8327 25.0001C45.8327 36.5063 36.5056 45.8334 24.9993 45.8334ZM20.2285 40.973C18.1731 36.6132 16.9824 31.8964 16.7223 27.0834H8.46185C8.86724 30.2895 10.195 33.3088 12.2839 35.7745C14.3727 38.2402 17.1327 40.0462 20.2285 40.973ZM20.8952 27.0834C21.2098 32.1647 22.6618 36.9376 24.9993 41.1501C27.4 36.8262 28.8024 32.0198 29.1035 27.0834H20.8952ZM41.5368 27.0834H33.2764C33.0163 31.8964 31.8256 36.6132 29.7702 40.973C32.866 40.0462 35.626 38.2402 37.7148 35.7745C39.8037 33.3088 41.1315 30.2895 41.5368 27.0834ZM8.46185 22.9167H16.7223C16.9824 18.1038 18.1731 13.3869 20.2285 9.02716C17.1327 9.954 14.3727 11.76 12.2839 14.2257C10.195 16.6914 8.86724 19.7107 8.46185 22.9167ZM20.8973 22.9167H29.1014C28.8009 17.9805 27.3993 13.1741 24.9993 8.85008C22.5987 13.1739 21.1963 17.9803 20.8952 22.9167H20.8973ZM29.7702 9.02716C31.8256 13.3869 33.0163 18.1038 33.2764 22.9167H41.5368C41.1315 19.7107 39.8037 16.6914 37.7148 14.2257C35.626 11.76 32.866 9.954 29.7702 9.02716Z" fill="currentColor"/>
</g>
<defs>
<clipPath id="clip0_571_29587">
<rect width="50" height="50" fill="white"/>
</clipPath>
</defs>
</svg>
