<svg width="60" height="60" viewBox="0 0 60 60" fill="none" xmlns="http://www.w3.org/2000/svg">
<g clip-path="url(#clip0_566_29411)">
<path d="M12.5 27.75L17.5 22.75L31.25 36.5L40 27.75L47.5 35.25V12.5H12.5V27.75ZM12.5 34.8225V47.5H20.25L27.715 40.0375L17.5 29.8225L12.5 34.8225ZM27.3225 47.5H47.5V42.3225L40 34.8225L27.3225 47.5ZM10 7.5H50C50.663 7.5 51.2989 7.76339 51.7678 8.23223C52.2366 8.70107 52.5 9.33696 52.5 10V50C52.5 50.663 52.2366 51.2989 51.7678 51.7678C51.2989 52.2366 50.663 52.5 50 52.5H10C9.33696 52.5 8.70107 52.2366 8.23223 51.7678C7.76339 51.2989 7.5 50.663 7.5 50V10C7.5 9.33696 7.76339 8.70107 8.23223 8.23223C8.70107 7.76339 9.33696 7.5 10 7.5ZM38.75 25C37.7554 25 36.8016 24.6049 36.0983 23.9017C35.3951 23.1984 35 22.2446 35 21.25C35 20.2554 35.3951 19.3016 36.0983 18.5983C36.8016 17.8951 37.7554 17.5 38.75 17.5C39.7446 17.5 40.6984 17.8951 41.4016 18.5983C42.1049 19.3016 42.5 20.2554 42.5 21.25C42.5 22.2446 42.1049 23.1984 41.4016 23.9017C40.6984 24.6049 39.7446 25 38.75 25Z" fill="currentColor"/>
</g>
<defs>
<clipPath id="clip0_566_29411">
<rect width="60" height="60" fill="white"/>
</clipPath>
</defs>
</svg>
