<svg width="60" height="60" viewBox="0 0 60 60" fill="none" xmlns="http://www.w3.org/2000/svg">
<g clip-path="url(#clip0_566_29615)">
<path d="M27.5 1.3575C28.325 1.285 29.1575 1.25 30 1.25C45.8775 1.25 58.75 14.1225 58.75 30C58.75 30.8425 58.715 31.675 58.6425 32.5H54.8775C53.6225 45.1325 42.9625 55 30 55C16.1925 55 5 43.8075 5 30C5 17.0375 14.8675 6.3775 27.5 5.125V1.355V1.3575ZM27.5 32.5V10.155C22.4568 10.7967 17.8471 13.3347 14.608 17.253C11.3688 21.1714 9.7432 26.1762 10.0616 31.2501C10.3799 36.324 12.6183 41.0863 16.3219 44.569C20.0254 48.0518 24.9161 49.9937 30 50C34.8715 49.9999 39.5756 48.222 43.2294 45C46.8832 41.778 49.2355 37.3333 49.845 32.5H27.5ZM53.62 27.5C53.0469 22.0948 50.6375 17.0495 46.794 13.206C42.9505 9.36246 37.9053 6.95314 32.5 6.38V27.5H53.62Z" fill="currentColor"/>
</g>
<defs>
<clipPath id="clip0_566_29615">
<rect width="60" height="60" fill="white"/>
</clipPath>
</defs>
</svg>
