<svg width="100" height="100" viewBox="0 0 100 100" fill="none" xmlns="http://www.w3.org/2000/svg">
<path d="M100 50C100 77.6142 77.6142 100 50 100C22.3858 100 0 77.6142 0 50C0 22.3858 22.3858 0 50 0C77.6142 0 100 22.3858 100 50ZM25 50C25 63.8071 36.1929 75 50 75C63.8071 75 75 63.8071 75 50C75 36.1929 63.8071 25 50 25C36.1929 25 25 36.1929 25 50Z" fill="#9DC4FF"/>
<path d="M50 0C56.7766 8.08107e-08 63.4826 1.37754 69.7104 4.04896C75.9383 6.72037 81.5582 10.6299 86.2286 15.5401C90.8991 20.4502 94.5227 26.2586 96.8793 32.6122C99.2359 38.9659 100.276 45.7323 99.9374 52.5005L74.9687 51.2503C75.1382 47.8662 74.6179 44.483 73.4396 41.3061C72.2613 38.1293 70.4495 35.2251 68.1143 32.77C65.7791 30.3149 62.9692 28.3602 59.8552 27.0245C56.7413 25.6888 53.3883 25 50 25V0Z" fill="#297FFF"/>
<path d="M99.9568 52.0775C99.4969 63.1364 95.3805 73.7301 88.2529 82.1981C81.1253 90.6661 71.3893 96.5297 60.5711 98.8698C49.7528 101.21 38.4639 99.8942 28.4738 95.1289C18.4836 90.3637 10.357 82.4183 5.36781 72.5381L27.6839 61.2691C30.1785 66.2092 34.2418 70.1819 39.2369 72.5645C44.2319 74.9471 49.8764 75.6049 55.2855 74.4349C60.6946 73.2648 65.5626 70.333 69.1264 66.099C72.6903 61.865 74.7485 56.5682 74.9784 51.0388L99.9568 52.0775Z" fill="#5E9EFF"/>
</svg>
