<svg width="50" height="50" viewBox="0 0 50 50" fill="none" xmlns="http://www.w3.org/2000/svg">
<g clip-path="url(#clip0_571_29581)">
<path d="M39.7568 49.9302L48.959 40.7276L39.7568 31.5254L36.9961 34.2861L41.4856 38.7756H33.6105C30.7636 38.7756 28.0613 37.542 26.1967 35.3909L19.5683 27.7447C18.6028 26.6308 17.4832 25.6924 16.2583 24.9489C17.4885 24.2207 18.6031 23.299 19.5515 22.2046L26.1967 14.5393C28.0613 12.3882 30.7636 11.1542 33.6105 11.1542L41.4856 11.1542L36.9961 15.6441L39.7568 18.4048L48.959 9.20219L39.7568 0L36.9961 2.7607L41.4856 7.25021H33.6105C29.6307 7.25021 25.8534 8.97484 23.2464 11.982L16.6016 19.6472C14.7831 21.7449 12.0938 22.9538 9.22968 22.9641H-1.04102V26.8681H9.2045C12.0243 26.8681 14.7267 28.1197 16.6184 30.302L23.2464 37.9482C25.8534 40.9554 29.6307 42.6796 33.6105 42.6796H41.4856L36.9961 47.1695L39.7568 49.9302Z" fill="currentColor"/>
</g>
<defs>
<clipPath id="clip0_571_29581">
<rect width="50" height="50" fill="white" transform="translate(50) rotate(90)"/>
</clipPath>
</defs>
</svg>
