<svg width="50" height="50" viewBox="0 0 50 50" fill="none" xmlns="http://www.w3.org/2000/svg">
<g clip-path="url(#clip0_571_29577)">
<path d="M36.7033 12.4333L39.7304 9.40617L42.6762 12.352L39.6491 15.3791C42.6403 19.1232 44.0843 23.8705 43.6847 28.646C43.285 33.4216 41.072 37.8628 37.5001 41.0577C33.9282 44.2525 29.2686 45.9585 24.4782 45.8251C19.6879 45.6917 15.1304 43.7292 11.7418 40.3406C8.35314 36.952 6.39062 32.3945 6.25727 27.6041C6.12391 22.8137 7.82984 18.1541 11.0247 14.5822C14.2195 11.0103 18.6608 8.79732 23.4363 8.39767C28.2119 7.99801 32.9592 9.44207 36.7033 12.4333ZM24.9991 41.6666C26.9142 41.6666 28.8106 41.2894 30.5799 40.5565C32.3492 39.8236 33.9569 38.7494 35.3111 37.3952C36.6653 36.041 37.7395 34.4334 38.4724 32.6641C39.2052 30.8947 39.5824 28.9984 39.5824 27.0833C39.5824 25.1681 39.2052 23.2718 38.4724 21.5025C37.7395 19.7331 36.6653 18.1255 35.3111 16.7713C33.9569 15.4171 32.3492 14.3429 30.5799 13.61C28.8106 12.8771 26.9142 12.4999 24.9991 12.4999C21.1314 12.4999 17.422 14.0364 14.6871 16.7713C11.9522 19.5062 10.4158 23.2155 10.4158 27.0833C10.4158 30.951 11.9522 34.6603 14.6871 37.3952C17.422 40.1301 21.1314 41.6666 24.9991 41.6666ZM22.9158 16.6666H27.0824V29.1666H22.9158V16.6666ZM16.6658 2.08325H33.3324V6.24992H16.6658V2.08325Z" fill="currentColor"/>
</g>
<defs>
<clipPath id="clip0_571_29577">
<rect width="50" height="50" fill="white"/>
</clipPath>
</defs>
</svg>
