<svg width="60" height="60" viewBox="0 0 60 60" fill="none" xmlns="http://www.w3.org/2000/svg">
<g clip-path="url(#clip0_566_29619)">
<path d="M50 55H45V50C45 48.0109 44.2098 46.1032 42.8033 44.6967C41.3968 43.2902 39.4891 42.5 37.5 42.5H22.5C20.5109 42.5 18.6032 43.2902 17.1967 44.6967C15.7902 46.1032 15 48.0109 15 50V55H10V50C10 46.6848 11.317 43.5054 13.6612 41.1612C16.0054 38.817 19.1848 37.5 22.5 37.5H37.5C40.8152 37.5 43.9946 38.817 46.3388 41.1612C48.683 43.5054 50 46.6848 50 50V55ZM30 32.5C28.0302 32.5 26.0796 32.112 24.2597 31.3582C22.4399 30.6044 20.7863 29.4995 19.3934 28.1066C18.0005 26.7137 16.8956 25.0601 16.1418 23.2403C15.388 21.4204 15 19.4698 15 17.5C15 15.5302 15.388 13.5796 16.1418 11.7597C16.8956 9.93986 18.0005 8.28628 19.3934 6.8934C20.7863 5.50052 22.4399 4.39563 24.2597 3.64181C26.0796 2.88799 28.0302 2.5 30 2.5C33.9782 2.5 37.7936 4.08035 40.6066 6.8934C43.4197 9.70644 45 13.5218 45 17.5C45 21.4782 43.4197 25.2936 40.6066 28.1066C37.7936 30.9196 33.9782 32.5 30 32.5ZM30 27.5C32.6522 27.5 35.1957 26.4464 37.0711 24.5711C38.9464 22.6957 40 20.1522 40 17.5C40 14.8478 38.9464 12.3043 37.0711 10.4289C35.1957 8.55357 32.6522 7.5 30 7.5C27.3478 7.5 24.8043 8.55357 22.9289 10.4289C21.0536 12.3043 20 14.8478 20 17.5C20 20.1522 21.0536 22.6957 22.9289 24.5711C24.8043 26.4464 27.3478 27.5 30 27.5Z" fill="currentColor"/>
</g>
<defs>
<clipPath id="clip0_566_29619">
<rect width="60" height="60" fill="white"/>
</clipPath>
</defs>
</svg>
