<svg width="60" height="60" viewBox="0 0 60 60" fill="none" xmlns="http://www.w3.org/2000/svg">
<g clip-path="url(#clip0_566_29537)">
<path fill-rule="evenodd" clip-rule="evenodd" d="M45 60H15C11.0218 59.9998 7.2066 58.4194 4.39359 55.6064C1.58058 52.7934 0.000174035 48.9782 0 45L0 15C0.000174035 11.0218 1.58058 7.2066 4.39359 4.39359C7.2066 1.58058 11.0218 0.000174035 15 0L45 0C48.9782 0 52.7936 1.58035 55.6066 4.3934C58.4196 7.20644 60 11.0218 60 15V45C60 48.9782 58.4196 52.7936 55.6066 55.6066C52.7936 58.4196 48.9782 60 45 60Z" fill="#004B9B"/>
<path fill-rule="evenodd" clip-rule="evenodd" d="M28.125 16.875H45C47.1631 16.8749 49.2435 16.0441 50.8116 14.5541C52.3797 13.0642 53.3158 11.029 53.4265 8.86875C53.5372 6.70852 52.8141 4.58827 51.4064 2.94587C49.9988 1.30347 48.0142 0.264358 45.8625 0.043125C45.5756 0.0271875 45.2916 0 45 0H15C11.0218 0.000174035 7.2066 1.58058 4.39359 4.39359C1.58058 7.2066 0.000174035 11.0218 0 15L0 45C0.000174041 37.5408 2.96339 30.3872 8.23781 25.1128C13.5122 19.8384 20.6658 16.8752 28.125 16.875Z" fill="#015DBF"/>
<path fill-rule="evenodd" clip-rule="evenodd" d="M45 30C42.0333 30 39.1332 30.8797 36.6665 32.528C34.1997 34.1762 32.2771 36.5189 31.1418 39.2597C30.0065 42.0006 29.7094 45.0166 30.2882 47.9264C30.867 50.8361 32.2956 53.5088 34.3934 55.6066C36.4912 57.7044 39.1639 59.133 42.0737 59.7118C44.9834 60.2906 47.9994 59.9935 50.7403 58.8582C53.4812 57.7229 55.8238 55.8003 57.4721 53.3336C59.1203 50.8668 60 47.9667 60 45V15C60 18.9782 58.4197 22.7936 55.6066 25.6066C52.7936 28.4196 48.9783 30 45 30Z" fill="#004084"/>
<g clip-path="url(#clip1_566_29537)">
<path fill-rule="evenodd" clip-rule="evenodd" d="M44.4831 31.1472C44.4831 36.4634 43.2848 40.4251 40.8904 43.0065C38.4924 45.5919 34.7961 46.878 29.8085 46.878C25.1481 46.878 21.6156 45.5922 19.2019 43.0065C16.7918 40.425 15.5859 36.5278 15.5859 31.3289C15.5859 25.5081 15.5859 19.6874 15.5859 13.8666C15.5859 13.4587 15.9151 13.125 16.3174 13.125H24.7674C25.1697 13.125 25.4989 13.4587 25.4989 13.8666C25.4989 19.8138 25.4989 25.761 25.4989 31.7082C25.4989 33.8334 25.8868 35.4705 26.6756 36.6226C27.4609 37.7695 28.5849 38.345 30.0501 38.345C31.523 38.345 32.6455 37.8074 33.4166 36.7253C34.188 35.643 34.5701 34.0468 34.5701 31.9373V28.5961H44.4831V31.1472Z" fill="white"/>
<path fill-rule="evenodd" clip-rule="evenodd" d="M43.7171 26.6466H35.3364H34.5703V25.8699V23.5932V13.9017C34.5703 13.4745 34.9151 13.125 35.3364 13.125H36.7054C36.7084 17.476 40.1885 21.0025 44.481 21.0025L44.4833 21.0024V23.5932V25.8699V26.6466H43.7171Z" fill="white"/>
<path fill-rule="evenodd" clip-rule="evenodd" d="M38.6544 13.125C40.3421 13.125 42.0299 13.125 43.7176 13.125C44.139 13.125 44.4837 13.4745 44.4837 13.9017C44.4837 15.6149 44.4837 17.3282 44.4837 19.0414C41.2643 19.0414 38.6543 16.3953 38.6543 13.1314L38.6544 13.125Z" fill="#FE8700"/>
</g>
</g>
<defs>
<clipPath id="clip0_566_29537">
<rect width="60" height="60" fill="white"/>
</clipPath>
<clipPath id="clip1_566_29537">
<rect width="28.8974" height="35.1562" fill="white" transform="translate(15.5859 12.4219)"/>
</clipPath>
</defs>
</svg>
