<svg width="40" height="41" viewBox="0 0 40 41" fill="none" xmlns="http://www.w3.org/2000/svg">
    <g clip-path="url(#clip0_830_1909)">
        <path d="M4.99999 5.67236H35C35.442 5.67236 35.8659 5.84796 36.1785 6.16052C36.4911 6.47308 36.6667 6.897 36.6667 7.33903V34.0057C36.6667 34.4477 36.4911 34.8716 36.1785 35.1842C35.8659 35.4968 35.442 35.6724 35 35.6724H4.99999C4.55797 35.6724 4.13404 35.4968 3.82148 35.1842C3.50892 34.8716 3.33333 34.4477 3.33333 34.0057V7.33903C3.33333 6.897 3.50892 6.47308 3.82148 6.16052C4.13404 5.84796 4.55797 5.67236 4.99999 5.67236ZM33.3333 19.0057H6.66666V32.339H33.3333V19.0057ZM33.3333 15.6724V9.0057H6.66666V15.6724H33.3333ZM23.3333 25.6724H30V29.0057H23.3333V25.6724Z" fill="#E9532F"/>
    </g>
    <defs>
        <clipPath id="clip0_830_1909">
            <rect width="40" height="40" fill="white" transform="translate(0 0.672363)"/>
        </clipPath>
    </defs>
</svg>
