<svg width="24" height="25" viewBox="0 0 24 25" fill="none" xmlns="http://www.w3.org/2000/svg">
    <g clip-path="url(#clip0_830_1342)">
        <path d="M3.609 2.48636L13.792 12.6724L3.61 22.8584C3.42894 22.7822 3.27443 22.6543 3.16589 22.4906C3.05736 22.3269 2.99964 22.1348 3 21.9384V3.40636C3.00008 3.21018 3.05786 3.01836 3.16614 2.85477C3.27443 2.69119 3.42844 2.56306 3.609 2.48636ZM14.499 13.3794L16.801 15.6814L5.864 22.0144L14.499 13.3794ZM17.698 10.1814L20.505 11.8074C20.6565 11.8953 20.7823 12.0214 20.8698 12.1732C20.9572 12.3251 21.0032 12.4972 21.0032 12.6724C21.0032 12.8475 20.9572 13.0197 20.8698 13.1715C20.7823 13.3233 20.6565 13.4495 20.505 13.5374L17.697 15.1634L15.206 12.6724L17.698 10.1814ZM5.864 3.33036L16.802 9.66236L14.499 11.9654L5.864 3.33036Z" fill="#2B2A29"/>
    </g>
    <defs>
        <clipPath id="clip0_830_1342">
            <rect width="24" height="24" fill="white" transform="translate(0 0.672363)"/>
        </clipPath>
    </defs>
</svg>
