<svg width="24" height="25" viewBox="0 0 24 25" fill="none" xmlns="http://www.w3.org/2000/svg">
    <g clip-path="url(#clip0_830_1352)">
        <path d="M12 2.67236C14.717 2.67236 15.056 2.68236 16.122 2.73236C17.187 2.78236 17.912 2.94936 18.55 3.19736C19.21 3.45136 19.766 3.79536 20.322 4.35036C20.8305 4.85026 21.224 5.45495 21.475 6.12236C21.722 6.75936 21.89 7.48536 21.94 8.55036C21.987 9.61636 22 9.95536 22 12.6724C22 15.3894 21.99 15.7284 21.94 16.7944C21.89 17.8594 21.722 18.5844 21.475 19.2224C21.2247 19.8901 20.8311 20.495 20.322 20.9944C19.822 21.5027 19.2173 21.8961 18.55 22.1474C17.913 22.3944 17.187 22.5624 16.122 22.6124C15.056 22.6594 14.717 22.6724 12 22.6724C9.283 22.6724 8.944 22.6624 7.878 22.6124C6.813 22.5624 6.088 22.3944 5.45 22.1474C4.78233 21.8968 4.17753 21.5033 3.678 20.9944C3.16941 20.4945 2.77593 19.8898 2.525 19.2224C2.277 18.5854 2.11 17.8594 2.06 16.7944C2.013 15.7284 2 15.3894 2 12.6724C2 9.95536 2.01 9.61636 2.06 8.55036C2.11 7.48436 2.277 6.76036 2.525 6.12236C2.77524 5.45454 3.1688 4.84968 3.678 4.35036C4.17767 3.84159 4.78243 3.44809 5.45 3.19736C6.088 2.94936 6.812 2.78236 7.878 2.73236C8.944 2.68536 9.283 2.67236 12 2.67236ZM12 7.67236C10.6739 7.67236 9.40215 8.19915 8.46447 9.13683C7.52678 10.0745 7 11.3463 7 12.6724C7 13.9984 7.52678 15.2702 8.46447 16.2079C9.40215 17.1456 10.6739 17.6724 12 17.6724C13.3261 17.6724 14.5979 17.1456 15.5355 16.2079C16.4732 15.2702 17 13.9984 17 12.6724C17 11.3463 16.4732 10.0745 15.5355 9.13683C14.5979 8.19915 13.3261 7.67236 12 7.67236ZM18.5 7.42236C18.5 7.09084 18.3683 6.7729 18.1339 6.53848C17.8995 6.30406 17.5815 6.17236 17.25 6.17236C16.9185 6.17236 16.6005 6.30406 16.3661 6.53848C16.1317 6.7729 16 7.09084 16 7.42236C16 7.75388 16.1317 8.07183 16.3661 8.30625C16.6005 8.54067 16.9185 8.67236 17.25 8.67236C17.5815 8.67236 17.8995 8.54067 18.1339 8.30625C18.3683 8.07183 18.5 7.75388 18.5 7.42236ZM12 9.67236C12.7956 9.67236 13.5587 9.98843 14.1213 10.551C14.6839 11.1137 15 11.8767 15 12.6724C15 13.468 14.6839 14.2311 14.1213 14.7937C13.5587 15.3563 12.7956 15.6724 12 15.6724C11.2044 15.6724 10.4413 15.3563 9.87868 14.7937C9.31607 14.2311 9 13.468 9 12.6724C9 11.8767 9.31607 11.1137 9.87868 10.551C10.4413 9.98843 11.2044 9.67236 12 9.67236Z" fill="#2B2A29"/>
    </g>
    <defs>
        <clipPath id="clip0_830_1352">
            <rect width="24" height="24" fill="white" transform="translate(0 0.672363)"/>
        </clipPath>
    </defs>
</svg>
