<svg width="242" height="172" viewBox="0 0 242 172" fill="none" xmlns="http://www.w3.org/2000/svg">
    <path d="M1.63101 171.672C0.840149 171.672 0.19696 171.029 0.19696 170.239V163.71C0.19696 162.92 0.840149 162.277 1.63101 162.277H240.369C241.16 162.277 241.803 162.92 241.803 163.71V170.239C241.803 171.029 241.16 171.672 240.369 171.672H1.63101Z" fill="#D0D0D0"/>
    <path d="M137.347 166.547H104.653C103.219 166.547 102.055 165.383 102.055 163.949V162.276H139.945V163.949C139.945 165.383 138.782 166.547 137.347 166.547Z" fill="#6F767E"/>
    <path d="M217.318 31.0565H24.6817C22.2795 31.0565 20.332 33.0047 20.332 35.4066V162.279H221.668V40.3395V35.4066C221.668 33.0047 219.72 31.0565 217.318 31.0565Z" fill="#242424"/>
    <path d="M26.3341 155.906H215.665V37.4317H26.3341V155.906Z" fill="white"/>
    <path d="M120.612 106.293L50.7233 49.9268H190.511L120.612 106.293Z" fill="#102B46"/>
    <path d="M190.511 49.9268L120.617 -3.05176e-05L50.7233 49.9268H190.511Z" fill="#18406D"/>
    <path d="M64.66 22.5013V111.528H178.484V37.5763L163.409 22.5013H64.66Z" fill="#F1F2FC"/>
    <path d="M120.612 106.293L50.7233 49.9269V144.399H190.511V49.9269L120.612 106.293Z" fill="#18406D"/>
    <path d="M190.511 144.841L120.617 83.5573L50.7233 144.841H190.511Z" fill="#1A487B"/>
    <path d="M117.106 72.9067L89.8556 50.8701L99.9853 39.8765L115.611 52.5136L159.301 3.82854L170.925 13.2273L117.106 72.9067Z" fill="#4BC284"/>
</svg>
