<svg width="24" height="25" viewBox="0 0 24 25" fill="none" xmlns="http://www.w3.org/2000/svg">
    <g clip-path="url(#clip0_830_1362)">
        <path d="M6.94 5.67239C6.93973 6.20282 6.72877 6.71142 6.35351 7.08631C5.97825 7.46119 5.46943 7.67165 4.939 7.67139C4.40857 7.67112 3.89996 7.46015 3.52508 7.08489C3.15019 6.70963 2.93973 6.20082 2.94 5.67039C2.94026 5.13995 3.15123 4.63135 3.52649 4.25647C3.90175 3.88158 4.41057 3.67112 4.941 3.67139C5.47143 3.67165 5.98003 3.88262 6.35492 4.25788C6.7298 4.63314 6.94026 5.14195 6.94 5.67239ZM7 9.15239H3V21.6724H7V9.15239ZM13.32 9.15239H9.34V21.6724H13.28V15.1024C13.28 11.4424 18.05 11.1024 18.05 15.1024V21.6724H22V13.7424C22 7.57239 14.94 7.80239 13.28 10.8324L13.32 9.15239Z" fill="#2B2A29"/>
    </g>
    <defs>
        <clipPath id="clip0_830_1362">
            <rect width="24" height="24" fill="white" transform="translate(0 0.672363)"/>
        </clipPath>
    </defs>
</svg>
