<svg width="106" height="41" viewBox="0 0 106 41" fill="none" xmlns="http://www.w3.org/2000/svg">
    <path d="M48.1903 22.5599V33.5604H49.3966V29.4781H52.4459C53.4785 29.4781 54.3397 29.1482 55.0272 28.4857C55.7146 27.8232 56.057 27.001 56.057 26.0165C56.057 25.0318 55.7146 24.2096 55.0325 23.5498C54.3478 22.8899 53.4838 22.5599 52.4459 22.5599H48.1903ZM52.4459 23.6649C53.1708 23.6649 53.7539 23.8797 54.1926 24.3091C54.6313 24.7385 54.8506 25.3094 54.8506 26.019C54.8506 26.7313 54.6313 27.2995 54.1926 27.729C53.7539 28.161 53.1708 28.3757 52.4459 28.3757H49.3966V23.6649H52.4459ZM59.8259 29.2424C59.101 29.3603 58.5446 29.6116 58.1567 29.9965C57.7716 30.3841 57.5763 30.8895 57.5763 31.5205C57.5763 32.0914 57.8385 32.602 58.3654 33.0472C58.8897 33.4924 59.537 33.7149 60.3046 33.7149C60.6123 33.7149 60.9119 33.673 61.2008 33.5918C61.4923 33.5081 61.725 33.4164 61.9015 33.3116C62.0808 33.2069 62.2466 33.0864 62.399 32.9503C62.5542 32.8141 62.6531 32.7198 62.6986 32.6675C62.7414 32.6125 62.7762 32.5706 62.795 32.5391V33.5604H63.9157V28.7658C63.9157 27.9411 63.6269 27.2524 63.0517 26.6946C62.474 26.1368 61.7464 25.8593 60.8691 25.8593C60.524 25.8593 60.1843 25.909 59.8526 26.0086C59.5209 26.1081 59.2534 26.2207 59.0502 26.3489C58.8469 26.4773 58.6516 26.6213 58.467 26.7836C58.2798 26.9434 58.1621 27.056 58.1059 27.1215C58.0498 27.1843 58.0069 27.2366 57.9776 27.2786L58.6971 27.983L58.9405 27.7158C59.1036 27.5247 59.3631 27.3388 59.7216 27.1581C60.0773 26.9774 60.4598 26.8857 60.8691 26.8857C61.4335 26.8857 61.8962 27.0612 62.2546 27.4068C62.6157 27.7551 62.795 28.2081 62.795 28.7658L59.8259 29.2424ZM60.3046 32.6937C59.8018 32.6937 59.4086 32.5811 59.125 32.3585C58.8388 32.1385 58.6971 31.8584 58.6971 31.5205C58.7025 30.8084 59.1865 30.3632 60.1469 30.1852L62.795 29.7085V30.1852C62.795 30.9262 62.5623 31.531 62.0941 31.9945C61.6261 32.4606 61.0296 32.6937 60.3046 32.6937ZM68.1633 34.6576C67.8771 35.4457 67.393 35.8385 66.7136 35.8385C66.4461 35.8333 66.1813 35.7809 65.9138 35.6788V36.7053L66.0234 36.7367C66.1037 36.7681 66.2214 36.7942 66.3819 36.8205C66.5397 36.8467 66.7055 36.8597 66.8794 36.8597C67.4331 36.8597 67.8905 36.6921 68.2569 36.357C68.6234 36.0218 68.9658 35.4562 69.2841 34.6576L72.8175 26.019H71.6112L69.1263 32.149L66.636 26.019H65.4297L68.5619 33.5604L68.1633 34.6576Z" fill="white"/>
    <path fill-rule="evenodd" clip-rule="evenodd" d="M8.36637 8.4892C15.5052 2.50599 26.2473 3.321 32.3591 10.3097C37.9961 16.7551 37.7259 26.2006 32.0496 32.3237L6.76998 32.2703C6.6814 32.1737 6.59345 32.0761 6.50665 31.977C0.394776 24.9883 1.22741 14.4724 8.36637 8.4892Z" fill="white"/>
    <path d="M55.963 12.2824V13.0912V14.8204L55.6815 15.0505C55.4867 15.2231 55.1526 15.3926 54.6762 15.5622C54.1968 15.7288 53.6709 15.8136 53.0894 15.8136C51.8738 15.8136 50.8592 15.4138 50.0457 14.6174C49.2291 13.818 48.8207 12.8247 48.8207 11.6348C48.8207 10.4477 49.2291 9.45443 50.0457 8.65513C50.8592 7.85563 51.8738 7.459 53.0894 7.459C53.5318 7.459 53.9616 7.5256 54.3855 7.65582C54.8093 7.78902 55.1495 7.93433 55.4094 8.09175C55.6692 8.24927 55.9105 8.43101 56.1301 8.63686C56.3497 8.8458 56.4919 8.99121 56.5569 9.07597C56.6189 9.16381 56.6684 9.22744 56.7054 9.27587L58.4717 7.54674L58.2644 7.28034C58.1314 7.10763 57.9118 6.8987 57.6087 6.65047C57.3025 6.40213 56.9529 6.15379 56.5569 5.90555C56.161 5.65721 55.6538 5.4452 55.0382 5.26962C54.4226 5.09702 53.7731 5.00928 53.0894 5.00928C51.1067 5.00928 49.4363 5.65721 48.0722 6.95329C46.7111 8.24619 46.0306 9.80877 46.0306 11.6348C46.0306 13.4638 46.7111 15.0262 48.0722 16.3253C49.4363 17.6214 51.1067 18.2724 53.0894 18.2724C53.7792 18.2724 54.4474 18.1846 55.0969 18.006C55.7465 17.8273 56.2724 17.6305 56.6745 17.4154C57.0766 17.2005 57.4571 16.9521 57.8159 16.6706C58.1747 16.3889 58.4068 16.1921 58.5119 16.0771C58.6201 15.9619 58.6975 15.8741 58.7438 15.8136V12.2824H55.963Z" fill="white"/>
    <path d="M63.8442 5.36444H61.3356V18.0856H63.8442V5.36444Z" fill="white"/>
    <path d="M68.3855 13.5486C68.3855 12.8825 68.6051 12.3222 69.0443 11.868C69.4866 11.4107 70.0094 11.1836 70.6126 11.1836C71.2188 11.1836 71.7385 11.4107 72.1808 11.868C72.6232 12.3222 72.8428 12.8825 72.8428 13.5486C72.8428 14.2117 72.6232 14.7719 72.1808 15.2231C71.7385 15.6773 71.2188 15.9045 70.6126 15.9045C70.0094 15.9045 69.4866 15.6773 69.0443 15.2231C68.6051 14.7719 68.3855 14.2117 68.3855 13.5486ZM75.4349 13.5425C75.4349 12.307 74.9555 11.226 73.9966 10.2994C73.0407 9.37576 71.9117 8.91254 70.6126 8.91254C69.3134 8.91254 68.1844 9.37576 67.2255 10.2994C66.2635 11.226 65.784 12.307 65.784 13.5425C65.784 14.778 66.2635 15.859 67.2255 16.7857C68.1844 17.7122 69.3134 18.1756 70.6126 18.1756C71.9117 18.1756 73.0407 17.7122 73.9966 16.7857C74.9555 15.859 75.4349 14.778 75.4349 13.5425Z" fill="white"/>
    <path d="M103.583 5.36444H101.074V18.0856H103.583V5.36444Z" fill="white"/>
    <path d="M79.9851 13.5489C79.9851 12.8828 80.2047 12.3225 80.6439 11.8683C81.0863 11.411 81.609 11.1839 82.2123 11.1839C82.8184 11.1839 83.3383 11.411 83.7805 11.8683C84.2228 12.3225 84.4425 12.8828 84.4425 13.5489C84.4425 14.212 84.2228 14.7722 83.7805 15.2234C83.3383 15.6776 82.8184 15.9048 82.2123 15.9048C81.609 15.9048 81.0863 15.6776 80.6439 15.2234C80.2047 14.7722 79.9851 14.212 79.9851 13.5489ZM79.9018 5.27606H77.3932V13.2438C77.3869 13.3424 77.3836 13.4422 77.3836 13.5429C77.3836 14.7784 77.8631 15.8594 78.8251 16.786C79.784 17.7126 80.9131 18.1759 82.2123 18.1759C83.5114 18.1759 84.6404 17.7126 85.5962 16.786C86.5552 15.8594 87.0346 14.7784 87.0346 13.5429C87.0346 12.3073 86.5552 11.2263 85.5962 10.2998C84.6404 9.37611 83.5114 8.91288 82.2123 8.91288C81.3708 8.91288 80.6006 9.10734 79.9018 9.49524V5.27606Z" fill="white"/>
    <path d="M95.8806 13.5486C95.8806 12.8825 95.661 12.3222 95.2217 11.868C94.7795 11.4107 94.2566 11.1836 93.6534 11.1836C93.0472 11.1836 92.5275 11.4107 92.0851 11.868C91.6429 12.3222 91.4231 12.8825 91.4231 13.5486C91.4231 14.2117 91.6429 14.7719 92.0851 15.2231C92.5275 15.6773 93.0472 15.9045 93.6534 15.9045C94.2566 15.9045 94.7795 15.6773 95.2217 15.2231C95.661 14.7719 95.8806 14.2117 95.8806 13.5486ZM95.9734 9.00469H98.482V13.5425V18.0834H95.9734V17.5869C95.2722 17.9792 94.4989 18.1756 93.6534 18.1756C92.3543 18.1756 91.2252 17.7122 90.2694 16.7857C89.3105 15.859 88.8311 14.778 88.8311 13.5425C88.8311 12.307 89.3105 11.226 90.2694 10.2994C91.2252 9.37576 92.3543 8.91254 93.6534 8.91254C94.4989 8.91254 95.2722 9.10874 95.9734 9.50024V9.00469Z" fill="white"/>
</svg>
