<svg width="60" height="32" viewBox="0 0 60 32" fill="none" xmlns="http://www.w3.org/2000/svg">
    <g clip-path="url(#clip0_822_1224)">
        <path opacity="0.9" d="M27.2516 17.0786V23.3646H27.9409V21.0319H29.6834C30.2734 21.0319 30.7656 20.8433 31.1584 20.4647C31.5512 20.0862 31.7468 19.6164 31.7468 19.0538C31.7468 18.4911 31.5512 18.0213 31.1614 17.6442C30.7702 17.2671 30.2765 17.0786 29.6834 17.0786H27.2516ZM29.6834 17.71C30.0976 17.71 30.4308 17.8328 30.6815 18.0781C30.9322 18.3235 31.0575 18.6497 31.0575 19.0552C31.0575 19.4623 30.9322 19.7869 30.6815 20.0323C30.4308 20.2792 30.0976 20.4019 29.6834 20.4019H27.9409V17.71H29.6834ZM33.9005 20.8972C33.4863 20.9645 33.1683 21.1081 32.9467 21.3281C32.7266 21.5496 32.615 21.8384 32.615 22.199C32.615 22.5252 32.7649 22.817 33.066 23.0713C33.3655 23.3257 33.7354 23.4529 34.1741 23.4529C34.3499 23.4529 34.5211 23.4289 34.6862 23.3825C34.8528 23.3347 34.9857 23.2823 35.0866 23.2224C35.189 23.1626 35.2838 23.0937 35.3709 23.016C35.4595 22.9382 35.5161 22.8843 35.5421 22.8544C35.5665 22.8229 35.5864 22.799 35.5971 22.781V23.3646H36.2375V20.6248C36.2375 20.1536 36.0725 19.76 35.7438 19.4413C35.4137 19.1226 34.9979 18.964 34.4966 18.964C34.2994 18.964 34.1053 18.9924 33.9158 19.0493C33.7263 19.1061 33.5734 19.1705 33.4572 19.2438C33.3411 19.3171 33.2295 19.3994 33.124 19.4922C33.017 19.5835 32.9498 19.6478 32.9177 19.6852C32.8856 19.7211 32.8611 19.751 32.8443 19.775L33.2555 20.1775L33.3946 20.0248C33.4878 19.9156 33.636 19.8094 33.8409 19.7061C34.0442 19.6029 34.2627 19.5505 34.4966 19.5505C34.8191 19.5505 35.0835 19.6508 35.2883 19.8483C35.4947 20.0473 35.5971 20.3061 35.5971 20.6248L33.9005 20.8972ZM34.1741 22.8693C33.8867 22.8693 33.662 22.805 33.5 22.6778C33.3365 22.5521 33.2555 22.392 33.2555 22.199C33.2586 21.792 33.5352 21.5376 34.0839 21.4359L35.5971 21.1635V21.4359C35.5971 21.8593 35.4642 22.2049 35.1966 22.4698C34.9292 22.7362 34.5883 22.8693 34.1741 22.8693ZM38.6648 23.9916C38.5012 24.4419 38.2246 24.6664 37.8363 24.6664C37.6835 24.6634 37.5322 24.6334 37.3793 24.5751V25.1617L37.4419 25.1796C37.4878 25.1975 37.5551 25.2125 37.6468 25.2275C37.737 25.2425 37.8317 25.2499 37.9311 25.2499C38.2475 25.2499 38.5088 25.1541 38.7183 24.9626C38.9277 24.7711 39.1233 24.4479 39.3052 23.9916L41.3243 19.0552H40.6349L39.215 22.5581L37.792 19.0552H37.1027L38.8925 23.3646L38.6648 23.9916Z" fill="white"/>
        <path fill-rule="evenodd" clip-rule="evenodd" d="M4.49507 9.03819C8.57442 5.61922 14.7127 6.08493 18.2052 10.0785C21.4263 13.7615 21.272 19.159 18.0283 22.6579L3.58285 22.6274C3.53223 22.5722 3.48197 22.5164 3.43238 22.4598C-0.0601237 18.4662 0.415665 12.4572 4.49507 9.03819Z" fill="white"/>
        <path d="M31.6931 11.2058V11.668V12.656L31.5323 12.7875C31.4209 12.8861 31.23 12.983 30.9579 13.0799C30.6839 13.1751 30.3834 13.2236 30.0511 13.2236C29.3565 13.2236 28.7767 12.9951 28.3118 12.54C27.8452 12.0832 27.6118 11.5157 27.6118 10.8357C27.6118 10.1573 27.8452 9.58977 28.3118 9.13303C28.7767 8.67617 29.3565 8.44953 30.0511 8.44953C30.3039 8.44953 30.5495 8.48758 30.7917 8.56199C31.0339 8.63811 31.2283 8.72114 31.3768 8.8111C31.5252 8.90111 31.6631 9.00496 31.7886 9.12259C31.9141 9.24198 31.9954 9.32507 32.0325 9.37351C32.0679 9.4237 32.0962 9.46006 32.1174 9.48774L33.1267 8.49966L33.0083 8.34743C32.9322 8.24874 32.8068 8.12935 32.6335 7.98751C32.4585 7.8456 32.2588 7.70369 32.0325 7.56184C31.8063 7.41993 31.5164 7.29878 31.1647 7.19845C30.8129 7.09982 30.4418 7.04968 30.0511 7.04968C28.9181 7.04968 27.9636 7.41993 27.1841 8.16055C26.4064 8.89935 26.0175 9.79225 26.0175 10.8357C26.0175 11.8808 26.4064 12.7737 27.1841 13.516C27.9636 14.2566 28.9181 14.6286 30.0511 14.6286C30.4453 14.6286 30.8271 14.5785 31.1982 14.4764C31.5694 14.3743 31.87 14.2618 32.0997 14.1389C32.3295 14.0161 32.5469 13.8741 32.7519 13.7133C32.957 13.5523 33.0896 13.4399 33.1497 13.3741C33.2115 13.3083 33.2557 13.2581 33.2822 13.2236V11.2058H31.6931Z" fill="white"/>
        <path d="M36.1967 7.25262H34.7632V14.5219H36.1967V7.25262Z" fill="white"/>
        <path d="M38.7917 11.9292C38.7917 11.5486 38.9172 11.2284 39.1682 10.9689C39.4209 10.7076 39.7197 10.5778 40.0643 10.5778C40.4108 10.5778 40.7077 10.7076 40.9605 10.9689C41.2132 11.2284 41.3387 11.5486 41.3387 11.9292C41.3387 12.3082 41.2132 12.6283 40.9605 12.8861C40.7077 13.1457 40.4108 13.2755 40.0643 13.2755C39.7197 13.2755 39.4209 13.1457 39.1682 12.8861C38.9172 12.6283 38.7917 12.3082 38.7917 11.9292ZM42.82 11.9258C42.82 11.2198 42.546 10.6021 41.9981 10.0726C41.4518 9.54479 40.8067 9.28009 40.0643 9.28009C39.3219 9.28009 38.6768 9.54479 38.1288 10.0726C37.5791 10.6021 37.3052 11.2198 37.3052 11.9258C37.3052 12.6318 37.5791 13.2495 38.1288 13.779C38.6768 14.3085 39.3219 14.5732 40.0643 14.5732C40.8067 14.5732 41.4518 14.3085 41.9981 13.779C42.546 13.2495 42.82 12.6318 42.82 11.9258Z" fill="white"/>
        <path d="M58.9044 7.25262H57.4709V14.5219H58.9044V7.25262Z" fill="white"/>
        <path d="M45.42 11.9294C45.42 11.5488 45.5455 11.2286 45.7965 10.9691C46.0493 10.7078 46.348 10.578 46.6928 10.578C47.0391 10.578 47.3361 10.7078 47.5889 10.9691C47.8416 11.2286 47.9671 11.5488 47.9671 11.9294C47.9671 12.3084 47.8416 12.6285 47.5889 12.8863C47.3361 13.1458 47.0391 13.2757 46.6928 13.2757C46.348 13.2757 46.0493 13.1458 45.7965 12.8863C45.5455 12.6285 45.42 12.3084 45.42 11.9294ZM45.3725 7.20209H43.939V11.7551C43.9354 11.8114 43.9335 11.8684 43.9335 11.926C43.9335 12.632 44.2075 13.2497 44.7572 13.7792C45.3052 14.3087 45.9503 14.5734 46.6928 14.5734C47.4351 14.5734 48.0802 14.3087 48.6264 13.7792C49.1744 13.2497 49.4484 12.632 49.4484 11.926C49.4484 11.2199 49.1744 10.6022 48.6264 10.0728C48.0802 9.54497 47.4351 9.28027 46.6928 9.28027C46.2119 9.28027 45.7718 9.39139 45.3725 9.61305V7.20209Z" fill="white"/>
        <path d="M54.5032 11.9292C54.5032 11.5486 54.3777 11.2284 54.1267 10.9689C53.874 10.7076 53.5752 10.5778 53.2305 10.5778C52.8841 10.5778 52.5871 10.7076 52.3344 10.9689C52.0816 11.2284 51.9561 11.5486 51.9561 11.9292C51.9561 12.3082 52.0816 12.6283 52.3344 12.8861C52.5871 13.1457 52.8841 13.2755 53.2305 13.2755C53.5752 13.2755 53.874 13.1457 54.1267 12.8861C54.3777 12.6283 54.5032 12.3082 54.5032 11.9292ZM54.5563 9.33275H55.9897V11.9258V14.5206H54.5563V14.2369C54.1555 14.4611 53.7136 14.5732 53.2305 14.5732C52.4882 14.5732 51.843 14.3085 51.2968 13.779C50.7488 13.2495 50.4749 12.6318 50.4749 11.9258C50.4749 11.2198 50.7488 10.6021 51.2968 10.0726C51.843 9.54479 52.4882 9.28009 53.2305 9.28009C53.7136 9.28009 54.1555 9.39221 54.5563 9.61592V9.33275Z" fill="white"/>
    </g>
    <defs>
        <clipPath id="clip0_822_1224">
            <rect width="59.81" height="32" fill="white" transform="translate(0.0950012)"/>
        </clipPath>
    </defs>
</svg>
