<svg width="40" height="41" viewBox="0 0 40 41" fill="none" xmlns="http://www.w3.org/2000/svg">
    <g clip-path="url(#clip0_830_1744)">
        <path d="M32.6382 40.6165L40 33.2544L32.6382 25.8926L30.4297 28.1012L34.0213 31.6928H27.7213C25.4437 31.6928 23.2819 30.7059 21.7902 28.985L16.4874 22.868C15.715 21.9769 14.8193 21.2262 13.8394 20.6314C14.8236 20.0488 15.7153 19.3115 16.474 18.436L21.7902 12.3038C23.2819 10.5829 25.4437 9.59564 27.7213 9.59564H34.0213L30.4297 13.1876L32.6382 15.3961L40 8.03406L32.6382 0.672302L30.4297 2.88086L34.0213 6.47247L27.7213 6.47247C24.5374 6.47247 21.5155 7.85217 19.4299 10.2579L14.1141 16.3901C12.6593 18.0682 10.5078 19.0353 8.21655 19.0436H0V22.1667H8.19641C10.4523 22.1667 12.6141 23.168 14.1275 24.9139L19.4299 31.0309C21.5155 33.4366 24.5374 34.816 27.7213 34.816H34.0213L30.4297 38.4079L32.6382 40.6165Z" fill="#E9532F"/>
    </g>
    <defs>
        <clipPath id="clip0_830_1744">
            <rect width="40" height="40" fill="white" transform="matrix(0 1 -1 0 40 0.672302)"/>
        </clipPath>
    </defs>
</svg>
