<svg width="40" height="41" viewBox="0 0 40 41" fill="none" xmlns="http://www.w3.org/2000/svg">
    <g clip-path="url(#clip0_830_1757)">
        <path d="M29.3633 10.619L31.785 8.1973L34.1417 10.554L31.72 12.9756C34.1129 15.9709 35.2682 19.7688 34.9485 23.5892C34.6287 27.4096 32.8583 30.9626 30.0008 33.5185C27.1433 36.0744 23.4156 37.4391 19.5833 37.3324C15.751 37.2257 12.105 35.6557 9.39412 32.9448C6.68323 30.234 5.11322 26.588 5.00653 22.7557C4.89985 18.9234 6.26459 15.1957 8.82047 12.3382C11.3763 9.48064 14.9294 7.71022 18.7498 7.3905C22.5702 7.07078 26.3681 8.22602 29.3633 10.619ZM20 34.0056C21.5321 34.0056 23.0492 33.7039 24.4646 33.1176C25.8801 32.5313 27.1662 31.6719 28.2496 30.5885C29.3329 29.5052 30.1923 28.2191 30.7786 26.8036C31.3649 25.3881 31.6667 23.8711 31.6667 22.339C31.6667 20.8069 31.3649 19.2898 30.7786 17.8743C30.1923 16.4589 29.3329 15.1727 28.2496 14.0894C27.1662 13.006 25.8801 12.1467 24.4646 11.5604C23.0492 10.9741 21.5321 10.6723 20 10.6723C16.9058 10.6723 13.9383 11.9015 11.7504 14.0894C9.5625 16.2773 8.33333 19.2448 8.33333 22.339C8.33333 25.4332 9.5625 28.4006 11.7504 30.5885C13.9383 32.7765 16.9058 34.0056 20 34.0056ZM18.3333 14.0056H21.6667V24.0056H18.3333V14.0056ZM13.3333 2.33897H26.6667V5.6723H13.3333V2.33897Z" fill="#E9532F"/>
    </g>
    <defs>
        <clipPath id="clip0_830_1757">
            <rect width="40" height="40" fill="white" transform="translate(0 0.672302)"/>
        </clipPath>
    </defs>
</svg>
