<svg width="24" height="25" viewBox="0 0 24 25" fill="none" xmlns="http://www.w3.org/2000/svg">
    <g clip-path="url(#clip0_830_1367)">
        <path d="M22.162 6.32835C21.3986 6.66604 20.589 6.88782 19.76 6.98635C20.6338 6.46378 21.2877 5.64137 21.6 4.67235C20.78 5.16035 19.881 5.50235 18.944 5.68735C18.3146 5.01393 17.4804 4.56731 16.571 4.41694C15.6615 4.26656 14.7279 4.42084 13.9153 4.8558C13.1026 5.29077 12.4564 5.98203 12.0771 6.82214C11.6978 7.66225 11.6067 8.60413 11.818 9.50135C10.1551 9.418 8.52833 8.98587 7.04329 8.23302C5.55824 7.48016 4.24813 6.4234 3.198 5.13135C2.82629 5.7698 2.63095 6.49558 2.632 7.23435C2.632 8.68435 3.37 9.96535 4.492 10.7154C3.82801 10.6944 3.17863 10.5151 2.598 10.1924V10.2444C2.5982 11.2101 2.93237 12.146 3.54385 12.8934C4.15533 13.6409 5.00648 14.1538 5.953 14.3454C5.33661 14.5124 4.69031 14.537 4.063 14.4174C4.32987 15.2486 4.85001 15.9755 5.55059 16.4965C6.25118 17.0174 7.09713 17.3061 7.97 17.3224C7.10248 18.0037 6.10918 18.5073 5.04688 18.8045C3.98458 19.1017 2.87413 19.1866 1.779 19.0544C3.6907 20.2838 5.9161 20.9365 8.189 20.9343C15.882 20.9343 20.089 14.5614 20.089 9.03435C20.089 8.85435 20.084 8.67235 20.076 8.49435C20.8949 7.90252 21.6016 7.16937 22.163 6.32935L22.162 6.32835Z" fill="#2B2A29"/>
    </g>
    <defs>
        <clipPath id="clip0_830_1367">
            <rect width="24" height="24" fill="white" transform="translate(0 0.672363)"/>
        </clipPath>
    </defs>
</svg>
