<svg width="78" height="78" viewBox="0 0 78 78" fill="none" xmlns="http://www.w3.org/2000/svg">
    <path d="M8.66667 35.1L17.3333 26.4333L41.1667 50.2667L56.3333 35.1L69.3333 48.1V8.66667H8.66667V35.1ZM4.33333 0H73.6667C74.8159 0 75.9181 0.456546 76.7308 1.2692C77.5435 2.08186 78 3.18406 78 4.33333V73.6667C78 74.8159 77.5435 75.9181 76.7308 76.7308C75.9181 77.5435 74.8159 78 73.6667 78H4.33333C3.18406 78 2.08186 77.5435 1.2692 76.7308C0.456546 75.9181 0 74.8159 0 73.6667V4.33333C0 3.18406 0.456546 2.08186 1.2692 1.2692C2.08186 0.456546 3.18406 0 4.33333 0V0ZM54.1667 30.3333C52.4428 30.3333 50.7895 29.6485 49.5705 28.4295C48.3515 27.2105 47.6667 25.5572 47.6667 23.8333C47.6667 22.1094 48.3515 20.4561 49.5705 19.2371C50.7895 18.0182 52.4428 17.3333 54.1667 17.3333C55.8906 17.3333 57.5439 18.0182 58.7629 19.2371C59.9818 20.4561 60.6667 22.1094 60.6667 23.8333C60.6667 25.5572 59.9818 27.2105 58.7629 28.4295C57.5439 29.6485 55.8906 30.3333 54.1667 30.3333V30.3333Z" fill="white"/>
</svg>
