<?xml version="1.0" encoding="UTF-8"?>
<svg width="107px" height="33px" viewBox="0 0 107 33" version="1.1" xmlns="http://www.w3.org/2000/svg" xmlns:xlink="http://www.w3.org/1999/xlink">
    <!-- Generator: Sketch 63.1 (92452) - https://sketch.com -->
    <title>logo</title>
    <desc>Created with Sketch.</desc>
    <g id="Page-1" stroke="none" stroke-width="1" fill="none" fill-rule="evenodd">
        <g id="logo" fill="#FEFEFE">
            <path d="M16.2564,0.0058 C25.2303,0.0058 32.5052,7.2807 32.5052,16.2546 C32.5052,24.531 26.3173,31.3621 18.3156,32.374 L0.0124,16.6355 C0.0095,16.5088 0.0076,16.382 0.0076,16.2546 C0.0076,7.2807 7.2824,0.0058 16.2564,0.0058 L16.2564,0.0058 Z" id="Path"></path>
            <path d="M50.3827,27.7247 C50.3827,28.3259 50.1686,28.8108 49.7403,29.1797 C49.312,29.5513 48.6981,29.7371 47.9034,29.7371 C47.5344,29.7371 47.1758,29.688 46.8302,29.59 C46.4818,29.4894 46.2058,29.3837 46.002,29.2701 C45.7982,29.1591 45.6072,29.025 45.4318,28.8702 C45.2539,28.7179 45.1403,28.6097 45.0861,28.5451 C45.0345,28.4832 44.9984,28.4368 44.9778,28.4059 L44.2682,29.1926 L44.4101,29.3656 C44.4901,29.4765 44.6346,29.6132 44.841,29.7732 C45.0474,29.9357 45.2848,30.0931 45.553,30.2453 C45.8188,30.4001 46.1619,30.5343 46.5799,30.6478 C46.9978,30.7613 47.439,30.8181 47.9034,30.8181 C49.0411,30.8181 49.9337,30.5316 50.5787,29.9589 C51.2238,29.3862 51.5463,28.6431 51.5463,27.7247 C51.5463,27.1958 51.4379,26.7443 51.2212,26.3676 C51.0045,25.9935 50.7206,25.702 50.375,25.4956 C50.0267,25.2893 49.6449,25.1138 49.2295,24.9693 C48.8141,24.8275 48.3961,24.6958 47.9783,24.5772 C47.5603,24.4585 47.1758,24.3269 46.8302,24.1798 C46.4818,24.0354 46.2006,23.8316 45.9839,23.5684 C45.7672,23.3052 45.6588,22.988 45.6588,22.6164 C45.6588,22.103 45.8678,21.6644 46.2884,21.3006 C46.7089,20.9369 47.2764,20.7563 47.986,20.7563 C48.2826,20.7563 48.5716,20.795 48.8502,20.8749 C49.1314,20.9524 49.356,21.0401 49.5236,21.1381 C49.6938,21.2362 49.8538,21.3471 50.0035,21.4709 C50.1557,21.5947 50.2511,21.6799 50.2898,21.7289 C50.3311,21.7753 50.3621,21.8141 50.3827,21.845 L51.1593,21.0659 L51.0328,20.9163 C50.9503,20.8207 50.8187,20.7046 50.6304,20.5705 C50.4447,20.4389 50.2331,20.3047 49.9958,20.1706 C49.7584,20.0365 49.4642,19.9204 49.1082,19.8224 C48.7522,19.7243 48.3782,19.6753 47.986,19.6753 C46.9436,19.6753 46.1,19.9616 45.4602,20.5344 C44.8204,21.1045 44.5004,21.7985 44.5004,22.6164 C44.5004,23.1401 44.6089,23.5917 44.8255,23.9683 C45.0422,24.3476 45.3235,24.6391 45.6692,24.8455 C46.0148,25.0519 46.3967,25.2273 46.8146,25.3718 C47.2326,25.5137 47.6505,25.6453 48.0685,25.7639 C48.4864,25.8826 48.8683,26.0142 49.2139,26.1613 C49.5598,26.3082 49.8409,26.5122 50.0577,26.7727 C50.2744,27.0359 50.3827,27.3531 50.3827,27.7247 L50.3827,27.7247 Z M59.4383,26.9507 C59.4383,27.7557 59.1726,28.4316 58.6411,28.9836 C58.1097,29.5358 57.4724,29.8119 56.7268,29.8119 C55.9837,29.8119 55.3465,29.5333 54.815,28.9759 C54.2836,28.4187 54.0178,27.7428 54.0178,26.9482 C54.0178,26.1458 54.2836,25.4698 54.815,24.9177 C55.3465,24.3657 55.9837,24.0896 56.7268,24.0896 C57.4724,24.0896 58.1097,24.3657 58.6411,24.9177 C59.1726,25.4698 59.4383,26.1483 59.4383,26.9507 Z M52.9369,26.9507 C52.9369,28.0369 53.3058,28.9527 54.0437,29.6984 C54.7841,30.444 55.6794,30.8181 56.732,30.8181 C57.7846,30.8181 58.6797,30.444 59.4151,29.6984 C60.1504,28.9527 60.5194,28.0369 60.5194,26.9507 C60.5194,25.8645 60.1504,24.9486 59.4151,24.2005 C58.6797,23.4523 57.7846,23.0782 56.732,23.0782 C55.6794,23.0782 54.7841,23.4523 54.0437,24.2005 C53.3058,24.9486 52.9369,25.8645 52.9369,26.9507 Z M63.6101,19.8275 L62.529,19.8275 L62.529,30.6658 L63.6101,30.6658 L63.6101,19.8275 Z M71.5769,30.6658 L72.6656,30.6658 L72.6656,23.2356 L71.5769,23.2356 L71.5769,27.3403 C71.5769,28.06 71.3602,28.6535 70.9268,29.1153 C70.4933,29.5796 69.9619,29.8119 69.3323,29.8119 C68.7467,29.8119 68.2539,29.6003 67.8489,29.1772 C67.4465,28.7541 67.2452,28.2175 67.2452,27.5673 L67.2452,23.2356 L66.1642,23.2356 L66.1642,27.5673 C66.1642,28.5297 66.4506,29.3114 67.0233,29.9125 C67.5935,30.5162 68.3133,30.8181 69.1802,30.8181 C69.4769,30.8181 69.7658,30.7768 70.0471,30.6968 C70.3257,30.6143 70.55,30.5239 70.7229,30.4207 C70.8932,30.3175 71.0532,30.1989 71.2028,30.0647 C71.3498,29.9305 71.4453,29.8376 71.4867,29.7861 C71.5253,29.7319 71.5563,29.6906 71.5769,29.6596 L71.5769,30.6658 L71.5769,30.6658 Z M75.9163,22.4641 C75.9163,22.9801 75.7099,23.2356 75.2945,23.2356 L74.4406,23.2356 L74.4406,24.2417 L75.8389,24.2417 L75.8389,28.656 C75.8389,29.3449 76.0195,29.8789 76.3807,30.2531 C76.7419,30.6297 77.2399,30.8181 77.8797,30.8181 C78.2744,30.8233 78.6253,30.7458 78.9323,30.591 L78.9323,29.5848 L78.7956,29.6442 C78.7104,29.6751 78.5839,29.7113 78.4215,29.7525 C78.2563,29.7913 78.0912,29.8119 77.9261,29.8119 C77.2553,29.817 76.92,29.43 76.92,28.656 L76.92,24.2417 L78.5453,24.2417 L78.5453,23.2356 L76.92,23.2356 L76.92,20.7563 L75.9163,20.7563 L75.9163,22.4641 L75.9163,22.4641 Z M80.7898,30.6658 L81.8709,30.6658 L81.8709,23.2356 L80.7898,23.2356 L80.7898,30.6658 Z M80.6325,20.7563 C80.6325,20.9524 80.6996,21.1174 80.8312,21.2516 C80.9653,21.3858 81.1305,21.4529 81.3264,21.4529 C81.5225,21.4529 81.6877,21.3858 81.8218,21.2516 C81.956,21.1174 82.0231,20.9524 82.0231,20.7563 C82.0231,20.5602 81.956,20.3951 81.8218,20.2609 C81.6877,20.1294 81.5225,20.0623 81.3264,20.0623 C81.1305,20.0623 80.9653,20.1294 80.8312,20.2609 C80.6996,20.3951 80.6325,20.5602 80.6325,20.7563 Z M90.3073,26.9507 C90.3073,27.7557 90.0416,28.4316 89.5101,28.9836 C88.9786,29.5358 88.3413,29.8119 87.5958,29.8119 C86.8527,29.8119 86.2154,29.5333 85.684,28.9759 C85.1526,28.4187 84.8868,27.7428 84.8868,26.9482 C84.8868,26.1458 85.1526,25.4698 85.684,24.9177 C86.2154,24.3657 86.8527,24.0896 87.5958,24.0896 C88.3413,24.0896 88.9786,24.3657 89.5101,24.9177 C90.0416,25.4698 90.3073,26.1483 90.3073,26.9507 Z M83.8059,26.9507 C83.8059,28.0369 84.1748,28.9527 84.9127,29.6984 C85.6531,30.444 86.5484,30.8181 87.601,30.8181 C88.6535,30.8181 89.5487,30.444 90.2841,29.6984 C91.0194,28.9527 91.3883,28.0369 91.3883,26.9507 C91.3883,25.8645 91.0194,24.9486 90.2841,24.2005 C89.5487,23.4523 88.6535,23.0782 87.601,23.0782 C86.5484,23.0782 85.6531,23.4523 84.9127,24.2005 C84.1748,24.9486 83.8059,25.8645 83.8059,26.9507 Z M94.4042,23.2356 L93.3232,23.2356 L93.3232,30.6658 L94.4042,30.6658 L94.4042,26.5612 C94.4042,25.8414 94.6261,25.2479 95.0698,24.7861 C95.5136,24.3217 96.0657,24.0896 96.7262,24.0896 C97.3144,24.0896 97.7969,24.2882 98.1735,24.6829 C98.5477,25.0776 98.7359,25.6015 98.7359,26.2515 L98.7359,30.6658 L99.8246,30.6658 L99.8246,26.2515 C99.8246,25.2944 99.5435,24.5256 98.9862,23.9477 C98.4264,23.3671 97.6962,23.0782 96.801,23.0782 C96.5042,23.0782 96.2153,23.122 95.9342,23.2098 C95.6554,23.2975 95.4311,23.3956 95.2634,23.5038 C95.0931,23.6123 94.9331,23.7387 94.7835,23.8858 C94.6313,24.0327 94.5358,24.1334 94.4946,24.1876 C94.4558,24.2444 94.4248,24.2857 94.4042,24.3166 L94.4042,23.2356 L94.4042,23.2356 Z M106.7854,24.0896 L106.6719,23.976 C106.6125,23.9168 106.5119,23.8341 106.3751,23.7309 C106.2359,23.6278 106.0784,23.5271 105.9031,23.4291 C105.7251,23.331 105.5005,23.2485 105.2245,23.1789 C104.951,23.1118 104.6698,23.0782 104.3835,23.0782 C103.6714,23.0782 103.0806,23.2872 102.611,23.7051 C102.1389,24.1231 101.9041,24.6106 101.9041,25.1705 C101.9041,25.6453 102.0434,26.0323 102.322,26.3315 C102.6033,26.6308 102.9387,26.8502 103.3334,26.9894 C103.7256,27.1261 104.1177,27.2526 104.5073,27.366 C104.8968,27.4796 105.2323,27.6344 105.5134,27.8279 C105.7921,28.0214 105.9314,28.2717 105.9314,28.5787 C105.9314,28.9373 105.7921,29.2314 105.5134,29.4636 C105.2323,29.6957 104.8324,29.8119 104.306,29.8119 C104.0815,29.8119 103.8571,29.7732 103.6353,29.6984 C103.4134,29.6236 103.2302,29.5358 103.0908,29.4377 C102.949,29.3397 102.8174,29.2288 102.6936,29.1049 C102.5698,28.9811 102.4898,28.896 102.4562,28.8469 C102.4201,28.8006 102.3918,28.7618 102.371,28.7308 L101.5945,29.5023 L101.6926,29.6467 C101.7622,29.7371 101.8731,29.8455 102.0202,29.9745 C102.1699,30.1035 102.3453,30.2298 102.5465,30.3563 C102.7478,30.4826 103.0032,30.591 103.3127,30.6814 C103.6224,30.7716 103.9552,30.8181 104.306,30.8181 C105.1343,30.8181 105.7921,30.6039 106.2797,30.1783 C106.7699,29.7525 107.0124,29.2185 107.0124,28.5787 C107.0124,28.091 106.8757,27.6886 106.5971,27.3739 C106.321,27.0591 105.9856,26.8321 105.5934,26.6927 C105.1987,26.556 104.8065,26.4322 104.4118,26.3238 C104.0196,26.2154 103.6843,26.071 103.4082,25.8878 C103.1296,25.7072 102.9928,25.4673 102.9928,25.1705 C102.9928,24.8842 103.1218,24.6314 103.3773,24.4147 C103.6353,24.1979 103.9706,24.0896 104.3835,24.0896 C104.7059,24.0896 105.0078,24.1617 105.289,24.3063 C105.5728,24.4482 105.7534,24.5616 105.8308,24.6468 C105.9081,24.7294 105.9675,24.8016 106.0088,24.8609 L106.7854,24.0896 L106.7854,24.0896 Z" id="Shape" fill-rule="nonzero"></path>
            <path d="M74.934,10.969 C74.934,10.3127 75.1458,9.7607 75.5695,9.3132 C75.9961,8.8627 76.5003,8.6389 77.0821,8.6389 C77.6668,8.6389 78.1681,8.8627 78.5947,9.3132 C79.0213,9.7607 79.2332,10.3127 79.2332,10.969 C79.2332,11.6224 79.0213,12.1743 78.5947,12.6188 C78.1681,13.0663 77.6668,13.2901 77.0821,13.2901 C76.5003,13.2901 75.9961,13.0663 75.5695,12.6188 C75.1458,12.1743 74.934,11.6224 74.934,10.969 Z M74.8538,2.8182 L72.4342,2.8182 L72.4342,10.6684 C72.4281,10.7656 72.4249,10.8638 72.4249,10.963 C72.4249,12.1803 72.8874,13.2454 73.8152,14.1583 C74.7401,15.0712 75.829,15.5277 77.0821,15.5277 C78.3351,15.5277 79.4241,15.0712 80.346,14.1583 C81.2709,13.2454 81.7333,12.1803 81.7333,10.963 C81.7333,9.7458 81.2709,8.6807 80.346,7.7678 C79.4241,6.8578 78.3351,6.4013 77.0821,6.4013 C76.2705,6.4013 75.5277,6.5929 74.8538,6.9751 L74.8538,2.8182 L74.8538,2.8182 Z" id="Shape" fill-rule="nonzero"></path>
            <path d="M51.7645,9.7216 L51.7645,10.5185 L51.7645,10.5185 L51.7645,12.2221 L51.493,12.4488 C51.3051,12.6188 50.9829,12.7859 50.5234,12.953 C50.061,13.1171 49.5538,13.2007 48.9929,13.2007 C47.8204,13.2007 46.8419,12.8068 46.0572,12.0222 C45.2696,11.2345 44.8757,10.2559 44.8757,9.0834 C44.8757,7.9139 45.2696,6.9354 46.0572,6.1478 C46.8419,5.3601 47.8204,4.9693 48.9929,4.9693 C49.4195,4.9693 49.8342,5.0349 50.243,5.1632 C50.6517,5.2945 50.9799,5.4377 51.2305,5.5928 C51.4811,5.748 51.7138,5.9269 51.9256,6.1298 C52.1375,6.3357 52.2747,6.4789 52.3374,6.5625 C52.3971,6.649 52.4448,6.7116 52.4805,6.7594 L54.1841,5.0558 L53.9842,4.7933 C53.8559,4.6232 53.6441,4.4173 53.3518,4.1727 C53.0563,3.9281 52.7192,3.6834 52.3374,3.4388 C51.9555,3.1941 51.4662,2.9853 50.8725,2.8122 C50.2787,2.6421 49.6523,2.5557 48.9929,2.5557 C47.0805,2.5557 45.4694,3.1941 44.1538,4.471 C42.841,5.7449 42.1846,7.2844 42.1846,9.0834 C42.1846,10.8854 42.841,12.4249 44.1538,13.7048 C45.4694,14.9818 47.0805,15.6232 48.9929,15.6232 C49.6582,15.6232 50.3027,15.5367 50.9291,15.3607 C51.5557,15.1847 52.0629,14.9907 52.4508,14.7789 C52.8386,14.5671 53.2055,14.3224 53.5516,14.045 C53.8977,13.7675 54.1215,13.5736 54.2229,13.4602 C54.3273,13.3468 54.4019,13.2603 54.4466,13.2007 L54.4466,9.7216 L51.7645,9.7216 L51.7645,9.7216 Z" id="Path" fill-rule="nonzero"></path>
            <polygon id="Path" fill-rule="nonzero" points="59.3664 2.9058 56.9468 2.9058 56.9468 15.4393 59.3664 15.4393"></polygon>
            <path d="M63.7461,10.969 C63.7461,10.3127 63.9579,9.7607 64.3815,9.3132 C64.8082,8.8627 65.3124,8.6389 65.8942,8.6389 C66.4789,8.6389 66.9802,8.8627 67.4068,9.3132 C67.8334,9.7607 68.0453,10.3127 68.0453,10.969 C68.0453,11.6224 67.8334,12.1743 67.4068,12.6188 C66.9802,13.0663 66.4789,13.2901 65.8942,13.2901 C65.3124,13.2901 64.8082,13.0663 64.3815,12.6188 C63.9579,12.1743 63.7461,11.6224 63.7461,10.969 Z M70.5454,10.963 C70.5454,9.7458 70.083,8.6807 69.158,7.7678 C68.2361,6.8578 67.1472,6.4013 65.8942,6.4013 C64.6411,6.4013 63.5522,6.8578 62.6273,7.7678 C61.6994,8.6807 61.237,9.7458 61.237,10.963 C61.237,12.1803 61.6994,13.2454 62.6273,14.1583 C63.5522,15.0712 64.6411,15.5277 65.8942,15.5277 C67.1472,15.5277 68.2361,15.0712 69.158,14.1583 C70.083,13.2454 70.5454,12.1803 70.5454,10.963 Z" id="Shape" fill-rule="nonzero"></path>
            <polygon id="Path" fill-rule="nonzero" points="97.6944 2.9058 95.2748 2.9058 95.2748 15.4393 97.6944 15.4393"></polygon>
            <path d="M90.2655,10.969 C90.2655,10.3127 90.0537,9.7607 89.63,9.3132 C89.2034,8.8627 88.6992,8.6389 88.1174,8.6389 C87.5327,8.6389 87.0314,8.8627 86.6048,9.3132 C86.1782,9.7607 85.9663,10.3127 85.9663,10.969 C85.9663,11.6224 86.1782,12.1743 86.6048,12.6188 C87.0314,13.0663 87.5327,13.2901 88.1174,13.2901 C88.6992,13.2901 89.2034,13.0663 89.63,12.6188 C90.0537,12.1743 90.2655,11.6224 90.2655,10.969 Z M90.355,6.4921 L92.7746,6.4921 L92.7746,10.963 L92.7746,15.437 L90.355,15.437 L90.355,14.9478 C89.6787,15.3343 88.9328,15.5277 88.1174,15.5277 C86.8644,15.5277 85.7754,15.0712 84.8535,14.1583 C83.9286,13.2454 83.4662,12.1803 83.4662,10.963 C83.4662,9.7458 83.9286,8.6807 84.8535,7.7678 C85.7754,6.8578 86.8644,6.4013 88.1174,6.4013 C88.9328,6.4013 89.6787,6.5946 90.355,6.9804 L90.355,6.4921 L90.355,6.4921 Z" id="Shape" fill-rule="nonzero"></path>
        </g>
    </g>
</svg>