<?xml version="1.0" encoding="UTF-8"?>
<svg width="84px" height="31px" viewBox="0 0 84 31" version="1.1" xmlns="http://www.w3.org/2000/svg" xmlns:xlink="http://www.w3.org/1999/xlink">
    <title>global id</title>
    <g id="Page-1" stroke="none" stroke-width="1" fill="none" fill-rule="evenodd">
        <g id="5.gs-id" transform="translate(-20.000000, -12.000000)" fill="#FFFFFF">
            <g id="global-id" transform="translate(20.000000, 12.000000)">
                <path d="M7.281,0.28875 C8.24125,0.0994 9.2339,0 10.24985,0 C18.6799,0 25.51385,6.8339 25.51385,15.264 C25.51385,23.6941 18.6799,30.528 10.24985,30.528 C9.2339,30.528 8.24125,30.4286 7.281,30.23915 L7.281,0.28875 Z" id="Path"></path>
                <path d="M0.166625,3.8055 C1.7514,2.4099 3.6278,1.33785 5.6926,0.6925 L5.6926,29.8354 C3.6278,29.1901 1.7514,28.118 0.166625,26.7224 L0.166625,3.8055 Z" id="Path"></path>
                <path d="M40.35465,9.5486 L40.35465,8.8 L42.87415,8.8 L42.87415,12.0682 C42.83215,12.1242 42.7621,12.20545 42.6641,12.312 C42.56875,12.4185 42.3586,12.6007 42.0335,12.86135 C41.70835,13.12195 41.3636,13.35175 40.99935,13.5507 C40.635,13.74975 40.1585,13.93195 39.57,14.09725 C38.9815,14.2626 38.3761,14.34385 37.7511,14.34385 C35.95465,14.34385 34.44125,13.74135 33.20535,12.54175 C31.9722,11.33945 31.3556,9.89335 31.3556,8.2006 C31.3556,6.5106 31.9722,5.06445 33.20535,3.86775 C34.44125,2.66825 35.95465,2.0686 37.7511,2.0686 C38.3705,2.0686 38.959,2.14975 39.51675,2.3095 C40.0745,2.4721 40.5341,2.66825 40.89285,2.8981 C41.2515,3.12785 41.56815,3.3577 41.84575,3.5876 C42.12035,3.81735 42.31935,4.0107 42.43985,4.1705 L42.6276,4.4171 L41.02735,6.01735 L41.0201,6.00775 C40.98735,5.96425 40.945,5.908 40.89285,5.83245 C40.83395,5.75395 40.7051,5.61945 40.506,5.426 C40.3071,5.23545 40.0884,5.06735 39.8531,4.9215 C39.61765,4.77585 39.30935,4.64135 38.9254,4.518 C38.5414,4.3975 38.15185,4.33585 37.7511,4.33585 C36.64975,4.33585 35.7305,4.70295 34.99335,5.44285 C34.2535,6.1827 33.8835,7.10195 33.8835,8.2006 C33.8835,9.302 34.2535,10.2212 34.99335,10.9611 C35.7305,11.6982 36.64975,12.0682 37.7511,12.0682 C38.278,12.0682 38.75445,11.9897 39.18885,11.8355 C39.6204,11.6786 39.9231,11.5217 40.09965,11.36185 L40.35465,11.14895 L40.35465,9.5486 Z M45.22285,2.39755 L47.4955,2.39755 L47.4955,14.1711 L45.22285,14.1711 L45.22285,2.39755 Z M51.61,9.97185 C51.61,9.3553 51.809,8.8368 52.207,8.41635 C52.6075,7.9932 53.0815,7.78305 53.628,7.78305 C54.177,7.78305 54.648,7.9932 55.0485,8.41635 C55.4495,8.8368 55.6485,9.3553 55.6485,9.97185 C55.6485,10.5856 55.4495,11.1041 55.0485,11.5217 C54.648,11.94205 54.177,12.1523 53.628,12.1523 C53.0815,12.1523 52.6075,11.94205 52.207,11.5217 C51.809,11.1041 51.61,10.5856 51.61,9.97185 Z M57.997,9.9662 C57.997,8.8228 57.5625,7.8223 56.694,6.9647 C55.828,6.10985 54.805,5.6811 53.628,5.6811 C52.4505,5.6811 51.428,6.10985 50.559,6.9647 C49.6875,7.8223 49.253,8.8228 49.253,9.9662 C49.253,11.1097 49.6875,12.1102 50.559,12.9678 C51.428,13.82535 52.4505,14.2542 53.628,14.2542 C54.805,14.2542 55.828,13.82535 56.694,12.9678 C57.5625,12.1102 57.997,11.1097 57.997,9.9662 Z M81.227,2.39755 L83.5,2.39755 L83.5,14.1711 L81.227,14.1711 L81.227,2.39755 Z M62.1195,9.97185 C62.1195,9.35535 62.3185,8.83675 62.7165,8.41645 C63.1175,7.99325 63.591,7.783 64.1375,7.783 C64.6865,7.783 65.1575,7.99325 65.5585,8.41645 C65.959,8.83675 66.158,9.35535 66.158,9.97185 C66.158,10.5855 65.959,11.104 65.5585,11.5216 C65.1575,11.9421 64.6865,12.1521 64.1375,12.1521 C63.591,12.1521 63.1175,11.9421 62.7165,11.5216 C62.3185,11.104 62.1195,10.5855 62.1195,9.97185 Z M62.044,2.3152 L59.771,2.3152 L59.771,9.69085 C59.7655,9.7817 59.7625,9.87345 59.7625,9.9662 C59.7625,11.1097 60.197,12.1102 61.0685,12.96775 C61.9375,13.82535 62.9605,14.2542 64.1375,14.2542 C65.3145,14.2542 66.3375,13.82535 67.2035,12.96775 C68.0725,12.1102 68.5065,11.1097 68.5065,9.9662 C68.5065,8.82275 68.0725,7.82225 67.2035,6.9646 C66.3375,6.10985 65.3145,5.6811 64.1375,5.6811 C63.375,5.6811 62.6775,5.8611 62.044,6.22 L62.044,2.3152 Z M75.9245,8.41635 C76.3225,8.8368 76.5215,9.3553 76.5215,9.97185 C76.5215,10.5856 76.3225,11.1041 75.9245,11.5217 C75.524,11.94205 75.05,12.1523 74.5035,12.1523 C73.9545,12.1523 73.4835,11.94205 73.083,11.5217 C72.682,11.1041 72.483,10.5856 72.483,9.97185 C72.483,9.3553 72.682,8.8368 73.083,8.41635 C73.4835,7.9932 73.9545,7.78305 74.5035,7.78305 C75.05,7.78305 75.524,7.9932 75.9245,8.41635 Z M78.8785,5.76635 L76.6055,5.76635 L76.6055,6.22505 C75.9705,5.8627 75.2695,5.6811 74.5035,5.6811 C73.3265,5.6811 72.3035,6.10985 71.438,6.9647 C70.569,7.8223 70.1345,8.8228 70.1345,9.9662 C70.1345,11.1097 70.569,12.1102 71.438,12.9678 C72.3035,13.82535 73.3265,14.2542 74.5035,14.2542 C75.2695,14.2542 75.9705,14.07255 76.6055,13.70935 L76.6055,14.16895 L78.8785,14.16895 L78.8785,9.9662 L78.8785,5.76635 Z" id="Shape"></path>
                <path d="M34.0674,28.4595 L34.0674,17.9922 L35.19105,17.9922 L35.19105,28.4595 L34.0674,28.4595 Z M38.32305,17.9922 L41.61445,17.9922 C43.1394,17.9922 44.42745,18.5055 45.48395,19.532 C46.5405,20.5586 47.0685,21.78945 47.0685,23.2247 C47.0685,24.66225 46.5405,25.8932 45.48395,26.9197 C44.42745,27.9462 43.1394,28.4595 41.61445,28.4595 L38.32305,28.4595 L38.32305,17.9922 Z M41.61445,19.0437 L39.4467,19.0437 L39.4467,27.4155 L41.61445,27.4155 C42.8403,27.4155 43.8694,27.00935 44.70155,26.1971 C45.5337,25.38485 45.9499,24.3956 45.9499,23.2296 C45.9499,22.0635 45.5337,21.07435 44.70155,20.2621 C43.8694,19.44975 42.8403,19.0437 41.61445,19.0437 Z" id="Shape" fill-rule="nonzero"></path>
            </g>
        </g>
    </g>
</svg>